<svg width="16" height="16" viewBox="0 0 16 16" fill="none" xmlns="http://www.w3.org/2000/svg">
<path fill-rule="evenodd" clip-rule="evenodd" d="M8 8.66634C5.42267 8.66634 3.33333 10.7557 3.33333 13.333V14.6663C3.33333 15.0345 3.03486 15.333 2.66667 15.333C2.29848 15.333 2 15.0345 2 14.6663V13.333C2 10.0193 4.68629 7.33301 8 7.33301C11.3137 7.33301 14 10.0193 14 13.333V14.6663C14 15.0345 13.7015 15.333 13.3333 15.333C12.9651 15.333 12.6667 15.0345 12.6667 14.6663V13.333C12.6667 10.7557 10.5773 8.66634 8 8.66634Z" fill="#808191"/>
<path fill-rule="evenodd" clip-rule="evenodd" d="M8 7.33366C9.47276 7.33366 10.6667 6.13975 10.6667 4.66699C10.6667 3.19423 9.47276 2.00033 8 2.00033C6.52724 2.00033 5.33333 3.19423 5.33333 4.66699C5.33333 6.13975 6.52724 7.33366 8 7.33366ZM8 8.66699C10.2091 8.66699 12 6.87613 12 4.66699C12 2.45785 10.2091 0.666992 8 0.666992C5.79086 0.666992 4 2.45785 4 4.66699C4 6.87613 5.79086 8.66699 8 8.66699Z" fill="#808191"/>
</svg>
