<svg width="97" height="97" viewBox="0 0 97 97" fill="none" xmlns="http://www.w3.org/2000/svg">
<path fill-rule="evenodd" clip-rule="evenodd" d="M48.5 52.5413C32.8749 52.5413 20.2083 65.208 20.2083 80.833V88.9163C20.2083 91.1485 18.3988 92.958 16.1667 92.958C13.9345 92.958 12.125 91.1485 12.125 88.9163V80.833C12.125 60.7436 28.4106 44.458 48.5 44.458C68.5894 44.458 84.875 60.7436 84.875 80.833V88.9163C84.875 91.1485 83.0655 92.958 80.8333 92.958C78.6012 92.958 76.7917 91.1485 76.7917 88.9163V80.833C76.7917 65.208 64.1251 52.5413 48.5 52.5413Z" fill="#242731"/>
<path fill-rule="evenodd" clip-rule="evenodd" d="M48.5 44.4587C57.4286 44.4587 64.6667 37.2206 64.6667 28.292C64.6667 19.3634 57.4286 12.1253 48.5 12.1253C39.5714 12.1253 32.3333 19.3634 32.3333 28.292C32.3333 37.2206 39.5714 44.4587 48.5 44.4587ZM48.5 52.542C61.8929 52.542 72.75 41.6849 72.75 28.292C72.75 14.8991 61.8929 4.04199 48.5 4.04199C35.1071 4.04199 24.25 14.8991 24.25 28.292C24.25 41.6849 35.1071 52.542 48.5 52.542Z" fill="#242731"/>
</svg>
