<svg width="128" height="128" viewBox="0 0 128 128" fill="none" xmlns="http://www.w3.org/2000/svg">
<path fill-rule="evenodd" clip-rule="evenodd" d="M60.6602 43.9709C60.6602 42.1268 62.1541 40.6328 63.9983 40.6328C65.8424 40.6328 67.3364 42.1268 67.3364 43.9709V74.0138C67.3364 75.858 65.8424 77.3519 63.9983 77.3519C62.1541 77.3519 60.6602 75.858 60.6602 74.0138V43.9709ZM63.9983 80.6901C62.1541 80.6901 60.6602 82.1841 60.6602 84.0282C60.6602 85.8724 62.1541 87.3663 63.9983 87.3663C65.8424 87.3663 67.3364 85.8724 67.3364 84.0282C67.3364 82.1841 65.8424 80.6901 63.9983 80.6901Z" fill="#FFA2C0"/>
<rect x="2.49351" y="2.49351" width="123.013" height="123.013" rx="61.5065" stroke="#FFA2C0" stroke-width="4.98701"/>
</svg>
