<svg width="26" height="30" viewBox="0 0 26 30" fill="none" xmlns="http://www.w3.org/2000/svg">
<path fill-rule="evenodd" clip-rule="evenodd" d="M23.0491 24.0064C22.8454 24.2035 22.5729 24.3137 22.2894 24.3139L22.2896 24.3141C21.9807 24.3145 21.6862 24.184 21.479 23.9547V23.9545L13.1803 14.7851L10.4213 17.2821C9.8954 17.761 9.20926 18.026 8.49799 18.0248L8.49779 18.025C8.4492 18.025 8.40042 18.0236 8.35183 18.0211C7.591 17.9852 6.87578 17.6464 6.36608 17.0801H6.36628L3.35974 13.7583C2.84867 13.1937 2.58288 12.4493 2.62074 11.6886C2.65861 10.9281 2.99696 10.2137 3.56151 9.70264L10.6992 3.24235C11.2639 2.73148 12.0084 2.4657 12.7691 2.50355C13.5295 2.54142 14.244 2.87997 14.755 3.44452L17.7614 6.76639C18.2724 7.33094 18.5382 8.07538 18.5003 8.83606C18.4625 9.59653 18.1241 10.311 17.5596 10.822L14.8011 13.3184L23.0992 22.4878C23.2895 22.698 23.3906 22.9739 23.3812 23.2573C23.3718 23.5406 23.2528 23.8091 23.0491 24.0064ZM8.4608 15.838C8.64286 15.8503 8.82161 15.7865 8.9547 15.6616L16.093 9.20149C16.3734 8.94721 16.3951 8.5138 16.1412 8.23299L13.1346 4.91113C12.8806 4.63052 12.447 4.60886 12.1661 4.86273L5.02846 11.323C4.74785 11.5773 4.72619 12.0107 4.98007 12.2915L7.98661 15.6134C8.10818 15.7486 8.27912 15.8296 8.4608 15.838ZM20.105 27.5001H5.89159C5.50114 27.5001 5.14032 27.2916 4.94518 26.9537C4.75004 26.6155 4.75004 26.1989 4.94518 25.8609C5.14031 25.5227 5.50112 25.3145 5.89159 25.3145H20.105C20.4955 25.3145 20.8561 25.5227 21.0514 25.8609C21.2466 26.1989 21.2466 26.6155 21.0514 26.9537C20.8561 27.2917 20.4955 27.5001 20.105 27.5001Z" fill="#FCFCFD"/>
</svg>
