<svg width="33" height="32" viewBox="0 0 33 32" fill="none" xmlns="http://www.w3.org/2000/svg">
<path fill-rule="evenodd" clip-rule="evenodd" d="M16.4993 26.6665C22.3904 26.6665 27.166 21.8909 27.166 15.9998C27.166 10.1088 22.3904 5.33317 16.4993 5.33317C10.6083 5.33317 5.83268 10.1088 5.83268 15.9998C5.83268 21.8909 10.6083 26.6665 16.4993 26.6665ZM16.4993 29.3332C23.8631 29.3332 29.8327 23.3636 29.8327 15.9998C29.8327 8.63604 23.8631 2.6665 16.4993 2.6665C9.13555 2.6665 3.16602 8.63604 3.16602 15.9998C3.16602 23.3636 9.13555 29.3332 16.4993 29.3332Z" fill="#6C5DD3"/>
<path fill-rule="evenodd" clip-rule="evenodd" d="M16.4993 8C17.2357 8 17.8327 8.59695 17.8327 9.33333V15.4477L20.7755 18.3905C21.2962 18.9112 21.2962 19.7554 20.7755 20.2761C20.2548 20.7968 19.4106 20.7968 18.8899 20.2761L15.5565 16.9428C15.3065 16.6928 15.166 16.3536 15.166 16V9.33333C15.166 8.59695 15.763 8 16.4993 8Z" fill="#6C5DD3"/>
</svg>
