<svg width="16" height="16" viewBox="0 0 16 16" fill="none" xmlns="http://www.w3.org/2000/svg">
<path fill-rule="evenodd" clip-rule="evenodd" d="M13.333 12V7.33329C13.333 6.59691 12.7361 5.99996 11.9997 5.99996H3.99967C3.26329 5.99996 2.66634 6.59691 2.66634 7.33329V12C2.66634 12.7363 3.2633 13.3333 3.99967 13.3333H11.9997C12.7361 13.3333 13.333 12.7363 13.333 12ZM3.99967 4.66663C2.52692 4.66663 1.33301 5.86053 1.33301 7.33329V12C1.33301 13.4727 2.52692 14.6666 3.99967 14.6666H11.9997C13.4724 14.6666 14.6663 13.4727 14.6663 12V7.33329C14.6663 5.86053 13.4724 4.66663 11.9997 4.66663H3.99967Z" fill="#808191"/>
<path fill-rule="evenodd" clip-rule="evenodd" d="M6 2.66671C5.63181 2.66671 5.33333 2.96518 5.33333 3.33337V5.33337C5.33333 5.70156 5.03486 6.00004 4.66667 6.00004C4.29848 6.00004 4 5.70156 4 5.33337V3.33337C4 2.2288 4.89543 1.33337 6 1.33337H10C11.1046 1.33337 12 2.2288 12 3.33337V5.33337C12 5.70156 11.7015 6.00004 11.3333 6.00004C10.9651 6.00004 10.6667 5.70156 10.6667 5.33337V3.33337C10.6667 2.96518 10.3682 2.66671 10 2.66671H6Z" fill="#808191"/>
</svg>
