<svg width="18" height="18" viewBox="0 0 18 18" fill="none" xmlns="http://www.w3.org/2000/svg">
<path d="M6.86594 16.8246C5.2988 18.3918 2.74228 18.3918 1.17536 16.8246C-0.391786 15.2575 -0.391786 12.7012 1.17536 11.1341L4.73203 7.57739C6.22601 6.0834 8.61466 6.00095 10.1949 7.36056C10.4003 7.53634 10.4965 7.80826 10.4472 8.07423C10.3977 8.34 10.2102 8.5593 9.95528 8.6493C9.70038 8.73947 9.41672 8.68667 9.2113 8.51106C8.21676 7.6553 6.74757 7.69603 5.79915 8.64439L2.24248 12.2011C1.24794 13.1956 1.24794 14.7634 2.24248 15.7577C3.23684 16.7521 4.80466 16.7521 5.79915 15.7577L9.17775 12.3788C9.31862 12.2344 9.5116 12.1525 9.71335 12.1511C9.9151 12.1498 10.1089 12.2295 10.2516 12.3721C10.3942 12.5147 10.4738 12.7086 10.4726 12.9103C10.4712 13.1121 10.3893 13.3049 10.2449 13.4457L6.86594 16.8246ZM13.2679 10.4227C11.7739 11.9167 9.38527 11.9991 7.80502 10.6395H7.80519C7.65169 10.5093 7.55625 10.3234 7.54012 10.1227C7.52415 9.92199 7.58853 9.72323 7.71941 9.57024C7.8501 9.41727 8.03659 9.32271 8.23727 9.30744C8.43795 9.29218 8.63637 9.35762 8.78881 9.48902C9.78335 10.3446 11.2525 10.304 12.201 9.35569L15.7576 5.79902C16.7522 4.80448 16.7522 3.23684 15.7576 2.24235C14.7633 1.24799 13.1955 1.24799 12.201 2.24235L8.82218 5.62113C8.68149 5.76603 8.48851 5.84831 8.28658 5.84971C8.08448 5.85111 7.89046 5.77164 7.74766 5.62884C7.60485 5.48604 7.52521 5.29184 7.52661 5.08992C7.52801 4.888 7.61047 4.69502 7.7552 4.55414L11.134 1.17536C12.7011 -0.391786 15.2576 -0.391786 16.8246 1.17536C18.3917 2.7425 18.3917 5.29902 16.8246 6.86594L13.2679 10.4227Z" fill="#FCFCFD"/>
</svg>
