<svg width="40" height="40" viewBox="0 0 40 40" fill="none" xmlns="http://www.w3.org/2000/svg">
<path fill-rule="evenodd" clip-rule="evenodd" d="M20 36.6355C29.1876 36.6355 36.6355 29.1876 36.6355 20C36.6355 10.8124 29.1876 3.36445 20 3.36445C10.8124 3.36445 3.36445 10.8124 3.36445 20C3.36445 29.1876 10.8124 36.6355 20 36.6355ZM20 40C31.0457 40 40 31.0457 40 20C40 8.9543 31.0457 0 20 0C8.9543 0 0 8.9543 0 20C0 31.0457 8.9543 40 20 40Z" fill="#7FBA7A"/>
<path fill-rule="evenodd" clip-rule="evenodd" d="M27.986 14.5209C28.4509 14.9928 28.4509 15.7579 27.986 16.2297L18.4621 25.8964C17.9972 26.3683 17.2435 26.3683 16.7786 25.8964L12.0167 21.0631C11.5517 20.5912 11.5517 19.8261 12.0167 19.3542C12.4816 18.8824 13.2353 18.8824 13.7002 19.3542L17.6203 23.3332L26.3024 14.5209C26.7673 14.049 27.521 14.049 27.986 14.5209Z" fill="#7FBA7A"/>
</svg>
