<svg width="17" height="17" viewBox="0 0 17 17" fill="none" xmlns="http://www.w3.org/2000/svg">
<path fill-rule="evenodd" clip-rule="evenodd" d="M6.4987 13.3477C8.33965 13.3477 9.83203 11.8553 9.83203 10.0143C9.83203 8.17337 8.33965 6.68099 6.4987 6.68099C4.65775 6.68099 3.16536 8.17337 3.16536 10.0143C3.16536 11.8553 4.65775 13.3477 6.4987 13.3477ZM6.4987 14.681C9.07603 14.681 11.1654 12.5917 11.1654 10.0143C11.1654 7.43699 9.07603 5.34766 6.4987 5.34766C3.92137 5.34766 1.83203 7.43699 1.83203 10.0143C1.83203 12.5917 3.92137 14.681 6.4987 14.681Z" fill="#808191"/>
<path fill-rule="evenodd" clip-rule="evenodd" d="M10.4997 2.68099C9.51255 2.68099 8.6263 3.10926 8.01499 3.79227C7.76944 4.06662 7.34798 4.08996 7.07363 3.84441C6.79928 3.59886 6.77593 3.1774 7.02148 2.90305C7.87502 1.94939 9.11754 1.34766 10.4997 1.34766C13.077 1.34766 15.1664 3.43699 15.1664 6.01432C15.1664 7.3965 14.5646 8.63901 13.611 9.49255C13.3366 9.7381 12.9152 9.71476 12.6696 9.44041C12.4241 9.16606 12.4474 8.74459 12.7218 8.49904C13.4048 7.88773 13.833 7.00148 13.833 6.01432C13.833 4.17337 12.3407 2.68099 10.4997 2.68099Z" fill="#808191"/>
</svg>
