<svg width="40" height="40" viewBox="0 0 40 40" fill="none" xmlns="http://www.w3.org/2000/svg">
<path fill-rule="evenodd" clip-rule="evenodd" d="M36.6355 20C36.6355 29.1876 29.1876 36.6355 20 36.6355C10.8124 36.6355 3.36445 29.1876 3.36445 20C3.36445 10.8124 10.8124 3.36445 20 3.36445C29.1876 3.36445 36.6355 10.8124 36.6355 20ZM40 20C40 31.0457 31.0457 40 20 40C8.9543 40 0 31.0457 0 20C0 8.9543 8.9543 0 20 0C31.0457 0 40 8.9543 40 20ZM30 22.3927V17.6084C30 14.7587 28.6926 13.3339 26.0777 13.3339L13.9223 13.3339C11.3074 13.3339 10 14.7587 10 17.6084V22.3927C10 25.2424 11.3074 26.6672 13.9223 26.6672H26.0777C28.6926 26.6672 30 25.2424 30 22.3927ZM25.4437 22.1574H14.5563C14.1337 22.1574 13.8431 22.079 13.6846 21.9221C13.5526 21.7652 13.4865 21.4777 13.4865 21.0594V18.9809C13.4865 18.5365 13.5526 18.2358 13.6846 18.079C13.8431 17.9221 14.1337 17.8437 14.5563 17.8437H25.4437C25.8663 17.8437 26.1437 17.9221 26.2758 18.079C26.4342 18.2358 26.5135 18.5365 26.5135 18.9809V21.0594C26.5135 21.4777 26.4342 21.7652 26.2758 21.9221C26.1437 22.079 25.8663 22.1574 25.4437 22.1574Z" fill="#808191"/>
</svg>
