<svg width="128" height="128" viewBox="0 0 128 128" fill="none" xmlns="http://www.w3.org/2000/svg">
<path fill-rule="evenodd" clip-rule="evenodd" d="M41.9624 41.9624C43.2455 40.6792 45.3259 40.6792 46.6091 41.9624L64 59.3533L81.3909 41.9624C82.6741 40.6792 84.7545 40.6792 86.0376 41.9624C87.3208 43.2455 87.3208 45.3259 86.0376 46.6091L68.6467 64L86.0376 81.3909C87.3208 82.6741 87.3208 84.7545 86.0376 86.0376C84.7545 87.3208 82.6741 87.3208 81.3909 86.0376L64 68.6467L46.6091 86.0376C45.3259 87.3208 43.2455 87.3208 41.9624 86.0376C40.6792 84.7545 40.6792 82.6741 41.9624 81.3909L59.3533 64L41.9624 46.6091C40.6792 45.3259 40.6792 43.2455 41.9624 41.9624Z" fill="#FFA2C0"/>
<rect x="2.49351" y="2.49351" width="123.013" height="123.013" rx="61.5065" stroke="#FFA2C0" stroke-width="4.98701"/>
</svg>
