<svg width="16" height="16" viewBox="0 0 16 16" fill="none" xmlns="http://www.w3.org/2000/svg">
<g clip-path="url(#clip0_10787_9725)">
<path d="M14.0003 14.6667C14.0003 15.0349 13.7018 15.3334 13.3337 15.3334C12.9655 15.3334 12.667 15.0349 12.667 14.6667L12.667 1.33337C12.667 0.965185 12.9655 0.666708 13.3337 0.666708C13.7018 0.666708 14.0003 0.965185 14.0003 1.33337L14.0003 14.6667Z" fill="#FCFCFD"/>
<path d="M2.66667 7.33329C2.29848 7.33329 2 7.63177 2 7.99996C2 8.36815 2.29848 8.66663 2.66667 8.66663L9.05719 8.66663L8.19526 9.52855C7.93491 9.7889 7.93491 10.211 8.19526 10.4714C8.45561 10.7317 8.87772 10.7317 9.13807 10.4714L11.1381 8.47136C11.3984 8.21101 11.3984 7.7889 11.1381 7.52855L9.13807 5.52856C8.87772 5.26821 8.45561 5.26821 8.19526 5.52856C7.93491 5.7889 7.93491 6.21101 8.19526 6.47136L9.05719 7.33329L2.66667 7.33329Z" fill="#FCFCFD"/>
</g>
<defs>
<clipPath id="clip0_10787_9725">
<rect width="16" height="16" fill="#FCFCFD" transform="translate(0 16) rotate(-90)"/>
</clipPath>
</defs>
</svg>
