<svg width="160" height="160" viewBox="0 0 160 160" fill="none" xmlns="http://www.w3.org/2000/svg">
<path fill-rule="evenodd" clip-rule="evenodd" d="M79.9987 26.6663C66.9838 26.6663 54.9865 27.7397 45.3567 29.0115C36.6902 30.1561 30.1551 36.6912 29.0105 45.3577C27.7387 54.9874 26.6654 66.9848 26.6654 79.9997C26.6654 93.0146 27.7387 105.012 29.0105 114.642C30.1551 123.308 36.6902 129.843 45.3567 130.988C54.9865 132.26 66.9838 133.333 79.9987 133.333C93.0136 133.333 105.011 132.26 114.641 130.988C123.307 129.843 129.842 123.308 130.987 114.642C132.259 105.012 133.332 93.0146 133.332 79.9997C133.332 66.9848 132.259 54.9874 130.987 45.3577C129.842 36.6912 123.307 30.1561 114.641 29.0115C105.011 27.7397 93.0136 26.6663 79.9987 26.6663ZM43.611 15.793C28.9657 17.7272 17.7262 28.9666 15.792 43.6119C14.4623 53.6802 13.332 66.2748 13.332 79.9997C13.332 93.7245 14.4623 106.319 15.792 116.387C17.7262 131.033 28.9657 142.272 43.611 144.206C53.6792 145.536 66.2739 146.666 79.9987 146.666C93.7235 146.666 106.318 145.536 116.386 144.206C131.032 142.272 142.271 131.033 144.205 116.387C145.535 106.319 146.665 93.7245 146.665 79.9997C146.665 66.2748 145.535 53.6802 144.205 43.6119C142.271 28.9666 131.032 17.7272 116.386 15.793C106.318 14.4632 93.7235 13.333 79.9987 13.333C66.2739 13.333 53.6792 14.4632 43.611 15.793Z" fill="#242731"/>
<path d="M60.0041 73.3337C67.3679 73.3337 73.3374 67.3641 73.3374 60.0003C73.3374 52.6365 67.3679 46.667 60.0041 46.667C52.6403 46.667 46.6707 52.6365 46.6707 60.0003C46.6707 67.3641 52.6403 73.3337 60.0041 73.3337Z" fill="#242731"/>
<path d="M120.813 84.7156L132.775 96.6778C132.362 102.919 131.76 108.71 131.095 113.854L111.385 94.1437C108.781 91.5402 104.56 91.5402 101.957 94.1437L87.4795 108.621C79.669 116.431 67.0057 116.431 59.1952 108.621L58.0514 107.477C55.4479 104.874 51.2268 104.874 48.6233 107.477L32.5629 123.537C30.7024 121.015 29.4576 117.987 29.0158 114.642C28.7749 112.818 28.541 110.909 28.3203 108.924L39.1953 98.0489C47.0057 90.2384 59.669 90.2385 67.4795 98.0489L68.6233 99.1928C71.2268 101.796 75.4479 101.796 78.0514 99.1928L92.5286 84.7156C100.339 76.9051 113.002 76.9051 120.813 84.7156Z" fill="#242731"/>
</svg>
