<svg width="40" height="48" viewBox="0 0 40 48" fill="none" xmlns="http://www.w3.org/2000/svg">
<g clip-path="url(#clip0_7633_9527)">
<path fill-rule="evenodd" clip-rule="evenodd" d="M20.0001 8.00021C11.1636 8.00021 4.00021 15.1636 4.00021 24.0001C4.00021 32.8366 11.1636 40 20.0001 40C28.8366 40 36 32.8366 36 24.0001C36 15.1636 28.8366 8.00021 20.0001 8.00021ZM20.0001 4.00023C8.95449 4.00023 0.000235411 12.9545 0.000234445 24.0001C0.000233479 35.0457 8.95449 44 20.0001 44C31.0457 44 40 35.0457 40 24.0001C40 12.9545 31.0458 4.00023 20.0001 4.00023Z" fill="#FFA2C0"/>
<path fill-rule="evenodd" clip-rule="evenodd" d="M20 33.9995C21.1046 33.9995 22 33.1041 22 31.9995C22 30.895 21.1046 29.9995 20 29.9995C18.8954 29.9995 18 30.895 18 31.9995C18 33.1041 18.8954 33.9995 20 33.9995ZM20 25.9996C21.1046 25.9996 22 25.1041 22 23.9996L22 15.9996C22 14.8951 21.1046 13.9996 20 13.9996C18.8954 13.9996 18 14.8951 18 15.9996L18 23.9996C18 25.1041 18.8954 25.9996 20 25.9996Z" fill="#FFA2C0"/>
</g>
<defs>
<clipPath id="clip0_7633_9527">
<rect y="4" width="40" height="40" rx="20" fill="white"/>
</clipPath>
</defs>
</svg>
