<svg width="17" height="17" viewBox="0 0 17 17" fill="none" xmlns="http://www.w3.org/2000/svg">
<path fill-rule="evenodd" clip-rule="evenodd" d="M8.49967 14.0332C11.4452 14.0332 13.833 11.6454 13.833 8.69987C13.833 5.75435 11.4452 3.36654 8.49967 3.36654C5.55416 3.36654 3.16634 5.75435 3.16634 8.69987C3.16634 11.6454 5.55416 14.0332 8.49967 14.0332ZM8.49967 15.3665C12.1816 15.3665 15.1663 12.3818 15.1663 8.69987C15.1663 5.01797 12.1816 2.0332 8.49967 2.0332C4.81778 2.0332 1.83301 5.01797 1.83301 8.69987C1.83301 12.3818 4.81778 15.3665 8.49967 15.3665Z" fill="#777E91"/>
<path fill-rule="evenodd" clip-rule="evenodd" d="M9.66478 12.8176C10.1572 11.8327 10.5003 10.3787 10.5003 8.69987C10.5003 7.02103 10.1572 5.56705 9.66478 4.58211C9.13243 3.51742 8.6437 3.36654 8.50033 3.36654C8.35696 3.36654 7.86822 3.51742 7.33587 4.58211C6.8434 5.56705 6.50033 7.02103 6.50033 8.69987C6.50033 10.3787 6.8434 11.8327 7.33587 12.8176C7.86822 13.8823 8.35696 14.0332 8.50033 14.0332C8.6437 14.0332 9.13243 13.8823 9.66478 12.8176ZM8.50033 15.3665C10.3413 15.3665 11.8337 12.3818 11.8337 8.69987C11.8337 5.01797 10.3413 2.0332 8.50033 2.0332C6.65938 2.0332 5.16699 5.01797 5.16699 8.69987C5.16699 12.3818 6.65938 15.3665 8.50033 15.3665Z" fill="#777E91"/>
<path fill-rule="evenodd" clip-rule="evenodd" d="M15.1334 9.36654C15.1552 9.14727 15.1663 8.92487 15.1663 8.69987C15.1663 8.47487 15.1552 8.25247 15.1334 8.0332H1.86592C1.84415 8.25247 1.83301 8.47487 1.83301 8.69987C1.83301 8.92487 1.84415 9.14727 1.86592 9.36654H15.1334Z" fill="#777E91"/>
</svg>
