<svg width="32" height="32" viewBox="0 0 32 32" fill="none" xmlns="http://www.w3.org/2000/svg">
<path fill-rule="evenodd" clip-rule="evenodd" d="M16.0013 26.6666C21.8923 26.6666 26.668 21.891 26.668 16C26.668 10.1089 21.8923 5.33329 16.0013 5.33329C10.1103 5.33329 5.33464 10.1089 5.33464 16C5.33464 21.891 10.1103 26.6666 16.0013 26.6666ZM16.0013 29.3333C23.3651 29.3333 29.3346 23.3638 29.3346 16C29.3346 8.63616 23.3651 2.66663 16.0013 2.66663C8.63751 2.66663 2.66797 8.63616 2.66797 16C2.66797 23.3638 8.63751 29.3333 16.0013 29.3333Z" fill="#3F8CFF"/>
<path fill-rule="evenodd" clip-rule="evenodd" d="M16.0013 9.33337C15.2649 9.33337 14.668 9.93033 14.668 10.6667C14.668 11.4031 15.2649 12 16.0013 12C16.7377 12 17.3346 11.4031 17.3346 10.6667C17.3346 9.93033 16.7377 9.33337 16.0013 9.33337ZM16.0013 14.6667C15.2649 14.6667 14.668 15.2637 14.668 16V21.3334C14.668 22.0698 15.2649 22.6667 16.0013 22.6667C16.7377 22.6667 17.3346 22.0698 17.3346 21.3334V16C17.3346 15.2637 16.7377 14.6667 16.0013 14.6667Z" fill="#3F8CFF"/>
</svg>
