<svg width="24" height="25" viewBox="0 0 24 25" fill="none" xmlns="http://www.w3.org/2000/svg">
<path fill-rule="evenodd" clip-rule="evenodd" d="M16 4.54395H8C5.79086 4.54395 4 6.33481 4 8.54395V16.5439C4 18.753 5.79086 20.5439 8 20.5439H16C18.2091 20.5439 20 18.753 20 16.5439V8.54395C20 6.33481 18.2091 4.54395 16 4.54395ZM8 2.54395C4.68629 2.54395 2 5.23024 2 8.54395V16.5439C2 19.8576 4.68629 22.5439 8 22.5439H16C19.3137 22.5439 22 19.8576 22 16.5439V8.54395C22 5.23024 19.3137 2.54395 16 2.54395H8Z" fill="#777E91"/>
<path d="M17 8.54395C17.5523 8.54395 18 8.09623 18 7.54395C18 6.99167 17.5523 6.54395 17 6.54395C16.4477 6.54395 16 6.99167 16 7.54395C16 8.09623 16.4477 8.54395 17 8.54395Z" fill="#777E91"/>
<path fill-rule="evenodd" clip-rule="evenodd" d="M17 12.5439C17 15.3053 14.7614 17.5439 12 17.5439C9.23858 17.5439 7 15.3053 7 12.5439C7 9.78253 9.23858 7.54395 12 7.54395C14.7614 7.54395 17 9.78253 17 12.5439ZM15 12.5439C15 14.2008 13.6569 15.5439 12 15.5439C10.3431 15.5439 9 14.2008 9 12.5439C9 10.887 10.3431 9.54395 12 9.54395C13.6569 9.54395 15 10.887 15 12.5439Z" fill="#777E91"/>
</svg>
