<svg width="33" height="32" viewBox="0 0 33 32" fill="none" xmlns="http://www.w3.org/2000/svg">
<path fill-rule="evenodd" clip-rule="evenodd" d="M16.5013 26.667C22.3923 26.667 27.168 21.8914 27.168 16.0003C27.168 10.1093 22.3923 5.33366 16.5013 5.33366C10.6103 5.33366 5.83464 10.1093 5.83464 16.0003C5.83464 21.8914 10.6103 26.667 16.5013 26.667ZM16.5013 29.3337C23.8651 29.3337 29.8346 23.3641 29.8346 16.0003C29.8346 8.63653 23.8651 2.66699 16.5013 2.66699C9.13751 2.66699 3.16797 8.63653 3.16797 16.0003C3.16797 23.3641 9.13751 29.3337 16.5013 29.3337Z" fill="#3F8CFF"/>
<path fill-rule="evenodd" clip-rule="evenodd" d="M16.5013 8C17.2377 8 17.8346 8.59695 17.8346 9.33333V15.4477L20.7774 18.3905C21.2981 18.9112 21.2981 19.7554 20.7774 20.2761C20.2567 20.7968 19.4125 20.7968 18.8918 20.2761L15.5585 16.9428C15.3084 16.6928 15.168 16.3536 15.168 16V9.33333C15.168 8.59695 15.7649 8 16.5013 8Z" fill="#3F8CFF"/>
</svg>
