<svg width="24" height="33" viewBox="0 0 24 33" fill="none" xmlns="http://www.w3.org/2000/svg">
<circle cx="12" cy="12" r="11" fill="#1F2128" stroke="#7FBA7A" stroke-width="2"/>
<path d="M7 30.8005V22.6874C7 22.3553 7.33228 22.1258 7.6429 22.2434L7.85957 22.3255C10.6095 23.3668 13.65 23.339 16.3804 22.2476C16.6772 22.129 17 22.3476 17 22.6672V30.7582C17 31.2463 16.4276 31.5097 16.0569 31.1922L12.497 28.1432C12.2874 27.9637 11.9795 27.9596 11.7652 28.1335L7.93147 31.2442C7.55797 31.5473 7 31.2815 7 30.8005Z" fill="#7FBA7A" stroke="#7FBA7A" stroke-width="1.71429"/>
<path d="M17.08 10.5213L13.9573 10.0651L12.5613 7.22008C12.5232 7.14219 12.4605 7.07913 12.383 7.04081C12.1887 6.94437 11.9525 7.02473 11.8554 7.22008L10.4594 10.0651L7.33673 10.5213C7.25063 10.5336 7.17192 10.5744 7.11166 10.6363C7.0388 10.7116 6.99865 10.8128 7.00003 10.9179C7.00142 11.0229 7.04422 11.123 7.11904 11.1964L9.37836 13.4108L8.84458 16.5376C8.83207 16.6104 8.84007 16.6852 8.8677 16.7536C8.89532 16.822 8.94145 16.8812 9.00087 16.9246C9.06028 16.968 9.13059 16.9937 9.20384 16.999C9.27708 17.0042 9.35032 16.9888 9.41526 16.9543L12.2084 15.478L15.0015 16.9543C15.0777 16.9951 15.1663 17.0087 15.2511 16.9939C15.4651 16.9568 15.609 16.7528 15.5721 16.5376L15.0384 13.4108L17.2977 11.1964C17.3592 11.1358 17.3998 11.0566 17.4121 10.9701C17.4453 10.7537 17.2952 10.5534 17.08 10.5213Z" fill="#7FBA7A"/>
</svg>
