<svg width="16" height="16" viewBox="0 0 16 16" fill="none" xmlns="http://www.w3.org/2000/svg">
<path fill-rule="evenodd" clip-rule="evenodd" d="M1.34981 12.2649L1.83291 10.091C1.94293 9.59589 2.19184 9.14245 2.55045 8.78384L9.11574 2.21855C10.1571 1.17715 11.8456 1.17715 12.887 2.21855L13.7824 3.11398C14.8238 4.15538 14.8238 5.84382 13.7824 6.88521L7.21712 13.4505C6.85851 13.8091 6.40506 14.058 5.90998 14.1681L3.73604 14.6511C2.30705 14.9687 1.03225 13.6939 1.34981 12.2649ZM3.13449 10.3802L2.65139 12.5542C2.54554 13.0305 2.97047 13.4554 3.4468 13.3496L5.62074 12.8665C5.85881 12.8136 6.07762 12.6964 6.25352 12.528L3.47292 9.74744C3.30453 9.92334 3.18739 10.1421 3.13449 10.3802ZM4.41551 8.8044L7.19655 11.5855L10.9204 7.86159L8.13936 5.08055L4.41551 8.8044ZM12.8396 5.94241L11.8632 6.91879L9.08217 4.13774L10.0585 3.16136C10.5792 2.64066 11.4235 2.64066 11.9442 3.16136L12.8396 4.05679C13.3603 4.57749 13.3603 5.42171 12.8396 5.94241Z" fill="#FCFCFD"/>
</svg>
