<svg width="32" height="32" viewBox="0 0 32 32" fill="none" xmlns="http://www.w3.org/2000/svg">
<path fill-rule="evenodd" clip-rule="evenodd" d="M15.9993 26.6665C21.8904 26.6665 26.666 21.8909 26.666 15.9998C26.666 10.1088 21.8904 5.33317 15.9993 5.33317C10.1083 5.33317 5.33268 10.1088 5.33268 15.9998C5.33268 21.8909 10.1083 26.6665 15.9993 26.6665ZM15.9993 29.3332C23.3631 29.3332 29.3327 23.3636 29.3327 15.9998C29.3327 8.63604 23.3631 2.6665 15.9993 2.6665C8.63555 2.6665 2.66602 8.63604 2.66602 15.9998C2.66602 23.3636 8.63555 29.3332 15.9993 29.3332Z" fill="#FFA2C0"/>
<path fill-rule="evenodd" clip-rule="evenodd" d="M15.9993 8C16.7357 8 17.3327 8.59695 17.3327 9.33333V15.4477L20.2755 18.3905C20.7962 18.9112 20.7962 19.7554 20.2755 20.2761C19.7548 20.7968 18.9106 20.7968 18.3899 20.2761L15.0565 16.9428C14.8065 16.6928 14.666 16.3536 14.666 16V9.33333C14.666 8.59695 15.263 8 15.9993 8Z" fill="#FFA2C0"/>
</svg>
