<svg width="32" height="32" viewBox="0 0 32 32" fill="none" xmlns="http://www.w3.org/2000/svg">
<g id="icons/Shopping Tag/Line">
<path id="Shape" fill-rule="evenodd" clip-rule="evenodd" d="M13.8852 4.2286C14.8854 3.22841 16.242 2.6665 17.6565 2.6665H25.3329C27.5421 2.6665 29.3329 4.45737 29.3329 6.6665V14.343C29.3329 15.7575 28.771 17.114 27.7708 18.1142L17.4947 28.3904C15.9326 29.9525 13.3999 29.9525 11.8378 28.3904L3.60907 20.1616C2.04697 18.5995 2.04698 16.0668 3.60907 14.5047L13.8852 4.2286ZM17.6565 5.33317C16.9492 5.33317 16.2709 5.61412 15.7708 6.11422L5.49469 16.3904C4.97399 16.9111 4.97399 17.7553 5.49469 18.276L13.7235 26.5047C14.2442 27.0254 15.0884 27.0254 15.6091 26.5047L25.8852 16.2286C26.3853 15.7285 26.6663 15.0502 26.6663 14.343V6.6665C26.6663 5.93012 26.0693 5.33317 25.3329 5.33317H17.6565Z" fill="#FCFCFD"/>
<path id="Shape_2" d="M4.78125 13.3333L6.66687 11.4476L20.5525 25.3333L18.6669 27.2189L4.78125 13.3333Z" fill="#FCFCFD"/>
<path id="Shape_3" fill-rule="evenodd" clip-rule="evenodd" d="M20 13.3336C20.7364 13.3336 21.3333 12.7366 21.3333 12.0002C21.3333 11.2639 20.7364 10.6669 20 10.6669C19.2636 10.6669 18.6667 11.2639 18.6667 12.0002C18.6667 12.7366 19.2636 13.3336 20 13.3336ZM20 16.0002C22.2091 16.0002 24 14.2094 24 12.0002C24 9.79111 22.2091 8.00024 20 8.00024C17.7909 8.00024 16 9.79111 16 12.0002C16 14.2094 17.7909 16.0002 20 16.0002Z" fill="#FCFCFD"/>
</g>
</svg>
