<svg width="22" height="19" viewBox="0 0 22 19" fill="none" xmlns="http://www.w3.org/2000/svg">
<path fill-rule="evenodd" clip-rule="evenodd" d="M2.17904 11.5437C0.525321 11.5484 -0.542196 13.4323 0.476601 14.8596C1.93562 16.9035 4.58137 18.5439 8.99839 18.5439C15.8435 18.5439 21.3381 12.9656 20.5689 6.37505L21.6958 4.12125C22.4773 2.55823 21.1193 0.780165 19.4057 1.12289L17.9169 1.42064C17.5222 1.21238 17.1137 1.05522 16.7646 0.941355C16.0842 0.719465 15.2607 0.543945 14.4984 0.543945C13.1291 0.543945 11.9473 0.895255 11.0081 1.59988C10.0796 2.29659 9.55659 3.2122 9.26959 4.053C9.13729 4.44056 9.04919 4.82929 8.99266 5.20238C8.46139 5.03518 7.91968 4.81021 7.38934 4.5355C6.18614 3.91227 5.21319 3.12217 4.66434 2.42946C3.74351 1.26725 1.79207 1.35342 1.10729 2.86416C0.142151 4.99342 0.406901 7.51741 1.27444 9.55685C1.56522 10.2403 1.94347 10.916 2.40558 11.5422C2.32647 11.5431 2.25079 11.5435 2.17904 11.5437ZM8.99829 16.5439C5.13495 16.5439 3.13728 15.1446 2.10433 13.6976C2.05792 13.6326 2.10472 13.5439 2.18459 13.5437C3.23543 13.5407 5.39243 13.491 6.81503 12.6584C6.8886 12.6153 6.87241 12.5068 6.79161 12.4797C3.47544 11.3647 1.59041 6.64254 2.92879 3.68985C2.95948 3.62215 3.05048 3.61322 3.09665 3.67149C4.62552 5.60113 7.96832 7.49115 10.8767 7.54286C10.9398 7.54395 10.9875 7.48665 10.9779 7.42428C10.8607 6.66448 10.4132 2.54395 14.4983 2.54395C15.4738 2.54395 16.9252 3.01978 17.4598 3.50725C17.4845 3.52978 17.518 3.54001 17.5508 3.53345L19.7978 3.08405C19.8794 3.06773 19.9441 3.1524 19.9069 3.22683L18.5132 6.01414C18.5035 6.03349 18.5005 6.0557 18.5042 6.07701C19.4803 11.5639 14.9863 16.5439 8.99829 16.5439Z" fill="#777E91"/>
</svg>
