<svg width="40" height="40" viewBox="0 0 40 40" fill="none" xmlns="http://www.w3.org/2000/svg">
<path d="M20 40C31.0834 40 40 31.0834 40 20C40 8.9166 31.0834 0 20 0C8.9166 0 0 8.9166 0 20C0 31.0834 8.9166 40 20 40Z" fill="#2775CA"/>
<path d="M25.4996 23.1669C25.4996 20.2503 23.7496 19.2503 20.2496 18.8337C17.7496 18.5003 17.2496 17.8337 17.2496 16.6669C17.2496 15.5001 18.083 14.7503 19.7496 14.7503C21.2496 14.7503 22.083 15.2503 22.4996 16.5003C22.583 16.7503 22.833 16.9169 23.083 16.9169H24.4162C24.7496 16.9169 24.9996 16.6669 24.9996 16.3337V16.2503C24.6662 14.4169 23.1662 13.0003 21.2496 12.8337V10.8337C21.2496 10.5003 20.9996 10.2503 20.583 10.1669H19.333C18.9996 10.1669 18.7496 10.4169 18.6662 10.8337V12.7503C16.1662 13.0837 14.583 14.7503 14.583 16.8337C14.583 19.5837 16.2496 20.6669 19.7496 21.0837C22.083 21.5003 22.833 22.0003 22.833 23.3337C22.833 24.6671 21.6662 25.5837 20.083 25.5837C17.9162 25.5837 17.1662 24.6669 16.9162 23.4169C16.833 23.0837 16.583 22.9169 16.333 22.9169H14.9162C14.583 22.9169 14.333 23.1669 14.333 23.5003V23.5837C14.6662 25.6669 15.9996 27.1669 18.7496 27.5837V29.5837C18.7496 29.9169 18.9996 30.1669 19.4162 30.2503H20.6662C20.9996 30.2503 21.2496 30.0003 21.333 29.5837V27.5837C23.833 27.1669 25.4996 25.4169 25.4996 23.1669Z" fill="white"/>
<path d="M15.7497 31.9168C9.24967 29.5836 5.91627 22.3336 8.33307 15.9168C9.58307 12.4168 12.3331 9.75022 15.7497 8.50022C16.0831 8.33362 16.2497 8.08362 16.2497 7.66682V6.50022C16.2497 6.16682 16.0831 5.91682 15.7497 5.83362C15.6663 5.83362 15.4997 5.83362 15.4163 5.91682C7.49967 8.41682 3.16627 16.8336 5.66627 24.7502C7.16627 29.4168 10.7497 33.0002 15.4163 34.5002C15.7497 34.6668 16.0831 34.5002 16.1663 34.1668C16.2497 34.0836 16.2497 34.0002 16.2497 33.8336V32.6668C16.2497 32.4168 15.9997 32.0836 15.7497 31.9168ZM24.5831 5.91682C24.2497 5.75022 23.9163 5.91682 23.8331 6.25022C23.7497 6.33362 23.7497 6.41682 23.7497 6.58362V7.75022C23.7497 8.08362 23.9997 8.41682 24.2497 8.58362C30.7497 10.9168 34.0831 18.1668 31.6663 24.5836C30.4163 28.0836 27.6663 30.7502 24.2497 32.0002C23.9163 32.1668 23.7497 32.4168 23.7497 32.8336V34.0002C23.7497 34.3336 23.9163 34.5836 24.2497 34.6668C24.3331 34.6668 24.4997 34.6668 24.5831 34.5836C32.4997 32.0836 36.8331 23.6668 34.3331 15.7502C32.8331 11.0002 29.1663 7.41682 24.5831 5.91682Z" fill="white"/>
</svg>
