<svg width="59" height="58" viewBox="0 0 59 58" fill="none" xmlns="http://www.w3.org/2000/svg">
<path fill-rule="evenodd" clip-rule="evenodd" d="M29.5 31.4168C20.1572 31.4168 12.5833 38.9907 12.5833 48.3335V53.1668C12.5833 54.5015 11.5014 55.5835 10.1667 55.5835C8.83198 55.5835 7.75 54.5015 7.75 53.1668V48.3335C7.75 36.3213 17.4878 26.5835 29.5 26.5835C41.5122 26.5835 51.25 36.3213 51.25 48.3335V53.1668C51.25 54.5015 50.168 55.5835 48.8333 55.5835C47.4986 55.5835 46.4167 54.5015 46.4167 53.1668V48.3335C46.4167 38.9907 38.8428 31.4168 29.5 31.4168Z" fill="#1F2128"/>
<path fill-rule="evenodd" clip-rule="evenodd" d="M29.5 26.5832C34.8388 26.5832 39.1667 22.2553 39.1667 16.9165C39.1667 11.5778 34.8388 7.24984 29.5 7.24984C24.1612 7.24984 19.8333 11.5778 19.8333 16.9165C19.8333 22.2553 24.1612 26.5832 29.5 26.5832ZM29.5 31.4165C37.5081 31.4165 44 24.9246 44 16.9165C44 8.90838 37.5081 2.4165 29.5 2.4165C21.4919 2.4165 15 8.90838 15 16.9165C15 24.9246 21.4919 31.4165 29.5 31.4165Z" fill="#1F2128"/>
</svg>
