<svg width="160" height="160" viewBox="0 0 160 160" fill="none" xmlns="http://www.w3.org/2000/svg">
<path fill-rule="evenodd" clip-rule="evenodd" d="M80 86.6667C54.2267 86.6667 33.3333 107.56 33.3333 133.333V146.667C33.3333 150.349 30.3486 153.333 26.6667 153.333C22.9848 153.333 20 150.349 20 146.667V133.333C20 100.196 46.8629 73.3334 80 73.3334C113.137 73.3334 140 100.196 140 133.333V146.667C140 150.349 137.015 153.333 133.333 153.333C129.651 153.333 126.667 150.349 126.667 146.667V133.333C126.667 107.56 105.773 86.6667 80 86.6667Z" fill="#242731"/>
<path fill-rule="evenodd" clip-rule="evenodd" d="M80 73.3333C94.7276 73.3333 106.667 61.3942 106.667 46.6666C106.667 31.939 94.7276 20 80 20C65.2724 20 53.3333 31.939 53.3333 46.6666C53.3333 61.3942 65.2724 73.3333 80 73.3333ZM80 86.6666C102.091 86.6666 120 68.758 120 46.6666C120 24.5752 102.091 6.66663 80 6.66663C57.9086 6.66663 40 24.5752 40 46.6666C40 68.758 57.9086 86.6666 80 86.6666Z" fill="#242731"/>
</svg>
