<svg width="89" height="73" viewBox="0 0 89 73" fill="none" xmlns="http://www.w3.org/2000/svg">
<path fill-rule="evenodd" clip-rule="evenodd" d="M72.75 8.1429H16.1667C11.7024 8.1429 8.08333 11.7619 8.08333 16.2262V56.6429C8.08333 61.1072 11.7024 64.7262 16.1667 64.7262H72.75C77.2143 64.7262 80.8333 61.1072 80.8333 56.6429L68.7083 56.6429C57.5476 56.6429 48.5 47.5953 48.5 36.4346C48.5 25.2738 57.5476 16.2263 68.7083 16.2263L80.8333 16.2262C80.8333 11.7619 77.2143 8.1429 72.75 8.1429ZM88.9167 52.6013L88.9167 52.5933V20.2759L88.9167 20.2679L88.9167 20.26V16.2262C88.9167 7.29763 81.6786 0.0595703 72.75 0.0595703H16.1667C7.23806 0.0595703 0 7.29763 0 16.2262V56.6429C0 65.5715 7.23806 72.8096 16.1667 72.8096H72.75C81.6786 72.8096 88.9167 65.5715 88.9167 56.6429V52.6092L88.9167 52.6013ZM68.7083 48.5596H80.8333V24.3096H68.7083C62.0119 24.3096 56.5833 29.7381 56.5833 36.4346C56.5833 43.131 62.0119 48.5596 68.7083 48.5596ZM68.7082 40.4762C70.9403 40.4762 72.7498 38.6667 72.7498 36.4346C72.7498 34.2024 70.9403 32.3929 68.7082 32.3929C66.476 32.3929 64.6665 34.2024 64.6665 36.4346C64.6665 38.6667 66.476 40.4762 68.7082 40.4762Z" fill="#242731"/>
</svg>
