<svg width="18" height="18" viewBox="0 0 18 18" fill="none" xmlns="http://www.w3.org/2000/svg">
<path fill-rule="evenodd" clip-rule="evenodd" d="M1.5 3C2.32842 3 3 2.32842 3 1.5C3 0.67158 2.32842 0 1.5 0C0.67158 0 0 0.67158 0 1.5C0 2.32842 0.67158 3 1.5 3ZM1.5 6C0.67158 6 0 6.67155 0 7.5V16.5C0 17.3284 0.67158 18 1.5 18C2.32842 18 3 17.3284 3 16.5V7.5C3 6.67155 2.32842 6 1.5 6ZM9 12C9 10.3431 10.3431 9 12 9C13.6569 9 15 10.3431 15 12V16.5C15 17.3284 15.6715 18 16.5 18C17.3284 18 18 17.3284 18 16.5V12C18 8.68635 15.3137 6 12 6C10.8519 6 9.77895 6.3225 8.8671 6.88185C8.6316 6.3618 8.1081 6 7.5 6C6.67155 6 6 6.67155 6 7.5V16.5C6 17.3284 6.67155 18 7.5 18C8.32845 18 9 17.3284 9 16.5V12Z" fill="#FCFCFD"/>
</svg>
