<svg width="78" height="50" viewBox="0 0 78 50" fill="none" xmlns="http://www.w3.org/2000/svg">
<path d="M39.559 19.875C39.1257 19.875 38.7542 19.875 38.3828 19.875C38.3828 17.875 38.3828 15.8125 38.3828 13.8125C38.7542 13.8125 39.1257 13.8125 39.559 13.8125C39.559 14.625 39.559 15.4375 39.559 16.3125C39.6828 16.25 39.7447 16.1875 39.8066 16.1875C40.3019 15.875 40.7971 15.8125 41.3542 16.0625C41.8495 16.25 42.0352 16.6875 42.0352 17.125C42.0971 18.0625 42.0352 18.9375 42.0352 19.875C41.6638 19.875 41.2923 19.875 40.859 19.875C40.859 19.75 40.859 19.6875 40.859 19.625C40.859 19.0625 40.859 18.4375 40.859 17.875C40.859 17.75 40.859 17.625 40.859 17.4375C40.7971 17.0625 40.6114 16.8125 40.24 16.8125C39.8685 16.8125 39.559 17.0625 39.559 17.4375C39.559 18.125 39.559 18.875 39.559 19.5625C39.559 19.6875 39.559 19.75 39.559 19.875Z" fill="#FCFCFD"/>
<path d="M34.6071 14.9375C33.9881 14.9375 33.369 14.9375 32.75 14.9375C32.75 14.5625 32.75 14.1875 32.75 13.8125C34.4214 13.8125 36.0929 13.8125 37.7643 13.8125C37.7643 14.1875 37.7643 14.5 37.7643 14.9375C37.1452 14.9375 36.5262 14.9375 35.9071 14.9375C35.9071 16.625 35.9071 18.25 35.9071 19.9375C35.4738 19.9375 35.0405 19.9375 34.6071 19.9375C34.6071 18.25 34.6071 16.5625 34.6071 14.9375Z" fill="#FCFCFD"/>
<path d="M46.8035 18.2499C45.875 18.2499 44.8845 18.2499 43.9559 18.2499C43.9559 18.6249 44.1416 18.9374 44.5131 19.0624C45.0702 19.3124 45.5035 18.9999 45.813 18.5624C46.0607 18.6874 46.3702 18.8124 46.6178 18.9374C46.2464 19.8124 45.0702 20.1874 44.0178 19.8124C43.0273 19.4374 42.5321 18.3749 42.8416 17.2499C43.1511 16.2499 44.2035 15.6249 45.3797 15.9374C46.494 16.2499 46.9273 17.3124 46.8035 18.2499ZM45.6273 17.4999C45.5654 16.9999 45.2559 16.7499 44.7607 16.7499C44.3892 16.7499 43.9559 17.1249 43.9559 17.4999C44.513 17.4999 45.0702 17.4999 45.6273 17.4999Z" fill="#FCFCFD"/>
<path d="M35.6595 27.5625C35.2262 27.5625 34.7929 27.5625 34.2976 27.5625C33.8024 25.5625 33.2452 23.5 32.75 21.5C33.1833 21.5 33.6167 21.5 34.1119 21.5C34.4214 22.875 34.7929 24.3125 35.1024 25.6875C35.1024 25.6875 35.1024 25.6875 35.1643 25.6875C35.5357 24.3125 35.9071 22.875 36.2786 21.5C36.65 21.5 36.9595 21.5 37.331 21.5C37.7024 22.875 38.0738 24.3125 38.4452 25.6875H38.5071C38.8167 24.3125 39.1881 22.875 39.4976 21.5C39.931 21.5 40.3643 21.5 40.7976 21.5C40.3024 23.5625 39.8071 25.5625 39.25 27.5625C38.8167 27.5625 38.3833 27.5625 37.8881 27.5625C37.5167 26.3125 37.2071 25 36.8357 23.6875H36.7738C36.3405 24.9375 36.031 26.25 35.6595 27.5625Z" fill="#FCFCFD"/>
<path d="M49.2178 27.5625C48.8463 27.5625 48.4749 27.5625 48.1035 27.5625C48.1035 27.4375 48.1035 27.3125 48.0416 27.1875C47.9797 27.25 47.9178 27.25 47.9178 27.3125C46.8654 28.125 45.3797 27.625 45.132 26.3125C45.0082 25.6875 45.0082 25.125 45.3178 24.5625C45.813 23.5625 47.0511 23.3125 47.9178 24C47.9178 24 47.9797 24.0625 48.0416 24.125C48.0416 23.25 48.0416 22.375 48.0416 21.5625C48.4749 21.5625 48.8463 21.5625 49.2178 21.5625C49.2178 23.5 49.2178 25.5 49.2178 27.5625ZM48.0416 25.625C48.0416 25.375 47.9797 25.3125 47.9797 25.125C47.8558 24.75 47.5463 24.5 47.1749 24.5C46.8035 24.5 46.4939 24.6875 46.3701 25.0625C46.2463 25.4375 46.2463 25.8125 46.3701 26.1875C46.4939 26.5625 46.8035 26.75 47.1749 26.75C47.5463 26.75 47.8558 26.5625 47.9797 26.1875C48.0416 25.9375 48.0416 25.875 48.0416 25.625Z" fill="#FCFCFD"/>
<path d="M53.9804 25.8752C53.0518 25.8752 52.0614 25.8752 51.1328 25.8752C51.1328 26.2502 51.3185 26.5627 51.6899 26.7502C52.1233 26.9377 52.5566 26.7502 52.9899 26.2502C53.2376 26.3752 53.5471 26.5002 53.7947 26.6252C53.3614 27.5002 52.1852 27.8752 51.1328 27.5002C50.0804 27.0627 49.709 26.0627 49.9566 25.0002C50.2661 23.9377 51.2566 23.3127 52.4947 23.5627C53.4233 23.8127 54.1042 24.8127 53.9804 25.8752ZM52.7423 25.1877C52.6804 24.7502 52.3709 24.4377 51.9376 24.4377C51.5042 24.4377 51.1328 24.7502 51.1328 25.1877C51.6899 25.1877 52.2471 25.1877 52.7423 25.1877Z" fill="#FCFCFD"/>
<path d="M66.3617 25.8752C65.4332 25.8752 64.4427 25.8752 63.5141 25.8752C63.5141 26.2502 63.7617 26.5627 64.0713 26.7502C64.5046 26.9377 64.876 26.7502 65.3713 26.2502C65.6189 26.3752 65.8665 26.5002 66.176 26.6252C65.9284 27.3127 64.876 27.8752 63.8236 27.5627C62.7093 27.2502 62.0903 26.2502 62.3998 25.0627C62.6474 24.0002 63.6998 23.3752 64.876 23.6252C65.8665 23.7502 66.5474 24.8127 66.3617 25.8752ZM63.5141 25.1877C64.0713 25.1877 64.6284 25.1877 65.1855 25.1877C65.1236 24.7502 64.876 24.4377 64.4427 24.4377C63.9474 24.4377 63.6379 24.6877 63.5141 25.1877Z" fill="#FCFCFD"/>
<path d="M57.9453 23.6253C58.3167 23.6253 58.6263 23.6253 58.9977 23.6253C58.9977 23.7503 59.0596 23.8753 59.0596 24.0003C59.431 23.6878 59.8644 23.5003 60.2977 23.5628C60.9786 23.5628 61.4739 23.9378 61.5358 24.6253C61.5977 25.5628 61.5977 26.5628 61.6596 27.5627C61.2263 27.5627 60.8548 27.5627 60.4215 27.5627C60.4215 27.5003 60.4215 27.3753 60.4215 27.3128C60.4215 26.7503 60.4215 26.1253 60.4215 25.5628C60.4215 25.4378 60.4215 25.2503 60.4215 25.1253C60.4215 24.7503 60.1739 24.5628 59.8644 24.5003C59.4929 24.5003 59.2453 24.6878 59.1834 25.0628C59.1834 25.1878 59.1834 25.3128 59.1834 25.4378C59.1834 26.1253 59.1834 26.8128 59.1834 27.5627C58.812 27.5627 58.3786 27.5627 58.0072 27.5627C57.9453 26.2503 57.9453 24.9378 57.9453 23.6253Z" fill="#FCFCFD"/>
<path d="M70.5156 27C70.7013 26.75 70.8871 26.5625 71.0728 26.3125C71.3823 26.5625 71.6299 26.75 72.0013 26.8125C72.1871 26.8125 72.3109 26.8125 72.4966 26.75C72.7442 26.625 72.7442 26.375 72.4966 26.25C72.3109 26.1875 72.1251 26.125 71.9394 26.0625C71.6918 25.9375 71.4442 25.875 71.1966 25.75C70.5156 25.4375 70.5775 24.5625 70.8871 24.1875C71.1966 23.8125 71.568 23.6875 72.0013 23.625C72.6823 23.5625 73.3013 23.75 73.7966 24.1875C73.6109 24.375 73.4251 24.625 73.3013 24.8125C72.9918 24.6875 72.6823 24.5625 72.3728 24.4375C72.249 24.375 72.1251 24.4375 72.0632 24.4375C71.9394 24.5 71.8775 24.5625 71.8156 24.6875C71.8156 24.75 71.8775 24.9375 72.0013 24.9375C72.249 25.0625 72.4966 25.125 72.7442 25.1875C72.9918 25.25 73.2394 25.375 73.4251 25.5C74.0442 25.875 74.0442 26.6875 73.6109 27.125C73.3632 27.375 73.1156 27.5 72.8061 27.5625C72.0632 27.6875 71.4442 27.625 70.8251 27.1875C70.7632 27.125 70.7013 27.125 70.7013 27.0625C70.5775 27.0625 70.5775 27 70.5156 27Z" fill="#FCFCFD"/>
<path d="M67.3534 26.3124C67.6629 26.5624 67.9106 26.7499 68.282 26.8124C68.4058 26.8124 68.5915 26.8124 68.7153 26.7499C68.7772 26.6874 68.901 26.5624 68.901 26.4999C68.901 26.4374 68.8391 26.3124 68.7153 26.2499C68.5296 26.1874 68.3439 26.1249 68.1582 26.0624C67.9106 25.9374 67.601 25.8749 67.3534 25.7499C66.7344 25.4374 66.7344 24.6249 67.0439 24.2499C67.2915 23.875 67.7248 23.6875 68.1582 23.625C68.8391 23.5 69.5201 23.75 69.9534 24.1875C69.7677 24.375 69.582 24.625 69.3963 24.8125C69.1487 24.625 68.8391 24.4375 68.5296 24.375C68.4058 24.375 68.282 24.3749 68.2201 24.4374C68.1582 24.4999 68.0344 24.5624 68.0344 24.6874C68.0344 24.7499 68.0963 24.875 68.2201 24.9375C68.4677 25.0625 68.7153 25.1249 68.9629 25.1874C69.2106 25.2499 69.4582 25.3749 69.6439 25.4999C70.201 25.8749 70.3249 26.6249 69.8296 27.1249C69.6439 27.3124 69.3963 27.4999 69.0868 27.5624C68.282 27.7499 67.601 27.6249 66.9201 27.1249C66.8582 27.1249 66.8582 27.0624 66.7963 26.9999C66.7963 26.9999 66.7963 26.9374 66.7344 26.9374C66.982 26.7499 67.1677 26.4999 67.3534 26.3124Z" fill="#FCFCFD"/>
<path d="M44.3871 21.4375C44.3871 23.5 44.3871 25.5 44.3871 27.5C44.0157 27.5 43.6443 27.5 43.2109 27.5C43.2109 25.5 43.2109 23.4375 43.2109 21.4375C43.5824 21.4375 43.9538 21.4375 44.3871 21.4375Z" fill="#FCFCFD"/>
<path d="M55.9028 27.5627C55.4694 27.5627 55.098 27.5627 54.7266 27.5627C54.7266 26.2502 54.7266 25.0002 54.7266 23.6877C55.098 23.6877 55.4694 23.6877 55.7789 23.6877C55.7789 23.8127 55.8408 24.1252 55.8408 24.1252C55.8408 24.1252 56.2742 23.3127 57.3885 23.6877C57.3266 24.0627 57.2647 24.3752 57.2028 24.7502C57.0789 24.6877 56.9551 24.6877 56.8313 24.6877C56.2742 24.5627 55.9028 24.8752 55.9028 25.4377C55.9028 26.0627 55.9028 26.6252 55.9028 27.2502C55.9028 27.3127 55.9028 27.4377 55.9028 27.5627Z" fill="#FCFCFD"/>
<path d="M42.2856 27.5625C41.9141 27.5625 41.5427 27.5625 41.1094 27.5625C41.1094 26.25 41.1094 25 41.1094 23.6875C41.4808 23.6875 41.8522 23.6875 42.2856 23.6875C42.2856 24.9375 42.2856 26.25 42.2856 27.5625Z" fill="#FCFCFD"/>
<path d="M41.0469 22.125C41.0469 21.75 41.3564 21.4375 41.7278 21.4375C42.0993 21.4375 42.4088 21.75 42.4088 22.125C42.4088 22.5 42.0993 22.8125 41.7278 22.8125C41.3564 22.8125 41.0469 22.5 41.0469 22.125Z" fill="#FCFCFD"/>
<path d="M37.8874 29.6248C37.6398 29.9373 37.4541 30.2497 37.2065 30.4997C36.9589 30.3747 36.7731 30.1872 36.5255 30.0622C36.1541 29.8747 35.7208 29.8122 35.3493 29.9997C35.1017 30.1247 34.9779 30.2497 34.9779 30.4997C34.9779 30.7497 35.1017 30.9372 35.2874 31.0622C35.6589 31.2497 36.0303 31.3747 36.4636 31.4997C36.7112 31.6247 36.9589 31.6872 37.2065 31.8122C38.3827 32.3747 38.2589 33.8122 37.6398 34.4372C37.3303 34.7497 36.9589 34.9372 36.5255 35.0622C35.3493 35.3122 34.3589 34.9372 33.4922 34.1247C33.7398 33.8122 33.9255 33.5622 34.1731 33.2497C34.3589 33.3747 34.5446 33.5622 34.7303 33.6872C35.2255 33.9997 35.7208 34.1247 36.2779 33.9997C36.5255 33.9372 36.7112 33.8122 36.7731 33.5622C36.835 33.2497 36.7112 33.0622 36.4636 32.9372C36.0922 32.7497 35.6589 32.6247 35.2255 32.4372C34.9779 32.3122 34.7303 32.2497 34.4827 32.1247C33.4922 31.5622 33.4922 30.2498 34.1112 29.6248C34.4208 29.3123 34.7303 29.0623 35.1636 28.9998C36.0303 28.8123 36.835 28.9372 37.5779 29.4372C37.6398 29.3747 37.7636 29.4998 37.8874 29.6248Z" fill="#FCFCFD"/>
<path d="M40.7983 35.0629C39.9317 35.0629 39.2507 34.7504 38.8793 33.9379C38.3222 32.7504 38.9412 31.1254 40.6126 31.0004C41.2317 30.9379 41.7269 31.0629 42.2222 31.5004C42.8412 32.0629 43.0888 32.9379 42.7793 33.8129C42.5317 34.5629 41.8507 35.0629 40.9841 35.1254C40.9222 35.0629 40.8602 35.0629 40.7983 35.0629ZM41.665 33.3754C41.7269 33.1879 41.7269 32.9379 41.665 32.7504C41.665 32.6879 41.6031 32.5629 41.6031 32.5004C41.4793 32.1254 41.1698 31.9379 40.7983 31.9379C40.4269 31.9379 40.1793 32.0629 39.9936 32.4379C39.8079 32.8754 39.8079 33.2504 39.9936 33.6879C40.1793 34.0004 40.4269 34.1879 40.7983 34.1879C41.1698 34.1879 41.4174 34.0004 41.5412 33.6879C41.6031 33.5629 41.6031 33.4379 41.665 33.3754Z" fill="#FCFCFD"/>
<path d="M53.7343 33.3123C52.8057 33.3123 51.8152 33.3123 50.8866 33.3123C50.8866 33.6873 51.0723 33.9998 51.4438 34.1248C52.0009 34.3748 52.4343 34.1248 52.7438 33.6248C52.9914 33.7498 53.239 33.8748 53.4866 33.9998C53.3009 34.6248 52.2485 35.2498 51.1962 34.9998C50.0819 34.7498 49.4628 33.6873 49.7104 32.4998C49.8962 31.4373 51.0104 30.8123 52.1866 30.9998C53.1771 31.1873 53.8581 32.1873 53.7343 33.3123ZM52.4962 32.6248C52.4343 32.1248 52.0628 31.8123 51.6295 31.8748C51.1962 31.8748 50.8866 32.2498 50.8866 32.6248C51.4438 32.6248 52.0009 32.6248 52.4962 32.6248Z" fill="#FCFCFD"/>
<path d="M58.2531 31.0625C58.5626 31.875 58.8103 32.625 59.1198 33.5C59.4293 32.6875 59.7388 31.875 59.9865 31.125C60.3579 31.125 60.7293 31.125 61.1627 31.125C60.4198 33.0625 59.615 34.9375 58.8722 36.8125C58.5007 36.8125 58.1293 36.8125 57.7579 36.8125C57.8817 36.4375 58.5007 34.9375 58.5007 34.9375L58.1912 34.125L56.9531 31.0625C57.015 31.0625 57.8198 31.0625 58.2531 31.0625Z" fill="#FCFCFD"/>
<path d="M47.1707 32.0003C46.9231 32.1253 46.6755 32.3128 46.366 32.4378C46.3041 32.3753 46.3041 32.3753 46.2422 32.3128C45.9945 32.0003 45.7469 31.8753 45.3136 31.9378C44.8802 32.0003 44.6945 32.3128 44.6326 32.6878C44.5707 33.0003 44.5707 33.3753 44.6945 33.6878C45.0041 34.2503 45.7469 34.3753 46.1183 33.8753C46.1803 33.8128 46.2422 33.7503 46.3041 33.6253C46.5517 33.8128 46.8612 33.9378 47.1088 34.0628C46.8612 34.6878 45.9945 35.1878 45.066 35.0628C44.0755 34.8753 43.3945 34.1253 43.3945 33.1253C43.3326 32.0628 44.0136 31.3128 44.8803 31.0628C45.8707 30.8128 46.7993 31.2503 47.1707 32.0003Z" fill="#FCFCFD"/>
<path d="M57.1427 34.6875C54.5427 35.8125 54.6665 33.1875 54.6665 33.1875C54.6665 32.1875 54.6665 33 54.6665 32H54.1094V31.0625H54.6665V29.8125H55.8427V31.0625H56.6475V32H55.8427V33.1875C55.8427 33.4375 55.9665 34.25 56.7713 33.8125L57.1427 34.6875Z" fill="#FCFCFD"/>
<path d="M48.9653 34.9375C48.5938 34.9375 48.2224 34.9375 47.7891 34.9375C47.7891 33.625 47.7891 32.375 47.7891 31.0625C48.1605 31.0625 48.5319 31.0625 48.9653 31.0625C48.9653 32.375 48.9653 33.6875 48.9653 34.9375Z" fill="#FCFCFD"/>
<path d="M48.3528 28.8125C48.7243 28.8125 49.0338 29.125 49.0338 29.5C49.0338 29.875 48.7243 30.1875 48.3528 30.1875C47.9814 30.1875 47.6719 29.875 47.6719 29.5C47.6719 29.125 47.9814 28.8125 48.3528 28.8125Z" fill="#FCFCFD"/>
<path d="M8.36107 35.6251C8.36107 35.6251 7.37059 35.2501 7.30869 35.2501C6.93726 35.0626 6.38012 34.7501 6.87536 34.3751C7.37059 34.0001 8.17536 33.8751 8.7325 33.8126C10.1563 33.6876 11.642 33.8751 13.0039 34.1876C13.8706 34.3751 14.7373 34.5626 15.542 34.8751C15.6039 34.8751 15.6039 34.9376 15.6658 34.9376C14.1182 34.6876 12.4468 34.5001 10.8992 34.5626C10.1563 34.5001 8.42297 34.5626 8.36107 35.6251Z" fill="#FCFCFD"/>
<path d="M17.2722 13.25C10.0294 13.25 4.14844 19.1875 4.14844 26.5C4.14844 28.25 4.51987 29.9375 5.13891 31.5C4.70558 31.8125 4.39606 32.3125 4.51987 32.9375C4.58177 33.375 4.89129 33.6875 5.13891 34C5.20082 34.0625 5.63415 34.375 5.63415 34.4375C5.88177 32.625 9.10082 32.75 10.4008 32.8125C12.8151 32.9375 14.3008 33.5625 16.5294 34.25C18.4484 34.875 20.6151 35.25 22.7199 35.125C27.1151 34.875 28.9722 32.375 29.777 30.4375C29.8389 30.3125 29.8389 30.25 29.9008 30.125V30.0625V30C29.9008 29.9375 29.9008 29.9375 29.9627 29.875C29.9627 29.8125 30.0246 29.6875 30.0246 29.625C30.0865 29.4375 30.1484 29.1875 30.2103 29C30.2722 28.8125 30.2722 28.6875 30.3342 28.5C30.3342 28.375 30.3961 28.25 30.3961 28.125C30.3961 27.9375 30.3961 27.75 30.3961 27.5625C30.3961 27.375 30.3961 27.1875 30.3961 27C30.3961 26.8125 30.3961 26.6875 30.3961 26.5C30.3961 19.1875 24.5151 13.25 17.2722 13.25ZM29.5294 28C28.6008 33.4375 22.658 33 22.658 33C21.4818 33 20.2437 32.75 19.1294 32.5C17.5818 32.1875 16.0961 31.625 14.5484 31.1875C12.258 30.5625 9.90558 30.1875 7.5532 30.625C7.05796 30.6875 6.43891 30.8125 5.81987 31.0625C5.26272 29.625 4.9532 28.0625 4.9532 26.4375C4.9532 19.5625 10.5246 13.9375 17.3342 13.9375C24.1437 13.9375 29.7151 19.5625 29.7151 26.4375C29.5913 27 29.5913 27.5 29.5294 28Z" fill="#FCFCFD"/>
<mask id="mask0_14912_30132" style="mask-type:luminance" maskUnits="userSpaceOnUse" x="5" y="15" width="24" height="17">
<path d="M28.6638 26.5C28.6638 28.4375 27.4257 30.3125 25.7542 31.1875C24.7638 31.75 23.5876 32 22.4733 32C22.3495 32 22.2257 32 22.1638 32C21.0495 32 19.8114 31.75 18.6971 31.5C17.2114 31.1875 15.7257 30.625 14.24 30.1875C12.8781 29.8125 11.3923 29.5 10.0304 29.4375C9.16377 29.375 8.359 29.4375 7.49234 29.5625C7.18281 29.625 6.81138 29.6875 6.37805 29.8125C6.06853 28.75 5.88281 27.625 5.88281 26.5C5.88281 20.125 10.959 15 17.2733 15C19.3161 15 21.2971 15.5625 23.0304 16.5625C24.7019 17.5625 26.1257 19 27.1161 20.6875C28.1066 22.4375 28.6638 24.4375 28.6638 26.5Z" fill="white"/>
</mask>
<g mask="url(#mask0_14912_30132)">
<path d="M7.86042 24.0625L3.09375 30.125H12.5033L7.86042 24.0625Z" fill="#FCFCFD"/>
<path d="M28.9667 23.3125L24.6953 29.25L29.7715 32.9375L33.3001 29.375L28.9667 23.3125Z" fill="#FCFCFD"/>
<mask id="mask1_14912_30132" style="mask-type:luminance" maskUnits="userSpaceOnUse" x="9" y="19" width="21" height="14">
<path d="M19.7479 19.75L29.7765 32.9375H9.78125L19.7479 19.75Z" fill="white"/>
</mask>
<g mask="url(#mask1_14912_30132)">
<path d="M21.2344 33.3125H22.2249L26.2487 28.9375C26.2487 28.9375 26.3106 28.9375 26.3106 29L23.2154 33.375H24.3916L27.2392 30.25H27.3011L25.1344 33.375H31.0773L20.4297 19.3125V23.3125L21.2964 22.375C21.2964 22.375 21.3583 22.375 21.3583 22.4375L20.4297 23.75V25.375L22.163 23.5H22.2249L20.4916 26V27.75L23.1535 24.8125H23.2154L20.4297 28.6875V30.3125L24.2059 26.1875C24.2059 26.1875 24.2678 26.1875 24.2678 26.25L20.4297 31.5625V32.8125M20.4297 32.8125L20.5535 32.6875L25.3202 27.5H25.3821L21.2964 33.25" fill="#FCFCFD"/>
<path d="M14.3042 27.5C14.2423 27.5 14.2423 27.5 14.3042 27.5L18.3281 33.25H18.39L19.1947 32.8125L19.0709 32.6875L14.3042 27.5Z" fill="#FCFCFD"/>
<path d="M12.3203 30.1875L14.4251 33.25H15.106L12.3203 30.1875Z" fill="#FCFCFD"/>
<path d="M13.3088 28.9379C13.2469 28.9379 13.3088 28.8754 13.3088 28.9379L16.3421 33.3129H17.3326L13.3088 28.9379Z" fill="#FCFCFD"/>
<path d="M15.3516 26.1879L19.1278 31.5629V30.2504L15.3516 26.1879Z" fill="#FCFCFD"/>
<path d="M17.3984 23.5004L19.1318 26.0004V25.3754L17.3984 23.5004Z" fill="#FCFCFD"/>
<path d="M18.2031 22.4375L19.1317 23.75V23.375L18.2031 22.4375C18.265 22.375 18.2031 22.375 18.2031 22.4375Z" fill="#FCFCFD"/>
<path d="M16.4062 24.8129L19.1301 28.6879V27.7504L16.4062 24.8129Z" fill="#FCFCFD"/>
</g>
</g>
<path d="M7.92686 22.5L12.2602 28.25L19.7507 18.375L25.6935 26.1875L28.0459 22.875C27.7983 22.125 27.4888 21.375 27.1173 20.6875C26.1269 19 24.7031 17.5625 23.0316 16.5625C21.2983 15.5625 19.3173 15 17.2745 15C11.5173 15 6.75067 19.3125 6.00781 24.9375L7.92686 22.5ZM13.1269 17.25C13.9935 17.25 14.6745 17.9375 14.6745 18.8125C14.6745 19.6875 13.9935 20.375 13.1269 20.375C12.2602 20.375 11.5792 19.6875 11.5792 18.8125C11.5792 17.9375 12.2602 17.25 13.1269 17.25Z" fill="#FCFCFD"/>
</svg>
