<svg width="78" height="50" viewBox="0 0 78 50" fill="none" xmlns="http://www.w3.org/2000/svg">
<path d="M57.9766 38.5812V38.2437H58.2056C58.4099 38.2437 58.6204 38.2437 58.8247 38.1812C59.0274 38.1549 59.2145 38.057 59.3527 37.9049C59.4909 37.7528 59.5713 37.5562 59.5799 37.35C59.6108 37.0312 59.6294 36.725 59.6294 36.3937C59.6294 33.7437 59.6294 31.0979 59.6294 28.4562C59.6294 28.1562 59.6294 27.8312 59.5861 27.55C59.5861 27.3079 59.4922 27.0754 59.3243 26.9025C59.1565 26.7295 58.9282 26.6299 58.6885 26.625L57.9889 26.5625V26.25C58.057 26.25 58.1189 26.25 58.187 26.25C60.0442 26.25 61.9013 26.25 63.7585 26.25C64.481 26.2545 65.198 26.3769 65.8818 26.6125C66.5797 26.8508 67.1759 27.3227 67.5718 27.95C67.9433 28.5425 68.0905 29.2504 67.9866 29.9437C67.9153 30.5697 67.6613 31.16 67.2567 31.6397C66.8521 32.1194 66.3153 32.4667 65.7147 32.6375C65.2588 32.7929 64.7838 32.8833 64.3032 32.9062C63.7585 32.9375 63.2075 32.9437 62.6566 32.9687H62.4151C62.4151 33.0687 62.4151 33.15 62.4151 33.2375C62.4151 34.275 62.4151 35.3187 62.4151 36.3625C62.4151 36.675 62.4151 36.9875 62.4585 37.3C62.4642 37.5101 62.544 37.7112 62.6836 37.867C62.8232 38.0229 63.0134 38.1232 63.2199 38.15C63.4056 38.15 63.5975 38.1937 63.7832 38.2125H64.0556V38.5562L57.9766 38.5812ZM62.378 32.2687H62.5575C62.7451 32.2812 62.9333 32.2812 63.1208 32.2687C63.5288 32.2537 63.9214 32.1073 64.2411 31.8509C64.5607 31.5945 64.7908 31.2416 64.8975 30.8437C65.0684 30.2152 65.1105 29.558 65.0213 28.9125C64.9873 28.6543 64.925 28.4006 64.8356 28.1562C64.742 27.8889 64.5855 27.6486 64.3795 27.4559C64.1736 27.2632 63.9243 27.1239 63.6532 27.05C63.2967 26.9503 62.9272 26.906 62.5575 26.9187H62.378V32.2687Z" fill="#FCFCFD"/>
<path d="M50.7573 38.5817C50.6335 38.5817 50.5097 38.5379 50.3859 38.5254C49.5931 38.4851 48.8264 38.2256 48.1697 37.7754C47.4782 37.3019 46.9999 36.5719 46.8387 35.7442C46.7389 35.2338 46.6912 34.7144 46.6964 34.1942V28.6254C46.6964 28.3567 46.6964 28.0879 46.6964 27.8192C46.6964 27.6754 46.6592 27.5317 46.6592 27.3817C46.6408 27.1856 46.5564 27.0017 46.4202 26.8607C46.2839 26.7197 46.1039 26.6301 45.9102 26.6067C45.6749 26.6067 45.4335 26.5629 45.1797 26.5379V26.2504C45.3778 26.2067 51.0359 26.2004 51.3145 26.2504V26.5192H51.0854C50.8254 26.5192 50.5654 26.5192 50.3116 26.5817C50.1272 26.6074 49.9574 26.6967 49.831 26.8346C49.7046 26.9725 49.6294 27.1504 49.6183 27.3379C49.6183 27.5754 49.5749 27.8192 49.5749 28.0629C49.5749 30.2379 49.5749 32.4379 49.5749 34.5879C49.5817 35.0061 49.6127 35.4234 49.6678 35.8379C49.7081 36.1887 49.8456 36.5209 50.0647 36.7962C50.2837 37.0715 50.5753 37.2788 50.9059 37.3942C51.4044 37.5884 51.9431 37.6536 52.4729 37.5837C53.0028 37.5139 53.5069 37.3112 53.9392 36.9942C54.4659 36.5526 54.8157 35.9329 54.9235 35.2504C55.0149 34.7116 55.0605 34.1658 55.0597 33.6192C55.0597 31.8567 55.0597 30.1004 55.0597 28.3379C55.0588 28.0441 55.0297 27.7511 54.973 27.4629C54.9395 27.2229 54.8252 27.0019 54.6494 26.8369C54.4735 26.6719 54.2468 26.5729 54.0073 26.5567C53.7968 26.5567 53.5864 26.5067 53.3883 26.4817V26.2254C53.5925 26.1754 57.2449 26.1692 57.4925 26.2254V26.4942H57.2078C57.0716 26.4942 56.9354 26.4942 56.7992 26.5442C56.5567 26.591 56.3355 26.7153 56.1683 26.8988C56.0011 27.0822 55.8968 27.315 55.8706 27.5629C55.8334 27.8468 55.8148 28.1328 55.8149 28.4192C55.8149 30.0567 55.8149 31.6942 55.8149 33.3317C55.8109 34.0091 55.7633 34.6855 55.6725 35.3567C55.6184 35.7828 55.4811 36.1939 55.2686 36.5662C55.0561 36.9385 54.7726 37.2645 54.4345 37.5254C53.8345 38.0117 53.112 38.3191 52.3483 38.4129L51.5868 38.5192L50.7573 38.5817Z" fill="#FCFCFD"/>
<path d="M34.8725 23.2997H34.6744L30.2358 12.8059H30.1925C30.1925 12.8684 30.1925 12.9309 30.1925 12.9872V20.9059C30.1925 21.2184 30.1925 21.5309 30.2234 21.8372C30.2312 22.0602 30.3041 22.2759 30.4329 22.4571C30.5618 22.6384 30.7409 22.7772 30.9477 22.8559C31.1181 22.9152 31.2946 22.955 31.4739 22.9747C31.6032 22.9939 31.7333 23.0065 31.8639 23.0122V23.2809C31.672 23.3247 28.2486 23.3372 27.9639 23.2809V23.0184L28.3725 22.9747C28.5351 22.9674 28.6947 22.9279 28.8422 22.8583C28.9897 22.7887 29.1222 22.6905 29.232 22.5691C29.3418 22.4478 29.4269 22.3058 29.4823 22.1512C29.5377 21.9967 29.5623 21.8326 29.5548 21.6684C29.5548 21.4247 29.5548 21.1809 29.5548 20.9372C29.5548 18.5205 29.5548 16.1018 29.5548 13.6809C29.5548 13.3622 29.5239 13.0559 29.5115 12.7184C29.5068 12.6008 29.4725 12.4862 29.4119 12.3856C29.3512 12.285 29.2662 12.2017 29.1648 12.1434C28.9583 12.0077 28.7179 11.934 28.4715 11.9309H27.9453V11.6684C28.1744 11.6184 31.6967 11.5934 32.6191 11.6684C33.1639 12.9184 33.6901 14.2184 34.2286 15.4997L35.8505 19.3809L38.9458 11.6747H43.6196C43.6196 11.7309 43.6196 11.7747 43.6196 11.8184C43.6196 11.8622 43.6196 11.8997 43.6196 11.9622C43.4567 11.9526 43.2934 11.9526 43.1305 11.9622C42.959 11.9751 42.789 12.0044 42.6229 12.0497C42.4759 12.1026 42.3473 12.1975 42.2528 12.3229C42.1583 12.4483 42.1019 12.5988 42.0905 12.7559C42.0905 13.0497 42.0472 13.3434 42.0472 13.6372C42.0472 16.183 42.0472 18.7247 42.0472 21.2622C42.0472 21.533 42.0596 21.8017 42.0844 22.0684C42.0857 22.3003 42.175 22.5228 42.3339 22.6903C42.4928 22.8577 42.7092 22.9572 42.9386 22.9684C43.112 22.9684 43.2977 22.9684 43.4772 23.0122H43.6567V23.2809H37.6767V23.0059L38.2401 22.9684C38.3421 22.9584 38.4435 22.9417 38.5434 22.9184C38.7456 22.884 38.9287 22.7772 39.0594 22.6177C39.1901 22.4583 39.2597 22.2566 39.2553 22.0497C39.2553 21.7122 39.2925 21.3747 39.2925 21.0372V12.7184H39.2491L34.8725 23.2997Z" fill="#FCFCFD"/>
<path d="M9.02344 30.2809V28.4434H43.263V30.2621C43.0772 30.3121 9.50629 30.3309 9.02344 30.2809Z" fill="#FCFCFD"/>
<path d="M43.2691 33.8687V35.7H9.02344V33.8812C9.21534 33.8375 42.8482 33.8187 43.2691 33.8687Z" fill="#FCFCFD"/>
<path d="M55.5408 19.606H55.8503L55.3179 23.281C55.1074 23.3248 45.3265 23.3373 45.0046 23.281V23.0123C45.2089 23.0123 45.4255 23.0123 45.6236 22.9685C45.7773 22.9515 45.9288 22.918 46.0755 22.8685C46.2244 22.8187 46.3554 22.7258 46.4523 22.6013C46.5491 22.4768 46.6076 22.3263 46.6203 22.1685C46.6492 21.9615 46.6637 21.7526 46.6636 21.5435C46.6636 18.7935 46.6636 16.0435 46.6636 13.2936C46.6636 13.1248 46.6636 12.9498 46.6636 12.7748C46.6541 12.6456 46.6129 12.5209 46.5437 12.4118C46.4745 12.3027 46.3796 12.2127 46.2674 12.1498C46.0717 12.0221 45.8442 11.9528 45.6112 11.9498C45.4255 11.9498 45.2336 11.9498 44.9922 11.9498V11.6436H54.9836C54.9836 12.7811 54.9836 13.9123 54.9836 15.0561H54.6617C54.6122 14.8498 54.5565 14.6373 54.5008 14.4311C54.445 14.2248 54.4265 14.2061 54.3831 14.0873C54.23 13.6136 53.9402 13.1968 53.5508 12.8906C53.1615 12.5843 52.6903 12.4025 52.1979 12.3686C51.3529 12.279 50.5025 12.2518 49.6536 12.2873H49.5793V16.731V16.9748C49.7347 17.0052 49.8944 17.0052 50.0498 16.9748C50.4093 16.9807 50.7623 16.8772 51.0626 16.6776C51.363 16.4781 51.5968 16.1918 51.7336 15.856C51.9174 15.4256 52.0404 14.9711 52.0989 14.5061C52.0989 14.4248 52.0989 14.3373 52.1422 14.2373H52.4208C52.4703 14.4311 52.4889 19.731 52.4208 20.331H52.1236C52.1236 20.2498 52.0865 20.1623 52.0741 20.0748C52.008 19.5582 51.8485 19.0583 51.6036 18.5998C51.459 18.3213 51.2433 18.087 50.9788 17.921C50.7143 17.7551 50.4107 17.6636 50.0993 17.656C49.9322 17.656 49.7589 17.656 49.5669 17.656C49.5669 17.7498 49.5669 17.8373 49.5669 17.9185C49.5669 18.9248 49.5669 19.931 49.5669 20.9373C49.5669 21.2498 49.5793 21.5623 49.6041 21.8748C49.5936 22.042 49.6419 22.2077 49.7404 22.3425C49.8389 22.4774 49.9813 22.5729 50.1427 22.6123C50.2331 22.6395 50.3268 22.6542 50.4212 22.656C51.0405 22.6899 51.6614 22.6753 52.2784 22.6123C52.955 22.5515 53.6007 22.2985 54.1408 21.8827C54.6809 21.4668 55.0933 20.905 55.3303 20.2623C55.386 20.056 55.4541 19.8435 55.5408 19.606Z" fill="#FCFCFD"/>
<path d="M60.9043 23.8378H60.6629C60.6133 23.6316 60.5948 20.0878 60.6629 19.4628C60.7433 19.4003 60.8362 19.4628 60.9538 19.4628C60.9538 19.5503 60.9971 19.6378 61.0219 19.7253C61.2017 20.5593 61.5847 21.3348 62.1362 21.9816C62.6861 22.6257 63.4335 23.0656 64.2595 23.2316C64.7431 23.3288 65.243 23.3031 65.7143 23.1566C65.9744 23.0789 66.2145 22.9446 66.4177 22.7632C66.6209 22.5818 66.7823 22.3577 66.8905 22.1066C67.0017 21.841 67.0358 21.5488 66.9886 21.2644C66.9415 20.9799 66.8151 20.7149 66.6243 20.5003C66.3902 20.1979 66.0974 19.947 65.7638 19.7628C65.1448 19.4441 64.5814 19.1378 63.9871 18.8253C63.4224 18.552 62.8765 18.2409 62.3529 17.8941C61.9489 17.6259 61.5878 17.2971 61.2819 16.9191C60.8151 16.3362 60.5715 15.6033 60.5954 14.8541C60.6192 14.1049 60.909 13.3893 61.4119 12.8378C61.7403 12.4705 62.1388 12.1738 62.5834 11.9655C63.028 11.7572 63.5096 11.6415 63.9995 11.6253C64.809 11.5774 65.6171 11.741 66.3457 12.1003C66.5716 12.2083 66.8055 12.2981 67.0452 12.3691C67.1173 12.4056 67.197 12.4243 67.2777 12.4235C67.3583 12.4228 67.4376 12.4026 67.509 12.3647C67.5804 12.3269 67.6419 12.2723 67.6882 12.2057C67.7346 12.1391 67.7646 12.0623 67.7757 11.9816C67.8128 11.8753 67.8376 11.7628 67.8748 11.6378H68.1286C68.1286 12.9191 68.1967 14.1941 68.2276 15.4628C68.1201 15.517 67.9963 15.5282 67.8809 15.4941L67.8252 15.2691C67.7095 14.6673 67.453 14.102 67.0773 13.6204C66.7015 13.1389 66.2172 12.7548 65.6648 12.5003C65.0566 12.1996 64.3596 12.1373 63.7086 12.3253C63.3139 12.434 62.9697 12.6797 62.7367 13.0191C62.5751 13.2508 62.4911 13.5284 62.4966 13.8117C62.5022 14.095 62.5971 14.3691 62.7676 14.5941C62.9982 14.9088 63.2939 15.169 63.6343 15.3566C64.2533 15.7003 64.8724 16.0253 65.5348 16.3503C66.1971 16.6791 66.8308 17.0638 67.429 17.5003C67.8321 17.7791 68.1805 18.1309 68.4567 18.5378C68.8383 19.1461 69.0095 19.865 68.9434 20.582C68.8773 21.2989 68.5777 21.9736 68.0914 22.5003C67.4325 23.2337 66.5334 23.7021 65.5595 23.8191C64.6012 23.9453 63.6268 23.8116 62.7367 23.4316C62.5626 23.3577 62.3849 23.2931 62.2043 23.2378C61.9744 23.1456 61.7184 23.1454 61.4884 23.2371C61.2583 23.3288 61.0716 23.5057 60.9662 23.7316L60.9043 23.8378Z" fill="#FCFCFD"/>
<path d="M19.8627 14.75H19.5842C19.5346 14.5937 19.4975 14.4437 19.448 14.3C19.3489 14.0312 19.2499 13.7625 19.1323 13.5062C18.9625 13.1534 18.7016 12.8532 18.377 12.6375C18.0787 12.427 17.7256 12.3096 17.3618 12.3L16.2289 12.2687H15.9627C15.958 12.3416 15.958 12.4147 15.9627 12.4875V21.5125C15.9627 21.7062 15.9627 21.8937 15.9999 22.0875C16.0019 22.2793 16.0677 22.465 16.1867 22.6146C16.3056 22.7642 16.471 22.8691 16.6561 22.9125C16.8906 22.9625 17.1286 22.9939 17.368 23.0062C17.4607 23.0125 17.5538 23.0125 17.6465 23.0062V23.3062H11.4561V23.025C11.6789 23.025 11.8894 23.025 12.0751 22.9812C12.2206 22.9635 12.3639 22.93 12.5023 22.8812C12.6586 22.8304 12.7957 22.7325 12.8953 22.6006C12.9949 22.4688 13.0522 22.3094 13.0594 22.1437C13.0913 21.8594 13.1078 21.5736 13.1089 21.2875V12.3187C13.0718 12.3187 13.0532 12.2812 13.0284 12.2812C12.4974 12.252 11.9647 12.2729 11.4375 12.3437C11.1689 12.3853 10.9119 12.4829 10.6827 12.6303C10.4535 12.7778 10.2573 12.9718 10.1065 13.2C9.83436 13.6016 9.64489 14.0543 9.5494 14.5312C9.54213 14.5818 9.5318 14.6319 9.51845 14.6812C9.51845 14.6812 9.51845 14.7125 9.51845 14.75H9.25845C9.20552 13.709 9.20552 12.666 9.25845 11.625H19.8627C19.9061 11.8375 19.9123 14.5125 19.8627 14.75Z" fill="#FCFCFD"/>
<path d="M20.9421 23.3124V23.0249C21.1649 23.0249 21.3816 23.0249 21.5921 22.9749C21.7536 22.9575 21.9119 22.9176 22.0625 22.8561C22.1917 22.8061 22.3048 22.7214 22.3899 22.6113C22.475 22.5012 22.5287 22.3698 22.5454 22.2312C22.5721 22.0511 22.5866 21.8694 22.5887 21.6874C22.5887 18.8707 22.5887 16.0541 22.5887 13.2374C22.5887 13.0562 22.5887 12.8749 22.5454 12.6937C22.536 12.5932 22.5045 12.4961 22.4531 12.4096C22.4016 12.3231 22.3317 12.2493 22.2483 12.1937C22.0347 12.0292 21.774 11.9392 21.5054 11.9374C21.3197 11.9374 21.134 11.9374 20.9297 11.9374V11.6749C21.1278 11.6312 26.7673 11.6124 27.1202 11.6749V11.9499H26.8354C26.5962 11.9598 26.3581 11.9891 26.1235 12.0374C25.9483 12.0713 25.7891 12.1625 25.6705 12.297C25.5519 12.4314 25.4805 12.6016 25.4673 12.7812C25.4457 12.9449 25.4333 13.1098 25.4302 13.2749V21.6749C25.4371 21.8652 25.4537 22.055 25.4797 22.2437C25.487 22.3305 25.5123 22.4149 25.5539 22.4913C25.5955 22.5677 25.6524 22.6345 25.7211 22.6874C25.9086 22.8556 26.1457 22.9567 26.3959 22.9749L27.1016 23.0249V23.2749H21.1216L20.9421 23.3124Z" fill="#FCFCFD"/>
<path d="M56.0312 17.2813V16.425L56.5265 16.2063C56.8516 16.0608 57.1426 15.8479 57.3808 15.5813C57.6233 15.3067 57.7634 14.9552 57.777 14.5875C57.7824 14.4926 57.7662 14.3976 57.7297 14.3098C57.6933 14.2221 57.6374 14.1439 57.5665 14.0813C57.4758 14.001 57.3808 13.9258 57.2817 13.8563L56.997 13.675C56.7262 13.5064 56.5301 13.239 56.4495 12.9282C56.3688 12.6175 56.4097 12.2874 56.5636 12.0063C56.684 11.7912 56.8683 11.6199 57.0906 11.5167C57.3129 11.4135 57.5617 11.3836 57.8017 11.4313C57.9867 11.4652 58.1624 11.5385 58.3172 11.6462C58.4719 11.754 58.6022 11.8938 58.6993 12.0563C58.8686 12.3311 58.9646 12.6455 58.9779 12.9688C59.0826 13.9996 58.7998 15.0324 58.1855 15.8625C57.6262 16.5447 56.875 17.0394 56.0312 17.2813Z" fill="#FCFCFD"/>
</svg>
