<svg width="78" height="50" viewBox="0 0 78 50" fill="none" xmlns="http://www.w3.org/2000/svg">
<g clip-path="url(#clip0_14912_30388)">
<path d="M74.4083 36.3125C74.2844 36.1875 74.1606 36.25 74.0368 36.25C73.4797 36.125 73.1083 35.875 72.7987 35.375C72.5511 35.0625 72.4273 34.6875 72.3654 34.3125C72.3035 34.0625 72.3035 33.8125 72.2416 33.5625C72.1797 33.0625 72.1797 32.5 72.1797 31.9375C72.1797 30.4375 72.1797 28.875 72.1797 27.375C72.1797 26.75 72.3035 26.1875 72.613 25.625C72.8606 25.1875 73.2321 24.8125 73.7273 24.625C73.9749 24.5 74.2845 24.4375 74.594 24.4375C74.7797 24.4375 74.9035 24.375 75.0892 24.375C75.5845 24.4375 76.1416 24.4375 76.6368 24.75C76.9464 24.9375 77.2559 25.1875 77.4416 25.5625C77.6273 25.9375 77.7511 26.375 77.813 26.75C77.8749 27.1875 77.9368 27.625 77.9368 28.0625C77.9368 28.125 77.8749 28.25 77.9987 28.3125C77.9987 28.375 77.9987 28.4375 77.9987 28.4375C77.3178 28.4375 76.6368 28.4375 75.9559 28.4375C75.894 28.4375 75.8321 28.4375 75.7702 28.4375C75.7702 28.375 75.7702 28.3125 75.7702 28.25C75.7702 27.875 75.7702 27.5 75.7702 27.125C75.7702 26.6875 75.5225 26.5 75.1511 26.5625C74.9654 26.5625 74.8416 26.6875 74.7178 26.8125C74.594 27 74.5321 27.25 74.5321 27.5C74.5321 29.0625 74.5321 30.6875 74.5321 32.25C74.5321 32.625 74.5321 33.0625 74.594 33.4375C74.6559 33.6875 74.6559 34 74.9654 34.125C75.0892 34.125 75.2749 34.125 75.3987 34.125C75.5845 34 75.7083 33.875 75.7083 33.6875C75.7702 33.5 75.7702 33.375 75.7702 33.1875C75.7702 32.625 75.7702 32.125 75.7702 31.5625C75.7702 31.5 75.7702 31.4375 75.7702 31.375C75.5845 31.375 75.3987 31.375 75.213 31.375C75.1511 31.0625 75.213 29.625 75.213 29.4375C76.1416 29.4375 77.0702 29.4375 77.9987 29.4375C77.9987 29.5 77.9987 29.5 77.9987 29.5625C77.9987 31.75 77.9987 33.9375 77.9987 36.125C77.9987 36.125 77.9987 36.125 77.9368 36.125C77.6892 36.125 77.3797 36.125 77.0702 36.125C77.0083 35.9375 76.9464 35.8125 76.8844 35.625C76.8225 35.5 76.8225 35.3125 76.6368 35.1875C76.5749 35.25 76.513 35.3125 76.513 35.375C76.1416 35.875 75.7083 36.1875 75.0892 36.25C75.0273 36.25 75.0273 36.3125 74.9654 36.3125C74.7797 36.3125 74.594 36.3125 74.4083 36.3125Z" fill="#FCFCFD"/>
<path d="M57.6307 36.3125C57.5687 36.3125 57.5687 36.25 57.5068 36.25C57.0735 36.25 56.7021 36.125 56.3307 35.9375C55.8354 35.6875 55.5259 35.3125 55.3402 34.8125C55.2164 34.4375 55.1545 34.0625 55.0926 33.6875C55.0307 33.0625 55.0926 32.4375 55.0307 31.8125C55.7735 31.8125 56.5164 31.8125 57.2592 31.8125C57.2592 32 57.2592 32.125 57.2592 32.25C57.2592 32.5625 57.2592 32.8125 57.2592 33.125C57.2592 33.3125 57.2592 33.5 57.3211 33.6875C57.383 33.875 57.5068 34 57.6307 34.125C57.7545 34.125 57.9402 34.125 58.064 34.125C58.3116 34 58.3735 33.8125 58.3735 33.5625C58.3735 33.1875 58.3735 32.8125 58.2497 32.5C58.1259 32.125 57.9402 31.8125 57.6926 31.5625C57.1354 31 56.5783 30.4375 56.0211 29.875C55.6497 29.5 55.3402 29.0625 55.1545 28.5C55.0307 28.1875 54.9688 27.875 54.9688 27.5C54.9688 27 55.0307 26.4375 55.2164 25.9375C55.464 25.1875 56.0211 24.6875 56.764 24.5C57.0735 24.4375 57.383 24.375 57.6926 24.375C58.1259 24.375 58.6211 24.4375 58.9926 24.625C59.5497 24.875 59.983 25.25 60.2307 25.8125C60.3545 26.125 60.4164 26.5 60.4783 26.8125C60.5402 27.125 60.5402 27.4375 60.5402 27.8125C59.7354 27.8125 58.9926 27.8125 58.1878 27.8125C58.1878 27.5625 58.1878 27.375 58.1878 27.125C58.1878 27 58.1878 26.875 58.1259 26.75C58.064 26.5625 57.9402 26.5 57.7545 26.5C57.6926 26.5 57.6307 26.5 57.6307 26.5C57.3211 26.5 57.1354 26.6875 57.1354 27C57.1354 27.375 57.2592 27.6875 57.5068 27.9375C57.9402 28.375 58.3735 28.8125 58.8068 29.1875C59.0545 29.4375 59.3021 29.75 59.6116 30C59.7973 30.1875 59.983 30.4375 60.1687 30.6875C60.4164 31.0625 60.5402 31.5 60.6021 32C60.664 32.375 60.664 32.75 60.664 33.125C60.664 33.75 60.5402 34.3125 60.2926 34.875C60.0449 35.625 59.5497 36.0625 58.8068 36.25C58.683 36.25 58.5592 36.3125 58.4354 36.3125C58.4354 36.3125 58.3735 36.3125 58.3735 36.375C58.1259 36.3125 57.8783 36.3125 57.6307 36.3125Z" fill="#FCFCFD"/>
<path d="M77.9999 23C77.4427 23 76.8237 23 76.2665 23C76.2046 22.5 76.2046 22 76.1427 21.5625C75.957 21.5 75.3379 21.5 74.9665 21.5625C74.9046 22.0625 74.9046 22.5 74.8427 23C74.2856 23 73.6665 23 73.1094 23C73.1094 22.875 73.1094 22.75 73.1094 22.625C73.1094 22.3125 73.1713 22 73.1713 21.75C73.2332 21.375 73.2332 20.9375 73.2951 20.5625C73.357 20.0625 73.4189 19.5625 73.4189 19.0625C73.4189 18.6875 73.4808 18.3125 73.5427 17.9375C73.5427 17.6875 73.6046 17.5 73.6046 17.25C73.6046 16.9375 73.6665 16.6875 73.6665 16.375C73.6665 16.1875 73.7284 16 73.7284 15.8125C73.7284 15.5625 73.7903 15.3125 73.7903 15.0625C73.8522 14.625 73.9141 14.1875 73.9141 13.75C74.0999 13.6875 76.576 13.6875 77.0094 13.75C77.0094 13.75 77.0094 13.8125 77.0713 13.8125C77.0713 14.0625 77.1332 14.3125 77.1332 14.5625C77.1951 14.9375 77.1951 15.375 77.257 15.75C77.257 15.8125 77.257 15.875 77.257 15.9375C77.257 16.25 77.3189 16.5625 77.3189 16.8125C77.3808 17.0625 77.3808 17.3125 77.3808 17.5C77.3808 17.8125 77.4427 18.0625 77.4427 18.375C77.4427 18.5625 77.5046 18.75 77.5046 19C77.5046 19.3125 77.5665 19.625 77.6284 20C77.6284 20.25 77.6903 20.4375 77.6903 20.6875C77.6903 20.9375 77.7522 21.1875 77.7522 21.4375C77.7522 21.625 77.8141 21.8125 77.8141 22C77.8141 22.3125 77.876 22.5625 77.876 22.875C77.876 22.875 77.876 22.9375 77.9379 22.9375C77.9999 22.9375 77.9999 23 77.9999 23ZM75.957 20.0625C75.957 20 76.0189 20 76.0189 19.9375C76.0189 19.75 76.0189 19.625 75.957 19.4375C75.8951 19.0625 75.8951 18.75 75.8332 18.375C75.8332 18.125 75.8332 17.9375 75.7713 17.6875C75.7094 17.375 75.7094 17 75.7094 16.6875C75.7094 16.625 75.7094 16.5625 75.7094 16.5C75.7094 16.1875 75.6475 15.9375 75.6475 15.625C75.6475 15.5 75.5856 15.375 75.5237 15.1875C75.5237 15.25 75.4618 15.3125 75.4618 15.3125C75.4618 15.375 75.4618 15.5 75.4618 15.5625C75.4618 15.8125 75.3999 16.125 75.3999 16.375C75.3999 16.75 75.3379 17.125 75.3379 17.5V17.5625C75.276 17.9375 75.276 18.375 75.2141 18.75C75.2141 19.0625 75.1522 19.375 75.1522 19.625C75.1522 19.75 75.0903 19.875 75.1522 19.9375C75.3999 20.0625 75.6475 20.0625 75.957 20.0625Z" fill="#FCFCFD"/>
<path d="M70.9448 36.1875C70.2019 36.1875 69.4591 36.1875 68.7162 36.1875C68.6543 35.875 68.5924 35.625 68.5305 35.375C68.4067 34.625 68.221 33.9375 68.0972 33.1875C67.9734 32.5625 67.8496 31.9375 67.7257 31.375C67.6638 31.125 67.6019 30.875 67.6019 30.625C67.6019 30.5625 67.54 30.5 67.4781 30.5C67.4781 32.375 67.4781 34.3125 67.4781 36.1875C66.7353 36.1875 65.9924 36.1875 65.2496 36.1875C65.1876 36 65.1876 25.25 65.2496 24.5C65.4353 24.4375 67.2305 24.4375 67.6019 24.5C67.6019 24.625 67.6638 24.75 67.6638 24.8125C67.7257 25 67.7257 25.125 67.7876 25.3125C67.8496 25.75 67.9734 26.1875 68.0353 26.625C68.0972 27.0625 68.221 27.5 68.2829 27.9375C68.3448 28.375 68.4686 28.8125 68.5305 29.25C68.5924 29.5 68.5924 29.6875 68.6543 29.9375V29.875V29.8125C68.6543 29.75 68.6543 29.75 68.6543 29.6875C68.6543 28 68.6543 26.25 68.6543 24.5625C68.6543 24.5625 68.6543 24.5625 68.6543 24.5C68.84 24.4375 69.0257 24.5 69.2115 24.5C69.3972 24.5 69.5829 24.5 69.7686 24.5C69.9543 24.5 70.14 24.5 70.3257 24.5C70.5115 24.5 70.6972 24.5 70.821 24.5L70.8829 24.5625C70.8829 28.375 70.8829 32.1875 70.8829 36.0625C70.9448 36.125 70.9448 36.125 70.9448 36.1875Z" fill="#FCFCFD"/>
<path d="M49.644 30.125C49.7679 30.1875 49.7679 30.1875 49.8298 30.1875C50.1393 30.3125 50.3869 30.5625 50.5107 30.9375C50.5726 31.1875 50.6345 31.5 50.6345 31.75C50.6345 32.25 50.6345 32.75 50.6345 33.1875C50.5726 34.125 50.6345 35.125 50.5726 36.0625C50.5726 36.125 50.5726 36.125 50.5726 36.1875C49.8298 36.1875 49.0869 36.1875 48.344 36.1875C48.2821 36.125 48.344 36 48.344 35.9375C48.344 34.5 48.344 33.0625 48.344 31.5625C48.344 31.4375 48.344 31.3125 48.2821 31.125C48.2202 31 48.1583 30.9375 48.0345 30.875C47.8488 30.8125 47.6631 30.75 47.4774 30.8125C47.4155 31.0625 47.4774 31.3125 47.4774 31.5625C47.4774 31.8125 47.4774 32.0625 47.4774 32.3125C47.4774 32.5625 47.4774 32.8125 47.4774 33.0625C47.4774 33.3125 47.4774 33.5625 47.4774 33.8125C47.4774 34.0625 47.4774 34.3125 47.4774 34.5625C47.4774 34.8125 47.4774 35.0625 47.4774 35.3125C47.4774 35.5625 47.4774 35.8125 47.4774 36.125C47.2298 36.1875 46.9821 36.125 46.7345 36.125C46.4869 36.125 46.2393 36.125 45.9298 36.125C45.6821 36.125 45.4345 36.125 45.1869 36.125C45.125 36.125 45.125 36.0625 45.125 36.0625C45.125 32.25 45.125 28.4375 45.125 24.5625C45.125 24.5 45.125 24.5 45.125 24.4375C45.1869 24.4375 45.2488 24.4375 45.3107 24.4375C46.425 24.4375 47.6012 24.4375 48.7155 24.4375C49.0869 24.4375 49.5202 24.5 49.8298 24.75C50.1393 24.9375 50.325 25.1875 50.4488 25.5C50.6345 25.9375 50.6964 26.375 50.6964 26.8125C50.6964 27 50.7583 27.25 50.7583 27.4375C50.7583 27.8125 50.7583 28.125 50.6964 28.5C50.6345 28.8125 50.5726 29.125 50.3869 29.4375C50.2631 29.6875 50.0155 29.875 49.7679 29.9375C49.7679 30.0625 49.7679 30.0625 49.644 30.125ZM47.4774 28.8125C47.6012 28.8125 47.725 28.875 47.7869 28.875C48.0964 28.875 48.344 28.8125 48.4059 28.5C48.5298 28.0625 48.5298 27.625 48.4679 27.1875C48.4679 27.0625 48.406 26.9375 48.344 26.8125C48.0345 26.5625 47.725 26.6875 47.4155 26.6875C47.4774 27.375 47.4774 28.125 47.4774 28.8125Z" fill="#FCFCFD"/>
<path d="M63.269 18.1875C63.3928 18.25 63.5166 18.3125 63.5785 18.375C63.7023 18.4375 63.8261 18.625 63.888 18.75C64.0118 19 64.0118 19.3125 64.0118 19.5625C64.0118 19.875 64.0118 20.125 64.0118 20.4375C63.9499 21.3125 64.0118 22.125 63.9499 23C63.7642 23.0625 62.4642 23.0625 62.2166 23C62.1547 22.9375 62.1547 22.8125 62.1547 22.75C62.1547 21.6875 62.1547 20.625 62.1547 19.5625C62.1547 19.5 62.1547 19.375 62.1547 19.3125C62.1547 19 61.969 18.875 61.7214 18.8125C61.6594 18.8125 61.5975 18.8125 61.4737 18.8125C61.4118 18.875 61.4118 19 61.4118 19.0625C61.4118 20.3125 61.4118 21.5 61.4118 22.75C61.4118 22.8125 61.4118 22.9375 61.4118 23C61.2261 23.0625 59.9261 23.0625 59.5547 23C59.5547 19.9375 59.5547 16.8125 59.5547 13.75C59.6166 13.75 59.6785 13.75 59.7404 13.75C60.5452 13.75 61.4118 13.75 62.2166 13.75C62.4642 13.75 62.7118 13.75 62.9594 13.875C63.3928 14 63.6404 14.3125 63.8261 14.75C63.888 15 63.9499 15.25 63.9499 15.4375C64.0118 15.75 64.0118 16.125 64.0118 16.4375C64.0118 16.75 63.9499 17.0625 63.888 17.375C63.8261 17.6875 63.6404 18 63.269 18.125C63.3928 18.125 63.3309 18.125 63.269 18.1875ZM61.5356 17.1875C61.7214 17.25 61.8452 17.25 62.0309 17.1875C62.2166 17.1875 62.2785 17.0625 62.3404 16.875C62.4023 16.5 62.4023 16.0625 62.3404 15.6875C62.3404 15.5 62.2166 15.4375 62.0928 15.4375C61.9071 15.4375 61.7214 15.375 61.5975 15.4375C61.5356 16.0625 61.5356 16.625 61.5356 17.1875Z" fill="#FCFCFD"/>
<path d="M67.7891 23C67.7891 19.9375 67.7891 16.875 67.7891 13.8125C67.7891 13.8125 67.7891 13.75 67.7891 13.6875C67.851 13.6875 67.9129 13.6875 67.9748 13.6875C68.7176 13.6875 69.5224 13.6875 70.2653 13.6875C70.6367 13.6875 71.0081 13.75 71.3795 13.9375C71.751 14.125 71.9986 14.4375 72.1224 14.75C72.2462 15.0625 72.3081 15.4375 72.3081 15.8125C72.3081 17.4375 72.3081 19.0625 72.3081 20.6875C72.3081 21.0625 72.2462 21.5 72.0605 21.875C71.8129 22.5625 71.3176 22.9375 70.5129 23C69.6462 23.0625 68.7176 23 67.7891 23ZM69.6462 15.375C69.5843 15.6875 69.6462 21.25 69.6462 21.4375C69.6462 21.4375 69.6462 21.4375 69.7081 21.4375C69.8319 21.4375 69.8938 21.4375 70.0176 21.4375C70.3272 21.4375 70.5129 21.3125 70.5129 20.9375C70.5129 19.25 70.5129 17.5625 70.5129 15.9375C70.5129 15.75 70.5129 15.625 70.3891 15.5C70.1414 15.3125 69.8938 15.3125 69.6462 15.375Z" fill="#FCFCFD"/>
<path d="M58.5653 18.3125C58.5653 19.1875 58.5653 20 58.5653 20.875C58.5653 21.3125 58.4415 21.6875 58.2558 22.0625C57.9463 22.625 57.5129 22.9375 56.8939 23.0625C56.5844 23.125 56.2749 23.125 55.9653 23.125C55.2844 23.0625 54.7272 22.75 54.3558 22.0625C54.1701 21.75 54.0463 21.375 54.0463 20.9375C53.9844 19.25 54.0463 17.625 53.9844 15.9375C53.9844 15.5 54.0463 15.0625 54.2939 14.625C54.6034 14.0625 55.0368 13.75 55.6558 13.6875C55.9653 13.625 56.2129 13.625 56.5225 13.625C56.8939 13.625 57.2653 13.75 57.5749 13.875C57.8225 14 58.0701 14.25 58.1939 14.5C58.4415 14.875 58.5034 15.3125 58.5034 15.75C58.5653 16.625 58.5653 17.5 58.5653 18.3125ZM56.5844 21.375C56.7701 21.125 56.7701 20.875 56.7701 20.625C56.7701 19.125 56.7701 17.5625 56.7701 16.0625C56.7701 15.9375 56.7701 15.8125 56.7082 15.625C56.6463 15.3125 56.2749 15.1875 56.0272 15.4375C55.9653 15.5 55.9034 15.5625 55.8415 15.6875C55.7796 15.8125 55.7796 15.9375 55.7796 16.0625C55.7796 17.625 55.7796 19.125 55.7796 20.6875C55.7796 20.875 55.8415 21 55.8415 21.1875C55.9034 21.3125 55.9653 21.4375 56.0891 21.4375C56.151 21.4375 56.151 21.4375 56.2129 21.5C56.3987 21.4375 56.5225 21.4375 56.5844 21.375Z" fill="#FCFCFD"/>
<path d="M61.7807 24.5C62.5235 24.5 63.2664 24.5 63.9473 24.5C64.0092 24.6875 64.0092 35.25 63.9473 36.125C63.7616 36.1875 62.0283 36.1875 61.7188 36.125C61.7807 32.3125 61.7807 28.4375 61.7807 24.5Z" fill="#FCFCFD"/>
<path d="M51.8125 24.5625C52.5554 24.5625 53.2363 24.5625 53.9173 24.5625C53.9173 24.5625 53.9173 24.5625 53.9792 24.5625C53.9792 28.375 53.9792 32.25 53.9792 36.0625C53.9792 36.125 53.9792 36.125 53.9792 36.1875C53.7315 36.25 53.4839 36.1875 53.2363 36.1875C52.9887 36.1875 52.7411 36.1875 52.5554 36.1875C52.3077 36.1875 52.0601 36.1875 51.8125 36.1875C51.8125 32.3125 51.8125 28.4375 51.8125 24.5625Z" fill="#FCFCFD"/>
<path d="M27.6709 34.8125C27.4233 34.75 27.2376 34.875 27.0519 34.875C26.8661 34.875 26.6185 34.9375 26.4328 35C26.2471 35.0625 26.0614 35.0625 25.8138 35.125C25.6281 35.1875 25.4423 35.1875 25.1947 35.25C25.1947 35.1875 25.1328 35.125 25.1328 35.0625C26.1233 34.6875 27.0519 34.375 28.0423 34C28.1042 34.0625 28.1661 34.125 28.2281 34.1875C28.5995 34.125 28.909 33.9375 29.2804 33.8125C29.6519 33.6875 29.9614 33.5625 30.3328 33.4375C30.7042 33.3125 31.0757 33.1875 31.3852 33.0625C31.7566 32.9375 32.0661 32.8125 32.4376 32.6875C32.809 32.5625 33.1185 32.4375 33.49 32.3125C33.8614 32.1875 34.1709 32.0625 34.5423 31.9375C34.4804 31.8125 34.4804 31.6875 34.4185 31.5625C34.6661 31.4375 42.8376 28.5625 43.4566 28.375C43.4566 28.4375 43.4566 28.5 43.4566 28.5625C43.3947 28.625 43.2709 28.6875 43.1471 28.6875C42.6519 28.875 42.2185 29 41.7233 29.1875C41.29 29.3125 40.9185 29.5 40.4852 29.6875C40.1757 29.8125 39.8661 29.9375 39.5566 30.0625C39.1233 30.25 38.6281 30.375 38.1947 30.5625C37.6376 30.75 37.1423 30.9375 36.5852 31.1875C36.2138 31.3125 35.8423 31.4375 35.4709 31.625C35.2233 31.6875 34.9757 31.8125 34.7281 31.875C34.6661 31.875 34.6042 31.9375 34.5423 31.9375C34.6042 32.1875 34.6661 32.375 34.79 32.625C34.9138 33.0625 35.0376 33.5625 35.0995 34C35.1614 34.3125 35.2233 34.5625 35.2233 34.875C35.4709 34.875 35.6566 34.875 35.8423 34.875C35.9661 34.875 36.0281 34.875 36.1519 34.8125C36.5233 34.8125 36.9566 34.75 37.3281 34.75C37.5757 34.75 37.8233 34.75 38.0709 34.6875C38.4423 34.6875 38.7519 34.625 39.1233 34.625C39.3709 34.625 39.6185 34.625 39.8661 34.625C40.2376 34.625 40.609 34.5625 41.0423 34.5625H41.1042C41.5376 34.5625 42.0328 34.5 42.4661 34.5C43.1471 34.5 43.8281 34.4375 44.509 34.4375C44.5709 34.4375 44.6328 34.4375 44.7566 34.5C44.6947 34.5625 44.5709 34.5625 44.4471 34.625C44.0757 34.6875 43.7042 34.6875 43.3328 34.75C43.0852 34.75 42.8995 34.8125 42.6519 34.8125C42.1566 34.875 41.7233 34.875 41.2281 34.9375C40.8566 35 40.4852 35 40.0519 35.0625C39.99 35.0625 39.9281 35.0625 39.8661 35.0625C39.4947 35.0625 39.1852 35.125 38.8138 35.125C38.5661 35.125 38.3185 35.1875 38.0709 35.1875C37.6995 35.1875 37.3281 35.25 36.9566 35.25C36.709 35.25 36.4614 35.3125 36.2138 35.3125C35.9661 35.3125 35.7185 35.375 35.409 35.375C35.3471 35.375 35.2852 35.375 35.2852 35.375C35.2852 35.25 35.2233 35.125 35.2233 35C35.0995 35 34.9757 35 34.8519 35C34.7281 35 34.6042 35 34.4185 35.0625C34.1709 35 33.7995 35 33.4281 35.0625C33.1804 35.0625 32.9328 35.125 32.7471 35.125C32.3757 35.125 32.0042 35.1875 31.6328 35.25C31.3852 35.25 31.1376 35.3125 30.9519 35.3125C30.5804 35.3125 30.209 35.375 29.8376 35.375C29.5281 35.375 29.2185 35.4375 28.909 35.4375C28.8471 35.4375 28.8471 35.4375 28.7852 35.4375C28.3519 35.4375 27.8566 35.4375 27.4233 35.5C27.1138 35.5625 26.8042 35.5 26.4947 35.5625C26.1852 35.5625 25.8138 35.625 25.5042 35.625C25.5042 35.625 25.5042 35.625 25.4423 35.625C25.4423 35.5625 25.4423 35.5625 25.4423 35.5C25.8757 35.4375 26.309 35.3125 26.7423 35.25C26.9281 35.1875 27.1138 35.125 27.2995 35.125C27.4852 35.125 27.609 35.0625 27.7947 35C27.609 34.875 27.609 34.875 27.6709 34.8125Z" fill="#FCFCFD"/>
<path d="M45.0641 13.75C46.3022 13.75 47.4784 13.75 48.7165 13.75C48.7165 14.375 48.7165 14.9375 48.7165 15.5625C48.0974 15.5625 47.5403 15.5625 46.9212 15.5625C46.8593 15.75 46.8593 16.8125 46.9212 17.0625C47.4784 17.0625 48.0355 17.0625 48.6546 17.0625C48.6546 17.625 48.6546 18.1875 48.6546 18.8125C48.0974 18.8125 47.5403 18.8125 46.9212 18.8125C46.8593 19.125 46.9212 19.375 46.9212 19.6875C46.9212 19.9375 46.9212 20.25 46.9212 20.5C46.9212 20.8125 46.9212 21.0625 46.9212 21.375C46.9212 21.625 46.9212 21.9375 46.9212 22.1875C46.9212 22.4375 46.9212 22.75 46.9212 23C46.3022 23 45.6831 23 45.126 23C45.0022 22.8125 45.0022 14.0625 45.0641 13.75Z" fill="#FCFCFD"/>
<path d="M32.9304 28.6875C32.8685 28.5625 32.8066 28.5 32.7447 28.375C35.4066 26.5 38.0066 24.625 40.7304 22.8125C40.7923 22.875 40.7923 23 40.7304 23.0625C40.6685 23.125 40.6066 23.1875 40.5447 23.25C39.8638 23.75 39.1828 24.25 38.5638 24.6875C37.759 25.3125 36.9542 25.9375 36.0876 26.5C35.3447 27.0625 34.54 27.625 33.7971 28.1875C33.6114 28.3125 33.4257 28.4375 33.24 28.5625C33.1781 28.625 33.1781 28.625 33.1161 28.6875C33.6733 29.5 34.1685 30.375 34.54 31.3125C34.3542 31.375 34.1066 31.5 33.9209 31.5625C33.4876 31.6875 33.1161 31.875 32.6828 32C31.8161 32.3125 30.9495 32.625 30.0209 33C29.5876 33.1875 29.0923 33.3125 28.659 33.4375C28.5971 33.4375 28.5352 33.5 28.4114 33.5625C28.04 33.75 27.6066 33.875 27.1733 34.0625C26.8019 34.1875 26.4304 34.3125 26.059 34.5C25.8114 34.5625 25.6257 34.6875 25.3781 34.75C25.3161 34.75 25.2542 34.75 25.1923 34.8125C25.1923 34.75 25.1304 34.75 25.1304 34.6875C25.8114 34.25 26.6161 33.9375 27.2971 33.5C27.2971 33.4375 27.2352 33.4375 27.2352 33.4375C26.4923 33.8125 25.7495 34.125 25.0066 34.5C24.9447 34.4375 24.9447 34.375 24.8828 34.3125C25.7495 33.6875 26.6161 33.0625 27.4828 32.4375C27.5447 32.4375 27.6066 32.5 27.6685 32.5625C27.7304 32.5 27.8542 32.5 27.9161 32.4375C28.5352 32 29.0923 31.5625 29.7114 31.125C30.2685 30.75 30.7638 30.3125 31.3209 29.9375C31.878 29.5625 32.3733 29.125 32.9304 28.75C32.8685 28.75 32.8685 28.75 32.9304 28.6875Z" fill="#FCFCFD"/>
<path d="M30.2103 25.875C30.3341 25.6875 30.5198 25.5625 30.6436 25.375C30.9531 25 31.2626 24.625 31.5722 24.25C31.9436 23.8125 32.2531 23.375 32.6246 23C32.8722 22.6875 33.1817 22.3125 33.4912 22C33.6769 21.75 33.8626 21.5625 34.0484 21.3125C34.296 21.0625 34.4817 20.8125 34.7293 20.5C35.1007 20.0625 35.4103 19.6875 35.7817 19.25C35.9055 19.0625 36.0293 18.9375 36.215 18.75C36.3388 18.625 36.4626 18.5 36.5246 18.375C36.5865 18.375 36.5865 18.4375 36.6484 18.4375C36.5865 18.5625 36.5246 18.6875 36.4007 18.75C35.8436 19.5 35.2865 20.25 34.7293 20.9375C34.2341 21.5625 33.8007 22.125 33.3055 22.75C32.7484 23.4375 32.2531 24.125 31.696 24.8125C31.3865 25.1875 31.0769 25.5625 30.7674 25.9375C30.7055 26 30.7055 26.0625 30.6436 26.125C31.015 26.4375 31.3865 26.75 31.696 27.125C32.0055 27.4375 32.315 27.8125 32.6865 28.1875C32.5007 28.3125 32.315 28.4375 32.1912 28.5625C31.2626 29.25 30.2722 29.9375 29.3436 30.6875C28.7246 31.125 28.1674 31.5625 27.5484 31.9375C27.4246 32 27.3626 32.0625 27.3626 32.25C26.496 32.875 25.6293 33.5 24.7626 34.125C24.7626 34.0625 24.7007 34.0625 24.7007 34C24.7626 33.9375 24.7626 33.875 24.8246 33.8125C24.9484 33.6875 25.0722 33.5625 25.196 33.4375C25.5674 33.0625 25.9388 32.75 26.3103 32.375C26.3722 32.3125 26.3722 32.25 26.4341 32.25C26.3722 32.1875 26.3103 32.25 26.3103 32.25C26.1865 32.375 26.0626 32.4375 25.9388 32.5625C25.5055 33 25.0103 33.375 24.5769 33.8125C24.515 33.75 24.515 33.75 24.4531 33.6875C24.515 33.5 24.6388 33.375 24.7626 33.25C25.1341 32.75 25.5055 32.3125 25.8769 31.8125C26.0007 31.625 26.1865 31.4375 26.3103 31.25L26.3722 31.1875C26.6198 31.125 26.7436 30.9375 26.8674 30.75C27.0531 30.5625 27.1769 30.375 27.3626 30.1875C27.7341 29.75 28.1055 29.3125 28.4769 28.8125C28.8484 28.3125 29.2817 27.875 29.6531 27.375C29.8388 27.125 30.0865 26.875 30.2722 26.5625C30.396 26.4375 30.5198 26.25 30.6436 26.125C30.6436 26.125 30.6436 26.0625 30.7055 26C30.4579 26.0625 30.3341 26 30.2103 25.875Z" fill="#FCFCFD"/>
<path d="M9.78095 34.875C9.90476 33.875 10.0905 32.875 10.4619 31.9375C12.5048 32.6875 14.4857 33.375 16.4667 34.125C16.5905 34.0625 16.7143 34 16.7143 33.875C17.2095 34.0625 17.7048 34.25 18.2619 34.4375C18.819 34.625 19.6238 34.9375 19.7476 35C19.7476 35.0625 19.6857 35.0625 19.6857 35.125C19.5 35.0625 19.3143 35.0625 19.0667 35C18.881 34.9375 18.6952 34.9375 18.5095 34.875C18.3238 34.8125 18.1381 34.75 17.9524 34.75C17.7667 34.75 17.581 34.625 17.3952 34.6875C17.7667 34.8125 18.1381 34.9375 18.5095 35C18.881 35.0625 19.2524 35.1875 19.6238 35.25C19.6857 35.375 19.6238 35.4375 19.5619 35.5C19.2524 35.5 18.9429 35.4375 18.6333 35.4375C18.5714 35.4375 18.5714 35.4375 18.5095 35.4375C18.0762 35.4375 17.6429 35.375 17.1476 35.375C16.7762 35.375 16.4667 35.3125 16.0952 35.3125C15.6619 35.3125 15.2286 35.25 14.7952 35.1875C14.4857 35.1875 14.2381 35.1875 13.9286 35.125C13.619 35.125 13.3095 35.0625 13.0619 35.0625C12.7524 35.0625 12.5048 35 12.1952 35C11.8238 35 11.4524 34.9375 11.081 34.9375C10.6476 34.9375 10.2143 34.875 9.71905 34.8125C9.65714 34.9375 9.65714 35.0625 9.59524 35.1875C9.40952 35.1875 9.16191 35.1875 8.97619 35.1875C8.85238 35.1875 8.72857 35.1875 8.66667 35.125C8.29524 35.0625 7.92381 35.0625 7.55238 35.0625C7.30476 35.0625 7.05714 35 6.74762 35C6.37619 35 6.00476 34.9375 5.63333 34.875H5.57143C5.2 34.875 4.89048 34.8125 4.51905 34.8125C4.27143 34.8125 4.02381 34.75 3.77619 34.75H3.71429C3.40476 34.75 3.09524 34.6875 2.78571 34.6875C2.47619 34.6875 2.16667 34.625 1.85714 34.625H1.79524C1.42381 34.625 1.05238 34.625 0.742857 34.5625C0.557143 34.5625 0.309524 34.5625 0.12381 34.4375C0.12381 34.4375 0.0619048 34.375 0 34.375C0.309524 34.375 0.495238 34.3125 0.742857 34.375C0.804762 34.375 0.866667 34.375 0.928571 34.375C1.3 34.375 1.60952 34.375 1.98095 34.375C2.41429 34.375 2.90952 34.4375 3.34286 34.4375C3.77619 34.4375 4.14762 34.5 4.58095 34.5C5.01429 34.5 5.44762 34.5625 5.88095 34.5625C6.19048 34.5625 6.4381 34.625 6.74762 34.625C7.05714 34.625 7.36667 34.625 7.61429 34.6875C8.10952 34.75 8.60476 34.75 9.1 34.8125C9.34762 34.875 9.53333 34.875 9.78095 34.875Z" fill="#FCFCFD"/>
<path d="M17.5845 24.25C17.4607 24.3125 17.3369 24.375 17.2131 24.4375C17.3369 24.75 17.4607 25 17.5845 25.25C17.8321 25.875 18.1417 26.5 18.3893 27.125C18.575 27.625 18.8226 28.125 19.0083 28.625C19.194 29.0625 19.3798 29.5 19.5655 30C19.6274 30.125 19.6274 30.1875 19.6893 30.25C19.7512 30.25 19.875 30.25 19.9369 30.25C20.3702 31.25 20.8036 32.25 21.2369 33.25C21.175 33.25 21.1131 33.3125 21.1131 33.3125C20.9893 33.0625 20.8036 32.8125 20.6798 32.625C20.556 32.375 20.4321 32.1875 20.2464 31.9375C20.1226 31.6875 19.9988 31.4375 19.8131 31.25C19.875 31.5 20.0607 31.75 20.1845 32C20.3083 32.25 20.4321 32.5 20.556 32.6875C20.6798 32.9375 20.8655 33.1875 20.9893 33.375C20.9274 33.4375 20.8655 33.4375 20.8036 33.5C20.8036 33.5 20.8036 33.5 20.7417 33.5C20.4321 33.125 20.1226 32.75 19.8131 32.375C19.5655 32.125 19.3798 31.8125 19.1321 31.5625C19.0083 31.375 18.8226 31.1875 18.6988 31C18.3893 30.5 17.956 30.125 17.6464 29.6875C17.3369 29.3125 16.9655 28.875 16.656 28.4375C16.2845 28 15.975 27.5625 15.6036 27.125C15.356 26.8125 15.0464 26.4375 14.7988 26.125C14.7988 26.125 14.7369 26.0625 14.7369 26C15.5417 25.4375 16.3464 24.9375 17.2131 24.5C17.1512 24.3125 17.0893 24.125 17.0274 24C16.8417 23.625 16.7179 23.25 16.5321 22.875C16.3464 22.5 16.2226 22.0625 16.0369 21.6875C15.7893 21.125 15.6036 20.625 15.356 20.0625C15.1083 19.5625 14.9226 19 14.675 18.5C14.4893 18 14.2417 17.5 14.056 17C13.9321 16.6875 13.8083 16.375 13.6845 16.125C13.5607 15.8125 13.4988 15.5 13.375 15.1875C13.4988 15.3125 13.5607 15.375 13.6226 15.5C13.8702 16 14.056 16.4375 14.3036 16.9375C14.4893 17.3125 14.6131 17.625 14.7988 18C15.1702 18.8125 15.5417 19.625 15.9131 20.4375C16.0988 20.875 16.2845 21.3125 16.5321 21.75C16.7798 22.3125 17.0274 22.875 17.275 23.5C17.3369 23.6875 17.4607 24 17.5845 24.25Z" fill="#FCFCFD"/>
<path d="M30.2115 25.875C30.1496 25.9375 30.0877 26 30.0877 26.0625C29.7163 26.5 29.3449 26.9375 28.9734 27.375C28.602 27.8125 28.2306 28.3125 27.8592 28.8125C27.4258 29.3125 26.9925 29.875 26.6211 30.375C26.4972 30.5625 26.3734 30.75 26.1877 30.875C26.1877 30.9375 26.1877 31.0625 26.1877 31.125C25.5068 31.9375 24.8877 32.75 24.2068 33.5625C24.1449 33.5625 24.1449 33.5 24.083 33.5V33.4375C24.2068 33.1875 24.3925 32.9375 24.5163 32.6875C24.7639 32.3125 25.0115 31.875 25.2592 31.5C25.3211 31.4375 25.383 31.375 25.3211 31.25C24.8258 32 24.3925 32.6875 23.9592 33.4375C23.8972 33.375 23.8353 33.375 23.7734 33.3125C24.2068 32.3125 24.6401 31.3125 25.0734 30.3125C25.1353 30.25 25.2592 30.1875 25.3211 30.0625C25.3211 29.8125 25.4449 29.625 25.5068 29.375C25.8782 28.4375 26.3115 27.5 26.683 26.625C26.9306 26 27.2401 25.375 27.4877 24.8125C27.5496 24.6875 27.6115 24.5 27.6734 24.375C27.5496 24.3125 27.4258 24.25 27.302 24.1875C27.4877 23.75 27.7353 23.25 27.9211 22.8125C28.1068 22.3125 28.2925 21.875 28.5401 21.375C28.7258 20.9375 28.9115 20.5625 29.0972 20.125C29.4068 19.4375 29.7163 18.75 30.0258 18.0625C30.1496 17.8125 30.2734 17.5625 30.3972 17.3125C30.7068 16.6875 30.9544 16.0625 31.2639 15.4375C31.3258 15.375 31.3258 15.3125 31.3877 15.1875C31.3877 15.1875 31.4496 15.125 31.5115 15.125C31.5734 15.25 31.5115 15.3125 31.5115 15.375C31.3258 15.8125 31.202 16.1875 31.0163 16.625C30.6449 17.5625 30.2734 18.5 29.8401 19.375C29.5306 20.125 29.1591 20.9375 28.8496 21.6875C28.5401 22.375 28.2925 23.125 27.983 23.8125C27.9211 23.9375 27.8592 24.0625 27.7972 24.25C27.983 24.375 28.1687 24.5 28.4163 24.5625C29.0972 24.875 29.7163 25.3125 30.3353 25.6875C30.1496 25.8125 30.1496 25.875 30.2115 25.875Z" fill="#FCFCFD"/>
<path d="M12.2564 28.5C12.504 28.1875 12.7516 27.9375 12.9993 27.625C13.3088 27.1875 13.7421 26.875 14.1135 26.5C14.1754 26.4375 14.2374 26.375 14.2993 26.3125C12.1945 23.6875 10.0897 21.125 8.04688 18.375C8.23259 18.4375 8.3564 18.5 8.4183 18.5625C8.60402 18.75 8.78973 18.9375 8.97545 19.1875C9.22307 19.4375 9.40878 19.75 9.6564 20C9.96592 20.3125 10.2135 20.6875 10.5231 21C10.7088 21.25 10.8945 21.5 11.0802 21.6875C11.3897 22.0625 11.6993 22.4375 12.0707 22.875C12.3802 23.1875 12.6278 23.5625 12.9374 23.875C13.3088 24.3125 13.6802 24.8125 14.1135 25.25C14.2993 25.4375 14.485 25.6875 14.6088 25.875C14.6088 25.875 14.6088 25.9375 14.6707 25.9375C14.5469 26 14.485 26.125 14.3612 26.1875C14.3612 26.375 14.485 26.5 14.6088 26.5625C15.104 27.1875 15.5993 27.75 16.0945 28.375C16.5897 29 17.085 29.625 17.5802 30.25C17.7659 30.5 17.9516 30.6875 18.1374 30.9375C18.1993 31 18.2612 31.125 18.3231 31.1875C18.4469 31.125 18.5088 31.125 18.5707 31.0625C19.2516 31.875 19.9326 32.75 20.6135 33.5625C20.5516 33.625 20.5516 33.625 20.4897 33.6875C20.1183 33.4375 19.8707 33.125 19.5612 32.875C19.2516 32.625 19.004 32.3125 18.6326 32.0625C18.6326 32.1875 18.6945 32.25 18.6945 32.3125C18.9421 32.5625 19.1278 32.75 19.3754 33C19.6231 33.25 19.9326 33.5 20.1802 33.75C20.1802 33.75 20.2421 33.8125 20.304 33.875C20.2421 33.9375 20.1802 33.9375 20.1183 34C19.9326 33.875 19.685 33.6875 19.4374 33.5625C19.1278 33.375 18.8802 33.1875 18.5707 32.9375C17.7659 32.375 17.0231 31.8125 16.2183 31.25C15.3516 30.625 14.485 30 13.6183 29.375C13.185 29.0625 12.8135 28.75 12.3802 28.5C12.3802 28.5625 12.3183 28.5 12.2564 28.5Z" fill="#FCFCFD"/>
<path d="M49.6484 23C49.6484 19.875 49.6484 16.8125 49.6484 13.75C50.2675 13.75 50.8246 13.75 51.4437 13.75C51.4437 14 51.4437 14.25 51.4437 14.5C51.4437 14.75 51.4437 15 51.4437 15.3125C51.4437 15.5625 51.4437 15.8125 51.4437 16.0625C51.4437 16.3125 51.4437 16.5625 51.4437 16.875C51.4437 17.125 51.4437 17.375 51.4437 17.625C51.4437 17.875 51.4437 18.125 51.4437 18.375C51.4437 18.625 51.4437 18.875 51.4437 19.1875C51.4437 19.4375 51.4437 19.6875 51.4437 19.9375C51.4437 20.1875 51.4437 20.4375 51.4437 20.75C51.4437 21 51.4437 21.25 51.4437 21.5625C52.0627 21.5625 52.6818 21.5625 53.3627 21.5625C53.3627 22.0625 53.3627 22.5625 53.3627 23.0625C52.1865 23.0625 51.0103 23.0625 49.8961 23.0625C49.7103 23 49.7103 23 49.6484 23Z" fill="#FCFCFD"/>
<path d="M20.0568 34.3125C19.9949 34.375 19.9949 34.375 19.933 34.4375C19.7472 34.375 19.6234 34.25 19.4377 34.1875C18.9425 33.9375 18.5092 33.6875 18.0139 33.4375C17.952 33.375 17.8901 33.3125 17.7663 33.375C17.952 33.5625 18.1996 33.625 18.4472 33.8125C18.6949 33.9375 18.8806 34.0625 19.1282 34.1875C19.3758 34.3125 19.5615 34.4375 19.8092 34.5625C19.7472 34.625 19.7472 34.6875 19.6853 34.75C19.1901 34.5625 18.6949 34.4375 18.2615 34.25C17.8901 34.125 17.4568 34 17.0853 33.8125C16.5282 33.625 16.033 33.4375 15.4758 33.25C15.1044 33.125 14.6711 32.9375 14.2996 32.8125C13.6187 32.5625 12.9996 32.3125 12.3187 32.0625C11.8234 31.875 11.3282 31.6875 10.7711 31.5C10.7092 31.5 10.6472 31.4375 10.5234 31.4375C10.5234 31 11.452 29.25 11.8853 28.875C13.6187 30.0625 15.352 31.3125 17.0853 32.5C17.1472 32.4375 17.2092 32.375 17.333 32.3125C18.3234 33 19.1901 33.6875 20.0568 34.3125Z" fill="#FCFCFD"/>
<path d="M24.8265 30.2502C24.3932 31.2502 23.9598 32.2501 23.5265 33.2501C23.4027 33.2501 23.4027 33.1876 23.4027 33.1251C23.4027 33.0001 23.4027 32.9376 23.4646 32.8126C23.5884 32.3751 23.7122 32.0001 23.836 31.6251C23.8979 31.4376 23.9598 31.2501 24.0217 31.0001C24.0217 30.9376 24.0217 30.8127 24.0217 30.7502C23.9598 30.8127 23.9598 30.9376 23.8979 31.0001C23.7741 31.3751 23.6503 31.8126 23.5265 32.1876C23.4646 32.4376 23.3408 32.7501 23.2789 33.0001C23.2789 33.0626 23.217 33.0626 23.217 33.1251C23.1551 33.1251 23.0932 33.0626 23.0312 33.0626C23.0312 32.8126 23.0932 32.5626 23.0932 32.3751C23.0932 32.1876 23.1551 32.0001 23.1551 31.8127C23.217 31.5002 23.2789 31.1251 23.2789 30.8127C23.2789 30.6252 23.3408 30.4377 23.3408 30.2502C23.3408 30.1252 23.3408 30.0002 23.4027 29.8127C23.4027 29.7502 23.4646 29.6252 23.5265 29.5627C23.836 27.5002 24.0836 25.4377 24.3932 23.3752C24.7646 23.3127 26.6217 23.7502 27.2408 24.0627C27.1789 24.2502 27.117 24.3752 27.0551 24.5627C26.7455 25.2502 26.436 26.0002 26.1265 26.6877C25.7551 27.5627 25.3836 28.3752 25.0122 29.2502C24.9503 29.3127 24.9503 29.4377 24.8884 29.5002C24.7027 29.8752 24.5789 30.0627 24.8265 30.2502Z" fill="#FCFCFD"/>
<path d="M22.779 33.0625C22.7171 33.0625 22.6552 33.0625 22.5933 33.0625C22.5933 32.25 22.5933 31.375 22.5933 30.5625H22.5314C22.5314 30.625 22.4695 30.625 22.4695 30.6875C22.4695 31.125 22.4076 31.625 22.4076 32.0625C22.4076 32.25 22.4076 32.4375 22.4076 32.625C22.4076 32.75 22.4076 32.875 22.3457 33.0625H22.2838C22.2219 33.0625 22.2219 33.0625 22.16 33.0625C22.16 32.875 22.0981 32.75 22.0981 32.5625C22.0981 32.4375 22.0362 32.25 22.0362 32.125C21.9743 31.6875 21.9124 31.1875 21.8504 30.75C21.7885 30.5 21.7885 30.25 21.7266 30C21.7266 29.9375 21.7266 29.875 21.7266 29.875C21.7885 29.5 21.7266 29.125 21.6647 28.75C21.6028 28.4375 21.6028 28.125 21.5409 27.875C21.5409 27.75 21.479 27.6875 21.479 27.5625C21.4171 27.125 21.3552 26.625 21.2933 26.1875C21.2314 25.75 21.1695 25.3125 21.1076 24.875C21.0457 24.625 21.0457 24.375 20.9838 24.125C20.9838 23.9375 20.9219 23.75 20.9219 23.5625C20.9838 23.5625 21.0457 23.5 21.1076 23.5C21.7266 23.4375 22.4076 23.4375 23.0266 23.4375C23.2743 23.4375 23.5219 23.5 23.8314 23.5C23.8933 23.6875 23.7695 23.8125 23.7695 24C23.7695 24.1875 23.7076 24.4375 23.7076 24.625C23.6457 25.0625 23.5838 25.5 23.5219 25.875C23.5219 26.0625 23.46 26.25 23.46 26.4375C23.46 26.6875 23.3981 26.875 23.3362 27.125C23.2743 27.3125 23.2743 27.5625 23.2124 27.75C23.1504 28.1875 23.0885 28.5625 23.0266 29C22.9647 29.25 22.9647 29.5 22.9647 29.75C23.0266 29.8125 23.0885 29.875 23.1504 29.9375C23.0885 30.9375 22.9028 32 22.779 33.0625Z" fill="#FCFCFD"/>
<path d="M64.9996 13.75C65.5567 13.75 66.1138 13.75 66.671 13.75C66.7329 13.8125 66.7329 13.9375 66.7329 14C66.7329 14.625 66.7329 15.3125 66.7329 15.9375C66.7329 18.1875 66.7329 20.5 66.7329 22.75C66.7329 22.8125 66.7329 22.9375 66.7329 23C66.1757 23 65.5567 23 64.9996 23C64.9376 22.875 64.9376 14.125 64.9996 13.75Z" fill="#FCFCFD"/>
<path d="M21.5412 29.875C21.665 30.9375 21.8507 32 21.9746 33.125C21.9126 33.125 21.8507 33.125 21.7888 33.125C21.665 32.6875 21.5412 32.3125 21.4174 31.875C21.2936 31.5 21.2317 31.0625 21.046 30.6875C20.9841 30.8125 20.9841 30.875 21.046 30.9375C21.2317 31.5625 21.3555 32.25 21.5412 32.875C21.5412 32.9375 21.5412 33.0625 21.6031 33.125C21.5412 33.125 21.4793 33.1875 21.4174 33.1875C21.3555 33.0625 21.2936 32.9375 21.2317 32.8125C21.1079 32.5 20.9841 32.25 20.8603 31.9375C20.6746 31.5 20.4888 31 20.2412 30.5625C20.1174 30.3125 20.0555 30 19.9936 29.75C19.8079 29.25 19.5603 28.75 19.3746 28.3125C19.1888 27.875 19.0031 27.4375 18.8174 26.9375C18.6317 26.4375 18.3841 25.9375 18.1984 25.4375C18.0126 25.0625 17.8888 24.625 17.7031 24.1875C17.8269 24.125 17.9507 24.0625 18.0746 24C18.5079 23.875 19.0031 23.6875 19.4365 23.5625C19.6841 23.5 19.9317 23.4375 20.1793 23.375C20.3031 23.375 20.365 23.375 20.4888 23.375C20.5507 23.6875 20.5507 24 20.6126 24.25C20.6746 24.6875 20.7365 25.125 20.7984 25.625C20.8603 25.9375 20.8603 26.1875 20.9222 26.5C20.9841 26.9375 21.046 27.375 21.1079 27.8125C21.1698 28.125 21.1698 28.4375 21.2317 28.6875C21.2317 28.9375 21.2936 29.125 21.3555 29.375C21.2936 29.75 21.2936 29.8125 21.5412 29.875Z" fill="#FCFCFD"/>
<path d="M12.2562 28.5C12.1943 28.625 12.0705 28.75 12.0086 28.875C9.28475 26.9375 6.62284 24.9375 3.96094 23C4.02284 23 4.08475 22.9375 4.14665 22.9375C4.45618 23.0625 4.64189 23.25 4.88951 23.375C5.13713 23.5 5.32284 23.6875 5.57046 23.8125C6.0657 24.125 6.49903 24.5 6.99427 24.8125C7.67522 25.3125 8.35618 25.75 9.03713 26.25C9.53237 26.625 10.0276 26.9375 10.5847 27.3125C11.08 27.625 11.5752 28 12.0705 28.3125C12.1324 28.4375 12.1943 28.4375 12.2562 28.5Z" fill="#FCFCFD"/>
<path d="M10.5201 31.4999C10.4582 31.6249 10.4582 31.7499 10.3963 31.9374C7.30104 30.8124 4.26771 29.6874 1.23438 28.4999C1.42009 28.3749 1.6058 28.4374 1.79152 28.4999C2.22485 28.6249 2.65818 28.8124 3.09152 28.9374C3.58676 29.1249 4.02009 29.2499 4.51533 29.4374C5.56771 29.8124 6.55818 30.1249 7.61057 30.4999C8.41533 30.7499 9.15818 31.0624 9.96295 31.3124C10.0868 31.3749 10.2725 31.3749 10.3963 31.4374C10.4582 31.4999 10.5201 31.4999 10.5201 31.4999Z" fill="#FCFCFD"/>
<path d="M20.8607 23.375C20.7369 23.375 20.6131 23.4375 20.4893 23.4375C20.4893 23.3125 20.4274 23.125 20.4274 23C20.3655 22.5625 20.3036 22.125 20.2417 21.6875C20.1798 21.375 20.1179 21.0625 20.1179 20.75C20.056 20.4375 20.056 20.125 19.994 19.8125C19.994 19.5625 19.9321 19.3125 19.8702 19.0625C19.8702 18.8125 19.8083 18.625 19.8083 18.375C19.8083 18.1875 19.7464 18 19.7464 17.75C19.7464 17.6875 19.7464 17.625 19.7464 17.5625C19.7464 17.3125 19.6845 17.125 19.6845 16.875C19.6845 16.6875 19.6226 16.5625 19.6226 16.375C19.5607 15.9375 19.4988 15.5625 19.4988 15.125C19.4988 14.9375 19.4369 14.75 19.4369 14.5625C19.4369 14.3125 19.375 14.0625 19.375 13.8125C19.375 13.75 19.375 13.6875 19.375 13.625C19.4988 13.6875 19.5607 13.8125 19.6226 13.9375C19.6845 14.25 19.7464 14.625 19.8083 15C19.8702 15.25 19.8702 15.5 19.9321 15.75C19.994 16.0625 19.994 16.375 20.056 16.6875C20.1179 16.9375 20.1179 17.1875 20.1798 17.4375C20.2417 17.75 20.2417 18.0625 20.3036 18.3125C20.3655 18.6875 20.4274 19.125 20.4893 19.5C20.5512 19.75 20.5512 20.0625 20.6131 20.3125C20.675 20.75 20.7369 21.125 20.7988 21.5625C20.8607 21.8125 20.8607 22.125 20.9226 22.375C20.9845 22.6875 21.0464 23 21.0464 23.3125C20.8607 23.3125 20.8607 23.375 20.8607 23.375Z" fill="#FCFCFD"/>
<path d="M25.5013 13.8125C25.5013 14 25.4394 14.1875 25.4394 14.375C25.4394 14.4375 25.4394 14.5 25.4394 14.5625C25.4394 14.8125 25.3775 15 25.3775 15.25C25.3775 15.3125 25.3775 15.375 25.3775 15.375C25.3156 15.6875 25.3156 16.0625 25.2537 16.375C25.2537 16.625 25.1918 16.8125 25.1918 17.0625C25.1299 17.4375 25.068 17.875 25.068 18.25C25.0061 18.5625 25.0061 18.9375 24.9442 19.25C24.8823 19.5625 24.8823 19.8125 24.8204 20.0625C24.8204 20.25 24.7585 20.4375 24.7585 20.625C24.6966 21.0625 24.6966 21.5625 24.5728 22C24.5109 22.1875 24.5109 22.375 24.5109 22.5625C24.5109 22.8125 24.449 23.0625 24.3871 23.3125C24.2632 23.3125 24.1394 23.25 24.0156 23.25C24.0156 23.0625 24.0775 22.8125 24.0775 22.625C24.0775 22.375 24.1394 22.1875 24.1394 21.9375C24.2013 21.6875 24.2013 21.5 24.2632 21.25C24.3251 21.0625 24.3252 20.8125 24.3871 20.625C24.449 20.125 24.5728 19.625 24.6347 19.125C24.6966 18.8125 24.6966 18.5 24.7585 18.1875C24.8204 17.875 24.8204 17.625 24.8823 17.375C24.9442 17.125 24.9442 16.8125 25.0061 16.5625C25.068 16.1875 25.1299 15.75 25.1918 15.375C25.2537 15 25.3156 14.6875 25.3775 14.3125C25.2537 14.1875 25.3775 14 25.5013 13.8125Z" fill="#FCFCFD"/>
<path d="M35.3495 35.375C35.3495 35.5625 35.3495 35.75 35.3495 35.875C32.0685 35.875 28.7876 35.875 25.5066 35.875C25.4447 35.875 25.4447 35.875 25.3828 35.875C25.3828 35.8125 25.3828 35.8125 25.3828 35.75C25.3828 35.75 25.3828 35.6875 25.4447 35.6875C25.6304 35.6875 25.8161 35.625 26.0019 35.625C26.3733 35.5625 26.7447 35.5625 27.1781 35.5625C27.6114 35.5625 28.1066 35.5 28.54 35.5C28.6019 35.625 28.6019 35.6875 28.6638 35.75C28.7876 35.75 28.9114 35.75 29.0971 35.75C29.4066 35.75 29.7161 35.6875 30.0876 35.6875C30.459 35.625 30.8304 35.625 31.2019 35.625C31.5114 35.625 31.759 35.5625 32.0685 35.5625C32.44 35.5625 32.8733 35.5625 33.2447 35.5C33.74 35.4375 34.2352 35.4375 34.7923 35.375C34.9781 35.375 35.1638 35.375 35.3495 35.3125C35.2257 35.375 35.2876 35.375 35.3495 35.375Z" fill="#FCFCFD"/>
<path d="M9.71875 35.9375C9.71875 35.75 9.71875 35.625 9.71875 35.4375C9.84256 35.4375 10.0283 35.4375 10.1521 35.4375C10.2759 35.4375 10.3997 35.4375 10.4616 35.5C10.833 35.5625 11.2045 35.5625 11.5759 35.625C11.8235 35.625 12.0711 35.6875 12.3187 35.6875C12.6283 35.6875 12.9997 35.75 13.3092 35.75C13.5568 35.75 13.7426 35.8125 13.9902 35.8125C14.3616 35.8125 14.733 35.875 15.1045 35.875C15.3521 35.875 15.5997 35.9375 15.8473 35.9375C15.9711 35.9375 16.0949 35.9375 16.2188 35.9375C16.3426 35.875 16.3426 35.75 16.3426 35.625C16.4045 35.625 16.4664 35.625 16.5283 35.625C16.5902 35.625 16.6521 35.625 16.6521 35.625C17.1473 35.625 17.5807 35.6875 18.0759 35.75C18.4473 35.8125 18.8188 35.8125 19.1902 35.8125C19.314 35.8125 19.4378 35.8125 19.5616 35.9375C19.4997 36 19.4997 36 19.4378 36C19.3759 36 19.314 36 19.2521 36C18.6949 36 18.1378 36 17.5807 36C17.2092 36 16.8378 36 16.4664 36.0625C16.3426 36.0625 16.2188 36.0625 16.033 36.0625C15.9092 36.0625 15.7854 36.0625 15.6616 36.0625C15.3521 36.0625 15.0426 36.0625 14.6711 36.0625C14.3616 36.0625 13.9902 36 13.6807 36.0625C13.6188 36.0625 13.5568 36.0625 13.4949 36.0625C12.4426 36.0625 11.4521 36.0625 10.3997 36.0625C10.214 35.9375 9.96637 35.9375 9.71875 35.9375Z" fill="#FCFCFD"/>
</g>
<defs>
<clipPath id="clip0_14912_30388">
<rect width="78" height="49.9999" fill="white"/>
</clipPath>
</defs>
</svg>
