<svg width="78" height="50" viewBox="0 0 78 50" fill="none" xmlns="http://www.w3.org/2000/svg">
<g clip-path="url(#clip0_14912_30422)">
<path d="M27.3069 20.6878V20.402C27.4715 20.3362 27.6263 20.2481 27.767 20.1403C27.8076 20.1066 27.8361 20.0604 27.8479 20.009C27.8976 19.786 27.9211 19.5579 27.9179 19.3295C27.9405 18.8133 27.9522 18.5063 27.9522 18.4064V15.35C27.9522 14.8382 27.9405 14.3343 27.9179 13.8422C27.9288 13.626 27.9004 13.4096 27.8341 13.2035C27.7818 13.1312 27.7065 13.079 27.6205 13.0555C27.3433 13.0085 27.0622 12.989 26.7812 12.9971V12.6377C27.7415 12.661 28.3335 12.6727 28.5632 12.6727C28.8147 12.6727 29.38 12.661 30.2591 12.6377V12.9971C29.9731 12.9889 29.6869 13.0084 29.4046 13.0555C29.3211 13.0759 29.2471 13.1246 29.1953 13.1933C29.1286 13.3681 29.0981 13.5546 29.1057 13.7416C29.0998 13.8174 29.0882 14.3526 29.0714 15.3507V19.1683C29.0714 19.5672 29.0828 19.8914 29.1057 20.141C29.5555 20.1643 29.6051 20.1753 30.0484 20.1753C30.8508 20.2079 31.6541 20.1391 32.4392 19.9704C32.4958 19.8442 32.5417 19.7135 32.5762 19.5796L32.8139 18.6405H33.204C33.1172 19.2026 33.0322 19.8625 32.9488 20.62C32.8218 20.6453 32.6935 20.664 32.5646 20.6762C32.3597 20.6842 32.0432 20.6878 31.6174 20.6878L28.4604 20.6535C28.0827 20.6535 27.697 20.6652 27.3069 20.6878Z" fill="#FCFCFD"/>
<path d="M37.4157 20.3283V20.6878C36.5794 20.6645 36.0311 20.6535 35.7679 20.6535L33.9531 20.6878V20.3283C34.2338 20.3364 34.5145 20.3154 34.7909 20.2656C34.8737 20.2442 34.9478 20.1976 35.003 20.1322C35.0674 19.9573 35.0973 19.7716 35.0913 19.5854C35.0956 19.5059 35.1066 18.9676 35.1241 17.9704V15.3471C35.1241 14.8353 35.1131 14.3331 35.0913 13.8407C35.1012 13.6247 35.0723 13.4086 35.006 13.2027C34.953 13.1306 34.8772 13.0784 34.7909 13.0547C34.5142 13.0081 34.2336 12.9886 33.9531 12.9964V12.6377C34.6997 12.661 35.2794 12.672 35.6862 12.672C36.0785 12.672 36.6538 12.661 37.4157 12.6377V12.9964C37.1333 12.9884 36.8507 13.0079 36.5721 13.0547C36.489 13.0749 36.4159 13.124 36.3658 13.1932C36.2997 13.3679 36.2697 13.5542 36.2775 13.7408C36.2717 13.8152 36.2622 14.3504 36.2433 15.347V17.9704C36.2433 18.4873 36.2506 18.9889 36.2622 19.4774C36.2499 19.6936 36.2789 19.9101 36.3475 20.1154C36.4007 20.1881 36.4767 20.241 36.5633 20.2656C36.8446 20.3157 37.1302 20.3367 37.4157 20.3283ZM36.2775 13.7408C36.2717 13.8152 36.2622 14.3504 36.2433 15.347V17.9704" fill="#FCFCFD"/>
<path d="M38.7215 20.6878V20.3291C38.9968 20.3443 39.2728 20.3122 39.5373 20.2343C39.5636 20.2256 39.5877 20.2116 39.6083 20.1932C39.6289 20.1748 39.6454 20.1523 39.6569 20.1271C39.7157 19.9349 39.744 19.7346 39.7408 19.5336C39.7641 19.0335 39.775 18.6047 39.775 18.2431V13.6329C39.7805 13.5505 39.7723 13.4677 39.751 13.388C39.6965 13.2933 39.6233 13.2106 39.5359 13.1452C39.4655 13.0852 39.3804 13.0449 39.2894 13.0285C39.0845 13.004 38.8782 12.9935 38.6719 12.9971V12.6377C39.3521 12.661 39.7823 12.6727 39.9573 12.6727C40.2562 12.6727 40.5486 12.661 40.8446 12.6377C41.1749 13.0569 41.4175 13.3656 41.5723 13.5637L42.7782 15.0051L44.5383 17.0641C45.1012 17.7203 45.5535 18.2365 45.8952 18.6128C46.1117 18.8614 46.294 19.0566 46.442 19.1982V15.0715C46.442 14.701 46.4311 14.2673 46.4078 13.7744C46.4096 13.5773 46.3838 13.381 46.3312 13.1911C46.3037 13.1404 46.2593 13.101 46.2058 13.0795C45.9395 13.0111 45.6645 12.9833 45.3899 12.9971V12.6377C45.8573 12.661 46.3283 12.6727 46.8095 12.6727C47.2594 12.6727 47.6686 12.661 48.0373 12.6377V12.9971C47.7632 12.983 47.4886 13.0108 47.2229 13.0795C47.1961 13.0902 47.1717 13.1062 47.1512 13.1265C47.1306 13.1468 47.1144 13.171 47.1033 13.1977C47.0427 13.3905 47.0146 13.592 47.0202 13.7941C46.9976 14.2884 46.9852 14.7179 46.9852 15.0795V17.8027C46.9852 18.3554 46.9969 19.3851 47.0202 20.892H46.434L46.2867 20.7352C46.2641 20.7308 46.2145 20.6703 46.1948 20.6535C46.1149 20.5822 46.0396 20.5057 45.9696 20.4246C45.6436 20.063 45.4035 19.79 45.2492 19.6058L44.4873 18.6733L40.2978 13.821V18.2154C40.2978 18.5902 40.308 19.0305 40.335 19.5402C40.3321 19.7375 40.3574 19.9341 40.4101 20.1242C40.4219 20.1509 40.4392 20.1748 40.4608 20.1943C40.4824 20.2139 40.5078 20.2288 40.5355 20.238C40.8012 20.3125 41.0772 20.3432 41.3528 20.3291V20.6878C41.0065 20.6652 40.6237 20.6535 40.2096 20.6535C39.7524 20.6535 39.2552 20.6652 38.7215 20.6878Z" fill="#FCFCFD"/>
<path d="M52.5243 20.3284V20.6871C51.6895 20.6645 51.1419 20.6528 50.8765 20.6528L49.0625 20.6871V20.3284C49.3444 20.3364 49.6263 20.3153 49.9039 20.2657C49.9858 20.2441 50.059 20.1974 50.1132 20.1322C50.1781 19.9575 50.2076 19.7716 50.1999 19.5854C50.2072 19.5059 50.2174 18.9671 50.2342 17.9704V15.3471C50.2342 14.8345 50.2228 14.3324 50.1999 13.8407C50.2108 13.6248 50.1823 13.4086 50.1161 13.2028C50.0642 13.1302 49.9886 13.0778 49.9024 13.0547C49.625 13.0081 49.3437 12.9886 49.0625 12.9964V12.6377C49.8098 12.6603 50.3895 12.672 50.7971 12.672C51.1886 12.672 51.7644 12.6605 52.5243 12.6377V12.9964C52.2426 12.9884 51.9608 13.0079 51.6829 13.0547C51.5995 13.0747 51.5259 13.1235 51.4751 13.1925C51.409 13.3675 51.3792 13.554 51.3876 13.7408C51.3825 13.8152 51.3716 14.3506 51.3548 15.3471V17.9704C51.3548 18.4874 51.3592 18.989 51.3723 19.4775C51.36 19.6936 51.389 19.9101 51.4576 20.1155C51.511 20.1883 51.5872 20.2412 51.6742 20.2657C51.9546 20.3158 52.2395 20.3368 52.5243 20.3284Z" fill="#FCFCFD"/>
<path d="M60.959 19.6809L60.7286 20.2095C60.296 20.4218 59.8405 20.5837 59.371 20.6922C58.8967 20.7945 58.4125 20.8441 57.9274 20.8402C57.3509 20.8448 56.7765 20.7712 56.2198 20.6215C55.7299 20.4894 55.2655 20.2767 54.8454 19.9922C54.1222 19.509 53.5829 18.7962 53.3143 17.969C53.1797 17.5464 53.1135 17.1051 53.1181 16.6617C53.1056 16.0989 53.2173 15.5403 53.4453 15.0256C53.6733 14.5109 54.0119 14.0529 54.4371 13.684C55.444 12.8503 56.7287 12.4279 58.0338 12.5014C58.3679 12.5002 58.7018 12.52 59.0334 12.5604C59.4097 12.6144 59.7826 12.6896 60.1504 12.7857C60.5915 12.8965 60.8591 12.9607 60.959 12.9811C60.8757 13.1766 60.8108 13.3795 60.7651 13.587C60.697 13.955 60.6539 14.3272 60.636 14.7011H60.2795L60.2736 14.0391C60.2533 13.8552 60.1823 13.6805 60.0684 13.5347C59.9546 13.3888 59.8025 13.2774 59.6291 13.213C59.0829 13.0071 58.5002 12.9158 57.9171 12.9447C57.4331 12.9406 56.9511 13.0091 56.4874 13.1481C56.1007 13.2726 55.7466 13.4816 55.4506 13.7598C55.1362 14.0611 54.8862 14.423 54.7156 14.8236C54.511 15.3386 54.4128 15.8897 54.4269 16.4437C54.4047 16.9525 54.4907 17.4604 54.6792 17.9336C54.8677 18.4068 55.1545 18.8346 55.5206 19.1888C56.3101 19.9035 57.3506 20.2765 58.4144 20.2263C58.9237 20.2308 59.4308 20.1597 59.9193 20.0156C60.2524 19.9103 60.5685 19.7573 60.8577 19.5613L60.959 19.6809Z" fill="#FCFCFD"/>
<path d="M25.8418 19.6808L25.6114 20.2094C25.1792 20.4214 24.7242 20.5833 24.2553 20.692C23.7805 20.7943 23.2958 20.844 22.8102 20.84C22.2337 20.8447 21.6593 20.7711 21.1026 20.6213C20.6126 20.4895 20.1481 20.2769 19.7282 19.9921C19.3582 19.7418 19.0324 19.4315 18.7643 19.0741C18.5181 18.7381 18.3268 18.365 18.1978 17.9688C18.0627 17.5464 17.9962 17.105 18.0009 16.6615C17.9885 16.0989 18.1001 15.5404 18.3278 15.0258C18.5555 14.5112 18.8937 14.053 19.3184 13.6838C20.3263 12.8508 21.6111 12.4285 22.9166 12.5012C23.2507 12.5001 23.5846 12.5198 23.9162 12.5603C24.2925 12.6143 24.6654 12.6895 25.0332 12.7856C25.4729 12.8964 25.7434 12.9605 25.8418 12.981C25.7592 13.1767 25.6943 13.3795 25.6479 13.5868C25.5796 13.9548 25.537 14.3271 25.5203 14.7009H25.1637L25.1572 14.0389C25.1368 13.8549 25.0657 13.6802 24.9517 13.5343C24.8378 13.3884 24.6855 13.2771 24.5119 13.2128C23.9657 13.0069 23.383 12.9155 22.8 12.9445C22.3159 12.9404 21.8339 13.009 21.3702 13.1479C20.9831 13.2725 20.6284 13.4814 20.3319 13.7596C20.0185 14.0614 19.769 14.4232 19.5984 14.8234C19.3931 15.3382 19.2948 15.8895 19.3097 16.4435C19.2875 16.9524 19.3735 17.4602 19.562 17.9334C19.7505 18.4066 20.0373 18.8344 20.4034 19.1886C21.1928 19.9036 22.2333 20.2766 23.2972 20.2261C23.8065 20.2308 24.3137 20.1597 24.8021 20.0154C25.1352 19.9102 25.4513 19.7572 25.7405 19.5612L25.8418 19.6808Z" fill="#FCFCFD"/>
<path d="M21.3906 2.30664V1.92969C21.804 1.95885 22.1995 1.97343 22.5769 1.97343C22.9604 1.97343 23.3264 1.95885 23.6771 1.92969C24.0256 2.68432 24.3438 3.34344 24.6315 3.90704L26.8786 8.3065L28.9085 4.27743C29.4604 3.18089 29.8291 2.39831 30.0146 1.92969C30.4309 1.95885 30.7833 1.97343 31.0718 1.97343C31.335 1.97343 31.7608 1.95885 32.3528 1.92969V2.30664C32.0663 2.29829 31.7796 2.31783 31.4968 2.36497C31.4138 2.38538 31.3401 2.43316 31.2876 2.50058C31.217 2.67202 31.1866 2.85732 31.1986 3.04231C31.1943 3.11741 31.1855 3.64893 31.1695 4.63688V7.23762C31.1695 7.75019 31.1792 8.24817 31.1986 8.73157C31.1872 8.94547 31.2159 9.15962 31.2832 9.36298C31.3371 9.43599 31.4138 9.48886 31.5012 9.51318C31.7821 9.56359 32.0676 9.58436 32.3528 9.57515V9.93748C31.5574 9.90613 30.9967 9.89373 30.67 9.89373C30.4061 9.89373 29.8235 9.90613 28.9194 9.93748V9.57515C29.2071 9.58392 29.4949 9.56316 29.7783 9.51318C29.8603 9.49438 29.9332 9.44774 29.9847 9.38121C30.0549 9.20842 30.0851 9.02196 30.0729 8.83583C30.078 8.75636 30.0875 8.22484 30.1021 7.2347V3.1021L28.0584 7.17346C27.739 7.80706 27.4889 8.32035 27.3059 8.70605C27.1754 8.98603 26.9781 9.43443 26.7139 10.0513H26.4835C26.4443 9.93333 26.3968 9.81832 26.3413 9.70712L25.9374 8.8825L23.107 3.2924V7.2347C23.107 7.74654 23.1208 8.24598 23.15 8.73011C23.1379 8.94438 23.1671 9.15897 23.236 9.36221C23.2896 9.43599 23.3668 9.48924 23.4547 9.51314C23.7369 9.56358 24.0235 9.58435 24.31 9.57511V9.93743L22.8802 9.89369L21.3906 9.93743V9.57511C21.6759 9.58397 21.9613 9.5632 22.2422 9.51314C22.3255 9.49301 22.4001 9.44676 22.4551 9.38117C22.5208 9.20761 22.551 9.02267 22.5441 8.83725C22.5485 8.7585 22.5587 8.22625 22.5725 7.23758V4.63691C22.5725 4.1294 22.563 3.63166 22.5441 3.14369C22.5548 2.92976 22.5259 2.71568 22.4588 2.51228C22.4046 2.44022 22.3278 2.38838 22.2408 2.365C21.96 2.31796 21.6752 2.2984 21.3906 2.30664Z" fill="#FCFCFD"/>
<path d="M33.9894 9.90098C34.324 9.90098 34.8228 9.91119 35.4921 9.93817V9.57945C35.2341 9.58386 34.9763 9.56605 34.7214 9.52622C34.6454 9.51433 34.575 9.47888 34.5202 9.42487C34.4883 9.38958 34.471 9.3434 34.4721 9.29582C34.4948 9.09644 34.5533 8.90279 34.6449 8.7242L35.2843 7.27181H38.7177L39.4519 9.00345C39.499 9.10453 39.5265 9.21364 39.5328 9.32499C39.5337 9.34908 39.5296 9.37309 39.5209 9.39555C39.5121 9.418 39.4988 9.4384 39.4818 9.4555C39.4273 9.50084 39.361 9.5299 39.2908 9.53934C39.0234 9.56757 38.7547 9.58095 38.4858 9.57945V9.93817L40.3932 9.90098C40.6382 9.90098 41.0698 9.91119 41.6866 9.93817V9.57945C41.4827 9.58999 41.2785 9.56683 41.0822 9.51091C40.9758 9.45233 40.8901 9.36248 40.8365 9.25353C40.7009 9.01584 40.4277 8.43863 40.017 7.52189L37.4789 1.85742H37.1049C36.5734 3.06848 36.2285 3.84717 36.0644 4.19503L34.5807 7.37833C34.1359 8.29993 33.8783 8.82999 33.8078 8.96852C33.7377 9.1333 33.6425 9.28625 33.5257 9.42199C33.4648 9.47775 33.392 9.51889 33.3128 9.54229C33.1188 9.57116 32.9227 9.5836 32.7266 9.57947V9.9382C33.1844 9.91122 33.6051 9.90098 33.9894 9.90098ZM36.9984 3.40317L38.4807 6.79645H35.4877L36.9984 3.40317Z" fill="#FCFCFD"/>
<path d="M46.6144 3.13341C46.7628 2.94025 46.8815 2.72596 46.9666 2.49767C46.9673 2.46408 46.9568 2.43121 46.9367 2.40428C46.9166 2.37734 46.8881 2.35786 46.8557 2.34893C46.5673 2.30211 46.2751 2.28234 45.983 2.28987V1.92969C46.7143 1.95375 47.1445 1.96468 47.5513 1.96468C47.9436 1.96468 48.1587 1.95375 48.9352 1.92969V2.28987C48.6803 2.28114 48.4252 2.30095 48.1747 2.34893C48.0662 2.37466 47.9636 2.42123 47.8729 2.48604C47.6974 2.64973 47.5416 2.83324 47.4084 3.03287L45.6739 5.51768C45.4631 5.82443 45.2745 6.14581 45.1095 6.47938C45.0673 6.58721 45.0453 6.70189 45.0446 6.81769V7.24641C45.0446 7.75675 45.0541 8.25477 45.0789 8.73598C45.0664 8.95005 45.0946 9.16455 45.162 9.36812C45.2158 9.44004 45.2916 9.4925 45.3778 9.51759C45.654 9.56648 45.9345 9.587 46.2149 9.57884V9.93829C45.5725 9.91058 45.0169 9.90037 44.5496 9.90037C44.1004 9.90037 43.5062 9.91058 42.7698 9.93829V9.57884C43.0511 9.58659 43.3325 9.56607 43.6097 9.51759C43.6908 9.49762 43.7627 9.45086 43.8139 9.38489C43.884 9.21325 43.9159 9.02838 43.9072 8.84316C43.9116 8.76439 43.923 8.23214 43.9415 7.24641V6.59166C43.8576 6.42322 43.7772 6.27206 43.7001 6.13816C43.6447 6.04408 43.4442 5.72157 43.0986 5.17063L41.5908 3.03287C41.4762 2.83397 41.3371 2.65026 41.1767 2.48604C41.0904 2.42095 40.9916 2.37429 40.8865 2.34893C40.641 2.30027 40.3907 2.28045 40.1406 2.28987V1.92969C40.9171 1.95375 41.1504 1.96468 41.5412 1.96468C41.9503 1.96468 42.9936 1.95375 43.7257 1.92969V2.28987C43.4125 2.28389 43.0994 2.30365 42.7895 2.34893C42.756 2.35805 42.726 2.37717 42.7036 2.40374C42.6812 2.43031 42.6674 2.46307 42.6641 2.49767C42.7296 2.72403 42.8305 2.93862 42.963 3.13345L44.7297 5.98719L46.6144 3.13341Z" fill="#FCFCFD"/>
<path d="M50.1594 3.78235C50.3821 3.29308 50.7547 2.88733 51.2232 2.62379C51.7276 2.34887 52.2952 2.21086 52.8695 2.22351C53.2806 2.22032 53.6894 2.28436 54.0798 2.41308C54.4086 2.51644 54.717 2.67605 54.9912 2.88481C55.2243 3.07168 55.4278 3.29266 55.5949 3.54028C55.769 3.79822 55.9062 4.07921 56.0025 4.37511C56.172 4.90977 56.2556 5.4679 56.2504 6.02874C56.2629 6.66538 56.145 7.29784 55.9041 7.88725C55.6927 8.40049 55.3275 8.83558 54.8585 9.13257C54.361 9.43429 53.7874 9.5871 53.2056 9.57291C52.7802 9.57799 52.3575 9.50536 51.9581 9.35859C51.5734 9.20674 51.2249 8.97571 50.9352 8.68048C50.6176 8.35394 50.3672 7.96827 50.1981 7.54532C50.0713 7.23678 49.9758 6.91631 49.913 6.58873C49.8394 6.23051 49.8018 5.86585 49.8007 5.50016C49.7907 4.90798 49.9132 4.32103 50.1594 3.78235ZM48.8521 7.56792C49.0292 8.08368 49.318 8.55397 49.6979 8.94522C50.0802 9.3295 50.5446 9.62216 51.0562 9.80119C51.6137 9.99146 52.1988 10.0878 52.7879 10.0863C54.037 10.1291 55.2521 9.67406 56.1658 8.82127C56.6008 8.42009 56.9453 7.93083 57.1764 7.38608C57.4075 6.84133 57.5198 6.2536 57.5059 5.66203C57.5088 5.28651 57.464 4.91216 57.3725 4.54794C57.2978 4.23168 57.1772 3.92806 57.0145 3.64676C56.8034 3.28639 56.5307 2.96583 56.2089 2.69965C55.8214 2.38658 55.377 2.1516 54.9001 2.00772C54.3263 1.82644 53.7272 1.73808 53.1254 1.74597C52.4861 1.73456 51.85 1.83804 51.2472 2.05146C50.7004 2.25306 50.1994 2.56194 49.7737 2.95994C49.3615 3.33358 49.0428 3.79886 48.8434 4.31827C48.4659 5.36914 48.469 6.51911 48.8521 7.56792Z" fill="#FCFCFD"/>
<path d="M48.151 24.5791H41.7954V31.7382C41.7954 35.0222 42.9379 37.3108 44.9313 38.9025L44.9298 37.9C43.7305 36.4116 43.1333 34.5273 43.2565 32.6197V30.7452H45.6633V38.92C45.6633 41.9006 44.827 45.6971 39.5045 48.0755C34.4466 45.8152 33.439 42.2746 33.3515 39.3699C35.7372 37.768 37.1254 35.3583 37.1254 31.7382V30.7452H41.0254V29.2702H37.1254L35.6643 29.2695L31.8773 29.2702V37.8621C31.8773 38.1625 31.8853 38.4541 31.9013 38.7406V38.7414C32.4269 38.4024 32.9114 38.0036 33.345 37.5529V30.7452H35.6643V32.6197C35.6643 35.1038 35.2056 38.1821 30.7697 40.1646C26.3338 38.1821 25.8745 35.1038 25.8745 32.6197V26.0417H35.6643V28.5593H37.1254V24.5791H24.4141V31.7382C24.4141 36.5161 26.8318 39.1847 30.7697 40.6742C31.2145 40.5065 31.6396 40.3225 32.0449 40.1223C32.7252 44.4634 35.4397 47.0467 39.5045 48.5851C43.5569 47.0525 46.267 44.4795 46.9575 40.1624C47.3381 40.3469 47.7359 40.5175 48.151 40.6742C52.0882 39.1847 54.5067 36.5161 54.5067 31.7382V24.5791H48.151ZM53.0456 32.6197C53.0456 35.1031 52.5869 38.1821 48.151 40.1646C47.7692 39.9948 47.3966 39.805 47.0348 39.5959C47.1006 39.0203 47.133 38.4413 47.1317 37.862V29.2701H43.2565V26.0416H53.0456V32.6197Z" fill="#808191"/>
</g>
<defs>
<clipPath id="clip0_14912_30422">
<rect width="42.9578" height="47" fill="white" transform="translate(18 1.58398)"/>
</clipPath>
</defs>
</svg>
