<svg width="78" height="50" viewBox="0 0 78 50" fill="none" xmlns="http://www.w3.org/2000/svg">
<g clip-path="url(#clip0_14912_30436)">
<path fill-rule="evenodd" clip-rule="evenodd" d="M68.6928 17.2791C68.6284 17.6513 68.6033 18.5656 69.1381 18.4491C69.8511 18.296 69.7585 18.2217 70.1487 17.8812C70.4088 17.6528 71.0482 18.2761 70.159 19.2681C69.6739 19.8117 69.5666 19.9782 69.8267 20.2919C70.0973 20.618 70.8012 20.7428 70.8012 21.7471C70.8012 22.6287 71.933 21.9896 72.2069 21.6457C72.4746 21.3098 72.6718 19.7754 73.435 20.8925C73.9761 21.6871 73.0518 23.387 74.1645 23.5535C75.0778 23.691 75.238 24.7323 75.2638 24.9975L75.2687 25.0591C77.6048 22.8166 76.0482 19.9145 75.9902 19.5618C75.8898 18.933 76.2291 19.1628 76.6459 19.5484C74.9238 16.3187 71.5254 14.1201 67.6125 14.1201C66.9373 14.1201 66.2767 14.1876 65.6376 14.3127C67.6539 14.3548 69.0623 15.1609 68.693 17.2791M74.0585 29.6151C73.4303 29.8661 73.1578 29.4634 72.6915 29.919C72.1787 30.4194 73.8176 31.4017 70.8012 30.7136C69.4545 30.4065 69.6376 31.8715 68.1249 31.1027C67.7066 30.1052 67.6942 29.5183 68.0517 28.8938C68.469 28.1626 68.6185 28.4087 68.3647 27.6044C68.2648 27.2899 68.3615 27.1505 68.5273 26.713C68.6923 26.2757 68.4805 25.6697 67.8648 25.7038C67.045 25.7494 67.1399 26.1216 66.6343 26.4609C66.295 26.6876 65.7234 25.5337 66.9224 24.4963C67.5789 23.9301 67.7329 23.7473 67.5162 23.3117C67.2915 22.8576 66.8761 23.0209 66.7082 22.5C66.579 22.0998 66.7796 21.3463 66.2036 21.1667C65.5499 20.9619 65.0292 21.8965 64.6524 22.2623C64.2127 22.6879 63.7327 23.4494 63.4963 22.8425C63.077 21.7622 65.0051 20.1527 63.8168 19.7254C62.698 19.3232 62.3336 18.1483 62.3336 18.1483C59.2623 20.4267 60.7166 22.4303 60.4606 22.7852C60.2047 23.1401 59.7123 22.3537 59.2984 22.7303C58.9791 23.0209 58.6939 24.8834 60.6617 26.0653C61.4076 26.5129 61.6521 26.6274 61.4734 26.8985C61.3301 27.113 60.7334 26.9321 60.7422 27.4237C60.7617 28.4109 62.3455 28.1148 62.6337 29.3506C62.9037 30.506 67.8148 31.1968 67.8148 31.1968C67.8092 31.1914 67.8367 31.1992 67.8767 31.2109L68.11 31.3406C68.1831 31.6453 68.4751 32.3434 69.1581 32.6944C70.2891 33.2762 69.0891 32.9966 69.2434 33.4066C69.3214 33.6152 70.1234 34.1564 71.5493 33.8283C73.5203 33.0051 75.178 31.5824 76.2975 29.7881C75.0783 28.8355 74.9872 29.0325 74.059 29.6151" fill="#FFFFFE"/>
<path fill-rule="evenodd" clip-rule="evenodd" d="M67.8777 31.2105C67.8377 31.1988 67.8102 31.191 67.8158 31.1963C67.8158 31.1963 62.9047 30.5053 62.6346 29.3502C62.3465 28.1144 60.7626 28.4103 60.7431 27.4233C60.7344 26.9317 61.3311 27.1123 61.4744 26.898C61.653 26.627 61.4086 26.5124 60.6627 26.0649C58.6951 24.8827 58.9801 23.0205 59.2996 22.7299C59.7135 22.3536 60.2059 23.1394 60.4618 22.7848C60.7178 22.4299 59.2636 20.4262 62.3348 18.1482C62.3348 18.1482 62.699 19.323 63.818 19.7252C65.0061 20.1525 63.0783 21.762 63.4975 22.8423C63.7339 23.4492 64.2141 22.6878 64.6536 22.2622C65.0304 21.8965 65.5511 20.962 66.2051 21.1663C66.7808 21.3462 66.5804 22.0998 66.7096 22.5001C66.8773 23.0207 67.2927 22.8574 67.5174 23.3113C67.7344 23.7471 67.5801 23.9299 66.9237 24.4959C65.7244 25.5335 66.2962 26.6877 66.6355 26.4605C67.1411 26.1217 67.0463 25.7493 67.866 25.7039C68.4817 25.6693 68.6935 26.2755 68.529 26.713C68.3632 27.1503 68.2665 27.29 68.3662 27.6042C68.6197 28.4086 68.4705 28.1624 68.0529 28.8936C67.6954 29.5176 67.7078 30.1051 68.1261 31.1025C69.6388 31.871 69.4557 30.4066 70.8024 30.7137C73.8186 31.4018 72.1796 30.4195 72.6927 29.9191C73.159 29.4638 73.4313 29.8667 74.0597 29.6154C74.9903 29.0318 75.079 28.8342 76.3046 29.7933C77.2894 28.2199 77.8622 26.3598 77.8622 24.3667C77.8622 22.6332 77.4293 21.0005 76.6683 19.5678C76.2412 19.1704 75.8893 18.9228 75.9914 19.5624C76.0494 19.9151 77.606 22.8169 75.2699 25.0597L75.265 24.9983C75.2392 24.7333 75.079 23.6918 74.1657 23.5545C73.053 23.388 73.9773 21.6881 73.4362 20.8938C72.6732 19.7766 72.4758 21.3111 72.2081 21.6469C71.9342 21.9906 70.8024 22.6297 70.8024 21.7479C70.8024 20.7441 70.098 20.6193 69.8279 20.2932C69.5681 19.9792 69.6749 19.813 70.1602 19.2694C71.0491 18.2773 70.41 17.6538 70.1499 17.8825C69.7599 18.2227 69.8526 18.2968 69.1393 18.4504C68.6046 18.5667 68.6299 17.6524 68.6942 17.2804C69.0635 15.1598 67.6534 14.3542 65.6327 14.3135C60.9211 15.2373 57.3672 19.3864 57.3672 24.3674C57.3672 30.0273 61.9546 34.6152 67.614 34.6152C69.0106 34.6152 70.3425 34.3341 71.5559 33.8279C70.1268 34.1598 69.3226 33.6163 69.2441 33.4076C69.0901 32.9976 70.2898 33.2772 69.1593 32.6954C68.4761 32.3444 68.1843 31.6463 68.1112 31.3416L67.8777 31.2119" fill="#808191"/>
<path fill-rule="evenodd" clip-rule="evenodd" d="M68.4542 31.5249C68.4542 31.5249 61.7184 28.9094 61.4844 22.2814C61.4844 22.2814 62.1352 27.3204 68.4542 31.5244M68.4039 14.1357C68.5965 14.1567 70.0468 14.3498 71.5785 15.3277C72.1479 15.861 72.9545 17.1697 71.7097 19.8522C71.7097 19.8522 73.3045 17.6999 72.9016 16.3934C74.2391 17.7347 75.3635 19.8619 75.4059 23.2325C75.4059 23.2325 76.8923 14.788 68.4039 14.1357ZM75.1366 30.8853C74.623 31.1973 73.7891 31.9322 72.4268 31.5027C72.4268 31.5027 72.9599 31.9122 73.8174 31.8902C72.7237 32.4548 71.5383 32.5898 69.6615 32.1203C69.6615 32.1203 73.461 34.3614 76.1152 30.0724C76.1152 30.0724 75.4564 30.6915 75.1368 30.885" fill="#808191"/>
<path fill-rule="evenodd" clip-rule="evenodd" d="M3.39979 21.8356C3.39979 22.5742 3.54019 22.7789 4.06474 22.7789V22.9617H1.88806V22.7789C2.32778 22.7789 2.58518 22.6497 2.58518 21.8034V17.1195H1.69525C0.870644 17.1195 0.495269 17.3543 0.441888 17.9975H0.259806V16.5942H0.441888C0.5272 16.6688 0.6247 16.7222 0.77485 16.7649C0.913787 16.799 1.10635 16.8185 1.36472 16.8185H4.5793C5.11482 16.8185 5.36174 16.7544 5.5543 16.5942H5.74686V17.9975H5.62986C5.51042 17.4839 5.30811 17.1195 4.33311 17.1195H3.39979V21.8356ZM10.0257 22.0491C10.0257 22.6285 10.1324 22.7787 10.6358 22.7787V22.9615H8.66382V22.7787C9.17984 22.7787 9.29684 22.6602 9.29684 22.1676V20.2927C9.29684 19.7881 8.99702 19.4663 8.53683 19.4663C8.10734 19.4663 7.79631 19.6701 7.43191 20.1849V22.2651C7.43191 22.66 7.59205 22.7787 8.06322 22.7787V22.9615H6.02791V22.7787C6.59584 22.7677 6.70407 22.6602 6.70407 22.0491V17.1083C6.70407 16.6154 6.56343 16.5404 6.02791 16.5404V16.3585L7.24982 16.2293H7.43191V19.8203C7.91404 19.2626 8.26797 19.0598 8.75986 19.0598C9.39361 19.0598 10.0257 19.4776 10.0257 20.3772V22.0491ZM13.8679 20.4638C13.9001 19.6272 13.3316 19.2845 12.849 19.2845C12.2172 19.2845 11.8418 19.7559 11.7984 20.4638H13.8679ZM11.7984 20.6459C11.7782 22.3497 12.7954 22.7787 13.3102 22.7787C13.8367 22.7787 14.1033 22.5966 14.6508 21.9855V22.2651C14.1896 22.854 13.7489 23.0777 13.0859 23.0777C11.8959 23.0777 11.0377 22.2539 11.0377 21.1058C11.0377 19.9607 11.8738 19.06 12.945 19.06C13.8245 19.06 14.6391 19.7674 14.5862 20.6461H11.7987L11.7984 20.6459ZM24.4427 25.2647H24.1541L17.2901 16.8041H17.256V23.634C17.256 24.6192 17.6472 24.9758 18.5308 24.9758V25.2649H15.5746V24.9756C16.3887 24.9756 16.7797 24.7214 16.7797 23.3108V17.6199C16.7797 16.5328 16.4909 15.921 15.3357 15.8186V15.5303H17.8327L23.9162 23.107H23.9499V17.4154C23.9499 16.1411 23.6098 15.8184 22.7611 15.8184V15.5303H25.7007V15.8184C24.7496 15.8184 24.443 16.2094 24.443 17.3472L24.4427 25.2647ZM33.4249 19.2333H35.5143V19.6745H33.4247V23.5489C33.4247 24.3813 33.8493 24.8062 34.5118 24.8062C34.9542 24.8062 35.2772 24.6356 35.633 24.2285L35.8202 24.4488C35.2933 25.1114 34.6824 25.4507 34.0024 25.4507C32.9835 25.4507 32.2693 24.7377 32.2693 23.701V19.6743H31.1315V19.3866C31.9466 18.9788 32.6257 18.2476 33.1363 17.2112H33.4244V19.2331M42.3632 24.1261C42.3632 24.7891 42.5843 24.9758 43.3992 24.9758V25.2649L41.2083 25.3836V24.2794H41.1747C40.5795 25.0609 39.8833 25.4511 39.0675 25.4511C37.8775 25.4511 37.097 24.5512 37.097 23.43V20.3546C37.097 19.7769 36.893 19.556 36.026 19.556V19.267L37.9633 19.0802H38.2521V23.3785C38.2521 24.2282 38.7957 24.7379 39.6113 24.7379C40.1885 24.7379 40.7155 24.4152 41.2083 23.7524V20.5076C41.2083 19.6748 41.0718 19.5734 40.0359 19.556V19.267L42.0746 19.0802H42.3635V24.1259M46.0965 24.1261C46.0965 24.7891 46.3 24.9758 47.0983 24.9758V25.2649H43.9215V24.9756C44.8395 24.9756 44.9416 24.7379 44.9416 23.8207V20.5418C44.9416 19.6582 44.7198 19.556 43.7009 19.556V19.267L45.8077 19.0802H46.0967V20.3885C47.218 19.4208 47.7445 19.0805 48.1525 19.0805C48.4926 19.0805 48.9513 19.2848 49.2575 19.5563L48.7982 20.6264C48.3059 20.3548 47.7779 20.0999 47.3711 20.0999C46.9801 20.0999 46.6398 20.3039 46.0963 20.8306V24.1261M53.8361 21.3064C53.8872 19.9809 52.9863 19.4369 52.2215 19.4369C51.2196 19.4369 50.6244 20.1852 50.5566 21.3064H53.8361ZM50.5569 21.5953C50.5228 24.2965 52.1364 24.9761 52.9529 24.9761C53.7849 24.9761 54.209 24.6867 55.076 23.7183V24.1607C54.3457 25.095 53.6484 25.4509 52.5954 25.4509C50.7092 25.4509 49.3498 24.1434 49.3498 22.3255C49.3498 20.5076 50.6753 19.0802 52.3748 19.0802C53.7678 19.0802 55.0585 20.2015 54.9739 21.5953H50.5569ZM6.31456 27.652C5.95868 26.2784 5.20793 25.68 3.94945 25.68C2.19348 25.68 1.25211 27.0921 1.25211 28.9624C1.25211 31.1493 2.38409 32.5864 4.02452 32.5864C5.16942 32.5864 6.02206 32.0526 6.56927 30.9838L6.7594 31.1617C6.27677 32.319 5.11896 33.044 3.71984 33.044C1.96484 33.044 0.132812 31.8481 0.132812 29.4194C0.132812 27.1052 1.72304 25.4004 3.89802 25.4004C4.81379 25.4004 5.50068 25.7059 5.9326 25.7059C6.12419 25.7059 6.25069 25.6288 6.32674 25.4767H6.53076V27.6517H6.31383M9.68172 28.4914C8.72866 28.4914 8.15511 29.3307 8.15511 30.6272C8.15511 31.7855 8.63847 32.7519 9.68147 32.7519C10.7491 32.7519 11.2078 31.7219 11.2078 30.6272C11.2078 29.4957 10.7255 28.4914 9.68172 28.4914ZM9.68172 33.0064C8.26967 33.0064 7.21448 31.9888 7.21448 30.6274C7.21448 29.2546 8.26992 28.237 9.68172 28.237C11.0935 28.237 12.149 29.2546 12.149 30.6272C12.149 31.9888 11.0935 33.0064 9.68172 33.0064ZM17.3747 31.8876C17.3747 32.4716 17.5019 32.6501 18.1376 32.6501V32.867H15.7343V32.6501C16.3444 32.6501 16.5101 32.5101 16.5101 32.0909V29.7377C16.5101 29.0138 15.988 28.7084 15.5051 28.7084C15.0598 28.7084 14.6657 28.9877 14.2206 29.5854V31.786C14.2206 32.4721 14.3091 32.6505 14.9835 32.6505V32.8675H12.6053V32.6505C13.2024 32.6505 13.355 32.5994 13.355 31.786V29.2546C13.355 28.7081 13.2154 28.5933 12.6053 28.5933V28.3774L14.0036 28.237H14.2206V29.1388C14.7544 28.5295 15.276 28.237 15.8481 28.237C16.5981 28.237 17.3747 28.7717 17.3747 29.852V31.8876ZM21.0973 29.6229C21.0083 28.8729 20.5123 28.4914 19.9777 28.4914C19.5326 28.4914 19.227 28.7332 19.227 29.1015C19.227 30.2464 21.5926 29.9408 21.5926 31.6195C21.5926 32.3702 20.9447 33.0064 20.1686 33.0064C19.6723 33.0064 19.2404 32.6749 19.0237 32.6749C18.8589 32.6749 18.7434 32.8156 18.7307 32.9806H18.515V31.4418H18.7309C18.9228 32.3831 19.6223 32.7522 20.1812 32.7522C20.6273 32.7522 20.9703 32.4207 20.9703 31.9756C20.9703 30.7178 18.5786 31.0601 18.5786 29.5344C18.5786 28.8349 19.2026 28.2372 19.9524 28.2372C20.424 28.2372 20.5637 28.4541 20.8689 28.4541C20.9829 28.4541 21.0717 28.3903 21.1353 28.2372H21.3517V29.6232H21.0975M25.4309 29.9025C25.4687 28.9104 24.7947 28.5046 24.2224 28.5046C23.4716 28.5046 23.0273 29.0638 22.9754 29.9025H25.4309ZM22.9754 30.1194C22.9502 32.1411 24.1588 32.6501 24.7689 32.6501C25.3924 32.6501 25.7105 32.4341 26.3591 31.7092V32.039C25.8119 32.7385 25.2902 33.0067 24.5017 33.0067C23.0904 33.0067 22.0725 32.0273 22.0725 30.6657C22.0725 29.3048 23.0641 28.237 24.3362 28.237C25.379 28.237 26.3464 29.0772 26.2828 30.1192L22.9754 30.1194ZM28.5241 32.0146C28.5241 32.5101 28.6764 32.6501 29.2748 32.6501V32.867H26.8958V32.6501C27.5825 32.6501 27.6588 32.4716 27.6588 31.7855V29.3309C27.6588 28.6696 27.493 28.5933 26.7306 28.5933V28.3774L28.3071 28.237H28.5241V29.2161C29.3633 28.4914 29.7575 28.237 30.0631 28.237C30.3176 28.237 30.6603 28.39 30.8899 28.5933L30.5462 29.3936C30.177 29.1912 29.7828 29.0001 29.4774 29.0001C29.1849 29.0001 28.9307 29.1527 28.5243 29.5469V32.0148M33.8912 31.7721L34.7687 29.4954C34.9856 28.9104 34.9856 28.6448 34.3239 28.5936V28.3774H35.9775V28.5933C35.4558 28.6445 35.3291 28.7583 35.1122 29.2412L33.6618 32.9681H33.4466L32.0085 29.4321C31.7033 28.6955 31.5885 28.6184 31.0547 28.5936V28.3774H33.2297V28.5933C32.797 28.6318 32.6832 28.8729 32.8865 29.3684L33.8907 31.7718M44.9548 31.8876C44.9548 32.4716 45.0827 32.6501 45.7182 32.6501V32.867H43.3148V32.6501C43.9254 32.6501 44.0904 32.5101 44.0904 32.0909V29.7377C44.0904 29.0138 43.5681 28.7084 43.0852 28.7084C42.6399 28.7084 42.2467 28.9877 41.8007 29.5854V31.786C41.8007 32.4721 41.8901 32.6505 42.5646 32.6505V32.8675H40.1856V32.6505C40.7837 32.6505 40.9363 32.5994 40.9363 31.786V29.2546C40.9363 28.7081 40.7954 28.5933 40.1856 28.5933V28.3774L41.5847 28.237H41.8007V29.1388C42.3352 28.5295 42.8566 28.237 43.4284 28.237C44.1799 28.237 44.9548 28.7717 44.9548 29.852V31.8876ZM49.9609 29.8262H49.744C49.5524 29.0135 48.981 28.4914 48.2303 28.4914C47.3406 28.4914 46.7171 29.2544 46.7171 30.3603C46.7171 31.5941 47.4927 32.6252 48.4087 32.6252C48.9557 32.6252 49.617 32.3327 50.0872 31.6836V32.0146C49.6046 32.6752 48.9172 33.0067 48.1038 33.0067C46.7675 33.0067 45.8393 32.0775 45.8393 30.7293C45.8393 29.3433 46.8826 28.237 48.1667 28.237C48.8414 28.237 49.2099 28.4914 49.439 28.4914C49.5526 28.4914 49.6682 28.4027 49.7442 28.237H49.9612V29.8262M53.1913 31.823L53.9806 29.4445C54.1585 28.9107 54.1205 28.6182 53.6247 28.5933V28.3774H55.2145V28.5933C54.7306 28.5933 54.4386 28.8987 54.1841 29.6488L52.3906 34.9523C52.034 35.995 51.449 36.5927 50.9018 36.5927C50.7117 36.5927 50.5718 36.5425 50.3424 36.4026L50.6354 35.6267C50.8128 35.703 50.914 35.7281 51.0673 35.7281C51.6133 35.7281 51.9326 35.41 52.2119 34.6215L52.7977 32.9933L51.1821 29.267C50.953 28.7454 50.7872 28.606 50.2656 28.5933V28.3774H52.4277V28.5933C52.0845 28.6445 51.9446 28.8987 52.1103 29.2797L53.1908 31.823M29.1515 24.0413C28.9136 24.5507 28.2679 24.8062 27.9115 24.8062C27.4187 24.8062 26.9938 24.3131 26.9938 23.7013C26.9938 22.4776 28.0127 22.4959 29.1517 22.0028L29.1515 24.0413ZM30.3044 23.9543L30.3069 21.2891C30.3069 19.6584 29.1349 19.0802 28.1314 19.0802C27.0443 19.0802 26.1612 19.8115 25.906 20.9327L26.2124 21.0173C26.4676 20.151 27.1293 19.7269 27.8094 19.7269C28.6584 19.7269 29.1515 20.3382 29.1515 21.188V21.6284C28.1667 22.2073 25.8211 22.1388 25.8211 23.8546C25.8211 24.7382 26.6026 25.4511 27.5371 25.4511C28.1667 25.4511 28.6277 25.203 29.2229 24.5576L29.2263 24.5551V25.2791H31.3372V24.9866C30.4772 24.9866 30.3044 24.745 30.3044 23.9543ZM38.3999 31.9456C38.2244 32.3234 37.7451 32.5126 37.4804 32.5126C37.1153 32.5126 36.8004 32.1477 36.8004 31.6936C36.8004 30.7868 37.556 30.8002 38.4001 30.4344L38.3999 31.9456ZM39.2544 31.8803L39.2569 29.9047C39.2569 28.6962 38.3874 28.2674 37.6437 28.2674C36.8381 28.2674 36.1832 28.8093 35.994 29.641L36.2217 29.7038C36.4101 29.0613 36.901 28.7464 37.4051 28.7464C38.0347 28.7464 38.3996 29.2003 38.3996 29.8301V30.1567C37.6696 30.5857 35.9309 30.5353 35.9309 31.8074C35.9309 32.4624 36.5105 32.9908 37.2033 32.9908C37.6696 32.9908 38.0118 32.8063 38.4532 32.3278L38.4557 32.3264V32.8626H40.0193V32.6452C39.3822 32.6452 39.254 32.4672 39.254 31.8803H39.2544Z" fill="#FCFCFD"/>
</g>
<defs>
<clipPath id="clip0_14912_30436">
<rect width="78" height="22.9125" fill="white" transform="translate(0 13.9121)"/>
</clipPath>
</defs>
</svg>
