<svg width="78" height="50" viewBox="0 0 78 50" fill="none" xmlns="http://www.w3.org/2000/svg">
<g clip-path="url(#clip0_14912_30443)">
<path d="M31.5254 6.89782C32.1293 6.67042 33.6143 6.33391 35.6784 7.0416C37.9784 6.86468 38.6861 6.51083 40.7502 6.15699C42.8143 5.80314 46.1169 5.86212 48.5938 7.57237C51.0707 9.28263 53.4297 9.3416 53.9015 14.3544C54.3733 19.3672 53.4887 21.1365 52.9579 22.257C52.4271 23.3775 46.1169 25.0288 44.9963 25.4416C43.8758 25.8544 39.3938 26.798 38.2733 26.5031C37.1528 26.2083 29.9579 24.9698 28.9553 24.2031C27.9528 23.4365 25.004 17.1262 25.2399 16.0647C25.4758 15.0031 26.9502 10.0493 28.0707 9.10571C29.1912 8.16212 30.498 7.28493 31.5254 6.89782Z" fill="white"/>
<path d="M38.3625 2.2411C37.7048 2.2562 37.0119 2.47393 36.5127 2.90421C35.6254 3.6691 34.7393 4.46384 34.7699 5.50427C34.8006 6.54469 35.3807 7.12724 35.3807 7.12724C35.3807 7.12724 35.7785 7.43202 35.3807 7.73798C34.9829 8.04406 30.2716 11.0435 30.5163 17.2245C30.5163 17.2245 30.6389 18.8331 30.4552 20.5466C30.3234 21.7777 30.756 23.2702 31.0115 24.0171C31.0179 24.0243 31.1369 24.3314 30.8675 24.1523C29.5903 23.3542 28.5475 22.1545 27.674 20.6645C26.8726 19.2087 26.4154 17.5265 26.4154 15.7369C26.4154 11.9355 28.4794 8.62448 31.5196 6.92012C27.3485 8.07024 24.2734 11.9767 24.2734 16.6159C24.2734 16.9705 24.2908 17.322 24.3258 17.6673C24.3598 18.4672 24.448 19.7436 24.6726 20.2543C25.0092 21.0194 24.9779 22.6706 24.9779 22.9461C24.9779 23.2213 25.0698 32.2777 30.4247 32.2471C30.4247 32.2471 32.9769 32.3106 32.9942 31.2699C33.0095 30.3519 32.7476 30.2555 32.5056 29.7234C32.2761 29.2187 32.1083 29.1878 32.2307 27.5662C32.2307 27.5662 32.237 27.238 32.3594 27.2302C32.4818 27.2224 33.9741 31.6667 35.9019 33.9923C37.8295 36.3178 39.7576 36.5618 41.2263 36.5618C41.2263 36.5618 43.9792 36.5624 43.9792 35.1855C43.9792 33.8084 42.7249 34.3585 42.7249 29.9831C42.7249 25.6074 44.8358 25.8234 45.0808 26.8943C45.3256 27.9652 45.5398 28.8213 45.1113 31.6976C44.6829 34.5739 45.8465 34.9107 46.9175 34.9107C47.9884 34.9107 53.6188 35.0929 54.5979 18.9981C54.5979 18.9981 54.7195 16.398 53.8629 14.1643C53.8629 14.1643 54.2303 18.4482 51.5682 20.7431C48.9061 23.0381 47.3757 22.7019 47.3757 22.7019C47.3757 22.7019 46.0918 22.609 45.5718 23.2515C45.0516 23.8941 45.142 24.3538 44.0407 24.0173C42.9391 23.6806 42.9345 23.4062 41.9248 23.5286C40.9152 23.651 40.3072 23.7723 39.9093 22.9462C39.5114 22.1201 39.0667 21.5875 38.2407 21.4345C37.4145 21.2816 33.7844 19.5546 33.8824 14.6855C33.9741 10.1569 36.0244 8.59535 36.0244 8.59535C36.0244 8.59535 36.3619 8.22865 36.6984 8.38163C37.035 8.53461 37.5849 8.56598 38.2275 7.98461C38.8701 7.40324 39.2985 6.94277 40.4612 6.54493C40.4612 6.54493 41.2575 6.42214 41.2268 5.62658C41.1961 4.83102 40.5522 3.08856 39.7259 2.56841C39.3644 2.34065 38.874 2.22919 38.3625 2.2411ZM41.1393 24.1412C41.324 24.1344 41.5907 24.2567 41.8722 24.3638C42.2817 24.5194 43.2182 24.4459 43.5847 24.4204C43.9509 24.3951 44.1965 24.5505 43.9031 24.8981C43.4987 25.3774 43.015 25.3598 42.4045 25.402C41.794 25.4442 41.1393 24.8457 41.1393 24.8457C41.1046 24.7868 40.8074 24.4701 40.9451 24.2458C40.9882 24.1759 41.0553 24.1444 41.1393 24.1412ZM38.0129 14.3785C38.7202 13.5109 39.1145 13.3993 39.7264 13.3993C40.3384 13.3993 41.1875 13.7917 41.4399 14.7457C41.7152 15.786 41.8552 15.9454 40.8633 17.1065C40.1518 17.9396 38.8696 19.7638 37.5844 18.6011C36.2994 17.4383 36.7766 15.8952 38.0129 14.3785ZM49.5063 15.9985C49.0919 14.9588 48.7491 14.734 48.1654 14.5505C47.5816 14.3668 46.6541 14.4865 46.127 15.3208C45.5522 16.2305 45.3532 16.3165 45.951 17.7217C46.3799 18.7299 47.0735 20.8789 48.6482 20.1553C50.223 19.4315 50.2306 17.8163 49.5063 15.9985ZM42.7275 22.8273C43.0548 22.3147 43.818 22.1406 44.2604 22.1269C44.8393 22.1091 44.8311 21.6097 44.8311 21.6097C44.8311 21.6097 44.872 21.0999 42.7814 20.8967C40.6931 20.6936 40.636 21.2325 40.636 21.2325C40.636 21.2325 40.5374 21.7221 41.1034 21.8444C41.5346 21.9377 42.2492 22.2529 42.4814 22.8121C42.5271 22.9477 42.6562 22.9504 42.7275 22.8273ZM52.5888 10.276C52.2374 10.3908 51.6866 10.3601 51.1123 9.71114C50.538 9.06219 50.1631 8.55855 49.0515 8.03439C49.0515 8.03439 48.2745 7.82467 48.393 7.03736C48.5115 6.25006 49.3433 4.58792 50.222 4.16236C51.1008 3.73692 52.5808 3.99429 53.378 4.85284C54.1751 5.71139 54.9688 6.60036 54.8231 7.63088C54.6776 8.6614 54.0353 9.17483 54.0353 9.17483L54.0465 9.1766C53.7407 9.57444 52.5888 10.276 52.5888 10.276Z" fill="#242731"/>
<path d="M25.2586 39.6146H26.8165C26.8165 39.6146 27.2201 39.5415 27.3791 39.951C27.5663 40.4337 28.3372 43.5268 28.3372 43.5268L29.4416 41.8926C29.4416 41.8926 28.9911 39.6039 29.7808 39.6146C30.7328 39.6274 31.2629 39.6146 31.2629 39.6146C31.2629 39.6146 31.6423 39.5783 31.8796 40.2107C32.159 40.9555 32.8391 43.5771 32.8391 43.5771L34.411 39.9944C34.411 39.9944 34.6273 39.6148 34.9736 39.6148C35.3414 39.6148 35.5742 39.8726 35.4928 40.1677C35.369 40.6171 32.7667 47.4591 32.7667 47.4591C32.7667 47.4591 32.5935 47.87 32.2258 47.87C31.8579 47.87 31.7064 47.6537 31.5117 47.156C31.317 46.6584 30.0837 43.3264 30.0837 43.3264L28.2229 47.5455C28.2229 47.5455 28.0823 47.8699 27.7902 47.8699C27.444 47.8699 27.3141 47.7185 27.1411 47.3939C26.968 47.0695 24.7827 40.8164 24.7827 40.8164C24.7827 40.8164 24.3498 39.6146 25.2586 39.6146ZM36.7637 39.6146H38.3216C38.3216 39.6146 38.7252 39.5415 38.8842 39.951C39.0714 40.4337 39.8424 43.5268 39.8424 43.5268L40.9465 41.8926C40.9465 41.8926 40.4962 39.6039 41.2857 39.6146C42.2376 39.6274 42.7678 39.6146 42.7678 39.6146C42.7678 39.6146 43.1472 39.5783 43.3844 40.2107C43.6639 40.9555 44.344 43.5771 44.344 43.5771L45.9158 39.9944C45.9158 39.9944 46.1321 39.6148 46.4784 39.6148C46.8463 39.6148 47.0792 39.8726 46.9977 40.1677C46.8739 40.6171 44.2715 47.4591 44.2715 47.4591C44.2715 47.4591 44.0985 47.87 43.7306 47.87C43.3627 47.87 43.2115 47.6537 43.0165 47.156C42.8218 46.6584 41.5886 43.3264 41.5886 43.3264L39.7279 47.5455C39.7279 47.5455 39.5873 47.8699 39.2951 47.8699C38.9489 47.8699 38.8191 47.7185 38.6461 47.3939C38.4729 47.0695 36.2877 40.8164 36.2877 40.8164C36.2877 40.8164 35.8549 39.6146 36.7637 39.6146ZM48.2775 47.8699C48.2775 47.8699 47.742 47.9153 47.742 47.0737C47.742 46.2324 47.742 40.1278 47.742 40.1278C47.742 40.1278 47.742 39.6077 48.5069 39.6077C49.2718 39.6077 53.7392 39.6077 53.7392 39.6077C53.7392 39.6077 54.3732 39.577 54.3732 40.1892C54.3732 40.8013 53.7851 40.74 53.7851 40.74H50.6641C50.6641 40.74 50.2969 40.74 50.2969 41.0917C50.2969 41.4435 50.2969 42.8051 50.2969 42.8051H52.6989C52.6989 42.8051 53.3481 42.8051 53.3481 43.3101C53.3481 43.8148 52.8059 43.8456 52.8059 43.8456H50.2817V47.1855C50.2817 47.1855 50.3188 47.87 49.8754 47.87C49.5692 47.8699 48.2775 47.8541 48.2775 47.8699Z" fill="#242731"/>
</g>
<defs>
<clipPath id="clip0_14912_30443">
<rect width="31.0205" height="46" fill="white" transform="translate(24 1.96973)"/>
</clipPath>
</defs>
</svg>
