<svg width="78" height="50" viewBox="0 0 78 50" fill="none" xmlns="http://www.w3.org/2000/svg">
<path d="M18.3281 32.25H19.9376C19.9376 31.375 20.6805 30.625 21.6091 30.5625V28.9375C19.8138 29.0625 18.3281 30.5 18.3281 32.25Z" fill="#E6E8EC"/>
<path d="M15.7266 32.25H17.1504C17.1504 29.8125 19.1313 27.8125 21.6075 27.8125V26.4375C18.3266 26.4375 15.7266 29.0625 15.7266 32.25Z" fill="#E6E8EC"/>
<path d="M13.125 32.25H14.3012C14.3012 28.25 17.5821 25 21.606 25V23.875C16.9012 23.875 13.125 27.625 13.125 32.25Z" fill="#E6E8EC"/>
<path d="M10.5234 32.25H11.452C11.452 26.75 15.9711 22.1875 21.5425 22.1875V21.25C15.4139 21.25 10.5234 26.1875 10.5234 32.25Z" fill="#E6E8EC"/>
<path d="M7.92969 32.25H8.67254C8.67254 25.1875 14.4916 19.4375 21.5487 19.375V18.625C14.0583 18.625 7.92969 24.75 7.92969 32.25Z" fill="#E6E8EC"/>
<path d="M5.32812 32.25H5.88527C5.88527 25.75 9.84717 20.1875 15.4186 17.8125H14.2424C8.9186 20.5 5.32812 25.9375 5.32812 32.25Z" fill="#E6E8EC"/>
<path d="M2.66406 32.25H2.97359C2.97359 26.375 5.6974 21.1875 9.90692 17.8125H9.41168C5.32597 21.25 2.66406 26.4375 2.66406 32.25Z" fill="#E6E8EC"/>
<path d="M31.5735 25.9999C31.5735 27.7499 31.3878 29.9999 29.5926 31.3124C27.6116 32.8124 22.9688 32.9374 20.5545 31.4999C18.0164 30.0624 18.1402 26.6249 18.1402 25.9999V19.9374L16.4688 17.7499H23.3402L21.6687 19.9374V25.9999C21.6687 26.5624 21.6068 28.4374 22.9068 29.5624C24.1449 30.6249 25.6926 30.4999 26.9307 29.4999C28.0449 28.6249 27.983 26.6874 27.983 25.9999V18.9999C27.983 18.4374 28.4783 17.9374 28.9735 17.8749C29.5926 17.8124 30.0259 17.8124 30.5211 17.8749C31.0783 17.9374 31.5116 18.4999 31.5116 18.9999L31.5735 25.9999ZM54.3545 30.3749C54.9116 30.3749 54.664 31.5624 54.2926 31.8124C52.8068 32.4374 49.4021 32.6249 47.8545 32.1249C45.0068 31.2499 42.283 29.3749 41.8497 25.9374C41.664 25.9999 41.3545 25.9999 41.1687 25.9999C40.6735 25.9999 39.4354 26.0624 38.6926 26.0624C37.8259 26.1249 36.3402 26.5624 36.3402 27.9374V30.9999C36.3402 31.6874 35.8449 32.1874 35.1021 32.1874H30.9545L32.6259 30.1249V26.9374V19.4374C32.6259 18.2499 33.4926 17.8124 34.1735 17.8124C36.9592 17.8124 40.2402 17.8124 41.2307 17.8124C41.9116 17.8124 42.3449 17.9374 42.4687 18.3749C42.5307 18.6874 42.5307 18.8749 42.4687 19.1249C42.4068 19.3749 41.8497 19.4999 41.3545 19.4999C40.7354 19.5624 39.9926 19.5624 39.1878 19.6249C37.8259 19.6874 36.4021 19.9374 36.4021 21.8749C36.4021 23.9374 38.4449 24.3124 39.0021 24.3124C39.5592 24.3124 40.4878 24.3749 41.2307 24.3749C41.4164 24.3749 41.6021 24.4374 41.8497 24.4374C42.0354 20.9374 44.2021 18.9999 46.6783 17.9374C48.164 17.3124 52.4973 17.1874 54.0449 18.1874C54.1068 18.2499 54.2307 18.3124 54.2926 18.3749C54.3545 18.0624 54.6021 17.6874 55.0973 17.6874C55.9021 17.6874 56.1497 17.6249 56.7687 17.7499C57.3878 17.8749 57.7592 18.7499 57.8211 19.5624C57.9449 20.9999 58.6259 24.4374 58.9354 25.4999C59.4926 27.4374 60.2973 27.1874 60.9164 24.5624C61.2259 23.0624 61.6592 20.9999 61.9068 19.3749C62.0926 18.1874 62.5878 17.6249 63.5164 17.6249C64.5068 17.6249 65.5592 17.6249 65.9926 17.6249C66.8592 17.6249 67.2307 17.9374 67.5402 19.3749C67.8497 20.8124 68.2211 23.1874 68.5926 24.8124C69.2735 27.4999 70.0783 27.2499 70.5116 25.4374C70.883 23.9374 71.5021 20.9999 71.6878 19.5624C71.8116 18.8124 72.0592 17.9374 72.6783 17.8749C73.3592 17.7499 73.6068 17.8124 74.3497 17.8124C75.5259 17.8124 75.2164 19.3124 74.9068 20.6249C74.6592 21.8749 73.1735 27.6874 72.6783 29.6874C72.3687 31.3749 72.1211 32.2499 70.6354 32.3124C69.8926 32.3124 69.0259 32.3124 68.4687 32.3124C67.0449 32.2499 66.983 30.8124 66.6735 29.2499C66.4878 28.1874 65.9926 25.8124 65.7449 24.6249C65.2497 22.8124 64.2592 22.8749 63.8259 24.6874C63.5164 25.7499 62.9592 27.9999 62.7735 29.2499C62.5259 30.9374 62.2164 32.3124 60.9164 32.3124C59.9259 32.3124 59.6783 32.3124 58.8735 32.3124C57.3878 32.2499 57.1402 31.2499 56.6449 29.5624C56.3354 28.1249 54.9735 22.1249 54.6021 20.7499C54.5402 20.4374 54.4164 20.0624 54.4164 19.7499C54.3545 19.7499 54.2926 19.7499 54.2307 19.7499C49.8354 19.0624 48.1021 19.7499 46.4307 22.1249C45.2545 23.8124 45.7497 26.7499 46.3068 27.6249C48.1021 30.8749 51.1354 30.5624 54.3545 30.3749Z" fill="#FCFCFD"/>
</svg>
