<svg width="78" height="50" viewBox="0 0 78 50" fill="none" xmlns="http://www.w3.org/2000/svg">
<g clip-path="url(#clip0_14912_30211)">
<path d="M1.54581 19.6875C1.48391 19.5 1.3601 19.4375 1.3601 19.3125C1.17438 18.8125 1.11248 18.3125 1.23629 17.8125C1.3601 17.0625 1.73153 16.375 2.16486 15.625C2.16486 15.9375 2.10295 16.25 2.10295 16.5C2.10295 16.8125 2.10295 17.125 2.04105 17.375C1.97915 18 1.97915 18.625 1.73153 19.25C1.66962 19.4375 1.66962 19.5625 1.54581 19.6875Z" fill="#FCFCFD"/>
<path d="M25.6273 26.75C25.6892 27.125 25.6892 27.5 25.7511 27.8125C25.7511 27.875 25.6892 27.875 25.6892 27.9375C25.6273 27.875 25.5654 27.875 25.5654 27.8125C25.5035 27.6875 25.4416 27.5 25.3797 27.375C25.2559 27.1875 25.1321 27.0625 24.8844 27C24.4511 26.875 24.0178 26.9375 23.5225 26.9375C23.3987 26.9375 23.3368 27 23.3368 27.125C23.3368 27.1875 23.3368 27.3125 23.3368 27.375C23.3368 27.6875 23.3368 28 23.3368 28.3125C23.3368 28.5625 23.3368 28.5625 23.5844 28.625C24.0178 28.6875 24.3892 28.75 24.8225 28.875C24.9464 28.875 25.0083 28.9375 25.194 28.9375C25.0083 29.1875 24.8225 29.375 24.5749 29.625C24.2035 29.4375 23.7702 29.3125 23.3987 29.25C23.3987 29.3125 23.3368 29.375 23.3368 29.4375C23.3368 30.0625 23.3368 30.625 23.3987 31.25C23.3987 31.5625 23.5225 31.625 23.8321 31.6875C23.9559 31.6875 24.0797 31.6875 24.2035 31.8125C24.1416 31.8125 24.0797 31.875 24.0797 31.875C23.3368 31.875 22.594 31.875 21.913 31.875C21.913 31.875 21.913 31.875 21.8511 31.8125C21.8511 31.6875 21.9749 31.6875 22.0987 31.625C22.3464 31.625 22.4702 31.5 22.5321 31.25C22.594 30.5625 22.594 29.8125 22.594 29.125C22.4702 29.0625 22.3464 29.0625 22.2844 29.0625C21.5416 29.0625 20.8606 29 20.1178 29.1875C19.3749 29.375 18.8178 29.8125 18.5083 30.5C18.2606 31 18.013 31.5625 17.7654 32.0625C17.5178 32.5 17.2702 32.9375 16.8987 33.3125C16.4035 33.875 15.7225 34.125 14.9797 34.25C14.6083 34.3125 14.2368 34.3125 13.8654 34.25C13.8035 34.25 13.8035 34.25 13.6797 34.1875C13.8035 34.125 13.8654 34.125 13.9273 34.0625C14.3606 33.9375 14.8559 33.75 15.2273 33.5C15.7844 33.1875 16.1559 32.6875 16.5273 32.0625C17.1464 31 17.8892 30.0625 18.9416 29.375C19.6844 28.875 20.4892 28.625 21.3559 28.5C21.6654 28.4375 21.9749 28.4375 22.3464 28.4375C22.594 28.4375 22.594 28.375 22.594 28.1875C22.594 27.875 22.594 27.5625 22.5321 27.25C22.4702 26.9375 22.4083 26.875 22.0987 26.875C22.0368 26.875 22.0368 26.875 21.9749 26.875C21.913 26.875 21.913 26.8125 21.8511 26.8125C21.913 26.75 21.913 26.75 21.9749 26.6875C22.0368 26.6875 22.0368 26.6875 22.0987 26.6875C23.213 26.6875 24.3273 26.6875 25.3797 26.6875C25.4416 26.75 25.5035 26.75 25.6273 26.75Z" fill="#FCFCFD"/>
<path d="M32.1875 24.3125C32.2494 24.25 32.2494 24.1875 32.3113 24.125C32.3732 24.125 32.3732 24.125 32.4351 24.125C32.8065 24.0625 32.9304 23.9375 32.9304 23.5625C32.9304 22.3125 32.9304 21.0625 32.9304 19.875C32.9304 19.5 32.8065 19.375 32.4351 19.375C32.3113 19.375 32.2494 19.375 32.2494 19.25C32.2494 19.125 32.3732 19.125 32.4351 19.125C32.497 19.125 32.6208 19.125 32.6827 19.125C33.178 19.125 33.7351 19.125 34.2304 19.0625C34.8494 19.0625 35.4065 19.125 35.9637 19.375C36.7685 19.8125 37.2018 20.5 37.3256 21.375C37.3875 21.75 37.3256 22.125 37.2637 22.5C37.0161 23.4375 36.4589 24 35.5304 24.1875C35.1589 24.25 34.7875 24.3125 34.3542 24.25C33.6732 24.1875 32.9923 24.25 32.3113 24.25C32.3732 24.3125 32.3113 24.3125 32.1875 24.3125ZM33.797 21.5C33.797 22.125 33.797 22.6875 33.797 23.3125C33.797 23.75 34.0446 24 34.478 24.0625C34.6018 24.0625 34.7875 24.0625 34.9113 24.0625C35.5923 24.0625 36.0875 23.6875 36.2732 23C36.397 22.4375 36.397 21.875 36.3351 21.3125C36.2732 21 36.2113 20.75 36.1494 20.4375C35.9637 19.9375 35.5923 19.5625 35.097 19.4375C34.7256 19.3125 34.3542 19.3125 33.9827 19.375C33.8589 19.375 33.797 19.4375 33.797 19.5625C33.797 19.625 33.797 19.75 33.797 19.8125C33.797 20.375 33.797 20.9375 33.797 21.5Z" fill="#FCFCFD"/>
<path d="M45.9297 26.6875C46.5487 26.6875 47.2297 26.6875 47.8487 26.6875C48.2202 26.6875 48.5916 26.6875 48.963 26.75C50.3249 27 51.1297 28.0625 51.1297 29.4375C51.1297 30.0625 51.0059 30.625 50.5725 31.0625C50.3249 31.375 50.0154 31.5625 49.644 31.6875C49.0868 31.9375 48.4678 31.9375 47.8487 31.875C47.3535 31.875 46.7964 31.875 46.3011 31.875C46.2392 31.875 46.1773 31.875 46.1154 31.875C46.0535 31.875 45.9916 31.8125 45.9916 31.8125C46.0535 31.75 46.0535 31.75 46.1154 31.6875C46.1773 31.6875 46.2392 31.6875 46.3011 31.625C46.4868 31.5625 46.6106 31.5 46.6106 31.3125C46.6106 31.1875 46.6725 31.125 46.6725 31C46.6725 29.8125 46.6725 28.6875 46.6725 27.5C46.6725 27.4375 46.6725 27.375 46.6725 27.3125C46.6106 27 46.5487 26.875 46.1773 26.8125C46.0535 26.875 45.9297 26.9375 45.9297 26.6875ZM47.4773 29.125C47.4773 29.75 47.4773 30.375 47.4773 31C47.4773 31.4375 47.7249 31.625 48.1583 31.6875C48.2821 31.6875 48.4678 31.6875 48.5916 31.6875C49.3345 31.6875 49.8297 31.3125 50.0154 30.5625C50.1392 30.0625 50.1392 29.5625 50.0773 29.125C50.0154 28.75 50.0154 28.375 49.8297 28C49.644 27.625 49.3964 27.375 49.0249 27.1875C48.6535 27 48.2202 27 47.8487 27C47.5392 27 47.4773 27 47.4773 27.375C47.4773 27.875 47.4773 28.5 47.4773 29.125Z" fill="#FCFCFD"/>
<path d="M64.0688 19C65.1212 19 65.9879 19.4375 66.545 20.375C67.1022 21.3125 66.9164 22.6875 66.2355 23.5C65.1831 24.625 63.2022 24.8125 61.9641 23.625C61.5307 23.125 61.2831 22.5625 61.2212 21.875C61.1593 20.375 62.2736 19.25 63.6974 19C63.8212 19 63.945 19 64.0688 19ZM65.926 21.6875C65.926 21.0625 65.8641 20.5 65.5545 20C64.9355 18.9375 63.326 18.9375 62.7069 20C62.4593 20.375 62.3355 20.875 62.2736 21.3125C62.2117 21.9375 62.2736 22.5625 62.5212 23.125C62.8307 23.8125 63.3879 24.125 64.1307 24.125C64.8736 24.125 65.3688 23.75 65.6784 23.125C65.8641 22.6875 65.926 22.1875 65.926 21.6875Z" fill="#FCFCFD"/>
<path d="M68.7733 32.0004C67.9685 32.0004 67.2876 31.7504 66.7304 31.2504C66.2352 30.8129 65.9876 30.1879 65.9257 29.5004C65.8638 28.8129 66.0495 28.2504 66.4828 27.6879C66.9781 27.0629 67.659 26.6879 68.4638 26.5629C69.2066 26.5004 69.8876 26.6254 70.5066 27.0629C71.8685 28.0004 72.0542 29.9379 70.8781 31.1254C70.3209 31.7504 69.578 32.0004 68.7733 32.0004ZM68.959 31.7504C69.3923 31.7504 69.8876 31.5629 70.1971 31.0004C70.3209 30.7504 70.4447 30.4379 70.5066 30.1254C70.6304 29.6879 70.6304 29.2504 70.5685 28.8129C70.5066 28.3129 70.3828 27.8754 70.0733 27.4379C69.4542 26.5629 68.0923 26.5004 67.4733 27.3754C67.2876 27.6254 67.1638 27.9379 67.04 28.1879C66.7923 28.8754 66.8542 29.5629 66.978 30.2504C67.2876 31.1879 67.9685 31.7504 68.959 31.7504Z" fill="#FCFCFD"/>
<path d="M29.2811 32.0004C28.4763 32.0004 27.7954 31.7504 27.2382 31.2504C26.743 30.8129 26.4954 30.1879 26.4335 29.5629C26.3716 28.8754 26.5573 28.2504 26.9906 27.6879C27.4859 27.0629 28.1668 26.6879 28.9716 26.6254C29.7144 26.5629 30.3954 26.6879 31.0144 27.1254C32.3144 28.0629 32.5001 30.0004 31.3859 31.1879C30.8287 31.7504 30.1478 32.0004 29.2811 32.0004ZM27.424 29.3129C27.424 29.8129 27.4859 30.3129 27.7335 30.7504C28.043 31.3754 28.5382 31.7504 29.2811 31.7504C29.9621 31.7504 30.5192 31.5004 30.8287 30.8129C31.0144 30.3754 31.1382 29.9379 31.1382 29.5004C31.2001 28.9379 31.1382 28.3754 30.8906 27.8129C30.5811 27.1879 30.0859 26.8129 29.343 26.7504C28.6001 26.7504 28.1049 27.0629 27.7954 27.7504C27.5478 28.2504 27.4859 28.8129 27.424 29.3129Z" fill="#FCFCFD"/>
<path d="M40.2405 27.6875C40.2405 27.75 40.2405 27.875 40.2405 27.9375C40.2405 28.75 40.2405 29.625 40.2405 30.4375C40.2405 30.6875 40.2405 30.9375 40.3024 31.1875C40.3643 31.5 40.4881 31.625 40.7976 31.6875C40.8595 31.6875 41.0452 31.6875 41.0452 31.8125C41.0452 31.9375 40.8595 31.875 40.7976 31.875C40.4262 31.875 39.9929 31.875 39.6214 31.875C39.4976 31.875 39.3738 31.9375 39.3738 31.8125C39.3119 31.625 39.4976 31.6875 39.6214 31.6875C39.869 31.625 39.9929 31.5 40.0548 31.25C40.0548 31 40.1167 30.75 40.1167 30.5C40.1167 29.5625 40.1167 28.5625 40.1167 27.625C40.1167 27.25 39.931 27 39.5595 26.9375C39.4976 26.9375 39.4357 26.9375 39.3738 26.875C39.3119 26.875 39.3119 26.8125 39.25 26.6875C39.7452 26.6875 40.1786 26.6875 40.55 26.6875C40.6119 26.6875 40.6738 26.75 40.6738 26.75C41.2309 27.4375 41.85 28.1875 42.4071 28.875C42.8405 29.4375 43.2738 29.9375 43.7071 30.5C43.7071 30.5625 43.769 30.5625 43.831 30.625C43.831 30.5 43.831 30.4375 43.831 30.375C43.831 29.5625 43.831 28.6875 43.831 27.875C43.831 27.6875 43.8309 27.5 43.769 27.3125C43.7071 27 43.6452 26.875 43.2738 26.8125C43.0881 26.75 43.0881 26.75 43.0881 26.625C43.6452 26.625 44.2024 26.625 44.7595 26.625C44.8214 26.75 44.7595 26.8125 44.6976 26.8125C44.2643 26.875 44.2024 27.125 44.2024 27.4375C44.2024 27.6875 44.1405 28 44.1405 28.25C44.1405 29.375 44.1405 30.4375 44.1405 31.5625C44.1405 31.6875 44.1405 31.75 44.1405 31.875C43.9548 32 43.8309 31.875 43.769 31.75C43.5214 31.4375 43.2738 31.125 43.0262 30.8125C42.2833 29.875 41.5405 29 40.7976 28.0625C40.55 28 40.4262 27.8125 40.2405 27.6875C40.3024 27.6875 40.3024 27.6875 40.2405 27.6875Z" fill="#FCFCFD"/>
<path d="M16.0966 23.0625C16.0966 22.9375 16.0966 22.8125 16.0966 22.75C16.0966 22 16.0966 21.25 16.0966 20.5C16.0966 20.25 16.0966 20 16.0347 19.75C15.9728 19.5 15.9109 19.3125 15.6013 19.25H15.5394C15.4775 19.25 15.3537 19.1875 15.4156 19.0625C15.4156 19 15.5394 19 15.6013 19C16.0347 19 16.468 19 16.9013 19C16.9632 19 17.0251 19.0625 17.0871 19.0625C17.0251 19.125 17.0251 19.1875 16.9632 19.1875C16.5918 19.25 16.468 19.4375 16.468 19.75C16.468 20.1875 16.4061 20.5625 16.4061 21C16.4061 22 16.4061 22.9375 16.4061 23.9375C16.4061 24.0625 16.4061 24.125 16.4061 24.25C16.2204 24.375 16.0966 24.25 15.9728 24.125C15.7251 23.8125 15.4775 23.5 15.2299 23.1875C14.4871 22.3125 13.8061 21.375 13.0632 20.5C12.9394 20.3125 12.7537 20.1875 12.568 20C12.568 20.0625 12.568 20.1875 12.568 20.25C12.568 21.125 12.568 21.9375 12.568 22.8125C12.568 23.0625 12.568 23.25 12.6299 23.5C12.6918 23.8125 12.8156 23.9375 13.1251 24C13.249 24 13.3728 24 13.3728 24.125C13.3728 24.3125 13.1871 24.1875 13.1251 24.1875C12.6299 24.1875 12.1347 24.1875 11.6394 24.1875C11.7013 24.125 11.7013 24.0625 11.7013 24C11.7632 23.9375 11.8251 23.9375 11.8871 23.9375C12.0728 23.875 12.2585 23.75 12.2585 23.5625C12.2585 23.4375 12.3204 23.3125 12.3204 23.1875C12.3204 22.0625 12.3204 20.9375 12.3204 19.8125C12.3204 19.5 12.1347 19.3125 11.8871 19.25C11.8251 19.1875 11.7013 19.1875 11.5775 19.1875C11.5156 19.1875 11.5156 19.125 11.5156 19.0625C11.5775 19.0625 11.5775 19 11.6394 19C11.7632 19 11.8251 19 11.949 19C12.1966 19 12.4442 19 12.6918 19C12.8156 19 12.8775 19 13.0013 19.125C13.4347 19.625 13.8061 20.125 14.2394 20.6875C14.8585 21.4375 15.4775 22.1875 16.0347 22.9375C15.9728 23 15.9728 23 16.0966 23.0625Z" fill="#FCFCFD"/>
<path d="M45.6206 23.0622C45.6206 22.9372 45.6206 22.8747 45.6206 22.8122C45.6206 21.9372 45.6206 21.0622 45.6206 20.1872C45.6206 19.9997 45.6206 19.8747 45.5587 19.6872C45.4968 19.4997 45.373 19.3747 45.1873 19.3122C45.1254 19.3122 45.0635 19.3122 45.0016 19.2497C44.9397 19.2497 44.9397 19.1872 44.9397 19.1247C44.9397 19.0622 45.0016 19.0622 45.0635 19.0622C45.1873 19.0622 45.2492 19.0622 45.373 19.0622C45.7444 19.0622 46.0539 19.0622 46.4254 19.0622C46.4873 19.0622 46.5492 19.0622 46.5492 19.0622C46.6111 19.0622 46.6111 19.1247 46.6111 19.1872L46.5492 19.2497C46.5492 19.2497 46.4873 19.2497 46.4254 19.2497C46.1158 19.3122 45.992 19.4372 45.992 19.8122C45.992 20.1872 45.9301 20.5622 45.9301 20.9372C45.9301 21.9997 45.9301 22.9997 45.9301 24.0622C45.9301 24.1247 45.9301 24.2497 45.9301 24.3122C45.8063 24.3747 45.6825 24.3746 45.6206 24.2496C45.0635 23.5622 44.5063 22.8747 43.9492 22.1872C43.392 21.4997 42.8968 20.8747 42.3397 20.1872C42.3397 20.1872 42.2778 20.1247 42.2158 20.0622C42.2158 20.1247 42.1539 20.1872 42.1539 20.2497C42.1539 21.2497 42.1539 22.2497 42.1539 23.2497C42.1539 23.3747 42.1539 23.4372 42.2158 23.5622C42.2778 23.8747 42.4016 23.9997 42.7111 24.0622C42.8349 24.0622 42.9587 24.0622 42.9587 24.2496C42.4016 24.2496 41.7825 24.2496 41.2254 24.2496C41.1635 24.1871 41.1635 24.1247 41.2873 24.0622C41.3492 24.0622 41.4111 23.9997 41.473 23.9997C41.7206 23.9372 41.8444 23.8122 41.9063 23.5622C41.9063 23.3122 41.9682 22.9997 41.9682 22.7497C41.9682 21.8122 41.9682 20.8747 41.9682 19.9372C41.9682 19.5622 41.7825 19.3122 41.4111 19.2497C41.3492 19.2497 41.2873 19.2497 41.2254 19.1872C41.1635 19.1872 41.1016 19.1247 41.1016 19.0622C41.1016 18.9997 41.1635 18.9997 41.2254 18.9997C41.4111 18.9997 41.5968 18.9997 41.8444 18.9997C41.9682 18.9997 42.0301 18.9997 42.1539 18.9997C42.4635 18.9372 42.5873 19.0622 42.7111 19.2497C43.5778 20.3122 44.4444 21.3747 45.3111 22.4997C45.3111 22.7497 45.4349 22.8747 45.6206 23.0622Z" fill="#FCFCFD"/>
<path d="M73.4815 27.6875C73.4815 27.875 73.4815 28.0625 73.4815 28.1875C73.4815 29.0625 73.4815 30 73.5434 30.875C73.5434 31 73.6053 31.1875 73.6053 31.3125C73.6672 31.5 73.791 31.5625 73.9148 31.625C73.9767 31.625 74.0386 31.625 74.1005 31.6875C74.1624 31.6875 74.2862 31.6875 74.2243 31.8125C74.2243 31.875 74.1005 31.875 74.0386 31.875C73.6053 31.875 73.11 31.875 72.6767 31.875C72.6148 31.875 72.5529 31.875 72.5529 31.875C72.491 31.875 72.491 31.8125 72.491 31.75L72.5529 31.6875C72.6148 31.6875 72.6767 31.625 72.7386 31.625C72.9862 31.5625 73.11 31.4375 73.1719 31.1875C73.1719 30.9375 73.2339 30.6875 73.2339 30.375C73.2339 29.4375 73.2339 28.5 73.2339 27.5625C73.2339 27.1875 73.0481 26.9375 72.6767 26.875C72.6148 26.875 72.5529 26.875 72.491 26.8125C72.4291 26.8125 72.4291 26.75 72.3672 26.625C72.6767 26.625 72.9243 26.6875 73.1719 26.625C73.6672 26.5625 73.9148 26.75 74.2243 27.125C75.091 28.25 76.0196 29.375 76.9481 30.5L77.01 30.5625C77.01 30.5 77.01 30.4375 77.01 30.375C77.01 29.5 77.01 28.625 77.01 27.75C77.01 27.5625 77.01 27.4375 76.9481 27.25C76.8862 27 76.7624 26.875 76.5767 26.875C76.4529 26.875 76.3291 26.875 76.2672 26.6875C76.4529 26.5625 76.6386 26.625 76.8243 26.625C77.01 26.625 77.1958 26.625 77.4434 26.625C77.6291 26.625 77.8148 26.5625 78.0005 26.6875C78.0005 26.8125 77.9386 26.8125 77.8767 26.875C77.5053 27 77.4434 27.0625 77.3815 27.4375C77.3815 27.875 77.3196 28.3125 77.3196 28.75C77.3196 29.6875 77.3196 30.6875 77.3196 31.625C77.3196 31.75 77.3196 31.8125 77.3196 31.9375C77.1339 32.0625 77.01 31.9375 76.9481 31.8125C76.6386 31.4375 76.3291 31.0625 76.0196 30.6875C75.2767 29.8125 74.5339 28.875 73.791 28C73.7291 27.875 73.6672 27.75 73.4815 27.6875Z" fill="#FCFCFD"/>
<path d="M73.3611 19.188C73.2373 19.2505 73.1754 19.2505 73.1135 19.2505C72.804 19.313 72.6802 19.438 72.6802 19.813C72.6802 20.188 72.6183 20.5005 72.6183 20.8755C72.6183 21.938 72.6183 23.0005 72.6183 24.063C72.6183 24.188 72.6183 24.2505 72.6183 24.3755C72.4945 24.5005 72.3707 24.438 72.2469 24.313C71.6897 23.6255 71.1326 22.8755 70.5135 22.188C69.9564 21.5005 69.3992 20.813 68.8421 20.188C68.8421 20.188 68.7802 20.1255 68.7183 20.1255C68.7183 20.188 68.7183 20.313 68.7183 20.3755C68.7183 21.188 68.7183 22.063 68.7183 22.8755C68.7183 23.1255 68.7183 23.3755 68.7802 23.6255C68.8421 24.0005 68.9659 24.1255 69.2754 24.188C69.4611 24.2505 69.4611 24.2505 69.4611 24.3755C68.904 24.3755 68.3469 24.3755 67.7278 24.3755C67.7278 24.313 67.7278 24.2505 67.7897 24.2505C67.8516 24.188 67.9135 24.188 67.9754 24.188C68.3469 24.1255 68.4088 24.0005 68.4707 23.6255C68.4707 22.438 68.5326 21.2505 68.5326 20.0005C68.5326 19.7505 68.285 19.5005 68.0373 19.438C67.9754 19.438 67.9135 19.3755 67.8516 19.3755C67.7897 19.3755 67.6659 19.3755 67.7278 19.2505C67.7278 19.188 67.8516 19.188 67.9135 19.188C68.1611 19.188 68.3469 19.188 68.5945 19.188C68.6564 19.188 68.7183 19.188 68.7802 19.188C68.9659 19.1255 69.0897 19.188 69.2135 19.3755C69.6469 19.8755 70.0183 20.3755 70.4516 20.938C71.0088 21.688 71.6278 22.3755 72.185 23.1255C72.185 23.1255 72.2469 23.1255 72.2469 23.188C72.2469 23.1255 72.2469 23.063 72.2469 22.938C72.2469 22.063 72.2469 21.188 72.2469 20.313C72.2469 20.1255 72.2469 19.938 72.185 19.813C72.123 19.563 71.9992 19.438 71.7516 19.438C71.6897 19.438 71.6278 19.438 71.5659 19.3755C71.504 19.3755 71.504 19.313 71.504 19.2505C71.504 19.188 71.5659 19.1255 71.6278 19.1255C72.123 19.1255 72.6183 19.1255 73.1135 19.1255C73.2373 19.063 73.2992 19.1255 73.3611 19.188Z" fill="#FCFCFD"/>
<path d="M29.9017 20.5625C29.9017 20.625 29.9017 20.75 29.9017 20.8125C29.9017 21.3125 29.9017 21.8125 29.9017 22.3125C29.9017 22.375 29.9017 22.375 29.9017 22.4375C29.9017 22.5 29.8398 22.5625 29.8398 22.625C29.8398 22.5 29.716 22.5 29.716 22.4375C29.5922 21.8125 29.2208 21.6875 28.7255 21.75C28.6636 21.75 28.6017 21.75 28.5398 21.75C28.5398 21.8125 28.4779 21.875 28.4779 21.9375C28.4779 22.4375 28.4779 22.875 28.4779 23.375C28.4779 23.75 28.6636 23.9375 29.035 24C29.4684 24.0625 29.9017 24.0625 30.335 23.9375C30.7065 23.875 30.8922 23.625 31.016 23.25C31.016 23.1875 31.016 23.0625 31.0779 23C31.0779 22.9375 31.1398 22.9375 31.2017 22.9375C31.2017 23 31.2636 23 31.2636 23.0625C31.2636 23.1875 31.2636 23.25 31.2636 23.375C31.2636 23.5625 31.2636 23.75 31.2636 24C31.2636 24.25 31.2017 24.25 31.016 24.25C29.716 24.25 28.4779 24.25 27.1779 24.25C27.116 24.25 27.116 24.25 27.0541 24.25L26.9922 24.1875C26.9922 24.125 27.0541 24.0625 27.0541 24.0625C27.116 24.0625 27.2398 24.0625 27.3017 24C27.4874 24 27.6112 23.875 27.6731 23.6875C27.6731 23.5625 27.735 23.4375 27.735 23.3125C27.735 22.1875 27.735 21.0625 27.735 19.9375C27.735 19.8125 27.735 19.75 27.6731 19.625C27.6112 19.375 27.4874 19.25 27.2398 19.25C27.116 19.25 26.9922 19.3125 26.9922 19.125C26.9922 19 27.1779 19 27.2398 19C28.3541 19 29.4684 19 30.5827 19C30.8303 19 30.8922 19 30.8922 19.3125C30.8922 19.5625 30.8922 19.8125 30.8922 20.0625C30.8922 20.125 30.8303 20.1875 30.7684 20.25C30.7065 20.1875 30.6446 20.1875 30.6446 20.125C30.6446 20.0625 30.5827 20 30.5827 19.9375C30.4589 19.5 30.2112 19.3125 29.7779 19.3125C29.4065 19.3125 29.097 19.3125 28.7255 19.3125C28.6017 19.3125 28.5398 19.3125 28.5398 19.4375C28.5398 20.125 28.5398 20.75 28.5398 21.4375C29.0969 21.625 29.6541 21.3125 29.716 20.75C29.716 20.6875 29.7779 20.625 29.8398 20.5625C29.8398 20.5 29.9017 20.5625 29.9017 20.5625Z" fill="#FCFCFD"/>
<path d="M9.34732 31.3125C9.28542 31.3125 9.16161 31.3125 9.0997 31.3125C8.41875 31.3125 7.7378 31.3125 7.05685 31.25C6.12827 31.1875 5.1997 31 4.45685 30.375C4.02351 30.0625 3.65208 29.6875 3.28066 29.25C3.28066 29.1875 3.21875 29.1875 3.21875 29.125C3.46637 29.25 3.71399 29.375 3.96161 29.5C4.51875 29.6875 5.07589 29.875 5.63304 30C6.31399 30.1875 6.99494 30.3125 7.67589 30.5625C6.62351 29.6875 6.06637 28.5 5.69494 27.125C5.75685 27.1875 5.81875 27.1875 5.81875 27.1875C6.56161 27.875 7.24256 28.5625 7.7378 29.5C7.98542 30.0625 8.48065 30.4375 8.91399 30.875C9.0378 31 9.22351 31.1875 9.34732 31.3125Z" fill="#FCFCFD"/>
<path d="M8.29159 28.9375C8.47731 29 8.66302 29.0625 8.84874 29.125C9.46778 29.375 10.0249 29.75 10.5202 30.1875C10.9535 30.5625 11.3249 30.9375 11.6964 31.3125C12.0059 31.5625 12.3154 31.8125 12.6868 31.875C12.7487 31.875 12.7487 31.875 12.8725 31.9375C12.8106 32 12.7487 32 12.6868 32.0625C12.3773 32.25 12.0059 32.375 11.6964 32.5625C11.2011 32.875 10.644 33.0625 10.0249 33.125C9.09635 33.25 8.22969 33.125 7.42493 32.6875C7.23921 32.5625 7.0535 32.4375 6.92969 32.375V32.3125C7.0535 32.3125 7.17731 32.375 7.30112 32.375C7.73445 32.375 8.22969 32.4375 8.66302 32.4375C8.72493 32.4375 8.78683 32.4375 8.84874 32.375C9.6535 32.0625 10.4583 31.9375 11.263 32C11.3249 32 11.3868 32 11.4487 31.9375C11.3249 31.875 11.2011 31.8125 11.0154 31.75C10.3964 31.5 9.77731 31.1875 9.34397 30.6875C9.28207 30.625 9.22016 30.5625 9.22016 30.5C8.97254 30 8.53921 29.625 8.16778 29.1875L8.10588 29.125C8.29159 29 8.29159 29 8.29159 28.9375Z" fill="#FCFCFD"/>
<path d="M60.6055 31.75C60.5436 31.8125 60.4817 31.875 60.4817 31.875C60.4198 31.875 60.296 31.875 60.2341 31.875C59.615 31.875 58.996 31.875 58.3769 31.875C58.315 31.875 58.1912 31.875 58.1293 31.875C58.0674 31.875 58.0674 31.8125 58.0055 31.75C58.1912 31.6875 58.2531 31.6875 58.3769 31.6875C58.7484 31.625 58.8722 31.4375 58.8722 31.0625C58.8722 30.5625 58.8722 30.0625 58.8722 29.5625C58.8722 28.8125 58.8722 28.0625 58.8722 27.375C58.8722 27 58.8722 27 58.5007 27C58.315 27 58.0674 27 57.8817 27C57.4484 27 57.2627 27.1875 57.1388 27.625C57.1388 27.6875 57.1388 27.75 57.1388 27.8125C57.1388 27.875 57.0769 27.9375 57.015 27.9375C56.9531 27.875 56.9531 27.8125 56.9531 27.75C56.9531 27.4375 56.9531 27.125 56.9531 26.875C56.9531 26.75 57.015 26.6875 57.1388 26.6875C57.2007 26.6875 57.2626 26.6875 57.3246 26.6875C58.6865 26.6875 60.0484 26.6875 61.4103 26.6875C61.7817 26.6875 61.7817 26.6875 61.7817 27.0625C61.7817 27.3125 61.7817 27.5625 61.8436 27.8125C61.8436 27.875 61.7817 27.9375 61.7198 28C61.6579 27.9375 61.596 27.9375 61.596 27.875C61.5341 27.8125 61.5341 27.6875 61.5341 27.5625C61.4722 27.25 61.2246 27.0625 60.915 27.0625C60.6674 27.0625 60.3579 27.0625 60.1103 27.0625C59.8626 27.0625 59.8007 27.125 59.8007 27.375C59.8007 28.625 59.8007 29.875 59.8007 31.1875C59.8007 31.5625 59.9246 31.75 60.296 31.8125C60.296 31.6875 60.4198 31.75 60.6055 31.75Z" fill="#FCFCFD"/>
<path d="M7.3692 19.25C7.24539 19.25 7.18348 19.25 7.05967 19.3125C6.81205 19.375 6.68824 19.4375 6.68824 19.6875C6.68824 19.875 6.62634 20 6.62634 20.1875C6.62634 21 6.62634 21.8125 6.62634 22.625C6.62634 22.875 6.68824 23.125 6.75015 23.3125C6.93586 23.8125 7.24539 24.0625 7.74062 24.0625C7.98824 24.0625 8.17396 24.0625 8.42158 24.0625C9.10253 24 9.59777 23.5 9.65967 22.875C9.72158 22 9.72158 21.1875 9.65967 20.3125C9.65967 20.1875 9.65967 20.0625 9.65967 19.875C9.65967 19.5 9.47396 19.3125 9.16443 19.25C9.10253 19.25 8.91682 19.25 8.97872 19.125C8.97872 19 9.10253 19.0625 9.22634 19.0625C9.65967 19.0625 10.093 19.0625 10.4644 19.0625H10.5263C10.5882 19.0625 10.7121 19.0625 10.7121 19.125C10.7121 19.25 10.6501 19.25 10.5882 19.25C10.1549 19.375 10.0311 19.4375 10.0311 19.9375C10.0311 20.75 9.9692 21.5625 9.9692 22.375C9.9692 22.75 9.90729 23.0625 9.78348 23.4375C9.59777 23.875 9.28824 24.125 8.91682 24.3125C8.29777 24.5 7.67872 24.5 7.05967 24.375C6.31682 24.1875 5.94539 23.625 5.88348 22.8125C5.88348 22 5.88348 21.25 5.88348 20.4375C5.88348 20.1875 5.88348 19.9375 5.82158 19.6875C5.82158 19.5 5.69777 19.375 5.57396 19.375C5.45015 19.375 5.38824 19.3125 5.26443 19.3125C5.20253 19.3125 5.20253 19.25 5.14062 19.1875C5.20253 19.125 5.20253 19.125 5.26443 19.125C5.26443 19.125 5.32634 19.125 5.38824 19.125C6.00729 19.125 6.62634 19.125 7.24539 19.125C7.18348 19.0625 7.3692 19.0625 7.3692 19.25Z" fill="#FCFCFD"/>
<path d="M77.1373 19.3125C77.1992 19.25 77.2611 19.125 77.3849 19C77.3849 19.125 77.4468 19.1875 77.4468 19.1875C77.4468 19.5 77.4468 19.8125 77.4468 20.1875C77.4468 20.25 77.3849 20.3125 77.3849 20.375C77.323 20.3125 77.2611 20.25 77.2611 20.1875C77.1373 19.875 77.0135 19.625 76.7658 19.4375C76.4563 19.125 76.0849 19.0625 75.7135 19.1875C75.4039 19.3125 75.1563 19.5 75.1563 19.8125C75.0944 20.125 75.2182 20.4375 75.5278 20.625C75.7754 20.8125 76.0849 20.875 76.3325 21C76.642 21.1875 77.0135 21.3125 77.2611 21.5C77.8182 21.875 78.0039 22.375 77.8801 23C77.7563 23.625 77.323 24 76.7658 24.1875C76.0849 24.375 75.4658 24.3125 74.8468 23.9375C74.7849 23.875 74.723 23.875 74.6611 23.875C74.5992 24 74.5373 24.0625 74.4135 24.1875C74.4135 24.125 74.3516 24.0625 74.3516 24.0625C74.3516 23.625 74.3516 23.25 74.3516 22.8125V22.75C74.3516 22.6875 74.4135 22.625 74.4754 22.625C74.5373 22.625 74.5992 22.6875 74.5992 22.6875C74.6611 22.875 74.723 23.125 74.8468 23.375C75.2182 24.0625 76.023 24.25 76.642 23.9375C77.1373 23.6875 77.323 22.9375 76.8897 22.5C76.7039 22.3125 76.5182 22.1875 76.2706 22.0625C75.9611 21.9375 75.6516 21.8125 75.4039 21.6875C75.2182 21.5625 75.0325 21.4375 74.8468 21.3125C74.2278 20.8125 74.2897 19.5625 75.2801 19.125C75.8373 18.875 76.3944 18.9375 76.9516 19.1875C76.9516 19.25 77.0135 19.3125 77.1373 19.3125Z" fill="#FCFCFD"/>
<path d="M35.0974 26.6875C35.1593 26.8125 35.0974 26.875 35.0355 26.875C34.4164 26.9375 34.4164 27.125 34.4164 27.6875C34.3545 28.4375 34.4164 29.1875 34.4164 30C34.4164 30.25 34.4164 30.5 34.4783 30.6875C34.5402 31.25 34.9736 31.625 35.5307 31.6875C35.8402 31.75 36.1497 31.6875 36.4593 31.625C37.0164 31.5 37.3878 31.0625 37.4497 30.5C37.5116 30.25 37.5116 29.9375 37.5116 29.6875C37.5116 29.25 37.5116 28.8125 37.5116 28.375C37.5116 28.0625 37.5116 27.75 37.4497 27.4375C37.4497 27.125 37.264 27 36.8926 26.875C36.8307 26.875 36.7069 26.875 36.7069 26.6875C37.264 26.6875 37.8831 26.6875 38.5021 26.6875C38.5021 26.75 38.4402 26.8125 38.4402 26.8125C38.4402 26.8125 38.3783 26.8125 38.3164 26.8125C37.8831 26.9375 37.8212 27 37.7593 27.4375C37.7593 27.8125 37.6974 28.25 37.6974 28.625C37.6974 29.125 37.6974 29.625 37.6974 30.125C37.6974 30.625 37.5116 31.125 37.1402 31.5C36.8926 31.75 36.5212 31.875 36.2116 31.9375C35.7164 32 35.2212 32 34.7878 31.875C34.045 31.6875 33.6735 31.1875 33.6116 30.3125C33.6116 29.5 33.6116 28.6875 33.6116 27.875C33.6116 27.6875 33.6116 27.4375 33.5497 27.25C33.5497 27.0625 33.4259 26.9375 33.2402 26.9375C33.1164 26.9375 33.0545 26.875 32.9307 26.875C32.8069 26.875 32.8069 26.8125 32.8688 26.6875C33.5497 26.6875 34.2926 26.6875 35.0974 26.6875Z" fill="#FCFCFD"/>
<path d="M52.2494 19.0625C53.8589 19.0625 55.4684 19.0625 57.0161 19.0625C57.1399 19.4375 57.078 19.8125 57.078 20.1875C57.078 20.25 57.0161 20.25 56.9542 20.3125C56.8923 20.25 56.8923 20.25 56.8304 20.1875C56.7685 20.0625 56.7684 20 56.7684 19.875C56.7065 19.625 56.5208 19.375 56.2113 19.375C55.9018 19.3125 55.5923 19.3125 55.2827 19.375C55.097 19.375 55.0351 19.4375 55.0351 19.625C55.0351 19.9375 55.0351 20.25 55.0351 20.5C55.0351 21.375 55.0351 22.3125 55.0351 23.1875C55.0351 23.3125 55.0351 23.4375 55.0351 23.5625C55.0351 23.8125 55.2208 24 55.4684 24.0625C55.5923 24.0625 55.6542 24.0625 55.778 24.125C55.8399 24.125 55.8399 24.1875 55.8399 24.25C55.778 24.25 55.778 24.3125 55.7161 24.3125C55.6542 24.3125 55.5923 24.3125 55.5304 24.3125C54.8494 24.3125 54.1685 24.3125 53.4256 24.3125C53.3637 24.3125 53.3637 24.3125 53.3018 24.3125C53.2399 24.3125 53.2399 24.25 53.2399 24.25C53.2399 24.25 53.2399 24.1875 53.3018 24.1875C53.4256 24.1875 53.4875 24.125 53.6113 24.125C53.9827 24.0625 54.1065 23.875 54.1065 23.5625C54.1065 22.3125 54.1065 21 54.1065 19.75C54.1065 19.5 54.0446 19.5 53.8589 19.4375C53.5494 19.4375 53.2399 19.4375 52.9304 19.4375C52.6827 19.4375 52.497 19.5625 52.4351 19.8125C52.3732 19.9375 52.3732 20.0625 52.3732 20.1875C52.3732 20.25 52.3113 20.25 52.2494 20.3125C52.1875 20.25 52.1875 20.25 52.1875 20.1875C52.2494 19.8125 52.2494 19.4375 52.2494 19.0625Z" fill="#FCFCFD"/>
<path d="M48.5955 24.3125C47.9765 24.3125 47.4812 24.3125 46.9241 24.3125C46.8622 24.1875 46.9241 24.125 46.986 24.125C47.3574 24.0625 47.5431 23.8125 47.6669 23.5C48.2241 22.125 48.7812 20.6875 49.3384 19.3125C49.3384 19.25 49.4003 19.1875 49.4003 19.1875C49.4622 19.125 49.4622 19 49.586 19C49.7098 19 49.7717 19.0625 49.8336 19.1875C49.9574 19.5 50.0812 19.75 50.205 20.0625C50.6384 21.1875 51.0717 22.25 51.505 23.375C51.5669 23.5 51.6288 23.625 51.6907 23.75C51.8146 24 52.0003 24.125 52.2479 24.1875H52.3098C52.3717 24.25 52.4955 24.1875 52.4955 24.3125C52.4955 24.4375 52.3717 24.375 52.2479 24.375C51.5669 24.375 50.9479 24.375 50.2669 24.375C50.205 24.3125 50.205 24.25 50.3288 24.1875C50.3907 24.1875 50.5146 24.1875 50.5765 24.125C50.7622 24.0625 50.886 23.9375 50.8241 23.75C50.7003 23.375 50.5765 23 50.3907 22.625C50.3907 22.5625 50.2669 22.5 50.205 22.5C49.6479 22.5 49.1526 22.5 48.5955 22.5C48.4717 22.5 48.4098 22.5625 48.3479 22.625C48.2241 22.9375 48.1003 23.25 48.0384 23.5625C48.0384 23.625 47.9765 23.6875 47.9765 23.75C47.9765 24 48.0384 24.0625 48.2241 24.125C48.286 24.125 48.4098 24.125 48.4717 24.1875C48.4717 24.125 48.5336 24.25 48.5955 24.3125ZM50.1431 22.125C49.8955 21.375 49.586 20.75 49.3384 20.0625H49.2765C49.0288 20.75 48.7193 21.4375 48.4717 22.125C49.0907 22.125 49.586 22.125 50.1431 22.125Z" fill="#FCFCFD"/>
<path d="M53.7959 30C53.5483 30 53.3007 30 52.9911 30C52.8673 30 52.8054 30 52.7435 30.125C52.6197 30.4375 52.4959 30.75 52.434 31.125C52.3102 31.5 52.434 31.625 52.7435 31.6875H52.8054C52.8673 31.6875 52.9911 31.6875 52.9911 31.8125C52.9911 31.875 52.8673 31.875 52.8054 31.875C52.4959 31.875 52.1864 31.875 51.815 31.875C51.6911 31.875 51.5673 31.9375 51.4435 31.875C51.3816 31.875 51.3197 31.8125 51.2578 31.75C51.3197 31.6875 51.3197 31.625 51.3816 31.625C51.753 31.5625 51.9388 31.3125 52.0626 31C52.6197 29.625 53.1769 28.1875 53.734 26.8125C53.734 26.75 53.7959 26.6875 53.7959 26.625C53.8578 26.5625 53.8578 26.5 53.9816 26.4375C54.1054 26.4375 54.1673 26.5 54.1673 26.625C54.2911 27 54.4769 27.375 54.6007 27.75C55.034 28.875 55.4673 29.9375 55.9007 31.0625C56.0245 31.375 56.2102 31.5625 56.5197 31.625C56.5816 31.625 56.6435 31.625 56.6435 31.6875C56.7054 31.75 56.7054 31.8125 56.6435 31.875C56.5816 31.875 56.5197 31.875 56.4578 31.875C55.9007 31.875 55.3435 31.875 54.7864 31.875H54.7245C54.6626 31.875 54.5388 31.875 54.5388 31.75C54.5388 31.625 54.6626 31.625 54.7245 31.625C55.0959 31.5625 55.1578 31.4375 55.0959 31.0625C54.9721 30.75 54.8483 30.4375 54.7864 30.125C54.7245 30 54.6626 29.9375 54.4769 29.9375C54.2911 30 54.0435 30 53.7959 30ZM54.6007 29.75C54.353 29 54.0435 28.3125 53.7959 27.6875H53.734C53.4864 28.375 53.1769 29.0625 52.9292 29.75C53.4864 29.75 54.0435 29.75 54.6007 29.75Z" fill="#FCFCFD"/>
<path d="M24.9487 24.3125C24.2058 24.3125 23.5249 24.3125 22.8439 24.3125C22.7201 24.3125 22.5963 24.3125 22.4725 24.3125C22.4106 24.3125 22.3487 24.25 22.3487 24.25C22.3487 24.1875 22.3487 24.125 22.4106 24.125C22.4725 24.0625 22.5963 24.0625 22.7201 24.0625C22.9677 24 23.1534 23.875 23.2153 23.625C23.2153 23.5 23.2772 23.375 23.2772 23.25C23.2772 22.125 23.2772 20.9375 23.2772 19.8125C23.2772 19.4375 23.2772 19.4375 22.9058 19.375C22.5963 19.375 22.3487 19.375 22.0391 19.375C21.7296 19.375 21.5439 19.625 21.482 19.9375C21.482 20.0625 21.482 20.125 21.4201 20.25C21.4201 20.3125 21.3582 20.3125 21.2963 20.3125L21.2344 20.25C21.2344 19.9375 21.2344 19.5625 21.2344 19.25C21.2344 19.1875 21.2963 19.125 21.3582 19.125C21.4201 19.125 21.482 19.125 21.5439 19.125C22.9058 19.125 24.2677 19.125 25.6296 19.125C25.6915 19.125 25.7534 19.125 25.8153 19.125C25.9391 19.125 25.9391 19.1875 25.9391 19.25C25.9391 19.5625 26.001 19.875 26.001 20.125C26.001 20.1875 26.001 20.3125 25.8772 20.3125C25.7534 20.3125 25.7534 20.25 25.7534 20.125C25.7534 20.0625 25.7534 20.0625 25.7534 20C25.6915 19.5625 25.4439 19.375 25.0106 19.3125C24.7629 19.3125 24.5153 19.3125 24.2677 19.3125C24.0201 19.3125 23.9582 19.375 23.9582 19.6875C23.9582 20.75 23.9582 21.8125 23.9582 22.875C23.9582 23.0625 23.9582 23.1875 23.9582 23.375C23.9582 23.75 24.082 24 24.5153 24.0625C24.5772 24.0625 24.6391 24.0625 24.701 24.125C24.8868 24.1875 24.9487 24.25 24.9487 24.3125Z" fill="#FCFCFD"/>
<path d="M15.1639 31.5C15.0401 31.5 14.9782 31.5 14.8544 31.5C14.4211 31.5625 14.0496 31.5625 13.6163 31.4375C13.3068 31.375 13.0592 31.25 12.8115 31.0625C12.502 30.8125 12.2544 30.5625 11.883 30.25C12.0068 30.25 12.1925 30.25 12.3163 30.25C12.7496 30.375 13.183 30.5 13.6163 30.625C13.9877 30.75 14.2972 30.875 14.6687 30.9375C15.102 31.0625 15.5353 31 15.9687 30.9375C16.1544 30.9375 16.3401 30.875 16.5258 30.8125C16.0925 31.25 15.6592 31.625 15.2877 32.0625C14.9782 32.375 14.6687 32.6875 14.3592 33C13.802 33.5625 13.1211 33.75 12.3782 33.8125C11.6972 33.875 11.0163 33.75 10.2734 33.5625C10.583 33.5 10.8306 33.5 11.0782 33.4375C11.8211 33.3125 12.502 32.9375 13.183 32.5625C13.802 32.1875 14.3592 31.8125 15.0401 31.5C15.1639 31.5625 15.1639 31.5625 15.1639 31.5Z" fill="#FCFCFD"/>
<path d="M1.05469 25.625C1.30231 25.8125 1.48802 26.0625 1.73564 26.25C2.04516 26.5625 2.41659 26.8125 2.84993 27C3.34516 27.1875 3.7785 27.5625 4.14993 27.875C4.33564 28 4.52135 28.125 4.70707 28.25C4.64516 28.125 4.58326 28.0625 4.52135 27.9375C4.08802 27.3125 3.90231 26.625 3.90231 25.875C3.90231 25.375 3.8404 24.875 3.7785 24.4375C3.7785 24.4375 3.7785 24.375 3.8404 24.3125C4.02612 24.6875 4.21183 25 4.39754 25.3125C4.76897 26 5.01659 26.6875 5.0785 27.5C5.0785 27.75 5.20231 28 5.32612 28.25C5.44993 28.5625 5.63564 28.9375 5.82135 29.25C5.88326 29.3125 5.88326 29.4375 5.94516 29.5H5.88326C5.32612 29.1875 4.64516 29 4.02612 28.8125C3.40707 28.625 2.84993 28.25 2.41659 27.6875C1.92135 27 1.48802 26.375 1.05469 25.625Z" fill="#FCFCFD"/>
<path d="M2.5381 25C2.5381 24.75 2.47619 24.4375 2.47619 24.1875C2.47619 23.9375 2.47619 23.6875 2.47619 23.375C2.6619 22.625 2.84762 21.9375 3.03333 21.1875C3.09524 21.4375 3.15714 21.625 3.21905 21.875C3.34286 22.3125 3.34286 22.75 3.34286 23.1875C3.34286 23.375 3.28095 23.5625 3.28095 23.75C3.03333 24.4375 3.03333 25.1875 3.21905 25.875C3.21905 26 3.28095 26.0625 3.28095 26.1875C3.15714 26.25 3.15714 26.25 3.09524 26.1875C2.41429 25.6875 1.79524 25.25 1.17619 24.6875C0.680952 24.1875 0.309524 23.5625 0.185714 22.875C0.12381 22.4375 0.0619048 22 0 21.5625C0 21.5 0 21.4375 0 21.3125C0.185714 21.625 0.309524 21.9375 0.495238 22.25C0.680952 22.5625 0.866667 22.875 1.11429 23.125C1.54762 23.5625 1.91905 24.125 2.22857 24.6875C2.35238 24.75 2.41429 24.875 2.5381 25C2.47619 25 2.47619 25 2.5381 25Z" fill="#FCFCFD"/>
<path d="M65.0008 31.7502C64.9389 31.8127 64.877 31.8752 64.8151 31.8752C64.6913 31.8752 64.6294 31.8752 64.5056 31.8752C64.0103 31.8752 63.5151 31.8752 63.0199 31.8752C62.8961 31.8752 62.8342 31.8752 62.7103 31.8752C62.6484 31.8752 62.6484 31.8127 62.6484 31.7502C62.6484 31.7502 62.7103 31.6877 62.7722 31.6877H62.8342C63.2056 31.6252 63.3294 31.5002 63.3913 31.1252C63.3913 30.9377 63.3913 30.6877 63.3913 30.5002C63.3913 29.5627 63.3913 28.6877 63.3913 27.7502C63.3913 27.6252 63.3913 27.5002 63.3913 27.3752C63.3294 27.0002 63.2675 26.8752 62.8961 26.8127C62.8342 26.8127 62.7722 26.8127 62.6484 26.7502C62.6484 26.5627 62.7722 26.6252 62.8342 26.6252C63.2056 26.6252 63.5151 26.6252 63.8865 26.6252C64.1961 26.6252 64.4437 26.6252 64.7532 26.6252C64.8151 26.6252 64.9389 26.6252 65.0008 26.6877V26.7502C64.9389 26.7502 64.877 26.8127 64.8151 26.8127C64.4437 26.8752 64.3199 27.0002 64.3199 27.3752C64.3199 28.6252 64.3199 29.8127 64.3199 31.0627C64.3199 31.5002 64.4437 31.6252 64.877 31.6877C64.8151 31.7502 64.877 31.7502 65.0008 31.7502Z" fill="#FCFCFD"/>
<path d="M20.368 19.25C20.2442 19.25 20.1823 19.25 20.0585 19.3125C19.8109 19.375 19.6871 19.4375 19.6251 19.6875C19.6251 19.8125 19.5632 19.9375 19.5632 20.125C19.5632 21.1875 19.5632 22.25 19.5632 23.375C19.5632 23.4375 19.5632 23.5 19.5632 23.5625C19.5632 24 19.6871 24.125 20.1204 24.1875C20.1823 24.1875 20.2442 24.1875 20.2442 24.1875L20.3061 24.25L20.2442 24.3125C20.1823 24.3125 20.1823 24.3125 20.1204 24.3125C19.5013 24.3125 18.8204 24.3125 18.2013 24.3125H18.1394C18.0775 24.3125 18.0775 24.25 18.0156 24.1875L18.0775 24.125C18.2013 24.125 18.2632 24.0625 18.3871 24.0625C18.5728 24.0625 18.6966 23.9375 18.6966 23.75C18.6966 23.625 18.7585 23.5625 18.7585 23.4375C18.7585 22.3125 18.7585 21.125 18.7585 20C18.7585 19.9375 18.7585 19.875 18.7585 19.8125C18.7585 19.4375 18.5728 19.3125 18.2632 19.25C18.2013 19.25 18.0156 19.3125 18.0156 19.125C18.0156 19 18.2013 19.0625 18.2632 19.0625C18.8204 19.0625 19.4394 19.0625 19.9966 19.0625C20.1823 19.0625 20.368 19 20.368 19.25Z" fill="#FCFCFD"/>
<path d="M60.2983 19.25C60.1745 19.25 60.0507 19.3125 59.9888 19.3125C59.7411 19.375 59.6173 19.5 59.6173 19.6875C59.6173 19.8125 59.5554 20 59.5554 20.125C59.5554 21.125 59.5554 22.1875 59.5554 23.1875C59.5554 23.3125 59.5554 23.5 59.6173 23.625C59.6792 23.9375 59.7411 24 60.0507 24.0625C60.1126 24.0625 60.1126 24.0625 60.1745 24.0625C60.2364 24.0625 60.3602 24.0625 60.3602 24.1875C60.3602 24.3125 60.2364 24.25 60.1745 24.25C59.4935 24.25 58.8126 24.25 58.1316 24.25H58.0697C58.0078 24.125 58.0697 24.125 58.1935 24.0625C58.7507 23.9375 58.7507 23.9375 58.7507 23.3125C58.7507 22.25 58.8126 21.25 58.8126 20.1875C58.8126 20 58.7507 19.875 58.7507 19.6875C58.7507 19.3125 58.6269 19.25 58.2554 19.1875C58.1935 19.1875 58.0078 19.25 58.0078 19.0625C58.0078 18.9375 58.1935 19 58.2554 19C58.8126 19 59.4316 19 59.9888 19C60.1745 19.0625 60.2983 19 60.2983 19.25Z" fill="#FCFCFD"/>
<path d="M0.682302 18.4375C0.682302 18.75 0.682302 19 0.682302 19.3125C0.682302 19.5 0.744207 19.6875 0.806112 19.875C1.11564 20.4375 1.36325 21 1.54897 21.625C1.54897 21.6875 1.61087 21.6875 1.61087 21.75C1.73468 21.3125 1.85849 20.8125 1.9823 20.375C2.04421 20.25 2.10611 20.0625 2.16802 19.9375C2.41564 19.4375 2.47754 18.875 2.60135 18.3125C2.66325 18.375 2.72516 18.4375 2.72516 18.5C2.91087 19 2.97278 19.5 2.78706 20C2.66325 20.3125 2.60135 20.625 2.47754 20.9375C2.22992 21.5625 1.9204 22.125 1.9204 22.8125H1.85849C1.36325 22.125 0.868017 21.5 0.496588 20.75C0.125159 19.9375 0.187064 19.1875 0.682302 18.4375Z" fill="#FCFCFD"/>
</g>
<defs>
<clipPath id="clip0_14912_30211">
<rect width="78" height="49.9999" fill="white"/>
</clipPath>
</defs>
</svg>
