<svg width="78" height="50" viewBox="0 0 78 50" fill="none" xmlns="http://www.w3.org/2000/svg">
<g clip-path="url(#clip0_14912_30244)">
<path d="M0 23.5C0.247619 23.5625 0.557143 23.5 0.804762 23.5C1.42381 23.5 2.10476 23.5 2.78571 23.5C3.21905 24.125 3.59048 24.8125 4.02381 25.5C4.33333 25.0625 4.58095 24.625 4.89048 24.1875C5.2 23.75 5.44762 23.3125 5.69524 22.8125C5.94286 22.375 6.25238 21.9375 6.5 21.4375C6.74762 21 7.05714 20.5625 7.30476 20.0625C8.17143 20.0625 9.1 20.0625 10.0286 20.0625C9.34762 21.1875 8.72857 22.25 8.04762 23.3125C7.36667 24.375 6.74762 25.5 6.12857 26.5625C5.50952 27.625 4.82857 28.75 4.14762 29.8125C3.9 29.625 3.77619 29.4375 3.71429 29.25C3.40476 28.6875 3.03333 28.1875 2.66191 27.625C2.16667 26.875 1.73333 26.1875 1.2381 25.4375C0.866667 24.875 0.495238 24.3125 0.185714 23.8125C0.12381 23.75 0.0619048 23.6875 0 23.6875C0 23.625 0 23.5625 0 23.5Z" fill="#FCFCFD"/>
<path d="M78.0005 24.1875C77.9386 24.125 77.8767 24.1875 77.8148 24.25C77.3196 24.625 76.8243 24.875 76.3291 25.1875C76.5148 25.875 76.7624 26.5 76.9481 27.1875C76.391 26.75 75.8339 26.3125 75.2148 25.9375C74.9672 26.0625 74.7815 26.1875 74.5958 26.3125C74.41 26.4375 74.2243 26.625 74.0386 26.6875C73.8529 26.8125 73.6672 27 73.4196 27.0625C73.5434 26.6875 73.6053 26.375 73.7291 26.125C73.8529 25.8125 73.9148 25.5 74.0386 25.1875C73.4815 24.8125 72.9243 24.5 72.3672 24.0625C72.6148 24 72.8624 24.0625 73.11 24C73.3577 24 73.5434 24 73.791 24C74.0386 24 74.2243 24 74.5339 24C74.7815 23.3125 74.9672 22.625 75.2148 21.9375H75.2767C75.5243 22.625 75.71 23.3125 75.9577 23.9375C76.7005 23.9375 77.3815 23.9375 78.0624 23.9375C78.0005 24.0625 78.0005 24.125 78.0005 24.1875Z" fill="#E6E8EC"/>
<path d="M55.5312 22.3125C56.2122 22.3125 56.8313 22.3125 57.5122 22.3125C58.5027 23.5625 59.4313 24.8125 60.4836 26.125C60.4836 24.8125 60.4836 23.5625 60.4836 22.3125C61.1646 22.3125 61.8455 22.3125 62.5884 22.3125C62.5884 22.75 62.5884 23.125 62.5884 23.5625C62.5884 23.9375 62.5884 24.375 62.5884 24.75C62.5884 25.1875 62.5884 25.5625 62.5884 26C62.5884 26.375 62.5884 26.8125 62.5884 27.1875C62.5884 27.625 62.5884 28 62.5884 28.4375C62.5884 28.8125 62.5884 29.25 62.5884 29.625C61.9074 29.625 61.3503 29.625 60.7313 29.625C60.4217 29.1875 60.0503 28.75 59.7408 28.3125C59.4313 27.875 59.0598 27.4375 58.7503 27C58.4408 26.5625 58.0693 26.125 57.7598 25.75C57.6979 25.75 57.6979 25.8125 57.6979 25.8125C57.6979 25.875 57.6979 25.875 57.6979 25.9375C57.6979 27.1875 57.6979 28.375 57.6979 29.625C57.4503 29.6875 57.2646 29.625 57.017 29.625C56.7693 29.625 56.5217 29.625 56.2741 29.625C56.0265 29.625 55.8408 29.6875 55.5932 29.5625C55.5313 27.25 55.5312 24.8125 55.5312 22.3125Z" fill="#E6E8EC"/>
<path d="M26.9899 29.875C26.1851 29.9375 25.5041 29.6875 24.8232 29.25C24.328 28.9375 23.8946 28.5 23.5851 27.9375C23.2137 27.3125 23.028 26.625 23.0899 25.9375C23.1518 24.5625 23.7708 23.5 24.947 22.75C25.4422 22.4375 25.9994 22.3125 26.6184 22.1875C27.4232 22.0625 28.166 22.1875 28.9089 22.5625C30.0232 23.125 30.7041 24.0625 30.9518 25.25C31.1375 26 31.0137 26.75 30.7041 27.5C30.5184 27.9375 30.2708 28.3125 30.0232 28.625C29.8375 28.8125 29.6518 29 29.4041 29.125C28.7232 29.625 27.9184 29.9375 26.9899 29.875ZM27.0518 28C27.6708 28.0625 28.166 27.75 28.5375 27.25C29.1565 26.3125 28.9089 25.1875 28.228 24.5625C27.6089 23.9375 26.4327 23.9375 25.7518 24.625C25.3184 25.0625 25.1327 25.625 25.1946 26.25C25.2565 27.0625 26.0613 28.0625 27.0518 28Z" fill="#FCFCFD"/>
<path d="M8.10941 25.9375C8.04751 25.125 8.35703 24.375 8.85227 23.6875C9.16179 23.3125 9.53322 23 9.96655 22.75C10.4618 22.4375 11.0189 22.3125 11.5761 22.1875C12.3808 22.0625 13.1237 22.1875 13.8666 22.5625C14.5475 22.875 15.1046 23.3125 15.4142 23.9375C15.5999 24.3125 15.7856 24.625 15.9094 25C16.0332 25.5 16.0332 26 15.9713 26.5C15.9094 27.125 15.7237 27.625 15.3523 28.125C14.7332 29 13.9285 29.5625 12.8761 29.75C11.9475 29.9375 11.0189 29.875 10.1523 29.4375C9.16179 28.9375 8.54274 28.125 8.17132 27.0625C8.10941 26.75 8.10941 26.375 8.10941 25.9375ZM13.9285 26.0625C13.9285 25.875 13.9285 25.625 13.8666 25.4375C13.6189 24.6875 13.1237 24.25 12.3808 24.0625C11.6999 23.9375 10.8951 24.3125 10.6475 24.75C10.2761 25.25 10.1523 25.8125 10.2761 26.4375C10.3999 27.125 10.7713 27.5625 11.3904 27.875C11.6999 28 12.0094 28 12.3189 28C12.8142 28 13.1856 27.75 13.4951 27.4375C13.7427 27.0625 13.9904 26.5625 13.9285 26.0625Z" fill="#FCFCFD"/>
<path d="M67.2259 29.875C66.4211 29.9375 65.7402 29.6875 65.0592 29.25C64.564 28.9375 64.1307 28.5 63.8211 27.9375C63.6354 27.625 63.5116 27.3125 63.4497 26.9375C63.3259 26.4375 63.264 25.9375 63.3878 25.4375C63.4497 25.25 63.4497 25.0625 63.5116 24.8125C63.6354 24.3125 63.9449 23.875 64.2545 23.5C64.6878 22.9375 65.3068 22.5625 65.9259 22.3125C66.1735 22.1875 66.483 22.125 66.7926 22.125C66.9783 22.125 67.1021 22.0625 67.2878 22.0625C67.8449 22.125 68.464 22.1875 69.0211 22.4375C69.5783 22.6875 70.0735 23.0625 70.5068 23.625C70.8783 24.125 71.1878 24.75 71.2497 25.375C71.3735 26.0625 71.3116 26.6875 71.064 27.375C70.8164 28 70.4449 28.5625 69.8878 29C69.3926 29.4375 68.7735 29.6875 68.0926 29.8125C67.783 29.875 67.4735 29.875 67.2259 29.875ZM67.2878 28C67.4735 28 67.5973 28 67.783 27.9375C68.7735 27.625 69.1449 26.8125 69.1449 25.9375C69.1449 25.625 69.0211 25.25 68.8973 24.9375C68.7116 24.5625 68.4021 24.3125 68.0307 24.1875C67.4116 23.875 66.5449 24.0625 66.1116 24.5C65.5545 25.0625 65.3688 25.75 65.5545 26.4375C65.6164 27.375 66.4211 28.0625 67.2878 28Z" fill="#E6E8EC"/>
<path d="M40.3644 28.4375C40.1168 28.875 40.0549 29.3125 39.8073 29.75C39.1263 29.75 38.3835 29.75 37.6406 29.75C38.0121 28.875 38.3216 28.0625 38.693 27.25C39.0644 26.4375 39.4359 25.625 39.7454 24.75C40.0549 23.9375 40.4263 23.125 40.7978 22.25C41.4787 22.25 42.1597 22.25 42.8406 22.25C43.893 24.6875 44.8835 27.1875 45.9359 29.625C45.9359 29.6875 45.9359 29.6875 45.874 29.6875C45.193 29.6875 44.4501 29.6875 43.7692 29.6875C43.5216 29.3125 43.4597 28.8125 43.2121 28.375C42.2216 28.4375 41.293 28.4375 40.3644 28.4375ZM42.5311 26.75C42.2835 25.9375 41.8502 24.9375 41.7263 24.8125C41.4787 25.4375 41.2311 26.125 40.9835 26.75C41.4787 26.75 41.974 26.75 42.5311 26.75Z" fill="#E6E8EC"/>
<path d="M20.4896 24.125C20.4896 24.6875 20.4896 25.1875 20.4896 25.625C20.4896 26.875 20.4896 28.125 20.4896 29.375C20.4896 29.5 20.5515 29.5625 20.4277 29.625C19.7467 29.625 19.1277 29.625 18.3848 29.625C18.3848 27.75 18.3848 25.9375 18.3848 24.0625C17.642 24.0625 16.8991 24.0625 16.1562 24.0625C16.1562 23.4375 16.1562 22.8125 16.1562 22.25C16.2182 22.25 16.2182 22.1875 16.2182 22.1875C18.3229 22.1875 20.3658 22.1875 22.4705 22.1875C22.4705 22.1875 22.5324 22.25 22.5943 22.25C22.5943 22.8125 22.5943 23.4375 22.5943 24C22.3467 24.0625 22.161 24 21.9134 24C21.6658 24 21.4182 24 21.1705 24C21.0467 24.125 20.7991 24.125 20.4896 24.125Z" fill="#FCFCFD"/>
<path d="M51.6256 24.1875C50.8827 24.1875 50.2018 24.1875 49.4589 24.1875C49.4589 26.0625 49.4589 27.875 49.4589 29.75C48.778 29.75 48.097 29.75 47.3542 29.75C47.3542 27.875 47.3542 26.0625 47.3542 24.1875C46.6113 24.1875 45.8685 24.1875 45.1875 24.1875C45.1875 23.5625 45.1875 23 45.1875 22.375C45.4351 22.3125 50.8208 22.3125 51.6256 22.375C51.6256 22.9375 51.6256 23.5625 51.6256 24.1875Z" fill="#E6E8EC"/>
<path d="M33.9876 27.75C35.2257 27.75 36.4019 27.75 37.64 27.75C37.2685 28.4375 36.959 29.125 36.6495 29.75C35.1019 29.75 33.5542 29.75 32.0066 29.75C31.9447 29.6875 31.8828 29.625 31.8828 29.5625C31.8828 29.3125 31.8828 29 31.8828 28.75C31.8828 26.6875 31.8828 24.6875 31.8828 22.625C31.8828 22.5 31.8828 22.4375 31.8828 22.3125C32.6257 22.3125 33.3066 22.3125 33.9876 22.3125C33.9876 24.0625 33.9876 25.875 33.9876 27.75Z" fill="#E6E8EC"/>
<path d="M52.4938 22.3125C52.5557 22.3125 52.6176 22.3125 52.6176 22.3125C53.2366 22.3125 53.8557 22.3125 54.4747 22.3125C54.5366 22.625 54.5366 28.5 54.5366 29.6875C53.8557 29.6875 53.2366 29.6875 52.5557 29.6875C52.4319 29.4375 52.4319 23.5625 52.4938 22.3125Z" fill="#E6E8EC"/>
<path d="M73.9156 21.3125C73.6679 21.625 73.2346 21.75 72.987 22C73.1108 22.3125 73.2346 22.625 73.2965 23C73.0489 23.0625 72.987 22.8125 72.8013 22.75C72.6775 22.6875 72.4917 22.5625 72.4298 22.4375C72.306 22.375 72.1822 22.4375 72.1203 22.5C71.9346 22.6875 71.7489 22.75 71.5632 22.9375C71.5013 23 71.4394 23 71.3775 23.0625C71.4394 22.6875 71.6251 22.375 71.687 22.0625C71.5013 21.75 71.0679 21.6875 70.8203 21.4375C71.006 21.375 71.1917 21.4375 71.3775 21.375C71.5632 21.375 71.7489 21.375 71.9346 21.375C72.0584 21 72.1203 20.625 72.306 20.3125C72.4917 20.6875 72.6155 21.0625 72.7394 21.375C73.1108 21.3125 73.4822 21.3125 73.9156 21.3125Z" fill="#E6E8EC"/>
</g>
<defs>
<clipPath id="clip0_14912_30244">
<rect width="78" height="49.9999" fill="white"/>
</clipPath>
</defs>
</svg>
