<svg width="78" height="50" viewBox="0 0 78 50" fill="none" xmlns="http://www.w3.org/2000/svg">
<path d="M46.4228 24.375C46.2371 21.75 45.1847 19.625 43.08 18.125C41.7181 17.1875 40.1705 16.75 38.5609 16.8125C35.3419 16.9375 31.5657 19.625 31.38 24.375C28.5324 22.5625 25.7467 20.75 22.9609 19V18.9375C26.1181 19.125 29.2752 19.3125 32.5562 19.5625C31.3181 16.5 30.2038 13.5 29.0276 10.5625C29.0276 10.5625 29.0895 10.5625 29.0895 10.5C31.5038 12.5625 33.98 14.5625 36.5181 16.6875C37.3228 13.5 38.1276 10.4375 38.8705 7.3125H38.9324C39.7371 10.375 40.48 13.5 41.2847 16.6875C43.8228 14.5625 46.2371 12.5625 48.6514 10.5C48.6514 10.5 48.7133 10.5 48.7133 10.5625C47.5371 13.5 46.3609 16.5 45.1847 19.5625C48.4657 19.375 51.6228 19.125 54.78 18.9375C54.78 18.9375 54.78 19 54.8419 19C52.0562 20.75 49.2705 22.5 46.4228 24.375Z" fill="#FCFCFD"/>
<path d="M58.6798 33.125C57.9989 33.125 57.256 33.125 56.5131 33.125C56.5131 32.4375 56.5131 31.75 56.5131 31.0625C58.3084 31.0625 60.1036 31.0625 61.9608 31.0625C61.8369 31.875 61.8369 32.625 61.6512 33.375C61.0322 35.8125 59.175 37.25 56.6369 37.3125C54.7798 37.375 53.1703 36.8125 51.9322 35.375C51.0036 34.25 50.6322 32.875 50.6941 31.375C50.756 30.25 51.0036 29.1875 51.6227 28.25C52.6131 26.8125 53.975 26.0625 55.7084 25.875C57.1322 25.75 58.4322 25.875 59.6703 26.75C60.4131 27.25 60.9084 27.9375 61.2798 28.8125C60.4131 29.1875 59.6703 29.5 58.8036 29.875C58.7417 29.75 58.6798 29.6875 58.6179 29.5625C57.6893 27.8125 55.5227 27.625 54.2846 29.1875C53.1703 30.625 53.2322 32.875 54.4084 34.25C55.2131 35.1875 56.6369 35.4375 57.7512 34.875C58.3703 34.5625 58.8036 33.8125 58.6798 33.125Z" fill="#FCFCFD"/>
<path d="M44.9426 37.125C44.014 37.125 43.1473 37.125 42.2188 37.125C42.2188 33.5 42.2188 29.9375 42.2188 26.3125C42.3426 26.3125 42.4664 26.25 42.5902 26.25C43.8902 26.25 45.1902 26.25 46.4902 26.25C46.7997 26.25 47.1092 26.25 47.4188 26.3125C48.6568 26.5625 49.5854 27.125 49.8949 28.4375C50.2664 29.75 50.1426 31 49.0902 32C48.8426 32.25 48.4711 32.375 48.0997 32.5625C47.9759 32.625 47.8521 32.625 47.6664 32.6875C48.7807 34.1875 49.8949 35.625 51.0092 37.125C49.833 37.125 48.7807 37.125 47.6045 37.125C46.7378 35.75 45.8711 34.375 45.0045 33C44.9426 33 44.9426 33 44.8807 33.0625C44.9426 34.375 44.9426 35.6875 44.9426 37.125ZM44.9426 31.25C45.4997 31.1875 45.9949 31.125 46.4902 31C46.9235 30.875 47.1711 30.5 47.233 30C47.2949 29.5 47.1711 29 46.7378 28.6875C46.1807 28.3125 45.6235 28.3125 44.9426 28.375C44.9426 29.3125 44.9426 30.1875 44.9426 31.25Z" fill="#FCFCFD"/>
<path d="M30.6385 33.5C30.6385 34.75 30.6385 35.875 30.6385 37.0625C29.7099 37.0625 28.9051 37.0625 27.9766 37.0625C27.9766 33.4375 27.9766 29.875 27.9766 26.25C28.1004 26.25 28.2242 26.1875 28.348 26.1875C29.7718 26.1875 31.2575 26.1875 32.6813 26.1875C33.2385 26.1875 33.7956 26.3125 34.2908 26.5625C35.7766 27.1875 36.2099 28.4375 36.148 30C36.148 30.8125 35.9623 31.5625 35.467 32.1875C34.7861 33.0625 33.8575 33.375 32.8051 33.4375C32.248 33.5 31.6908 33.4375 31.1337 33.4375C31.0099 33.5 30.8242 33.5 30.6385 33.5ZM30.7004 28.4375C30.7004 29.375 30.7004 30.3125 30.7004 31.25C31.3813 31.3125 32.1242 31.375 32.7432 31C33.4861 30.5625 33.4861 29.0625 32.7432 28.625C32.0623 28.3125 31.3813 28.375 30.7004 28.4375Z" fill="#FCFCFD"/>
<path d="M21.7265 32.8125C22.5932 30.625 23.4598 28.4375 24.3265 26.25C25.317 26.25 26.2455 26.25 27.2979 26.25C25.7503 29.875 24.2027 33.5 22.717 37.125C21.9741 37.125 21.2932 37.125 20.5503 37.125C19.0646 33.5 17.5789 29.9375 16.0312 26.3125C17.0217 26.3125 18.0122 26.3125 19.0027 26.3125C19.8693 28.5 20.736 30.6875 21.6027 32.875C21.6027 32.8125 21.6646 32.8125 21.7265 32.8125Z" fill="#FCFCFD"/>
<path d="M37.0156 26.25C38.2537 26.25 39.4299 26.25 40.668 26.25C40.4204 29.875 40.1728 33.4375 39.9251 37.0625C39.1823 37.0625 38.4394 37.0625 37.6966 37.0625C37.5109 33.5 37.2632 29.875 37.0156 26.25Z" fill="#FCFCFD"/>
<path d="M38.8776 24.6875C37.6395 24.6875 36.7109 23.75 36.7109 22.5C36.7109 21.3125 37.7014 20.3125 38.8776 20.3125C40.0538 20.3125 41.0443 21.3125 41.0443 22.5C41.0443 23.75 40.1157 24.6875 38.8776 24.6875Z" fill="#FCFCFD"/>
<path d="M21.2296 39.6875L21.9725 41.625L22.7153 39.6875H23.1487L21.9106 42.75L20.7344 39.6875H21.2296Z" fill="#FCFCFD"/>
<path d="M25.2507 40.0625H24.1365V40.75H25.1888V41.125H24.1365V42.0625H25.2507V42.5H23.7031V39.6875H25.2507V40.0625Z" fill="#FCFCFD"/>
<path d="M26.9286 41.3125L27.7952 42.5H27.3L26.4952 41.3125H26.4333V42.5H26V39.6875H26.4952C26.8667 39.6875 27.1143 39.75 27.3 39.875C27.4857 40.0625 27.5476 40.25 27.5476 40.5C27.5476 40.6875 27.4857 40.875 27.3619 41C27.2381 41.125 27.1143 41.25 26.9286 41.3125ZM26.4333 41H26.5571C26.9286 41 27.1762 40.875 27.1762 40.5625C27.1762 40.25 26.9905 40.125 26.619 40.125H26.4952V41H26.4333Z" fill="#FCFCFD"/>
<path d="M28.2891 42.5L28.8462 39.4375L29.7748 41.625L30.7653 39.4375L31.2605 42.5H30.8272L30.5795 40.8125L29.7748 42.625L28.97 40.8125L28.7224 42.5H28.2891Z" fill="#FCFCFD"/>
<path d="M31.9375 41.0625C31.9375 40.6875 32.0613 40.3125 32.3708 40.0625C32.6804 39.75 32.9899 39.625 33.3613 39.625C33.7327 39.625 34.1042 39.75 34.3518 40.0625C34.6613 40.375 34.7851 40.6875 34.7851 41.125C34.7851 41.5625 34.6613 41.875 34.3518 42.1875C34.0423 42.5 33.7327 42.625 33.2994 42.625C32.928 42.625 32.6185 42.5 32.3708 42.25C32.0613 41.875 31.9375 41.5625 31.9375 41.0625ZM32.3708 41.0625C32.3708 41.375 32.4946 41.625 32.6804 41.8125C32.8661 42 33.1137 42.125 33.3613 42.125C33.6708 42.125 33.9185 42 34.1042 41.8125C34.2899 41.625 34.4137 41.375 34.4137 41.0625C34.4137 40.75 34.2899 40.5 34.1042 40.3125C33.9185 40.125 33.6708 40 33.3613 40C33.0518 40 32.8042 40.125 32.6185 40.3125C32.4327 40.5625 32.3708 40.8125 32.3708 41.0625Z" fill="#FCFCFD"/>
<path d="M35.5312 42.5V39.5L37.5122 41.6875V39.75H37.9455V42.75L35.9027 40.5V42.5H35.5312Z" fill="#FCFCFD"/>
<path d="M39.5524 40.0625V42.5H39.119V40.0625H38.5V39.6875H40.1714V40.0625H39.5524Z" fill="#FCFCFD"/>
<path d="M41.0432 39.5625L41.4151 39.6876L40.8573 40.7514L40.6094 40.6262L41.0432 39.5625Z" fill="#FCFCFD"/>
<path d="M43.6396 40.125L43.3301 40.3125C43.2682 40.1875 43.2062 40.125 43.1443 40.0625C43.0824 40 43.0205 40 42.8967 40C42.7729 40 42.711 40.0625 42.5872 40.125C42.5253 40.1875 42.4634 40.25 42.4634 40.375C42.4634 40.5 42.5872 40.625 42.7729 40.6875L43.0205 40.8125C43.2682 40.875 43.392 41 43.5158 41.125C43.6396 41.25 43.7015 41.4375 43.7015 41.625C43.7015 41.875 43.6396 42.125 43.4539 42.25C43.2682 42.4375 43.0824 42.5 42.8348 42.5C42.5872 42.5 42.4015 42.4375 42.2158 42.3125C42.092 42.1875 41.9682 41.9375 41.9062 41.6875L42.3396 41.5625C42.3396 41.75 42.4015 41.875 42.4634 41.9375C42.5253 42.0625 42.6491 42.125 42.8348 42.125C42.9586 42.125 43.0824 42.0625 43.1443 42C43.2062 41.9375 43.2682 41.8125 43.2682 41.6875C43.2682 41.625 43.2682 41.5625 43.2682 41.5625C43.2682 41.5 43.2063 41.5 43.2063 41.4375C43.1443 41.375 43.1443 41.375 43.0824 41.3125C43.0205 41.25 42.9586 41.25 42.8967 41.1875L42.6491 41.0625C42.2777 40.875 42.092 40.6875 42.092 40.3125C42.092 40.125 42.1539 39.9375 42.3396 39.75C42.5253 39.625 42.711 39.5625 42.9586 39.5625C43.2063 39.625 43.4539 39.8125 43.6396 40.125Z" fill="#FCFCFD"/>
<path d="M45.8702 39.6875L46.6131 41.625L47.356 39.6875H47.7893L46.5512 42.75L45.375 39.6875H45.8702Z" fill="#FCFCFD"/>
<path d="M48.0938 41.0625C48.0938 40.6875 48.2176 40.3125 48.5271 40.0625C48.8366 39.75 49.1461 39.625 49.5176 39.625C49.889 39.625 50.2604 39.75 50.508 40.0625C50.8176 40.375 50.9414 40.6875 50.9414 41.125C50.9414 41.5625 50.8176 41.875 50.508 42.1875C50.1985 42.5 49.889 42.625 49.4557 42.625C49.0842 42.625 48.7747 42.5 48.5271 42.25C48.2795 41.875 48.0938 41.5625 48.0938 41.0625ZM48.5271 41.0625C48.5271 41.375 48.6509 41.625 48.8366 41.8125C49.0223 42 49.2699 42.125 49.5176 42.125C49.8271 42.125 50.0747 42 50.2604 41.8125C50.4461 41.625 50.5699 41.375 50.5699 41.0625C50.5699 40.75 50.4461 40.5 50.2604 40.3125C50.0747 40.125 49.8271 40 49.5176 40C49.208 40 48.9604 40.125 48.7747 40.3125C48.589 40.5625 48.5271 40.8125 48.5271 41.0625Z" fill="#FCFCFD"/>
<path d="M52.1208 39.6875V42.5H51.6875V39.6875H52.1208Z" fill="#FCFCFD"/>
<path d="M54.9714 39.8125V40.3125C54.7237 40.125 54.4761 40 54.2285 40C53.919 40 53.7333 40.125 53.4856 40.3125C53.2999 40.5 53.1761 40.75 53.1761 41.0625C53.1761 41.375 53.2999 41.625 53.4856 41.8125C53.6714 42 53.919 42.125 54.2285 42.125C54.3523 42.125 54.4761 42.125 54.5999 42.0625C54.6618 42.0625 54.7237 42 54.7856 41.9375C54.8475 41.875 54.9094 41.875 54.9714 41.8125V42.3125C54.7237 42.4375 54.4761 42.5 54.2285 42.5C53.8571 42.5 53.4856 42.375 53.238 42.0625C52.9904 41.75 52.8047 41.4375 52.8047 41.0625C52.8047 40.6875 52.9285 40.375 53.1761 40.125C53.4856 39.75 53.8571 39.625 54.2904 39.625C54.4761 39.625 54.7237 39.6875 54.9714 39.8125Z" fill="#FCFCFD"/>
<path d="M57.1961 40.0625H56.0818V40.75H57.1342V41.125H56.0818V42.0625H57.1961V42.5H55.6484V39.6875H57.1961V40.0625Z" fill="#FCFCFD"/>
</svg>
