<svg width="78" height="50" viewBox="0 0 78 50" fill="none" xmlns="http://www.w3.org/2000/svg">
<path d="M15.2212 34.2875L15.0603 33.8562H13.9831L13.8222 34.2875H13.2031L14.1936 31.75H14.8622L15.8341 34.2875H15.2212ZM14.5279 32.2875L14.1441 33.375H14.9179L14.5279 32.2875Z" fill="#E6E8EC"/>
<path d="M19.376 34.2875V32.5L18.6703 34.2875H18.4412L17.7355 32.5V34.2875H17.2031V31.75H17.9584L18.5774 33.2875L19.1965 31.75H19.9579V34.2875H19.376Z" fill="#E6E8EC"/>
<path d="M21.5312 34.2875V31.75H23.3203V32.2312H22.0822V32.7687H23.3203V33.25H22.0822V33.825H23.3203V34.3062H21.5312V34.2875Z" fill="#E6E8EC"/>
<path d="M26.2754 34.2877L25.7801 33.3752H25.3839V34.2877H24.8516V31.7502H26.0401C26.1513 31.7402 26.2634 31.7544 26.3687 31.7919C26.474 31.8294 26.5701 31.8893 26.6505 31.9675C26.7309 32.0457 26.7937 32.1404 26.8347 32.2452C26.8757 32.3501 26.894 32.4626 26.8882 32.5752C26.8986 32.7457 26.8491 32.9144 26.7483 33.0516C26.6475 33.1889 26.5019 33.2857 26.3373 33.3252L26.9068 34.2877H26.2754ZM26.3311 32.5752C26.3323 32.527 26.3232 32.4791 26.3045 32.4348C26.2859 32.3904 26.258 32.3506 26.2228 32.318C26.1876 32.2855 26.1459 32.2609 26.1005 32.2459C26.0551 32.231 26.0071 32.226 25.9597 32.2314H25.3839V32.9127H25.9535C26.0009 32.9189 26.049 32.9148 26.0947 32.9007C26.1404 32.8866 26.1826 32.8627 26.2184 32.8307C26.2542 32.7987 26.2828 32.7594 26.3022 32.7153C26.3216 32.6712 26.3315 32.6234 26.3311 32.5752Z" fill="#E6E8EC"/>
<path d="M28.3984 34.2875V31.75H28.9308V34.2875H28.3984Z" fill="#E6E8EC"/>
<path d="M30.4156 33.0189C30.4111 32.8412 30.443 32.6646 30.5094 32.5C30.5758 32.3354 30.6753 32.1865 30.8014 32.0627C30.9276 31.9388 31.0778 31.8426 31.2426 31.7802C31.4074 31.7178 31.5832 31.6906 31.759 31.7001C31.9757 31.6937 32.1898 31.749 32.3769 31.8595C32.5641 31.97 32.7168 32.1313 32.8175 32.3251L32.3594 32.5564C32.3026 32.4406 32.2141 32.3437 32.1043 32.2772C31.9946 32.2108 31.8683 32.1775 31.7404 32.1814C31.5204 32.1814 31.3094 32.2696 31.1538 32.4266C30.9983 32.5837 30.9109 32.7967 30.9109 33.0189C30.9109 33.241 30.9983 33.454 31.1538 33.6111C31.3094 33.7681 31.5204 33.8563 31.7404 33.8563C31.8683 33.8602 31.9946 33.8269 32.1043 33.7605C32.2141 33.694 32.3026 33.5971 32.3594 33.4813L32.8113 33.7501C32.7117 33.9449 32.5593 34.107 32.3719 34.2177C32.1845 34.3284 31.9697 34.3829 31.7528 34.3751C31.5745 34.3831 31.3966 34.3535 31.2303 34.2881C31.0641 34.2227 30.9132 34.123 30.7873 33.9953C30.6614 33.8677 30.5633 33.7149 30.4993 33.5467C30.4353 33.3786 30.4068 33.1988 30.4156 33.0189Z" fill="#E6E8EC"/>
<path d="M35.9478 34.2875L35.7868 33.8562H34.7097L34.5487 34.2875H33.9297L34.9016 31.75H35.5764L36.5235 34.2875H35.9478ZM35.2854 32.2875L34.8954 33.375H35.6692L35.2854 32.2875Z" fill="#E6E8EC"/>
<path d="M37.7666 32.8072L37.5497 32.6257C37.6859 32.5475 37.7878 32.42 37.8348 32.269H37.7666C37.7313 32.2699 37.6963 32.2635 37.6636 32.2503C37.6309 32.2371 37.6012 32.2173 37.5762 32.1921C37.5513 32.167 37.5317 32.137 37.5186 32.1039C37.5055 32.0709 37.4992 32.0355 37.5001 32C37.5016 31.9202 37.5332 31.844 37.5885 31.787C37.6438 31.73 37.7186 31.6965 37.7976 31.6934C37.8462 31.6948 37.894 31.7064 37.938 31.7274C37.982 31.7484 38.0213 31.7783 38.0533 31.8153C38.0853 31.8523 38.1094 31.8956 38.124 31.9425C38.1387 31.9893 38.1436 32.0387 38.1384 32.0876C38.1449 32.23 38.1139 32.3716 38.0486 32.498C37.9833 32.6244 37.886 32.7311 37.7666 32.8072Z" fill="#E6E8EC"/>
<path d="M39.4766 33.9309L39.7551 33.5184C39.9673 33.7321 40.254 33.8532 40.5537 33.8559C40.857 33.8559 40.9932 33.7184 40.9932 33.5747C40.9932 33.1247 39.5447 33.4309 39.5447 32.4809C39.5447 32.0559 39.8975 31.7122 40.498 31.7122C40.6766 31.7045 40.855 31.7326 41.0229 31.7948C41.1908 31.857 41.3448 31.9521 41.4761 32.0747L41.1728 32.4622C40.9743 32.2808 40.7161 32.1806 40.4485 32.1809C40.2194 32.1809 40.0956 32.2872 40.0956 32.4309C40.0956 32.8372 41.5442 32.5559 41.5442 33.5184C41.5442 33.9809 41.2099 34.3434 40.5351 34.3434C40.3399 34.3539 40.1446 34.3226 39.9621 34.2515C39.7797 34.1804 39.6142 34.0712 39.4766 33.9309Z" fill="#E6E8EC"/>
<path d="M45.0979 33.2875V31.75H45.6488V33.2687C45.6637 33.4149 45.7318 33.5503 45.8398 33.6487C45.9479 33.7472 46.0883 33.8017 46.2338 33.8017C46.3794 33.8017 46.5197 33.7472 46.6278 33.6487C46.7358 33.5503 46.8039 33.4149 46.8188 33.2687V31.75H47.3636V33.2687C47.3778 33.4209 47.3579 33.5743 47.3055 33.7176C47.253 33.861 47.1693 33.9905 47.0605 34.0968C46.9517 34.203 46.8207 34.2832 46.677 34.3313C46.5334 34.3795 46.3808 34.3944 46.2307 34.375C46.0818 34.3964 45.9301 34.3835 45.7869 34.3372C45.6436 34.291 45.5126 34.2126 45.4037 34.108C45.2947 34.0034 45.2106 33.8752 45.1576 33.7331C45.1046 33.591 45.0842 33.4387 45.0979 33.2875Z" fill="#E6E8EC"/>
<path d="M50.7193 34.2875L49.5246 32.625V34.2875H48.9922V31.75H49.5246L50.6884 33.3437V31.75H51.2208V34.2875H50.7193Z" fill="#E6E8EC"/>
<path d="M52.8438 34.2875V31.75H53.3761V34.2875H52.8438Z" fill="#E6E8EC"/>
<path d="M54.8797 33.0183C54.8858 32.7574 54.968 32.5042 55.1162 32.2903C55.2643 32.0764 55.4717 31.9115 55.7123 31.8162C55.953 31.7208 56.2161 31.6994 56.4688 31.7545C56.7215 31.8096 56.9524 31.9388 57.1326 32.1259C57.3128 32.313 57.4343 32.5497 57.4817 32.8062C57.5292 33.0628 57.5006 33.3278 57.3995 33.5679C57.2984 33.8081 57.1292 34.0128 56.9133 34.1563C56.6974 34.2998 56.4443 34.3758 56.1859 34.3746C56.0084 34.3851 55.8308 34.357 55.665 34.292C55.4993 34.2271 55.3494 34.1268 55.2254 33.9982C55.1015 33.8695 55.0065 33.7154 54.9468 33.5463C54.8872 33.3772 54.8642 33.1972 54.8797 33.0183ZM56.9659 33.0183C56.9659 32.8145 56.8856 32.6189 56.7428 32.4748C56.6 32.3306 56.4064 32.2496 56.2044 32.2496C56.0025 32.2496 55.8088 32.3306 55.666 32.4748C55.5232 32.6189 55.443 32.8145 55.443 33.0183C55.4354 33.1245 55.4494 33.2312 55.4841 33.3317C55.5188 33.4322 55.5734 33.5245 55.6447 33.603C55.716 33.6814 55.8025 33.7443 55.8987 33.7878C55.995 33.8313 56.099 33.8544 56.2044 33.8558C56.3094 33.8545 56.4129 33.8314 56.5086 33.7877C56.6042 33.7441 56.6899 33.681 56.7602 33.6024C56.8306 33.5237 56.884 33.4312 56.9173 33.3307C56.9506 33.2302 56.9629 33.1239 56.9535 33.0183H56.9659Z" fill="#E6E8EC"/>
<path d="M60.7408 34.2875L59.5028 32.625V34.2875H58.9766V31.75H59.5213L60.6913 33.3437V31.75H61.2175V34.2875H60.7408Z" fill="#E6E8EC"/>
<path d="M62.7031 33.9307L62.9879 33.5182C63.0914 33.6244 63.2147 33.7088 63.3507 33.7667C63.4867 33.8247 63.6327 33.8549 63.7803 33.8557C64.0836 33.8557 64.226 33.7182 64.226 33.5744C64.226 33.1244 62.7712 33.4307 62.7712 32.4807C62.7712 32.0557 63.1241 31.7119 63.7307 31.7119C64.0895 31.6981 64.439 31.8285 64.7027 32.0744L64.3993 32.4619C64.2009 32.2806 63.9427 32.1803 63.675 32.1807C63.446 32.1807 63.3222 32.2869 63.3222 32.4307C63.3222 32.8369 64.7707 32.5557 64.7707 33.5182C64.7707 33.9807 64.4365 34.3432 63.7617 34.3432C63.5664 34.3537 63.3711 34.3223 63.1887 34.2513C63.0063 34.1802 62.8408 34.0709 62.7031 33.9307Z" fill="#E6E8EC"/>
<path d="M10.7436 23.3064H5.17217L4.1817 25.2689H1.95312L6.81265 15.9814H9.11551L13.9998 25.2689H11.765L10.7436 23.3064ZM9.90789 21.5689L7.99503 17.8189L6.08836 21.5689H9.90789Z" fill="#FCFCFD"/>
<path d="M18.2815 17.8002V19.9439H24.3482V21.7877H18.2815V25.2689H16.1953V15.9814H25.481V17.8189H18.2815V17.8002Z" fill="#FCFCFD"/>
<path d="M36.6093 23.4314V25.2689H27.9922V15.9814H30.097V23.4439H36.6093V23.4314Z" fill="#FCFCFD"/>
<path d="M55.1011 22.2124L57.0263 23.1811C56.1596 24.4999 54.3953 25.5561 51.9872 25.5561C48.5206 25.5561 46.2734 23.6811 46.2734 20.6062C46.2734 17.5312 48.5206 15.6562 52.0739 15.6562C53.0275 15.6137 53.9769 15.8066 54.8398 16.2183C55.7028 16.63 56.4533 17.248 57.0263 18.0187L55.1011 18.9812C54.7729 18.4784 54.3156 18.0751 53.7781 17.8142C53.2406 17.5533 52.643 17.4447 52.0492 17.4999C49.8763 17.4999 48.4277 18.5562 48.4277 20.6249C48.4277 22.6936 49.8763 23.7499 52.0492 23.7499C52.649 23.8043 53.252 23.6893 53.7909 23.4178C54.3298 23.1463 54.7834 22.729 55.1011 22.2124Z" fill="#FCFCFD"/>
<path d="M59.6562 25.2689V15.9814H61.761V25.2689H59.6562Z" fill="#FCFCFD"/>
<path d="M64.3438 20.6248C64.3438 17.4998 66.6033 15.6748 70.1937 15.6748C73.7842 15.6748 76.0499 17.5498 76.0499 20.6248C76.0499 23.6998 73.7904 25.5685 70.1937 25.5685C66.5971 25.5685 64.3438 23.7498 64.3438 20.6248ZM73.8957 20.6248C73.8957 18.6248 72.4595 17.4998 70.1814 17.4998C67.9033 17.4998 66.4671 18.6061 66.4671 20.6248C66.4671 22.6435 67.8847 23.7498 70.1814 23.7498C72.478 23.7498 73.8957 22.606 73.8957 20.6248Z" fill="#FCFCFD"/>
<path d="M37.7188 21.4812V19.75H43.7483V21.4812H37.7188Z" fill="#FCFCFD"/>
</svg>
