<svg width="78" height="50" viewBox="0 0 78 50" fill="none" xmlns="http://www.w3.org/2000/svg">
<path d="M9.74676 38.212H6.48438L13.1763 27.3058H16.7853C17.5282 30.1766 18.2793 33.0579 19.0387 35.9495C19.2306 35.6495 19.2182 35.6495 19.3234 35.012C19.4906 34.0058 19.6763 33.0058 19.8496 31.9995C20.0415 30.8558 20.2396 29.7183 20.4315 28.5745C20.5058 28.162 20.5739 27.7558 20.6482 27.3245C20.9887 27.2433 27.7858 27.2183 28.4172 27.3245L28.0272 29.462H23.5206C23.3472 30.1683 23.2482 30.8683 23.1306 31.6183C23.5036 31.646 23.8781 31.646 24.251 31.6183H27.6372L27.2844 33.7495H22.7282L21.9296 38.1245C21.6201 38.2058 17.0825 38.237 16.3582 38.1245L15.8444 35.9495H11.0468L9.74676 38.212ZM14.4515 30.087C13.6715 31.437 12.9163 32.7433 12.161 34.062C13.2402 34.159 14.3257 34.159 15.4049 34.062C15.1758 32.7272 14.8573 31.4096 14.4515 30.1183V30.087Z" fill="#FCFCFD"/>
<path d="M47.9724 27.3057H50.9191L53.5872 31.4432C54.9986 30.0432 56.3419 28.6619 57.6976 27.3057H60.6629C60.0067 30.9432 59.3567 34.5557 58.7005 38.1681C57.6534 38.239 56.6028 38.239 55.5557 38.1681C55.518 37.8203 55.556 37.4683 55.6672 37.1369C55.8838 35.7807 56.1315 34.4244 56.3729 33.0744C56.4162 32.8432 56.4657 32.6182 56.5029 32.3932C56.54 32.1682 56.54 32.0932 56.571 31.8557C56.465 31.9306 56.3637 32.012 56.2676 32.0994L53.1724 35.2244C53.0486 35.3494 52.9372 35.5307 52.6524 35.4369L50.3681 31.8744C50.3041 31.9886 50.2542 32.1104 50.2196 32.2369C50.0276 33.3494 49.8419 34.4557 49.6438 35.5682C49.4953 36.4369 49.3343 37.2994 49.1734 38.1869H46.0781C46.7034 34.5744 47.3472 30.9619 47.9724 27.3057Z" fill="#FCFCFD"/>
<path d="M62.7346 36.1124H67.687C67.6215 36.8151 67.5203 37.514 67.3837 38.2062H59.1875C59.8189 34.5687 60.438 30.9499 61.0446 27.3499C61.3851 27.2687 68.4732 27.2437 69.0923 27.3499L68.7146 29.4562H63.9108C63.7518 30.1413 63.6401 30.8367 63.5765 31.5374C64.1027 31.5374 64.5918 31.5374 65.0746 31.5374H68.1204L67.7365 33.6437H63.1865C62.9761 34.4624 62.9142 35.2624 62.7346 36.1124Z" fill="#FCFCFD"/>
<path d="M46.1801 34.7245L45.691 37.4183C44.5056 38.0124 43.2012 38.3246 41.8777 38.3308C40.9068 38.388 39.933 38.2888 38.9929 38.037C38.2635 37.8438 37.6018 37.4489 37.0824 36.8969C36.5629 36.3448 36.2062 35.6575 36.0525 34.912C35.9 34.1125 35.9233 33.289 36.1206 32.4995C36.3759 31.1958 37.0246 30.0037 37.9777 29.087C39.0069 28.117 40.3009 27.4813 41.692 27.262C42.5412 27.1216 43.4052 27.0964 44.261 27.187C45.2981 27.2988 46.3148 27.5554 47.282 27.9495C47.1582 28.8808 46.9787 29.8245 46.8115 30.7558L46.1925 30.387C45.46 29.9293 44.6219 29.6724 43.761 29.6417C42.9 29.6111 42.0461 29.8076 41.2834 30.212C40.7781 30.4657 40.3392 30.8362 40.0025 31.2934C39.6658 31.7506 39.4408 32.2817 39.3458 32.8433C39.2496 33.3828 39.3359 33.9393 39.5908 34.4233C39.8456 34.9073 40.2543 35.2908 40.751 35.512C41.5047 35.8337 42.3331 35.9334 43.1406 35.7995C44.113 35.6577 45.0512 35.3356 45.9077 34.8495C45.9696 34.812 46.0439 34.787 46.1801 34.7245Z" fill="#FCFCFD"/>
<path d="M36.2826 28.0557C36.1464 28.9057 36.0103 29.7119 35.8679 30.5557L35.5398 30.3369C34.9347 29.8566 34.2192 29.5384 33.4598 29.4119C33.1391 29.3714 32.8147 29.3714 32.4941 29.4119C32.235 29.4237 31.9894 29.5317 31.8043 29.7151C31.6192 29.8985 31.5077 30.1444 31.4912 30.4057C31.5507 30.5952 31.6509 30.769 31.7847 30.9149C31.9184 31.0608 32.0825 31.175 32.265 31.2494C32.8841 31.5932 33.5031 31.9244 34.085 32.2557C34.4943 32.5016 34.8638 32.8093 35.1807 33.1682C35.363 33.3597 35.4801 33.6049 35.515 33.8682C35.6184 34.531 35.5404 35.2097 35.2895 35.8309C35.0385 36.4522 34.6242 36.9924 34.0912 37.3932C33.3613 37.9211 32.508 38.2485 31.615 38.3432C30.0873 38.4967 28.5472 38.2221 27.1641 37.5494L27.6283 34.9432C28.0122 35.1744 28.365 35.3994 28.7241 35.5682C29.5257 36.0456 30.4757 36.2017 31.386 36.0057C31.5504 35.9712 31.7076 35.9077 31.8503 35.8182C31.9672 35.7505 32.066 35.6548 32.1378 35.5396C32.2096 35.4243 32.2522 35.2931 32.262 35.1573C32.2718 35.0215 32.2484 34.8854 32.1939 34.7609C32.1393 34.6363 32.0554 34.5273 31.9493 34.4432C31.646 34.2369 31.3303 34.0619 30.996 33.8869C30.6617 33.7119 30.1974 33.4869 29.8136 33.2619C29.4197 33.0484 29.0756 32.7522 28.8045 32.3932C28.6067 32.1279 28.4632 31.8254 28.3824 31.5035C28.3016 31.1816 28.2852 30.8466 28.3341 30.5182C28.402 29.8357 28.6653 29.188 29.0918 28.6541C29.5184 28.1203 30.0897 27.7234 30.736 27.5119C31.7267 27.1519 32.792 27.0529 33.8312 27.2244C34.5162 27.3055 35.1834 27.4998 35.806 27.7994C35.9855 27.8807 36.1155 27.9619 36.2826 28.0557Z" fill="#FCFCFD"/>
<path d="M39 23.6372C39.7119 23.1684 40.3929 22.6872 41.0986 22.2622C43.2529 20.9372 45.4381 19.6122 47.6667 18.331C49.458 17.311 51.3012 16.3869 53.1886 15.5622C55.1336 14.6867 57.1236 13.9169 59.15 13.256C60.8547 12.702 62.5913 12.2532 64.35 11.9122C65.799 11.6437 67.2743 11.5493 68.7452 11.631C69.3299 11.6554 69.9049 11.7889 70.4414 12.0247C70.7127 12.1201 70.9544 12.2858 71.1424 12.5052C71.3303 12.7246 71.4579 12.9899 71.5124 13.2747C71.5493 13.5846 71.5067 13.8988 71.3886 14.1872C71.2039 14.695 70.9267 15.1635 70.5714 15.5685C69.9114 16.388 69.1663 17.1339 68.3491 17.7935C68.1892 17.9309 68.0195 18.0562 67.8414 18.1685C68.2119 17.7019 68.5142 17.1842 68.739 16.631C68.8977 16.2584 68.9325 15.8439 68.8381 15.4497C68.7787 15.2396 68.6772 15.0441 68.5398 14.8753C68.4024 14.7065 68.2321 14.568 68.0395 14.4685C67.6397 14.2375 67.2011 14.0828 66.7457 14.0122C65.6189 13.856 64.4771 13.8434 63.3471 13.9747C60.5323 14.3209 57.7645 14.9834 55.0952 15.9497C51.9255 17.0257 48.8556 18.3809 45.921 19.9997C44.1814 20.9559 42.4852 21.9809 40.7643 22.9809C40.331 23.2309 39.8852 23.4809 39.4519 23.7434C39.3772 23.7867 39.2891 23.7998 39.2053 23.7801C39.1214 23.7604 39.0481 23.7093 39 23.6372Z" fill="#FCFCFD"/>
<path d="M64.4403 22.0375H67.5974V22.0938L64.3351 23.75C64.1432 24.575 64.2113 25.45 64.0193 26.3313L62.1003 24.8L58.5903 26.25H58.5532C59.2155 25.4375 59.8841 24.6313 60.6022 23.75L53.3655 22.1875H53.9846C55.2784 22.1875 56.566 22.1875 57.8598 22.1875C59.1536 22.1875 60.5589 22.125 61.927 22.0938C62.3187 21.8523 62.6294 21.4973 62.8184 21.075C62.8636 21.0105 62.8946 20.937 62.9094 20.8594C62.9243 20.7818 62.9225 20.7019 62.9044 20.625C62.8862 20.5481 62.852 20.476 62.8041 20.4135C62.7562 20.351 62.6957 20.2995 62.6265 20.2625C62.4383 20.1267 62.2291 20.0232 62.0074 19.9563C61.0782 19.6798 60.1022 19.6011 59.1413 19.725C58.5222 19.8063 57.9032 19.85 57.2841 19.9313C56.0133 20.1218 54.7575 20.4038 53.5265 20.775C51.384 21.3931 49.3097 22.2308 47.336 23.275L46.7789 23.5813L46.5312 23.35C46.5726 23.3198 46.6161 23.2927 46.6612 23.2688C48.2093 22.3196 49.8351 21.5062 51.5208 20.8375C53.5658 19.9638 55.6801 19.2655 57.8413 18.75C58.7342 18.5303 59.6429 18.3819 60.5589 18.3063C61.2151 18.2688 61.8774 18.225 62.5336 18.2375C63.0719 18.2333 63.6038 18.3553 64.0874 18.5938C64.1877 18.6218 64.2814 18.6697 64.3631 18.7349C64.4447 18.8 64.5126 18.8809 64.5628 18.9729C64.613 19.065 64.6445 19.1662 64.6553 19.2707C64.6662 19.3751 64.6562 19.4808 64.626 19.5813C64.5765 20.15 64.5517 20.725 64.5084 21.2938C64.4898 21.525 64.4651 21.7563 64.4403 22.0375Z" fill="#FCFCFD"/>
<path d="M43.0283 23.6062L42.7188 23.3312C42.7825 23.3087 42.8446 23.2816 42.9045 23.25C43.6535 22.7937 44.3902 22.3125 45.1516 21.8687C46.823 20.8937 48.5192 19.9562 50.2773 19.1375C53.4478 17.6269 56.7679 16.46 60.1821 15.6562C61.2995 15.3939 62.4327 15.206 63.5745 15.0937C64.5682 14.957 65.5787 15.0121 66.5521 15.2562C66.7906 15.3184 67.0197 15.413 67.233 15.5375C67.387 15.6093 67.5252 15.7113 67.6399 15.8374C67.7545 15.9636 67.8431 16.1115 67.9007 16.2725C67.9583 16.4336 67.9837 16.6046 67.9753 16.7756C67.967 16.9466 67.9251 17.1142 67.8521 17.2687C67.6709 17.8316 67.3637 18.3449 66.9545 18.7687C66.3671 19.4541 65.6975 20.0629 64.9611 20.5812C65.0371 20.4704 65.1074 20.3556 65.1716 20.2375C65.3725 19.8739 65.5463 19.4958 65.6916 19.1062C65.7765 18.8368 65.7716 18.5467 65.6777 18.2803C65.5838 18.0139 65.406 17.7859 65.1716 17.6312C64.7359 17.3378 64.2372 17.1535 63.7168 17.0937C62.5764 16.925 61.4187 16.9124 60.2749 17.0562C56.3439 17.5435 52.5189 18.6795 48.9526 20.4187C47.0459 21.3062 45.1887 22.375 43.3316 23.425L43.0283 23.6062Z" fill="#FCFCFD"/>
<path d="M69.0642 37.1004H68.8473V36.6812H69.182C69.3245 36.6812 69.4733 36.6812 69.4733 36.8877C69.4733 37.0942 69.2315 37.1004 69.0642 37.1004ZM69.6282 36.8939C69.6282 36.6937 69.5228 36.5811 69.213 36.5811H68.7109V37.7574H68.8535V37.213H69.1138L69.4485 37.7574H69.622L69.2687 37.213C69.4733 37.213 69.6344 37.1254 69.6344 36.8939" fill="#FCFCFD"/>
<path d="M69.0882 38.0873C68.9064 38.0973 68.7259 38.052 68.5699 37.9574C68.4138 37.8627 68.2895 37.7229 68.213 37.5562C68.1365 37.3894 68.1112 37.2033 68.1406 37.0219C68.1699 36.8406 68.2524 36.6722 68.3775 36.5387C68.5025 36.4051 68.6644 36.3125 68.8421 36.2729C69.0199 36.2332 69.2053 36.2482 69.3745 36.316C69.5437 36.3838 69.6888 36.5013 69.7912 36.6533C69.8936 36.8053 69.9484 36.9848 69.9487 37.1686C69.9528 37.2877 69.9332 37.4065 69.8909 37.5178C69.8486 37.6291 69.7845 37.7307 69.7024 37.8164C69.6204 37.9022 69.5221 37.9703 69.4133 38.0169C69.3046 38.0634 69.1877 38.0874 69.0696 38.0873M69.0696 36.1123C68.8627 36.1123 68.6604 36.1743 68.4884 36.2903C68.3163 36.4064 68.1823 36.5713 68.1031 36.7643C68.0239 36.9573 68.0032 37.1697 68.0435 37.3746C68.0839 37.5795 68.1835 37.7677 68.3299 37.9154C68.4762 38.0632 68.6626 38.1638 68.8655 38.2045C69.0685 38.2453 69.2788 38.2243 69.47 38.1444C69.6612 38.0645 69.8245 37.9291 69.9395 37.7554C70.0545 37.5817 70.1158 37.3775 70.1158 37.1686C70.1158 36.8884 70.0056 36.6198 69.8094 36.4217C69.6132 36.2236 69.3471 36.1123 69.0696 36.1123Z" fill="#FCFCFD"/>
</svg>
