<svg width="78" height="50" viewBox="0 0 78 50" fill="none" xmlns="http://www.w3.org/2000/svg">
<path d="M30.769 26.125C31.2643 25.8125 31.8833 26 32.3786 25.9375C32.5643 25.9375 32.75 25.9375 32.8119 26.125C32.8738 26.25 32.8119 26.3125 32.75 26.375C32.5643 26.9375 32.5643 27.5 32.5643 28.0625C32.5643 29.1875 32.5643 30.3125 32.5643 31.5C32.5643 31.9375 32.6262 32.375 32.75 32.8125C32.8119 33 32.8738 33.125 32.8119 33.3125C32.75 33.4375 32.6262 33.5 32.5024 33.5C31.8833 33.5 31.3262 33.5 30.769 33.5C30.4595 33.3125 30.5833 33.0625 30.6452 32.875C31.0167 31.9375 30.831 31 30.8929 30C29.9643 30 29.0976 30 28.169 30C28.169 30.5625 28.169 31.125 28.169 31.75C28.1071 32.3125 28.4786 32.8125 28.4786 33.375C28.3548 33.5625 28.231 33.5625 28.1071 33.5625C27.6119 33.5625 27.1786 33.5625 26.6833 33.5625C26.4976 33.5625 26.3119 33.5625 26.25 33.3125C26.25 33.25 26.25 33.125 26.3119 33.0625C26.5595 32.375 26.5595 31.625 26.5595 30.875C26.5595 30 26.5595 29.0625 26.5595 28.1875C26.5595 27.625 26.4976 27 26.3119 26.4375C26.3119 26.375 26.25 26.25 26.3119 26.1875C26.3738 26 26.5595 26 26.7452 26C27.3024 26.0625 27.8595 25.875 28.4786 26.1875C28.169 27.125 28.169 28.0625 28.231 29C28.5405 29.125 30.0262 29.125 30.8929 29.0625C30.8929 28.5625 30.8929 28.125 30.8929 27.625C30.9548 27.125 30.831 26.625 30.769 26.125Z" fill="#FCFCFD"/>
<path d="M32.1325 18.25C31.823 18.1875 31.5134 18.0625 31.3277 17.8125C30.7706 17.3125 30.0896 17.25 29.4087 17.375C28.7896 17.5 28.4182 18 28.1706 18.5625C27.7992 19.4375 27.7992 20.375 27.9849 21.25C28.0468 21.5625 28.1706 21.875 28.3563 22.1875C29.0372 23.5 30.523 23.375 31.3896 22.6875C31.5753 22.5625 31.6992 22.4375 31.8849 22.3125C32.0087 22.25 32.1325 22.1875 32.2563 22.125C32.6277 22.0625 32.8134 22.25 32.8753 22.625C32.8753 23.1875 32.6277 23.625 32.0706 23.875C31.7611 24 31.4515 24.0625 31.0801 24.125C29.7182 24.3125 28.4801 24.125 27.4277 23.1875C26.6849 22.5625 26.2515 21.75 26.1277 20.8125C25.942 19.4375 26.3753 18.25 27.4277 17.375C27.9849 16.875 28.6039 16.5625 29.3468 16.4375C29.6563 16.375 29.9658 16.25 30.3372 16.25C30.9563 16.3125 31.5134 16.375 32.1325 16.625C32.2563 16.6875 32.3182 16.75 32.442 16.8125C32.7515 17 32.8753 17.25 32.8753 17.5625C32.6896 17.9375 32.5039 18.125 32.1325 18.25Z" fill="#FCFCFD"/>
<path d="M62.0357 19.0622C62.5928 18.9372 63.088 18.6247 63.5833 18.4997C64.0785 18.6872 63.769 19.1247 63.8928 19.4372C64.0166 19.3122 64.1404 19.1247 64.2642 18.9997C65.069 18.2497 66.2452 18.3122 66.8642 19.1872C67.1119 19.5622 67.1738 19.9997 67.2357 20.4997C67.2357 21.1872 67.2357 21.8122 67.2357 22.4997C67.2357 22.8747 67.2976 23.1872 67.4214 23.4997C67.4833 23.6247 67.6071 23.8122 67.4833 24.0622C66.988 24.2497 66.369 24.1247 65.8119 24.1872C65.6261 24.1872 65.5642 24.1247 65.4404 23.9372C65.3785 23.7497 65.5023 23.5622 65.6261 23.3122C65.688 23.1872 65.7499 22.9997 65.7499 22.8747C65.7499 22.1247 65.7499 21.3122 65.7499 20.5622C65.7499 20.0622 65.3785 19.6872 64.9452 19.7497C64.5119 19.7497 64.2642 19.9997 64.0785 20.3747C63.9547 20.6872 63.8928 20.9997 63.8928 21.3122C63.8928 21.8122 63.8928 22.3122 63.8928 22.8747C63.8928 23.1247 63.9547 23.3122 64.0785 23.4997C64.1404 23.6872 64.2023 23.8747 64.1404 24.0622C64.0166 24.1872 63.8928 24.2497 63.7071 24.2497C63.3357 24.2497 62.9023 24.2497 62.5309 24.2497C62.2833 24.2497 62.2833 24.2497 62.0357 23.9372C62.469 23.0622 62.4071 22.1247 62.4071 21.1872C62.4071 20.9372 62.4071 20.7497 62.4071 20.4997C62.4071 20.1872 62.3452 19.8747 62.1595 19.6247C62.0357 19.4997 61.9118 19.3122 62.0357 19.0622Z" fill="#FCFCFD"/>
<path d="M52.252 23.875C52.1901 24.0625 52.0663 24.1875 51.8806 24.1875C51.4472 24.1875 50.952 24.1875 50.5187 24.1875C50.3949 24.1875 50.2711 24.125 50.2091 24C50.1472 23.8125 50.2091 23.625 50.2711 23.4375C50.3949 23.125 50.4568 22.8125 50.4568 22.4375C50.4568 21.8125 50.4568 21.125 50.4568 20.5C50.4568 20.125 50.3949 19.8125 50.1472 19.5C50.0853 19.4375 50.0234 19.3125 50.0234 19.25C50.0234 19.0625 50.0853 18.9375 50.2711 18.9375C50.7663 18.8125 51.1996 18.5625 51.6949 18.4375C52.1901 18.625 51.8806 19.0625 52.0044 19.375C52.1282 19.25 52.3139 19.125 52.4377 18.9375C52.933 18.4375 53.9234 18.25 54.6044 18.75C55.0996 19.125 55.3472 19.625 55.3472 20.1875C55.3472 20.6875 55.3472 21.125 55.3472 21.625C55.3472 22.375 55.2853 23.125 55.6568 23.8125C55.5949 24.0625 55.4091 24.125 55.2234 24.125C54.7901 24.125 54.3568 24.125 53.9234 24.125C53.7377 24.125 53.6139 24.0625 53.4901 23.875C53.4282 23.75 53.4901 23.6875 53.552 23.5625C53.7996 23.0625 53.7996 22.5625 53.7996 22C53.7996 21.5625 53.7996 21.125 53.7996 20.6875C53.7996 20.5 53.7377 20.375 53.7377 20.1875C53.6139 19.625 52.8711 19.4375 52.4377 19.8125C52.1282 20.0625 52.0044 20.4375 51.9425 20.8125C51.8806 21.4375 51.8806 22 51.8806 22.625C51.8806 22.875 51.9425 23.0625 52.0044 23.25C52.1282 23.5 52.1901 23.6875 52.252 23.875Z" fill="#FCFCFD"/>
<path d="M42.7207 28.625C42.7207 28.4375 42.8445 28.375 42.9683 28.375C43.5254 28.25 43.9588 27.875 44.5159 27.875C44.7016 28.0625 44.7016 28.25 44.7016 28.4375C44.7016 29.5 44.7016 30.5 44.7016 31.5625C44.7016 31.9375 44.7635 32.3125 44.9492 32.6875C45.0111 32.8125 45.1349 33 45.0111 33.25C44.5159 33.4375 43.8968 33.5 43.3397 33.5625C43.0302 33.375 43.2159 33.0625 43.0921 32.75C42.7826 33.1875 42.4111 33.5 41.854 33.625C40.9873 33.875 39.873 33.3125 39.8111 32.0625C39.7492 31.4375 39.8111 30.75 39.8111 30.0625C39.8111 29.625 39.7492 29.25 39.5016 28.875C39.4397 28.75 39.3778 28.625 39.4397 28.5C39.7492 28.25 40.8635 27.875 41.173 27.875C41.3588 28 41.2968 28.1875 41.2968 28.375C41.2968 29.375 41.2968 30.3125 41.2968 31.3125C41.2968 31.4375 41.2968 31.5625 41.2968 31.6875C41.3587 32 41.4826 32.3125 41.854 32.375C42.2254 32.4375 42.473 32.375 42.7207 32.125C43.0302 31.8125 43.0921 31.4375 43.0921 31.0625C43.154 30.5625 43.0921 30.0625 43.0921 29.5C43.0921 29.3125 43.0302 29.1875 42.9064 29.0625C42.8445 28.9375 42.7207 28.75 42.7207 28.625Z" fill="#FCFCFD"/>
<path d="M60.8566 23.1875C60.9804 23.375 61.228 23.25 61.3518 23.4375C61.4137 23.8125 61.1661 24.125 60.7328 24.25C60.1137 24.4375 59.6185 24.1875 59.309 23.5C59.1852 23.625 59.1233 23.6875 58.9994 23.8125C58.3804 24.375 57.6994 24.5 56.9566 24.1875C55.8423 23.75 55.9661 22.5 56.3994 21.9375C56.5852 21.75 56.7709 21.625 56.9566 21.5C57.3899 21.25 57.8852 21.125 58.3804 20.9375C58.5661 20.875 58.6899 20.75 58.8756 20.625C59.1852 20.375 59.309 19.875 59.0613 19.625C58.8756 19.375 58.3804 19.3125 58.009 19.5625C57.8852 19.625 57.7613 19.75 57.6375 19.875C57.5756 19.9375 57.4518 20 57.3899 20.0625C57.0804 20.25 56.8328 20.1875 56.6471 19.9375C56.4613 19.75 56.4613 19.375 56.6471 19.1875C56.7709 19.0625 56.8947 18.9375 57.0804 18.875C57.8852 18.5625 58.7518 18.5 59.5566 18.75C60.2994 19 60.7947 19.625 60.7947 20.5C60.7947 21.1875 60.6709 21.9375 60.7328 22.625C60.7947 22.75 60.7947 23 60.8566 23.1875ZM59.1852 21.375C58.8756 21.5625 58.628 21.6875 58.3185 21.8125C58.0709 21.9375 57.8233 22.125 57.7613 22.4375C57.6994 22.6875 57.6994 22.875 57.8852 23.0625C58.0709 23.25 58.2566 23.3125 58.5661 23.25C58.9994 23.125 59.1852 22.8125 59.1852 22.375C59.1852 22.0625 59.1852 21.75 59.1852 21.375Z" fill="#FCFCFD"/>
<path d="M33.4326 21.5625C33.3707 20.125 34.2993 18.8125 35.7231 18.5625C36.9612 18.3125 38.3231 19 38.6945 20.3125C39.0659 21.5625 38.8802 22.6875 37.8897 23.625C37.085 24.375 36.0945 24.5 35.0421 24.125C33.9897 23.75 33.4945 22.875 33.4326 21.8125C33.4326 21.6875 33.4326 21.5625 33.4326 21.5625ZM35.0421 21C35.0421 21.1875 35.0421 21.375 35.0421 21.5C35.104 21.8125 35.1659 22.0625 35.2278 22.375C35.2897 22.6875 35.4136 23 35.6612 23.1875C36.0326 23.5 36.4659 23.5 36.8374 23.1875C36.9612 23.0625 37.0231 22.9375 37.085 22.8125C37.3945 21.8125 37.3326 20.8125 36.8374 19.875C36.6517 19.5 36.3421 19.3125 35.9707 19.3125C35.5374 19.3125 35.2897 19.625 35.1659 20C35.0421 20.3125 34.9802 20.625 35.0421 21Z" fill="#FCFCFD"/>
<path d="M38.8793 30.6252C38.9412 31.9377 38.0745 33.1877 36.8983 33.5002C35.3507 33.9377 33.6173 33.0002 33.4935 31.0627C33.4316 30.1252 33.6793 29.2502 34.3602 28.6252C35.2269 27.8127 36.2174 27.6252 37.3316 28.0627C38.384 28.5002 38.8174 29.3752 38.8793 30.4377C38.8793 30.5002 38.8793 30.6252 38.8793 30.6252ZM35.0412 30.3127C35.0412 31.0002 35.165 31.6252 35.4745 32.1877C35.6602 32.5002 35.9078 32.7502 36.2793 32.7502C36.7126 32.7502 36.8983 32.4377 37.084 32.1252C37.2078 31.9377 37.2078 31.6877 37.2697 31.4377C37.3935 30.6252 37.2697 29.8752 36.8983 29.1877C36.7126 28.8127 36.465 28.6252 36.0316 28.6252C35.5983 28.6252 35.3507 28.9377 35.2269 29.3127C35.0412 29.6252 35.0412 30.0002 35.0412 30.3127Z" fill="#FCFCFD"/>
<path d="M52.0639 30.8128C52.1258 31.5628 52.4354 32.1253 53.1163 32.4378C53.7973 32.7503 54.4163 32.4378 55.0354 32.1253C55.283 32.3128 55.3449 32.3753 55.2211 32.5628C55.0973 32.8753 54.8497 33.0628 54.5401 33.2503C53.6735 33.7503 52.4354 33.7503 51.5687 33.1253C51.0116 32.7503 50.702 32.1878 50.5782 31.5628C50.3306 30.5003 50.5782 29.5003 51.2592 28.6878C52.0639 27.6878 53.4258 27.5003 54.4782 28.2503C55.1592 28.7503 55.4068 29.3753 55.283 30.1878C55.283 30.4378 55.1592 30.5628 54.9116 30.6253C54.7258 30.6878 54.602 30.6878 54.4163 30.6878C53.7354 30.6878 53.1163 30.6878 52.4354 30.6878C52.3735 30.7503 52.2497 30.6878 52.0639 30.8128ZM53.7973 29.8753C53.983 29.5003 53.983 29.1878 53.7354 28.9378C53.5497 28.6878 53.1782 28.5628 52.8068 28.6878C52.2497 28.8753 52.1258 29.3128 52.002 29.8753C52.6211 29.9378 53.2401 30.0003 53.7973 29.8753Z" fill="#FCFCFD"/>
<path d="M46.188 21.4378C46.1261 22.1253 46.5594 22.8128 47.1785 23.0628C47.7356 23.3127 48.2928 23.2502 48.788 22.9377C48.9737 22.8128 49.1594 22.6877 49.3452 22.8752C49.4071 23.0002 49.4071 23.1252 49.3452 23.1877C49.2214 23.4377 48.9737 23.6252 48.7261 23.8127C47.7975 24.4377 46.3737 24.4377 45.569 23.7502C45.0118 23.2502 44.7023 22.6252 44.6404 21.8753C44.5166 20.7503 44.888 19.8128 45.7547 19.0628C46.6214 18.3128 47.8594 18.3128 48.7261 19.0003C49.2833 19.4378 49.5928 20.0628 49.5309 20.8128C49.5309 21.2503 49.3452 21.3753 48.9118 21.3753C48.169 21.3753 47.4261 21.3753 46.6833 21.3753C46.4975 21.3753 46.3118 21.3128 46.188 21.4378ZM47.9833 20.3128C47.9833 20.2503 47.9833 20.1253 47.9833 20.0628C47.9214 19.4378 47.2404 19.0628 46.7452 19.4378C46.3737 19.6878 46.188 20.0628 46.188 20.5628C46.6833 20.5628 47.1785 20.5628 47.6737 20.5628C47.7975 20.5628 47.8595 20.5003 47.9833 20.3128Z" fill="#FCFCFD"/>
<path d="M47.1107 29.1871C47.1726 29.4371 47.2964 29.5621 47.5441 29.6871C47.7917 29.8121 48.0393 29.8746 48.2869 29.9996C48.5345 30.1246 48.8441 30.1871 49.0917 30.3746C50.0821 30.8746 50.206 32.2496 49.4012 32.9995C49.1536 33.2495 48.8441 33.437 48.4726 33.562C47.7298 33.812 47.0488 33.7495 46.306 33.437C45.9345 33.312 45.7488 32.9996 45.6869 32.6246C45.625 32.3746 45.625 32.1871 45.625 31.9371C45.625 31.7496 45.6869 31.6246 45.8726 31.5621C46.0583 31.4996 46.1821 31.5621 46.306 31.6871C46.4298 31.8121 46.5536 31.9996 46.6774 32.1871C46.925 32.4996 47.2345 32.7496 47.6679 32.8121C48.1631 32.8746 48.5345 32.6245 48.4726 32.0621C48.3488 31.8121 48.1012 31.7496 47.8536 31.6246C47.5441 31.4996 47.1726 31.4371 46.8631 31.2496C46.244 30.9996 45.8107 30.5621 45.8107 29.8746C45.8107 29.1246 46.1202 28.4996 46.8012 28.1871C47.544 27.8121 48.3488 27.8121 49.1536 28.1246C49.7107 28.3121 49.8345 29.1871 49.5869 29.6246C49.4631 29.8746 49.2155 29.8746 49.0298 29.6871C48.906 29.5621 48.7821 29.3746 48.7202 29.2496C48.5345 28.9996 48.2869 28.8121 47.9774 28.8121C47.4821 28.6246 47.2964 28.7496 47.1107 29.1871Z" fill="#FCFCFD"/>
<path d="M42.1642 24.1875C41.8547 24.1875 41.4833 24.1875 41.1119 24.1875C40.8642 23.8125 40.8023 23.4375 40.6166 23C40.2452 22.0625 39.9357 21.0625 39.5642 20.125C39.4404 19.8125 39.3166 19.4375 39.0071 19.1875C38.9452 19.125 38.8833 19.0625 38.8833 18.9375C38.8214 18.75 38.9452 18.5625 39.1309 18.5625C39.75 18.5625 40.369 18.5 40.9881 18.625C40.9881 18.625 40.9881 18.625 41.05 18.6875C41.1119 18.875 41.1119 19.0625 41.05 19.25C41.05 19.5625 41.1119 19.8125 41.1738 20.125C41.4833 20.875 41.7309 21.6875 42.0404 22.5C42.35 22.0625 42.4119 21.625 42.5976 21.25C42.7833 20.875 42.969 20.4375 43.0309 20C43.0928 19.5625 43.0309 19.125 43.0309 18.75C43.1547 18.625 43.2785 18.625 43.3404 18.625C43.65 18.625 43.9595 18.625 44.269 18.625C44.5166 18.625 44.5166 18.625 44.7023 18.875C44.6404 19.125 44.4547 19.375 44.3309 19.5625C43.8357 20.3125 43.5262 21.125 43.2166 21.9375C42.969 22.5625 42.6595 23.25 42.4119 23.875C42.35 23.9375 42.35 24.0625 42.1642 24.1875Z" fill="#FCFCFD"/>
<path d="M71.0706 23.1879C71.3182 23.1254 71.5039 23.0004 71.6897 22.8754C71.8135 22.8754 71.9373 22.9379 72.0611 23.0629C71.9373 23.4379 71.6897 23.7504 71.3182 24.0004C70.5135 24.5004 69.523 24.3754 69.0278 23.6254C68.7182 23.2504 68.7182 22.8129 68.6563 22.3129C68.5944 21.8129 68.7182 21.3129 68.7182 20.8129C68.7182 20.4379 68.7182 20.0629 68.7182 19.6879C68.4706 19.5629 68.223 19.6879 67.9754 19.6254C67.7897 19.4379 67.8516 19.1879 67.9135 18.8754C68.5944 18.5629 68.9658 18.0004 69.3373 17.3754C69.6468 17.3129 69.8944 17.3754 70.2039 17.3754C70.2039 17.8129 70.2039 18.2504 70.2039 18.7504C70.7611 18.8754 71.2563 18.7504 71.7516 18.8129C71.8754 19.1254 71.7516 19.4379 71.5658 19.6254C71.1325 19.6879 70.6373 19.6254 70.142 19.6879C70.142 20.6879 70.0801 21.6254 70.2658 22.6254C70.5135 23.0004 70.5754 23.0629 71.0706 23.1879Z" fill="#FCFCFD"/>
<path d="M22.3501 18.4375L21.4834 19.375L21.731 18.125L19.8739 19.5L21.2977 17.625L19.9977 17.9375L20.9882 17.125L18.2644 17.0625L20.8644 16.4375H5.94531C5.94531 16.4375 6.06912 27.9375 6.06912 33.625C8.73103 33.6875 9.35007 33.25 10.8977 32.3125C11.0215 31.6875 11.3929 31.125 11.7644 30.625C12.0739 30.1875 12.4453 29.8125 12.8167 29.5C13.0025 29.3125 13.2501 29.0625 13.4358 28.875C13.8691 28.3125 14.2406 27.6875 14.612 27.0625C14.7358 26.8125 14.8596 26.625 15.0453 26.375C15.2929 26.5 15.4167 26.625 15.4786 26.8125C15.6025 27.25 15.5406 27.6875 15.2929 28.0625C15.1072 28.375 14.9215 28.6875 14.7358 29C14.4882 29.4375 14.4263 29.875 14.4882 30.375C14.5501 30.4375 14.612 30.4375 14.612 30.4375C14.7358 30.4375 14.7977 30.375 14.9215 30.375C15.8501 30.0625 16.7167 29.625 17.5834 29.1875C18.1406 28.9375 18.6977 28.6875 19.3167 28.625C19.7501 28.5625 20.1215 28.75 20.2453 29.1875C19.3167 29.4375 18.4501 29.8125 17.5834 30.25V30.3125C18.2025 30.25 18.8215 30.0625 19.3786 30C19.6882 29.9375 20.0596 29.875 20.3691 29.875C20.7406 29.875 20.9882 30.125 21.0501 30.5C20.1215 30.625 19.1929 30.8125 18.2644 31.125C18.7596 31.1875 19.2548 31.1875 19.7501 31.1875C19.9358 31.1875 20.1215 31.1875 20.3072 31.25C20.6167 31.3125 20.7406 31.5 20.7406 31.8125C20.0596 31.8125 19.3786 31.875 18.6977 31.9375C18.9453 32.0625 19.1929 32.0625 19.3786 32.125C19.5644 32.1875 19.7501 32.1875 19.9358 32.25C20.1215 32.375 20.1834 32.4375 20.1834 32.6875C20.0596 32.75 19.9977 32.6875 19.8739 32.6875C18.9453 32.6875 18.0167 32.6875 17.0882 32.875C16.4691 33 15.8501 33.1875 15.2929 33.375C15.1072 33.4375 14.9834 33.5 14.7977 33.625C17.5215 33.625 23.031 33.625 23.031 33.625V18.5625L22.4739 20.6875L22.3501 18.4375ZM19.9358 24.3125C19.6882 24.8125 19.3786 25.25 19.0691 25.625C18.2025 26.75 17.212 27.75 15.9739 28.5C15.912 28.4375 15.9739 28.375 15.9739 28.3125C16.1596 27.75 16.4072 27.25 16.4691 26.6875C16.531 26.375 16.531 26.125 16.4691 25.8125C16.4072 25.3125 16.0977 25.0625 15.5406 25C15.1072 24.9375 14.7358 25.125 14.4263 25.4375C14.1167 25.75 13.8691 26.125 13.6215 26.4375C13.3739 26.75 13.0644 27.0625 12.8167 27.375C12.631 27.625 12.3834 27.8125 12.1358 27.9375C11.8882 28.0625 11.6406 28.0625 11.3929 27.875C11.4548 27.625 11.6406 27.5 11.8263 27.3125C12.0739 27.0625 12.3215 26.8125 12.4453 26.5H12.3834C12.0739 26.75 11.8263 27 11.5167 27.1875C11.2072 27.4375 10.8977 27.5625 10.5263 27.5625C10.2786 27.5625 10.0929 27.4375 9.96912 27.25C10.3406 26.9375 10.6501 26.625 11.0215 26.375C10.8977 26.3125 10.8977 26.375 10.8358 26.4375C10.6501 26.5625 10.4644 26.625 10.2786 26.75C9.84531 26.9375 9.41198 26.875 9.04055 26.5625C8.97865 26.5 8.91674 26.4375 8.85484 26.375C9.35007 26.125 9.78341 25.8125 10.2786 25.5625C10.2167 25.5 10.1548 25.5 10.0929 25.5625C9.84531 25.625 9.59769 25.6875 9.35007 25.75C8.91674 25.875 8.3596 25.5625 8.23579 25.0625C8.29769 25 8.3596 25 8.4215 24.9375C9.6596 24.625 10.8977 24.1875 12.1358 23.8125C12.631 23.625 13.0644 23.375 13.4358 22.9375C13.8691 22.4375 13.6215 21.75 12.8786 21.625C12.7548 21.625 12.631 21.625 12.5072 21.625C11.8263 21.625 11.1453 21.6875 10.5263 21.6875C10.031 21.6875 9.59769 21.6875 9.10246 21.6875C8.66912 21.6875 8.17388 21.625 7.74055 21.5C7.67865 21.5 7.61674 21.5 7.55484 21.4375C7.86436 21.1875 8.23579 20.9375 8.54531 20.75C9.35007 20.25 10.2167 19.6875 11.0215 19.1875C11.8263 18.6875 12.631 18.4375 13.5596 18.4375C14.6739 18.4375 15.7263 19.3125 15.9739 20.375C15.9739 20.5 16.0358 20.5625 16.0977 20.6875C16.2215 20.6875 16.1596 20.625 16.1596 20.5625C16.1596 20.25 16.2215 19.875 16.2834 19.5625C16.4072 19.125 16.6548 18.8125 17.0882 18.6875C17.3977 18.625 17.7072 18.6875 17.9548 18.875C18.2644 19.0625 18.6358 19.3125 19.131 19.125C19.0072 19.375 18.8834 19.5625 18.7596 19.6875C18.3882 20.0625 18.2025 20.5625 18.1406 21.125C18.1406 21.3125 18.2025 21.5625 18.2025 21.75C18.2644 21.8125 18.3263 21.875 18.4501 21.875C18.8834 22 19.2548 22.1875 19.6263 22.4375C19.8739 22.625 20.0596 22.875 20.1215 23.1875C20.1834 23.5 20.1215 23.9375 19.9358 24.3125Z" fill="#FCFCFD"/>
<path d="M17.5837 19.6878C17.7205 19.6878 17.8315 19.5758 17.8315 19.4377C17.8315 19.2995 17.7205 19.1875 17.5837 19.1875C17.4469 19.1875 17.3359 19.2995 17.3359 19.4377C17.3359 19.5758 17.4469 19.6878 17.5837 19.6878Z" fill="#FCFCFD"/>
</svg>
