<svg width="78" height="50" viewBox="0 0 78 50" fill="none" xmlns="http://www.w3.org/2000/svg">
<path fill-rule="evenodd" clip-rule="evenodd" d="M45.626 11.125C44.9451 11.6875 44.5737 13.5 45.626 13.875C46.7403 13.4375 46.307 11.625 45.626 11.125Z" fill="#E6E8EC"/>
<path fill-rule="evenodd" clip-rule="evenodd" d="M43.8317 13.375C43.646 14.5 44.2031 15.6875 45.5031 15.6875C45.6269 14.1875 44.946 13.5625 43.8317 13.375Z" fill="#E6E8EC"/>
<path fill-rule="evenodd" clip-rule="evenodd" d="M47.4186 13.375C46.3043 13.5 45.5615 14.5 45.7472 15.6875C46.9853 15.5625 47.6662 14.6875 47.4186 13.375Z" fill="#E6E8EC"/>
<path fill-rule="evenodd" clip-rule="evenodd" d="M45.5056 17.75C45.5056 16.375 44.8865 15.6875 43.6484 15.5625C43.7103 16.875 44.3294 17.8125 45.5056 17.75Z" fill="#E6E8EC"/>
<path fill-rule="evenodd" clip-rule="evenodd" d="M45.8113 17.75C47.0494 17.8125 47.6065 16.8125 47.6065 15.5625H47.5446C46.3684 15.6875 45.6875 16.4375 45.8113 17.75Z" fill="#E6E8EC"/>
<path fill-rule="evenodd" clip-rule="evenodd" d="M43.3984 17.8124C43.6461 18.9999 44.2032 19.8124 45.5651 19.8749C45.7508 18.4999 44.8222 17.6874 43.3984 17.8124Z" fill="#E6E8EC"/>
<path fill-rule="evenodd" clip-rule="evenodd" d="M45.8122 19.9373C47.0503 19.8123 47.6694 18.9998 47.917 17.8748C46.5551 17.6248 45.5027 18.4373 45.8122 19.9373Z" fill="#E6E8EC"/>
<path fill-rule="evenodd" clip-rule="evenodd" d="M43.3984 20.0005C43.6461 21.1255 44.2032 21.938 45.5032 22.063C45.7508 20.6255 44.7603 19.7505 43.3984 20.0005Z" fill="#E6E8EC"/>
<path fill-rule="evenodd" clip-rule="evenodd" d="M45.7501 22.0625C47.0501 22 47.6073 21.125 47.9168 20C46.493 19.8125 45.5644 20.5625 45.7501 22.0625Z" fill="#E6E8EC"/>
<path fill-rule="evenodd" clip-rule="evenodd" d="M45.6906 13.875C44.5763 13.5 45.0096 11.6875 45.6906 11.125C46.3096 11.625 46.7429 13.4375 45.6906 13.875Z" fill="#E6E8EC"/>
<path fill-rule="evenodd" clip-rule="evenodd" d="M45.5031 15.625C44.2031 15.625 43.646 14.4375 43.8317 13.3125C44.946 13.5625 45.6269 14.1875 45.5031 15.625Z" fill="#E6E8EC"/>
<path fill-rule="evenodd" clip-rule="evenodd" d="M45.8132 15.6875C45.5656 14.5 46.3084 13.5 47.4846 13.375C47.6703 14.6875 46.9894 15.5625 45.8132 15.6875Z" fill="#E6E8EC"/>
<path fill-rule="evenodd" clip-rule="evenodd" d="M43.7109 15.5625C44.949 15.625 45.5681 16.375 45.5681 17.75C44.33 17.8125 43.7109 16.875 43.7109 15.5625Z" fill="#E6E8EC"/>
<path fill-rule="evenodd" clip-rule="evenodd" d="M47.5446 15.5625C47.6065 16.8125 47.0494 17.8125 45.8113 17.75C45.6875 16.4375 46.3684 15.6875 47.5446 15.5625Z" fill="#E6E8EC"/>
<path fill-rule="evenodd" clip-rule="evenodd" d="M45.5026 19.8749C44.1407 19.8124 43.5836 18.9374 43.3359 17.8124C44.8217 17.6874 45.7502 18.4999 45.5026 19.8749Z" fill="#E6E8EC"/>
<path fill-rule="evenodd" clip-rule="evenodd" d="M47.917 17.8748C47.6694 18.9998 47.0503 19.8123 45.8122 19.9373C45.5027 18.4373 46.5551 17.6248 47.917 17.8748Z" fill="#E6E8EC"/>
<path fill-rule="evenodd" clip-rule="evenodd" d="M45.5032 22.063C44.2032 21.938 43.6461 21.1255 43.3984 20.0005C44.7603 19.7505 45.7508 20.6255 45.5032 22.063Z" fill="#E6E8EC"/>
<path fill-rule="evenodd" clip-rule="evenodd" d="M47.9168 20C47.6692 21.125 47.1121 22 45.7501 22.0625C45.5644 20.5625 46.493 19.8125 47.9168 20Z" fill="#E6E8EC"/>
<path fill-rule="evenodd" clip-rule="evenodd" d="M59.8624 22.4375C57.7576 22.4375 56.0862 24.0625 56.2719 26.375C56.3957 28.3125 57.7576 29.5625 59.5529 29.6875C60.4195 29.75 61.1005 29.5625 61.7195 29.3125C61.9672 29.1875 62.7719 28.8125 62.8338 28.5625C62.9576 28.125 62.8338 27.5625 62.8338 27.0625V25.5625H59.8005C59.8005 26.0625 59.8005 26.5 59.8005 26.9375H61.2862C61.2862 27.375 61.2862 27.5625 61.2862 27.9375C60.8529 28.1875 60.4195 28.375 59.8005 28.375C59.1195 28.375 58.5624 28 58.2529 27.625C57.3243 26.375 57.8814 24.1875 59.5529 24C60.4814 23.875 61.1005 24.3125 61.5957 24.6875C61.9053 24.3125 62.2767 23.9375 62.5243 23.5C61.9672 22.75 61.1005 22.4375 59.8624 22.4375Z" fill="#E6E8EC"/>
<path fill-rule="evenodd" clip-rule="evenodd" d="M44.8828 22.625V31.75H46.4304V22.5C45.9971 22.625 45.378 22.625 44.9447 22.5C44.8828 22.5 44.8828 22.5625 44.8828 22.625Z" fill="#E6E8EC"/>
<path fill-rule="evenodd" clip-rule="evenodd" d="M63.6447 22.5C63.5828 22.5625 63.6447 22.6875 63.6447 22.75H64.078V23.875H64.3257C64.3257 23.5 64.2637 23.0625 64.3257 22.75H64.759V22.5H63.6447Z" fill="#E6E8EC"/>
<path fill-rule="evenodd" clip-rule="evenodd" d="M64.9375 23.875H65.1851V22.9375C65.3708 23.125 65.4327 23.375 65.6185 23.5C65.7423 23.3125 65.8661 23.0625 66.0518 22.9375C66.0518 23.125 66.0518 23.5625 66.0518 23.8125C66.1137 23.875 66.2375 23.8125 66.2994 23.8125C66.2994 23.375 66.3613 22.8125 66.2994 22.4375H66.0518C65.928 22.625 65.8042 22.875 65.6185 23.0625C65.4946 22.8125 65.3708 22.625 65.247 22.4375H64.9994V23.875" fill="#E6E8EC"/>
<path fill-rule="evenodd" clip-rule="evenodd" d="M13.375 22.75V29.6875H14.9226C14.9226 28.8125 14.8607 27.8125 14.9226 27H18.6369V25.5625C17.3988 25.5625 16.0988 25.625 14.8607 25.5625V24.1875H19.0702V22.75H13.375C13.375 22.6875 13.375 22.6875 13.375 22.75Z" fill="#E6E8EC"/>
<path fill-rule="evenodd" clip-rule="evenodd" d="M20.991 22.75V29.6875H26.6862V28.3125H22.4767C22.4767 27.8125 22.4148 27.25 22.4767 26.875H26.1291V25.5C24.891 25.5 23.591 25.5625 22.4148 25.5C22.4148 25.0625 22.3529 24.5 22.4148 24.125C23.6529 24.1875 25.5719 24.125 26.5005 24.125V22.75H20.8672C20.991 22.6875 20.991 22.6875 20.991 22.75Z" fill="#E6E8EC"/>
<path fill-rule="evenodd" clip-rule="evenodd" d="M28.9766 22.75V29.6875H34.4242V28.3125C33.1242 28.3125 31.7623 28.375 30.5242 28.3125V26.875H33.9908V25.5C32.8147 25.5 31.6385 25.5625 30.5242 25.5C30.5242 25.0625 30.4623 24.5 30.5242 24.125C31.5766 24.1875 33.1861 24.1875 34.3623 24.125V22.75H28.9766C28.9766 22.6875 28.9766 22.6875 28.9766 22.75Z" fill="#E6E8EC"/>
<path fill-rule="evenodd" clip-rule="evenodd" d="M49.9597 22.6875H48.5978C48.5359 24.9375 48.5978 27.375 48.5978 29.6875H50.1454C50.1454 28.4375 50.0835 26.5625 50.1454 25.3125C50.8883 26.3125 51.6931 27.5625 52.4978 28.625C52.6216 28.8125 53.1169 29.625 53.3026 29.6875C53.7359 29.8125 54.2312 29.5625 54.6026 29.6875V22.6875H53.055C52.9931 24.125 53.055 25.625 53.055 26.9375C51.9407 25.5 51.0121 24 49.9597 22.6875Z" fill="#E6E8EC"/>
<path fill-rule="evenodd" clip-rule="evenodd" d="M62.6493 23.375C62.3398 23.8125 62.0303 24.1875 61.7207 24.5625C61.2255 24.1875 60.6065 23.75 59.6779 23.875C58.0065 24.0625 57.4493 26.25 58.3779 27.5C58.6874 27.9375 59.2445 28.25 59.9255 28.25C60.5445 28.25 60.9779 28.125 61.4112 27.8125C61.4112 27.4375 61.4112 27.25 61.4112 26.8125H59.9255C59.9255 26.375 59.9255 25.9375 59.9255 25.4375H62.9588V26.9375C62.9588 27.375 63.0826 28 62.9588 28.4375C62.8969 28.75 62.0922 29.125 61.8445 29.1875C61.2255 29.5 60.5445 29.625 59.6779 29.5625C57.8207 29.4375 56.5207 28.1875 56.3969 26.25C56.2112 24 57.8826 22.3125 59.9874 22.3125C61.1017 22.4375 61.9684 22.75 62.6493 23.375Z" fill="#E6E8EC"/>
<path fill-rule="evenodd" clip-rule="evenodd" d="M44.9449 22.5C45.3782 22.625 45.9972 22.625 46.4306 22.5V31.75H44.9449V22.625C44.883 22.5625 44.883 22.5 44.9449 22.5Z" fill="#E6E8EC"/>
<path fill-rule="evenodd" clip-rule="evenodd" d="M64.7549 22.5V22.75H64.3216C64.2597 23.0625 64.3216 23.5 64.3216 23.875H64.074V22.75H63.6406C63.6406 22.6875 63.6406 22.5625 63.6406 22.5H64.7549Z" fill="#E6E8EC"/>
<path fill-rule="evenodd" clip-rule="evenodd" d="M64.9447 22.5H65.1923C65.3161 22.75 65.44 22.9375 65.5638 23.125C65.6876 22.9375 65.8733 22.6875 65.9971 22.5H66.2447C66.3066 22.9375 66.2447 23.4375 66.2447 23.875C66.1209 23.875 65.9971 23.875 65.9971 23.875C66.059 23.625 65.9971 23.1875 65.9971 23C65.8114 23.125 65.6876 23.375 65.5638 23.5625C65.378 23.375 65.3161 23.125 65.1304 23V23.9375H64.8828V22.5" fill="#E6E8EC"/>
<path fill-rule="evenodd" clip-rule="evenodd" d="M13.4371 22.6875H19.1323V24.125H14.9228V25.5C16.099 25.5625 17.399 25.5 18.699 25.5V26.9375H14.9847C14.9228 27.8125 14.9847 28.75 14.9847 29.625H13.4371V22.75C13.3751 22.6875 13.3751 22.6875 13.4371 22.6875Z" fill="#E6E8EC"/>
<path fill-rule="evenodd" clip-rule="evenodd" d="M20.9922 22.6875H26.6255V24.0625C25.635 24.0625 23.716 24.125 22.5398 24.0625C22.4779 24.5 22.5398 25 22.5398 25.4375C23.716 25.5 25.016 25.4375 26.2541 25.4375V26.8125H22.6017C22.5398 27.25 22.6017 27.8125 22.6017 28.25H26.8112V29.625H21.116V22.75C20.9922 22.6875 20.9922 22.6875 20.9922 22.6875Z" fill="#E6E8EC"/>
<path fill-rule="evenodd" clip-rule="evenodd" d="M29.0386 22.6875H34.4243V24.0625C33.2481 24.125 31.6386 24.125 30.5862 24.0625C30.5243 24.5 30.5862 25 30.5862 25.4375C31.7005 25.5 32.9386 25.4375 34.0529 25.4375V26.8125H30.5862V28.25C31.8243 28.3125 33.1862 28.25 34.4862 28.25V29.625H29.0386V22.75C28.9767 22.6875 28.9767 22.6875 29.0386 22.6875Z" fill="#E6E8EC"/>
<path fill-rule="evenodd" clip-rule="evenodd" d="M52.9925 26.9375C53.0544 25.5625 52.9925 24.125 52.9925 22.6875H54.5401V29.6875C54.1687 29.5625 53.6734 29.8125 53.2401 29.6875C53.0544 29.625 52.5591 28.8125 52.4353 28.625C51.6306 27.5625 50.8258 26.3125 50.0829 25.3125C50.021 26.625 50.0829 28.5 50.0829 29.6875H48.5353C48.5353 27.375 48.4734 24.9375 48.5353 22.6875H49.8972C51.0115 24 51.9401 25.5 52.9925 26.9375Z" fill="#E6E8EC"/>
<path fill-rule="evenodd" clip-rule="evenodd" d="M41.2289 23.0625C40.0528 22.5 38.3813 22.6875 36.648 22.625C36.5861 22.625 36.5861 22.6875 36.648 22.6875V29.625C38.4432 29.5625 40.0528 29.8125 41.2289 29.25C42.3432 28.6875 43.148 27.75 43.148 26.125C43.148 24.625 42.3432 23.625 41.2289 23.0625ZM40.4242 28.0625C39.867 28.3125 39.0004 28.25 38.1337 28.25V24.125C38.1337 24.0625 38.1337 24.0625 38.1337 24.0625C39.4956 23.9375 40.6099 24.125 41.167 25C41.9099 26.0625 41.4147 27.625 40.4242 28.0625Z" fill="#E6E8EC"/>
<path fill-rule="evenodd" clip-rule="evenodd" d="M60.6669 31.625H59.2431C58.1288 33.9375 57.1383 36.3125 56.0859 38.6875H57.6955C57.9431 38.125 58.1288 37.625 58.3764 37.125H61.5955C61.8431 37.625 62.0288 38.1875 62.2764 38.6875C62.7717 38.6875 63.3907 38.75 63.8859 38.6875C62.7097 36.3125 61.7193 33.9375 60.6669 31.625ZM58.8717 35.75C59.2431 34.9375 59.6145 34.1875 59.924 33.375C60.2955 34.125 60.605 34.9375 60.9764 35.75C60.2955 35.75 59.5526 35.6875 58.8717 35.75Z" fill="#FCFCFD"/>
<path fill-rule="evenodd" clip-rule="evenodd" d="M16.2841 31.625H14.8603C13.746 33.9375 12.7555 36.3125 11.7031 38.6875H13.3126C13.5603 38.125 13.746 37.625 13.9936 37.125H17.2126C17.4603 37.625 17.646 38.1875 17.8936 38.6875C18.3888 38.6875 19.0079 38.75 19.5031 38.6875C18.3269 36.3125 17.3365 33.9375 16.2841 31.625ZM14.4888 35.75C14.8603 34.9375 15.2317 34.1875 15.5412 33.375C15.9126 34.125 16.2222 34.9375 16.5936 35.75C15.9126 35.75 15.1698 35.6875 14.4888 35.75Z" fill="#FCFCFD"/>
<path fill-rule="evenodd" clip-rule="evenodd" d="M54.9762 32.9378C54.7905 33.1253 54.6667 33.2503 54.481 33.4378C54.3572 33.5628 54.1096 34.0003 53.9858 34.0003C53.862 34.0003 53.6143 33.6253 53.5524 33.5628C53.181 33.3128 52.6858 33.0628 52.1286 33.0628C50.8286 33.0628 50.0858 34.0628 50.0858 35.2503C50.0858 36.3128 50.7667 37.3128 51.8191 37.4378C52.8096 37.5628 53.4286 37.0628 54.1096 36.5003C54.4191 36.8128 54.7286 37.1253 55.0381 37.4378C54.4191 38.1878 53.6762 38.7503 52.6858 38.8753C50.3953 39.1878 48.6001 37.6253 48.4762 35.5628C48.3524 33.5003 49.7762 31.8128 51.7572 31.6878C53.2429 31.5003 54.2334 32.1253 54.9762 32.9378Z" fill="#FCFCFD"/>
<path fill-rule="evenodd" clip-rule="evenodd" d="M23.9635 34.625C24.5826 33.6875 25.1397 32.6875 25.8207 31.75H27.4302V38.75H25.9445V34.25C25.2635 35.125 24.6445 36.25 23.9635 37.125C23.2826 36.1875 22.6635 35.1875 21.9826 34.25V38.75H20.5588C20.5588 36.4375 20.4969 34 20.5588 31.75H22.1683C22.2921 31.8125 22.5397 32.25 22.6635 32.4375C23.035 33.1875 23.5302 34 23.9635 34.625Z" fill="#FCFCFD"/>
<path fill-rule="evenodd" clip-rule="evenodd" d="M29.7183 31.75H35.0421V33.125H31.2659C31.204 33.5625 31.2659 34.0625 31.2659 34.5C32.3802 34.5 33.5564 34.4375 34.6088 34.5V35.875C33.5564 35.9375 32.3802 35.875 31.2659 35.875C31.204 36.3125 31.2659 36.8125 31.2659 37.3125H35.104V38.75H29.7183V31.8125C29.6564 31.8125 29.6564 31.75 29.7183 31.75Z" fill="#FCFCFD"/>
<path d="M46.3685 31.6875H44.8828V38.75H46.3685V31.6875Z" fill="#FCFCFD"/>
<path fill-rule="evenodd" clip-rule="evenodd" d="M41.3542 36.2501C42.3447 35.8751 42.9637 35.0626 42.778 33.6876C42.5304 31.3751 39.6828 31.6876 37.1447 31.7501C37.0828 34.0001 37.1447 36.4376 37.1447 38.7501H38.6923C38.6923 38.0001 38.6304 37.1876 38.6923 36.5001H39.6828C40.0542 37.0001 40.4876 37.6251 40.859 38.1876C40.9828 38.3751 41.1066 38.6876 41.2923 38.7501C41.7876 38.9376 42.4066 38.6251 43.0257 38.7501C42.5304 37.9376 41.8495 37.1251 41.3542 36.2501ZM41.1685 34.6251C40.859 35.3126 39.7447 35.1251 38.6923 35.1251C38.6923 34.5001 38.6304 33.7501 38.6923 33.1251C39.4971 33.1251 40.5495 33.0001 40.9828 33.4376C41.2304 33.7501 41.3542 34.1876 41.1685 34.6251Z" fill="#FCFCFD"/>
</svg>
