<svg width="78" height="50" viewBox="0 0 78 50" fill="none" xmlns="http://www.w3.org/2000/svg">
<path d="M51.625 11.125C52.7393 11.125 53.7917 11.125 54.844 11.125C54.844 11.25 54.9059 11.4375 54.9059 11.5625C54.9679 11.9375 55.0298 12.375 55.0917 12.75C55.1536 13.125 55.2155 13.5 55.2774 13.9375C55.3393 14.3125 55.4012 14.625 55.4631 15C55.525 15.25 55.525 15.4375 55.5869 15.6875C55.5869 15.875 55.6488 16.0625 55.6488 16.25C55.7107 16.5625 55.7726 16.8125 55.7726 17.125C55.8345 17.5 55.8964 17.875 55.9583 18.3125C56.0202 18.625 56.0202 18.875 56.0821 19.1875C56.144 19.5625 56.206 19.9375 56.2679 20.3125C56.3298 20.5 56.3298 20.75 56.3298 20.9375C56.3917 21.25 56.4536 21.5 56.4536 21.8125C56.5155 22.125 56.5155 22.4375 56.5774 22.75C56.5774 22.9375 56.6393 23.125 56.6393 23.3125C56.7012 23.5 56.7012 23.75 56.7631 23.9375C56.825 24.25 56.825 24.5 56.8869 24.8125C56.9488 25 56.9488 25.25 57.0107 25.4375C57.0726 25.6875 57.0726 25.9375 57.1345 26.125C57.1964 26.5 57.2583 26.8125 57.3202 27.1875C57.3202 27.25 57.3821 27.3125 57.3821 27.375C58.2488 22 59.1155 16.5625 59.9821 11.1875C61.0964 11.1875 62.1488 11.1875 63.2631 11.1875C63.2012 11.6875 63.0774 12.125 63.0155 12.5625C62.9536 12.9375 62.8917 13.25 62.8298 13.625C62.7679 13.875 62.7059 14.1875 62.644 14.4375C62.5821 14.75 62.5202 15 62.4583 15.3125C62.3964 15.625 62.3345 15.9375 62.2726 16.3125C62.2107 16.5625 62.2107 16.875 62.1488 17.125C62.0869 17.5 62.025 17.875 61.9631 18.3125C61.9012 18.625 61.8393 19 61.7774 19.3125C61.7155 19.8125 61.5917 20.3125 61.5298 20.75C61.4679 21.0625 61.4059 21.4375 61.344 21.75C61.2821 22.0625 61.2202 22.375 61.1583 22.6875C61.0964 22.9375 61.0964 23.25 61.0345 23.5C60.9726 23.8125 60.9107 24.125 60.8488 24.5C60.7869 24.8125 60.725 25.1875 60.6631 25.5C60.6012 25.8125 60.5393 26.1875 60.4774 26.5C60.4155 26.8125 60.3536 27.125 60.2917 27.4375C60.2298 27.9375 60.106 28.4375 60.044 29C59.9202 29.5625 59.8583 30.125 59.7345 30.6875C59.6726 31.0625 59.6107 31.4375 59.4869 31.8125C59.4869 31.875 59.4869 31.9375 59.4869 32.0625C59.3012 32.125 55.7726 32.125 55.2155 32.0625C55.2155 31.9375 55.1536 31.8125 55.1536 31.6875C55.0917 31.3125 55.0298 30.9375 54.9679 30.5625C54.906 30.3125 54.906 30.0625 54.844 29.75C54.7821 29.3125 54.7202 28.9375 54.5964 28.5625C54.5345 28.1875 54.4726 27.875 54.4107 27.5C54.3488 27.1875 54.2869 26.875 54.225 26.625C54.1631 26.3125 54.1012 26.0625 54.1012 25.75C54.0393 25.4375 53.9774 25.125 53.9155 24.75C53.8536 24.4375 53.7917 24.1875 53.7917 23.875C53.8536 23.625 53.8536 23.375 53.7917 23.125C53.7298 22.8125 53.6679 22.5 53.606 22.125C53.544 21.625 53.4202 21.125 53.3583 20.5625C53.2964 20.125 53.2345 19.75 53.1726 19.3125C53.0488 18.75 52.9869 18.25 52.8631 17.6875C52.8012 17.375 52.8012 17.125 52.7393 16.8125C52.6774 16.5 52.6155 16.1875 52.5536 15.875C52.4917 15.625 52.4298 15.3125 52.4298 15.0625C52.3679 14.8125 52.3679 14.5625 52.306 14.25C52.244 13.9375 52.1821 13.5625 52.1202 13.25C52.0583 12.875 51.9964 12.5 51.9345 12.125C51.7488 11.8125 51.6869 11.5 51.625 11.125Z" fill="#FCFCFD"/>
<path d="M50.8819 18.25C49.8295 18.25 48.7772 18.25 47.6629 18.25C47.6629 18.1875 47.6629 18.125 47.6629 18.0625C47.6629 17.3125 47.6629 16.625 47.6629 15.875C47.6629 15.5 47.5391 15.125 47.3533 14.8125C47.1057 14.4375 46.7343 14.125 46.2391 14.0625C45.4962 13.9375 44.8772 14.125 44.4438 14.75C44.1962 15.0625 44.0724 15.375 44.0724 15.8125C44.0724 15.875 44.0724 15.9375 44.0724 16C44.0724 19.75 44.0724 23.4375 44.0724 27.1875C44.0724 27.4375 44.0724 27.6875 44.1343 27.875C44.3819 28.5 44.8153 28.9375 45.4962 29.0625C45.8676 29.125 46.2391 29.125 46.5486 28.9375C46.8581 28.8125 47.1057 28.5625 47.2914 28.3125C47.5391 28 47.601 27.625 47.601 27.25C47.601 26.375 47.601 25.5 47.601 24.625C47.601 24.5625 47.601 24.5 47.601 24.4375C48.6533 24.4375 49.7676 24.4375 50.82 24.4375C50.82 24.5 50.82 24.5625 50.82 24.5625C50.82 25.5625 50.82 26.5 50.82 27.5C50.82 28 50.6962 28.5625 50.5724 29C50.3867 29.5625 50.0772 30 49.7676 30.4375C49.3962 30.875 49.0248 31.25 48.5295 31.5C48.0962 31.8125 47.5391 32 47.0438 32.125C46.5486 32.25 45.9914 32.25 45.4962 32.25C44.6295 32.1875 43.8248 31.9375 43.1438 31.4375C42.6486 31.0625 42.2153 30.625 41.8438 30.125C41.5343 29.75 41.3486 29.3125 41.2248 28.8125C41.1629 28.5 41.0391 28.1875 41.0391 27.875C41.0391 27.6875 41.0391 27.4375 41.0391 27.25C41.0391 23.4375 41.0391 19.625 41.0391 15.8125C41.0391 15.4375 41.101 15.0625 41.1629 14.6875C41.2248 14.3125 41.3486 14 41.5343 13.625C41.72 13.25 41.9676 12.9375 42.2152 12.625C42.5248 12.25 42.8962 11.9375 43.2676 11.6875C43.7629 11.375 44.32 11.125 44.8772 11C45.0629 10.9375 45.2486 10.9375 45.4343 10.9375C45.6819 10.875 45.8676 10.875 46.1153 10.9375C46.92 10.9375 47.7248 11.1875 48.4057 11.625C48.7772 11.875 49.1486 12.125 49.4581 12.5C50.0772 13.125 50.5105 13.9375 50.6962 14.8125C50.7581 15.0625 50.7581 15.3125 50.82 15.5625C50.9438 16.375 50.8819 17.25 50.8819 18.25Z" fill="#FCFCFD"/>
<path d="M31.4453 11.125C32.4977 11.125 33.4882 11.125 34.5406 11.125C34.5406 17.0625 34.5406 22.9375 34.5406 28.875C34.5406 28.875 34.5406 28.875 34.6025 28.875C36.3977 28.875 38.131 28.875 39.9263 28.875C39.9882 29 39.9882 31.5 39.9263 31.9375C39.8025 32 31.8167 32 31.4453 31.9375C31.4453 25.0625 31.4453 18.0625 31.4453 11.125Z" fill="#FCFCFD"/>
<path d="M23.2725 25.9375C22.4058 27.9375 21.601 29.9375 20.7344 32L23.2725 25.9375Z" fill="#FCFCFD"/>
<path d="M35.3463 37.0629C35.2225 36.6879 35.0987 36.3754 34.9749 36.0004C35.0987 36.0004 35.1606 36.0004 35.2844 36.0004C35.3463 36.2504 35.4701 36.5004 35.5939 36.7504C35.7177 36.5004 35.7796 36.2504 35.9034 36.0004C36.0272 36.0004 36.0891 36.0004 36.2129 36.0004C36.2129 36.1254 36.151 36.2504 36.0891 36.3754C36.0272 36.5629 35.9653 36.7504 35.9034 36.9379C35.9034 37.0004 35.9034 37.0629 35.9034 37.0629C35.9653 37.3129 36.0891 37.5629 36.2129 37.8129C36.2129 37.8129 36.2129 37.8129 36.2748 37.8754C36.5225 37.2504 36.7701 36.5629 37.0177 35.9379C37.1415 35.9379 37.2653 35.9379 37.3891 35.9379C37.0796 36.7504 36.7701 37.5004 36.3987 38.3129C36.2748 38.3129 36.2129 38.3129 36.0891 38.3129C35.9034 38.0004 35.8415 37.6254 35.6558 37.3129C35.532 37.5004 35.4701 37.6879 35.4082 37.8129C35.3463 38.0004 35.2844 38.1254 35.2225 38.3129C35.0987 38.3129 35.0368 38.3129 34.9129 38.3129C34.6034 37.5629 34.2939 36.7504 33.9844 35.9379C34.1082 35.8754 34.232 35.9379 34.3558 35.9379C34.4177 36.1254 34.5415 36.3754 34.6034 36.5629C34.7272 36.9379 34.9129 37.3754 35.0368 37.7504C35.0368 37.8129 35.0987 37.8129 35.0987 37.8754C35.0987 37.6254 35.2225 37.3754 35.3463 37.0629Z" fill="#FCFCFD"/>
<path d="M55.3438 38.7496C55.4057 38.6871 55.4676 38.6246 55.5295 38.5621C55.6533 38.6246 55.7152 38.6871 55.839 38.7496C55.9628 38.8121 56.1485 38.8121 56.3342 38.8121C56.5818 38.7496 56.7057 38.6246 56.7057 38.3746C56.7057 38.2496 56.7057 38.1871 56.7057 38.0621C56.6437 38.1246 56.5818 38.1246 56.5818 38.1871C56.3342 38.4371 55.9009 38.4371 55.6533 38.1871C55.3438 37.9371 55.2818 37.6246 55.4057 37.2496C55.4676 36.9996 55.5914 36.8121 55.839 36.6871C56.0866 36.5621 56.458 36.6246 56.6437 36.8121C56.7057 36.8746 56.7057 36.8746 56.7676 36.9371C56.7676 36.9371 56.7676 36.9371 56.8295 36.9371C56.8914 36.8746 56.8295 36.7496 56.8914 36.6871C56.9533 36.6246 57.0771 36.6871 57.2009 36.6871C57.2009 36.7496 57.2009 36.8121 57.2009 36.8746C57.2009 37.3121 57.2009 37.7496 57.2009 38.1871C57.2009 38.3121 57.2009 38.4371 57.139 38.5621C57.0771 38.8746 56.8914 39.0621 56.5818 39.1246C56.2723 39.2496 55.9628 39.1871 55.7152 39.0621C55.5295 38.9371 55.4057 38.8746 55.3438 38.7496ZM56.7057 37.4996C56.7676 37.3746 56.7057 37.1871 56.5818 37.0621C56.3961 36.8746 56.1485 36.8121 55.9628 36.9371C55.6533 37.1246 55.5914 37.6246 55.839 37.8746C56.0866 38.1246 56.2723 38.1246 56.5199 37.9371C56.7057 37.8746 56.7057 37.6871 56.7057 37.4996Z" fill="#FCFCFD"/>
<path d="M47.2338 38.7496C47.2957 38.6871 47.3576 38.6246 47.4195 38.5621C47.5433 38.6871 47.6052 38.7496 47.7909 38.8121C47.9766 38.8746 48.1624 38.8746 48.2862 38.7496C48.41 38.6871 48.4719 38.6246 48.5338 38.4996C48.5957 38.3746 48.5957 38.2496 48.5338 38.1246C48.4719 38.1871 48.4719 38.1871 48.41 38.1871C48.3481 38.2496 48.2243 38.3121 48.1624 38.3121C47.6052 38.4996 47.1719 37.9996 47.1719 37.5621C47.1719 37.3746 47.1719 37.1246 47.2957 36.9371C47.3576 36.8121 47.4814 36.6871 47.6052 36.6246C47.8528 36.4996 48.2243 36.5621 48.4719 36.7496C48.5338 36.8121 48.5338 36.8121 48.5957 36.8746C48.5957 36.7496 48.5957 36.6871 48.5957 36.5621C48.6576 36.5621 48.7814 36.5621 48.8433 36.5621C48.8433 36.6246 48.8433 36.6871 48.8433 36.6871C48.8433 37.1871 48.8433 37.6871 48.8433 38.2496C48.8433 38.6246 48.6576 38.8746 48.3481 38.9996C48.0385 39.1246 47.6671 39.1246 47.4195 38.9371C47.4195 38.9371 47.3576 38.8746 47.2338 38.7496ZM47.9147 36.9371L47.8528 36.9996C47.6052 37.1246 47.4814 37.6246 47.6671 37.8746C47.9147 38.2496 48.3481 38.2496 48.5957 37.8746C48.6576 37.7496 48.6576 37.6246 48.6576 37.4996C48.6576 37.3746 48.5957 37.2496 48.5338 37.1246C48.3481 36.9371 48.1624 36.8746 47.9147 36.9371Z" fill="#FCFCFD"/>
<path d="M16.2153 36C16.5867 36 16.8962 36.1875 17.0819 36.5625C17.2057 36.75 17.2676 36.9375 17.2676 37.1875C17.2676 37.4375 17.2057 37.6875 17.0819 37.875C16.9581 38.0625 16.7724 38.25 16.5867 38.3125C16.2153 38.5 15.7819 38.4375 15.4724 38.1875C15.1629 37.9375 15.0391 37.5625 15.0391 37.1875C15.0391 36.625 15.4105 36.125 16.0295 36C16.0295 36 16.0914 36 16.2153 36ZM16.8962 37.1875C16.8962 36.875 16.8343 36.6875 16.5867 36.5C16.401 36.3125 16.1533 36.25 15.9057 36.375C15.72 36.4375 15.5962 36.5625 15.5343 36.6875C15.4105 36.875 15.3486 37.0625 15.4105 37.25C15.4105 37.4375 15.4724 37.625 15.5962 37.8125C15.7819 38.0625 16.2153 38.25 16.5867 38C16.7724 37.75 16.8962 37.5 16.8962 37.1875Z" fill="#FCFCFD"/>
<path d="M21.7266 38.3125C21.7266 37.5625 21.7266 36.75 21.7266 36C21.8504 35.9375 23.0885 35.9375 23.2742 36C23.2742 36.0625 23.2742 36.0625 23.2742 36.125C23.2742 36.1875 23.2742 36.1875 23.2742 36.25C23.2123 36.25 23.1504 36.25 23.0885 36.25C22.7789 36.25 22.5313 36.25 22.2218 36.25C22.1599 36.25 22.098 36.25 22.0361 36.25C22.0361 36.5 22.0361 36.6875 22.0361 36.9375C22.2218 37 22.3456 36.9375 22.5313 36.9375C22.717 36.9375 22.9028 36.9375 23.0266 36.9375C23.0266 37 23.0266 37.125 23.0266 37.25C22.6551 37.25 22.3456 37.25 21.9742 37.25C21.9742 37.5 21.9742 37.75 21.9742 38C22.1599 38 22.4075 38 22.5932 38C22.7789 38 22.9647 38 23.2123 38C23.2123 38.125 23.2123 38.1875 23.2123 38.3125C23.1504 38.375 21.9742 38.375 21.7266 38.3125Z" fill="#FCFCFD"/>
<path d="M28.348 38.3754C28.2242 38.3754 28.1004 38.3754 27.9766 38.3754C27.9766 37.5629 27.9766 36.8129 27.9766 36.0004C28.1004 35.9379 28.1623 36.0004 28.348 36.0004C28.348 36.1879 28.348 36.3129 28.348 36.5004C28.348 36.6879 28.348 36.8129 28.348 37.0004C28.4718 36.8754 28.5337 36.7504 28.7194 36.7504C28.9051 36.6879 29.0289 36.6879 29.2147 36.7504C29.4004 36.8129 29.4623 36.9379 29.5242 37.0629C29.5242 37.1879 29.5861 37.3129 29.5861 37.4379C29.5861 37.6879 29.5861 38.0004 29.5861 38.2504C29.5861 38.3129 29.5861 38.3754 29.5861 38.4379C29.4623 38.4379 29.3385 38.4379 29.2766 38.4379C29.2766 38.3754 29.2766 38.3129 29.2766 38.3129C29.2766 38.0629 29.2766 37.8129 29.2766 37.5004C29.2766 37.4379 29.2766 37.3129 29.2147 37.2504C29.1528 37.0004 28.9051 36.8754 28.6575 37.0629C28.4718 37.1879 28.348 37.3129 28.348 37.5629C28.348 37.7504 28.348 38.0629 28.348 38.3754Z" fill="#FCFCFD"/>
<path d="M58.747 37C59.0565 37 59.3661 37 59.6756 37C59.6756 37.125 59.6756 37.1875 59.7375 37.3125C59.6137 37.375 59.5518 37.3125 59.428 37.375C59.3042 37.375 59.1804 37.375 59.1185 37.375C58.9946 37.375 58.9327 37.375 58.8089 37.375C58.8089 37.75 58.8089 38.0625 58.8089 38.375C58.6851 38.375 58.5613 38.375 58.4375 38.375C58.4375 37.625 58.4375 36.8125 58.4375 36.0625C58.5613 36 59.7994 36 59.9851 36.0625C59.9851 36.125 59.9851 36.25 59.9851 36.375C59.6137 36.375 59.2423 36.375 58.8089 36.375C58.747 36.5 58.8089 36.625 58.8089 36.75C58.747 36.75 58.747 36.875 58.747 37Z" fill="#FCFCFD"/>
<path d="M43.3289 38.3754C43.2051 38.3754 43.0812 38.3754 43.0193 38.3754C43.0193 38.3129 43.0193 38.2504 43.0193 38.1879C43.0193 37.8754 43.0193 37.6254 43.0193 37.3129C43.0193 37.2504 43.0193 37.1879 43.0193 37.1254C42.9574 36.8754 42.7717 36.8129 42.586 36.8754C42.2765 37.0004 42.0908 37.2504 42.0908 37.5004C42.0908 37.7504 42.0908 37.9379 42.0908 38.1879C42.0908 38.2504 42.0908 38.3129 42.0908 38.3754C42.0289 38.3754 41.967 38.3754 41.967 38.3754C41.9051 38.3754 41.8432 38.3754 41.7812 38.3754C41.7812 37.5629 41.7812 36.7504 41.7812 36.0004C41.9051 35.9379 41.967 36.0004 42.0908 36.0004C42.0908 36.1879 42.0908 36.3129 42.0908 36.5004C42.0908 36.6254 42.0908 36.8129 42.0908 37.0004C42.1527 36.9379 42.2146 36.9379 42.2146 36.8754C42.4003 36.6254 42.7098 36.6254 42.9574 36.6879C43.1432 36.6879 43.267 36.9379 43.267 37.1879C43.267 37.5004 43.267 37.7504 43.267 38.0629C43.3289 38.1254 43.3289 38.2504 43.3289 38.3754Z" fill="#FCFCFD"/>
<path d="M49.77 38.375C49.6462 38.375 49.5843 38.375 49.4605 38.375C49.3986 38.25 49.3986 36.375 49.4605 36C49.5224 36 49.5843 36 49.5843 36C49.6462 36 49.6462 36 49.77 36C49.77 36.1875 49.77 36.3125 49.77 36.5C49.77 36.6875 49.77 36.8125 49.77 37C49.8319 36.9375 49.8938 36.9375 49.8938 36.875C50.0176 36.75 50.2033 36.625 50.3891 36.6875H50.451C50.8224 36.625 50.9462 36.9375 50.9462 37.1875C50.9462 37.25 50.9462 37.3125 50.9462 37.4375C50.9462 37.75 50.9462 38.125 50.9462 38.4375C50.8224 38.5 50.7605 38.4375 50.6367 38.4375C50.6367 38.375 50.6367 38.3125 50.6367 38.25C50.6367 38 50.6367 37.75 50.6367 37.5C50.6367 37.375 50.6367 37.3125 50.5748 37.1875C50.5129 36.9375 50.3272 36.875 50.0795 37C49.8319 37.125 49.7081 37.3125 49.7081 37.5625C49.77 37.8125 49.77 38.0625 49.77 38.375Z" fill="#FCFCFD"/>
<path d="M45.9947 37.0625C45.9947 37.1875 45.9947 37.25 45.9947 37.375C45.6852 37.375 45.3757 37.375 45.0042 37.375C45.0042 37.5625 45.0042 37.75 45.0042 37.875C45.0042 38.0625 45.0042 38.1875 45.0042 38.375C44.8804 38.375 44.7566 38.375 44.6328 38.375C44.6328 37.625 44.6328 36.8125 44.6328 36.0625L44.6947 36C45.19 36 45.6852 36 46.1804 36C46.1804 36.125 46.1804 36.1875 46.1804 36.3125C45.809 36.3125 45.4376 36.3125 45.0661 36.3125C45.0661 36.3125 45.0661 36.3125 45.0042 36.375C45.0042 36.5625 45.0042 36.8125 45.0042 37.0625C45.19 37.125 45.3138 37.0625 45.4995 37.0625C45.6852 37.0625 45.809 37.0625 45.9947 37.0625Z" fill="#FCFCFD"/>
<path d="M38.0698 36.6251C38.565 36.5626 38.9365 37.0001 38.9365 37.5001C38.9365 38.0001 38.5031 38.3751 38.0698 38.3751C37.5126 38.3751 37.2031 37.9376 37.2031 37.5001C37.2031 37.0001 37.5746 36.5626 38.0698 36.6251ZM37.5746 37.5001C37.5746 37.6876 37.6365 37.8751 37.7603 38.0001C37.8841 38.1251 38.0079 38.1876 38.1936 38.1251C38.3793 38.0626 38.565 37.9376 38.6269 37.6876C38.6888 37.4376 38.6888 37.2501 38.5031 37.0626C38.3174 36.8751 38.0698 36.8751 37.8841 37.0001C37.6365 37.1251 37.5127 37.2501 37.5746 37.5001Z" fill="#FCFCFD"/>
<path d="M61.7802 37.5C61.8421 38 61.3469 38.4375 60.9135 38.4375C60.3564 38.4375 60.0469 38 60.0469 37.5C60.0469 37 60.4183 36.625 60.9135 36.625C61.4088 36.625 61.8421 37 61.7802 37.5ZM61.4088 37.5C61.4088 37.375 61.4088 37.25 61.3469 37.125C61.2231 36.9375 60.9135 36.8125 60.7278 36.9375C60.2945 37.1875 60.2945 37.75 60.604 38C60.7897 38.125 60.9754 38.125 61.1612 38C61.3469 37.875 61.4707 37.75 61.4088 37.5Z" fill="#FCFCFD"/>
<path d="M18.8174 36.6254C18.9412 36.6254 19.065 36.6254 19.1888 36.6254C19.1888 37.0629 19.1888 37.5004 19.1888 37.9379C19.2507 38.0004 19.2507 38.0629 19.3126 38.0629C19.3126 38.1254 19.3126 38.2504 19.3126 38.3129C19.1888 38.3754 19.065 38.3754 18.9412 38.2504C18.9412 38.1879 18.9412 38.1254 18.9412 38.0004C18.8793 38.0629 18.8793 38.0629 18.8174 38.1254C18.6317 38.3129 18.3841 38.3754 18.1365 38.3754C17.9507 38.3754 17.765 38.1879 17.765 38.0004C17.765 37.8754 17.7031 37.7504 17.7031 37.5629C17.7031 37.2504 17.7031 36.9379 17.7031 36.6254C17.8269 36.5629 17.9507 36.6254 18.0746 36.6254C18.0746 36.6879 18.0746 36.7504 18.0746 36.8129C18.0746 37.0629 18.0746 37.3754 18.0746 37.6254C18.0746 37.6879 18.0746 37.7504 18.0746 37.8129C18.1365 38.1254 18.3222 38.2504 18.6317 38.1254C18.8174 38.0004 18.9412 37.8754 18.9412 37.6254C18.8174 37.2504 18.8174 36.9379 18.8174 36.6254Z" fill="#FCFCFD"/>
<path d="M25.0711 38C25.0711 38.0625 25.133 38.0625 25.133 38.125C25.133 38.1875 25.133 38.3125 25.133 38.375C25.0092 38.4375 24.9472 38.375 24.8234 38.375C24.8234 38.3125 24.7615 38.25 24.7615 38.1875C24.3282 38.625 23.833 38.5 23.5853 38.125C23.5853 38.0625 23.5234 37.9375 23.5234 37.8125C23.5234 37.625 23.6472 37.5 23.833 37.375C24.0806 37.25 24.3282 37.3125 24.6377 37.375H24.6996C24.7615 37.125 24.6996 37 24.5139 36.875C24.2044 36.75 23.9568 36.875 23.7711 37H23.7092C23.7092 36.9375 23.6472 36.875 23.6472 36.8125C23.833 36.6875 23.9568 36.625 24.2044 36.625C24.3282 36.625 24.452 36.625 24.5139 36.625C24.7615 36.625 25.0092 36.875 25.0092 37.125C25.0711 37.3125 25.0092 37.5 25.0092 37.6875C25.0711 37.75 25.0711 37.875 25.0711 38ZM23.833 37.875C24.0187 38.3125 24.3901 38.3125 24.6996 37.875C24.6996 37.75 24.6996 37.6875 24.6996 37.625C24.5139 37.5 24.452 37.5 24.2663 37.5C24.0187 37.5 23.8949 37.625 23.833 37.875Z" fill="#FCFCFD"/>
<path d="M53.731 36.9375C53.7929 36.9375 53.7929 36.9375 53.8548 36.875C54.0405 36.625 54.35 36.625 54.6595 36.625C54.7833 36.625 54.9071 36.75 54.9071 36.875C54.9071 36.9375 54.969 37.0625 54.969 37.125C54.969 37.5 54.969 37.9375 54.969 38.3125C54.8452 38.375 54.7833 38.3125 54.6595 38.3125C54.6595 38.25 54.6595 38.1875 54.6595 38.125C54.6595 37.875 54.6595 37.5625 54.6595 37.3125C54.6595 37.1875 54.6595 37.125 54.5976 37C54.5357 36.8125 54.35 36.75 54.1643 36.8125C53.9786 36.875 53.731 37.125 53.731 37.375C53.731 37.625 53.731 37.9375 53.731 38.1875C53.6071 38.25 53.5452 38.1875 53.4214 38.1875C53.3595 38.0625 53.3595 36.875 53.4214 36.4375C53.4833 36.4375 53.6071 36.4375 53.669 36.4375C53.7309 36.75 53.731 36.8125 53.731 36.9375Z" fill="#FCFCFD"/>
<path d="M31.9423 37.125C32.0042 37.25 32.1281 37.25 32.2519 37.3125C32.3757 37.375 32.4995 37.375 32.6233 37.4375C32.7471 37.5 32.8709 37.5625 32.9947 37.6875C32.9947 37.75 32.9947 37.8125 33.0566 37.875C33.0566 37.875 33.0566 37.875 33.0566 37.9375C32.9947 38.3125 32.7471 38.375 32.4995 38.4375C32.2519 38.4375 32.0042 38.4375 31.7566 38.25C31.6947 38.25 31.6947 38.1875 31.6328 38.1875C31.6947 38.125 31.6947 38.0625 31.7566 38C31.9423 38.0625 32.0661 38.125 32.2519 38.1875C32.4376 38.25 32.6233 38.1875 32.7471 38C32.7471 37.875 32.6852 37.8125 32.6233 37.75C32.4376 37.6875 32.3138 37.625 32.1281 37.5625C32.0661 37.5625 32.0042 37.5 31.9423 37.5C31.8185 37.4375 31.7566 37.375 31.7566 37.25C31.7566 36.9375 31.9423 36.6875 32.2519 36.6875C32.4995 36.6875 32.7471 36.6875 32.9328 36.8125C32.9947 36.8125 32.9947 36.875 33.0566 36.875C32.8709 36.875 32.809 36.9375 32.809 37C32.4376 36.8125 32.3138 36.75 32.0661 36.875C32.0042 36.9375 32.0042 36.9375 31.9423 37C31.9423 37.0625 31.9423 37.125 31.9423 37.125Z" fill="#FCFCFD"/>
<path d="M51.5054 36.9375C51.4435 36.9375 51.3816 36.9375 51.2578 36.9375C51.2578 36.875 51.2578 36.75 51.2578 36.6875C51.2578 36.6875 51.3197 36.6875 51.3816 36.6875C51.4435 36.6875 51.4435 36.6875 51.5054 36.6875C51.5054 36.5 51.5054 36.3125 51.5054 36.125C51.6292 36.125 51.6911 36.125 51.815 36.125C51.815 36.3125 51.815 36.5 51.815 36.6875C51.9388 36.6875 52.0626 36.6875 52.1864 36.6875C52.1864 36.8125 52.1864 36.875 52.1864 36.9375C52.0626 36.9375 51.9388 36.9375 51.815 36.9375C51.815 37.3125 51.815 37.625 51.815 38C51.9388 38.1875 52.0626 38.125 52.2483 38.0625C52.2483 38.125 52.3102 38.1875 52.3102 38.3125C52.1245 38.4375 51.9388 38.5 51.6911 38.4375C51.5054 38.375 51.4435 38.25 51.3816 38.0625C51.3816 37.75 51.3816 37.5 51.3816 37.1875C51.5054 37.0625 51.5054 37 51.5054 36.9375Z" fill="#FCFCFD"/>
<path d="M41.1653 38.0625C41.2891 38.0625 41.351 38 41.4749 38C41.4749 38.0625 41.5368 38.1875 41.5368 38.25C41.2891 38.375 41.0415 38.4375 40.7939 38.25C40.732 38.125 40.6701 38 40.6701 37.875C40.6701 37.5625 40.6701 37.1875 40.6701 36.875C40.6082 36.875 40.5463 36.875 40.4844 36.8125C40.4844 36.75 40.4844 36.625 40.4844 36.5625C40.5463 36.5625 40.6082 36.5625 40.6701 36.5625C40.6701 36.375 40.6701 36.1875 40.6701 36C40.7939 36 40.8558 36 40.9796 36C40.9796 36.1875 40.9796 36.375 40.9796 36.5625C41.1034 36.5625 41.2272 36.5625 41.351 36.5625C41.351 36.6875 41.351 36.75 41.351 36.8125C41.2272 36.8125 41.1034 36.8125 40.9796 36.8125C40.9796 37 40.9796 37.125 40.9796 37.3125C40.9796 37.5 40.9796 37.625 40.9796 37.8125C41.0415 38 41.1034 38 41.1653 38.0625Z" fill="#FCFCFD"/>
<path d="M26.6172 36.625C26.6791 36.625 26.741 36.625 26.8029 36.625C26.8648 36.4375 26.8029 36.25 26.8648 36.0625C26.9886 36.0625 27.0505 36.0625 27.1743 36.0625C27.1743 36.25 27.1124 36.4375 27.1743 36.625C27.2981 36.625 27.4219 36.625 27.5458 36.625C27.6077 36.75 27.5458 36.8125 27.6077 36.9375C27.4839 36.9375 27.36 36.9375 27.2362 36.9375C27.2362 37 27.2362 37.0625 27.2362 37.125C27.2362 37.375 27.2362 37.625 27.2362 37.875C27.2362 38 27.2362 38.0625 27.36 38.125C27.4839 38.1875 27.5458 38.125 27.6696 38.0625C27.6696 38.1875 27.7315 38.25 27.7315 38.3125C27.4839 38.4375 27.2981 38.5 27.0505 38.375C26.9886 38.3125 26.9886 38.3125 26.9267 38.25C26.9267 37.8125 26.9267 37.4375 26.9267 37C26.8648 37 26.8029 37 26.6791 37C26.6172 36.8125 26.6172 36.75 26.6172 36.625Z" fill="#FCFCFD"/>
<path d="M30.8281 36C30.9519 36 31.0138 36 31.1376 36C31.1376 36.8125 31.1376 37.5625 31.1376 38.375C31.0757 38.375 31.0757 38.375 31.0757 38.375C31.0138 38.375 30.89 38.375 30.8281 38.375C30.8281 38.1875 30.8281 36.1875 30.8281 36Z" fill="#FCFCFD"/>
<path d="M19.9966 38.375C19.8728 38.375 19.749 38.375 19.6871 38.375C19.6251 38.25 19.6251 37.1875 19.6871 36.6875C19.749 36.6875 19.8728 36.6875 19.9966 36.6875C19.9966 36.8125 19.9966 36.875 19.9966 37.0625C20.1823 36.875 20.3061 36.6875 20.6156 36.6875C20.6156 36.8125 20.6156 36.875 20.6156 37C20.4918 37 20.4299 37.0625 20.3061 37.0625C20.1204 37.125 19.9966 37.3125 19.9966 37.5C19.9966 37.75 19.9966 38.0625 19.9966 38.375Z" fill="#FCFCFD"/>
<path d="M25.5022 36.625C25.626 36.625 25.6879 36.625 25.8117 36.625C25.8736 36.75 25.7498 36.875 25.8736 37C25.9974 36.75 26.1832 36.625 26.4308 36.625C26.4308 36.75 26.4308 36.8125 26.4308 36.9375C26.307 36.9375 26.1213 37 26.0593 37.0625C25.9355 37.1875 25.8736 37.25 25.8736 37.4375C25.8736 37.6875 25.8736 37.9375 25.8736 38.1875C25.8736 38.25 25.8736 38.3125 25.8736 38.375C25.7498 38.375 25.626 38.375 25.5641 38.375C25.5022 38.1875 25.4403 37.125 25.5022 36.625Z" fill="#FCFCFD"/>
<path d="M39.6763 37.25C39.6763 37.625 39.6763 37.9375 39.6763 38.3125C39.5525 38.3125 39.4286 38.3125 39.3667 38.3125C39.3048 38.1875 39.3048 37.0625 39.3667 36.625C39.4906 36.625 39.5525 36.625 39.6763 36.625C39.7382 36.75 39.6763 36.8125 39.7382 36.9375C40.0477 36.625 40.1096 36.625 40.3572 36.625C40.3572 36.75 40.3572 36.8125 40.3572 36.9375C40.0477 36.9375 39.8001 37.0625 39.6763 37.25Z" fill="#FCFCFD"/>
<path d="M63.0838 36.9371C62.8362 36.9371 62.7123 36.9996 62.5266 37.1871C62.4647 37.2496 62.4028 37.3746 62.4028 37.4371C62.4028 37.6871 62.4028 37.8746 62.4028 38.1246C62.4028 38.1871 62.4028 38.2496 62.4028 38.3121C62.279 38.3746 62.2171 38.3121 62.0933 38.3121C62.0314 38.1871 62.0314 36.9371 62.0933 36.5621C62.2171 36.5621 62.279 36.5621 62.4028 36.5621C62.4647 36.6871 62.4028 36.7496 62.4647 36.8746C62.6504 36.6871 62.7743 36.4996 63.0838 36.5621C63.0838 36.6246 63.0838 36.6871 63.0838 36.6871C63.0838 36.8121 63.0838 36.8746 63.0838 36.9371Z" fill="#FCFCFD"/>
<path d="M46.5542 36.625C46.6781 36.625 46.8019 36.625 46.8638 36.625C46.8638 37.1875 46.8638 37.75 46.8638 38.3125C46.74 38.3125 46.6781 38.3125 46.5542 38.3125C46.4923 38.1875 46.4923 37 46.5542 36.625Z" fill="#FCFCFD"/>
<path d="M52.6172 36.625C52.741 36.625 52.8029 36.625 52.9267 36.625C52.9886 36.75 52.9886 38 52.9267 38.3125C52.8648 38.3125 52.8029 38.3125 52.8029 38.3125C52.741 38.3125 52.741 38.3125 52.6791 38.3125C52.6172 38.1875 52.6172 37 52.6172 36.625Z" fill="#FCFCFD"/>
<path d="M46.8642 36.3125C46.7404 36.3125 46.6166 36.3125 46.5547 36.3125C46.5547 36.1875 46.5547 36.0625 46.5547 35.9375C46.6166 35.9375 46.6785 35.9375 46.7404 35.9375C46.8023 35.9375 46.8642 35.9375 46.9261 35.9375C46.8642 36.0625 46.8642 36.1875 46.8642 36.3125Z" fill="#FCFCFD"/>
<path d="M52.9267 36.3125C52.8029 36.3125 52.741 36.3125 52.6172 36.3125C52.6172 36.1875 52.6172 36.0625 52.6172 35.9375C52.741 35.9375 52.8029 35.9375 52.9267 35.9375C52.9267 36.0625 52.9267 36.1875 52.9267 36.3125Z" fill="#FCFCFD"/>
<path d="M22.7837 19.875C22.7837 20 22.7212 20 22.7212 20.0625C22.6587 20 22.7212 19.9375 22.7837 19.875Z" fill="#FCFCFD"/>
<path d="M19.6875 23.875L23.4018 25.75L29.4065 11.125L19.6875 23.875Z" fill="#FCFCFD"/>
<path d="M19.4993 24.0625C19.4374 24.0625 19.3754 24 19.3135 24C18.0754 23.375 16.8374 22.75 15.5993 22.125C15.4754 22.0625 15.4135 22 15.2897 21.9375C15.104 21.8125 14.9183 21.75 14.6707 21.625C14.6707 21.625 14.6088 21.625 14.5469 21.625C16.6516 25.0625 18.6945 28.5 20.7993 32L23.2754 26L19.4993 24.0625Z" fill="#FCFCFD"/>
</svg>
