<svg width="78" height="50" viewBox="0 0 78 50" fill="none" xmlns="http://www.w3.org/2000/svg">
<path d="M69.4392 32.9187H68.8202H50.3292C50.2806 32.8453 50.2607 32.7562 50.2735 32.6688C50.2735 30.6188 50.2735 28.5625 50.2735 26.5125C50.2735 26.4125 50.224 26.2937 50.3354 26.225C50.3621 26.2224 50.3889 26.2283 50.4122 26.2417C50.4355 26.2551 50.4541 26.2755 50.4654 26.3C51.524 27.8375 53.053 28.175 54.743 27.8625C55.4883 27.7421 56.1763 27.3852 56.7072 26.8436C57.2381 26.3019 57.5844 25.6037 57.6959 24.85C58.0674 23.0969 58.0674 21.2843 57.6959 19.5312C57.5724 18.7239 57.1912 17.9792 56.6102 17.4107C56.0291 16.8421 55.28 16.4806 54.4769 16.3812C53.7406 16.228 52.9759 16.2968 52.278 16.579C51.5801 16.8613 50.9799 17.3446 50.5521 17.9688C50.5088 18.0313 50.4902 18.1375 50.3045 18.1062V14.725H48.0078V11.3438H69.4269L69.4392 32.9187ZM67.2107 27.8C67.3097 26.4875 67.2664 16.9187 67.1611 16.55H64.5921V22.4688H64.5054C63.6099 20.4813 62.7205 18.5021 61.8373 16.5313H59.3054V27.7812H61.9054V21.7563H61.9859L64.6973 27.8187L67.2107 27.8Z" fill="#CCCCCC"/>
<path d="M48.0045 14.7246H50.2702V18.1246C50.456 18.1559 50.4745 18.0496 50.5179 17.9871C50.9455 17.3539 51.5498 16.8632 52.254 16.5772C52.9583 16.2913 53.7308 16.2229 54.4736 16.3809C55.2852 16.4732 56.0441 16.8331 56.6327 17.4048C57.2214 17.9764 57.6069 18.7281 57.7298 19.5434C58.1012 21.2964 58.1012 23.109 57.7298 24.8621C57.6183 25.6158 57.272 26.314 56.7411 26.8557C56.2102 27.3973 55.5222 27.7542 54.7769 27.8746C53.0869 28.1746 51.5579 27.8746 50.4993 26.3121C50.4879 26.2876 50.4693 26.2672 50.4461 26.2538C50.4228 26.2404 50.396 26.2346 50.3693 26.2371C50.2579 26.3059 50.3074 26.4246 50.3074 26.5246C50.3074 28.5746 50.3074 30.6309 50.3074 32.6809C50.2946 32.7683 50.3145 32.8574 50.3631 32.9309C50.2826 33.8371 50.3631 34.7371 50.326 35.6371C50.3444 35.8716 50.3277 36.1076 50.2764 36.3371H32.3241V38.5309H8.66406V16.9684H29.4764V14.7246H30.0955H47.4288H48.0045ZM35.9022 27.0621L34.305 19.9996H32.2993C32.2993 20.7434 32.2993 21.4496 32.2993 22.1559C32.2961 22.5094 32.3462 22.8613 32.4479 23.1996L34.0636 28.8246L34.6826 31.1121H37.2083C38.2896 27.3996 39.3585 23.6954 40.415 19.9996H37.6417C37.3012 21.4871 36.9731 22.9496 36.6203 24.4121C36.4098 25.3059 36.2674 26.2121 36.0012 27.0809L35.9022 27.0621ZM18.5069 27.5371C18.4264 29.4559 18.3583 31.3809 18.4264 33.2934H20.9026V22.1559H17.8074L15.9503 29.2871H15.8574L14.0003 22.1746H10.905V33.2996H13.3812C13.4431 31.3121 13.3812 29.3496 13.3317 27.3746L15.0526 33.2871H16.7922L18.4079 27.4996C18.4388 27.5434 18.4636 27.6121 18.5193 27.5371H18.5069ZM22.4812 28.0121C22.4562 28.6948 22.4873 29.3784 22.5741 30.0559C22.6632 30.6916 22.9015 31.2967 23.2691 31.8207C23.6367 32.3446 24.1229 32.7724 24.6873 33.0683C25.2517 33.3643 25.878 33.5198 26.5139 33.522C27.1499 33.5241 27.7772 33.3729 28.3436 33.0809C28.9595 32.7702 29.4825 32.2996 29.8589 31.7175C30.2353 31.1354 30.4516 30.4627 30.4855 29.7684C30.6434 28.4314 30.6434 27.0803 30.4855 25.7434C30.409 24.781 30.0194 23.8713 29.3774 23.1559C28.8596 22.6044 28.1949 22.2159 27.4633 22.0374C26.7317 21.8588 25.9646 21.8978 25.2545 22.1496C23.8245 22.5371 23.0755 23.6059 22.6855 24.9809C22.4754 25.9764 22.4107 26.9977 22.4936 28.0121H22.4812ZM44.1479 26.4371C45.2807 26.4371 46.4136 26.4371 47.5155 26.4371V24.3184H44.1726V22.0746H48.116V19.9996H41.7088V31.0934H48.1531V28.9684H44.1788L44.1479 26.4371ZM55.2288 22.2309C55.2288 21.9121 55.2288 21.6059 55.2288 21.2809C55.2331 20.6798 55.139 20.0822 54.9502 19.5121C54.8759 19.246 54.711 19.0149 54.4846 18.8594C54.2581 18.7039 53.9846 18.6341 53.7122 18.6621C53.4473 18.6538 53.1875 18.7356 52.9742 18.8943C52.7609 19.0529 52.6066 19.2793 52.536 19.5371C52.423 19.8339 52.3521 20.1453 52.3255 20.4621C52.2512 21.3079 52.2326 22.1576 52.2698 23.0059C52.2501 23.5877 52.3275 24.1687 52.4988 24.7246C52.5666 25.002 52.7264 25.2475 52.9517 25.4203C53.177 25.5932 53.4541 25.6829 53.7369 25.6746C54.0164 25.6843 54.291 25.5981 54.5158 25.4301C54.7406 25.2622 54.9025 25.0223 54.975 24.7496C55.0634 24.5014 55.1216 24.2432 55.1483 23.9809C55.2196 23.4003 55.2568 22.8159 55.2598 22.2309H55.2288Z" fill="#FCFCFD"/>
<path d="M67.2099 27.7998H64.678L61.9666 21.7373H61.8861V27.7686H59.3047V16.5186H61.8366C62.7074 18.5019 63.5967 20.4956 64.5047 22.4998H64.5913V16.5436H67.1604C67.2656 16.9186 67.309 26.4873 67.2099 27.7998Z" fill="#FCFCFD"/>
<path d="M55.2637 22.2311C55.2772 22.8151 55.2565 23.3995 55.2018 23.9811C55.175 24.2434 55.1168 24.5016 55.0285 24.7498C54.9559 25.0225 54.7941 25.2624 54.5692 25.4303C54.3444 25.5983 54.0699 25.6845 53.7904 25.6748C53.5076 25.6831 53.2305 25.5934 53.0052 25.4205C52.7799 25.2477 52.6201 25.0022 52.5523 24.7248C52.381 24.1689 52.3035 23.5879 52.3232 23.0061C52.2861 22.1578 52.3047 21.308 52.379 20.4623C52.4056 20.1455 52.4765 19.8341 52.5894 19.5373C52.6601 19.2795 52.8144 19.0531 53.0277 18.8944C53.2409 18.7358 53.5008 18.654 53.7656 18.6623C54.0381 18.6343 54.3116 18.7041 54.538 18.8596C54.7645 19.0151 54.9294 19.2462 55.0037 19.5123C55.1924 20.0824 55.2866 20.68 55.2823 21.2811C55.2761 21.5936 55.2637 21.9123 55.2637 22.2311Z" fill="#CCCCCC"/>
<path d="M18.4062 27.4996L18.5486 27.1934C18.5486 27.3371 18.5858 27.4371 18.5486 27.5309C18.5115 27.6246 18.4372 27.5434 18.4062 27.4996Z" fill="#00A9FB"/>
<path d="M35.9672 27.0625L35.9297 27.1313V27.0625H35.9672Z" fill="#00A9FB"/>
<path d="M24.972 27.8998C24.9212 27.0632 24.9732 26.2235 25.1267 25.3998C25.157 25.1058 25.276 24.8283 25.4675 24.6047C25.659 24.3812 25.9139 24.2224 26.1977 24.1498C26.5177 24.0639 26.858 24.1038 27.1499 24.2616C27.4418 24.4194 27.6635 24.6833 27.7701 24.9998C27.9266 25.3545 28.0128 25.7366 28.0239 26.1248C28.1095 27.3594 28.093 28.5991 27.9743 29.831C27.9416 30.0925 27.8641 30.3463 27.7453 30.581C27.6449 30.8105 27.4784 31.0041 27.2675 31.1367C27.0567 31.2694 26.8112 31.3349 26.5629 31.3248C26.3138 31.3465 26.0639 31.2941 25.8439 31.1742C25.6239 31.0542 25.4435 30.872 25.3248 30.6498C25.1297 30.2744 25.0178 29.8607 24.9967 29.4373C24.9623 28.9255 24.9541 28.4124 24.972 27.8998Z" fill="#FCFCFD"/>
</svg>
