<svg width="78" height="50" viewBox="0 0 78 50" fill="none" xmlns="http://www.w3.org/2000/svg">
<path d="M19.375 23.1333L20.2875 21.9645C20.7823 22.5552 21.4893 22.9278 22.2563 23.002C22.4266 23.0123 22.5972 22.9875 22.7577 22.9293C22.9181 22.8711 23.0649 22.7806 23.189 22.6635C23.3132 22.5464 23.412 22.4051 23.4795 22.2484C23.5469 22.0916 23.5816 21.9227 23.5812 21.752C23.5812 21.2208 23.3375 20.8083 22.0875 20.0645C20.4813 19.127 19.7625 18.3645 19.7625 17.0895C19.749 16.7203 19.8138 16.3523 19.9526 16.0099C20.0914 15.6675 20.3011 15.3583 20.5679 15.1027C20.8348 14.8471 21.1527 14.6508 21.5007 14.5268C21.8488 14.4029 22.2192 14.3539 22.5875 14.3833C23.0595 14.3851 23.5266 14.4798 23.9619 14.6621C24.3973 14.8444 24.7925 15.1107 25.125 15.4458L24.2 16.602C23.7663 16.1083 23.1555 15.8051 22.5 15.7583C22.344 15.7427 22.1866 15.7596 22.0374 15.8078C21.8883 15.856 21.7507 15.9345 21.6333 16.0383C21.516 16.1422 21.4213 16.2692 21.3554 16.4114C21.2894 16.5536 21.2535 16.7078 21.25 16.8645C21.25 17.452 21.5063 17.8395 22.9375 18.7395C24.4688 19.6645 25.0688 20.427 25.0688 21.652C25.0732 22.0167 25.0037 22.3785 24.8644 22.7156C24.7252 23.0526 24.5191 23.358 24.2586 23.6132C23.9981 23.8685 23.6886 24.0683 23.3487 24.2007C23.0089 24.333 22.6458 24.3951 22.2813 24.3833C21.1852 24.3681 20.1399 23.9185 19.375 23.1333Z" fill="#FCFCFD"/>
<path d="M26.9844 14.458H28.4781V24.2455H26.9844V14.458Z" fill="#FCFCFD"/>
<path d="M30.625 14.458H35.5625V15.8643H32.1375V18.633H35.2063V20.008H32.1375V22.8393H35.625V24.2455H30.625V14.458Z" fill="#FCFCFD"/>
<path d="M37.5 14.4579H40.1C40.5371 14.437 40.974 14.5024 41.3858 14.6504C41.7976 14.7984 42.1762 15.0261 42.5 15.3204C42.7657 15.6166 42.9704 15.9622 43.1023 16.3376C43.2342 16.7129 43.2908 17.1106 43.2688 17.5079V17.5704C43.3069 18.1463 43.1665 18.72 42.8668 19.2132C42.567 19.7064 42.1225 20.0953 41.5938 20.3267L43.4688 24.2267H41.7812L40.0875 20.7017C40.0272 20.7077 39.9665 20.7077 39.9062 20.7017H38.9875V24.2142H37.5V14.4579ZM39.8688 19.3829C41.1813 19.3829 41.7438 18.6704 41.7438 17.6079C41.7438 16.4329 41.0688 15.8517 39.9125 15.8517H38.9875V19.3829H39.8688Z" fill="#FCFCFD"/>
<path d="M45.1719 14.4584H47.7719C48.2091 14.4361 48.6464 14.5009 49.0584 14.6489C49.4704 14.797 49.8489 15.0254 50.1719 15.3209C50.442 15.6151 50.6513 15.9598 50.7875 16.3353C50.9237 16.7107 50.9843 17.1094 50.9656 17.5084V17.5709C51.0038 18.1468 50.8634 18.7205 50.5637 19.2137C50.2639 19.7069 49.8194 20.0957 49.2906 20.3271L51.1656 24.2271H49.4781L47.7906 20.7021C47.7303 20.7077 47.6697 20.7077 47.6094 20.7021H46.6781V24.2146H45.1719V14.4584ZM47.5594 19.3834C48.8719 19.3834 49.4344 18.6709 49.4344 17.6084C49.4344 16.4334 48.7594 15.8521 47.6031 15.8521H46.6781V19.3834H47.5594Z" fill="#FCFCFD"/>
<path d="M54.65 14.4209H56.1688L58.975 24.2459H57.4313L56.8063 21.9959H53.9375L53.3125 24.2459H51.875L54.65 14.4209ZM56.4437 20.6709L55.3813 16.7459L54.3 20.6334L56.4437 20.6709Z" fill="#FCFCFD"/>
<path d="M19.5 31.1145V30.9208C19.5 27.752 21.0562 26.0208 23.1125 26.0208C23.5236 26.0155 23.9317 26.0924 24.3127 26.2469C24.6937 26.4015 25.04 26.6306 25.3312 26.9208L24.475 28.1333C24.1157 27.7377 23.6149 27.4996 23.0812 27.4708C21.9437 27.4708 21.0313 28.7208 21.0313 30.9895V31.0583C21.0313 33.4333 21.9812 34.5895 23.0562 34.5895C23.3403 34.5801 23.6192 34.5107 23.8745 34.3857C24.1299 34.2607 24.3558 34.0831 24.5375 33.8645L25.3437 35.0083C24.7224 35.6377 23.8781 35.997 22.9938 36.0083C20.9 36.0145 19.5 34.2958 19.5 31.1145Z" fill="#FCFCFD"/>
<path d="M26.9688 26.127H28.475V34.5082H31.6V35.9082H26.9688V26.127Z" fill="#FCFCFD"/>
<path d="M32.5 32.6332V26.127H34.0063V32.7145C34.0063 34.0145 34.5938 34.652 35.5125 34.652C36.4313 34.652 37.025 34.027 37.025 32.727V26.127H38.5313V32.6207C38.5313 34.8957 37.2812 36.0395 35.5125 36.0395C33.7437 36.0395 32.5 34.8957 32.5 32.6332Z" fill="#FCFCFD"/>
<path d="M40.3359 26.1275H42.8359C43.2742 26.0963 43.7144 26.1526 44.1307 26.2932C44.547 26.4338 44.9312 26.6558 45.2609 26.9462C45.4807 27.1596 45.6533 27.4167 45.7674 27.7009C45.8815 27.9851 45.9347 28.2902 45.9234 28.5962V28.6462C45.9419 29.1258 45.8088 29.5989 45.5428 29.9984C45.2769 30.3979 44.8917 30.7033 44.4422 30.8712C44.9481 30.9923 45.3975 31.2827 45.7158 31.6942C46.0341 32.1057 46.2022 32.6136 46.1922 33.1337V33.2025C46.1922 34.915 44.8547 35.865 42.8547 35.865H40.3547L40.3359 26.1275ZM44.4109 28.8712C44.4109 27.9837 43.8297 27.5025 42.8547 27.5025H41.8172V30.3212H42.7609C43.7922 30.3212 44.4109 29.8025 44.4109 28.8837V28.8712ZM42.9172 31.6212H41.8172V34.5462H42.9422C43.9984 34.5462 44.6859 34.0275 44.6859 33.1025C44.6984 32.1837 44.0359 31.6212 42.9172 31.6212Z" fill="#FCFCFD"/>
</svg>
