<svg width="78" height="50" viewBox="0 0 78 50" fill="none" xmlns="http://www.w3.org/2000/svg">
<g clip-path="url(#clip0_14912_30732)">
<path d="M19.8004 17.0986H26.5504L29.7461 32.5408H25.4238L24.9161 29.8275H21.2793L20.7715 32.5408H16.6016L19.8004 17.0986ZM21.9171 26.4287H24.2782L23.1961 20.6942H22.9771L21.9171 26.4287ZM40.1583 17.0986H44.5473V28.3264H50.2183V32.5408H40.1583V17.0986Z" fill="#FCFCFD"/>
<path d="M28.7344 22.2616C28.7344 18.7549 30.4544 16.835 34.2245 16.835H34.91C38.6801 16.835 40.2573 18.7549 40.2573 22.2616V23.3406H36.2365V22.2616C36.2365 21.3127 35.8842 20.8494 34.9131 20.8494H34.4276C33.4565 20.8494 33.1043 21.3096 33.1043 22.2616V27.3773C33.1043 28.3261 33.4533 28.7895 34.4276 28.7895H34.91C35.8811 28.7895 36.2333 28.3293 36.2333 27.3773V26.2983H40.2573V27.3741C40.2573 30.8808 38.5373 32.8008 34.7672 32.8008H34.2245C30.4544 32.8008 28.7344 30.8808 28.7344 27.3741V22.2616ZM49.7555 17.0984H54.1762V27.4439C54.1762 28.3261 54.4745 28.7895 55.4456 28.7895H55.9533C56.9054 28.7895 57.2227 28.3261 57.2227 27.4439V17.0984H61.599V27.2694C61.599 30.8998 59.679 32.8008 55.9756 32.8008H55.3789C51.6755 32.8008 49.7555 30.8998 49.7555 27.2694V17.0984Z" fill="#FCFCFD"/>
</g>
<defs>
<clipPath id="clip0_14912_30732">
<rect width="45" height="15.8674" fill="white" transform="translate(16.6016 16.9336)"/>
</clipPath>
</defs>
</svg>
