<svg width="78" height="50" viewBox="0 0 78 50" fill="none" xmlns="http://www.w3.org/2000/svg">
<g clip-path="url(#clip0_14912_30736)">
<mask id="mask0_14912_30736" style="mask-type:luminance" maskUnits="userSpaceOnUse" x="22" y="2" width="35" height="45">
<path d="M56.5211 2.05078H22.75V46.6202H56.5211V2.05078Z" fill="white"/>
</mask>
<g mask="url(#mask0_14912_30736)">
<path d="M56.4705 2H22.75V47H56.4705V2Z" fill="#FCFCFD"/>
</g>
<path d="M51.4836 41.6644V42.0443H52.2434V42.2807H51.4836V42.6606H52.3363V42.9477H51.2472V41.428H52.2941V41.6644H51.4836ZM48.4864 41.6728V42.0527H49.2462V42.2891H48.4864V42.669H49.3475V42.9561H48.1993V41.4364H49.2969V41.6728H48.4864ZM46.3503 41.6728H45.9198V42.9561H45.6327V41.6728H45.2106V41.428H46.3503V41.6728ZM43.4967 41.6728H43.0661V42.9561H42.779V41.6728H42.3485V41.428H43.4882V41.6728H43.4967ZM40.4488 42.9561H40.1618V41.4364H40.4488V42.9561ZM38.1693 41.4364V42.9561H37.8822L37.9329 41.6728L37.6036 42.9561H37.3588L37.0211 41.6728V42.9561H36.7762V41.4364H37.1562L37.4432 42.5762L37.7809 41.4364H38.1693ZM34.7922 41.4364V42.9561H34.5051V41.6728L34.1759 42.9561H33.9395L33.6018 41.6728L33.6524 42.9561H33.3654V41.4364H33.7959L34.083 42.5762L34.37 41.4364H34.7922ZM30.7059 41.6306C30.4695 41.6306 30.2753 41.867 30.2753 42.2047C30.2753 42.5424 30.461 42.7281 30.7059 42.7281C30.8916 42.7281 31.1365 42.5846 31.1365 42.2047C31.1702 41.9092 30.9845 41.6221 30.7059 41.6306ZM30.7059 43.0068C30.5033 42.9983 30.3175 42.9139 30.1824 42.7704C30.0558 42.6099 29.9882 42.4073 29.9882 42.1962C29.9882 41.7235 30.2753 41.3857 30.7059 41.3857C31.0858 41.3857 31.4235 41.6728 31.4235 42.1962C31.4066 42.6184 31.1702 42.9983 30.7059 43.0068ZM28.1815 42.534C28.1308 42.5846 28.1308 42.6775 28.038 42.7704C27.9029 42.9139 27.7171 42.9983 27.5145 43.0068C27.1346 43.0068 26.7969 42.669 26.7969 42.1962C26.7969 41.6728 27.1261 41.3857 27.5145 41.3857C27.9873 41.3857 28.1308 41.7657 28.1308 41.8585L27.8438 41.9092C27.8438 41.8585 27.8269 41.8079 27.7931 41.7657C27.734 41.6728 27.6243 41.6137 27.5061 41.6221C27.2697 41.6221 27.1261 41.8585 27.1261 42.1962C27.1261 42.534 27.2697 42.7197 27.5061 42.7197C27.6496 42.7197 27.7425 42.6268 27.8353 42.5762C27.8691 42.5171 27.886 42.4495 27.886 42.382L28.1815 42.534Z" fill="black"/>
<path d="M43.7762 15.9388L52.3372 24.542V31.6339H45.2959L36.6927 23.0223V31.6339H26.8906V6.13672H52.3372V15.9388" fill="black"/>
<path d="M51.7715 34.9609H52.3456V35.1973H51.4929V33.6776H51.7799L51.7715 34.9609ZM50.0576 34.6823L49.8212 33.9647L49.6355 34.6823H50.0576ZM50.0998 34.9187H49.5257L49.4751 35.2058H49.1458L49.6692 33.6861H50.0069L50.5304 35.2058H50.2011L50.0998 34.9187ZM47.9131 33.6776H48.2002V35.1973H47.9638L47.2968 34.1504V35.1973H47.0604V33.6776H47.2968L47.9638 34.7752L47.9131 33.6776ZM45.2959 33.914C45.0088 33.914 44.8231 34.1082 44.8231 34.4375C44.8231 34.7667 45.0088 35.0116 45.2959 35.0116C45.4901 35.0116 45.7265 34.868 45.7265 34.4881C45.7265 34.2011 45.5829 33.914 45.2959 33.914ZM45.2959 35.248C45.0933 35.2649 44.8991 35.172 44.7724 35.0116C44.612 34.868 44.5276 34.657 44.536 34.4375C44.536 33.9647 44.8653 33.627 45.2959 33.627C45.6758 33.627 46.0135 33.914 46.0135 34.4375C46.0135 34.868 45.7265 35.248 45.2959 35.248ZM43.5398 35.1973H43.2527V33.6776H43.5398V35.1973ZM42.2565 33.9647H41.8259V35.2058H41.5388V33.9647H41.1589V33.6776H42.2565V33.9647ZM40.0191 34.6739L39.825 33.9562L39.5886 34.6739H40.0191ZM40.112 34.9103H39.5379L39.445 35.1973H39.158L39.6308 33.6776H39.96L40.4835 35.1973H40.1964L40.112 34.9103ZM37.9253 33.6776H38.2124V35.1973H37.976L37.309 34.1504V35.1973H37.022V33.6776H37.2584L37.976 34.7752L37.9253 33.6776ZM35.0717 33.914V34.3868H35.3587C35.4094 34.3868 35.6458 34.3868 35.6458 34.1504C35.6205 34.0744 35.5698 34.0069 35.5023 33.9562C35.4516 33.9056 35.3587 33.9056 35.2152 33.9056H35.0717V33.914ZM34.7846 33.6776H35.2574C35.4432 33.6776 35.5867 33.6776 35.7302 33.8211C35.8484 33.8971 35.916 34.0238 35.9244 34.1588C35.9244 34.4881 35.688 34.5894 35.5867 34.5894L35.9244 35.2058H35.6373L35.3081 34.6316H35.0717V35.2058H34.7846V33.6776ZM32.885 33.9647V34.2939H33.6026V34.5303H32.885V34.9609H33.7377V35.1973H32.5979V33.6776H33.6448V33.9647H32.885ZM31.6017 33.9647H31.2218V35.2058H30.9432V33.9647H30.5126V33.6776H31.6101L31.6017 33.9647ZM29.2208 33.6776H29.5079V35.1973H29.2715L28.6045 34.1504V35.1973H28.3681V33.6776H28.6045L29.2715 34.7752L29.2208 33.6776ZM27.127 35.1973H26.8906V33.6776H27.127V35.1973Z" fill="black"/>
<path d="M48.9178 36.2436H52.2021V37.147H50.2011V37.7633H52.0585V38.6667H50.2011V39.4772H52.3372V40.3806H48.9094V36.2436M44.4432 36.2436H45.7265V38.8102C45.7265 38.996 45.7265 39.1902 45.87 39.3337C45.9966 39.4266 46.1402 39.4772 46.3006 39.4772C46.4525 39.4688 46.6045 39.4181 46.7311 39.3337C46.8747 39.1902 46.8747 39.0044 46.8747 38.8102V36.2436H48.2086V38.4303C48.2086 38.9031 48.2086 39.5279 47.7358 40.0007C47.4066 40.2877 46.9253 40.4735 46.309 40.4735C45.6927 40.4735 45.1692 40.2793 44.8315 40.0007C44.4516 39.6207 44.4516 39.1479 44.4516 38.7174V36.2436H44.4432ZM43.9197 39.3421C43.7762 39.5363 43.6833 39.722 43.4891 39.9162C43.0585 40.3468 42.4929 40.5326 41.8681 40.5326C40.3906 40.5326 39.7236 39.3928 39.7236 38.3459C39.7236 37.2483 40.4835 36.1085 41.8681 36.1085C42.5351 36.1085 43.1092 36.3027 43.5313 36.7755C43.6749 36.919 43.8015 37.0795 43.9113 37.2483L42.8137 37.7718C42.6702 37.5354 42.476 37.1048 41.9103 37.1048C41.7077 37.1048 41.5135 37.1892 41.3869 37.3412C41.0576 37.6282 41.0576 38.101 41.0576 38.2446C41.0576 38.8609 41.294 39.4857 41.961 39.4857C42.5351 39.4857 42.7208 38.9115 42.7715 38.768L43.9197 39.3421ZM36.2621 38.9622C36.355 39.1479 36.4478 39.2999 36.8362 39.3928C36.9797 39.4857 37.2161 39.4857 37.4103 39.4857C37.5032 39.4857 38.0266 39.4857 38.0266 39.1986C38.0266 39.1479 38.0266 39.0044 37.7902 38.9115C37.4441 38.8271 37.0979 38.7596 36.7433 38.7258C36.3634 38.6329 35.6036 38.3965 35.6036 37.4847C35.612 37.3074 35.6458 37.1301 35.6964 36.9613C35.9835 36.3449 36.6927 36.1001 37.4103 36.1001C37.8578 36.0917 38.2968 36.193 38.6936 36.3872C38.9216 36.4969 39.1158 36.6573 39.2677 36.8599L38.4572 37.5269C38.3897 37.4087 38.2884 37.3159 38.1702 37.2399C37.9084 37.147 37.6383 37.0963 37.3597 37.0963C37.1739 37.0963 36.9291 37.147 36.9291 37.3834C36.9291 37.5691 37.1148 37.6198 37.5032 37.6705C38.4066 37.8562 39.3099 37.9997 39.3099 39.0466C39.3099 39.3843 39.1749 39.7136 38.93 39.95C38.4066 40.5241 37.5961 40.5241 37.3597 40.5241C37.0388 40.5241 36.718 40.4735 36.4056 40.3806C35.7387 40.1948 35.4516 39.8065 35.2659 39.5701L36.2621 38.9622ZM31.3653 36.2436H34.6495V37.147H32.6993V37.7633H34.506V38.6667H32.6993V39.4772H34.8437V40.3806H31.3653V36.2436ZM28.1739 37.1048V38.0504H28.748C28.9338 38.0504 29.3644 38.0504 29.3644 37.5776C29.3644 37.1048 28.9338 37.1048 28.748 37.1048H28.1739ZM26.8906 36.2436H28.9338C29.3137 36.2436 29.6936 36.2436 29.93 36.3872C30.5041 36.6235 30.6477 37.147 30.6477 37.5776C30.6477 37.7211 30.6477 38.101 30.3606 38.3881C30.1749 38.5738 30.0313 38.6245 29.8372 38.7174L30.8334 40.3806H29.3644L28.5539 38.9031H28.1739V40.3806H26.8906V36.2436Z" fill="black"/>
</g>
<defs>
<clipPath id="clip0_14912_30736">
<rect width="33.7205" height="45" fill="white" transform="translate(22.75 2)"/>
</clipPath>
</defs>
</svg>
