<svg width="78" height="50" viewBox="0 0 78 50" fill="none" xmlns="http://www.w3.org/2000/svg">
<g clip-path="url(#clip0_14912_30748)">
<path d="M18.6496 21.0738V30.0627C18.6496 33.1264 16.1639 35.5832 13.0713 35.5832H7.43518L8.5046 33.1264H13.0713C14.7766 33.1264 16.1928 31.768 16.1928 30.0627V23.5595H9.89195C8.18667 23.5595 6.82822 24.9468 6.82822 26.6521V37.5197H4.31364V26.6521C4.31364 23.5884 6.82822 21.0738 9.89195 21.0738H13.6783V16.0447H8.99596C5.58538 16.0447 2.83958 18.8194 2.83958 22.201V37.5197H0.382812V22.201C0.382812 17.4609 4.19803 13.5879 8.99596 13.5879H16.1928V21.0738H18.6496ZM23.6788 35.2942C23.5921 34.745 23.2452 34.5138 22.8117 34.5138C22.0602 34.5138 21.8579 35.2364 21.8579 35.7277C21.8579 36.1902 22.0602 36.9127 22.8117 36.9127C23.2163 36.9127 23.5631 36.7104 23.6788 36.1324H24.5459C24.4302 37.1729 23.7366 37.6064 22.7828 37.6064C21.6844 37.6064 20.9908 37.0284 20.9908 35.7277C20.9908 34.3982 21.6844 33.849 22.7828 33.849C23.5053 33.849 24.4302 34.0802 24.5459 35.2942H23.6788ZM26.8292 36.1902C26.6847 36.2769 26.5402 36.3058 26.3957 36.3058L25.9621 36.3925C25.702 36.3925 25.5575 36.4792 25.5575 36.7104C25.5575 36.9706 25.7309 37.1151 26.0199 37.1151C26.3957 37.1151 26.8292 36.8838 26.8292 36.4214V36.1902ZM24.8927 35.6699C25.0083 34.8317 25.6153 34.7161 26.2511 34.7161C27.2917 34.7161 27.5518 35.1497 27.5518 35.6121V36.9706C27.5518 37.2018 27.5518 37.3463 27.6096 37.5197H26.8581C26.8581 37.433 26.8292 37.3174 26.8292 37.2018C26.5691 37.5486 26.1066 37.6064 25.7598 37.6064C25.1817 37.6064 24.7482 37.3463 24.7482 36.7393C24.7482 36.1035 25.2684 35.9589 25.702 35.9011L26.4824 35.8433C26.7136 35.8433 26.8003 35.7566 26.8003 35.5543C26.8003 35.3809 26.6558 35.2653 26.1933 35.2653C25.8754 35.2653 25.7309 35.2653 25.6153 35.6699H24.8927ZM28.0142 34.8317H28.7368V35.3809C28.9969 34.9473 29.1993 34.745 29.6328 34.745C29.7195 34.745 29.8351 34.745 29.8929 34.8028V35.6121C29.7484 35.5543 29.6328 35.5254 29.4883 35.5254C28.9969 35.5254 28.7368 35.8433 28.7368 36.3347V37.5197H28.0142V34.8317ZM32.263 35.8722C32.263 35.7277 32.0607 35.2653 31.5115 35.2653C30.9335 35.2653 30.8467 35.8144 30.8467 35.8722H32.263ZM32.9856 36.7104C32.7544 37.3463 32.2052 37.6064 31.5693 37.6064C30.6444 37.6064 30.0664 37.1729 30.0664 36.1613C30.0664 35.1497 30.6444 34.7161 31.5693 34.7161C32.552 34.7161 33.0145 35.2942 33.0145 36.3058V36.4214H30.8467C30.8467 36.6815 31.0491 37.0573 31.5693 37.0573C31.8584 37.0573 32.0607 36.9127 32.1763 36.7104H32.9856ZM33.4769 36.6815H34.3151V37.5197H33.4769V36.6815ZM36.5407 34.6872V37.5197H36.1071V33.9357H36.6274L38.535 36.7682V33.9357H38.9685V37.5197H38.4772L36.5407 34.6872ZM40.616 35.2364C40.038 35.2364 39.8067 35.7277 39.8067 36.1902C39.8067 36.6815 40.038 37.1729 40.616 37.1729C41.223 37.1729 41.4253 36.6815 41.4253 36.1902C41.4253 35.7277 41.223 35.2364 40.616 35.2364ZM40.616 34.8028C41.4831 34.8028 41.8589 35.4387 41.8589 36.1902C41.8589 36.9706 41.4831 37.6064 40.616 37.6064C39.7778 37.6064 39.3443 36.9706 39.3443 36.1902C39.3443 35.4387 39.7778 34.8028 40.616 34.8028ZM46.6857 35.8433C46.6857 35.3809 46.4256 35.2364 46.1654 35.2364C45.7897 35.2364 45.4428 35.4387 45.4428 35.9011V37.5197H45.0671V35.8433C45.0671 35.3809 44.807 35.2364 44.5179 35.2364C44.1422 35.2364 43.7954 35.4676 43.7954 35.9878V37.5197H43.3907V34.8895H43.7954V35.2942H43.8243C43.9977 34.8895 44.3734 34.8028 44.6625 34.8028C44.9515 34.8028 45.2405 34.9473 45.4139 35.2942C45.5874 34.9762 45.8764 34.8028 46.281 34.8028C46.5123 34.8028 47.1192 34.9473 47.1192 35.7277V37.5197H46.6857V35.8433ZM49.2581 36.1324C49.1713 36.248 49.0846 36.2769 48.8534 36.3058L48.391 36.3925C48.073 36.4214 47.8707 36.537 47.8707 36.7682C47.8707 37.0284 48.1019 37.2018 48.391 37.2018C48.8534 37.2018 49.2581 36.9127 49.2581 36.4792V36.1324ZM47.5528 35.6988C47.6106 35.034 47.9863 34.8028 48.6511 34.8028C49.0846 34.8028 49.6627 34.9473 49.6627 35.5543V36.9706C49.6627 37.1151 49.7205 37.1729 49.8361 37.1729H49.9806V37.5197C49.865 37.5486 49.7494 37.5486 49.6627 37.5486C49.4315 37.5486 49.3159 37.4619 49.287 37.1729C49.1135 37.433 48.7089 37.6064 48.3621 37.6064C47.6106 37.6064 47.4661 37.144 47.4661 36.826C47.4661 36.3347 47.6973 36.1035 48.4199 35.9878L48.8823 35.9589C49.1135 35.9011 49.2581 35.8433 49.2581 35.6121C49.2581 35.2653 48.969 35.1786 48.6511 35.1786C48.2754 35.1786 47.9574 35.2942 47.9574 35.6988H47.5528ZM50.2697 34.0802H50.7032V34.8895H51.3102V35.2653H50.7032V36.8838C50.7032 37.1151 50.8188 37.1729 51.0212 37.1729C51.1368 37.1729 51.1946 37.1729 51.3102 37.144V37.5775C51.1657 37.6064 51.0212 37.6064 50.8477 37.6064C50.4431 37.6064 50.2697 37.3463 50.2697 36.9995V35.2653H49.8361V34.8895H50.2697V34.0802ZM51.8304 34.0802H52.2062V34.8895H52.871V35.2653H52.2062V36.8838C52.2062 37.1151 52.3507 37.1729 52.5819 37.1729C52.6397 37.1729 52.7553 37.1729 52.871 37.144V37.5775C52.7264 37.6064 52.5819 37.6064 52.4085 37.6064C52.0039 37.6064 51.8304 37.3463 51.8304 36.9995V35.2653H51.3391V34.8895H51.8304V34.0802ZM55.0387 35.9589C54.9809 35.4676 54.6919 35.2364 54.2872 35.2364C53.8826 35.2364 53.5646 35.4676 53.4779 35.9589H55.0387ZM53.4779 36.3347C53.4746 36.4432 53.493 36.5513 53.5321 36.6527C53.5713 36.754 53.6303 36.8464 53.7057 36.9245C53.7811 37.0027 53.8715 37.0649 53.9713 37.1075C54.0712 37.1502 54.1786 37.1724 54.2872 37.1729C54.4895 37.1729 54.8364 37.0573 54.9809 36.7104H55.4144C55.2121 37.3463 54.7208 37.6064 54.2872 37.6064C53.449 37.6064 53.0155 36.9706 53.0155 36.1902C53.0155 35.4387 53.449 34.8028 54.2872 34.8028C54.8653 34.8028 55.4722 35.1786 55.4722 36.2769V36.3347H53.4779ZM55.7902 34.8895H56.2237V35.3809C56.426 34.9473 56.7151 34.8028 57.0041 34.8028C57.0619 34.8028 57.1486 34.8028 57.2064 34.8317V35.3809C57.0908 35.3231 57.033 35.3231 56.9174 35.3231C56.5128 35.3231 56.2237 35.6121 56.2237 36.1613V37.5197H55.7902V34.8895ZM61.5419 34.8895H61.9755L61.1084 37.5197H60.6748L60.1546 35.5254L59.6054 37.5197H59.1429L58.3048 34.8895H58.7672L59.3453 36.8838H59.3742L59.9233 34.8895H60.3569L60.9349 36.8838L61.5419 34.8895ZM62.2356 33.9357H62.6402V35.2942H62.6691C62.8425 34.8895 63.1894 34.8028 63.5073 34.8028C64.0565 34.8028 64.4033 35.0918 64.4033 35.7277V37.5197H64.0276V35.8433C64.0276 35.4387 63.7964 35.2364 63.3628 35.2364C62.9871 35.2364 62.6402 35.4676 62.6402 35.9878V37.5197H62.2356V33.9357ZM66.5711 36.1324C66.5132 36.248 66.3976 36.2769 66.1953 36.3058L65.704 36.3925C65.386 36.4214 65.2126 36.537 65.2126 36.7682C65.2126 37.0284 65.4149 37.2018 65.704 37.2018C66.1953 37.2018 66.5711 36.9127 66.5711 36.4792V36.1324ZM64.8947 35.6988C64.9525 35.034 65.3282 34.8028 65.9641 34.8028C66.3976 34.8028 66.9757 34.9473 66.9757 35.5543V36.9706C66.9757 37.1151 67.0046 37.1729 67.1491 37.1729H67.2936V37.5197C67.2069 37.5486 67.0913 37.5486 66.9757 37.5486C66.7734 37.5486 66.6289 37.4619 66.6289 37.1729C66.4265 37.433 66.0508 37.6064 65.6751 37.6064C64.9525 37.6064 64.808 37.144 64.808 36.826C64.808 36.3347 65.0392 36.1035 65.704 35.9878L66.1953 35.9589C66.4265 35.9011 66.5711 35.8433 66.5711 35.6121C66.5711 35.2653 66.282 35.1786 65.9641 35.1786C65.6172 35.1786 65.2704 35.2942 65.2704 35.6988H64.8947ZM67.6405 34.0802H68.074V34.8895H68.681V35.2653H68.074V36.8838C68.074 37.1151 68.1607 37.1729 68.392 37.1729C68.5076 37.1729 68.5654 37.1729 68.681 37.144V37.5775C68.5365 37.6064 68.392 37.6064 68.2185 37.6064C67.8139 37.6064 67.6405 37.3463 67.6405 36.9995V35.2653H67.2069V34.8895H67.6405V34.0802ZM69.1145 36.9127H69.6348V37.5197H69.1145V36.9127ZM22.5226 17.432V14.8018H24.6615C25.2395 14.8018 25.5286 15.2354 25.5286 16.1603C25.5286 16.9985 25.1817 17.432 24.6037 17.432H22.5226ZM22.5226 21.0738V18.617H25.0372C26.4824 18.617 27.1182 17.4609 27.1182 16.1603C27.1182 14.7151 26.598 13.5879 25.0083 13.5879H21.1064V21.0738H22.5226Z" fill="#FCFCFD"/>
<mask id="mask0_14912_30748" style="mask-type:luminance" maskUnits="userSpaceOnUse" x="27" y="13" width="3" height="9">
<path d="M27.7578 21.4209H29.6076V13.3858H27.7578V21.4209Z" fill="white"/>
</mask>
<g mask="url(#mask0_14912_30748)">
<path d="M29.1163 13.3571H27.7578V19.6002C27.7578 20.4095 27.989 20.9297 28.3359 21.3633L29.5498 20.8719C29.203 20.4673 29.1163 20.0626 29.1163 19.5713V13.3571Z" fill="#FCFCFD"/>
</g>
<path d="M33.5652 20.0331C33.2762 20.1487 32.8716 20.2065 32.4669 20.2065C31.6576 20.2065 31.4553 20.1198 31.4553 19.3972C31.4553 18.6747 31.7444 18.5879 32.4669 18.5879C32.8716 18.5879 33.2762 18.6168 33.5652 18.6747V20.0331ZM34.8659 17.5763C34.8659 15.9578 34.0855 15.4375 32.4669 15.4375C31.7154 15.4375 30.8773 15.582 30.2992 15.7265L30.5593 16.8538C30.9929 16.6803 31.5998 16.5647 32.2068 16.5647C33.334 16.5647 33.5652 16.8249 33.5652 17.7498C33.1317 17.6919 32.6982 17.6052 32.2068 17.6052C30.9351 17.6052 30.0391 17.8654 30.0391 19.4261C30.0391 20.8713 30.6171 21.2759 32.3513 21.2759C33.1606 21.2759 34.1722 21.0736 34.8659 20.8424V17.5763ZM37.0336 16.7959C37.3516 16.7092 37.6406 16.6803 38.0163 16.6803C38.9412 16.6803 39.1725 16.9694 39.1725 18.1833V21.0736H40.502V18.0388C40.502 16.0445 39.8083 15.4375 38.3054 15.4375C37.3805 15.4375 36.34 15.6687 35.6752 15.9578V21.0736H37.0336V16.7959ZM42.6697 16.7959C42.9877 16.7092 43.2767 16.6803 43.6525 16.6803C44.5774 16.6803 44.8086 16.9694 44.8086 18.1833V21.0736H46.1381V18.0388C46.1381 16.0445 45.4445 15.4375 43.9415 15.4375C43.0744 15.4375 41.9761 15.6687 41.3402 15.9578V21.0736H42.6697V16.7959ZM48.3059 17.6919C48.4215 16.7959 48.7105 16.5358 49.5487 16.5358C50.3002 16.5358 50.5892 16.7092 50.6181 17.6919H48.3059ZM51.2829 19.8886C50.8493 20.0331 50.1268 20.1198 49.7221 20.1198C48.7972 20.1198 48.3059 19.8886 48.3059 18.7036H51.861C51.9766 16.0445 51.1962 15.4375 49.462 15.4375C47.8723 15.4375 46.8896 16.1312 46.8896 18.3278C46.8896 20.5823 47.9879 21.2759 49.5776 21.2759C50.1268 21.2759 50.965 21.1314 51.4852 20.9291L51.2829 19.8886Z" fill="#FCFCFD"/>
<mask id="mask1_14912_30748" style="mask-type:luminance" maskUnits="userSpaceOnUse" x="52" y="13" width="6" height="9">
<path d="M52.4688 21.334H57.5557V13.3856H52.4688V21.334Z" fill="white"/>
</mask>
<g mask="url(#mask1_14912_30748)">
<path d="M56.1684 19.9757C55.8793 20.0335 55.4747 20.1202 55.1278 20.1202C54.174 20.1202 53.8561 19.8312 53.8561 18.3282C53.8561 16.9698 54.1451 16.594 55.07 16.594C55.7059 16.594 56.1684 16.7964 56.1684 17.1143V19.9757ZM57.4979 13.3569H56.1684V15.7559C55.8793 15.6113 55.4747 15.4379 54.8677 15.4379C53.3937 15.4379 52.4688 16.1316 52.4688 18.3861C52.4688 20.6116 53.3069 21.2764 55.1278 21.2764C55.9082 21.2764 56.9198 21.074 57.4979 20.8717V13.3569Z" fill="#FCFCFD"/>
</g>
<path d="M22.5256 27.4031V24.7729H24.6645C25.2425 24.7729 25.5316 25.2065 25.5316 26.1025C25.5316 26.9695 25.1847 27.4031 24.6067 27.4031H22.5256ZM22.5256 31.0738V28.617H25.0402C26.4854 28.617 27.1212 27.4031 27.1212 26.1603C27.1212 24.6573 26.601 23.559 25.0113 23.559H21.1094V31.0738H22.5256ZM31.0521 30.0044C30.7341 30.12 30.3295 30.2067 29.9826 30.2067C29.1445 30.2067 28.971 30.0911 28.971 29.3396C28.971 28.6459 29.2023 28.5303 29.9826 28.5303C30.3584 28.5303 30.763 28.5592 31.0521 28.6459V30.0044ZM32.3527 27.5476C32.3527 25.929 31.6012 25.4377 29.9826 25.4377C29.1734 25.4377 28.3352 25.5822 27.8149 25.7267L28.0172 26.7961C28.4797 26.6516 29.1156 26.536 29.6936 26.536C30.8497 26.536 31.0521 26.7672 31.0521 27.7499C30.5896 27.6343 30.1561 27.6054 29.7225 27.6054C28.4219 27.6054 27.5548 27.8366 27.5548 29.3974C27.5548 30.8137 28.1328 31.2183 29.867 31.2183C30.6185 31.2183 31.6301 31.0738 32.3527 30.7848V27.5476ZM33.162 31.0738H34.4915V27.2586C34.4915 26.8828 35.0985 26.6516 35.7633 26.6516C36.0234 26.6516 36.2546 26.6805 36.4859 26.7383V25.4666C36.2546 25.4377 36.0812 25.4377 35.9078 25.4377C35.0985 25.4377 34.7228 25.6689 34.4915 26.0157V25.5822H33.162V31.0738ZM38.0755 27.6632C38.1911 26.7672 38.4802 26.4782 39.3184 26.4782C40.0699 26.4782 40.3589 26.6805 40.3878 27.6632H38.0755ZM41.0526 29.8599C40.619 29.9755 39.8964 30.0911 39.4918 30.0911C38.538 30.0911 38.0755 29.831 38.0755 28.6748H41.6306C41.7173 26.0157 40.9658 25.4377 39.2317 25.4377C37.642 25.4377 36.6593 26.1025 36.6593 28.2702C36.6593 30.5535 37.7576 31.2183 39.3473 31.2183C39.8964 31.2183 40.7057 31.1027 41.2549 30.9293L41.0526 29.8599ZM43.6538 26.7672C43.9718 26.6516 44.2897 26.6227 44.6365 26.6227C45.5904 26.6227 45.8216 26.9406 45.8216 28.1257V31.0738H47.1511V27.9812C47.1511 26.0446 46.4574 25.4377 44.9256 25.4377C44.0585 25.4377 42.9891 25.64 42.2954 25.9001V31.0738H43.6538V26.7672ZM51.6311 26.7672V25.5822H49.8391V24.137L48.5096 24.6573V25.5822H47.5847V26.7672H48.5096V29.224C48.5096 30.8426 49.1165 31.2183 50.3305 31.2183C50.8507 31.2183 51.4577 31.1027 51.8334 30.9582L51.6022 29.9177C51.3132 29.9755 51.0241 30.0622 50.6773 30.0622C50.0125 30.0622 49.8391 29.8021 49.8391 29.1084V26.7672H51.6311ZM57.1516 27.9234C57.1516 25.8712 56.4579 25.4377 55.1573 25.4377C54.6081 25.4377 54.0012 25.6111 53.6254 25.7845V23.2988H52.3248V31.0738H53.6254V27.1141C53.6254 26.7961 54.1457 26.6227 54.7238 26.6227C55.5619 26.6227 55.7932 27.1141 55.7932 28.039V31.0738H57.1516V27.9234ZM59.1459 28.328C59.1459 26.7672 59.435 26.5071 60.3599 26.5071C61.3426 26.5071 61.6316 26.7672 61.6316 28.328C61.6316 29.831 61.3426 30.12 60.3599 30.12C59.435 30.12 59.1459 29.831 59.1459 28.328ZM57.7586 28.2702C57.7586 30.5535 58.6257 31.2183 60.3599 31.2183C62.123 31.2183 62.9901 30.5535 62.9901 28.2702C62.9901 26.0736 62.123 25.4377 60.3599 25.4377C58.6257 25.4377 57.7586 26.0736 57.7586 28.2702ZM64.9844 28.328C64.9844 26.7672 65.2734 26.5071 66.2272 26.5071C67.1521 26.5071 67.4411 26.7672 67.4411 28.328C67.4411 29.831 67.1521 30.12 66.2272 30.12C65.2734 30.12 64.9844 29.831 64.9844 28.328ZM63.6259 28.2702C63.6259 30.5535 64.4641 31.2183 66.2272 31.2183C67.9614 31.2183 68.8285 30.5535 68.8285 28.2702C68.8285 26.0736 67.9614 25.4377 66.2272 25.4377C64.493 25.4377 63.6259 26.0736 63.6259 28.2702ZM73.1351 29.9177C72.846 30.0044 72.4414 30.0911 72.0367 30.0911C71.1118 30.0911 70.8228 29.8021 70.8228 28.2702C70.8228 26.9406 71.1118 26.536 72.0367 26.536C72.6726 26.536 73.1351 26.7672 73.1351 27.0852V29.9177ZM74.4646 23.2988H73.1351V25.7556C72.846 25.5822 72.4414 25.4377 71.8055 25.4377C70.3604 25.4377 69.4355 26.1025 69.4355 28.328C69.4355 30.5535 70.2448 31.2183 72.0367 31.2183C72.846 31.2183 73.8577 31.0738 74.4646 30.8137V23.2988ZM76.4589 24.2237H76.6324C76.748 24.2237 76.8347 24.1948 76.8347 24.0792C76.8347 23.9347 76.6902 23.9347 76.6035 23.9347H76.4589V24.2237ZM76.1988 23.7613H76.6324C76.9214 23.7613 77.0659 23.8769 77.0659 24.0792C77.0659 24.2816 76.9214 24.3683 76.7769 24.4261L77.037 24.8596H76.7769L76.5456 24.4261H76.4589V24.8596H76.1988V23.7613ZM76.6035 25.0619C77.037 25.0619 77.326 24.7729 77.326 24.3105C77.326 23.848 77.037 23.559 76.6035 23.559C76.1699 23.559 75.8809 23.848 75.8809 24.3105C75.8809 24.7729 76.1699 25.0619 76.6035 25.0619ZM76.6035 23.2988C76.7365 23.298 76.8684 23.3236 76.9915 23.3742C77.1146 23.4247 77.2265 23.4992 77.3206 23.5933C77.4147 23.6874 77.4892 23.7993 77.5397 23.9224C77.5903 24.0455 77.6159 24.1774 77.6151 24.3105C77.6151 24.8596 77.1526 25.3221 76.6035 25.3221C76.0254 25.3221 75.5918 24.8596 75.5918 24.3105C75.5918 23.7324 76.0254 23.2988 76.6035 23.2988Z" fill="#FCFCFD"/>
</g>
<defs>
<clipPath id="clip0_14912_30748">
<rect width="78" height="24.9916" fill="white" transform="translate(0 13)"/>
</clipPath>
</defs>
</svg>
