<svg width="78" height="50" viewBox="0 0 78 50" fill="none" xmlns="http://www.w3.org/2000/svg">
<path d="M30.4378 21.8125V24.4375C30.1035 24.2875 29.7816 24.1 29.4659 23.925C29.089 23.7109 28.7233 23.4772 28.3702 23.225L27.875 22.8875C27.875 22.7937 27.7326 22.8 27.7078 22.7125L27.5469 22.6125V18.75L27.8007 19.15C27.818 19.1639 27.8326 19.1809 27.844 19.2C28.1068 19.6107 28.4095 19.9939 28.7478 20.3437C29.0016 20.6125 29.2554 20.8687 29.534 21.1125C29.8126 21.3562 30.0045 21.5187 30.2459 21.7375C30.2954 21.7312 30.3326 21.8125 30.4378 21.8125Z" fill="#E6E8EC"/>
<path d="M41.0386 14.1498C41.0386 14.7748 41.0014 15.3998 41.0014 16.0248V16.0935C40.9627 16.3521 40.944 16.6133 40.9457 16.8748C40.9457 17.0873 40.9024 17.306 40.89 17.4998C40.9023 17.6224 40.9023 17.7459 40.89 17.8685C40.8606 18.0361 40.8399 18.205 40.8281 18.3748C40.8281 18.5185 40.8281 18.6623 40.7848 18.7935C40.7819 18.8924 40.7695 18.9908 40.7476 19.0873C40.7191 19.2253 40.7005 19.3653 40.6919 19.506C40.6919 19.6998 40.63 19.8935 40.6114 20.0873C40.5929 20.281 40.5495 20.4935 40.5186 20.7123C40.4876 20.931 40.469 21.0373 40.4381 21.1935L40.3452 21.7623C40.209 21.7623 40.1781 21.631 40.0667 21.5998V22.406C40.0357 22.406 39.9924 22.406 39.9614 22.4623V22.8185C39.9614 22.8185 39.8871 22.8185 39.8624 22.8623C39.8376 22.906 39.8005 23.0623 39.8624 23.1748C39.946 23.2116 40.0171 23.2724 40.0667 23.3498C40.011 23.5498 40.0295 23.756 39.9862 23.9748C39.9429 24.1935 39.9057 24.4873 39.8624 24.7435C39.819 24.9998 39.7757 25.2185 39.7509 25.456C39.7262 25.6935 39.6643 25.881 39.6333 26.081C39.6024 26.281 39.5467 26.5373 39.5095 26.7685C39.4724 26.9998 39.4167 27.2748 39.361 27.531C39.3639 27.5914 39.3639 27.6519 39.361 27.7123C39.2619 27.656 39.231 27.5498 39.169 27.4623C39.2371 27.406 39.2248 27.331 39.2248 27.256C39.2248 26.356 39.2248 25.4498 39.2248 24.5435C39.2248 24.4873 39.2248 24.4373 39.2248 24.3748C39.2248 24.3123 39.2248 24.006 39.2248 23.5123C39.2248 22.1248 39.3238 19.5873 39.299 19.5185C39.3419 19.4159 39.3609 19.3047 39.3548 19.1935C39.3548 18.9685 39.3548 18.7373 39.3919 18.5185C39.3919 17.4185 39.4352 16.3123 39.3919 15.2123C39.3919 14.9873 39.3919 14.756 39.3919 14.531C39.3919 14.1998 39.3424 13.8685 39.3176 13.5435C39.2929 13.2185 39.2805 12.981 39.2371 12.6935C39.2371 12.6935 39.2371 12.6498 39.2371 12.631C39.2041 12.4685 39.1794 12.306 39.1629 12.1435C39.1629 12.0685 39.1629 11.981 39.1195 11.8998C39.07 11.7123 39.0329 11.506 38.9895 11.3123C38.899 10.9281 38.7574 10.5581 38.5686 10.2123C38.3948 9.87776 38.139 9.59374 37.8257 9.38727C37.5201 9.2109 37.1749 9.11625 36.8229 9.11227C36.7486 9.11227 36.6929 9.11227 36.6186 9.11227C36.2664 9.12174 35.9203 9.20697 35.6033 9.36227C35.1231 9.5827 34.6867 9.88982 34.3157 10.2685C33.9508 10.5709 33.6074 10.8988 33.2881 11.2498C33.0343 11.5748 32.799 11.9123 32.5576 12.2498C32.4669 12.3687 32.3881 12.4964 32.3224 12.631C32.3179 12.6474 32.3179 12.6647 32.3224 12.681L33.0467 13.4435C33.0467 13.481 33.1333 13.4998 33.1271 13.5685H33.059C32.7676 13.3698 32.4589 13.1983 32.1367 13.056C32.1081 13.0496 32.0785 13.0496 32.05 13.056L32.0005 13.1123C31.9438 13.2178 31.8753 13.3164 31.7962 13.406C31.7962 13.256 31.8705 13.1123 31.7962 12.9685L31.7529 12.931C31.314 12.7789 30.8548 12.6946 30.391 12.681C30.2795 12.681 30.1805 12.7185 30.069 12.7123C29.8968 12.719 29.7261 12.7484 29.5614 12.7998C29.0753 12.9413 28.6268 13.1912 28.249 13.531C27.7995 13.943 27.4373 14.4426 27.1843 14.9998C26.9137 15.551 26.8104 16.1707 26.8871 16.781C26.9025 16.9729 26.9335 17.1631 26.98 17.3498C26.98 17.506 27.0852 17.656 27.1038 17.8248C27.0441 17.831 26.984 17.831 26.9243 17.8248H24.609C24.5699 17.4094 24.5554 16.9919 24.5657 16.5748C24.577 16.3141 24.6101 16.0548 24.6648 15.7998C24.7205 15.4956 24.8012 15.1966 24.9062 14.906C25.1222 14.261 25.4468 13.6584 25.8657 13.1248C26.2077 12.6791 26.6273 12.3 27.1038 12.006C27.5386 11.7351 28.0159 11.5406 28.5152 11.431C28.8887 11.346 29.2734 11.3228 29.6543 11.3623C30.1254 11.4034 30.5871 11.5194 31.0224 11.706C31.2915 11.823 31.5435 11.9765 31.7714 12.1623L31.9881 12.331C32.0871 12.031 32.18 11.7498 32.2852 11.4623C32.4733 10.917 32.7095 10.3899 32.991 9.88727C33.1577 9.58575 33.3438 9.29555 33.5481 9.01852C33.8178 8.65166 34.1272 8.31626 34.4705 8.01852C34.7415 7.77727 35.046 7.57725 35.3743 7.42477C35.6944 7.26626 36.0368 7.15874 36.3895 7.10602C36.6508 7.07794 36.9144 7.07794 37.1757 7.10602C37.5093 7.13392 37.8368 7.21186 38.1476 7.33727C38.5094 7.46425 38.8451 7.65701 39.1381 7.90602C39.3677 8.08946 39.5754 8.2992 39.7571 8.53102C40.1949 9.16114 40.5043 9.87286 40.6671 10.6248C40.7352 10.906 40.7848 11.1873 40.8405 11.4685V11.506C40.8343 11.5725 40.8343 11.6395 40.8405 11.706C40.8815 11.9119 40.9043 12.1211 40.9086 12.331C40.9518 12.5554 40.9704 12.7838 40.9643 13.0123C41.0076 13.381 41.0324 13.7498 41.0386 14.1498Z" fill="#E6E8EC"/>
<path d="M40.9399 12.3311C40.9386 12.121 40.9158 11.9116 40.8718 11.7061C40.8656 11.6396 40.8656 11.5727 40.8718 11.5061C41.0566 11.5441 41.2329 11.6162 41.3918 11.7186C41.6674 11.8718 41.934 12.0409 42.1904 12.2249C42.2956 12.3061 42.4009 12.3811 42.4937 12.4686C42.5866 12.5561 42.6485 12.5999 42.7228 12.6686C42.7559 12.6249 42.7772 12.5732 42.7847 12.5186C42.8584 11.998 42.9722 11.4839 43.1252 10.9811C43.2763 10.5426 43.5026 10.1343 43.7937 9.77489C43.8928 9.64989 44.0042 9.53739 44.1095 9.41864C44.3745 9.15789 44.6721 8.93309 44.9947 8.74989C45.3511 8.55319 45.7321 8.40602 46.1275 8.31239C46.3302 8.26172 46.5379 8.23446 46.7466 8.23114C46.9094 8.21853 47.0729 8.21853 47.2356 8.23114C47.754 8.2453 48.2656 8.35326 48.7461 8.54989C49.1246 8.70921 49.4693 8.94049 49.7614 9.23114C50.2013 9.66967 50.5433 10.1982 50.7642 10.7811C50.8909 11.1391 50.9963 11.5043 51.0799 11.8749C51.1301 12.0933 51.1673 12.3145 51.1914 12.5374L51.2656 13.1624C51.2656 13.3061 51.2656 13.4561 51.2656 13.5999C51.3337 14.2249 51.2656 14.8499 51.2966 15.4749C51.2966 15.5999 51.2595 15.7249 51.2656 15.8499C51.2903 15.9715 51.2903 16.097 51.2656 16.2186C51.2562 16.247 51.2562 16.2778 51.2656 16.3061C51.2668 16.5049 51.2523 16.7034 51.2223 16.8999C51.2122 17.1094 51.1895 17.3181 51.1542 17.5249C51.1233 17.6624 51.1542 17.8124 51.0923 17.9374H50.9561C50.6641 17.8508 50.3661 17.786 50.0647 17.7436L49.4828 17.6624C49.5268 17.4571 49.5476 17.2474 49.5447 17.0374C49.5694 16.8007 49.5818 16.5629 49.5818 16.3249C49.6128 15.7816 49.6128 15.2369 49.5818 14.6936C49.5818 14.5561 49.5818 14.4186 49.5447 14.2874C49.5075 14.1561 49.489 13.8874 49.4518 13.6624L49.359 13.1811C49.2945 12.9089 49.2054 12.6432 49.0928 12.3874C48.9288 12.0101 48.732 11.6483 48.5047 11.3061C48.2991 11.0046 48.0509 10.7351 47.768 10.5061C47.5 10.2832 47.1768 10.1384 46.8333 10.0874C46.5252 10.0506 46.2129 10.0804 45.9171 10.1749C45.3979 10.3632 44.9234 10.6592 44.5242 11.0436C44.1603 11.3703 43.8248 11.7279 43.5214 12.1124L43.0014 12.7874C43.0014 12.8561 43.0014 12.8749 43.0014 12.9124H42.9023C42.8528 12.9624 42.8156 13.0124 42.7723 13.0624C42.729 13.1124 42.6671 13.2936 42.5433 13.3624C42.5376 13.3293 42.5376 13.2955 42.5433 13.2624C42.616 13.1075 42.668 12.9436 42.698 12.7749C42.1587 12.4789 41.5537 12.3262 40.9399 12.3311Z" fill="#B7B7B7"/>
<path d="M39.8079 21.25C39.9131 21.2875 40.9036 22.3688 41.1574 22.5813L41.5474 22.925C41.5625 22.9971 41.5625 23.0716 41.5474 23.1437C41.4979 23.5062 41.4546 23.875 41.436 24.2438C41.3812 24.228 41.3305 24.2002 41.2874 24.1625C40.9036 23.8875 39.4922 22.9688 39.4922 22.9688C39.4922 22.9688 39.8079 21.55 39.8079 21.25Z" fill="#B7B7B7"/>
<path d="M40.8604 11.4994C40.8604 11.4994 40.8229 11.4994 40.8604 11.4619C40.8637 11.4676 40.8654 11.4741 40.8654 11.4807C40.8654 11.4872 40.8637 11.4937 40.8604 11.4994Z" fill="#B7B7B7"/>
<path d="M39.1212 12.5744C39.1212 12.5744 39.1212 12.6182 39.1212 12.6369C38.8571 12.7085 38.6001 12.8048 38.3536 12.9244C38.0748 13.0567 37.813 13.2225 37.5736 13.4182C37.2552 13.6701 36.999 13.9931 36.825 14.3618C36.651 14.7304 36.564 15.1348 36.5707 15.5432C36.5767 15.74 36.5953 15.9362 36.6264 16.1307C36.6558 16.3938 36.7182 16.6521 36.8122 16.8994C36.9258 17.2764 37.0816 17.6392 37.2764 17.9807C37.2764 18.0119 37.3322 18.0432 37.3136 18.0932L36.7379 17.9682C36.5336 17.9244 36.3231 17.9119 36.1188 17.8744C35.9145 17.8369 35.6298 17.8744 35.3883 17.8119C35.2688 17.8025 35.1488 17.8025 35.0293 17.8119C34.9425 17.5739 34.8742 17.3294 34.825 17.0807C34.825 16.9432 34.7507 16.7994 34.7383 16.6557C34.726 16.5119 34.6641 16.3869 34.6641 16.2494C34.6641 15.9557 34.6641 15.6619 34.6641 15.3682C34.6705 15.1766 34.6954 14.9861 34.7383 14.7994C34.7937 14.538 34.8682 14.281 34.9612 14.0307C35.1028 13.6457 35.3126 13.2899 35.5803 12.9807C35.6727 12.8644 35.7719 12.7538 35.8774 12.6494C36.124 12.4115 36.396 12.2019 36.6883 12.0244C37.1195 11.7561 37.5836 11.5459 38.0688 11.3994C38.2922 11.3339 38.5197 11.2838 38.7498 11.2494C38.7921 11.2407 38.8335 11.2281 38.8736 11.2119C38.9169 11.4057 38.9541 11.6119 39.0036 11.7994C39.0036 11.8807 39.0036 11.9682 39.0469 12.0432C39.0903 12.1182 39.0903 12.4119 39.1212 12.5744Z" fill="#B7B7B7"/>
<path d="M50.6671 20.5375C50.63 20.5875 50.6671 20.6438 50.63 20.7063V20.8188C50.5495 20.925 50.5743 21.0562 50.5371 21.1687C50.5 21.2812 50.469 21.525 50.4257 21.7C50.3638 22 50.2957 22.325 50.2276 22.6C50.1595 22.875 50.0666 23.2875 49.9924 23.6313C49.949 23.85 49.9243 24.075 49.8809 24.2937C49.8376 24.5125 49.8252 24.6062 49.7943 24.75C49.7758 24.8449 49.7634 24.941 49.7571 25.0375C49.7571 25.2375 49.7014 25.4438 49.6704 25.6625L49.5838 26.3125C49.5558 26.4671 49.5434 26.6241 49.5466 26.7812C49.5466 26.8875 49.4971 26.9813 49.5095 27.0875C49.5372 27.1792 49.5372 27.2771 49.5095 27.3688C49.5066 27.3811 49.5066 27.3939 49.5095 27.4062C49.5095 27.725 49.4538 28.0313 49.5095 28.3625C49.2843 28.4152 49.0536 28.4404 48.8224 28.4375C48.8224 28.3125 48.8224 28.1875 48.7728 28.075C48.7233 27.9625 48.7357 27.7875 48.7233 27.65C48.7109 27.5125 48.7233 27.325 48.6738 27.1813C48.6673 26.972 48.6487 26.7633 48.6181 26.5563C48.6181 25.875 48.5809 25.1875 48.6181 24.5125C48.6181 24.2188 48.6614 23.9313 48.6862 23.65C48.6862 23.4938 48.7295 23.3437 48.7357 23.1875C48.7235 23.0816 48.7235 22.9746 48.7357 22.8688C48.7852 22.675 48.7914 22.4688 48.8285 22.2438C48.8657 22.0188 48.8657 21.8625 48.909 21.675C48.9524 21.4875 48.9833 21.1063 49.039 20.8313C49.039 20.7188 49.039 20.6 49.1009 20.5V20.3625C49.137 20.3003 49.1501 20.2273 49.1381 20.1562C49.3787 20.1636 49.6176 20.1993 49.85 20.2625C50.1235 20.3247 50.3924 20.4062 50.6547 20.5063C50.6547 20.5063 50.6609 20.5313 50.6671 20.5375Z" fill="#B7B7B7"/>
<path d="M47.277 27.1437C47.1887 27.1489 47.1003 27.1361 47.017 27.1062C46.5173 26.9557 46.0273 26.7741 45.5499 26.5625L45.0979 26.3687L44.9989 26.3312C44.937 26.2937 44.8875 26.225 44.8008 26.2312C44.7021 26.0385 44.6253 25.8351 44.5718 25.625C44.5374 25.5577 44.5245 25.4813 44.5346 25.4062C44.6151 25.4063 44.6646 25.5125 44.7389 25.5437L44.8751 25.65C45.6485 26.1912 46.4503 26.6898 47.277 27.1437Z" fill="#B7B7B7"/>
<path d="M20.4245 42.8932H20.0469C20.1724 42.8807 20.2989 42.8807 20.4245 42.8932Z" fill="#FCFCFD"/>
<path d="M29.9948 42.8932H29.6172C29.7428 42.8807 29.8692 42.8807 29.9948 42.8932Z" fill="#FCFCFD"/>
<path d="M48.7891 42.9186C48.8794 42.9061 48.9711 42.9061 49.0614 42.9186H48.7891Z" fill="#FCFCFD"/>
<path d="M52.6875 42.9183C52.7571 42.9061 52.8283 42.9061 52.898 42.9183H52.6875Z" fill="#FCFCFD"/>
<path d="M16.9799 33.2619C16.8127 33.6994 16.6394 34.1307 16.4723 34.5682C16.1875 35.2932 15.8965 36.0119 15.6118 36.7369V36.7994H15.098L13.6185 33.1994V36.7932H12.9375V32.2744H13.9837L15.3394 35.7619C15.5499 35.1369 15.7975 34.5869 16.0265 34.0119C16.2556 33.4369 16.4846 32.8557 16.7199 32.2744H17.7289V36.7932H17.0294C16.9923 36.7432 17.0294 36.6869 17.0294 36.6369C17.0294 35.6994 17.0294 34.7619 17.0294 33.8119C17.0294 33.6307 17.0294 33.4432 17.0294 33.2619C17.0571 33.1895 17.0571 33.1093 17.0294 33.0369C17.0294 33.1244 16.9675 33.1807 16.9799 33.2619Z" fill="#FCFCFD"/>
<path d="M59.3135 42.8124H58.6016V39.5937C58.7166 39.578 58.8332 39.578 58.9482 39.5937H59.3011C59.3382 39.7499 59.3011 39.9062 59.3011 40.0874C59.4017 39.91 59.5481 39.7634 59.7247 39.6632C59.9013 39.5631 60.1015 39.5131 60.3039 39.5187C60.5024 39.5119 60.698 39.5687 60.8626 39.681C61.0271 39.7933 61.1523 39.9552 61.2201 40.1437C61.282 40.1437 61.2882 40.0749 61.3192 40.0374C61.4696 39.8162 61.6892 39.6522 61.9428 39.5718C62.1965 39.4913 62.4695 39.499 62.7182 39.5937C62.8454 39.639 62.96 39.7142 63.0525 39.8131C63.1451 39.912 63.213 40.0318 63.2506 40.1624C63.3145 40.3452 63.3479 40.5374 63.3497 40.7312C63.3497 41.4187 63.3497 42.0999 63.3497 42.7812C63.3517 42.7957 63.3517 42.8104 63.3497 42.8249H62.6378C62.6378 42.8249 62.6378 42.7437 62.6378 42.6999C62.6378 42.1291 62.6378 41.5604 62.6378 40.9937C62.6369 40.8268 62.614 40.6607 62.5697 40.4999C62.5407 40.4098 62.4893 40.3287 62.4206 40.2642C62.3518 40.1998 62.2679 40.1541 62.1767 40.1316C62.0856 40.109 61.9902 40.1104 61.8998 40.1355C61.8093 40.1606 61.7266 40.2086 61.6597 40.2749C61.4926 40.4427 61.3876 40.6634 61.3625 40.8999C61.3625 40.9812 61.3625 41.0624 61.3625 41.1437C61.3625 41.6999 61.3625 42.2562 61.3625 42.8249C61.2413 42.8404 61.1185 42.8404 60.9973 42.8249H60.663C60.6487 42.7781 60.6487 42.728 60.663 42.6812V41.0187C60.6651 40.8516 60.6421 40.6851 60.5949 40.5249C60.57 40.4152 60.5119 40.316 60.4288 40.241C60.3456 40.166 60.2414 40.1189 60.1306 40.1062C60.0259 40.0887 59.9184 40.1017 59.8208 40.1438C59.7232 40.1859 59.6396 40.2552 59.5797 40.3437C59.432 40.5481 59.3578 40.7972 59.3692 41.0499C59.3692 41.3374 59.3692 41.6249 59.3692 41.9124L59.3135 42.8124Z" fill="#FCFCFD"/>
<path d="M42.1468 36.7935H41.4164C41.4133 36.7644 41.4133 36.7351 41.4164 36.706V32.331C41.4535 32.2872 41.4968 32.331 41.534 32.331C41.9983 32.331 42.4564 32.331 42.9206 32.331C43.2107 32.3259 43.4976 32.3925 43.7564 32.5247C43.9386 32.607 44.0936 32.7401 44.2033 32.9084C44.313 33.0768 44.3727 33.2732 44.3754 33.4747C44.3953 33.7501 44.3215 34.0242 44.1661 34.2515C44.0108 34.4788 43.7832 34.6457 43.5211 34.7247L43.4221 34.756C43.4221 34.8122 43.4716 34.8185 43.5026 34.8435C43.6999 34.9918 43.8679 35.1762 43.9978 35.3872C44.2887 35.8372 44.5735 36.2935 44.8583 36.7497C44.8648 36.7623 44.8682 36.7762 44.8682 36.7903C44.8682 36.8045 44.8648 36.8184 44.8583 36.831H43.9854C43.8926 36.6747 43.7935 36.4997 43.6883 36.331C43.583 36.1622 43.3787 35.7997 43.2178 35.5372C43.1424 35.402 43.0463 35.2796 42.933 35.1747C42.8731 35.0998 42.7968 35.0399 42.7102 34.9997C42.5279 34.9672 42.3415 34.9672 42.1592 34.9997L42.1468 36.7935ZM42.1468 34.3372C42.3982 34.356 42.6507 34.356 42.9021 34.3372C43.0451 34.3269 43.1814 34.2721 43.2923 34.1803C43.4031 34.0885 43.4831 33.9643 43.5211 33.8247C43.5364 33.7295 43.5364 33.6324 43.5211 33.5372C43.5238 33.3901 43.4749 33.2468 43.3832 33.1325C43.2915 33.0181 43.1628 32.9401 43.0197 32.9122C42.7281 32.8768 42.434 32.8664 42.1407 32.881L42.1468 34.3372Z" fill="#FCFCFD"/>
<path d="M46.045 41.6752H44.2993L43.9093 42.8064H43.0859L44.7636 38.2939H45.6117C46.1626 39.7939 46.7197 41.2939 47.2769 42.8064H46.4288L46.045 41.6752ZM45.1907 39.0439C45.1746 39.1337 45.1497 39.2216 45.1164 39.3064L44.6336 40.7314C44.5853 40.8291 44.5559 40.9352 44.5469 41.0439H45.8717C45.6302 40.3627 45.3702 39.7189 45.1907 39.0439Z" fill="#FCFCFD"/>
<path d="M36.1975 34.4252L35.5103 36.7939H34.7551L33.8203 33.5752H34.5817L35.2008 36.0189L35.9065 33.5752H36.5998C36.7175 33.9814 36.8041 34.4064 36.9094 34.8252C37.0146 35.2439 37.1198 35.6627 37.2251 36.0752L37.8441 33.5752H38.5065C38.5222 33.6175 38.5222 33.6641 38.5065 33.7064C38.2155 34.7127 37.9184 35.7252 37.6213 36.7314V36.7939H36.8227L36.1975 34.4252Z" fill="#FCFCFD"/>
<path d="M57.3327 36.7936H56.6208V36.2498L56.5341 36.3748C56.4051 36.5652 56.2241 36.7137 56.0132 36.8025C55.8022 36.8912 55.5703 36.9163 55.3456 36.8748C55.1164 36.8521 54.8991 36.7608 54.7216 36.6127C54.5441 36.4647 54.4143 36.2665 54.3489 36.0436C54.2355 35.7405 54.1874 35.4166 54.2076 35.0933C54.2279 34.77 54.3162 34.4547 54.4665 34.1686C54.5508 33.9977 54.6727 33.8485 54.823 33.7326C54.9732 33.6167 55.1477 33.5371 55.3332 33.4998C55.5372 33.4557 55.7482 33.4557 55.9522 33.4998C56.1479 33.5403 56.3245 33.6459 56.4537 33.7998L56.596 33.9811V32.0186H57.3141L57.3327 36.7936ZM56.6146 35.1248C56.6146 35.0311 56.6146 34.9311 56.6146 34.8373C56.6117 34.716 56.5808 34.5971 56.5244 34.4899C56.468 34.3828 56.3876 34.2903 56.2897 34.22C56.1918 34.1496 56.079 34.1033 55.9602 34.0846C55.8415 34.0659 55.72 34.0754 55.6056 34.1123C55.4689 34.1518 55.3449 34.2269 55.246 34.33C55.1472 34.4331 55.0769 34.5606 55.0422 34.6998C54.9755 34.9373 54.9545 35.1855 54.9803 35.4311C54.993 35.5797 55.0351 35.7242 55.1041 35.8561C55.1683 35.992 55.2705 36.1059 55.3981 36.1836C55.5258 36.2614 55.6732 36.2996 55.8222 36.2936C56.004 36.2811 56.1768 36.209 56.3142 36.0883C56.4517 35.9676 56.5463 35.8048 56.5837 35.6248C56.6155 35.4602 56.6259 35.2921 56.6146 35.1248Z" fill="#FCFCFD"/>
<path d="M26.9922 32.0186H27.7041V34.0498C27.766 34.0498 27.7784 33.9998 27.8031 33.9686C27.9242 33.7933 28.092 33.6563 28.287 33.5734C28.482 33.4904 28.6963 33.4649 28.905 33.4998C28.9953 33.5021 29.0849 33.5169 29.1712 33.5436C29.3001 33.5894 29.4168 33.6645 29.5123 33.7631C29.6079 33.8617 29.6797 33.9812 29.7222 34.1123C29.7884 34.2944 29.822 34.487 29.8212 34.6811C29.8212 35.3686 29.8212 36.0498 29.8212 36.7373C29.8237 36.756 29.8237 36.7749 29.8212 36.7936H29.0908C29.0412 36.7498 29.0908 36.6998 29.0908 36.6561V34.9998C29.0961 34.8502 29.0794 34.7007 29.0412 34.5561C29.012 34.4528 28.9568 34.3588 28.8811 34.2833C28.8054 34.2078 28.7116 34.1533 28.609 34.125C28.5063 34.0968 28.3981 34.0957 28.2949 34.1219C28.1917 34.1482 28.097 34.2008 28.0198 34.2748C27.9201 34.3767 27.8419 34.4978 27.7897 34.631C27.7376 34.7642 27.7127 34.9067 27.7165 35.0498C27.7165 35.5811 27.7165 36.1061 27.7165 36.6373C27.7288 36.6929 27.7288 36.7505 27.7165 36.8061H26.9922V32.0186Z" fill="#FCFCFD"/>
<path d="M17.047 42.8875H16.6013C16.1965 42.8708 15.8053 42.7362 15.4746 42.5C15.0666 42.1997 14.7893 41.7518 14.7008 41.25C14.5725 40.6831 14.6267 40.0898 14.8556 39.5562C14.9948 39.2328 15.2113 38.9493 15.4857 38.7311C15.7601 38.513 16.0839 38.367 16.4279 38.3062C16.9425 38.1933 17.478 38.2258 17.9756 38.4L18.0622 38.4375V39.125C17.9941 39.125 17.9508 39.125 17.9075 39.075C17.4754 38.8558 16.9757 38.8155 16.5146 38.9625C16.2493 39.0397 16.011 39.1909 15.827 39.3988C15.643 39.6066 15.5209 39.8627 15.4746 40.1375C15.3772 40.5185 15.401 40.9208 15.5427 41.2875C15.6231 41.5286 15.7691 41.742 15.9639 41.9034C16.1588 42.0648 16.3946 42.1675 16.6446 42.2C17.092 42.2815 17.5535 42.2042 17.9508 41.9812H18.0127H18.0498C18.0498 42.2 18.0498 42.4187 18.0498 42.65C17.7372 42.8033 17.3946 42.8845 17.047 42.8875Z" fill="#FCFCFD"/>
<path d="M61.4324 35.1495C61.4535 35.4779 61.3805 35.8056 61.2219 36.0932C61.1151 36.2869 60.9669 36.4541 60.788 36.5827C60.6092 36.7114 60.4043 36.7982 60.1881 36.837C59.8792 36.915 59.5561 36.915 59.2472 36.837C58.9771 36.7675 58.7331 36.6199 58.545 36.4122C58.3569 36.2046 58.233 35.946 58.1886 35.6682C58.1142 35.356 58.1142 35.0304 58.1886 34.7182C58.2371 34.4395 58.3656 34.1813 58.5582 33.9758C58.7508 33.7702 58.999 33.6263 59.2719 33.562C59.6434 33.4494 60.0395 33.4494 60.411 33.562C60.6638 33.6348 60.8906 33.7796 61.0641 33.9791C61.2375 34.1786 61.3504 34.4244 61.3891 34.687C61.4283 34.8378 61.4429 34.994 61.4324 35.1495ZM58.8943 35.1495C58.8943 35.237 58.8943 35.3307 58.8943 35.4245C58.9088 35.6322 58.9946 35.8283 59.137 35.9789C59.2794 36.1295 59.4695 36.2252 59.6743 36.2495C59.7772 36.2714 59.8833 36.2727 59.9866 36.2531C60.0899 36.2336 60.1884 36.1936 60.2764 36.1356C60.3644 36.0775 60.4402 36.0025 60.4994 35.9147C60.5586 35.827 60.6001 35.7284 60.6215 35.6245C60.7204 35.2986 60.7204 34.9503 60.6215 34.6245C60.586 34.4847 60.5128 34.3575 60.4101 34.2571C60.3074 34.1567 60.1791 34.087 60.0395 34.0557C59.9307 34.0402 59.8203 34.0402 59.7115 34.0557C59.6041 34.063 59.4994 34.0922 59.4036 34.1416C59.3078 34.191 59.223 34.2596 59.1543 34.3432C58.9666 34.5795 58.8737 34.8785 58.8943 35.1807V35.1495Z" fill="#FCFCFD"/>
<path d="M33.224 36.0243V36.5931C33.1275 36.6668 33.0184 36.7219 32.9021 36.7556C32.5031 36.8885 32.0775 36.9186 31.664 36.8431C31.4241 36.8015 31.2006 36.6927 31.019 36.5292C30.8373 36.3657 30.7047 36.1539 30.6364 35.9181C30.4754 35.4613 30.4754 34.9624 30.6364 34.5056C30.7128 34.2963 30.8328 34.106 30.9883 33.9477C31.1439 33.7893 31.3313 33.6666 31.538 33.5878C31.7446 33.5089 31.9656 33.4759 32.186 33.4908C32.4064 33.5057 32.6211 33.5683 32.8154 33.6743C32.9762 33.7734 33.1141 33.9061 33.2198 34.0635C33.3255 34.2209 33.3966 34.3994 33.4283 34.5868C33.4804 34.8501 33.495 35.1194 33.4716 35.3868H31.3174C31.2984 35.5707 31.3412 35.7557 31.4389 35.9121C31.5365 36.0685 31.6834 36.1873 31.8559 36.2493C32.0611 36.3159 32.2782 36.3364 32.4921 36.3094C32.7059 36.2824 32.9114 36.2086 33.094 36.0931C33.094 36.0931 33.1683 36.0181 33.224 36.0243ZM31.3235 34.8431H32.7597C32.7844 34.7489 32.7844 34.6498 32.7597 34.5556C32.7405 34.4608 32.7009 34.3715 32.6435 34.2941C32.5861 34.2166 32.5125 34.1529 32.428 34.1075C32.3434 34.0621 32.2499 34.0362 32.1542 34.0315C32.0585 34.0269 31.963 34.0436 31.8745 34.0806C31.7205 34.1419 31.5869 34.2461 31.4894 34.3811C31.3918 34.5161 31.3343 34.6763 31.3235 34.8431Z" fill="#FCFCFD"/>
<path d="M47.9098 35.3878H45.7617C45.7362 35.5684 45.7726 35.7525 45.8649 35.9094C45.9573 36.0662 46.0999 36.1865 46.2693 36.2503C46.5566 36.347 46.8672 36.347 47.1545 36.2503C47.3283 36.1889 47.4962 36.1115 47.656 36.019V36.6065C47.5513 36.6779 47.4365 36.7327 47.3155 36.769C46.9168 36.9051 46.4893 36.931 46.0774 36.844C45.8624 36.8086 45.6605 36.7166 45.4921 36.5772C45.3236 36.4379 45.1945 36.2561 45.1179 36.0503C45.0029 35.773 44.95 35.4735 44.9628 35.1732C44.9757 34.8728 45.054 34.5791 45.1921 34.3128C45.2971 34.0864 45.4594 33.892 45.6627 33.7494C45.866 33.6067 46.103 33.5208 46.3498 33.5003C46.5871 33.4698 46.8283 33.4932 47.0555 33.569C47.2341 33.6338 47.3947 33.7408 47.5239 33.8811C47.6532 34.0213 47.7473 34.1908 47.7983 34.3753C47.8972 34.7029 47.935 35.0462 47.9098 35.3878ZM45.7431 34.8378C46.2275 34.8695 46.7134 34.8695 47.1979 34.8378C47.2009 34.7858 47.2009 34.7336 47.1979 34.6815C47.1891 34.5705 47.155 34.4629 47.098 34.3675C47.0411 34.272 46.9629 34.1913 46.8698 34.1315C46.7382 34.0637 46.5897 34.0369 46.443 34.0548C46.2963 34.0726 46.1583 34.1341 46.0464 34.2315C45.882 34.3944 45.7753 34.6075 45.7431 34.8378Z" fill="#FCFCFD"/>
<path d="M20.5738 34.7062C20.5773 34.6563 20.5773 34.6061 20.5738 34.5562C20.5634 34.4233 20.5056 34.2987 20.4111 34.2055C20.3166 34.1124 20.1918 34.0571 20.0599 34.0499C19.6818 34.0178 19.3057 34.1317 19.0076 34.3687L18.9085 34.4437C18.8994 34.3335 18.8994 34.2227 18.9085 34.1125V33.8C19.0742 33.6879 19.2589 33.6074 19.4533 33.5625C19.7933 33.4742 20.1486 33.4635 20.4933 33.5312C20.7117 33.5686 20.9106 33.6812 21.0561 33.8498C21.2017 34.0184 21.285 34.2326 21.2918 34.4562C21.2918 34.5312 21.2918 34.6124 21.2918 34.6937V36.6562C21.2918 36.7 21.2918 36.7499 21.2918 36.7937H20.5738V36.3687C20.5057 36.3687 20.4933 36.425 20.4685 36.4562C20.2929 36.6766 20.0431 36.8239 19.7667 36.87C19.4904 36.9161 19.2069 36.8578 18.9704 36.7062C18.8783 36.648 18.799 36.5714 18.7373 36.4811C18.6755 36.3908 18.6327 36.2888 18.6114 36.1812C18.569 35.9736 18.5797 35.7585 18.6423 35.5562C18.6975 35.4011 18.7906 35.2625 18.9128 35.1533C19.0351 35.0441 19.1826 34.9677 19.3418 34.9312C19.6136 34.8702 19.8885 34.8243 20.1652 34.7937C20.304 34.7787 20.4409 34.7494 20.5738 34.7062ZM20.5738 35.2187C20.2618 35.252 19.9518 35.302 19.6452 35.3687C19.5439 35.3942 19.453 35.451 19.3852 35.5312C19.3364 35.5965 19.3049 35.6732 19.2937 35.7542C19.2824 35.8352 19.2918 35.9177 19.3209 35.994C19.35 36.0703 19.3979 36.1379 19.4601 36.1903C19.5222 36.2428 19.5966 36.2783 19.6761 36.2937C19.7789 36.3153 19.8849 36.3147 19.9874 36.2919C20.0899 36.2691 20.1864 36.2246 20.2706 36.1614C20.3548 36.0983 20.4248 36.0178 20.476 35.9253C20.5272 35.8328 20.5584 35.7305 20.5676 35.625C20.5799 35.4875 20.5676 35.3687 20.5676 35.2187H20.5738Z" fill="#FCFCFD"/>
<path d="M50.4052 34.6938C50.4134 34.6038 50.4022 34.513 50.3722 34.4277C50.3423 34.3425 50.2944 34.2648 50.2319 34.2001C50.1661 34.1403 50.0885 34.0954 50.0041 34.0684C49.9198 34.0415 49.8307 34.0331 49.7428 34.0438C49.4226 34.0461 49.1119 34.1536 48.8576 34.3501C48.8222 34.3825 48.7798 34.4061 48.7338 34.4188V33.7938C48.8948 33.6884 49.0729 33.6123 49.26 33.5688C49.6012 33.4763 49.9585 33.4614 50.3062 33.5251C50.5299 33.5654 50.7329 33.6827 50.8807 33.857C51.0285 34.0313 51.1121 34.2519 51.1171 34.4813V36.7938H50.4238C50.414 36.6398 50.414 36.4853 50.4238 36.3313L50.3247 36.4563C50.2097 36.61 50.056 36.7298 49.8797 36.8035C49.7034 36.8771 49.5108 36.9018 49.3219 36.8751C49.2528 36.8687 49.1844 36.8561 49.1176 36.8376C48.9302 36.7943 48.7625 36.689 48.6414 36.5383C48.5202 36.3877 48.4525 36.2004 48.449 36.0063C48.4337 35.8818 48.4337 35.7559 48.449 35.6313C48.4845 35.4921 48.5516 35.3631 48.6451 35.2546C48.7386 35.1461 48.8559 35.0611 48.9876 35.0063C49.2284 34.9156 49.4804 34.8588 49.7366 34.8376L50.3062 34.7563C50.3263 34.7544 50.3458 34.7478 50.363 34.737C50.3802 34.7261 50.3947 34.7113 50.4052 34.6938ZM50.4052 35.2188L49.6933 35.3188C49.5935 35.3313 49.4958 35.3565 49.4023 35.3938C49.3045 35.4281 49.2224 35.497 49.1711 35.5878C49.1199 35.6787 49.1031 35.7852 49.1238 35.8876C49.1293 35.9863 49.1679 36.0802 49.2331 36.154C49.2983 36.2277 49.3863 36.277 49.4828 36.2938C49.6656 36.3372 49.8578 36.3091 50.0209 36.2152C50.184 36.1213 50.3058 35.9685 50.3619 35.7876C50.4044 35.6012 50.4211 35.4098 50.4114 35.2188H50.4052Z" fill="#FCFCFD"/>
<path d="M29.9995 42.8933C29.8739 42.8808 29.7474 42.8808 29.6219 42.8933C29.26 42.8776 28.9182 42.7207 28.6685 42.4558C28.4773 42.2354 28.3527 41.9643 28.3095 41.6746C28.2294 41.2782 28.2594 40.8673 28.3962 40.4871C28.5207 40.1543 28.7565 39.8759 29.0629 39.7001C29.3693 39.5243 29.7269 39.4622 30.0738 39.5246C30.3482 39.5641 30.6025 39.6929 30.798 39.8913C30.9934 40.0898 31.1195 40.3472 31.1571 40.6246C31.1977 40.8723 31.2102 41.1239 31.1943 41.3746H29.0276C29.0039 41.5881 29.0619 41.8027 29.1896 41.9746C29.3172 42.1465 29.5051 42.2627 29.7147 42.2996C30.0804 42.37 30.459 42.3033 30.7795 42.1121L30.8476 42.0621C30.8747 42.052 30.8998 42.0372 30.9219 42.0183C30.9219 42.2183 30.9219 42.4121 30.9219 42.6058C30.6433 42.7784 30.326 42.8773 29.9995 42.8933ZM30.4762 40.8746C30.4868 40.7428 30.4678 40.6103 30.4204 40.4871C30.396 40.4064 30.3556 40.3316 30.3018 40.2671C30.2479 40.2026 30.1817 40.1498 30.1071 40.1118C30.0324 40.0739 29.951 40.0515 29.8676 40.0462C29.7842 40.0409 29.7006 40.0527 29.6219 40.0808C29.4477 40.128 29.2933 40.2307 29.1817 40.3738C29.0701 40.5169 29.0074 40.6925 29.0028 40.8746H30.4762Z" fill="#FCFCFD"/>
<path d="M20.428 42.8937C20.3024 42.8812 20.1759 42.8812 20.0504 42.8937C19.8449 42.8844 19.6441 42.8284 19.4629 42.7299C19.2818 42.6315 19.125 42.493 19.0042 42.3249C18.8523 42.1044 18.7586 41.8484 18.7318 41.5812C18.6922 41.2682 18.709 40.9506 18.7813 40.6437C18.8686 40.3071 19.0672 40.0108 19.3442 39.8039C19.6212 39.597 19.9599 39.492 20.3042 39.5062C20.4802 39.5014 20.6551 39.5347 20.8174 39.6037C20.9797 39.6726 21.1255 39.7758 21.2451 39.9062C21.4121 40.113 21.5211 40.3612 21.5609 40.6249C21.5952 40.8775 21.6076 41.1326 21.598 41.3874C21.4809 41.403 21.3623 41.403 21.2451 41.3874C21.1275 41.3874 21.0037 41.3874 20.8861 41.3874H19.4375C19.4195 41.5999 19.4825 41.8114 19.6136 41.9787C19.7448 42.1459 19.9342 42.2563 20.1432 42.2874C20.5144 42.3573 20.8981 42.2861 21.2204 42.0874L21.3442 42.0124V42.6374C21.0646 42.7983 20.7497 42.8864 20.428 42.8937ZM20.9232 40.8749C20.9222 40.7479 20.9035 40.6216 20.8675 40.4999C20.835 40.3918 20.7741 40.2946 20.6913 40.2187C20.6084 40.1427 20.5067 40.0909 20.397 40.0687C20.2515 40.0396 20.1007 40.0548 19.9637 40.1124C19.8198 40.1801 19.698 40.2877 19.6125 40.4228C19.5269 40.5578 19.4813 40.7146 19.4809 40.8749H20.9232Z" fill="#FCFCFD"/>
<path d="M62.9463 36.7998H62.2344V33.5748C62.4696 33.5748 62.711 33.5748 62.9587 33.5748V34.0748L63.1815 33.8248C63.3065 33.6987 63.4588 33.6037 63.6264 33.5473C63.794 33.4909 63.9723 33.4746 64.1472 33.4998C64.2808 33.507 64.4112 33.5432 64.5298 33.6057C64.6483 33.6682 64.7522 33.7557 64.8344 33.8623C64.9408 34.0132 65.0127 34.1861 65.0449 34.3685C65.0718 34.5086 65.0863 34.6508 65.0882 34.7935C65.0882 35.4185 65.0882 36.0435 65.0882 36.6185V36.7998H64.3763C64.3554 36.7433 64.3554 36.6812 64.3763 36.6248V35.0685C64.3785 34.9005 64.3619 34.7328 64.3268 34.5685C64.3047 34.4566 64.2528 34.3529 64.1765 34.2687C64.1003 34.1844 64.0027 34.1229 63.8942 34.0907C63.7858 34.0585 63.6707 34.0569 63.5615 34.086C63.4522 34.1152 63.3529 34.174 63.2744 34.256C63.1872 34.3347 63.1174 34.431 63.0694 34.5387C63.0214 34.6463 62.9963 34.763 62.9958 34.881C62.9958 35.106 62.9958 35.331 62.9958 35.556V36.6748C62.9916 36.7204 62.9744 36.7638 62.9463 36.7998Z" fill="#FCFCFD"/>
<path d="M49.0611 42.8932C48.9708 42.8807 48.8791 42.8807 48.7887 42.8932C48.6105 42.8877 48.4362 42.8383 48.2811 42.7494C48.1568 42.6677 48.0511 42.5603 47.9711 42.4342C47.891 42.3081 47.8385 42.1663 47.8168 42.0182C47.7868 41.8659 47.7723 41.7109 47.7735 41.5557V39.5869H48.4978C48.4978 39.6244 48.4978 39.6744 48.4978 39.7182C48.4978 40.3057 48.4978 40.8994 48.4978 41.4869C48.4942 41.6362 48.5194 41.7848 48.5721 41.9244C48.601 42.0117 48.6513 42.0902 48.7184 42.1526C48.7856 42.2149 48.8673 42.2589 48.9559 42.2807C49.1275 42.3308 49.3116 42.3128 49.4704 42.2303C49.6293 42.1478 49.7508 42.007 49.8102 41.8369C49.8658 41.6938 49.8911 41.5405 49.8845 41.3869V39.5869H50.6087V42.8057H49.9216V42.3307C49.8219 42.4869 49.6938 42.6227 49.544 42.7307C49.3975 42.8215 49.2323 42.8771 49.0611 42.8932Z" fill="#FCFCFD"/>
<path d="M22.3516 39.5814H23.082V40.0627C23.1563 40.0627 23.1687 39.9814 23.1997 39.9439C23.3336 39.7741 23.5115 39.6451 23.7137 39.5712C23.9158 39.4973 24.1343 39.4813 24.3449 39.5252C24.5289 39.549 24.7014 39.6287 24.8396 39.7537C24.9778 39.8787 25.0751 40.0431 25.1187 40.2252C25.1725 40.3884 25.1997 40.5594 25.1992 40.7314C25.1992 41.4064 25.1992 42.0752 25.1992 42.7502C25.2016 42.7688 25.2016 42.7877 25.1992 42.8064H24.4811C24.4811 42.7627 24.4811 42.7189 24.4811 42.6752C24.4811 42.1314 24.4811 41.5939 24.4811 41.0564C24.4823 40.9074 24.4678 40.7586 24.4378 40.6127C24.4205 40.5092 24.3778 40.4118 24.3135 40.3295C24.2492 40.2471 24.1654 40.1824 24.0698 40.1413C23.9742 40.1002 23.8699 40.0841 23.7666 40.0943C23.6632 40.1046 23.564 40.141 23.4782 40.2002C23.3721 40.2676 23.2831 40.3593 23.2186 40.4679C23.154 40.5765 23.1157 40.6989 23.1068 40.8252C23.1006 40.9063 23.1006 40.9878 23.1068 41.0689V42.6689C23.1219 42.7135 23.1219 42.7618 23.1068 42.8064H22.3516V39.5814Z" fill="#FCFCFD"/>
<path d="M56.652 42.8938H56.2744C56.0304 42.8849 55.7906 42.8276 55.5687 42.725V42.05C55.6427 42.0821 55.7133 42.1219 55.7791 42.1688C55.9411 42.2587 56.1191 42.3155 56.3029 42.3359C56.4867 42.3563 56.6726 42.3398 56.8501 42.2875C56.9324 42.2723 57.0056 42.2252 57.0541 42.1564C57.1027 42.0875 57.1227 42.0023 57.1101 41.9188C57.1037 41.8699 57.0872 41.8229 57.0616 41.7809C57.036 41.7389 57.0019 41.7028 56.9615 41.675C56.878 41.6157 56.7862 41.5694 56.6891 41.5375C56.4925 41.4681 56.3003 41.3867 56.1134 41.2938L55.9648 41.2125C55.8377 41.1377 55.7321 41.0305 55.6588 40.9017C55.5855 40.7728 55.5469 40.6268 55.5469 40.4782C55.5469 40.3295 55.5855 40.1835 55.6588 40.0547C55.7321 39.9258 55.8377 39.8186 55.9648 39.7438C56.2285 39.5849 56.5306 39.5027 56.8377 39.5063C57.1125 39.4959 57.3864 39.5428 57.6425 39.6438V40.2688C57.5868 40.2688 57.5558 40.2688 57.5187 40.225C57.2521 40.0788 56.943 40.0324 56.6458 40.0938C56.5512 40.1124 56.4621 40.1531 56.3858 40.2125C56.3483 40.243 56.3181 40.2815 56.2973 40.3254C56.2766 40.3692 56.2658 40.4171 56.2658 40.4657C56.2658 40.5142 56.2766 40.5622 56.2973 40.606C56.3181 40.6498 56.3483 40.6883 56.3858 40.7188C56.5013 40.7896 56.6237 40.8482 56.751 40.8938C56.9665 40.9604 57.174 41.0505 57.3701 41.1625C57.5196 41.2427 57.6412 41.367 57.7187 41.519C57.7961 41.6709 57.8257 41.8431 57.8034 42.0125C57.7885 42.1768 57.7277 42.3333 57.6279 42.4639C57.5281 42.5945 57.3936 42.6938 57.2401 42.75C57.0534 42.8309 56.8546 42.8795 56.652 42.8938Z" fill="#FCFCFD"/>
<path d="M52.8946 42.8934C52.825 42.8812 52.7538 42.8812 52.6841 42.8934C52.5593 42.8871 52.4362 42.8618 52.3189 42.8184C52.2014 42.7736 52.0981 42.6978 52.0197 42.5988C51.9412 42.4998 51.8907 42.3814 51.8732 42.2559C51.8638 42.1352 51.8638 42.014 51.8732 41.8934C51.8732 41.3809 51.8732 40.8621 51.8732 40.3434V40.1684H51.3594V39.5809H51.8732V38.8434C52.1208 38.7621 52.356 38.6934 52.616 38.6309V39.5746H53.3775V40.1621H52.616C52.6067 40.1816 52.6019 40.203 52.6019 40.2246C52.6019 40.2463 52.6067 40.2676 52.616 40.2871V41.7496C52.6069 41.8306 52.6069 41.9124 52.616 41.9934C52.6268 42.0795 52.6688 42.1585 52.734 42.2151C52.7992 42.2717 52.8829 42.3018 52.9689 42.2996C53.107 42.3092 53.2443 42.2718 53.3589 42.1934V42.7684C53.2193 42.8543 53.0581 42.8978 52.8946 42.8934Z" fill="#FCFCFD"/>
<path d="M22.4233 32.8189L23.16 32.6064V33.5627H23.9152V34.1439H23.1847C23.1811 34.1625 23.1811 34.1816 23.1847 34.2002C23.1847 34.7189 23.1847 35.2314 23.1847 35.7502C23.1847 35.7502 23.1847 35.7877 23.1847 35.8002C23.1743 35.8852 23.1885 35.9715 23.2256 36.0486C23.2627 36.1257 23.3211 36.1903 23.3938 36.2345C23.4665 36.2788 23.5503 36.3009 23.6351 36.2981C23.72 36.2954 23.8022 36.2679 23.8719 36.2189H23.9276C23.9431 36.3141 23.9431 36.4113 23.9276 36.5064C23.9276 36.5939 23.9276 36.6877 23.9276 36.7814C23.8209 36.8467 23.6994 36.8833 23.5747 36.8877C23.3677 36.9188 23.1564 36.9039 22.9557 36.8439C22.8167 36.8058 22.6928 36.7253 22.6009 36.6135C22.5089 36.5016 22.4534 36.3638 22.4419 36.2189C22.4326 36.1171 22.4326 36.0146 22.4419 35.9127V34.1689C22.3586 34.1475 22.2713 34.1475 22.1881 34.1689H21.9219C21.9219 33.9752 21.9219 33.7939 21.9219 33.5939H22.4481L22.4233 32.8189Z" fill="#FCFCFD"/>
<path d="M24.7638 34.1498H24.25C24.25 33.9561 24.25 33.7686 24.25 33.5686H24.7824V32.8186L25.4943 32.6123C25.5099 32.7138 25.5099 32.8171 25.4943 32.9186V33.5436H26.2619V34.1248H25.55C25.5353 34.1843 25.5353 34.2465 25.55 34.3061V35.5561C25.5439 35.6706 25.5439 35.7853 25.55 35.8998C25.5548 35.9899 25.5945 36.0745 25.6605 36.1353C25.7265 36.1961 25.8136 36.2282 25.9029 36.2248C26.0379 36.2368 26.1735 36.2086 26.2929 36.1436C26.2929 36.3311 26.2929 36.5186 26.2929 36.7123C26.0674 36.8126 25.8192 36.8494 25.5748 36.8186C25.5076 36.8178 25.4409 36.8073 25.3767 36.7873C25.2014 36.7499 25.0457 36.6493 24.9386 36.5044C24.8315 36.3594 24.7804 36.1801 24.7948 35.9998C24.7948 35.4248 24.7948 34.8498 24.7948 34.2748C24.7923 34.2315 24.7818 34.1891 24.7638 34.1498Z" fill="#FCFCFD"/>
<path d="M27.4035 42.8871H27.162C27.07 42.8817 26.9788 42.867 26.8896 42.8434C26.7382 42.8022 26.6037 42.7134 26.5057 42.5897C26.4077 42.4661 26.3514 42.3141 26.3449 42.1559C26.3449 42.0621 26.3449 41.9684 26.3449 41.8746C26.3449 41.3684 26.3449 40.8684 26.3449 40.3621V40.1684C26.1654 40.1684 25.992 40.1684 25.8125 40.1684V39.5996C25.9796 39.5996 26.153 39.5996 26.3387 39.5996V38.8371L27.0506 38.6309C27.0689 38.7342 27.0689 38.84 27.0506 38.9434C27.0506 39.0496 27.0506 39.1496 27.0506 39.2559V39.5746H27.8554V40.1621H27.1001C27.0835 40.1816 27.0715 40.2047 27.065 40.2296C27.0586 40.2546 27.0579 40.2806 27.063 40.3059V41.7246C27.0636 41.8151 27.074 41.9052 27.0939 41.9934C27.1039 42.0743 27.1414 42.1491 27.2002 42.205C27.259 42.261 27.3352 42.2944 27.4158 42.2996C27.5612 42.3129 27.7069 42.2778 27.8306 42.1996V42.7746C27.7003 42.849 27.5531 42.8877 27.4035 42.8871Z" fill="#FCFCFD"/>
<path d="M53.9121 33.5557V34.2557C53.7734 34.1714 53.6091 34.1407 53.4497 34.1695C53.2903 34.1982 53.1466 34.2844 53.0454 34.4119C52.9587 34.511 52.8953 34.6285 52.8597 34.7557C52.8154 34.9101 52.7925 35.0699 52.7916 35.2307V36.6244C52.8065 36.6818 52.8065 36.7421 52.7916 36.7994H52.0859C52.0859 35.7557 52.0859 34.7182 52.0859 33.6744C52.0808 33.6626 52.0781 33.6498 52.0781 33.6369C52.0781 33.624 52.0808 33.6113 52.0859 33.5994H52.7978V34.2244L52.9402 33.9619C53.0149 33.8191 53.1304 33.7022 53.2716 33.6265C53.4129 33.5507 53.5735 33.5195 53.7325 33.5369H53.8006L53.9121 33.5557Z" fill="#FCFCFD"/>
<path d="M32.6648 42.8124H31.9591C31.9591 42.6749 31.9281 39.7874 31.9591 39.5874H32.6648V40.2124C32.7267 40.1686 32.7329 40.1124 32.7576 40.0624C32.8283 39.9169 32.9323 39.7905 33.061 39.6936C33.166 39.6194 33.2871 39.5716 33.4142 39.5542C33.5413 39.5368 33.6706 39.5504 33.7914 39.5936V40.2937C33.6981 40.2475 33.5976 40.2179 33.4943 40.2062C33.3701 40.198 33.2462 40.2254 33.1367 40.2851C33.0272 40.3448 32.9366 40.4344 32.8753 40.5437C32.7931 40.6674 32.7402 40.8085 32.7205 40.9561C32.6983 41.0863 32.6859 41.2179 32.6834 41.3499C32.671 41.8187 32.6648 42.3062 32.6648 42.8124Z" fill="#FCFCFD"/>
<path d="M38.5078 42.8939H38.1982C37.998 42.8893 37.8038 42.8236 37.6414 42.7053C37.4789 42.587 37.3558 42.4218 37.2882 42.2314C37.1966 42.0177 37.1621 41.7834 37.1881 41.552C37.2142 41.3206 37.3 41.1002 37.4368 40.9127C37.5751 40.7289 37.7718 40.5987 37.994 40.5439C38.2314 40.4815 38.4808 40.4815 38.7182 40.5439C38.8958 40.5742 39.0612 40.6549 39.195 40.7767C39.3288 40.8984 39.4254 41.0562 39.4735 41.2314C39.5692 41.5343 39.5692 41.8598 39.4735 42.1627C39.4033 42.368 39.2737 42.5474 39.1016 42.6777C38.9295 42.808 38.7227 42.8833 38.5078 42.8939ZM38.9968 41.7127C39.0008 41.5862 38.9862 41.4598 38.9535 41.3377C38.9286 41.2279 38.8705 41.1287 38.7873 41.0537C38.7042 40.9787 38.6 40.9316 38.4892 40.9189C38.3682 40.9017 38.2449 40.9209 38.1347 40.9743C38.0245 41.0277 37.9325 41.1128 37.8701 41.2189C37.7775 41.3974 37.7408 41.6001 37.7649 41.8002C37.7678 41.9207 37.7997 42.0386 37.8578 42.1439C37.9166 42.2546 38.0072 42.3449 38.1176 42.4029C38.228 42.4608 38.3532 42.4839 38.4768 42.4689C38.5914 42.4594 38.7002 42.4139 38.7879 42.3388C38.8756 42.2637 38.9378 42.1628 38.9659 42.0502C38.9943 41.9401 39.0048 41.8261 38.9968 41.7127Z" fill="#FCFCFD"/>
<path d="M54.0391 39.5811H54.7633V42.8061H54.0391V39.5811Z" fill="#FCFCFD"/>
<path d="M36.4234 42.8438H35.9034V40.9688H35.5382C35.5289 40.8315 35.5289 40.6937 35.5382 40.5563C35.6558 40.5563 35.7858 40.5563 35.9158 40.5563V40.1876C35.9138 40.071 35.9368 39.9554 35.9834 39.8487C36.0299 39.742 36.0987 39.6467 36.1853 39.5695C36.2718 39.4922 36.3738 39.4349 36.4844 39.4013C36.595 39.3678 36.7115 39.3588 36.8258 39.3751C36.891 39.3747 36.9552 39.392 37.0115 39.4251C37.027 39.5642 37.027 39.7047 37.0115 39.8438L36.8011 39.8063C36.7504 39.7962 36.6981 39.7982 36.6483 39.8123C36.5986 39.8264 36.5528 39.8522 36.5148 39.8875C36.4768 39.9229 36.4476 39.9668 36.4296 40.0156C36.4115 40.0645 36.4052 40.117 36.4111 40.1688V40.5188C36.495 40.5343 36.581 40.5343 36.6649 40.5188C36.7454 40.5188 36.832 40.5188 36.9249 40.5188V40.9313H36.4173L36.4234 42.8438Z" fill="#FCFCFD"/>
<path d="M40.6248 42.8376H40.1172V40.5501H40.6186V40.9751C40.8724 40.4689 41.1819 40.4439 41.4234 40.5439C41.4357 40.6999 41.4357 40.8566 41.4234 41.0126C41.4127 41.0176 41.4011 41.0202 41.3893 41.0202C41.3776 41.0202 41.3659 41.0176 41.3553 41.0126C41.2369 40.9691 41.1064 40.9734 40.9911 41.0247C40.8758 41.0759 40.7845 41.1701 40.7362 41.2876C40.6718 41.4352 40.6401 41.5951 40.6434 41.7564V42.8439L40.6248 42.8376Z" fill="#FCFCFD"/>
<path d="M54.8464 38.5003C54.8335 38.6097 54.7814 38.7105 54.6998 38.7837C54.6182 38.8569 54.5129 38.8973 54.4038 38.8973C54.2946 38.8973 54.1893 38.8569 54.1077 38.7837C54.0261 38.7105 53.974 38.6097 53.9611 38.5003C53.9593 38.4412 53.9697 38.3825 53.9916 38.3277C54.0135 38.273 54.0465 38.2235 54.0885 38.1823C54.1304 38.1411 54.1804 38.1093 54.2352 38.0887C54.29 38.0681 54.3485 38.0593 54.4069 38.0628C54.4652 38.0582 54.5238 38.0663 54.5788 38.0866C54.6338 38.1068 54.6838 38.1388 54.7255 38.1803C54.7672 38.2218 54.7995 38.2718 54.8204 38.327C54.8412 38.3822 54.8501 38.4413 54.8464 38.5003Z" fill="#FCFCFD"/>
<path d="M16.9766 33.2621C16.9766 33.1809 17.0266 33.1184 17.0266 33.0371C17.0545 33.1095 17.0545 33.1897 17.0266 33.2621H16.9766Z" fill="#FCFCFD"/>
<path d="M27.5355 22.6439V30.7064C27.5355 30.7252 27.5355 30.7252 27.5355 30.7439C27.5037 30.7564 27.4683 30.7565 27.4365 30.7439H24.7065C24.6508 30.6877 24.6693 30.6439 24.6693 30.6002C24.6693 27.9002 24.7374 20.1877 24.7374 20.1877C24.7104 20.2592 24.6877 20.3322 24.6693 20.4064C24.6322 20.6127 23.9203 23.0752 23.6479 23.8627L22.9422 25.9252C22.7255 26.5502 22.5089 27.2064 22.286 27.8439C22.0136 28.6189 21.7598 29.4002 21.4936 30.1814C21.4382 30.3722 21.3678 30.5582 21.2831 30.7377H19.3022C19.1744 30.747 19.0462 30.747 18.9184 30.7377C17.9774 27.9564 15.4331 20.2377 15.4331 20.2377C15.4331 20.2377 15.5136 27.8627 15.5136 30.6314C15.5136 30.6689 15.5136 30.7127 15.5136 30.7502H12.9384C12.9384 30.6127 12.9012 18.0252 12.9384 17.7939H17.1479C17.2531 18.0189 17.3212 18.2752 17.4079 18.5189C17.4026 18.5373 17.4026 18.5568 17.4079 18.5752C17.4022 18.6083 17.4022 18.6421 17.4079 18.6752C17.5812 19.1564 17.7422 19.6439 17.9093 20.1314C18.126 20.7564 18.3427 21.3814 18.5284 22.0064L19.2527 24.1439L19.5498 25.0252C19.7046 25.4627 19.8531 25.9064 19.9708 26.3627C20.0389 26.6502 20.2184 27.3127 20.2184 27.3127C20.2184 27.3127 21.1593 24.3752 21.3698 23.7502C21.7474 22.6502 22.1312 21.5439 22.5089 20.4377L23.2703 18.1877C23.3069 18.0549 23.3588 17.927 23.425 17.8064H26.9227C26.9842 17.8159 27.0468 17.8159 27.1084 17.8064C27.2384 17.8502 27.3808 17.8064 27.5293 17.8439V18.3689V22.6502L27.5355 22.6439Z" fill="#FCFCFD"/>
<path d="M64.916 30.6748C64.916 30.7123 64.916 30.7623 64.916 30.781H61.8208C61.7487 30.5992 61.6867 30.4135 61.6351 30.2248L61.1274 28.7498C61.0779 28.6123 61.0346 28.4685 60.9974 28.3248C60.9779 28.2663 60.9531 28.2098 60.9232 28.156C60.9299 28.0701 60.9033 27.9849 60.8489 27.9185H56.8313C56.6622 27.9092 56.4927 27.9092 56.3236 27.9185C56.3236 27.9185 56.3236 27.9498 56.2865 27.9685C56.1874 28.2935 56.0946 28.5935 55.9893 28.9435C55.8841 29.2935 55.7355 29.7498 55.6055 30.1498C55.5353 30.3272 55.4834 30.5115 55.4508 30.6998C55.4136 30.6998 55.4508 30.7935 55.3393 30.806H52.9003H52.2812C53.833 26.456 55.3909 22.1352 56.9551 17.8435C57.1036 17.806 59.8584 17.7935 60.3784 17.8435C60.4713 18.0185 60.5022 18.2185 60.6013 18.3873C60.5954 18.4308 60.5954 18.475 60.6013 18.5185C60.7436 18.9123 60.886 19.306 61.0222 19.6998C61.2636 20.3748 61.4989 21.0498 61.7403 21.731L62.6317 24.231L63.3808 26.3748C63.5974 26.9998 63.8079 27.5873 63.9998 28.1935C64.1917 28.7998 64.4579 29.481 64.6808 30.1248C64.746 30.3136 64.8246 30.4974 64.916 30.6748ZM57.8279 22.8248C57.8279 22.8248 57.4132 24.1373 57.2089 24.7935C57.1222 25.0748 57.017 25.3435 56.9489 25.631H60.1246C60.1246 25.631 60.1803 25.631 60.1989 25.631C60.0627 25.1935 59.9265 24.756 59.7841 24.3185L59.5055 23.4435C59.2889 22.7623 58.5522 20.1435 58.5522 20.1435L57.8279 22.8248Z" fill="#FCFCFD"/>
<path d="M44.0154 29.9996C43.8731 29.8746 43.7183 29.7746 43.5697 29.6559C43.1912 29.3467 42.856 28.9872 42.5731 28.5871C42.1231 27.9571 41.8012 27.2434 41.6259 26.4871C41.5579 26.2032 41.5083 25.9151 41.4774 25.6246C41.429 25.1889 41.4083 24.7505 41.4154 24.3121C41.419 24.2956 41.419 24.2786 41.4154 24.2621C41.4154 23.8934 41.4774 23.5246 41.5269 23.1621C41.5419 23.09 41.5419 23.0155 41.5269 22.9434C41.5676 22.855 41.5907 22.7595 41.595 22.6621C41.7689 21.9377 42.0641 21.2486 42.4678 20.6246C42.7886 20.1161 43.1806 19.6572 43.6316 19.2621C44.0106 18.9335 44.4261 18.6503 44.8697 18.4184C45.4814 18.0959 46.1394 17.8723 46.8197 17.7559C47.1863 17.6923 47.5564 17.6505 47.9278 17.6309C48.4545 17.6132 48.9818 17.6299 49.5064 17.6809L50.0883 17.7621C50.3898 17.8045 50.6877 17.8692 50.9797 17.9559H51.1159C51.2088 18.0309 51.3326 18.0309 51.4378 18.0871C51.5431 18.1434 51.4378 18.3684 51.4378 18.5059C51.4378 19.2996 51.4378 20.0871 51.4378 20.8809H51.3821C51.1749 20.7315 50.9449 20.6175 50.7012 20.5434C50.4288 20.4559 50.1626 20.3559 49.8902 20.2934C49.657 20.2352 49.4184 20.2017 49.1783 20.1934C48.8747 20.1528 48.568 20.1403 48.2621 20.1559C48.0308 20.1492 47.7996 20.1744 47.575 20.2309C47.1748 20.2992 46.7881 20.4322 46.4297 20.6246C45.9942 20.8661 45.6111 21.1934 45.3031 21.5871C44.9612 22.0272 44.7126 22.5335 44.5726 23.0746C44.5046 23.3768 44.4611 23.684 44.4426 23.9934C44.421 24.375 44.4334 24.7578 44.4797 25.1371C44.4732 25.2202 44.486 25.3036 44.5169 25.3809C44.51 25.466 44.5295 25.5511 44.5726 25.6246C44.6173 25.84 44.6859 26.0496 44.7769 26.2496C44.8673 26.475 44.9904 26.6857 45.1421 26.8746C45.1793 26.9309 45.204 26.9996 45.2721 27.0309C45.2801 27.0642 45.2973 27.0945 45.3216 27.1184C45.4393 27.2496 45.5569 27.3871 45.6807 27.5059C46.3196 28.078 47.1362 28.4073 47.9897 28.4371C48.2126 28.4371 48.4354 28.4371 48.6521 28.4371C48.6893 28.4371 48.7388 28.4371 48.7635 28.4371C49.2305 28.4135 49.6934 28.338 50.144 28.2121C50.5454 28.0956 50.9318 27.932 51.2954 27.7246C51.3144 27.7067 51.3369 27.693 51.3614 27.6844C51.3859 27.6758 51.412 27.6724 51.4378 27.6746C51.4471 27.789 51.4471 27.904 51.4378 28.0184C51.4378 28.1371 51.4378 28.2496 51.4378 28.3621C51.4347 28.4037 51.4347 28.4455 51.4378 28.4871V30.1246C51.4502 30.1781 51.4502 30.2337 51.4378 30.2871C51.4213 30.3109 51.3973 30.3285 51.3697 30.3371C51.0351 30.499 50.6844 30.6247 50.3235 30.7121C49.9978 30.7947 49.6669 30.8553 49.3331 30.8934C49.0483 30.9309 48.7635 30.9684 48.4788 30.9809C47.9963 31.009 47.5127 31.009 47.0302 30.9809C46.7083 30.9809 46.4112 30.8996 46.0645 30.8371C45.5517 30.7367 45.0543 30.5686 44.585 30.3371C44.3745 30.2246 44.195 30.1184 44.0154 29.9996Z" fill="#FCFCFD"/>
<path d="M41.139 30.6565L40.2414 29.1878C39.9567 28.7315 39.6595 28.2815 39.3748 27.8253C39.3413 27.7847 39.3217 27.7342 39.319 27.6815C39.22 27.6252 39.189 27.519 39.1271 27.4315C38.9373 27.1315 38.7454 26.8377 38.5514 26.5502C38.2993 26.1618 38.0021 25.8051 37.6662 25.4877C37.6229 25.4502 37.5919 25.4065 37.5486 25.369C37.5052 25.3315 37.4186 25.269 37.3443 25.2315C37.1924 25.128 37.0306 25.0401 36.8614 24.969H36.9295C37.3489 24.8003 37.7511 24.591 38.1305 24.344C38.5138 24.1021 38.8653 23.8123 39.1767 23.4815C39.295 23.3214 39.4005 23.1521 39.4924 22.9752C39.7519 22.46 39.8675 21.8831 39.8267 21.3065C39.8091 20.6679 39.6209 20.046 39.2819 19.5065C39.2738 19.502 39.2669 19.4957 39.2615 19.4882C39.2562 19.4806 39.2526 19.4719 39.251 19.4627C39.067 19.1869 38.8365 18.9457 38.57 18.7502C38.2078 18.4709 37.799 18.2592 37.3629 18.1252C37.3629 18.1252 37.3257 18.1253 37.3133 18.094L36.7376 17.969C36.5333 17.9252 36.3229 17.9128 36.1186 17.8753C35.9143 17.8378 35.6295 17.8752 35.3881 17.8127H34.9486C34.7658 17.8102 34.5832 17.827 34.4038 17.8627V17.8127H30.4667C30.4486 17.876 30.4486 17.9432 30.4667 18.0065C30.4667 19.2127 30.4667 20.4127 30.4667 21.619V24.6253C30.4667 26.6128 30.4667 28.5982 30.4667 30.5815C30.4487 30.6469 30.4487 30.7161 30.4667 30.7815H33.3143C33.3143 30.6003 33.3514 30.4502 33.3514 30.2878C33.3514 29.2877 33.3514 28.294 33.3514 27.294C33.3514 26.969 33.3514 26.669 33.3514 26.319C33.3514 26.2627 33.3514 26.2128 33.3514 26.1628C33.345 26.0462 33.345 25.9293 33.3514 25.8127H34.051C34.2656 25.8036 34.479 25.851 34.67 25.9502C34.8128 26.0291 34.9406 26.1327 35.0476 26.2565C35.2147 26.4041 35.3606 26.5744 35.481 26.7627C35.7595 27.1627 35.9948 27.5815 36.2424 28.0128L37.7652 30.544C37.8034 30.636 37.8629 30.7174 37.9386 30.7815H41.0338C41.0833 30.7815 41.1329 30.7815 41.1824 30.7815C41.1716 30.7386 41.1571 30.6968 41.139 30.6565ZM36.5643 22.2815C36.4753 22.6091 36.2922 22.9027 36.0381 23.1252C35.9927 23.1662 35.9428 23.2018 35.8895 23.2315C35.8299 23.2874 35.7607 23.3319 35.6852 23.3628C35.6188 23.4129 35.543 23.449 35.4624 23.469C35.3126 23.534 35.154 23.5761 34.9919 23.594C34.8607 23.6137 34.7283 23.6242 34.5957 23.6252H33.5557C33.4797 23.6347 33.4027 23.6347 33.3267 23.6252C33.3267 23.5377 33.3267 20.194 33.3267 20.0627C33.3267 20.0315 33.3762 20.0128 33.4071 20.0128L34.8805 20.044C35.1483 20.0512 35.4134 20.0997 35.6667 20.1877C35.8877 20.2861 36.0957 20.4121 36.2857 20.5628C36.5107 20.8246 36.6435 21.1542 36.6633 21.5003C36.6774 21.7646 36.6439 22.0293 36.5643 22.2815Z" fill="#FCFCFD"/>
</svg>
