<svg width="78" height="50" viewBox="0 0 78 50" fill="none" xmlns="http://www.w3.org/2000/svg">
<path d="M20.365 35H6.63497C4.64692 35 3.09375 33.3544 3.09375 31.3924V15H20.4271V35H20.365Z" fill="#353945"/>
<path d="M12.4396 15.125H11.6967C11.6348 16.25 11.5729 17.375 11.511 18.5C10.8301 18.625 10.1491 18.75 9.46816 19.125C8.23006 17.8125 6.93006 16.4375 5.63006 15.0625H5.25863C6.24911 16.6875 7.23958 18.3125 8.29196 19.9375C7.92054 20.3125 7.61101 20.6875 7.30149 21.125C5.93958 20.875 4.20625 20.625 2.90625 20.375V20.6875C4.14435 21.1875 5.69196 21.875 6.86816 22.375C6.86816 22.75 6.86816 23.0625 6.86816 23.4375C5.69196 23.9375 2.90625 25 2.90625 25V25.25C2.90625 25.25 5.75387 24.875 7.05387 24.6875C7.23958 24.9375 7.30149 25.25 7.54911 25.4375C7.4253 25.6875 7.30149 26 7.30149 26.3125C7.30149 26.5 7.30149 26.75 7.54911 26.8125C7.79673 26.9375 7.98244 26.75 8.10625 26.625C8.35387 26.3125 8.47768 25.875 8.35387 25.4375C8.60149 25.1875 8.7872 24.9375 9.03482 24.6875C9.40625 24.25 9.83958 23.875 10.3967 23.6875C10.7062 23.5625 10.9539 23.4375 11.2634 23.3125C11.6967 23.125 12.0682 22.8125 12.3158 22.375C12.8729 23 13.5539 23.375 14.3586 23.5625C14.9777 23.6875 15.5967 23.875 16.2158 24.0625C16.8967 24.3125 17.5158 24.6875 17.8872 25.375C17.8872 25.4375 17.9491 25.5 18.011 25.5C18.0729 25.375 18.0729 25.25 18.1967 25.1875C18.3824 25.375 18.3824 25.4375 18.1348 25.6875C18.1348 25.9375 18.2586 26.125 18.3824 26.375C18.5682 25.75 18.6301 25.125 18.6301 24.5C19.1872 24.4375 19.7443 24.375 20.3015 24.3125V23.3125C19.8062 23.125 19.5586 23.1875 19.2491 23.125C18.9396 23.0625 18.6301 23.0625 18.3205 23C18.1967 22.6875 18.1348 22.375 17.9491 22C18.692 21.5 19.3729 21.0625 20.0539 20.5625V19.625C19.5586 19.8125 19.1253 20 18.6301 20.1875C18.1967 20.375 17.7634 20.5625 17.2682 20.6875C16.9586 20.25 16.5253 19.875 16.0301 19.5625C16.8967 18 17.7634 16.5 18.5682 15H18.1348M7.30149 23.9375C7.4872 24.125 7.67292 24.25 7.67292 24.5C7.54911 24.375 7.17768 24.3125 7.30149 23.9375ZM7.30149 23.25C7.61101 23.375 7.85863 23.6875 7.79673 24.0625C7.67292 23.75 7.17768 23.6875 7.30149 23.25ZM7.98244 23.5C7.79673 23.25 7.67292 23.0625 7.4253 22.875C7.30149 22.75 7.23958 22.625 7.36339 22.4375C7.73482 22.5 7.79673 22.875 7.98244 23.125C8.04435 23.1875 8.16815 23.3125 7.98244 23.5ZM8.23006 22.9375C8.04435 22.625 7.85863 22.25 7.61101 22C7.4872 21.875 7.54911 21.75 7.67292 21.5625C8.10625 21.8125 8.16816 22.25 8.41577 22.5625C8.41577 22.75 8.35387 22.875 8.23006 22.9375ZM8.66339 22.4375C8.47768 22 8.23006 21.5625 7.92054 21.25C7.98244 21.0625 8.04435 21 8.23006 20.9375C8.66339 21.1875 8.7253 21.75 8.91101 22.1875C8.7872 22.25 8.7253 22.3125 8.66339 22.4375ZM9.34435 21.875C9.28244 21.875 9.28244 21.9375 9.15863 22C9.03482 21.5 8.7253 21.0625 8.47768 20.625C8.60149 20.375 8.7253 20.25 8.97292 20.25C9.34435 20.6875 9.40625 21.25 9.46816 21.75C9.46816 21.8125 9.40625 21.875 9.34435 21.875ZM9.90149 21.6875C9.83958 21.0625 9.53006 20.5625 9.40625 20C9.71577 19.75 9.71577 19.75 10.0872 19.8125C10.3967 20.3125 10.3348 20.9375 10.4586 21.5C10.2729 21.5625 10.0872 21.5625 9.90149 21.6875ZM10.7682 21.4375C10.6443 20.875 10.6443 20.3125 10.5205 19.8125C10.4586 19.625 10.5824 19.5 10.7682 19.5C10.9539 19.4375 11.0777 19.4375 11.2634 19.5625C11.3253 19.75 11.3253 19.875 11.3872 20.0625C11.3872 20.4375 11.4491 20.875 11.4491 21.3125C11.2015 21.3125 10.9539 21.375 10.7682 21.4375ZM18.2586 15.125C17.0824 16.4375 15.9682 17.75 14.792 19C14.2348 18.6875 13.6158 18.625 12.9967 18.5C12.811 17.375 12.6253 16.25 12.4396 15.125M11.7586 21.25C11.7586 20.625 11.7586 20 11.7586 19.4375C12.2539 19.125 12.5015 19.3125 12.5015 19.8125C12.5015 20.25 12.5015 20.75 12.5015 21.25C12.2539 21.3125 12.0063 21.25 11.7586 21.25ZM13.5539 21.3125C13.3063 21.375 13.0586 21.3125 12.811 21.25C12.8729 20.625 12.7491 20 12.9348 19.4375C13.1205 19.375 13.3063 19.375 13.4301 19.4375C13.6158 19.5 13.7396 19.625 13.6777 19.8125C13.6158 20.25 13.6158 20.75 13.5539 21.3125ZM13.8015 21.375C13.9253 20.8125 13.8015 20.1875 14.1729 19.625C14.4205 19.625 14.6682 19.6875 14.8539 19.875C14.7301 20.4375 14.5443 21 14.4824 21.5625C14.2348 21.5 14.0491 21.4375 13.8015 21.375ZM14.792 21.625C14.9158 21.125 14.9158 20.5625 15.2253 20.125C15.5348 20.1875 15.5348 20.1875 15.7205 20.375C15.5967 20.875 15.3491 21.3125 15.2872 21.875C15.1015 21.875 14.9777 21.75 14.792 21.625ZM15.9682 22.375C15.7824 22.3125 15.7205 22.25 15.6586 22.125C15.7205 21.75 15.8443 21.375 16.092 21.0625C16.3396 20.75 16.4634 20.75 16.7729 21.0625C16.4634 21.5 16.092 21.875 15.9682 22.375ZM16.2158 22.625C16.4015 21.9375 16.6491 21.5625 17.1443 21.5625C17.2682 21.75 17.2682 21.875 17.1443 22C16.8348 22.25 16.6491 22.5 16.5253 22.875C16.3396 22.8125 16.2777 22.6875 16.2158 22.625ZM16.711 23.1875C16.7729 22.875 16.8967 22.625 17.1443 22.375C17.3301 22.1875 17.392 22.1875 17.6396 22.4375C17.392 22.75 17.0205 23 16.9586 23.4375C16.8348 23.375 16.7729 23.3125 16.711 23.1875ZM17.2062 24C17.0824 23.9375 17.0824 23.8125 17.0824 23.75C17.2063 23.5 17.2682 23.1875 17.6396 23C17.7634 23.0625 17.8253 23.0625 17.8253 23.1875C17.6396 23.4375 17.392 23.6875 17.2062 24ZM17.5158 24.5C17.392 24.25 17.4539 24 17.8253 23.6875C18.011 23.9375 18.011 23.9375 17.5158 24.5ZM18.011 24.4375C18.1348 24.75 17.8872 24.875 17.7634 25.0625C17.6396 24.8125 17.7015 24.6875 18.011 24.4375Z" fill="white"/>
<path d="M17.9497 25.625C17.9497 25.5625 17.9497 25.5 17.8878 25.5C17.764 25.5625 17.8259 25.625 17.9497 25.625Z" fill="white"/>
<path d="M11.5706 32.5625C11.1373 32.1875 10.7658 31.6875 10.4563 31.1875C10.4563 31.125 10.3944 31.0625 10.3944 31C11.1373 31.1875 11.942 31.125 12.6849 30.9375C13.6135 30.75 14.1087 30.125 14.2944 29.25C14.3563 29.0625 14.4182 28.8125 14.4182 28.625C14.4801 28.0625 14.7897 27.625 15.2849 27.3125C15.3468 27.25 15.4087 27.25 15.4706 27.125C15.2849 26.75 14.9135 26.625 14.542 26.5625C14.2944 26.5 14.1087 26.5625 13.8611 26.5625C13.5516 26.5625 13.3039 26.5625 12.9944 26.375C12.8706 26.8125 12.9325 27.1875 13.1182 27.5625C13.242 27.9375 13.3658 28.375 13.4278 28.75C13.4278 28.8125 13.4278 28.8125 13.4278 28.875C13.4897 29.5625 13.3039 29.8125 12.623 29.8125C12.3754 29.8125 12.0658 29.8125 11.8182 29.8125C11.7563 29.8125 11.6325 29.8125 11.5706 29.6875C11.942 29.5625 12.3754 29.625 12.7468 29.3125C12.1278 28.875 11.5087 29.125 10.8897 29.125C11.1373 28.875 11.3849 28.75 12.0658 28.6875C12.0039 28.3125 11.8801 28.25 11.4468 28.3125C11.323 28.125 11.2611 28 11.5087 27.875C11.5706 27.875 11.5706 27.875 11.5706 27.875C12.0658 28.125 12.3754 27.9375 12.4373 27.375C12.4373 26.9375 12.4373 26.5 12.4992 26.0625C12.4992 25.9375 12.5611 25.875 12.5611 25.75C12.7468 25.1875 12.9944 24.9375 13.6135 24.875C13.9849 24.8125 14.2944 24.875 14.6658 24.875C13.7373 24.375 12.8706 23.875 12.2516 23C12.0658 23.5625 11.6944 23.8125 11.2611 24.0625C10.9516 24.1875 10.5801 24.375 10.2706 24.5625C9.96109 24.75 9.71347 24.9375 9.46585 25.1875C9.21823 25.4375 9.15632 25.75 9.21823 26.1875C9.52775 25.6875 9.96109 25.5625 10.4563 25.4375C10.4563 25.3125 10.2706 25.3125 10.2706 25.1875C11.0135 24.9375 11.5087 25.375 11.4468 26.0625C11.4468 26.3125 11.323 26.4375 11.0754 26.375C10.9516 26.375 10.8278 26.3125 10.7658 26.25C10.2706 26.125 10.1468 26.125 9.83728 26.5625C9.77537 26.625 9.65156 26.5625 9.58966 26.5625C9.52775 26.5625 9.40394 26.5 9.34204 26.4375C8.66109 26.875 8.53728 27.125 8.72299 27.875C8.72299 28 8.7849 28.125 8.7849 28.25C8.90871 28.75 8.8468 28.8125 8.35156 28.8125C8.35156 29.0625 8.41347 29.25 8.35156 29.5C8.35156 29.75 8.72299 29.875 8.90871 29.75C8.97061 29.6875 9.03251 29.625 9.15632 29.5C9.34204 30 9.58966 30.5 9.96109 30.9375C9.83728 31.625 9.77537 32.25 9.65156 32.9375C9.58966 33.4375 9.71347 33.9375 10.023 34.3125C10.2087 34.5625 10.3325 34.75 10.5801 35.0625H14.1087C13.4278 33.9375 12.4373 33.3125 11.5706 32.5625Z" fill="white"/>
<path d="M20.1172 15.125H71.56C73.541 15.125 75.0886 16.75 75.0886 18.6875V34.875H20.1172V15.125Z" fill="#808191"/>
<path d="M64.5 18.875C65.119 18.875 65.6143 18.875 66.2333 18.875C66.2333 21.0625 66.2333 23.1875 66.2333 25.375H70.2571V26.9375C70.0095 26.9375 65.1191 26.9375 64.5619 26.9375C64.5 24.3125 64.5 18.875 64.5 18.875Z" fill="white"/>
<path d="M24.7578 18.9375H26.3673C26.9864 19.75 27.6054 20.5625 28.2245 21.375C28.8435 22.1875 29.4626 23 30.0816 23.875V19C30.3911 19 31.4435 19 31.815 19V27H30.3292C29.0911 25.375 27.7911 23.6875 26.5531 22H26.4911V27C25.6864 27 25.4388 27 24.7578 27V18.9375Z" fill="white"/>
<path d="M49.709 24.125C50.0185 24 50.2661 23.875 50.5138 23.6875C51.2566 23.0625 51.5042 22.25 51.3804 21.3125C51.3185 20.25 50.7614 19.5625 49.8328 19.125C49.3376 18.9375 48.8423 18.875 48.3471 18.875C47.2328 18.875 46.1804 18.875 45.0661 18.875C44.9423 18.875 45.3138 18.875 44.6328 18.875C44.6328 19.3125 44.6947 26.625 44.6947 27H46.4281V24.4375H47.8519C48.409 25.3125 49.0281 26.1875 49.5852 27C50.1423 27 50.6995 27 51.2566 27C51.3804 27 51.4423 27 51.69 27C51.0709 26.1875 50.3281 25.0625 49.709 24.125ZM48.5328 22.8125C47.8519 22.875 47.1709 22.8125 46.49 22.8125C46.49 22.0625 46.49 21.3125 46.49 20.5C47.2328 20.5 47.9138 20.4375 48.5947 20.5625C49.2757 20.625 49.6471 21.0625 49.6471 21.75C49.5852 22.3125 49.2138 22.8125 48.5328 22.8125Z" fill="white"/>
<path d="M39.0612 18.875C39.0612 18.875 38.0088 18.875 37.5135 18.875C37.3897 19.0625 34.1088 26.875 34.0469 27C34.604 27 35.285 27 35.8421 27C36.0897 26.4375 36.3373 25.8125 36.585 25.25H39.9897C40.2373 25.875 40.7326 27.0625 40.7326 27.0625L42.4659 27L39.0612 18.875ZM37.204 23.625C37.5754 22.75 37.885 21.9375 38.2564 21.0625C38.6278 21.9375 38.9374 22.8125 39.3088 23.625C38.6278 23.625 37.9469 23.625 37.204 23.625Z" fill="white"/>
<path d="M58.6231 18.875H56.9516C56.3945 20.1875 55.8374 21.5625 55.2802 22.875C54.7231 24.25 54.104 25.5625 53.5469 27C54.2278 27 54.7231 27 55.3421 27C55.5897 26.375 55.8373 25.8125 56.085 25.1875H59.4897C59.7993 25.8125 59.9231 26.375 60.2326 26.9375H61.904C62.0278 26.9375 62.0278 26.9375 62.0278 26.9375C60.9135 24.375 59.7373 21.5 58.6231 18.875ZM56.704 23.625C57.0135 22.8125 57.385 21.9375 57.7564 21.0625C58.1278 21.9375 58.4374 22.8125 58.8088 23.625C58.1278 23.625 57.4469 23.625 56.704 23.625Z" fill="white"/>
<path d="M25.0078 29.1875H25.8126C26.3697 29.1875 26.6792 29.5 26.6792 29.9375C26.6792 30.3125 26.3697 30.6875 25.8126 30.6875H25.4411V31.125H25.0078V29.1875ZM25.8126 30.3125C26.0602 30.3125 26.184 30.125 26.184 29.9375C26.184 29.75 25.9983 29.5625 25.8126 29.5625H25.3792V30.3125H25.8126Z" fill="white"/>
<path d="M27.7963 29.1875H28.601C29.1582 29.1875 29.4677 29.5 29.4677 29.9375C29.4677 30.1875 29.3439 30.4375 29.0963 30.5625L29.4677 31.125H28.9725L28.7249 30.625C28.6629 30.625 28.601 30.625 28.5391 30.625H28.1677V31.0625H27.7344V29.1875H27.7963ZM28.601 30.3125C28.8487 30.3125 29.0344 30.125 29.0344 29.9375C29.0344 29.75 28.8487 29.5625 28.601 29.5625H28.1677V30.3125H28.601Z" fill="white"/>
<path d="M30.4531 30.125C30.4531 29.5625 30.8865 29.125 31.4436 29.125C32.0007 29.125 32.4341 29.5625 32.4341 30.125C32.4341 30.6875 32.0007 31.125 31.4436 31.125C30.8865 31.125 30.4531 30.6875 30.4531 30.125ZM32.0626 30.125C32.0626 29.8125 31.815 29.5 31.5055 29.5C31.196 29.5 30.9484 29.75 30.9484 30.125C30.9484 30.4375 31.196 30.75 31.5055 30.75C31.815 30.75 32.0626 30.5 32.0626 30.125Z" fill="white"/>
<path d="M33.4922 30.1875H34.7303V30.5H33.4922V30.1875Z" fill="white"/>
<path d="M35.7188 30.125C35.7188 29.5625 36.1521 29.125 36.7092 29.125C36.9568 29.125 37.2045 29.1875 37.3902 29.375L37.1426 29.6875C37.0187 29.5625 36.8949 29.5625 36.7711 29.5625C36.3997 29.5625 36.1521 29.8125 36.1521 30.1875C36.1521 30.5 36.3997 30.8125 36.7092 30.8125C36.8949 30.8125 37.0187 30.75 37.1426 30.625L37.3902 30.9375C37.2045 31.125 36.9568 31.25 36.6473 31.25C36.1521 31.125 35.7188 30.6875 35.7188 30.125Z" fill="white"/>
<path d="M38.5 29.1875H38.9333V29.9375H39.7381V29.1875H40.1714V31.0625H39.7381V30.25H38.9333V31.0625H38.5V29.1875Z" fill="white"/>
<path d="M41.2266 30.125C41.2266 29.5625 41.6599 29.125 42.217 29.125C42.7742 29.125 43.2075 29.5625 43.2075 30.125C43.2075 30.6875 42.7742 31.125 42.217 31.125C41.6599 31.125 41.2266 30.6875 41.2266 30.125ZM42.7742 30.125C42.7742 29.8125 42.5266 29.5 42.217 29.5C41.9075 29.5 41.6599 29.75 41.6599 30.125C41.6599 30.4375 41.9075 30.75 42.217 30.75C42.5885 30.75 42.7742 30.5 42.7742 30.125Z" fill="white"/>
<path d="M44.3203 29.1875H44.7536V31.0625H44.3203V29.1875Z" fill="white"/>
<path d="M45.8672 30.125C45.8672 29.5625 46.3005 29.125 46.8577 29.125C47.1053 29.125 47.3529 29.1875 47.5386 29.375L47.291 29.625C47.1672 29.5 47.0434 29.5 46.9196 29.5C46.5481 29.5 46.3005 29.75 46.3005 30.125C46.3005 30.4375 46.5481 30.75 46.8577 30.75C47.0434 30.75 47.1672 30.6875 47.291 30.5625L47.5386 30.875C47.3529 31.0625 47.1053 31.1875 46.7958 31.1875C46.3005 31.125 45.8672 30.6875 45.8672 30.125Z" fill="white"/>
<path d="M48.5938 29.1875H50.0795V29.5625H49.0271V29.9375H50.0176V30.3125H49.0271V30.75H50.1414V31.125H48.5938V29.1875Z" fill="white"/>
<path d="M53.2964 29.1875H53.6678L54.4725 31.0625H54.0392L53.9154 30.75H52.9868L52.863 31.0625H52.4297L53.2964 29.1875ZM53.8535 30.5L53.6059 29.9375C53.544 29.8125 53.4821 29.625 53.4821 29.625C53.4821 29.625 53.4202 29.8125 53.3583 29.9375L53.1106 30.5H53.8535Z" fill="white"/>
<path d="M55.5847 29.1875H55.9562L56.2657 29.625C56.3895 29.75 56.6371 30.125 56.6371 30.125C56.6371 30.125 56.8847 29.8125 56.9467 29.625L57.2562 29.1875H57.5657V31.0625H57.1324V29.875C57.1324 29.875 57.0705 30 56.9467 30.125L56.5133 30.6875L56.08 30.0625C55.9562 29.9375 55.8943 29.8125 55.8943 29.8125V31H55.4609V29.1875H55.5847Z" fill="white"/>
<path d="M58.7422 29.1875H60.2279V29.5625H59.1755V29.9375H60.166V30.3125H59.1755V30.75H60.2898V31.125H58.7422V29.1875Z" fill="white"/>
<path d="M61.3426 29.1875H62.1473C62.7045 29.1875 63.014 29.5 63.014 29.9375C63.014 30.1875 62.8902 30.4375 62.6426 30.5625L63.014 31.125H62.5187L62.2092 30.6875C62.1473 30.6875 62.0854 30.6875 62.0235 30.6875H61.6521V31.125H61.2188V29.1875H61.3426ZM62.1473 30.3125C62.3949 30.3125 62.5807 30.125 62.5807 29.9375C62.5807 29.75 62.3949 29.5625 62.1473 29.5625H61.714V30.3125H62.1473Z" fill="white"/>
<path d="M64.0703 29.1875H64.5036V31.0625H64.0703V29.1875Z" fill="white"/>
<path d="M65.6172 30.125C65.6172 29.5625 66.0505 29.125 66.6077 29.125C66.8553 29.125 67.1029 29.1875 67.2886 29.375L67.041 29.625C66.9172 29.5 66.7934 29.5 66.6696 29.5C66.2981 29.5 66.0505 29.75 66.0505 30.125C66.0505 30.4375 66.2981 30.75 66.6077 30.75C66.7934 30.75 66.9172 30.6875 67.041 30.5625L67.2886 30.875C67.1029 31.0625 66.8553 31.1875 66.5458 31.1875C66.0505 31.125 65.6172 30.6875 65.6172 30.125Z" fill="white"/>
<path d="M69.0854 29.1875H69.4568L70.2616 31.0625H69.8283L69.7045 30.75H68.7759L68.6521 31.0625H68.2188L69.0854 29.1875ZM69.6426 30.5L69.3949 29.9375C69.333 29.8125 69.2711 29.625 69.2711 29.625C69.2711 29.625 69.2092 29.8125 69.1473 29.9375L68.8997 30.5H69.6426Z" fill="white"/>
</svg>
