<svg width="78" height="50" viewBox="0 0 78 50" fill="none" xmlns="http://www.w3.org/2000/svg">
<g clip-path="url(#clip0_14912_30617)">
<path d="M53.4208 36.6251C53.3589 36.4376 53.2969 36.1876 53.2969 36.0001C53.2969 32.6876 53.2969 29.3126 53.2969 26.0001C53.2969 25.8751 53.2969 25.6876 53.2969 25.5626C53.3589 25.1251 53.1731 24.7501 52.7398 24.6251C52.4922 24.5626 52.4922 24.3751 52.4922 24.1876C52.4922 24.0626 52.616 23.9376 52.6779 23.8751C53.235 23.6251 53.7922 23.4376 54.3493 23.1876C54.535 23.1251 54.6589 23.1876 54.6589 23.4376C54.6589 23.8751 54.6589 24.3126 54.6589 24.7501C54.6589 26.2501 54.6589 27.7501 54.6589 29.1876C54.6589 29.3126 54.6589 29.4376 54.6589 29.5626C54.6589 29.6251 54.7208 29.6876 54.7208 29.7501C54.7827 29.7501 54.8446 29.6876 54.8446 29.6876C55.216 29.3126 55.5874 29.0626 56.0827 28.8751C57.135 28.5001 58.1255 28.6876 59.0541 29.2501C59.9208 29.7501 60.3541 30.5626 60.6017 31.5001C60.9112 32.8126 60.6017 34.0001 59.8589 35.1251C59.4874 35.6876 58.9303 36.0626 58.3112 36.3126C58.0636 36.4376 57.816 36.5001 57.5065 36.6251C56.9493 36.6251 56.3922 36.6251 55.835 36.6251C55.7731 36.5626 55.7112 36.5626 55.6493 36.5001C55.3398 36.4376 55.0303 36.4376 54.7827 36.3126C54.3493 36.1876 53.9779 36.3126 53.6684 36.5626C53.6065 36.6251 53.4827 36.6251 53.4208 36.6251ZM54.7208 32.5001C54.7208 33.1251 54.7208 33.7501 54.7208 34.3751C54.7827 35.0626 55.0303 35.6876 55.7112 36.0001C56.0827 36.1876 56.4541 36.1876 56.8874 36.1876C57.6922 36.2501 58.2493 35.8126 58.6827 35.1876C59.116 34.5001 59.1779 33.6876 59.2398 32.8751C59.2398 32.6876 59.1779 32.5001 59.1779 32.2501C59.1779 31.5001 58.9303 30.8126 58.435 30.1876C58.0636 29.6876 57.5065 29.4376 56.8874 29.3751C56.1446 29.3126 55.5874 29.6876 55.0303 30.0626C54.8446 30.1876 54.7208 30.3751 54.7208 30.6876C54.7208 31.3126 54.7208 31.8751 54.7208 32.5001Z" fill="#FCFCFD"/>
<path d="M8.48095 13.6875C8.60476 13.6875 8.79048 13.6875 8.91428 13.75C9.47143 13.8125 10.0286 13.9375 10.5857 14.0625C11.2667 14.1875 11.9476 14.3125 12.6286 14.5C12.9381 14.5625 13.2476 14.6875 13.5571 14.75C14.0524 14.9375 14.4238 15.25 14.7333 15.6875C14.919 15.9375 14.919 16 14.6095 16.125C14.3 16.3125 13.9905 16.5625 13.681 16.75C13.1857 17.125 13.1238 17.5625 13.2476 18.125C13.3095 18.25 13.3714 18.375 13.3714 18.5625C13.4333 19 13.681 19.25 14.1762 19.375C14.7333 19.5 15.1048 19.8125 15.4143 20.3125C15.5381 20.5 15.6 20.4375 15.6619 20.3125C15.8476 20.0625 16.0333 19.875 16.3429 19.8125C16.7762 19.75 17.2095 19.625 17.6429 19.5C17.7048 19.5625 17.7048 19.5625 17.7667 19.625C17.4571 19.6875 17.2095 19.75 16.9 19.8125C16.7143 19.875 16.5286 19.875 16.3429 19.9375C15.7857 20.1875 15.7238 20.5 15.9714 21C16.0952 21.1875 16.219 21.25 16.4048 21.25C16.5905 21.25 16.7143 21.25 16.9 21.25C16.9619 21.25 16.9619 21.3125 17.0238 21.3125C16.9619 21.3125 16.9619 21.375 16.9 21.375C16.281 21.4375 15.7857 21.375 15.3524 20.875C15.2905 20.75 15.2286 20.6875 15.1048 20.5625C14.8571 20.25 14.5476 19.9375 14.1762 19.75C13.681 19.5 13.4952 19.5625 13.2476 20.0625C13.1857 20.1875 13 20.375 12.9381 20.5C12.9381 20.5 12.8762 20.5 12.8143 20.5V20.4375C12.8143 20.3125 12.8762 20.1875 12.8762 20C12.7524 20.0625 12.6286 20.125 12.5048 20.1875C12.4429 20.1875 12.4429 20.1875 12.381 20.25C11.7619 20.625 11.081 20.875 10.3381 20.8125C10.1524 20.8125 10.0286 20.8125 9.84286 20.875C9.47143 21 9.1 21.125 8.72857 21.25C8.35714 21.375 8.10952 21.625 7.67619 21.6875C7.55238 21.6875 7.49048 21.8125 7.42857 21.875C7.30476 21.9375 7.18095 22.0625 7.05714 22.125C6.68571 22.3125 6.5 22.625 6.31429 23C6.25238 23.0625 6.31429 23.1875 6.31429 23.25C6.37619 23.25 6.43809 23.25 6.5 23.1875C6.80952 22.9375 7.18095 22.75 7.49048 22.5C7.8619 22.25 8.17143 22 8.48095 21.75C8.48095 21.75 8.54286 21.75 8.60476 21.75V21.8125C8.54286 21.875 8.48095 21.9375 8.48095 22C8.17143 22.25 7.92381 22.4375 7.61429 22.6875C7.55238 22.6875 7.55238 22.75 7.55238 22.8125C7.55238 22.8125 7.61428 22.875 7.67619 22.875C8.23333 22.875 8.72857 22.75 9.28571 22.5C9.78095 22.3125 10.1524 21.9375 10.5857 21.625C10.6476 21.625 10.6476 21.625 10.7095 21.5625C10.7095 21.625 10.7095 21.6875 10.6476 21.6875C10.2762 22.125 9.90476 22.4375 9.40952 22.6875C9.28571 22.75 9.22381 22.8125 9.1 22.875C9.22381 22.875 9.34762 22.9375 9.47143 22.875C9.71905 22.875 9.96667 22.8125 10.2143 22.8125C10.5857 22.75 10.9571 22.75 11.3286 22.6875C11.5762 22.625 11.7619 22.5625 12.0095 22.5C12.0714 22.5 12.1952 22.375 12.2571 22.375C12.6286 22.5 12.9381 22.3125 13.2476 22.1875C14.2381 21.875 14.8571 21.9375 15.4762 22.3125C15.6 22.375 15.6619 22.4375 15.7857 22.5C16.5286 22.9375 17.2714 22.75 18.0143 22.5625C18.4476 22.4375 18.6333 22.0625 18.6333 21.625C18.6952 21.125 18.5095 20.875 18.0143 20.8125C17.7048 20.75 17.3952 20.75 17.0857 20.6875C17.0238 20.6875 17.0238 20.625 16.9619 20.625C17.0238 20.625 17.0857 20.5625 17.0857 20.5625C17.7667 20.5 18.4476 20.5 19.1905 20.4375C19.3143 20.4375 19.3762 20.375 19.5 20.375C19.5 20.3125 19.4381 20.25 19.4381 20.1875C19.6857 20.0625 19.8095 20.0625 20.119 20.1875L20.0571 20.25C20.0571 20.25 20.0571 20.25 20.119 20.25C20.5524 20.25 20.9238 20.25 21.3571 20.25C21.3571 20.3125 21.3571 20.3125 21.3571 20.375C20.5524 20.375 19.8095 20.5 19.0048 20.625C18.7571 20.6875 18.6952 20.6875 18.819 21C18.9429 21.5 18.9429 21.9375 18.6333 22.4375C18.3857 22.75 18.1381 23 17.7048 23C17.3333 23 16.9619 22.9375 16.5286 22.9375C16.4048 22.9375 16.281 22.9375 16.219 22.875C16.1571 22.875 16.1571 22.9375 16.0952 22.9375L16.1571 23C16.3429 23.125 16.5286 23.25 16.7143 23.4375C16.8381 23.5 16.9619 23.5625 17.0857 23.625C17.4571 23.8125 17.581 23.875 17.4571 24.25C17.3333 24.75 17.1476 25.25 16.7762 25.625C16.5905 25.8125 16.5286 26 16.4667 26.1875C16.219 26.6875 15.9714 27.1875 15.4143 27.375C15.6 27.125 15.7238 26.875 15.9095 26.6875C16.0952 26.5 16.219 26.25 16.1571 26C16.0952 25.75 16.1571 25.75 16.3429 25.6875C16.5286 25.625 16.6524 25.5 16.7762 25.375C16.9619 25.0625 17.0238 24.75 17.1476 24.4375C17.2714 24.0625 17.2095 23.9375 16.8381 23.8125C16.4667 23.6875 16.0952 23.5625 15.7238 23.5C15.6619 23.5 15.6619 23.4375 15.6 23.4375C15.6619 23.4375 15.7238 23.375 15.7238 23.375C15.8476 23.3125 15.8476 23.25 15.7857 23.1875C15.5381 23 15.3524 22.75 15.0429 22.5625C14.8571 22.4375 14.5476 22.3125 14.3 22.375C13.1857 22.625 12.0714 22.75 10.9571 23.125C10.6476 23.25 10.2762 23.3125 9.96667 23.375C9.84286 23.375 9.71905 23.4375 9.59524 23.4375C9.71905 23.5 9.78095 23.625 9.90476 23.6875C10.1524 23.8125 10.3381 23.875 10.5857 24C10.8333 24.125 11.081 24.1875 11.2667 24.3125C11.4524 24.375 11.5143 24.5 11.4524 24.6875C11.3286 25 11.3905 25.25 11.4524 25.5625C11.5762 25.9375 11.5762 26.375 11.5762 26.75C11.5762 26.8125 11.5762 27 11.6381 27C11.7619 27.0625 11.7619 27.1875 11.7 27.3125C11.5762 27.6875 11.5762 27.6875 11.9476 27.625C12.0714 27.625 12.1952 27.625 12.1952 27.8125C12.1952 28.0625 12.319 28.0625 12.4429 27.9375C12.5048 27.875 12.6286 27.875 12.6905 27.8125C12.8143 27.75 12.8762 27.8125 12.8762 27.9375C12.8762 28 12.8143 28.125 12.8143 28.1875C12.8143 28.25 12.8143 28.3125 12.8143 28.3125C12.8762 28.3125 13 28.375 13 28.3125C13.1857 28.1875 13.3095 28.0625 13.4333 27.875C13.4952 27.8125 13.5571 27.75 13.619 27.875C13.8048 28.125 13.8667 28.125 13.9905 27.9375C14.3 27.5625 14.7952 27.4375 15.2286 27.1875C15.1048 27.3125 15.0429 27.4375 14.919 27.5C14.6714 27.6875 14.4238 27.8125 14.1762 28C13.9286 28.125 13.8048 28.3125 13.4333 28.25C13.2476 28.1875 13 28.4375 12.7524 28.5C12.5667 28.5625 12.4429 28.4375 12.4429 28.25C12.4429 28.0625 12.4429 28.0625 12.319 28.125C12.1333 28.1875 11.9476 28.25 11.8238 28C11.7619 27.875 11.4524 27.8125 11.3905 27.6875C11.3286 27.5 11.3286 27.3125 11.3286 27.0625V27C10.8952 26.25 10.9571 25.4375 10.8333 24.6875C10.7714 24.5 10.7714 24.3125 10.5238 24.25C10.4 24.1875 10.2762 24.125 10.1524 24.0625C9.84286 23.9375 9.53333 23.8125 9.28571 23.5625C8.97619 23.25 8.66667 23.25 8.35714 23.375C7.98571 23.5 7.61428 23.625 7.24286 23.75C6.99524 23.8125 6.80952 23.9375 6.68571 24.1875C6.62381 24.25 6.5619 24.3125 6.5 24.375C5.63333 24.9375 4.95238 25.6875 4.14762 26.25C3.59048 26.625 3.09524 27.0625 2.6 27.5C2.29048 27.75 1.98095 27.875 1.54762 27.8125C1.17619 27.8125 0.866667 27.8125 0.557143 28C0.433333 28.125 0.185714 28.125 0 28.1875C0 28.125 0 28.0625 0 27.9375C0.0619048 27.9375 0.12381 28 0.12381 28C0.185714 28 0.309524 27.9375 0.371429 27.875C0.309524 27.8125 0.309524 27.75 0.247619 27.75C0.0619048 27.6875 0.247619 27.5625 0.185714 27.5C0.371429 27.5625 0.495238 27.625 0.495238 27.375C0.557143 27.375 0.619048 27.375 0.680952 27.3125C0.866667 27.25 0.866667 27.1875 0.680952 27C0.990476 27 1.2381 26.875 1.48571 26.8125C1.60952 26.75 1.67143 26.6875 1.54762 26.5625C1.48571 26.5 1.42381 26.4375 1.3619 26.4375C1.3 26.4375 1.3 26.375 1.2381 26.375C1.3 26.3125 1.3619 26.25 1.42381 26.25C1.54762 26.3125 1.60952 26.375 1.73333 26.5C1.85714 26.625 1.98095 26.6875 2.16667 26.5625C2.84762 26 3.46667 25.5 4.14762 25C4.45714 24.75 4.82857 24.5 5.13809 24.1875C5.32381 24.0625 5.38571 23.9375 5.38571 23.6875C5.38571 23.5 5.38571 23.3125 5.38571 23.125C5.38571 22.6875 5.38571 22.6875 4.95238 22.6875C4.82857 22.6875 4.70476 22.6875 4.58095 22.6875C4.51905 22.6875 4.51905 22.6875 4.45714 22.625C4.51905 22.625 4.51905 22.5625 4.58095 22.5625C4.82857 22.5625 5.01429 22.5625 5.2619 22.5625C5.32381 22.5625 5.44762 22.5 5.50952 22.4375C5.44762 22.4375 5.32381 22.375 5.2619 22.375C4.89048 22.375 4.51905 22.375 4.08571 22.375V22.3125C4.39524 22.3125 4.70476 22.3125 5.01429 22.3125C5.2 22.3125 5.38571 22.25 5.57143 22.1875C5.63333 22.1875 5.63333 22.125 5.69524 22.125C5.63333 22.125 5.63333 22.0625 5.57143 22.0625C5.38571 22.0625 5.2619 22.0625 5.07619 22.0625C4.33333 21.875 3.65238 21.875 2.90952 21.8125C2.84762 21.8125 2.84762 21.75 2.78571 21.75C2.84762 21.6875 2.84762 21.625 2.90952 21.625C3.03333 21.625 3.21905 21.625 3.34286 21.5625C3.9 21.5625 4.39524 21.5625 4.95238 21.5625C5.01429 21.5625 5.07619 21.5 5.13809 21.5C5.07619 21.5 5.01429 21.4375 4.95238 21.4375C4.89048 21.4375 4.82857 21.4375 4.76667 21.4375C4.82857 21.375 4.82857 21.375 4.89048 21.3125C5.2 21.3125 5.44762 21.3125 5.75714 21.3125C5.81905 21.3125 5.88095 21.3125 5.94286 21.25C5.88095 21.25 5.81905 21.1875 5.81905 21.1875C5.38571 21.1875 5.01429 21 4.64286 20.8125C4.58095 20.8125 4.58095 20.75 4.58095 20.75C4.64286 20.75 4.70476 20.6875 4.70476 20.6875C4.95238 20.75 5.13809 20.8125 5.38571 20.875C5.94286 21 6.5 21.1875 7.05714 21.1875C7.18095 21.1875 7.24286 21.125 7.18095 21C6.74762 20.25 6.93333 19.5625 7.24286 18.8125C7.36667 18.5 7.55238 18.1875 7.73809 17.875C7.8 17.75 7.8 17.75 7.67619 17.6875C7.55238 17.625 7.42857 17.5 7.30476 17.375C7.05714 17.0625 6.80952 16.75 6.5 16.4375C6.37619 16.3125 6.37619 16.25 6.5 16.125C6.68571 15.9375 6.74762 15.8125 6.43809 15.75C6.37619 15.75 6.25238 15.625 6.37619 15.5625C6.5619 15.4375 6.62381 15.375 6.37619 15.3125C6.31429 15.3125 6.31429 15.1875 6.25238 15.1875C6.31429 15.125 6.37619 15.0625 6.43809 15.0625C6.68571 14.9375 6.68571 14.9375 6.5 14.8125C6.43809 14.75 6.37619 14.75 6.31429 14.6875C6.25238 14.625 6.25238 14.5625 6.25238 14.5C6.25238 14.5 6.31429 14.4375 6.37619 14.4375C6.62381 14.4375 6.80952 14.4375 7.05714 14.4375C7.11905 14.4375 7.11905 14.4375 7.18095 14.375L7.11905 14.3125H7.05714C6.80952 14.0625 6.68571 13.875 6.80952 13.75C6.99524 13.5625 7.18095 13.6875 7.36667 13.6875C7.42857 13.6875 7.55238 13.75 7.61429 13.8125C7.67619 13.8125 7.73809 13.8125 7.8 13.875C7.8 13.8125 7.73809 13.75 7.73809 13.6875C7.73809 13.625 7.67619 13.625 7.67619 13.625C7.67619 13.5625 7.61429 13.5 7.61429 13.4375C7.67619 13.4375 7.8 13.375 7.8619 13.375C8.10952 13.375 8.29524 13.4375 8.41905 13.625C8.29524 13.625 8.04762 13.5625 7.98571 13.5625C7.92381 13.75 8.10952 13.8125 8.23333 13.9375C8.29524 14 8.29524 14 8.35714 14.0625C8.41905 14.125 8.48095 14.1875 8.54286 14.25C8.48095 14.25 8.35714 14.3125 8.29524 14.3125C8.10952 14.3125 7.92381 14.25 7.8 14.1875C7.55238 14.125 7.36667 14.0625 7.11905 14C7.11905 14 7.05714 14 7.05714 14.0625C7.05714 14.0625 7.05714 14.125 7.11905 14.1875C7.30476 14.3125 7.49048 14.4375 7.67619 14.5625C7.73809 14.625 7.73809 14.6875 7.8 14.75C7.73809 14.8125 7.67619 14.875 7.61429 14.875C7.49048 14.875 7.30476 14.875 7.18095 14.875C7.05714 14.875 6.93333 14.875 6.80952 14.875C6.93333 14.9375 7.05714 15 7.11905 15.0625H7.18095C7.18095 15.125 7.18095 15.1875 7.18095 15.25C7.11905 15.3125 6.99524 15.375 6.87143 15.4375C6.93333 15.5 6.99524 15.5625 7.11905 15.625V15.6875C7.05714 15.75 6.99524 15.8125 6.87143 15.9375C6.93333 16 7.05714 16.0625 7.11905 16.1875V16.25C6.93333 16.4375 7.11905 16.625 7.18095 16.75C7.42857 17.1875 7.67619 17.5625 8.23333 17.6875C8.35714 17.6875 8.41905 17.8125 8.54286 17.9375C8.66667 18.0625 8.60476 18.125 8.41905 18.25C8.29524 18.3125 8.17143 18.375 8.10952 18.4375C7.8619 18.875 7.61429 19.25 7.42857 19.6875C7.11905 20.4375 7.36667 21.0625 8.10952 21.4375C8.17143 21.5 8.35714 21.5 8.41905 21.5C8.97619 21.3125 9.53333 21.0625 10.0905 20.8125C10.2143 20.75 10.3381 20.75 10.3381 20.5625C10.3381 20.4375 10.4 20.5 10.4619 20.5C10.6476 20.625 10.8333 20.75 11.081 20.6875C11.6381 20.5625 12.2571 20.4375 12.8143 20.125C12.9381 20.0625 13.0619 20 13.1857 19.875C13.4333 19.625 13.4333 19.5625 13.3095 19.1875C13.1857 18.875 13.1238 18.5625 13.0619 18.3125C13 18.0625 13.0619 17.875 13.0619 17.625C12.7524 17.625 12.6905 17.9375 12.5048 18.0625C12.5048 18.0625 12.4429 18.0625 12.4429 18.125C12.4429 18.0625 12.381 18 12.4429 18C12.6905 17.4375 13.1857 17.0625 13.681 16.75C13.9905 16.5625 14.0524 16.4375 13.8048 16.1875C13.619 16 13.3714 15.8125 13.1238 15.625C13.0619 15.625 13.0619 15.5625 13 15.5C13.0619 15.5 13.1238 15.4375 13.1857 15.5C13.5571 15.625 13.9286 15.6875 14.1762 16.0625C14.2381 16.125 14.3 16.25 14.3619 16.125C14.4238 16.0625 14.4857 15.9375 14.4238 15.875C14.3619 15.75 14.3 15.5625 14.1762 15.5625C13.681 15.3125 13.1857 14.9375 12.5667 14.875C11.7619 14.75 10.8952 14.5625 10.0905 14.4375C9.40952 14.0625 8.85238 14.0625 8.48095 13.6875ZM6.06667 24.0625C5.81905 24 5.63333 24.1875 5.44762 24.3125C4.70476 24.875 4.02381 25.4375 3.28095 26.0625C2.90952 26.375 2.53809 26.625 2.22857 26.9375C2.16667 27 2.16667 27.0625 2.16667 27.1875C2.22857 27.1875 2.35238 27.1875 2.41429 27.1875C2.47619 27.1875 2.5381 27.0625 2.6619 27.0625C3.8381 26.3125 4.89048 25.375 5.94286 24.5C6.00476 24.3125 6.00476 24.1875 6.06667 24.0625C6.19048 24.0625 6.31429 24.0625 6.43809 24C6.5619 23.9375 6.68571 23.8125 6.80952 23.75C6.68571 23.75 6.5619 23.6875 6.37619 23.6875C6.12857 23.6875 6.12857 23.9375 6.06667 24.0625ZM5.63333 23.125C5.63333 23.25 5.63333 23.3125 5.63333 23.375C5.63333 23.4375 5.63333 23.5 5.75714 23.5C6.25238 23.4375 6.25238 23.4375 6.37619 22.9375C6.4381 22.75 6.5 22.5625 6.62381 22.375C6.80952 22.1875 6.99524 22 7.18095 21.8125C7.24286 21.75 7.30476 21.6875 7.30476 21.625C7.18095 21.5625 7.11905 21.5 6.99524 21.5C6.62381 21.5625 6.25238 21.6875 5.94286 21.9375C5.81905 22.0625 5.69524 22.1875 5.69524 22.375C5.69524 22.625 5.63333 22.9375 5.63333 23.125ZM7.05714 23.5C7.49048 23.5 7.8619 23.4375 8.23333 23.1875C8.35714 23.125 8.48095 23.0625 8.60476 23C8.48095 23 8.29524 22.9375 8.17143 23C7.67619 23.0625 7.24286 23.1875 6.80952 23.375C6.74762 23.375 6.74762 23.4375 6.68571 23.5C6.74762 23.5 6.80952 23.5625 6.80952 23.5625C6.99524 23.5 7.05714 23.5 7.05714 23.5ZM1.85714 27.3125L1.79524 27.25C1.73333 27.25 1.60952 27.1875 1.54762 27.1875C1.2381 27.3125 1.05238 27.375 0.804762 27.5L0.742857 27.5625C0.804762 27.5625 0.804762 27.625 0.866667 27.625C1.17619 27.5625 1.48571 27.5 1.79524 27.4375C1.79524 27.375 1.79524 27.375 1.85714 27.3125Z" fill="#E6E8EC"/>
<path d="M38.1939 36.625C37.8844 36.5 37.5749 36.375 37.2653 36.25C36.2749 35.8125 35.6558 35 35.4082 34C34.9749 32.375 35.3463 30.9375 36.5844 29.8125C37.5129 28.9375 38.6891 28.5625 39.9891 28.75C40.4225 28.8125 40.9177 29 41.2891 29.25C41.5368 29.4375 41.5987 29.375 41.5987 29.125C41.5987 27.75 41.5987 26.4375 41.5987 25.0625C41.5987 24.875 41.5368 24.6875 41.4749 24.5C41.4129 24.375 41.351 24.25 41.2272 24.25C40.9796 24.1875 40.7939 24.1875 40.5463 24.125C40.4844 24.125 40.4225 24.0625 40.4225 24L40.4844 23.875C40.5463 23.8125 40.6701 23.75 40.7939 23.75C41.351 23.5625 41.9082 23.375 42.5272 23.1875C42.5891 23.1875 42.651 23.125 42.7129 23.125C42.8368 23.125 42.8987 23.1875 42.9606 23.3125C42.9606 23.5 42.9606 23.625 42.9606 23.8125C42.9606 27.4375 42.9606 31.0625 42.9606 34.6875C42.9606 34.75 42.9606 34.8125 42.9606 34.9375C42.9606 35.75 43.0225 35.75 43.7653 35.625C43.8272 35.625 43.951 35.6875 43.951 35.6875C43.951 35.8125 43.951 35.9375 43.8891 36C43.7653 36.0625 43.5796 36.125 43.3939 36.125C42.9606 36.25 42.5272 36.375 42.1558 36.4375C42.0939 36.4375 42.032 36.5 41.9701 36.5625C41.8463 36.5625 41.7225 36.5625 41.6606 36.5625C41.6606 36.3125 41.6606 36.0625 41.6606 35.8125C41.6606 35.5625 41.5987 35.625 41.4749 35.75C40.9796 36.125 40.4225 36.4375 39.8034 36.5625C39.8034 36.5625 39.8034 36.5625 39.8034 36.625C39.1225 36.625 38.6272 36.625 38.1939 36.625ZM41.4749 33.0625C41.4749 32.3125 41.4129 31.5625 41.351 30.8125C41.2891 30.4375 41.1653 30.125 40.9177 29.8125C40.3606 29.125 39.3701 29 38.5034 29.25C37.6987 29.5 37.2034 30.0625 36.8939 30.8125C36.5225 31.8125 36.4606 32.8125 36.7082 33.8125C36.9558 34.75 37.3891 35.5625 38.3177 35.9375C38.8749 36.1875 39.4939 36.25 40.051 35.9375C40.2368 35.8125 40.4844 35.75 40.6701 35.625C41.1653 35.3125 41.4749 34.875 41.4749 34.25C41.4749 33.875 41.4749 33.4375 41.4749 33.0625Z" fill="#FCFCFD"/>
<path d="M77.9984 36.5629C76.8842 36.5629 75.7699 36.5629 74.7175 36.5629C74.5937 36.5629 74.408 36.6254 74.408 36.4379C74.3461 36.1879 74.5937 36.2504 74.7175 36.1879C75.3984 36.0004 75.4603 35.6254 75.5222 35.0629C75.5222 34.6254 75.5222 34.1879 75.5222 33.8129C75.5222 33.0629 75.5222 32.3129 75.5222 31.5629C75.5222 31.2504 75.4603 31.0004 75.3984 30.6879C75.0889 29.7504 74.1603 29.1879 73.1699 29.4379C72.8603 29.5004 72.6127 29.6254 72.3651 29.8129C71.9937 30.0629 71.6842 30.3754 71.7461 30.9379C71.808 32.1879 71.7461 33.4379 71.7461 34.6879C71.7461 34.8754 71.7461 35.0629 71.7461 35.2504C71.7461 35.7504 71.9937 36.0629 72.4889 36.2504C72.5508 36.2504 72.6746 36.2504 72.6746 36.3129C72.7365 36.3754 72.7984 36.4379 72.7984 36.5004C72.7365 36.5629 72.6746 36.6254 72.6127 36.6254C72.5508 36.6254 72.4889 36.6254 72.427 36.6254C71.3746 36.6254 70.3842 36.6254 69.3318 36.6254C69.2699 36.6254 69.208 36.6254 69.1461 36.6254C69.0222 36.6254 68.8984 36.6254 68.8984 36.4379C68.8984 36.3754 69.0222 36.3129 69.0841 36.2504C69.208 36.1879 69.2699 36.1879 69.3937 36.1879C69.8889 36.1879 70.0746 35.8129 70.1984 35.3129C70.1984 35.1879 70.1984 35.0629 70.1984 34.9379C70.1984 33.6254 70.1984 32.2504 70.1984 30.9379C70.1984 30.5629 70.0746 30.2504 69.7651 30.0629C69.4556 29.8754 69.4556 29.6879 69.7651 29.5004C70.1365 29.2504 70.5699 29.0004 70.9413 28.8129C71.3127 28.6254 71.4984 28.7504 71.4984 29.1879C71.4984 29.3754 71.5603 29.5629 71.5603 29.6879C71.6841 29.6254 71.8699 29.5004 71.9937 29.4379C72.7984 28.9379 73.6651 28.7504 74.5318 28.8754C75.5842 29.0004 76.2651 29.4379 76.5746 30.5629C76.6984 31.0004 76.6984 31.4379 76.7603 31.8754C76.7603 33.0004 76.8222 34.0629 76.7603 35.1879C76.7603 35.8129 77.0699 36.4379 77.8746 36.3754C77.9984 36.3129 77.9984 36.4379 77.9984 36.5629Z" fill="#FCFCFD"/>
<path d="M29.097 36.625C29.0351 36.5625 28.9732 36.5625 28.9113 36.5C28.1065 36.375 27.4875 35.625 27.4256 34.6875C27.3018 33.3125 27.3637 31.9375 27.3018 30.5625C27.3018 30.0625 27.2399 29.625 26.8065 29.3125C26.6827 29.1875 26.497 29.1875 26.3113 29.0625C26.2494 29.0625 26.1875 28.9375 26.1875 28.875C26.2494 28.8125 26.3113 28.75 26.3732 28.6875C27.0542 28.625 27.6732 28.625 28.3542 28.5625C28.7256 28.5625 28.7256 28.5625 28.7256 29C28.7256 30.625 28.7256 32.25 28.7256 33.875C28.7256 34.125 28.7875 34.4375 28.8494 34.6875C29.1589 35.625 30.1494 36 30.8923 35.6875C31.3875 35.5 31.8827 35.3125 32.2542 34.9375C32.4399 34.6875 32.5637 34.5 32.5637 34.1875C32.5637 33 32.5637 31.875 32.5637 30.6875C32.5637 30.375 32.5018 30.0625 32.4399 29.75C32.378 29.4375 32.1304 29.1875 31.8208 29.125C31.697 29.0625 31.5732 29.125 31.5113 29.0625C31.4494 29 31.3875 28.9375 31.3875 28.8125C31.3875 28.75 31.5113 28.6875 31.5732 28.6875C32.1923 28.625 32.8732 28.625 33.4923 28.5625C33.9256 28.5625 33.9256 28.5625 33.9256 29C33.9256 30.75 33.9256 32.5 33.9256 34.3125C33.9256 34.5 33.9256 34.75 33.9875 34.9375C34.1113 35.4375 34.297 35.5 34.7304 35.375C34.8542 35.3125 35.0399 35.25 35.1018 35.4375C35.1637 35.625 35.1018 35.75 34.7923 35.8125C34.1732 36 33.5542 36.125 32.8732 36.3125C32.6875 36.375 32.6256 36.25 32.6256 36.125C32.6256 35.875 32.6256 35.6875 32.6256 35.4375C32.6256 35.375 32.6256 35.3125 32.5637 35.25C32.5018 35.25 32.4399 35.25 32.4399 35.3125C31.8827 35.875 31.2018 36.1875 30.4589 36.3125L30.397 36.375C30.0875 36.625 29.5923 36.625 29.097 36.625Z" fill="#FCFCFD"/>
<path d="M46.5513 36.625C46.4894 36.5625 46.4275 36.5625 46.3656 36.5C45.5609 36.375 44.9418 35.625 44.8799 34.6875C44.7561 33.3125 44.818 31.9375 44.818 30.5C44.818 29.875 44.6323 29.375 43.9513 29.125C43.8894 29.125 43.7656 29.0625 43.7656 29C43.7656 28.9375 43.7656 28.8125 43.8275 28.75C43.8275 28.75 43.8894 28.75 43.9513 28.75C44.6323 28.6875 45.3132 28.6875 45.9942 28.625C46.3037 28.625 46.3037 28.625 46.3037 29C46.3037 30.6875 46.3037 32.3125 46.3037 34C46.3037 34.25 46.3656 34.5625 46.4275 34.8125C46.6752 35.625 47.5418 36 48.2228 35.875C48.8418 35.75 49.399 35.5 49.8323 35.0625C50.018 34.875 50.1418 34.625 50.1418 34.3125C50.1418 33.125 50.1418 31.9375 50.1418 30.75C50.1418 30.4375 50.0799 30.1875 50.018 29.875C49.9561 29.625 49.8323 29.375 49.5228 29.3125C49.399 29.25 49.2752 29.25 49.1513 29.1875C49.0275 29.125 48.9037 29.125 48.9037 28.9375C48.9037 28.75 49.0894 28.8125 49.2132 28.8125C49.7704 28.75 50.3894 28.75 50.9466 28.6875C51.4418 28.6875 51.4418 28.625 51.4418 29.125C51.4418 30.875 51.4418 32.625 51.4418 34.4375C51.4418 34.625 51.4418 34.875 51.5037 35.0625C51.6275 35.625 51.8132 35.6875 52.3085 35.5625C52.4323 35.5625 52.5561 35.4375 52.618 35.625C52.6799 35.75 52.618 35.875 52.4323 35.9375C51.7513 36.125 51.0704 36.3125 50.4513 36.4375C50.2656 36.5 50.2037 36.375 50.2037 36.25C50.2037 36 50.2037 35.8125 50.2037 35.5625C50.2037 35.5 50.2037 35.4375 50.1418 35.375C50.0799 35.375 50.018 35.4375 50.018 35.4375C49.4609 35.9375 48.7799 36.3125 48.0371 36.5C48.0371 36.5 48.0371 36.5 48.0371 36.5625C47.5418 36.625 47.0466 36.625 46.5513 36.625Z" fill="#FCFCFD"/>
<path d="M64.6325 36.6255C64.5706 36.563 64.5087 36.563 64.4468 36.5005C63.5182 36.3755 62.7754 35.8755 62.1563 35.1255C61.5992 34.438 61.3516 33.563 61.3516 32.7505C61.3516 30.938 62.1563 29.5005 64.1992 28.8755C65.6849 28.438 67.0468 28.813 68.223 29.8755C68.6563 30.2505 68.9658 30.813 69.0897 31.3755C69.4611 32.6255 69.3992 33.8755 68.5944 34.938C67.9754 35.813 67.1706 36.3755 66.1182 36.5005C66.0563 36.5005 65.9944 36.563 65.9325 36.6255C65.5611 36.6255 65.0658 36.6255 64.6325 36.6255ZM63.023 32.688C62.9611 33.438 63.023 34.188 63.3325 34.8755C63.642 35.6255 64.323 36.313 65.2516 36.2505C65.3754 36.2505 65.4992 36.2505 65.623 36.2505C66.242 36.2505 66.7373 35.938 67.1087 35.438C67.4801 34.938 67.6039 34.3755 67.6659 33.813C67.8516 32.688 67.7897 31.6255 67.4182 30.6255C67.2325 30.188 67.0468 29.813 66.6135 29.563C66.0563 29.2505 65.4992 29.1255 64.8801 29.2505C64.0135 29.438 63.4563 30.0005 63.2087 30.813C63.023 31.3755 62.9611 32.0005 63.023 32.688Z" fill="#FCFCFD"/>
<path d="M24.5749 36.4999C23.9558 36.4999 23.2748 36.4999 22.6558 36.4999C22.5939 36.4999 22.4701 36.4999 22.4082 36.4999C22.2844 36.4999 22.2225 36.4374 22.2225 36.3124C22.2225 36.1874 22.2844 36.1249 22.4082 36.0624C22.5939 35.9999 22.7796 35.9999 22.9653 35.9374C23.3987 35.8124 23.5844 35.6249 23.5225 35.1874C23.4606 34.8124 23.3987 34.3749 23.2748 33.9999C23.0272 33.3124 22.7796 32.6874 22.532 31.9999C22.4082 31.7499 22.2844 31.5624 21.9749 31.6249C20.7987 31.6249 19.5606 31.6249 18.3844 31.6249C18.1987 31.6249 18.0129 31.6249 17.951 31.8749C17.6415 32.8124 17.2701 33.7499 16.9606 34.7499C16.7749 35.3749 16.9606 35.7499 17.5796 35.9374C17.7034 35.9999 17.8891 35.9999 18.0129 36.0624C18.1368 36.0624 18.1987 36.1874 18.1987 36.3124C18.1987 36.4374 18.1368 36.4999 18.0129 36.4999C17.5796 36.4999 17.1463 36.4999 16.7129 36.4999C16.032 36.4999 15.4129 36.4999 14.732 36.4999C14.6082 36.4999 14.4844 36.4999 14.4844 36.3124C14.4844 36.1874 14.4844 36.0624 14.6701 36.0624C15.4749 35.8749 15.9082 35.3124 16.2796 34.6249C16.8987 33.4374 17.332 32.2499 17.8272 30.9999C18.3844 29.5624 18.9415 28.0624 19.4987 26.6249C19.6225 26.3124 19.6844 25.9999 19.8082 25.6874C19.8701 25.4374 19.9939 25.2499 20.1796 24.9999C20.3653 24.6249 20.6129 24.3124 20.8606 23.9999C21.0463 23.7499 21.232 23.8124 21.4177 23.9999C21.4796 24.1249 21.5415 24.2499 21.6034 24.3749C21.851 25.4999 22.3463 26.4999 22.7796 27.5624C23.2749 28.8749 23.7701 30.2499 24.3272 31.5624C24.7606 32.6874 25.1939 33.8124 25.6891 34.9374C25.9987 35.4999 26.3701 35.8749 26.9891 35.9999C27.1129 35.9999 27.2987 35.9999 27.2987 36.2499C27.2987 36.4999 27.1129 36.4374 26.9272 36.4374C25.9987 36.4999 25.2558 36.4999 24.5749 36.4999ZM20.1177 31.0624C20.6749 31.0624 21.232 31.0624 21.7891 31.0624C22.0987 31.0624 22.1606 30.9999 22.0368 30.6874C21.4796 29.1874 20.9225 27.6874 20.3653 26.1874C20.3653 26.1249 20.3034 26.0624 20.3034 26.0624C20.3034 26.0624 20.1796 25.9999 20.1796 26.0624C20.1177 26.1249 20.1177 26.1874 20.0558 26.2499C19.4987 27.7499 18.9415 29.3124 18.3225 30.8124C18.2606 31.0624 18.2606 31.0624 18.5082 31.0624C19.0034 31.0624 19.5606 31.0624 20.1177 31.0624Z" fill="#FCFCFD"/>
<path d="M21.2929 20.375C21.2929 20.3125 21.2929 20.3125 21.2929 20.25C21.3548 20.25 21.4167 20.25 21.5406 20.25C21.6025 20.25 21.6644 20.25 21.6644 20.1875C21.6025 20.1875 21.5406 20.125 21.4786 20.125C20.9834 20.125 20.5501 20.125 20.0548 20.125C19.8072 20 19.6834 20 19.3739 20.125C19.1263 20.125 18.9406 20.125 18.6929 20.125C18.631 20.125 18.5691 20.0625 18.4453 20C18.631 20 18.8167 20 19.0025 20C19.1882 20 19.4358 19.9375 19.4358 19.6875C20.1786 19.8125 20.9834 19.6875 21.7882 19.875C22.1596 19.9375 22.531 20 22.8406 20.0625C22.9025 20.0625 22.9025 20.125 22.9644 20.1875C22.9025 20.1875 22.9025 20.25 22.8406 20.25C22.3453 20.3125 21.8501 20.3125 21.2929 20.375ZM20.9834 20.0625C21.1072 20.0625 21.231 20.0625 21.3548 20.0625C21.4167 20.0625 21.4167 20.0625 21.4786 20L21.4167 19.9375C21.1691 19.9375 20.9215 19.9375 20.7358 19.9375C20.6739 19.9375 20.6739 19.9375 20.612 20L20.6739 20.0625C20.7977 20.0625 20.8596 20.0625 20.9834 20.0625Z" fill="#7E6B54"/>
<path d="M19.5016 19.75C19.5016 20.0625 19.254 20.0625 19.0683 20.0625C18.8826 20.0625 18.6969 20.0625 18.5112 20.0625C18.3874 20 18.2635 20 18.1397 19.9375C18.0159 19.875 18.0159 19.8125 18.1397 19.75C18.3254 19.75 18.4493 19.75 18.635 19.75C18.8826 19.75 18.6969 19.625 18.6969 19.5625C19.0064 19.5625 19.254 19.625 19.5016 19.75Z" fill="#7E6B54"/>
<path d="M4.8872 21.375C4.8253 21.4375 4.8253 21.4375 4.76339 21.5C4.33006 21.4375 3.95863 21.375 3.5253 21.3125C3.46339 21.3125 3.40149 21.25 3.33958 21.25C3.21577 21.25 3.09196 21.25 2.90625 21.25C3.03006 21.25 3.21577 21.1875 3.33958 21.1875C3.77292 21.1875 4.20625 21.25 4.63958 21.3125C4.76339 21.3125 4.8253 21.3125 4.8872 21.375Z" fill="#7E6B54"/>
<path d="M18.7555 19.5002C18.7555 19.5627 18.8793 19.6877 18.6936 19.6877C18.5079 19.6877 18.3841 19.6877 18.1984 19.6877C18.1365 19.5002 17.9507 19.6252 17.8269 19.5627C17.765 19.5002 17.765 19.5002 17.7031 19.4377C18.0746 19.3127 18.446 19.3127 18.7555 19.5002Z" fill="#7E6B54"/>
<path d="M0.802902 27.0625C0.988616 27.25 0.988616 27.25 0.802902 27.375C0.740997 27.375 0.679092 27.375 0.617188 27.4375C0.617188 27.375 0.802902 27.3125 0.617188 27.1875C0.617188 27.125 0.679092 27.125 0.802902 27.0625Z" fill="#7E6B54"/>
<path d="M0.559524 27.1875C0.745238 27.25 0.559524 27.3125 0.559524 27.4375C0.435714 27.375 0.37381 27.375 0.25 27.3125C0.311905 27.25 0.435714 27.1875 0.559524 27.1875Z" fill="#7E6B54"/>
<path d="M0.248661 27.3125C0.37247 27.375 0.434375 27.375 0.558184 27.4375C0.49628 27.625 0.37247 27.625 0.248661 27.5625C0.0629464 27.4375 0.0629464 27.375 0.248661 27.3125Z" fill="#7E6B54"/>
<path d="M4.0878 22.1875V22.25C3.90208 22.25 3.71637 22.25 3.53065 22.25C3.53065 22.25 3.46875 22.25 3.46875 22.1875L3.53065 22.125C3.71637 22.1875 3.90208 22.1875 4.0878 22.1875Z" fill="#7E6B54"/>
<path d="M1.85647 27.3125L1.79457 27.375C1.48504 27.4375 1.17552 27.5 0.865997 27.5625C0.865997 27.5625 0.804092 27.5625 0.742188 27.5L0.804092 27.4375C1.05171 27.3125 1.29933 27.1875 1.54695 27.125C1.60885 27.125 1.73266 27.125 1.79457 27.1875C1.79457 27.25 1.79457 27.3125 1.85647 27.3125Z" fill="#7E6B54"/>
</g>
<defs>
<clipPath id="clip0_14912_30617">
<rect width="78" height="50" fill="white"/>
</clipPath>
</defs>
</svg>
