<svg width="78" height="50" viewBox="0 0 78 50" fill="none" xmlns="http://www.w3.org/2000/svg">
<path fill-rule="evenodd" clip-rule="evenodd" d="M73.7919 14.4375V35.625H4.21094V14.4375H73.7919ZM73.4824 14.6875H40.3633V35.3125H73.4824V14.6875ZM30.0871 18.3125C29.8395 19.1875 29.4062 20.125 29.3443 20.875C30.0871 19.8125 31.2633 19.5625 32.4395 19.5C33.2443 19.375 34.1109 19.8125 34.4205 20.5C34.6681 21.125 34.7919 22.125 34.1109 22.625L34.049 22.6875C32.0062 23.8125 28.849 24.25 28.4776 27.1875C28.1681 28.9375 28.2919 30.8125 29.6538 32.0625C30.6443 32.75 31.9443 33 33.1824 32.75C34.2347 32.5625 33.8014 31.1875 34.4824 30.6875C34.6681 31.5625 35.4109 32.375 36.2157 32.6875C38.1967 33.6875 37.8252 31.25 38.4443 30.5C38.4443 30.5 38.3824 30.5 38.3205 30.5625C37.8871 30.75 37.2681 30.6875 37.0824 30.1875V24.0625V21.6875C37.0824 21.3125 37.0824 21.0625 37.0824 20.9375V20.875C37.0205 20.125 36.7109 19.375 36.7109 19.375C35.4728 17 32.13 17.375 30.0871 18.3125ZM20.6157 18.25C18.6347 19.4375 17.9538 21.5625 17.4586 23.625C16.9633 26.875 17.5824 29.9375 19.9967 31.9375C21.73 33.25 24.4538 33.0625 26.3109 32C26.5586 31.125 26.93 30.125 27.0538 29.375V29.25L26.5586 30C25.5681 31.0625 23.3395 31.0625 21.9776 30.4375C20.9871 30 20.4919 29.125 20.1205 28.375C19.8109 27.5 19.749 26.5625 19.9967 25.875V25.8125H27.9205C28.1681 23.1875 27.7967 20.6875 26.0014 18.75C24.6395 17.375 22.2871 17.375 20.6157 18.25ZM12.1967 17.8125C11.0205 18 10.1538 18.8125 9.65856 19.8125C9.59665 19.3125 9.59665 18.75 9.59665 18.25C8.60618 18.9375 7.49189 19.5 6.50141 20.1875L6.3157 20.3125H6.56332C6.99665 20.375 7.24427 21.125 7.24427 21.5C7.24427 24.6875 7.18237 28.0625 7.18237 31.125C7.12046 31.625 6.62522 32.25 6.12998 32.5625L6.06808 32.625H10.5252C10.1538 32.4375 9.72046 31.625 9.59665 31.1875V31.125V23.4375V23.25C9.65856 22.25 9.84427 21.25 10.4014 20.4375C10.8967 19.625 11.949 19.5625 12.7538 19.75C13.3728 20 13.8681 20.5 13.93 21.3125V21.375L13.8681 31.125C13.6824 31.75 13.3728 32.1875 12.7538 32.625L12.6919 32.6875H17.3967C16.8395 32.5625 16.4062 31.75 16.2205 31.25V31.1875V21.875C16.2205 20.3125 15.9109 19.4375 15.0443 18.5625C14.1776 17.8125 13.4967 17.6875 12.1967 17.8125ZM55.53 29.125C55.9014 29.125 56.2109 29.1875 56.4586 29.25H56.5205V30.0625H56.3967C56.3967 29.8125 56.0871 29.3125 55.5919 29.3125C54.849 29.3125 54.7871 30.0625 54.7871 30.6875C54.7871 31.4375 55.0347 32.125 55.7157 32.125C56.149 32.125 56.3967 32 56.5205 31.875H56.5824V32.1875C56.3347 32.375 56.0871 32.5 55.5919 32.5C54.5395 32.5 54.1681 31.875 54.1681 30.75C54.1681 29.8125 54.4157 29.125 55.53 29.125ZM47.1728 29.125C47.4824 29.125 47.7919 29.1875 47.9157 29.1875H47.9776V29.9375H47.8538C47.7919 29.6875 47.6681 29.3125 47.1728 29.3125C46.8014 29.3125 46.5538 29.5 46.5538 29.75C46.5538 30.25 47.3586 30.4375 47.73 30.75C47.9776 30.9375 48.1633 31.125 48.1633 31.5C48.1633 32.1875 47.6062 32.4375 46.9252 32.4375C46.5538 32.4375 46.3062 32.375 46.1205 32.3125H46.0586V31.5H46.1824C46.2443 31.75 46.3681 32.1875 46.9871 32.1875C47.4205 32.1875 47.6681 31.9375 47.6681 31.6875C47.6681 31.1875 47.1109 31.0625 46.6776 30.75C46.3681 30.5625 46.1205 30.3125 46.1205 29.9375C46.0586 29.4375 46.43 29.125 47.1728 29.125ZM49.649 29.125C49.9586 29.125 50.2681 29.1875 50.3919 29.1875H50.4538V29.9375H50.33C50.2681 29.6875 50.1443 29.3125 49.649 29.3125C49.2776 29.3125 49.03 29.5 49.03 29.75C49.03 30.25 49.8347 30.4375 50.2062 30.75C50.4538 30.9375 50.6395 31.125 50.6395 31.5C50.6395 32.1875 50.0824 32.4375 49.4014 32.4375C49.03 32.4375 48.7824 32.375 48.5967 32.3125H48.5347V31.5H48.6586C48.7205 31.75 48.8443 32.1875 49.4633 32.1875C49.8967 32.1875 50.1443 31.9375 50.1443 31.6875C50.1443 31.1875 49.5871 31.0625 49.1538 30.75C48.8443 30.5625 48.5967 30.3125 48.5967 29.9375C48.5347 29.4375 48.9062 29.125 49.649 29.125ZM52.3728 29.125C53.3633 29.125 53.6728 29.75 53.6728 30.8125C53.6728 31.875 53.3633 32.5 52.3728 32.5C51.3824 32.5 51.0728 31.875 51.0728 30.8125C51.0728 29.75 51.3824 29.125 52.3728 29.125ZM66.7967 29.125C67.7871 29.125 68.0967 29.75 68.0967 30.8125C68.0967 31.875 67.7871 32.5 66.7967 32.5C65.8062 32.5 65.4967 31.875 65.4967 30.8125C65.4347 29.75 65.7443 29.125 66.7967 29.125ZM63.7633 29.1875V29.9375H63.6395C63.5776 29.5625 63.5157 29.4375 63.0205 29.375H62.9586H62.7728V31.875C62.7728 32.25 62.8347 32.3125 63.1443 32.3125H63.2062V32.4375H61.8443V32.3125C62.1538 32.3125 62.2776 32.25 62.2776 31.9375V31.875V29.375H62.0919C61.5967 29.375 61.4728 29.5625 61.4109 29.875V29.9375H61.2871V29.1875H63.7633ZM65.3109 29.1875V29.3125C65.0014 29.3125 64.8776 29.375 64.8776 29.6875V29.75V31.875C64.8776 32.25 64.9395 32.3125 65.249 32.3125H65.3109V32.4375H63.949V32.3125C64.2586 32.3125 64.3824 32.25 64.3824 31.9375V31.875V29.75C64.3824 29.375 64.3205 29.3125 64.0109 29.3125H63.949V29.1875H65.3109ZM69.149 29.1875L70.6348 31.8125V29.75C70.6348 29.375 70.5728 29.3125 70.2633 29.3125H70.2014V29.1875H71.3157V29.3125C71.0062 29.3125 70.8824 29.375 70.8824 29.6875V29.75V32.4375H70.449L68.8395 29.6875V31.875C68.8395 32.25 68.9014 32.3125 69.2109 32.3125H69.2728V32.4375H68.1586V32.3125C68.4681 32.3125 68.5919 32.25 68.5919 31.9375V31.875V29.75C68.5919 29.375 68.53 29.3125 68.2205 29.3125H68.1586V29.1875H69.149ZM44.2633 29.1875L45.2538 31.875C45.3776 32.1875 45.5014 32.3125 45.8109 32.3125H45.8728V32.4375H44.5109V32.3125C44.6967 32.3125 44.8824 32.3125 44.8824 32.125C44.8824 32.0625 44.8824 32.0625 44.8824 32V31.9375L44.5728 31.4375H43.3347L43.149 31.9375C43.149 32 43.0871 32.0625 43.0871 32.125C43.0871 32.25 43.149 32.3125 43.3967 32.3125H43.4586V32.4375H42.2824V32.3125C42.5919 32.3125 42.7157 32.1875 42.8395 31.875V31.8125L43.83 29.1875H44.2633ZM58.1919 29.1875V29.3125C57.8824 29.3125 57.7586 29.375 57.7586 29.6875V29.75V31.875C57.7586 32.25 57.8205 32.3125 58.13 32.3125C58.4395 32.3125 58.5633 32.1875 58.6871 31.875V31.8125L59.6776 29.1875H60.049L61.0395 31.875C61.1633 32.1875 61.2871 32.3125 61.5967 32.3125H61.6586V32.4375H60.2967V32.3125C60.4824 32.3125 60.6681 32.3125 60.6681 32.125C60.6681 32.0625 60.6681 32.0625 60.6681 32V31.9375L60.4824 31.4375H59.2443L59.0586 31.9375C59.0586 32 58.9967 32.0625 58.9967 32.125C58.9967 32.25 59.0586 32.3125 59.3062 32.3125H59.3681V32.4375H56.8919V32.3125C57.2014 32.3125 57.3252 32.25 57.3252 31.9375V31.875V29.75C57.3252 29.375 57.2633 29.3125 56.9538 29.3125H56.8919V29.1875H58.1919ZM52.3728 29.375C51.7538 29.375 51.63 30.0625 51.63 30.8125C51.63 31.5625 51.7538 32.25 52.3728 32.25C52.9919 32.25 53.1157 31.5625 53.1157 30.8125C53.1157 30 53.0538 29.375 52.3728 29.375ZM66.7967 29.375C66.1776 29.375 66.0538 30.0625 66.0538 30.8125C66.0538 31.5625 66.1776 32.25 66.7967 32.25C67.4157 32.25 67.5395 31.5625 67.5395 30.8125C67.5395 30 67.4157 29.375 66.7967 29.375ZM59.8633 29.6875L59.3062 31.1875H60.4205L59.8633 29.6875ZM43.9538 29.6875L43.3967 31.1875H44.5109L43.9538 29.6875ZM34.5443 24.0625V30C33.9252 30.5 32.9967 30.625 32.1919 30.4375C31.6347 30.1875 31.0776 29.8125 30.83 29.1875C30.6443 28.125 30.6443 26.6875 31.6967 25.875C32.5633 25.125 33.6157 24.75 34.5443 24.0625ZM54.2919 23.625C54.7252 23.625 55.0347 23.6875 55.2824 23.75H55.3443L55.4062 24.625H55.2205C55.2205 24.375 54.9109 23.875 54.2919 23.875C53.4871 23.875 53.3633 24.6875 53.3633 25.375C53.3633 26.1875 53.6728 26.9375 54.4157 26.9375C54.9109 26.9375 55.1586 26.8125 55.3443 26.6875H55.4062V27.0625C55.2205 27.125 54.9109 27.25 54.3538 27.25C53.1776 27.25 52.7443 26.5625 52.7443 25.375C52.8062 24.375 53.1157 23.625 54.2919 23.625ZM66.0538 23.625C67.1681 23.625 67.5395 24.3125 67.5395 25.4375C67.5395 26.5625 67.1681 27.25 66.0538 27.25C64.9395 27.25 64.5681 26.5625 64.5681 25.4375C64.5681 24.3125 64.9395 23.625 66.0538 23.625ZM50.5157 23.625V23.75C50.1443 23.75 50.0824 23.8125 50.0824 24.1875V24.25V26C50.0824 26.5 50.2062 26.9375 50.8252 26.9375C51.4443 26.9375 51.63 26.6875 51.63 26.0625V26V24.25C51.63 23.875 51.5681 23.75 51.1967 23.75H51.1347V23.625H52.4347V23.75C52.0633 23.75 52.0014 23.8125 52.0014 24.1875V24.25V26C52.0014 26.5625 51.8157 27.1875 50.7014 27.1875C49.7728 27.1875 49.4014 26.8125 49.4014 26.0625V26V24.25C49.4014 23.875 49.3395 23.75 48.9681 23.75H48.9062V23.625H50.5157ZM64.1347 23.625V23.75C63.7633 23.75 63.7014 23.8125 63.7014 24.1875V24.25V26.5C63.7014 26.875 63.7633 27 64.1347 27H64.1967V27.125H62.7109V27C63.0824 27 63.1443 26.9375 63.1443 26.5625V26.5V24.25C63.1443 23.875 63.0824 23.75 62.7109 23.75H62.649V23.625H64.1347ZM62.0919 23.625V24.4375H61.9062C61.8443 24.0625 61.7205 23.875 61.2252 23.875H61.1633H60.9776V26.5C60.9776 26.875 61.0395 27 61.4109 27H61.4728V27.125H59.9871V27C60.3586 27 60.4205 26.9375 60.4205 26.5625V26.5V23.875H60.2347C59.6776 23.875 59.5538 24.0625 59.4919 24.375V24.4375H59.3062L59.3681 23.625H62.0919ZM68.9633 23.625L70.6348 26.4375V24.25C70.6348 23.875 70.5728 23.75 70.2014 23.75H70.1395V23.625H71.3776V23.75C71.0062 23.75 70.9443 23.8125 70.9443 24.1875V24.25V27.125H70.449L68.6538 24.1875V26.5C68.6538 26.875 68.7157 27 69.0871 27H69.149V27.125H67.9109V27C68.2824 27 68.3443 26.9375 68.3443 26.5625V26.5V24.25C68.3443 23.875 68.2824 23.75 67.9109 23.75H67.849V23.625H68.9633ZM44.9443 23.625L45.0062 24.375H44.8205C44.8205 24.125 44.7586 23.875 44.2014 23.875H44.1395H43.7681C43.5205 23.875 43.4586 23.9375 43.4586 24.1875V24.25V25.1875H44.1395C44.449 25.1875 44.5109 25.125 44.5728 24.8125V24.75H44.6966V25.8125H44.5728C44.5728 25.5 44.5109 25.375 44.2014 25.375H44.1395H43.4586V26.4375C43.4586 26.75 43.5205 26.8125 43.7681 26.8125H43.83H44.3252C44.7586 26.8125 44.9443 26.625 44.9443 26.3125V26.25H45.13L45.0681 27H42.4681V26.875C42.8395 26.875 42.9014 26.8125 42.9014 26.4375V26.375V24.125C42.9014 23.75 42.8395 23.625 42.4681 23.625H42.4062V23.5L44.9443 23.625ZM57.8824 23.625L58.9967 26.5C59.1205 26.875 59.2443 27 59.6157 27H59.6776V27.125H58.13V27C58.3157 27 58.5633 27 58.5633 26.8125C58.5633 26.75 58.5633 26.6875 58.5633 26.6875V26.625L58.3776 26.0625H56.9538L56.7681 26.625C56.7681 26.6875 56.7062 26.75 56.7062 26.8125C56.7062 26.9375 56.83 27 57.0776 27H57.1395V27.125H55.8395V27C56.2109 27 56.3347 26.875 56.4586 26.5V26.4375L57.5728 23.625H57.8824ZM45.6252 23.625H47.049C48.1014 23.625 48.8443 23.875 48.8443 25.375C48.8443 26.875 48.1633 27.125 47.1728 27.125H47.1109H45.6871V27C46.0586 27 46.1205 26.9375 46.1205 26.5625V26.5V24.25C46.1205 23.875 46.0586 23.75 45.6871 23.75H45.6252V23.625ZM66.0538 23.875C65.3109 23.875 65.1871 24.625 65.1871 25.4375C65.1871 26.25 65.3109 27 66.0538 27C66.7966 27 66.9205 26.25 66.9205 25.4375C66.9205 24.5625 66.7966 23.875 66.0538 23.875ZM46.9871 23.875C46.7395 23.875 46.6776 23.9375 46.6157 24.1875V24.25V26.5C46.6157 26.75 46.6157 26.875 46.9871 26.875C47.9157 26.875 48.1014 26.4375 48.1014 25.375C48.1014 24.4375 48.0395 23.875 46.9871 23.875ZM57.5728 24.25L56.9538 25.8125H58.1919L57.5728 24.25ZM23.1538 18.3125C25.0728 19.75 26.0633 21.75 26.3728 23.9375C24.5157 24.9375 21.73 24.875 19.8728 24C20.1205 21.75 21.1728 19.75 23.1538 18.3125ZM22.4728 23C22.2252 23 21.6681 23 21.8538 23.4375C21.9157 23.6875 21.9157 23.9375 22.2871 23.9375C22.5347 23.75 22.5967 23.3125 22.4728 23ZM24.2681 22.875C24.0205 22.875 23.4633 22.75 23.7109 23.25C23.7728 23.4375 23.7728 24 24.2062 23.8125C24.4538 23.5625 24.2062 23.1875 24.2681 22.875ZM20.9252 21.5625L21.3586 22.1875L20.9252 22.875L24.6395 22.5L20.9252 21.5625ZM24.8252 20.875C23.649 21.1875 22.5967 19.9375 21.4824 20.8125C21.4824 21.125 22.2252 21 22.0395 21.5625C22.4109 21.6875 22.7824 21.625 22.8443 21.1875C23.8347 20.875 23.1538 22.5 24.2062 22C24.0824 21.375 24.8252 21.5 25.0109 21.0625L24.8252 20.875ZM57.8205 17.625C58.9967 17.625 59.3681 18.375 59.3681 19.5625C59.3681 20.75 58.9967 21.5 57.8205 21.5C56.6443 21.5 56.2728 20.75 56.2728 19.5625C56.2109 18.3125 56.5824 17.625 57.8205 17.625ZM48.6586 17.6875L49.8347 20.75C49.9586 21.125 50.1443 21.25 50.4538 21.25H50.5157V21.375H48.9062V21.25C49.1538 21.25 49.3395 21.25 49.3395 21.0625C49.3395 21 49.3395 20.9375 49.3395 20.875V20.8125L49.0919 20.1875H47.6062L47.3586 20.75C47.3586 20.8125 47.2967 20.875 47.2967 20.9375C47.2967 21.125 47.4205 21.125 47.6681 21.1875H47.73V21.3125H46.3062V21.25C46.6776 21.25 46.8633 21.125 46.9871 20.75V20.6875L48.1633 17.6875H48.6586ZM66.1776 17.6875L67.3538 20.75C67.4776 21.125 67.6633 21.25 67.9728 21.25H68.0347V21.375H66.3633V21.25C66.6109 21.25 66.7967 21.25 66.7967 21.0625C66.7967 21 66.7967 20.9375 66.7967 20.875V20.8125L66.549 20.1875H65.0633L64.8157 20.75C64.8157 20.8125 64.7538 20.875 64.7538 20.9375C64.7538 21.125 64.8776 21.125 65.1252 21.1875H65.1871V21.3125H63.7633V21.25C64.1347 21.25 64.3205 21.125 64.4443 20.75V20.6875L65.6205 17.6875H66.1776ZM53.2395 17.6875V18.5625H53.0538C52.9919 18.1875 52.8681 17.9375 52.3109 17.9375H52.249H52.0014V20.75C52.0014 21.1875 52.0633 21.25 52.4347 21.25H52.4967V21.375H50.8871V21.25C51.2586 21.25 51.3824 21.1875 51.3824 20.8125V20.75V17.9375H51.1347C50.5776 17.9375 50.3919 18.125 50.33 18.5V18.5625H50.1443L50.2062 17.6875H53.2395ZM43.5205 17.6875L45.3157 20.6875V18.3125C45.3157 17.875 45.2538 17.8125 44.8824 17.8125H44.8205V17.6875H46.1824V17.8125C45.8109 17.8125 45.6871 17.875 45.6871 18.25V18.3125V21.375H45.1919L43.2728 18.1875V20.6875C43.2728 21.125 43.3347 21.1875 43.7062 21.1875H43.7681V21.3125H42.4062V21.25C42.7776 21.25 42.9014 21.1875 42.9014 20.8125V20.75V18.3125C42.9014 17.875 42.8395 17.8125 42.4681 17.8125H42.4062V17.6875H43.5205ZM55.5919 17.6875V17.8125C55.2205 17.8125 55.0967 17.875 55.0967 18.25V18.3125V20.75C55.0967 21.1875 55.1586 21.25 55.53 21.25H55.5919V21.375H53.9824V21.25C54.3538 21.25 54.4776 21.1875 54.4776 20.8125V20.75V18.3125C54.4776 17.875 54.4157 17.8125 54.0443 17.8125H53.9824V17.6875H55.5919ZM61.1014 17.6875L62.8967 20.6875V18.3125C62.8967 17.875 62.8347 17.8125 62.4633 17.8125H62.4014V17.6875H63.7633V17.8125C63.3919 17.8125 63.2681 17.875 63.2681 18.25V18.3125V21.375H62.7109L60.7919 18.1875V20.6875C60.7919 21.125 60.8538 21.1875 61.2252 21.1875H61.2871V21.3125H59.9252V21.25C60.2967 21.25 60.4205 21.1875 60.4205 20.8125V20.75V18.3125C60.4205 17.875 60.3586 17.8125 59.9871 17.8125H59.9252V17.6875H61.1014ZM69.9538 17.6875V17.8125C69.5824 17.8125 69.4586 17.875 69.4586 18.25V18.3125V20.75C69.4586 21.0625 69.5205 21.125 69.7681 21.125H69.83H70.2633C70.6967 21.125 70.8824 20.9375 70.9443 20.5625V20.5H71.13L71.0681 21.375H68.2824V21.25C68.6538 21.25 68.7776 21.1875 68.7776 20.8125V20.75V18.3125C68.7776 17.875 68.7157 17.8125 68.3443 17.8125H68.2824V17.6875H69.9538ZM57.8205 17.875C57.0776 17.875 56.9538 18.625 56.9538 19.5C56.9538 20.375 57.0776 21.125 57.8205 21.125C58.5633 21.125 58.6871 20.375 58.6871 19.5C58.6871 18.6875 58.5633 17.875 57.8205 17.875ZM48.2871 18.3125L47.6681 20H48.9062L48.2871 18.3125ZM65.8062 18.3125L65.1252 20H66.4252L65.8062 18.3125Z" fill="#FCFCFD"/>
</svg>
