<svg width="78" height="50" viewBox="0 0 78 50" fill="none" xmlns="http://www.w3.org/2000/svg">
<g clip-path="url(#clip0_14912_30640)">
<path d="M23.9609 28.5625C24.1467 28.5625 24.3324 28.5625 24.5181 28.5625C34.0514 28.5625 43.6467 28.5625 53.18 28.5625C53.3657 28.5625 53.6133 28.5625 53.799 28.5625C53.9228 28.8125 53.8609 29.0625 53.8609 29.3125C53.6133 29.375 53.4276 29.375 53.2419 29.375C43.5847 29.375 33.9276 29.375 24.2705 29.375C24.1467 29.375 24.0228 29.375 23.9609 29.375C23.9609 29.0625 23.9609 28.8125 23.9609 28.5625Z" fill="#E6E8EC"/>
<path d="M24.2105 20.2503C24.4581 19.5003 25.3867 19.1252 26.0057 19.2502C26.9962 19.3752 27.4295 20.0003 27.5533 20.7503C27.7391 21.6878 27.6772 22.6878 27.6772 23.6253C27.6772 24.1253 27.6153 24.6253 27.4914 25.1253C27.2438 25.8128 26.6867 26.2503 26.0057 26.3128C25.201 26.3753 24.5819 26.1253 24.2105 25.3752C24.1486 25.2502 24.1486 20.3753 24.2105 20.2503ZM25.7581 20.2503C25.2629 20.5003 25.1391 20.6252 25.0772 21.3127C25.0153 22.3127 25.0153 23.3128 25.0772 24.3128C25.0772 24.6878 25.1391 25.0003 25.4486 25.2503C25.6343 25.3128 25.82 25.3128 26.0057 25.2503C26.2533 25.1253 26.3772 24.8753 26.3772 24.6253C26.5629 23.6253 26.501 22.5628 26.4391 21.5628C26.4391 21.1878 26.4391 20.7502 26.0676 20.3752C26.0676 20.3127 25.8819 20.3128 25.7581 20.2503Z" fill="#FCFCFD"/>
<path d="M39.1242 0C39.5576 0.4375 39.9909 0.8125 40.3623 1.25C41.1671 2.125 41.7242 3.125 41.848 4.25C41.9718 5.3125 41.9099 6.4375 41.4766 7.5C41.3528 7.8125 41.229 8.125 41.0433 8.4375C40.9814 8.5 40.9195 8.5625 40.7957 8.5625C40.6718 8.4375 40.7337 8.25 40.6099 8.125C40.7956 7.3125 40.9814 6.5625 41.1052 5.8125C41.229 5 41.1052 4.1875 40.7957 3.4375C40.4242 2.4375 39.7433 1.625 38.8766 0.9375C38.5671 1.0625 38.3814 1.3125 38.1957 1.5C37.7004 2.125 37.2671 2.75 36.9576 3.4375C36.7099 4.375 36.5242 5.375 36.7099 6.375C36.8337 6.9375 36.9576 7.5 37.1433 8C37.2671 8.3125 37.329 8.6875 37.2671 9.0625C37.2671 9.25 37.2052 9.375 37.0195 9.4375C36.7099 9.125 36.5861 8.75 36.4004 8.375C36.029 7.375 35.7195 6.375 35.7814 5.3125C35.8433 4.25 36.0909 3.25 36.648 2.3125C37.0814 1.5625 37.6385 0.8125 38.3814 0.3125C38.5052 0.25 38.629 0.1875 38.629 0C38.8766 0 39.0004 0 39.1242 0Z" fill="#E6E8EC"/>
<path d="M23.9609 41.6875C24.7038 41.6875 25.4467 41.5625 26.1895 41.5C26.3752 41.5 26.5609 41.5 26.7467 41.5C27.3038 41.5 27.9228 41.375 28.48 41.3125C28.6038 41.3125 28.7276 41.3125 28.7895 41.3125C29.8419 41.25 30.8324 41.1875 31.8847 41.0625C32.6895 41 33.4324 40.875 34.2371 40.875C34.3609 40.875 34.4847 40.8125 34.6086 40.9375C34.6086 41.125 34.6086 41.3125 34.6086 41.5625C31.08 41.875 27.6133 42.25 24.0847 42.5C24.0847 42.375 24.1467 42.25 23.9609 42.1875C23.9609 42 23.9609 41.875 23.9609 41.6875Z" fill="#E6E8EC"/>
<path d="M23.9609 31.5625C23.9609 31.5625 25.0133 31.5625 25.5086 31.625C25.6324 31.625 25.7562 31.5625 25.9419 31.75C26.0038 31.875 25.9419 32.0625 25.9419 32.3125C25.5086 32.3125 25.1371 32.3125 24.7657 32.3125C24.7657 33.1875 24.7657 34.0625 24.7657 34.9375C25.0752 35.0625 25.3847 34.9375 25.6943 35C25.8181 35.1875 25.7562 35.4375 25.7562 35.625C25.4467 35.75 25.0752 35.625 24.7657 35.75C24.7657 36.9375 24.7657 38.0625 24.7657 39.1875C24.5181 39.375 24.2705 39.25 24.0228 39.3125C23.9609 36.75 23.9609 31.5625 23.9609 31.5625Z" fill="#FCFCFD"/>
<path d="M23.9609 16.3125C26.499 16.3125 29.0371 16.3125 31.5752 16.3125C31.6371 16.5 31.6371 16.75 31.6371 16.875C31.5752 16.9375 31.5752 16.9375 31.5752 16.9375H31.5133C28.9752 16.9375 26.499 16.9375 23.9609 16.9375C23.9609 16.75 23.9609 16.5 23.9609 16.3125Z" fill="#E6E8EC"/>
<path d="M23.9609 42.125C24.1467 42.1875 24.0228 42.3125 24.0847 42.4375C24.0228 42.4375 24.0228 42.5 23.9609 42.5C23.9609 42.375 23.9609 42.25 23.9609 42.125Z" fill="#85C54E"/>
<path d="M39.3138 3.93793C39.3138 6.56293 39.3138 9.18793 39.3138 12.0004C41.0471 8.93793 43.709 7.93793 46.8042 7.50043C46.928 7.68793 46.99 7.81293 46.99 8.00043C47.0519 9.37543 46.928 10.7504 46.4328 12.1254C46.1233 12.9379 45.69 13.6879 45.1328 14.3754C44.5138 15.1879 43.709 15.8754 42.8423 16.3754C42.1614 16.7504 41.4185 17.1254 40.6757 17.1879C40.49 17.1879 40.3661 17.3129 40.1804 17.2504C40.0566 16.8754 40.1185 16.4379 40.1804 16.0629C40.4281 14.8754 40.9233 13.7504 41.6661 12.7504C42.2852 11.9379 43.09 11.2504 43.8947 10.6254C44.0185 10.5629 44.0804 10.5004 44.2042 10.5629C44.328 10.8754 44.2042 11.1254 44.0185 11.3754C43.8328 11.5629 43.709 11.7504 43.5233 11.8754C42.2852 12.8129 41.5423 14.1254 41.0471 15.5629C40.9852 15.8129 40.9233 16.0629 40.7995 16.3754C41.4185 16.3129 41.9138 16.0629 42.409 15.8129C43.6471 15.1879 44.5757 14.2504 45.2566 13.0004C46.0614 11.5629 46.4328 10.0004 46.3709 8.31293C46.1852 8.18793 45.9995 8.25043 45.8757 8.25043C45.0709 8.43793 44.2042 8.68793 43.4614 9.06293C42.9042 9.31293 42.409 9.62543 41.9138 10.0004C41.109 10.6254 40.428 11.4379 39.9947 12.3754C39.6852 13.1254 39.4376 13.8754 39.3757 14.6879C39.3757 14.7504 39.3757 14.8129 39.3138 14.8129C39.128 14.8754 39.0042 14.7504 38.9423 14.6254C38.6947 14.2504 38.6328 13.8129 38.6328 13.3754C38.6328 10.6879 38.6328 8.06293 38.6328 5.37543C38.6328 4.93793 38.6947 4.43793 38.9423 4.06293C39.0042 4.00043 39.0661 3.87543 39.3138 3.93793Z" fill="#E6E8EC"/>
<path d="M39.1911 44.0625C39.1911 46.0625 39.1911 48 39.1911 50C38.8197 50.125 38.6959 49.8125 38.5102 49.625C38.5102 47.75 38.5102 45.875 38.5102 43.9375C37.4578 44.9375 36.1578 45.375 34.8578 45.75C33.9911 46 33.0625 46.25 32.2578 46.75C31.8864 46.9375 31.5768 47.1875 31.2673 47.5C31.0197 47.75 30.7721 47.875 30.4006 47.8125C30.3387 47.625 30.4006 47.5 30.4625 47.3125C30.834 46.6875 31.3911 46.375 31.9483 46.0625C32.6292 45.6875 33.3721 45.4375 34.1768 45.25C35.1673 44.9375 36.1578 44.6875 37.0245 44.1875C37.7673 43.8125 38.2625 43.25 38.3864 42.375C38.3864 42.1875 38.4483 42 38.4483 41.8125C38.4483 41.375 38.4483 40.9375 38.4483 40.4375C38.6959 40.4375 38.8816 40.4375 39.1292 40.4375C39.1292 40.8125 39.1292 41.1875 39.1292 41.5625C39.1911 42.125 39.253 42.75 39.5006 43.25C39.8102 43.9375 40.3673 44.25 40.9864 44.4375C41.5435 44.625 42.1625 44.6875 42.7816 44.6875C43.7102 44.6875 44.6387 44.75 45.5673 44.8125C46.434 44.875 47.2387 45.0625 47.9816 45.5C48.1054 45.5625 48.1673 45.625 48.2911 45.6875C48.353 45.75 48.4149 45.75 48.4768 45.8125C48.353 45.9375 48.2292 46 48.1673 46.125C47.8578 46.1875 47.6721 46.125 47.4245 46C46.8673 45.75 46.1864 45.625 45.5673 45.5625C44.7006 45.4375 43.7721 45.5 42.9054 45.4375C41.9149 45.375 40.9245 45.3125 39.9959 44.8125C39.7483 44.5625 39.5625 44.25 39.1911 44.0625Z" fill="#E6E8EC"/>
<path d="M33.3692 11.1254C35.5358 12.3129 38.012 15.6254 37.8263 17.2504C32.7501 16.5004 30.0263 12.9379 30.212 8.25043C31.0787 7.81293 33.4311 8.06293 34.6073 8.68793C36.4025 9.62543 37.2692 11.2504 37.7644 13.2504C37.2073 13.1254 36.9597 12.7504 36.7739 12.3129C36.5882 11.8754 36.4025 11.3754 36.093 11.0004C35.2882 9.75043 34.112 9.06293 32.6263 8.87543C32.0692 8.75043 31.512 8.75043 30.9549 8.81293C30.7692 10.0629 31.2644 12.0629 32.3787 13.5004C33.493 15.0629 35.9073 16.3129 37.0216 16.3754C36.7739 15.7504 36.4025 15.1879 36.0311 14.6254C35.5358 13.8754 34.9168 13.1879 34.2358 12.5629C33.9882 12.3754 33.8025 12.1254 33.5549 11.8754C33.3692 11.6879 33.2454 11.4379 33.3692 11.1254Z" fill="#E6E8EC"/>
<path d="M51.3883 22.5C51.3883 23.75 51.3883 24.9375 51.3883 26.1875C51.0169 26.1875 50.7074 26.1875 50.3359 26.1875C50.3359 23.9375 50.3359 21.625 50.3359 19.375C50.6455 19.375 50.955 19.375 51.2645 19.375C51.7597 20.5625 52.255 21.8125 52.6883 23.0625C52.874 23 52.8121 22.875 52.8121 22.8125C52.8121 21.6875 52.8121 20.5625 52.8121 19.4375C53.1217 19.3125 53.4931 19.375 53.8026 19.375C53.9264 19.8125 53.9264 25.5625 53.8026 26.25C53.7407 26.25 53.6788 26.25 53.6788 26.25C53.4312 26.25 53.1836 26.25 52.9359 26.25C52.4407 25 51.9455 23.75 51.4502 22.5H51.3883Z" fill="#FCFCFD"/>
<path d="M29.3432 19.3125C29.9622 19.3125 30.5193 19.3125 31.0765 19.3125C32.1908 19.3125 32.6241 19.8125 32.8098 20.8125C32.8717 21.1875 32.8717 21.5625 32.8098 21.9375C32.7479 22.4375 32.5622 22.75 32.067 23.1875C32.3765 24.1875 32.7479 25.125 32.9955 26.1875C32.5622 26.3125 32.2527 26.25 31.8813 26.25C31.5098 25.3125 31.3241 24.375 30.9527 23.5C30.767 23.375 30.6432 23.4375 30.3955 23.5C30.3955 24.4375 30.3955 25.3125 30.3955 26.1875C30.0241 26.25 29.6527 26.3125 29.2812 26.1875C29.3432 23.9375 29.3432 21.6875 29.3432 19.3125ZM30.4574 22.4375C30.8908 22.5 31.2622 22.5 31.5717 22.3125C31.7574 21.875 31.8193 21.375 31.7574 21C31.6955 20.625 31.4479 20.4375 31.0765 20.4375C30.8908 20.4375 30.7051 20.375 30.4574 20.5C30.4574 21.0625 30.4574 21.6875 30.4574 22.4375Z" fill="#FCFCFD"/>
<path d="M44.7587 22.8125C44.7587 22.3125 44.7587 21.8125 44.7587 21.375C44.7587 21.0625 44.8206 20.75 44.8825 20.5C45.0682 19.8125 45.7491 19.3125 46.492 19.3125C47.4206 19.3125 47.9777 19.875 48.1634 20.4375C48.2872 20.8125 48.3491 21.1875 48.3491 21.5625C48.3491 22.375 48.3491 23.1875 48.3491 24.0625C48.3491 24.375 48.2872 24.6875 48.2253 25C48.0396 25.875 47.4206 26.375 46.492 26.375C45.6872 26.375 45.1301 25.9375 44.8825 25.25C44.7587 25 44.6968 24.6875 44.7587 24.375C44.7587 23.8125 44.7587 23.3125 44.7587 22.8125ZM46.2444 25.25C46.9253 25.3125 47.111 25.1875 47.1729 24.5625C47.2968 23.375 47.2968 22.125 47.1729 20.9375C47.1729 20.6875 47.0491 20.5 46.8634 20.375C46.6158 20.3125 46.4301 20.3125 46.2444 20.375C45.9348 20.5625 45.8729 20.875 45.8729 21.1875C45.811 22.3125 45.811 23.375 45.8729 24.5C45.9348 24.75 45.9968 25 46.2444 25.25Z" fill="#FCFCFD"/>
<path d="M42.9678 21.1876C42.5964 21.1876 42.2869 21.1876 41.9774 21.1876C41.8536 20.9376 41.9155 20.5001 41.4821 20.3126C41.3583 20.2501 41.1726 20.3126 40.9869 20.3126C40.6155 20.5001 40.5536 20.8751 40.5536 21.2501C40.4916 22.2501 40.4916 23.3126 40.5536 24.3126C40.5536 24.4376 40.6155 24.5626 40.6155 24.6251C40.7393 25.1876 40.8631 25.2501 41.4821 25.2501C42.1012 24.7501 41.7916 24.0626 41.8535 23.5001C41.6678 23.2501 41.4202 23.4376 41.2345 23.3126C41.2345 23.0626 41.2345 22.8126 41.2345 22.5001C41.4821 22.4376 41.7916 22.5001 42.1012 22.5001C42.4107 22.5001 42.6583 22.5001 43.0297 22.5001C43.0297 23.2501 43.0916 24.0001 43.0297 24.7501C42.9678 25.4376 42.7202 26.0001 42.0393 26.2501C41.4202 26.5001 40.7393 26.4376 40.1821 26.0001C39.7488 25.6876 39.5631 25.1876 39.5012 24.6251C39.4393 23.4376 39.3774 22.2501 39.5012 21.0626C39.5631 20.0626 40.0583 19.5001 40.9869 19.3126C41.7297 19.1876 42.6583 19.5001 42.9059 20.3751C42.9059 20.6251 43.0297 20.8751 42.9678 21.1876Z" fill="#FCFCFD"/>
<path d="M34.9219 19.375C35.9124 19.375 36.779 19.375 37.7695 19.375C37.7695 19.6875 37.7695 20 37.7695 20.375C37.2123 20.375 36.6552 20.375 36.0362 20.375C36.0362 21.0625 36.0362 21.625 36.0362 22.3125C36.5314 22.3125 37.0266 22.3125 37.5219 22.3125C37.6457 22.625 37.5219 22.9375 37.5838 23.3125C37.0266 23.3125 36.5933 23.3125 36.0362 23.3125C36.0362 24 36.0362 24.625 36.0362 25.3125C36.5933 25.375 37.1504 25.3125 37.7695 25.375C37.8933 25.6875 37.7695 25.9375 37.8314 26.25C36.8409 26.25 35.9124 26.25 34.9219 26.25C34.9219 23.9375 34.9219 21.625 34.9219 19.375Z" fill="#FCFCFD"/>
<path d="M29.6536 35.3125C29.6536 36.125 29.6536 36.9375 29.5298 37.6875C29.5298 37.875 29.4679 38 29.4679 38.1875C29.406 38.625 29.1584 38.875 28.7251 39C28.2917 39.125 27.8584 39 27.5489 38.6875C27.3632 38.5 27.3013 38.25 27.3013 38C27.1775 36.5625 27.1156 35.0625 27.2394 33.5625C27.3013 33.1875 27.2394 32.8125 27.3632 32.375C27.5489 31.8125 27.8584 31.5625 28.4156 31.5625C28.9727 31.5625 29.3441 31.8125 29.4679 32.3125C29.5917 32.75 29.5917 33.25 29.6536 33.6875C29.7156 33.9375 29.6536 34.1875 29.6536 34.5C29.6536 34.8125 29.6536 35.0625 29.6536 35.3125ZM28.106 32.375C27.7965 32.9375 27.8584 35 27.9203 36.875C27.9203 37.3125 27.9203 37.8125 28.106 38.1875C28.3536 38.3125 28.5394 38.3125 28.7251 38.125C28.9727 36.625 28.9108 35.0625 28.8489 33.5625C28.8489 33.125 28.9108 32.6875 28.6632 32.375C28.4775 32.3125 28.2917 32.3125 28.106 32.375Z" fill="#FCFCFD"/>
<path d="M48.2897 34.375C48.2897 35.3125 48.2897 36.1875 48.2897 37.125C48.0421 37.1875 47.7945 37.1875 47.5469 37.1875C47.5469 35.3125 47.5469 33.5 47.5469 31.625C47.7326 31.5625 47.9802 31.5625 48.2278 31.625C48.5374 32.4375 48.785 33.3125 49.0945 34.125C49.1564 34.125 49.1564 34.125 49.2183 34.125C49.2183 33.3125 49.2183 32.5 49.2183 31.6875C49.4659 31.5 49.7135 31.625 49.8993 31.5625C49.9612 31.625 49.9612 31.625 49.9612 31.625C49.9612 31.625 50.0231 31.625 50.0231 31.6875C50.085 33.375 50.0231 35 50.0231 36.6875C50.0231 36.75 50.0231 36.875 49.8993 37C49.7754 37.0625 49.5278 37 49.2802 37C48.9707 36.0625 48.6612 35.1875 48.3516 34.3125C48.3516 34.1875 48.4135 34.0625 48.2278 34C48.2278 34.1875 48.1659 34.25 48.2897 34.375Z" fill="#FCFCFD"/>
<path d="M34.6719 38.375C34.6719 36.125 34.6719 33.9375 34.6719 31.6875C35.1671 31.6875 35.6624 31.6875 36.0957 31.6875C36.529 31.75 36.9004 32.0625 36.9624 32.5625C37.1481 34.1875 37.1481 35.8125 36.9624 37.4375C36.9004 38.125 36.529 38.3125 35.91 38.375C35.5385 38.4375 35.1052 38.375 34.6719 38.375ZM35.4766 32.375C35.4147 33.75 35.4147 37.25 35.5385 37.625C35.7862 37.625 35.9719 37.6875 36.2195 37.4375C36.4052 35.8125 36.4052 34.125 36.2195 32.5C35.9719 32.3125 35.7243 32.3125 35.4766 32.375Z" fill="#FCFCFD"/>
<path d="M30.8975 35.0625C30.8975 34.25 30.8975 33.375 31.0213 32.5625C31.1451 31.9375 31.5166 31.625 32.1356 31.625C32.8166 31.625 33.188 31.9375 33.2499 32.625C33.4356 34.3125 33.4356 36 33.2499 37.6875C33.188 38.3125 32.7546 38.6875 32.1975 38.6875C31.5785 38.6875 31.1451 38.375 31.0832 37.75C30.8356 36.8125 30.8975 35.9375 30.8975 35.0625ZM32.3832 37.8125C32.507 37.5625 32.507 37.3125 32.507 37.0625C32.5689 35.75 32.5689 34.4375 32.507 33.0625C32.507 32.8125 32.507 32.5625 32.3213 32.3125C32.2594 32.3125 32.1356 32.25 32.0737 32.25C32.0118 32.25 31.888 32.25 31.7023 32.4375C31.5166 34.125 31.5166 35.9375 31.7023 37.6875C32.0118 38 32.1975 38 32.3832 37.8125Z" fill="#FCFCFD"/>
<path d="M40.2417 31.6875C40.6132 31.6875 41.0465 31.6875 41.4179 31.6875C41.7894 31.6875 42.0989 31.875 42.2846 32.1875C42.656 32.8125 42.5941 33.9375 42.0989 34.5625C42.656 35.3125 42.656 36.125 42.4084 37C42.2846 37.625 41.9132 37.875 41.2941 37.875C40.9227 37.875 40.6132 37.875 40.2417 37.875C40.1798 37.375 40.1798 32.25 40.2417 31.6875ZM40.9227 37.1875C41.4798 37.1875 41.6656 37.125 41.7275 36.6875C41.7894 36.3125 41.8513 35.875 41.7275 35.5C41.6036 35.0625 41.4179 35 40.9227 35.0625C40.9227 35.75 40.9227 36.4375 40.9227 37.1875ZM40.9227 32.375C40.9227 33 40.9227 33.625 40.9227 34.25C41.0465 34.25 41.1084 34.25 41.2322 34.25C41.2941 34.25 41.4179 34.25 41.4798 34.1875C41.9132 33.5 41.9132 32.9375 41.4798 32.3125C41.2941 32.375 41.1084 32.3125 40.9227 32.375Z" fill="#FCFCFD"/>
<path d="M52.9922 42.625C52.9303 42.75 52.8065 42.8125 52.7446 42.9375C52.1255 43.125 51.6303 42.75 51.0731 42.6875C50.2684 42.625 49.4636 42.375 48.5969 42.5625C48.4112 42.625 48.2874 42.5625 48.1017 42.5625C47.3589 42.5625 46.6779 42.75 45.935 42.8125C45.0684 42.9375 44.1398 43.0625 43.2731 43C42.035 42.875 41.2922 42.1875 41.0446 41C40.9827 40.75 40.8589 40.5 40.9827 40.125C41.1684 40.0625 41.3541 40.125 41.5398 40.0625C41.6636 40.1875 41.7255 40.3125 41.7255 40.4375C41.7255 40.75 41.8493 41 41.9112 41.3125C42.1589 41.9375 42.6541 42.1875 43.2112 42.25C44.2017 42.375 45.1922 42.25 46.1827 42.0625C46.4922 42 46.8636 42 47.1731 41.9375C48.2255 41.75 49.3398 41.75 50.4541 41.8125C51.2589 41.875 52.1255 42.0625 52.8684 42.4375C52.8684 42.5 52.9922 42.5 52.9922 42.625Z" fill="#E6E8EC"/>
<path d="M44.4514 31.6879C44.8228 31.6879 45.1324 31.6254 45.4419 31.6879C45.7514 33.5629 46.0609 35.4379 46.4324 37.3129C46.1847 37.4379 45.9371 37.3754 45.7514 37.3754C45.5038 37.0004 45.6276 36.5004 45.4419 36.1879C45.1324 36.1879 44.8847 36.1879 44.6371 36.1879C44.4514 36.6254 44.4514 37.1254 44.2657 37.6254C44.0181 37.6879 43.7705 37.6879 43.4609 37.6254C43.7705 35.6254 44.1419 33.6879 44.4514 31.6879ZM45.3181 35.5004C45.3181 34.8754 45.1324 33.5629 44.9467 33.2504C44.8228 34.0004 44.699 34.7504 44.6371 35.5004C44.8228 35.5629 45.0705 35.5004 45.3181 35.5004Z" fill="#FCFCFD"/>
<path d="M36.2774 40.5625C36.4631 40.5625 36.6488 40.5625 36.8964 40.5625C36.9583 41.5 36.5869 42.1875 35.9679 42.8125C35.4107 43.375 34.6679 43.625 33.925 43.8125C33.306 43.9375 32.625 44 31.944 44.0625C30.8298 44.1875 29.7155 44.25 28.6012 44.5625C28.044 44.75 27.5488 44.9375 27.0536 45.3125C26.744 45.5 26.4345 45.5625 26.125 45.25C26.125 45 26.3726 44.875 26.5583 44.75C27.3012 44.25 28.106 43.9375 28.9726 43.75C29.5298 43.625 30.025 43.5625 30.5821 43.5C31.5726 43.375 32.5631 43.3125 33.5536 43.125C34.1726 43 34.7917 42.8125 35.2869 42.4375C35.7202 42.0625 36.0298 41.625 36.0917 41.0625C36.1536 40.9375 36.2155 40.75 36.2774 40.5625Z" fill="#E6E8EC"/>
<path d="M52.9292 33.8125C53.3007 34.75 53.6102 35.6875 53.9816 36.6875C53.6721 36.6875 53.4864 36.6875 53.1769 36.6875C52.8673 36.1875 52.8054 35.5625 52.434 35.0625C51.8769 35.5625 52.1864 36.25 52.0007 36.875C51.815 36.875 51.5673 36.875 51.3816 36.875L51.3197 36.8125C51.3197 36.8125 51.2578 36.8125 51.2578 36.75C51.2578 35.125 51.2578 33.5 51.2578 31.875C51.2578 31.8125 51.2578 31.75 51.3197 31.6875C51.5054 31.5625 51.753 31.6875 52.0007 31.5625C52.0007 32.3125 52.0007 33 52.0007 33.6875C52.4959 33.0625 52.6816 32.3125 52.9911 31.6875C53.2388 31.5625 53.4245 31.6875 53.734 31.625C53.6102 32.4375 53.1769 33.0625 52.9292 33.8125Z" fill="#FCFCFD"/>
<path d="M53.8574 39.625C53.1764 39.6875 52.6193 39.75 52.0002 39.8125C51.0097 39.9375 50.0193 39.9375 49.0288 40.125C48.5336 40.1875 48.1002 40.1875 47.605 40.25C46.924 40.3125 46.2431 40.3125 45.5621 40.4375C45.005 40.5 44.3859 40.4375 43.8288 40.625C43.5812 40.6875 43.3336 40.625 43.0859 40.625C43.0859 40.4375 43.0859 40.1875 43.0859 40.0625C43.2097 39.875 43.3336 39.875 43.4574 39.875C44.2002 39.9375 44.8812 39.8125 45.624 39.75C46.6145 39.6875 47.5431 39.625 48.5336 39.4375C48.5955 39.4375 48.6574 39.4375 48.7812 39.4375C49.6478 39.375 50.5145 39.3125 51.3812 39.25C52.0002 39.1875 52.6193 39.0625 53.2383 39.125C53.4859 39.125 53.6717 39.1875 53.8574 39C53.9812 39.125 53.8574 39.375 53.8574 39.625Z" fill="#E6E8EC"/>
<path d="M46.25 16.9375C46.25 16.75 46.25 16.5625 46.25 16.375C46.6833 16.25 52.6262 16.25 53.8643 16.3125C53.9262 16.5 53.8643 16.6875 53.9262 16.875C53.431 17 47.55 17.0625 46.25 16.9375Z" fill="#E6E8EC"/>
<path d="M48.2882 34.375C48.1644 34.25 48.1644 34.1875 48.2882 34.0625C48.4739 34.125 48.412 34.25 48.412 34.375C48.412 34.375 48.3501 34.375 48.2882 34.375Z" fill="#FCFCFD"/>
</g>
<defs>
<clipPath id="clip0_14912_30640">
<rect width="78" height="50" fill="white"/>
</clipPath>
</defs>
</svg>
