<svg width="78" height="50" viewBox="0 0 78 50" fill="none" xmlns="http://www.w3.org/2000/svg">
<path d="M5.3611 21.0373V20.1436H4.89062V22.4623H5.3611V21.5686H7.87443V21.0373H5.3611Z" fill="#FCFCFD"/>
<path d="M7.87443 17.4502V16.9189H4.89062V17.4502H6.12872V18.9252H4.89062V19.4564H7.81872V18.9252H6.61777V17.4502H7.87443Z" fill="#FCFCFD"/>
<path d="M7.42253 13.8564V15.4939H6.56205V14.0689H6.14729V15.4939H5.3611V13.9127H4.89062V16.0252H7.81872V13.8564H7.42253Z" fill="#FCFCFD"/>
<path d="M16.6619 13.6436V17.4998H12.2667V13.6436H10.75V22.5686H12.2667V18.9248H16.6619V22.5686H18.1786V13.6436H16.6619Z" fill="#FCFCFD"/>
<path d="M26.7048 13.6436V18.6436C26.7419 19.3482 26.5216 20.042 26.0857 20.5936C25.8871 20.8314 25.6384 21.0216 25.3579 21.1502C25.0773 21.2789 24.7719 21.3428 24.4638 21.3373C24.1548 21.3488 23.8475 21.2876 23.566 21.1585C23.2845 21.0294 23.0366 20.836 22.8419 20.5936C22.4002 20.0452 22.1792 19.349 22.2228 18.6436V13.6436H20.6938V18.6436C20.6638 19.1819 20.741 19.7208 20.9207 20.2285C21.1003 20.7363 21.3789 21.2025 21.74 21.5998C22.1002 21.9501 22.5262 22.2241 22.993 22.4055C23.4597 22.5869 23.9577 22.6721 24.4576 22.6561C24.9501 22.6722 25.4406 22.5868 25.8993 22.4052C26.3581 22.2236 26.7753 21.9496 27.1257 21.5998C27.4868 21.2025 27.7654 20.7363 27.945 20.2285C28.1247 19.7208 28.2019 19.1819 28.1719 18.6436V13.6436H26.7048Z" fill="#FCFCFD"/>
<path d="M38.5297 13.6436L35.8616 19.2686L33.1935 13.6436H30.8906V22.5686H32.4073V15.6248L35.5025 21.8061H36.233L39.3282 15.6248V22.5686H40.8573V13.6436H38.5297Z" fill="#FCFCFD"/>
<path d="M42.4531 22.5686H44.0193L44.9107 20.5623H48.3588L47.7893 19.1936H45.536L47.1579 15.4936L49.3555 20.5623L50.2469 22.5686H51.8131L47.8884 13.6436H46.3222L42.4531 22.5686Z" fill="#FCFCFD"/>
<path d="M59.9236 13.6436V20.2998L54.7979 13.6436H53.2812V22.5686H54.7979V16.0748L59.8184 22.5686H61.4403V13.6436H59.9236Z" fill="#FCFCFD"/>
<path d="M65.3607 21.1436V18.7498H69.595V17.4498H65.3607V15.0686H70.0655V13.6436H63.875V22.5686H70.2512V21.1436H65.3607Z" fill="#FCFCFD"/>
<path d="M5.93946 26.1064H4.84375V35.0314H9.75899V33.9752H5.93946V26.1064Z" fill="#FCFCFD"/>
<path d="M13.2051 31.0752H17.6003V29.9627H13.2051V27.2189H18.1265V26.1064H12.1094V35.0314H18.337V33.9752H13.2051V31.0752Z" fill="#FCFCFD"/>
<path d="M24.9267 26.1064H23.831L19.9062 35.0314H21.1072L22.0482 32.8189H25.8182L25.3477 31.7564H22.5186L24.4067 27.4314L27.7001 35.0314H27.7496H28.901L24.9762 26.1627L24.9267 26.1064Z" fill="#FCFCFD"/>
<path d="M34.4455 27.162C35.4065 27.1762 36.3317 27.5326 37.0579 28.1682L37.1136 28.2182L37.7326 27.3745L37.6831 27.3245C36.7854 26.5321 35.6317 26.0986 34.4393 26.1057C33.8416 26.0797 33.2448 26.1757 32.6846 26.3878C32.1244 26.6 31.6124 26.9239 31.179 27.3404C30.7457 27.7569 30.4 28.2573 30.1625 28.8117C29.925 29.3661 29.8007 29.9631 29.797 30.5672C29.7932 31.1712 29.9101 31.7698 30.1407 32.3271C30.3713 32.8845 30.7108 33.3892 31.1389 33.8112C31.567 34.2331 32.075 34.5635 32.6325 34.7827C33.19 35.0019 33.7856 35.1054 34.3836 35.087C35.5793 35.0717 36.7376 34.6636 37.6831 33.9245V30.6245H34.235V31.6307H36.7112V33.3182C36.0537 33.7887 35.2699 34.046 34.4641 34.0557C34.0018 34.0756 33.5404 34.0008 33.1076 33.8359C32.6747 33.671 32.2794 33.4194 31.9454 33.0962C31.6114 32.773 31.3456 32.3849 31.164 31.9553C30.9825 31.5257 30.8889 31.0634 30.8889 30.5963C30.8889 30.1293 30.9825 29.667 31.164 29.2374C31.3456 28.8078 31.6114 28.4197 31.9454 28.0965C32.2794 27.7733 32.6747 27.5217 33.1076 27.3568C33.5404 27.1919 34.0018 27.1171 34.4641 27.137L34.4455 27.162Z" fill="#FCFCFD"/>
<path d="M46.3189 31.3377C46.2862 32.0158 45.9963 32.6552 45.5094 33.1235C45.0225 33.5918 44.3758 33.8529 43.7034 33.8529C43.0309 33.8529 42.3842 33.5918 41.8973 33.1235C41.4104 32.6552 41.1206 32.0158 41.0879 31.3377V26.1064H39.9922V31.3377C39.9922 33.6627 41.4036 35.0877 43.7065 35.0877C46.0093 35.0877 47.4208 33.7127 47.4208 31.3377V26.1064H46.3189V31.3377Z" fill="#FCFCFD"/>
<path d="M50.9785 33.9752V31.0752H55.3738V29.9627H50.9785V27.2189H55.8938V26.1064H49.8828V35.0314H56.0547V33.9752H50.9785Z" fill="#FCFCFD"/>
<path d="M66.1938 25.2623L64.4666 26.8748L62.7952 25.2373H60.6595L58.8828 26.9811V30.7811L64.4542 36.3311L70.1 30.8373V27.0623L68.2428 25.3186L66.1938 25.2623ZM66.4042 26.1623H68.02L66.7138 29.1748L65.0423 27.5373L66.4042 26.1623ZM64.1509 34.9123L62.9128 33.6623L64.0642 30.9686L65.3766 32.2186L64.1509 34.9123ZM63.47 30.3686L62.269 33.0623L60.8576 31.6373L62.7952 29.6811L63.47 30.3686ZM65.7233 31.4248L63.3152 28.9936L63.9342 27.4623L64.7204 28.2561L66.398 29.8936L65.7233 31.4248ZM60.9628 26.1436H62.5847L63.3647 26.9373L62.69 28.4686L60.6595 26.5311L60.9628 26.1436ZM59.7557 27.3748L60.0219 27.1123L62.1638 29.1748L60.3066 31.0498L59.7804 30.5186L59.7557 27.3748ZM69.2271 30.5436L65.1971 34.4498L66.9242 30.5436L67.079 30.1248H69.2271V30.5436ZM69.2271 29.2248H67.5L68.5957 26.6873L69.2147 27.3123L69.2271 29.2248Z" fill="#FCFCFD"/>
<path d="M72.7358 26.5314C72.8654 26.6185 72.9717 26.7366 73.0453 26.8751C73.1304 27.0178 73.1674 27.1845 73.1506 27.3501C73.1386 27.5128 73.1031 27.6728 73.0453 27.8251C72.9667 27.9553 72.8585 28.0646 72.7296 28.1439C72.5864 28.2245 72.4224 28.2593 72.2591 28.2439C72.1035 28.2269 71.9513 28.1869 71.8072 28.1251C71.6769 28.0476 71.5683 27.938 71.4915 27.8064C71.4076 27.6632 71.3708 27.497 71.3863 27.3314C71.3969 27.1685 71.4324 27.0083 71.4915 26.8564C71.5664 26.7234 71.6755 26.6133 71.8072 26.5376C71.9488 26.4525 72.1137 26.4153 72.2777 26.4314C72.4358 26.4304 72.5922 26.4645 72.7358 26.5314ZM72.6801 28.0626C72.7934 28.0048 72.8863 27.9131 72.9463 27.8001C73.0109 27.6676 73.0468 27.5228 73.0515 27.3751C73.0399 27.2306 73.0043 27.089 72.9463 26.9564C72.884 26.8435 72.7919 26.7505 72.6801 26.6876C72.5511 26.6223 72.4096 26.5861 72.2653 26.5814C72.1203 26.5938 71.9781 26.6296 71.8444 26.6876C71.7324 26.7482 71.6417 26.842 71.5844 26.9564C71.5204 27.0869 71.4845 27.2296 71.4791 27.3751C71.4906 27.5217 71.5262 27.6653 71.5844 27.8001C71.6427 27.9122 71.7334 28.0037 71.8444 28.0626C71.9748 28.13 72.1188 28.1664 72.2653 28.1689C72.41 28.1673 72.5522 28.1308 72.6801 28.0626ZM72.6801 27.4376C72.6306 27.4876 72.581 27.5439 72.5253 27.5439L72.7358 27.9126H72.5253L72.3148 27.5939H72.1106V27.9126H71.9001V26.8751H72.3148C72.3719 26.8703 72.4293 26.8772 72.4835 26.8954C72.5378 26.9137 72.5878 26.9429 72.6306 26.9814C72.6957 27.0533 72.733 27.1465 72.7358 27.2439C72.7376 27.3108 72.7181 27.3765 72.6801 27.4314V27.4376ZM72.3148 27.3814C72.3436 27.3847 72.3728 27.3819 72.4005 27.3733C72.4282 27.3647 72.4538 27.3505 72.4758 27.3314C72.5253 27.2751 72.5253 27.2751 72.5253 27.1689C72.5285 27.1408 72.5257 27.1123 72.5171 27.0854C72.5086 27.0585 72.4945 27.0337 72.4758 27.0126C72.4538 26.9936 72.4282 26.9793 72.4005 26.9707C72.3728 26.9621 72.3436 26.9593 72.3148 26.9626H72.1106V27.3814H72.3148Z" fill="#FCFCFD"/>
</svg>
