<svg width="78" height="50" viewBox="0 0 78 50" fill="none" xmlns="http://www.w3.org/2000/svg">
<g clip-path="url(#clip0_14912_30691)">
<path d="M6.37619 18.5625C2.84762 18.5625 0 21.4375 0 25C0 28.5625 2.84762 31.4375 6.37619 31.4375C9.90476 31.4375 12.7524 28.5625 12.7524 25C12.7524 21.4375 9.90476 18.5625 6.37619 18.5625ZM4.51905 28.875C4.51905 28.8125 4.51905 28.8125 4.51905 28.75C4.51905 28.125 4.51905 27.5 4.51905 26.9375C4.51905 26.8125 4.58095 26.75 4.64286 26.75C4.82857 26.6875 5.07619 26.625 5.32381 26.625C5.57143 26.625 5.88095 26.625 6.12857 26.625C6.12857 26.625 6.19048 26.625 6.19048 26.6875C6.19048 26.75 6.19048 26.75 6.12857 26.75C5.88095 26.9375 5.57143 27.1875 5.38571 27.4375C5.2619 27.5625 5.2 27.6875 5.07619 27.875C5.01429 28.0625 5.07619 28.25 5.2 28.3125C5.2619 28.3125 5.2619 28.3125 5.32381 28.3125C5.57143 27.875 5.94286 27.5 6.31429 27.1875L6.37619 27.125C6.4381 27.125 6.37619 27.1875 6.37619 27.1875C6.31429 27.75 6.31429 28.3125 6.5 28.875C6.5 28.875 6.5 28.875 6.5 28.9375H4.51905V28.875ZM6.5619 26.5625C6.62381 26.375 6.62381 26.25 6.62381 26.0625C6.62381 25.6875 6.62381 25.25 6.5619 24.875C6.5619 24.8125 6.5 24.75 6.5 24.75H6.43809C6.06667 24.9375 5.69524 25 5.32381 25C5.1381 25 5.01429 25 4.82857 24.9375C4.58095 24.875 4.27143 24.8125 4.02381 24.75C3.9 24.6875 3.83809 24.5 3.83809 24.5C3.83809 24.5 3.77619 24.3125 3.83809 24.1875C4.14762 24.3125 4.45714 24.375 4.82857 24.4375C4.89048 24.4375 5.01429 24.4375 5.07619 24.4375C5.32381 24.4375 5.57143 24.375 5.81905 24.3125C5.69524 24.1875 5.57143 24.125 5.44762 24C5.13809 23.75 4.82857 23.4375 4.64286 23.125C4.58095 23 4.51905 22.875 4.45714 22.75C4.45714 22.6875 4.45714 22.625 4.51905 22.5625C4.58095 22.5 4.70476 22.375 4.82857 22.25C4.82857 22.3125 4.82857 22.3125 4.89048 22.3125C5.07619 22.75 5.38571 23.125 5.75714 23.4375C5.88095 23.5625 6.00476 23.625 6.06667 23.75L6.12857 23.8125C6.19048 23.8125 6.19048 23.75 6.12857 23.75C6.00476 23.3125 6.06667 22.9375 6.12857 22.5C6.19048 22.3125 6.19048 22.0625 6.25238 21.875C6.25238 21.8125 6.25238 21.8125 6.31429 21.75V21.6875C6.31429 21.625 6.37619 21.625 6.43809 21.625C6.5 21.625 6.5 21.625 6.5619 21.625C6.62381 21.625 6.68571 21.625 6.74762 21.625C6.74762 21.625 6.74762 21.625 6.80952 21.625C6.80952 21.625 6.80952 21.625 6.87143 21.625C6.87143 21.625 6.87143 21.625 6.93333 21.625H6.99524C6.74762 22.25 6.68571 22.9375 6.74762 23.625C6.74762 23.625 6.74762 23.625 6.80952 23.625C6.80952 23.625 6.87143 23.625 6.87143 23.5625C7.05714 23.4375 7.18095 23.25 7.30476 23.125C7.55238 22.875 7.8 22.625 8.04762 22.4375C8.10952 22.375 8.17143 22.375 8.29524 22.3125H8.35714C8.41905 22.3125 8.41905 22.3125 8.48095 22.375C8.60476 22.4375 8.66667 22.5625 8.79048 22.625C8.17143 22.9375 7.73809 23.4375 7.24286 23.9375C7.30476 24 7.30476 24 7.36667 24H7.42857C7.67619 23.9375 7.92381 23.9375 8.17143 23.9375C8.23333 23.9375 8.35714 23.9375 8.41905 23.9375C8.72857 23.9375 9.1 24.0625 9.40952 24.1875C9.47143 24.1875 9.47143 24.25 9.47143 24.3125C9.47143 24.4375 9.47143 24.5625 9.40952 24.75C9.34762 24.75 9.22381 24.6875 9.1619 24.6875C8.85238 24.625 8.54286 24.5625 8.29524 24.5625C8.10952 24.5625 7.98571 24.5625 7.8 24.5625C7.73809 24.5625 7.61428 24.5625 7.55238 24.5625C7.42857 24.5625 7.36667 24.5625 7.24286 24.625C7.18095 24.625 7.11905 24.6875 7.18095 24.75C7.30476 25.125 7.30476 25.5 7.30476 25.9375C7.30476 26.125 7.30476 26.3125 7.24286 26.5C7.24286 26.5 7.24286 26.5 7.24286 26.5625C7.24286 26.6875 7.24286 26.6875 7.05714 26.6875C6.99524 26.6875 6.93333 26.6875 6.87143 26.6875C6.68571 26.5625 6.62381 26.5625 6.5619 26.5625ZM9.22381 28.8125C9.22381 28.875 9.22381 28.9375 9.1 28.9375C8.41905 28.9375 7.8 28.9375 7.11905 28.9375C7.05714 28.9375 6.99524 28.9375 6.93333 28.8125C6.87143 28.625 6.80952 28.375 6.80952 28.1875C6.80952 27.875 6.80952 27.625 6.80952 27.3125V27.25C6.87143 27.25 6.87143 27.25 6.87143 27.3125C7.18095 27.8125 7.61429 28.125 8.10952 28.375C8.17143 28.4375 8.29524 28.4375 8.35714 28.3125C8.41905 28.25 8.48095 28.1875 8.54286 28.125C7.98571 27.9375 7.61428 27.5 7.24286 27.0625C7.24286 27 7.30476 27 7.30476 27C7.8619 27.125 8.48095 27.0625 9.03809 26.875C9.1619 26.8125 9.1619 26.8125 9.1619 26.9375C9.22381 27.5625 9.22381 28.1875 9.22381 28.8125ZM10.1524 24.8125C9.78095 25.25 9.34762 25.5625 8.79048 25.6875C8.48095 25.75 8.17143 25.8125 7.8 25.6875C7.61429 25.625 7.49048 25.5625 7.36667 25.4375C7.36667 25.1875 7.30476 24.9375 7.30476 24.6875H7.36667C7.61428 24.6875 7.8619 24.6875 8.10952 24.6875H8.17143C8.41905 24.6875 8.66667 24.75 8.91428 24.8125L9.1619 24.875C9.22381 24.875 9.34762 24.875 9.40952 24.875C9.47143 24.8125 9.53333 24.75 9.53333 24.6875C9.53333 24.5 9.59524 24.375 9.59524 24.25C9.59524 24.0625 9.53333 23.9375 9.34762 23.875C8.97619 23.75 8.66667 23.625 8.29524 23.625C8.10952 23.625 7.98571 23.625 7.8 23.625C8.10952 23.3125 8.35714 23.0625 8.72857 22.9375C8.85238 22.875 8.91428 22.8125 8.91428 22.6875C8.91428 22.5625 8.85238 22.5 8.79048 22.4375C8.72857 22.375 8.66667 22.375 8.66667 22.3125C8.60476 22.25 8.60476 22.25 8.54286 22.1875C8.41905 22.0625 8.23333 22.0625 8.04762 22.125C7.98571 22.125 7.8619 22.1875 7.8 22.25C7.49048 22.4375 7.24286 22.6875 6.99524 23L6.93333 23.0625C6.93333 22.625 7.05714 22.1875 7.18095 21.75C7.24286 21.6875 7.18095 21.5625 7.18095 21.5C7.11905 21.4375 7.05714 21.375 6.99524 21.375C6.93333 21.375 6.87143 21.375 6.80952 21.375H6.5H6.43809C6.31429 21.375 6.19048 21.4375 6.12857 21.5625C6.12857 21.625 6.06667 21.625 6.06667 21.6875C6.06667 21.75 6.06667 21.75 6.00476 21.8125L5.94286 21.9375C5.88095 22.125 5.88095 22.3125 5.81905 22.5V22.5625C5.75714 22.75 5.75714 23 5.75714 23.25C5.50952 23 5.2619 22.6875 5.13809 22.3125C5.13809 22.3125 5.13809 22.25 5.07619 22.25C5.01429 22.1875 4.95238 22.125 4.89048 22.125C4.82857 22.125 4.70476 22.125 4.64286 22.1875L4.33333 22.4375C4.20952 22.5625 4.14762 22.75 4.20952 22.9375C4.27143 23.125 4.33333 23.25 4.45714 23.375C4.64286 23.6875 4.95238 23.9375 5.2 24.1875C5.07619 24.1875 4.95238 24.1875 4.82857 24.1875C4.58095 24.1875 4.27143 24.0625 3.9619 23.9375C3.9 23.9375 3.83809 23.9375 3.71429 23.9375C3.65238 24 3.59048 24.0625 3.59048 24.125C3.52857 24.25 3.59048 24.4375 3.59048 24.5625C3.59048 24.75 3.71429 24.9375 3.9 25.0625C4.14762 25.1875 4.45714 25.25 4.76667 25.25C5.2 25.3125 5.57143 25.3125 5.94286 25.25C5.69524 25.375 5.50952 25.5 5.2 25.5C4.76667 25.5625 4.33333 25.5 3.9619 25.3125C3.59048 25.125 3.21905 24.875 3.03333 24.5C2.6619 23.875 2.6 23.1875 2.90952 22.5C3.09524 22.0625 3.34286 21.75 3.77619 21.5C3.9619 21.375 4.14762 21.3125 4.33333 21.25C4.64286 21.1875 4.89048 21.0625 5.13809 20.875C5.63333 20.5 6.19048 20.4375 6.74762 20.625C7.11905 20.75 7.49048 20.9375 7.8 21.25C7.92381 21.375 7.98571 21.5 8.04762 21.625C8.10952 21.75 8.17143 21.8125 8.35714 21.8125C8.60476 21.75 8.91429 21.8125 9.1619 21.875C9.65714 22 9.96667 22.3125 10.2143 22.75C10.4 23.0625 10.5238 23.4375 10.5857 23.8125C10.5238 24.1875 10.4 24.5 10.1524 24.8125Z" fill="#E6E8EC"/>
<path d="M21.1699 24.9375H20.3033V30.4375H21.3557V30.75H16.0938V30.4375H17.1461V19.5625H16.0938V19.25H20.9842C22.408 19.25 23.3985 19.3125 23.9557 19.5C24.5747 19.625 24.9461 19.8125 25.1938 20.0625C25.689 20.5 25.9985 21.1875 25.9985 22.125C25.9985 23.0625 25.7509 23.6875 25.3176 24.125C24.8842 24.5 24.1414 24.75 23.2128 24.8125V24.875C24.0795 25 24.6985 25.25 25.0699 25.6875C25.4414 26.0625 25.5652 26.75 25.5652 27.75V28.625C25.5652 29.1875 25.5652 29.5625 25.6271 29.75C25.689 29.9375 25.8128 30.0625 25.9985 30.0625C26.1842 30.0625 26.3699 30 26.4318 29.8125C26.5557 29.625 26.6795 29.25 26.7414 28.6875L26.989 28.75C26.8652 29.6875 26.6795 30.3125 26.3699 30.625C26.0604 30.9375 25.5033 31.125 24.5747 31.125C23.708 31.125 23.0271 30.9375 22.6557 30.5C22.2842 30.0625 22.0985 29.3125 22.0985 28.125V26.9375C22.0985 26.3125 22.0366 25.875 21.8509 25.5625C21.9128 25.0625 21.6033 24.9375 21.1699 24.9375ZM20.3033 19.5625V24.625H20.7985C21.4176 24.625 21.8509 24.4375 22.1604 24.0625C22.4699 23.6875 22.5937 23.0625 22.5937 22.1875V21.6875C22.5937 20.8125 22.4699 20.25 22.1604 20C21.8509 19.75 21.4176 19.5625 20.7985 19.5625H20.3033Z" fill="#FCFCFD"/>
<path d="M35.0349 30.4375L33.7968 26.875H30.5778L29.3397 30.4375H30.5778V30.75H28.1016V30.4375H28.8444L32.992 19.1875H34.3539L38.4397 30.4375H39.1825V30.75H33.8587V30.4375H35.0349ZM32.3111 22.25L30.7635 26.5625H33.673L32.3111 22.25Z" fill="#FCFCFD"/>
<path d="M40.3594 19.25H45.3118V19.5625H44.4451V30.4375H45.3118V30.75H40.3594V30.4375H41.226V19.5625H40.3594V19.25Z" fill="#FCFCFD"/>
<path d="M52.8659 19.4375C51.1945 19.4375 50.3278 21.0625 50.3278 24.3125V25.625C50.3278 27.1875 50.5754 28.375 51.0088 29.25C51.4421 30.125 52.1231 30.5625 52.9897 30.5625C54.1659 30.5625 55.2802 29.375 56.2707 27.0625H56.5802L56.4564 30.6875H56.2707C56.2088 30.5625 56.1469 30.5 56.085 30.4375C56.0231 30.375 55.9612 30.375 55.8373 30.375C55.7135 30.375 55.3421 30.4375 54.6612 30.625C53.9802 30.8125 53.2993 30.875 52.5564 30.875C50.8231 30.875 49.3993 30.375 48.4707 29.4375C47.4802 28.5 47.0469 27 47.0469 25.125C47.0469 23.25 47.5421 21.6875 48.5945 20.6875C49.585 19.625 50.9469 19.125 52.6802 19.125C53.3612 19.125 53.9802 19.1875 54.5993 19.375C55.2183 19.5625 55.5897 19.625 55.7135 19.625C55.8374 19.625 55.8993 19.625 55.9612 19.5625C56.0231 19.5 56.085 19.4375 56.1469 19.3125H56.3326L56.4564 22.875H56.1469C55.6516 21.75 55.1564 20.9375 54.6612 20.3125C54.1659 19.6875 53.5469 19.4375 52.8659 19.4375Z" fill="#FCFCFD"/>
<path d="M58.625 19.25H67.0441L67.2298 22.5H66.9202C66.4869 21.375 65.9917 20.625 65.4964 20.25C65.0012 19.8125 64.2583 19.625 63.3298 19.625H62.7726V24.6875H63.3298C63.825 24.6875 64.2583 24.5 64.6298 24.125C65.0012 23.75 65.2488 23.1875 65.3726 22.5625H65.6202V27.4375H65.3726C65.1869 26.625 64.9393 26.0625 64.5679 25.6875C64.2583 25.3125 63.7631 25.1875 63.206 25.1875H62.8345V30.4375H63.4536C64.444 30.4375 65.3107 30.125 65.9917 29.5625C66.6726 28.9375 67.1679 28.1875 67.4155 27.25H67.725L67.6012 30.8125H58.625V30.4375H59.5536V19.625H58.625V19.25Z" fill="#FCFCFD"/>
<path d="M74.2234 30.5625C74.7805 30.5625 75.2138 30.4375 75.6472 30.125C76.0805 29.8125 76.2662 29.375 76.2662 28.8125C76.2662 28.25 76.0186 27.75 75.5853 27.4375C75.1519 27.125 74.471 26.875 73.6662 26.625C72.8615 26.375 72.2424 26.1875 71.871 26C71.4996 25.8125 71.1281 25.625 70.8186 25.3125C70.1376 24.75 69.8281 23.875 69.8281 22.6875C69.8281 21.6875 70.1996 20.875 70.8805 20.1875C71.5615 19.5 72.49 19.125 73.6662 19.125C74.2234 19.125 74.8424 19.1875 75.4615 19.375C76.0805 19.5625 76.4519 19.625 76.6376 19.625C76.7615 19.625 76.9472 19.5 77.071 19.3125H77.2567L77.3805 22.625H77.1329C76.6376 21.6875 76.0805 20.9375 75.5234 20.3125C74.9662 19.75 74.3472 19.4375 73.6662 19.4375C72.9853 19.4375 72.49 19.5625 72.1186 19.875C71.7472 20.1875 71.5615 20.625 71.5615 21.125C71.5615 21.625 71.8091 22.0625 72.2424 22.3125C72.6757 22.5625 73.2329 22.8125 73.8519 23C74.471 23.1875 74.9043 23.3125 75.09 23.375C75.2757 23.4375 75.5234 23.5 75.8329 23.625C76.1424 23.75 76.39 23.875 76.5757 24C76.7615 24.125 76.9472 24.3125 77.1948 24.5C77.3805 24.6875 77.5662 24.875 77.69 25.125C77.9996 25.625 78.1234 26.25 78.1234 27C78.1234 28.1875 77.7519 29.125 77.0091 29.875C76.2662 30.5625 75.3376 30.9375 74.0995 30.9375C73.4805 30.9375 72.7996 30.875 71.9948 30.6875C71.19 30.5 70.7567 30.4375 70.6948 30.4375C70.571 30.4375 70.3853 30.625 70.2615 30.9375H70.0138L69.8281 27.0625H70.0757C70.571 28 71.19 28.8125 71.9329 29.5625C72.6138 30.1875 73.3567 30.5625 74.2234 30.5625Z" fill="#FCFCFD"/>
</g>
<defs>
<clipPath id="clip0_14912_30691">
<rect width="78" height="50" fill="white"/>
</clipPath>
</defs>
</svg>
