<svg width="78" height="50" viewBox="0 0 78 50" fill="none" xmlns="http://www.w3.org/2000/svg">
<path d="M17.64 40.6249C17.64 40.4374 17.7019 40.2499 17.7019 40.0624C17.7638 39.5624 17.7638 38.9999 17.8257 38.4999C17.8257 38.4374 17.8257 38.4374 17.8876 38.3749C18.0115 38.4374 18.1353 38.4999 18.2591 38.4999C19.3115 38.9374 20.3638 39.1249 21.4781 38.9999C21.7876 38.9374 22.0972 38.8749 22.3448 38.7499C22.9019 38.4999 23.0257 37.9374 22.5924 37.4999C22.2829 37.1874 21.9734 36.8749 21.6638 36.6249C21.1067 36.1249 20.5496 35.6874 20.0543 35.1874C19.1877 34.2499 19.1876 32.9999 19.9305 31.9999C20.1781 31.6874 20.4876 31.3749 20.7972 31.1249C21.54 30.5624 22.3448 30.3124 23.2734 30.1874C24.5734 29.9999 25.8734 30.1249 27.1734 30.2499C27.421 30.2499 27.6686 30.3124 27.8543 30.3749H27.9162C27.8543 31.1874 27.7924 32.0624 27.7305 32.9374C27.2353 32.8124 26.8019 32.6874 26.3067 32.5624C25.5638 32.4374 24.8829 32.3749 24.14 32.5624C23.8924 32.6249 23.7067 32.6874 23.521 32.8124C23.1496 33.0624 23.0257 33.4374 23.2734 33.8124C23.3972 34.0624 23.5829 34.2499 23.7686 34.4374C24.3257 34.8749 24.8829 35.3124 25.44 35.7499C25.8115 36.0624 26.1829 36.4374 26.3686 36.9374C26.74 37.6874 26.6162 38.4374 26.2448 39.1249C25.7496 40.0624 24.9448 40.6249 24.0162 40.9374C22.84 41.3749 21.54 41.4999 20.3019 41.3749C19.4353 41.3124 18.6305 41.1874 17.7638 41.0624C17.7019 41.0624 17.64 41.0624 17.5781 41.0624C17.64 40.8749 17.64 40.7499 17.64 40.6249Z" fill="#FCFCFD"/>
<path d="M57.3799 15.5625C56.7608 17.375 56.2037 19.125 55.5847 20.8125C55.5847 20.8125 55.6466 20.8125 55.6466 20.875C56.6989 19.375 57.6894 17.875 58.7418 16.375H58.8037C58.8656 18.75 58.8656 21.1875 58.9275 23.5625C58.9275 23.5625 58.9275 23.5625 58.9894 23.5625C59.4228 21.25 59.918 19 60.3513 16.6875C60.3513 20.625 60.3513 24.5625 60.3513 28.5C59.7942 28.4375 59.237 28.3125 58.7418 28.25C56.1418 27.75 53.5418 27.3125 51.0037 26.8125C47.3513 26.0625 43.6989 25.1875 40.1704 24C38.6847 23.5 37.2609 22.9375 35.8989 22.125C35.4656 21.875 35.0942 21.5625 34.7228 21.1875C34.3513 20.875 34.1037 20.4375 34.2275 19.875C34.2894 19.5 34.537 19.1875 34.8466 18.9375C35.4656 18.4375 36.1466 18.0625 36.8894 17.8125C38.4989 17.1875 40.1085 16.8125 41.7799 16.4375C44.6894 15.8125 47.6609 15.375 50.6323 15C52.6132 14.75 54.6561 14.5625 56.637 14.3125C56.6989 14.3125 56.7609 14.3125 56.8228 14.375C54.2228 15.9375 51.6228 17.5625 48.9609 19.125V19.1875C51.6847 17.9375 54.5323 16.75 57.3799 15.5625Z" fill="#FCFCFD"/>
<path d="M56.5155 13.5625C55.6488 13.625 54.7202 13.625 53.8536 13.6875C51.4393 13.8125 49.0869 13.9375 46.6726 14.0625C44.9393 14.1875 43.2679 14.25 41.5345 14.4375C39.5536 14.625 37.5726 14.75 35.5917 15C33.5488 15.25 31.506 15.5 29.4631 15.875C26.8012 16.3125 24.1393 16.875 21.5393 17.8125C20.7964 18.0625 20.0536 18.4375 19.3107 18.8125C19.2488 18.8125 19.1869 18.875 19.125 18.875C19.125 15.5 19.125 12.125 19.125 8.75C19.2488 8.75 19.3107 8.75 19.4345 8.75C30.7631 8.75 42.0917 8.75 53.4202 8.75C53.6059 8.75 53.7298 8.8125 53.8536 8.9375C54.7202 9.8125 55.525 10.6875 56.3917 11.5625C56.5774 11.75 56.825 12 57.0107 12.25C53.4202 11.625 49.8917 11 46.3012 10.375C46.3012 10.375 46.3012 10.375 46.3012 10.4375C49.706 11.5 53.1107 12.625 56.5155 13.6875C56.5155 13.5625 56.5155 13.5625 56.5155 13.5625Z" fill="#FCFCFD"/>
<path d="M48.0364 30.0625C49.3364 30.0625 50.5745 30.0625 51.8745 30.0625C51.8745 30.125 51.8745 30.25 51.8126 30.3125C51.3173 32.3125 50.8221 34.3125 50.3269 36.25C50.2031 36.6875 50.2031 37.0625 50.2031 37.5C50.2031 37.9375 50.4507 38.3125 50.884 38.5C51.7507 38.875 53.1745 38.6875 53.8554 38C54.3507 37.5625 54.5983 36.9375 54.7221 36.3125C55.2173 34.25 55.7126 32.1875 56.2697 30.125C56.3316 30.0625 56.3316 30 56.5173 30C57.6935 30 58.8697 30 60.0459 30C60.1078 30 60.1697 30 60.2316 30C60.1078 30.4375 59.984 30.875 59.9221 31.375C59.4269 33.375 58.9316 35.3125 58.4364 37.3125C58.065 38.875 57.0745 39.875 55.6507 40.4375C54.4126 40.9375 53.0507 41.125 51.6888 41.1875C50.6364 41.1875 49.584 41.1875 48.5316 40.875C48.0983 40.75 47.665 40.5625 47.2935 40.375C46.365 39.875 45.9935 38.9375 46.1792 37.9375C46.365 36.9375 46.6126 36 46.8602 35.0625C47.2316 33.5 47.6031 31.9375 48.0364 30.375C47.9745 30.1875 47.9745 30.125 48.0364 30.0625Z" fill="#FCFCFD"/>
<path d="M37.6319 38.625C37.5081 39.1875 37.3843 39.6875 37.2605 40.25C37.1986 40.375 37.1986 40.5 37.1367 40.625C37.0748 40.9375 37.0748 40.9375 36.7033 40.9375C34.7843 40.9375 32.8653 40.9375 30.9462 41C30.0176 41 29.0272 41 28.0986 41.0625C28.0367 41.0625 27.9129 41.0625 27.7891 41.0625C28.7176 37.4375 29.5843 33.75 30.451 30.125C33.5462 30.125 36.5795 30.0625 39.6748 30.0625C39.6129 30.25 39.6129 30.375 39.551 30.5625C39.4272 31.125 39.3033 31.6875 39.1795 32.25C39.1176 32.4375 39.0557 32.4375 38.9319 32.4375C37.3843 32.4375 35.8367 32.4375 34.2891 32.4375C33.9176 32.4375 33.6081 32.4375 33.2367 32.4375C33.1748 32.4375 33.051 32.5 33.051 32.5625C32.8653 33.125 32.7414 33.75 32.6176 34.375C34.2891 34.375 36.0224 34.375 37.6938 34.375C37.6938 34.4375 37.6938 34.5 37.6938 34.5C37.5081 35.1875 37.3843 35.8125 37.1986 36.5C37.1367 36.6875 37.0748 36.6875 36.951 36.6875C35.4033 36.6875 33.8557 36.6875 32.2462 36.6875C32.0605 36.6875 31.9986 36.75 31.9367 36.875C31.8129 37.375 31.6891 37.9375 31.5653 38.4375C31.5653 38.5 31.5653 38.5625 31.5033 38.625C33.6081 38.625 35.5891 38.625 37.6319 38.625Z" fill="#FCFCFD"/>
<path d="M19.125 24.25C19.3107 24.3125 19.4345 24.375 19.6202 24.4375C21.2917 25.0625 22.9631 25.5 24.6964 25.8125C27.2345 26.3125 29.7726 26.6875 32.3726 27C34.8488 27.25 37.325 27.5625 39.8012 27.75C41.844 27.9375 43.9488 28.125 45.9917 28.25C46.3012 28.25 46.6107 28.3125 46.9202 28.375C46.8583 28.375 46.7964 28.375 46.7345 28.375C37.6345 28.375 28.5345 28.375 19.4964 28.375C19.125 28.375 19.1869 28.4375 19.1869 28.0625C19.1869 26.875 19.1869 25.6875 19.1869 24.5C19.125 24.5 19.125 24.375 19.125 24.25Z" fill="#FCFCFD"/>
<path d="M45.4994 30.125C45.4375 30.5 45.3137 30.8125 45.2518 31.0625C44.447 34.3125 43.6423 37.5625 42.8375 40.75C42.7756 40.9375 42.7137 41 42.528 41C41.4137 41 40.2994 41 39.1851 41C39.1232 41 38.9994 41 38.9375 41C38.9375 40.875 38.9994 40.75 38.9994 40.625C39.8661 37.1875 40.6708 33.75 41.5375 30.3125C41.5994 30.125 41.6613 30.0625 41.847 30.0625C42.9613 30.0625 44.0137 30.0625 45.128 30.0625C45.3137 30.125 45.3756 30.125 45.4994 30.125Z" fill="#FCFCFD"/>
<path d="M54.7812 8.6875C55.8955 8.6875 56.9479 8.6875 58.0003 8.6875C58.0622 9.5625 58.0622 10.375 58.1241 11.3125C57.0098 10.375 55.8955 9.5625 54.7812 8.6875Z" fill="#FCFCFD"/>
<path d="M58.8047 8.6875C59.2999 8.6875 59.7952 8.6875 60.3523 8.6875C60.0428 9.5 59.7952 10.375 59.5475 11.1875C59.5475 11.1875 59.5475 11.1875 59.4856 11.1875C59.238 10.3125 59.0523 9.5 58.8047 8.6875Z" fill="#FCFCFD"/>
</svg>
