<svg width="78" height="50" viewBox="0 0 78 50" fill="none" xmlns="http://www.w3.org/2000/svg">
<g clip-path="url(#clip0_14912_30763)">
<path d="M29.2802 20.9375C29.2802 21.1875 29.3421 21.375 29.6517 21.375H30.6421C31.3231 21.375 31.5088 21.3125 31.7564 21.1875L31.385 22.1875H28.2278C27.2993 22.1875 27.1136 21.6875 27.2374 20.9375C27.3612 20.3125 27.4231 20.0625 27.6088 19.375C27.8564 18.5625 28.2898 18.125 29.2183 18.125H32.3755L32.3136 19.125C32.1898 19 31.8802 18.9375 31.385 18.9375H30.2088C29.8993 18.9375 29.7755 19.0625 29.6517 19.375C29.5279 19.6875 29.3421 20.5 29.2802 20.9375Z" fill="#FCFCFD"/>
<path d="M17.5189 21.375H18.1379C18.4475 21.375 18.5713 21.25 18.6951 20.9375C18.8808 20.5625 19.0665 19.75 19.1284 19.3125C19.1284 19.0625 19.0665 18.875 18.757 18.875H18.4475H18.3237H18.1379C17.9522 18.875 17.8284 18.9375 17.7665 19.1875L17.3332 21.0625C17.2713 21.25 17.3332 21.375 17.5189 21.375ZM17.8284 18.0625V18.5C18.076 18.1875 18.1999 18.0625 18.4475 18.0625H20.1808C21.1094 18.0625 21.357 18.5625 21.1713 19.3125L20.7998 20.875C20.6141 21.625 20.1189 22.125 19.1903 22.125H17.5808C17.2094 22.125 17.1475 21.875 17.1475 21.75L16.8379 22.9375C16.7141 23.375 16.776 23.5625 16.8379 23.6875H14.6094L15.7856 18.8125C15.9094 18.375 15.8475 18.1875 15.7856 18.0625H17.8284Z" fill="#FCFCFD"/>
<path d="M25.1924 19.1875L25.0686 19.75H23.5829C23.6448 19.5625 23.7067 19.375 23.7686 19.25C23.8924 18.9375 24.0162 18.8125 24.3257 18.8125H25.0067C25.1924 18.875 25.2543 18.9375 25.1924 19.1875ZM26.3067 18.0625H23.2734H23.2115C22.3448 18.0625 21.9115 18.5625 21.6638 19.3125C21.4781 20 21.4162 20.25 21.2924 20.875C21.1686 21.625 21.3543 22.125 22.221 22.125H22.2829H25.44H26.2448L26.6162 21.125C26.2448 21.25 26.0591 21.3125 25.6258 21.3125H24.6353H23.6448C23.5829 21.3125 23.521 21.3125 23.4591 21.3125C23.2734 21.25 23.2115 21.125 23.2734 20.9375C23.2734 20.8125 23.3353 20.6875 23.3353 20.5625H26.8019L27.1115 19.3125C27.3591 18.4375 27.2353 18.0625 26.3067 18.0625Z" fill="#FCFCFD"/>
<path d="M35.653 16.5625L35.4054 17.625H33.4244L33.672 16.5625H35.653ZM33.053 19C33.1768 18.4375 33.1149 18.25 33.053 18.0625H35.3435L34.5387 21.1875C34.4149 21.75 34.4768 21.9375 34.5387 22.125H32.0625C32.2482 21.9375 32.372 21.75 32.4958 21.1875L33.053 19Z" fill="#FCFCFD"/>
<path d="M38.8761 20.1875H38.0094C37.6999 20.1875 37.5761 20.1875 37.4523 20.5C37.4523 20.5 37.3904 20.6875 37.3285 20.9375C37.3285 21.1875 37.3904 21.3125 37.6999 21.3125H38.1952C38.5047 21.3125 38.6285 21.25 38.7523 20.75L38.8761 20.1875H38.938C38.938 20.1875 38.938 20.1875 38.8761 20.1875ZM40.1142 18.0625C40.9809 18.0625 41.3523 18.4375 41.1047 19.625L40.6714 21.4375C40.5475 21.875 40.6094 22.0625 40.6714 22.1875H38.6285V21.6875V21.75C38.4428 22.125 38.2571 22.1875 37.6999 22.1875H36.2761C35.3475 22.1875 35.2237 21.8125 35.4094 20.9375L35.4714 20.6875C35.719 19.8125 36.0904 19.375 36.9571 19.375H38.8142C39.1237 19.375 39.1856 19.3125 39.2475 19.125C39.3094 18.9375 39.1237 18.875 38.938 18.875H36.8952C36.5237 18.875 36.338 18.9375 36.0285 19.0625L36.3999 18.0625H40.1142Z" fill="#FCFCFD"/>
<path d="M42.526 17.5C42.6498 16.9375 42.5879 16.75 42.526 16.5625H44.8164L43.6403 21.25C43.5164 21.8125 43.5783 22 43.6403 22.1875H41.1641C41.3498 22 41.4736 21.8125 41.5974 21.25L42.526 17.5Z" fill="#FCFCFD"/>
<path d="M9.16347 21.0625C9.22537 21.1875 9.41109 21.25 9.96823 21.25C10.5254 21.3125 11.5158 21.3125 11.8873 21.25C12.3206 21.1875 12.5063 21.125 12.5682 20.9375C12.6301 20.8125 12.6301 20.75 12.6301 20.625C12.692 20.4375 12.5682 20.25 12.2587 20.25C12.2587 20.25 11.9492 20.25 10.8349 20.25C9.78251 20.25 9.34918 19.875 9.47299 19C9.5349 18.75 9.5968 18.4375 9.72061 17.875C10.0301 16.9375 10.5873 16.5 11.5778 16.5H15.3539L15.292 17.625C15.1682 17.5 14.9825 17.375 14.6111 17.375H12.3825C12.073 17.375 11.8873 17.5 11.8254 17.6875C11.8254 17.9375 11.7635 18 11.7635 18.125C11.7635 18.3125 11.8873 18.4375 12.1968 18.4375H13.6825C14.9825 18.4375 14.9825 19.3125 14.9825 19.625C14.9206 19.9375 14.8587 20.3125 14.7349 20.875C14.4254 21.8125 13.6825 22.1875 12.9397 22.1875H9.10156L9.16347 21.0625Z" fill="#FCFCFD"/>
<path d="M29.717 26.9375C30.6456 26.9375 30.8313 27.4375 30.7075 28.1875C30.5837 28.8125 30.5218 29.0625 30.3361 29.75C30.0885 30.5625 29.6551 31 28.7266 31" fill="#FCFCFD"/>
<path d="M35.8427 29.875C35.8427 30.125 35.9046 30.3125 36.2142 30.3125H37.2046C37.8856 30.3125 38.0713 30.25 38.3189 30.125L37.9475 31.125H34.7904C33.8618 31.125 33.6761 30.625 33.7999 29.875C33.9237 29.25 33.9856 29 34.1713 28.3125C34.4189 27.5 34.8523 27.0625 35.7808 27.0625H38.9999L38.938 28.0625C38.8142 27.9375 38.5046 27.875 38.0094 27.875H36.8332C36.5237 27.875 36.3999 28 36.2761 28.3125C36.0904 28.5625 35.9046 29.375 35.8427 29.875Z" fill="#FCFCFD"/>
<path d="M27.0501 30.25H27.6692C27.9787 30.25 28.1025 30.125 28.2263 29.8125C28.4121 29.4375 28.5978 28.625 28.6597 28.1875C28.6597 27.9375 28.5978 27.75 28.2882 27.75H27.9787H27.8549H27.6692C27.4835 27.75 27.3597 27.8125 27.2978 28.0625L26.8644 29.9375C26.7406 30.1875 26.8025 30.25 27.0501 30.25ZM27.3597 27V27.4375C27.6073 27.125 27.7311 27 27.9787 27H29.7121C30.6406 27 30.8882 27.5 30.7025 28.25L30.3311 29.8125C30.1454 30.5625 29.6501 31.0625 28.7216 31.0625H27.1121C26.7406 31.0625 26.6787 30.8125 26.6787 30.6875L26.3692 31.875C26.2454 32.3125 26.3073 32.5 26.3692 32.625H24.1406L25.3168 27.75C25.4406 27.3125 25.3787 27.125 25.3168 27H27.3597Z" fill="#FCFCFD"/>
<path d="M7.925 26.4375C8.04881 25.875 7.98691 25.6875 7.925 25.5H10.2155L9.10119 30.125C8.97738 30.6875 9.03929 30.875 9.10119 31.0625H6.625C6.81071 30.875 6.93452 30.6875 7.05833 30.125L7.925 26.4375Z" fill="#FCFCFD"/>
<path d="M11.0789 31.0625C10.0884 31.0625 9.90268 30.5 10.0884 29.5625L10.5217 27.9375C10.6455 27.375 10.5836 27.1875 10.5217 27H12.8122L12.0693 29.9375C12.0074 30.125 12.0693 30.3125 12.317 30.3125H12.9979C13.1836 30.3125 13.2455 30.1875 13.3074 29.9375L13.8646 27.75C13.9884 27.25 13.9884 27.1875 13.8646 27H16.0932L14.9789 31.5C14.7932 32.25 14.2979 32.6875 13.5551 32.6875H9.53125L9.59315 31.6875C9.77887 31.8125 9.96458 31.875 10.3979 31.875H12.3789C12.7503 31.875 12.8741 31.6875 12.936 31.5L13.1217 30.75C12.936 31 12.7503 31.125 12.3789 31.125H11.0789V31.0625Z" fill="#FCFCFD"/>
<path d="M18.6283 27L18.5664 27.4375C18.6902 27.25 18.8759 26.9375 19.2473 26.9375H21.0426C21.5378 26.9375 21.5997 27.125 21.6616 27.375C21.7235 27.1875 21.9092 26.9375 22.2188 26.9375H23.6426C24.3235 26.9375 24.8187 27.125 24.5092 28.5625L24.1378 30.125C24.014 30.6875 24.0759 30.875 24.1378 31.0625H21.8473C22.033 30.875 22.1568 30.6875 22.2807 30.125L22.7759 28.0625C22.8378 27.8125 22.714 27.75 22.5902 27.75H21.9092C21.7235 27.75 21.6616 27.8125 21.5997 28.0625L21.0426 30.125C20.9187 30.6875 20.9807 30.875 21.0426 31.0625H18.7521C18.9378 30.875 19.0616 30.6875 19.1854 30.125L19.6807 28.0625C19.7426 27.9375 19.6187 27.75 19.4949 27.75H18.814C18.6283 27.75 18.5664 27.8125 18.5045 28.0625L18.0092 30.125C17.8854 30.6875 17.9473 30.875 18.0092 31.0625H15.7188C15.9045 30.875 16.0283 30.6875 16.1521 30.125L16.7092 27.9375C16.833 27.375 16.7711 27.1875 16.7092 27H18.6283Z" fill="#FCFCFD"/>
<path d="M34.1686 25.5L33.921 26.5625H31.94L32.1876 25.5H34.1686ZM31.5686 27.9375C31.6924 27.375 31.6305 27.1875 31.5686 27H33.8591L33.0543 30.125C32.9305 30.6875 32.9924 30.875 33.0543 31.0625H30.5781C30.7638 30.875 30.8876 30.6875 31.0115 30.125L31.5686 27.9375Z" fill="#FCFCFD"/>
<path d="M43.2071 28.25C44.1357 28.25 44.3833 28.8125 44.2595 29.3125L44.0738 29.9375C43.95 30.4375 43.5167 31 42.5881 31H38.75L38.8119 30C39.1214 30.1875 39.3071 30.25 40.05 30.25H41.7833C41.969 30.25 42.0929 30.1875 42.0929 30V29.9375C42.1548 29.75 42.0929 29.625 41.8452 29.625H40.2357C39.3071 29.625 39.0595 29.0625 39.1833 28.5625L39.369 27.875C39.5548 27.25 40.1738 26.8125 40.9167 26.8125H44.4452L44.569 28C44.4452 27.8125 43.8881 27.75 43.3929 27.75H41.7833C41.5976 27.75 41.4738 27.8125 41.4738 27.875L41.4119 28.0625C41.4119 28.1875 41.4119 28.3125 41.5976 28.3125H43.2071V28.25Z" fill="#FCFCFD"/>
<path d="M4.76504 26.8125C4.82694 26.625 4.70313 26.375 4.45552 26.375C4.14599 26.375 3.83647 26.375 3.52694 26.375C3.34123 26.375 3.15552 26.4375 3.03171 26.75C2.9079 27.125 2.41266 29.0625 2.28885 29.6875C2.22694 29.875 2.35075 30.125 2.59837 30.125C2.9079 30.125 3.15552 30.125 3.52694 30.125C3.71266 30.125 3.96028 29.9375 4.02218 29.75C4.2079 29.25 4.76504 27.0625 4.76504 26.8125ZM0.679325 27.125C1.11266 25.8125 1.42218 25.5 2.47456 25.5C3.52694 25.4375 5.07456 25.4375 6.00313 25.5C6.8698 25.5625 7.24123 26 6.99361 27.125C6.74599 28.25 6.74599 28.3125 6.43647 29.4375C6.06504 30.6875 5.69361 31.0625 4.64123 31.0625C3.65075 31.0625 2.16504 31.0625 1.11266 31.0625C0.245992 31.0625 -0.125437 30.5625 0.122182 29.4375C0.369801 28.1875 0.431706 27.9375 0.679325 27.125Z" fill="#FCFCFD"/>
<path d="M52.1202 21.3746C52.6155 21.6246 53.2964 21.1246 53.6679 20.3746C53.9774 19.6246 53.8536 18.8121 53.3583 18.5621C52.8631 18.3121 52.1821 18.8121 51.8107 19.5621C51.5631 20.1246 51.5631 20.6871 51.8107 21.0621C51.8107 21.1871 51.9345 21.3121 52.1202 21.3746Z" fill="#E6E8EC"/>
<path d="M58.1239 13.0625C58.6191 13.0625 59.0525 12.625 59.0525 12.125C59.0525 11.625 58.6191 11.1875 58.1239 11.1875C57.6286 11.1875 57.1953 11.625 57.1953 12.125C57.1953 12.625 57.6286 13.0625 58.1239 13.0625Z" fill="#E6E8EC"/>
<path d="M58.2523 15.3125C58.1285 16.5625 58.0047 19.0625 58.2523 20.75L59.0571 20.5C58.9333 18.5625 58.9333 16.5625 59.119 14.9375C60.6047 15.4375 61.5952 15.9375 62.3381 16.3125C62.5238 16.125 62.7095 15.875 62.8333 15.6875C62.0285 15.1875 59.6762 14.25 59.6142 14.1875C60.1714 14.0625 62.0285 13.6875 63.8238 13.6875V13.0625C62.0904 13 59.7381 13.5625 59.4904 13.625C60.6666 12.75 61.7809 12.25 62.8333 11.75C62.7714 11.6875 62.4 11.4375 62.4 11.4375C60.2333 12.3125 58.6238 13.6875 58.6238 13.6875C58.3142 13.875 58.3761 14.0625 58.2523 15.3125Z" fill="#E6E8EC"/>
<path d="M53.1154 17.5C54.7868 15.9375 56.5202 15.25 56.5202 15.25C55.1583 16.5 54.3535 17.5625 53.8583 18.375C53.9821 18.5 54.044 18.6875 54.1059 18.8125C55.6535 16.8125 55.7154 16.6875 56.8297 15.6875C56.8297 15.6875 56.4583 17.875 56.7678 21.25C56.7678 21.25 57.4487 21 57.5106 21C57.4487 19.1875 57.2011 17.0625 57.6964 14.6875C57.8202 14 57.5725 13.9375 55.2821 13.5625C55.1583 13.75 55.0345 13.8125 54.663 14.125L56.644 14.5C54.3535 15.4375 52.9297 17.0625 52.9297 17.0625L53.1154 17.5Z" fill="#E6E8EC"/>
<path d="M70.5048 13.0625C71 13.0625 71.4334 12.625 71.4334 12.125C71.4334 11.625 71 11.1875 70.5048 11.1875C70.0095 11.1875 69.5762 11.625 69.5762 12.125C69.5143 12.625 69.9476 13.0625 70.5048 13.0625Z" fill="#E6E8EC"/>
<path d="M64.7494 13.6875C66.6065 13.75 68.4637 14.0625 68.9589 14.1875C68.9589 14.1875 66.6065 15.125 65.7399 15.6875C65.9256 15.875 66.0494 16.125 66.2351 16.3125C67.0399 15.9375 68.0304 15.5 69.4542 14.9375C69.6399 16.5625 69.6399 18.5625 69.5161 20.5L70.3208 20.75C70.5065 19 70.4446 16.5 70.3208 15.3125C70.197 14.0625 70.197 13.9375 69.8875 13.625C69.8875 13.625 68.278 12.25 66.1113 11.375C66.1113 11.375 65.8018 11.6875 65.678 11.6875C66.6685 12.1875 67.8446 12.6875 69.0208 13.5625C68.7732 13.5 66.4208 12.9375 64.6875 13C64.8113 13.0625 64.7494 13.6875 64.7494 13.6875Z" fill="#E6E8EC"/>
<path d="M70.9398 14.6875C71.4351 17 71.1875 19.125 71.1256 21L71.8684 21.25C72.1779 17.875 71.8065 15.6875 71.8065 15.6875C72.9208 16.75 72.9827 16.8125 74.5303 18.8125C74.6541 18.6875 74.716 18.5625 74.7779 18.375C74.2208 17.5625 73.416 16.5625 72.116 15.25C72.116 15.25 73.8494 15.9375 75.5208 17.5L75.7065 17.125C75.7065 17.125 74.2827 15.5625 71.9922 14.5625L73.9732 14.1875C73.6018 13.875 73.5398 13.8125 73.3541 13.625C71.0637 13.9375 70.816 14 70.9398 14.6875Z" fill="#E6E8EC"/>
<path d="M51.3182 21.8749C51.0086 20.6874 51.5039 19.1249 51.5039 19.1874C50.8848 21.2499 50.2658 23.1249 51.0705 27.7499C50.8848 26.6874 51.0086 24.3124 51.1324 23.4999C51.1944 22.9374 51.442 22.4374 51.3182 21.8749Z" fill="#E6E8EC"/>
<path d="M55.4658 22.1875C54.4134 22.4375 53.0515 22.75 51.9991 22.8125C51.6896 22.8125 51.6277 23.1875 51.5658 23.3125C50.6372 26.6875 51.6896 31.25 54.3515 34.0625L54.4134 34C52.6182 31.5625 52.1229 29.625 51.8753 26C51.8753 26 52.4943 28.4375 53.9801 30.5625C53.9801 30.5625 54.2896 29.9375 54.3515 29.875C53.4229 28.375 52.6801 26.625 52.2467 25.1875C52.5562 26.25 54.661 27.8125 55.4658 28.1875L55.5896 26.9375C55.5277 26.875 53.361 25.75 52.3086 23.875C52.3086 23.875 55.0324 23.5 55.7134 23.25C55.5277 22.9375 55.4658 22.1875 55.4658 22.1875Z" fill="#E6E8EC"/>
<path d="M76.8862 22.8125C75.8338 22.75 74.3481 22.4375 73.2957 22.1875C73.2957 22.1875 73.2338 22.9375 73.1719 23.25C73.7909 23.5 76.5147 23.875 76.5766 23.875C75.5243 25.75 73.3576 26.875 73.2957 26.9375L73.4195 28.1875C74.2243 27.8125 76.329 26.25 76.6385 25.1875C76.2052 26.625 75.4624 28.3125 74.5338 29.875C74.5957 29.9375 74.9052 30.5 74.9052 30.5625C76.3909 28.4375 76.9481 26.0625 77.01 26C76.7624 29.625 76.2052 31.5625 74.4719 34L74.5338 34.0625C77.1338 31.25 78.1862 26.6875 77.3195 23.3125C77.1338 23.1875 77.0719 22.8125 76.8862 22.8125Z" fill="#E6E8EC"/>
<path d="M75.0268 20.1879C75.2744 21.0004 75.8935 21.5004 76.4506 21.3129C76.5745 21.2504 76.6983 21.1879 76.8221 21.0629C77.0697 20.7504 77.1316 20.1879 76.9459 19.5629C76.6983 18.5629 76.0792 18.1254 75.5221 18.3129C75.0268 18.4379 74.7792 19.3754 75.0268 20.1879Z" fill="#E6E8EC"/>
<path d="M77.1953 19.125C77.1953 19.125 77.6286 20.6875 77.381 21.8125C77.2572 22.375 77.5048 22.875 77.5667 23.375C77.8144 25.0625 77.7525 26.5625 77.6286 27.625C78.4334 23.0625 77.8144 21.1875 77.1953 19.125Z" fill="#E6E8EC"/>
<path d="M66.3592 24.3125C66.3592 23.1875 65.4306 22.25 64.3163 22.25C63.202 22.25 62.2734 23.1875 62.2734 24.3125C62.2734 25.4375 63.202 26.375 64.3163 26.375C65.4306 26.375 66.3592 25.4375 66.3592 24.3125Z" fill="#E6E8EC"/>
<path d="M72.6738 27.25C70.1357 28.5 68.2786 28.75 66.9786 28.9375C69.2071 27.1875 70.1976 25.9375 71.0643 24.6875C70.8786 24.5625 70.8167 24.5 70.2595 23.875C69.7643 24.5 68.5262 26.25 65.8024 28.25C65.3071 28.625 65.1214 28.75 64.9976 29.125C64.9357 29.25 64.9357 29.5625 64.9357 29.8125C64.9357 30.8125 64.75 38.6875 64.75 38.75C64.9976 38.75 65.8643 38.6875 65.8643 38.6875C66.1738 35.1875 66.2357 33.8125 66.2357 32.25C66.2357 31.6875 66.2357 31.25 66.2357 31.1875C68.031 32.125 69.2691 32.625 70.7548 33.125C70.8167 33 71.4357 32.125 71.4357 32.125C70.0119 31.4375 68.5262 30.9375 67.1643 30.1875C69.269 29.75 70.8167 29.4375 72.7357 28.4375C72.8595 28.5 72.6738 27.25 72.6738 27.25Z" fill="#E6E8EC"/>
<path d="M63.7603 29.875C63.7603 29.625 63.7603 29.3125 63.6984 29.1875C63.5746 28.8125 63.3889 28.6875 62.8937 28.3125C60.1699 26.3125 58.9318 24.5625 58.4365 23.9375C57.8794 24.5625 57.8175 24.625 57.6318 24.75C58.5603 26 59.5508 27.25 61.7175 29C60.4175 28.75 58.5603 28.5 56.0222 27.3125C56.0841 27.3125 55.8984 28.5625 55.8984 28.5625C57.7556 29.5625 59.3651 29.9375 61.4699 30.3125C60.0461 31 58.6222 31.5625 57.1984 32.25C57.1984 32.25 57.8175 33.125 57.8794 33.25C59.3651 32.6875 60.6032 32.25 62.3984 31.3125C62.3984 31.375 62.3984 31.8125 62.3984 32.375C62.3984 33.9375 62.4603 35.3125 62.7699 38.8125C62.7699 38.8125 63.5746 38.875 63.8841 38.875C63.9461 38.8125 63.7603 30.9375 63.7603 29.875Z" fill="#E6E8EC"/>
<path d="M60.8486 37.75H60.6629V37.375H60.9724C61.0962 37.375 61.22 37.375 61.22 37.5625C61.22 37.8125 61.0343 37.75 60.8486 37.75ZM61.4057 37.5625C61.4057 37.375 61.2819 37.25 61.0343 37.25H60.5391V38.3125H60.6629V37.8125H60.9105L61.22 38.3125H61.4057L61.0962 37.8125C61.22 37.875 61.4057 37.8125 61.4057 37.5625Z" fill="#E6E8EC"/>
<path d="M60.9124 38.6875C60.4171 38.6875 60.1076 38.3125 60.1076 37.875C60.1076 37.375 60.479 37.0625 60.9124 37.0625C61.4076 37.0625 61.7171 37.4375 61.7171 37.875C61.7171 38.3125 61.3457 38.6875 60.9124 38.6875ZM60.9124 36.875C60.3552 36.875 59.9219 37.3125 59.9219 37.8125C59.9219 38.375 60.3552 38.8125 60.9124 38.8125C61.4695 38.8125 61.8409 38.375 61.8409 37.8125C61.8409 37.3125 61.4076 36.875 60.9124 36.875Z" fill="#E6E8EC"/>
</g>
<defs>
<clipPath id="clip0_14912_30763">
<rect width="78" height="50" fill="white"/>
</clipPath>
</defs>
</svg>
