<svg width="78" height="50" viewBox="0 0 78 50" fill="none" xmlns="http://www.w3.org/2000/svg">
<path d="M71.0685 21.5625C68.5923 21.5625 66.1161 21.5625 63.64 21.5625C63.8257 21.25 64.1352 21.25 64.3209 21.0625C64.5066 20.9375 64.7542 20.8125 64.94 20.6875C67.2923 20.6875 69.5828 20.6875 71.8733 20.6875C71.8733 20.6875 71.8733 20.6875 71.9352 20.75C71.9352 20.75 71.9352 20.75 71.9352 20.8125C71.9352 25.25 71.9352 29.6875 71.9352 34.1875C71.9352 34.25 71.9352 34.3125 71.9352 34.3125C71.8733 34.4375 71.8114 34.4375 71.6876 34.4375C71.5638 34.4375 71.5019 34.4375 71.3781 34.4375C49.7114 34.4375 28.0447 34.4375 6.37805 34.4375C6.25424 34.4375 6.06853 34.5 5.88281 34.375C5.88281 29.875 5.88281 25.375 5.88281 20.8125C5.88281 20.8125 5.88281 20.8125 5.94472 20.8125C23.5876 20.8125 41.2923 20.8125 58.9352 20.8125C59.3066 21 59.8638 21.4375 59.9876 21.6875C42.2209 21.6875 24.5161 21.6875 6.81138 21.6875C6.74948 22 6.68757 33 6.81138 33.625C28.2304 33.625 49.5876 33.625 71.0066 33.625C71.1304 33.5 71.0685 33.3125 71.0685 33.1875C71.0685 31.125 71.0685 29.0625 71.0685 27.0625C71.0685 25.4375 71.0685 23.8125 71.0685 22.1875C71.0685 21.875 71.0685 21.75 71.0685 21.5625Z" fill="#FCFCFD"/>
<path d="M19.625 22.75C20.4917 22.75 21.2964 22.75 22.1012 22.75C22.1631 22.8125 22.225 22.9375 22.225 23C22.2869 23.5 22.3488 24.0625 22.4107 24.5625C22.5345 25.3125 22.5345 26.0625 22.7202 26.8125C22.7202 26.875 22.7202 27 22.7821 27.0625C23.0298 25.625 23.2155 24.1875 23.4631 22.6875C24.144 22.6875 24.7631 22.6875 25.444 22.6875C25.6917 24.0625 25.8774 25.4375 26.125 26.8125C26.3107 26.5 26.3107 26.1875 26.3726 25.875C26.4345 25.3125 26.4964 24.6875 26.6202 24.125C26.6821 23.625 26.744 23.1875 26.806 22.6875C27.6107 22.6875 28.4155 22.6875 29.2821 22.6875C28.725 25.75 28.1679 28.8125 27.6107 31.875C26.806 31.875 26.0631 31.875 25.2583 31.875C25.0726 31.25 25.0107 30.5625 24.8869 29.875C24.7631 29.25 24.6393 28.5625 24.5155 27.8125C24.2679 28.5 24.206 29.1875 24.0821 29.875C23.9583 30.5 23.8345 31.1875 23.7107 31.875C22.906 31.875 22.1631 31.875 21.3583 31.875C21.2964 31.75 21.2964 31.625 21.2345 31.5C20.6774 28.625 20.1821 25.6875 19.625 22.75Z" fill="#E6E8EC"/>
<path d="M61.4117 21.8125C60.8545 21.5625 60.3593 21.1875 59.8022 20.8125C59.1831 20.3125 58.626 19.8125 58.1926 19.125C57.6974 18.375 57.3879 17.5 57.5117 16.5625C57.5736 15.875 57.8212 15.3125 58.3164 14.875C58.7498 14.4375 59.3069 14.1875 59.9879 14.1875C60.4212 14.1875 60.7926 14.1875 61.226 14.3125C61.7831 14.5 62.1545 14.875 62.3402 15.4375C62.4021 15.75 62.4641 16.0625 62.4641 16.375C62.4641 16.5625 62.4641 16.75 62.526 17C62.7117 16.5 62.7736 16 62.6498 15.5625C62.526 15.0625 62.2164 14.75 61.9069 14.375C62.7736 14.125 63.6402 14.25 64.5069 14.5C64.7545 14.5625 65.0022 14.75 65.1879 14.875C65.9307 15.3125 66.2402 16.0625 66.3021 16.875C66.3641 17.875 66.1164 18.75 65.4974 19.5625C65.126 20.0625 64.6307 20.4375 64.1355 20.8125C63.2069 21.25 62.3402 21.5625 61.4117 21.8125Z" fill="#E6E8EC"/>
<path d="M8.42143 22.75C9.10238 22.75 9.72143 22.75 10.4024 22.75C10.8357 23.875 11.331 25 11.7643 26.125H11.8262C11.8262 25 11.8262 23.875 11.8262 22.75C12.2595 22.75 12.631 22.75 13.0024 22.75C13.3738 22.75 13.7452 22.75 14.1167 22.75C14.1786 23.0625 14.1786 31.1875 14.1167 31.9375C13.4976 31.9375 12.8786 31.9375 12.2595 31.9375C11.7643 30.75 11.269 29.5 10.7738 28.3125H10.7119C10.7119 29.5 10.7119 30.6875 10.7119 31.9375C10.4643 32 10.1548 31.9375 9.90714 32C9.65952 32 9.4119 32 9.16429 32C8.91667 32 8.66905 32 8.42143 32C8.35952 31.625 8.35952 23.5 8.42143 22.75Z" fill="#E6E8EC"/>
<path d="M50.2653 31.9375C49.3986 31.9375 48.5938 31.9375 47.7891 31.9375C47.7891 28.875 47.7891 25.8125 47.7891 22.8125C47.851 22.75 47.9748 22.75 48.0367 22.75C48.9033 22.75 49.8319 22.75 50.6986 22.75C51.2557 22.75 51.751 22.9375 52.1843 23.1875C52.7414 23.5625 53.051 24.125 53.2367 24.8125C53.4224 25.6875 53.2986 26.5 52.8653 27.25C52.7414 27.4375 52.5557 27.5625 52.4319 27.75C52.37 28.125 52.5557 28.4375 52.6176 28.75C52.8653 29.75 53.1748 30.6875 53.4224 31.6875C53.4224 31.75 53.4224 31.8125 53.4224 31.875C52.6176 31.875 51.8129 31.875 50.9462 31.875C50.6367 31.0625 50.5748 30.125 50.2033 29.3125C50.2653 30.1875 50.2653 31.0625 50.2653 31.9375ZM50.2653 24.625C50.2653 25.4375 50.2653 26.1875 50.2653 26.9375C50.6367 26.9375 50.8224 26.75 50.8843 26.4375C51.0081 26 51.0081 25.5 50.8843 25.0625C50.8224 24.9375 50.7605 24.75 50.6367 24.6875C50.5129 24.625 50.3891 24.5625 50.2653 24.625Z" fill="#FCFCFD"/>
<path d="M40.7345 27.3129C40.6726 26.5004 40.7964 25.6879 41.044 24.8754C41.2298 24.3129 41.4774 23.8129 41.9107 23.3754C42.406 22.8754 43.025 22.5629 43.7679 22.5004C45.006 22.4379 45.8726 23.0629 46.4917 24.1254C46.8012 24.6879 46.9869 25.3754 47.1107 26.0629C47.2345 26.8129 47.2345 27.5629 47.1726 28.3129C47.1107 29.1879 46.8631 30.0629 46.306 30.8129C45.6869 31.7504 44.5726 32.2504 43.3964 32.0004C42.344 31.7504 41.725 31.0629 41.2917 30.1879C40.7964 29.3129 40.6726 28.3129 40.7345 27.3129ZM43.8917 30.0629C44.2631 29.9379 44.325 29.6254 44.3869 29.3754C44.5107 28.9379 44.5107 28.5004 44.5107 28.1254C44.5107 27.6254 44.5107 27.1254 44.5107 26.6254C44.5107 26.1879 44.4488 25.8129 44.3869 25.3754C44.325 25.0629 44.2012 24.8129 43.8917 24.6254C43.5202 24.6879 43.4583 24.9379 43.3345 25.1879C43.2107 25.4379 43.2107 25.7504 43.2107 26.0629C43.1488 27.1254 43.0869 28.1254 43.2726 29.1879C43.3964 29.5629 43.4583 29.9379 43.8917 30.0629Z" fill="#FCFCFD"/>
<path d="M67.4769 31.875C67.415 31.5625 67.3531 31.25 67.2912 30.9375C66.8579 30.9375 66.4246 30.9375 65.9912 30.9375C65.8674 31.25 65.9293 31.5625 65.8055 31.9375C65.0627 31.9375 64.3198 31.9375 63.6388 31.9375C63.5769 31.9375 63.515 31.9375 63.4531 31.875C63.4531 31.6875 63.515 31.5 63.515 31.3125C63.8246 30.375 63.9484 29.375 64.196 28.4375C64.4436 27.3125 64.6912 26.125 64.9388 25C65.0626 24.25 65.2484 23.5625 65.4341 22.875C65.4341 22.8125 65.4341 22.8125 65.496 22.75C66.3007 22.75 67.1674 22.75 68.0341 22.75C68.715 25.8125 69.396 28.8125 70.0769 31.875C69.7055 31.9375 68.0341 31.9375 67.4769 31.875ZM66.6103 26.625C66.5484 26.875 66.4865 27.1875 66.4246 27.4375C66.4246 27.75 66.3007 28 66.3007 28.3125C66.3007 28.5625 66.115 28.875 66.2388 29.125C66.5484 29.125 66.796 29.125 67.1055 29.125C66.9198 28.3125 66.8579 27.4375 66.6103 26.625Z" fill="#FCFCFD"/>
<path d="M34.8533 24.1248C34.2961 24.5623 33.8009 24.9998 33.1818 25.4373C33.058 25.1248 32.9342 24.7498 32.5628 24.6873C32.3152 24.7498 32.1295 24.9373 32.0676 25.1873C31.9437 25.6248 31.8818 26.1248 31.8199 26.5623C31.8199 27.1248 31.758 27.6248 31.8199 28.1873C31.8818 28.6873 31.8818 29.1248 32.0057 29.6248C32.0676 29.8123 32.1295 29.9998 32.3152 30.1248C32.439 30.1248 32.5628 30.1248 32.7485 30.1248C32.7485 29.4998 32.7485 28.9373 32.7485 28.3123C32.6247 28.2498 32.439 28.3123 32.2533 28.2498C32.2533 27.6873 32.2533 27.1873 32.2533 26.6248C32.5628 26.5623 34.6057 26.5623 35.039 26.6248C35.039 28.0623 35.039 29.5623 35.039 31.0623C34.6676 31.4998 34.0485 31.8748 33.3057 31.9998C32.8104 32.0623 32.3152 32.1248 31.8199 31.9998C31.5723 31.9373 31.3866 31.8748 31.139 31.7498C30.458 31.3123 30.0247 30.6873 29.7771 29.9373C29.5295 29.1873 29.3438 28.3748 29.3438 27.5623C29.3438 26.9373 29.4057 26.3123 29.5295 25.6873C29.7152 24.9373 29.9628 24.1873 30.458 23.5623C31.2628 22.5623 32.6866 22.3123 33.739 22.8748C34.2342 23.1248 34.5437 23.4998 34.7914 23.9998C34.8533 23.9998 34.8533 24.0623 34.8533 24.1248Z" fill="#FCFCFD"/>
<path d="M56.8289 30.1247C56.9527 30.1872 57.1384 30.1872 57.2622 30.1247C57.3241 29.8122 57.2622 29.4997 57.3241 29.1872C57.3241 28.8747 57.3241 28.5622 57.3241 28.3122C57.1384 28.1872 57.0146 28.3122 56.8289 28.2497C56.705 27.9997 56.705 26.8747 56.8289 26.5622C57.6955 26.5622 58.6241 26.5622 59.4908 26.5622C59.5527 26.8747 59.6146 30.1872 59.5527 31.0622C59.0574 31.5622 58.5003 31.8747 57.8193 31.9997C57.3241 32.1247 56.8289 32.1247 56.3336 31.9997C56.0241 31.9372 55.7146 31.8122 55.405 31.5622C54.8479 31.1247 54.4765 30.5622 54.2289 29.8747C53.7955 28.8122 53.7955 27.6872 53.8574 26.4997C53.9193 25.6247 54.1669 24.7497 54.6003 23.9997C55.0336 23.3122 55.5908 22.7497 56.3955 22.5622C57.6336 22.2497 58.7479 22.7497 59.305 23.8747C59.305 23.9372 59.367 23.9372 59.367 23.9997C58.8717 24.4372 58.3146 24.8747 57.7574 25.3122C57.5717 25.1872 57.6336 24.9997 57.5098 24.8747C57.386 24.7497 57.2622 24.6247 57.1384 24.6247C56.8289 24.6872 56.705 24.8747 56.6431 25.1872C56.5193 25.7497 56.3955 26.3122 56.3955 26.9372C56.3955 27.6247 56.3955 28.3122 56.4574 28.9997C56.4574 29.4372 56.4574 29.8747 56.8289 30.1247Z" fill="#FCFCFD"/>
<path d="M35.9055 22.75C37.2674 22.75 38.6293 22.75 40.0531 22.75C40.115 23.0625 40.0531 23.375 40.115 23.6875C40.115 24 40.115 24.3125 40.115 24.625C39.5579 24.6875 39.0007 24.625 38.4436 24.6875C38.3817 24.9375 38.4436 25.1875 38.3817 25.4375C38.3817 25.6875 38.3817 25.9375 38.3817 26.25C38.8769 26.25 39.3722 26.25 39.8674 26.25C39.8674 26.9375 39.8674 27.5 39.8674 28.1875C39.6198 28.25 39.3722 28.1875 39.1246 28.25C38.8769 28.25 38.6293 28.25 38.3817 28.25C38.3198 28.5 38.3817 28.8125 38.3817 29.0625C38.3817 29.3125 38.3817 29.625 38.3817 29.875C38.6912 30.0625 38.9388 29.9375 39.2484 29.9375C39.496 29.9375 39.8055 29.9375 40.0531 29.9375C40.115 30.25 40.0531 30.5625 40.115 30.875C40.115 31.1875 40.115 31.5 40.115 31.8125C39.8055 31.9375 36.5246 31.9375 35.9055 31.875C35.8436 31.8125 35.8436 31.6875 35.8436 31.625C35.8436 28.75 35.8436 25.875 35.8436 23C35.8436 22.9375 35.7817 22.875 35.9055 22.75Z" fill="#FCFCFD"/>
<path d="M14.9806 22.75C16.4044 22.75 17.7664 22.75 19.1283 22.75C19.1283 23.375 19.1283 24 19.1283 24.6875C18.8187 24.6875 18.5711 24.6875 18.2616 24.6875C18.014 24.6875 17.7044 24.625 17.4568 24.75C17.4568 25.3125 17.4568 25.8125 17.4568 26.3125C17.9521 26.3125 18.4473 26.3125 18.9425 26.3125C19.0044 26.625 18.9425 27 19.0044 27.3125C19.0044 27.625 19.0044 27.9375 19.0044 28.25C18.5092 28.25 18.014 28.25 17.5187 28.25C17.5187 28.8125 17.5187 29.375 17.5187 29.875C17.8283 30 18.0759 29.9375 18.3854 29.9375C18.633 29.9375 18.9425 29.9375 19.1902 29.9375C19.1902 30 19.1902 30.0625 19.1902 30.0625C19.1902 30.625 19.1902 31.125 19.1902 31.6875C19.1902 31.75 19.1902 31.8125 19.1283 31.875C17.7664 31.875 16.4044 31.875 14.9806 31.875C14.9806 31.625 14.9187 23.5 14.9806 22.75Z" fill="#E6E8EC"/>
<path d="M60.3594 31.875C60.3594 28.8125 60.3594 25.75 60.3594 22.75C61.1641 22.75 61.9689 22.75 62.8356 22.75C62.8975 23.0625 62.8975 31.1875 62.8356 31.875C62.0308 31.875 61.1641 31.875 60.3594 31.875Z" fill="#FCFCFD"/>
<path d="M9.28906 14.5C9.47478 14.375 9.59859 14.4375 9.7843 14.4375C9.84621 14.6875 9.7843 15 9.7843 15.25C9.7843 15.5625 9.7843 15.8125 9.7843 16.125C9.7843 16.375 9.7224 16.6875 9.84621 16.9375C10.0938 16.875 10.2176 16.6875 10.4653 16.625C11.0224 16.5 11.7033 16.8125 11.7653 17.4375C11.8272 18.1875 11.7653 18.9375 11.7653 19.6875C11.5795 19.6875 11.4557 19.6875 11.3319 19.6875C11.27 19.625 11.27 19.5 11.27 19.375C11.27 18.875 11.27 18.4375 11.27 17.9375C11.27 17.8125 11.27 17.75 11.27 17.625C11.2081 17.3125 11.0224 17.125 10.7748 17.0625C10.4653 17 10.1557 17.0625 9.97002 17.375C9.90811 17.4375 9.84621 17.5625 9.7843 17.6875C9.7843 18.3125 9.7843 18.9375 9.7843 19.625C9.59859 19.6875 9.47478 19.6875 9.28906 19.625C9.28906 18 9.28906 16.25 9.28906 14.5Z" fill="#FCFCFD"/>
<path d="M15.6625 19.0005C15.7863 19.1255 15.8482 19.188 15.972 19.313C15.7244 19.688 15.2911 19.813 14.9197 19.8755C14.672 19.938 14.4863 19.938 14.2387 19.8755C13.6197 19.688 13.2482 19.313 13.1244 18.688C13.0006 17.938 13.2482 17.188 13.9292 16.8755C14.8578 16.438 15.7244 17.0005 15.972 17.938C15.972 18.063 16.0339 18.188 16.0339 18.313C15.972 18.438 15.8482 18.438 15.7244 18.438C15.1673 18.438 14.6101 18.438 14.053 18.438C13.9292 18.438 13.8054 18.438 13.6816 18.438C13.6816 18.8755 13.8673 19.2505 14.1768 19.3755C14.672 19.563 15.1673 19.313 15.6625 19.0005ZM13.6197 17.8755C13.9292 17.938 14.9816 17.938 15.353 17.8755C15.353 17.3755 14.9816 17.1255 14.4863 17.1255C14.053 17.063 13.7435 17.3755 13.6197 17.8755Z" fill="#FCFCFD"/>
<path d="M7.30357 15.4377C7.30357 15.9377 7.30357 16.3127 7.30357 16.7502C7.48929 16.8127 7.675 16.7502 7.86071 16.8127C7.86071 16.9377 7.86071 17.0627 7.86071 17.1877C7.675 17.2502 7.48929 17.1877 7.30357 17.2502C7.30357 17.5627 7.30357 17.8752 7.30357 18.1877C7.30357 18.5002 7.30357 18.8127 7.30357 19.0627C7.42738 19.2502 7.675 19.2502 7.79881 19.2502C7.86071 19.4377 7.86071 19.5627 7.86071 19.7502C7.675 19.7502 7.55119 19.7502 7.36548 19.7502C6.99405 19.6252 6.80833 19.4377 6.80833 19.0002C6.80833 18.5627 6.80833 18.1877 6.80833 17.7502C6.80833 17.6252 6.80833 17.5002 6.80833 17.3752C6.68452 17.2502 6.56071 17.3127 6.4369 17.3127C6.375 17.1877 6.4369 17.0627 6.375 16.9377C6.49881 16.8127 6.62262 16.9377 6.74643 16.8127C6.80833 16.3752 6.74643 15.9377 6.80833 15.5627C6.99405 15.3752 7.11786 15.4377 7.30357 15.4377Z" fill="#FCFCFD"/>
<path d="M55.9609 36.6875C55.9609 35.75 56.6419 35.125 57.4467 35.125C58.3133 35.125 58.9943 35.8125 58.9324 36.6875C58.9324 37.5625 58.4371 38.1875 57.4467 38.25C56.58 38.3125 55.9609 37.5625 55.9609 36.6875ZM58.6228 36.625V36.5625C58.6228 36 58.3133 35.625 57.7562 35.4375C57.2609 35.3125 56.7657 35.4375 56.4562 35.9375C56.1466 36.4375 56.1467 37 56.58 37.5C56.8276 37.8125 57.3228 38 57.6943 37.875C58.3133 37.75 58.6847 37.3125 58.6228 36.625Z" fill="#FCFCFD"/>
<path d="M52.625 35.1875C52.9964 35.1875 53.306 35.1875 53.5536 35.1875C53.9869 35.1875 54.3583 35.5625 54.4202 35.9375C54.4821 36.375 54.2345 36.75 53.7393 36.875C53.6774 36.875 53.6155 36.9375 53.5536 37C53.8631 37.375 54.1726 37.75 54.544 38.125C54.4202 38.25 54.2964 38.1875 54.1726 38.1875C53.7393 37.8125 53.4298 37.3125 52.9964 36.875C52.9345 37.3125 52.9964 37.6875 52.9964 38.125C52.9345 38.1875 52.8107 38.1875 52.6869 38.125C52.625 37.8125 52.6869 37.5 52.625 37.1875C52.625 36.875 52.625 36.5625 52.625 36.1875C52.625 35.875 52.625 35.5625 52.625 35.1875ZM52.9964 35.4375C52.9345 35.8125 52.9345 36.375 52.9964 36.625C53.1821 36.625 53.306 36.625 53.4917 36.625C53.5536 36.625 53.5536 36.625 53.6155 36.625C53.925 36.5625 54.1107 36.3125 54.1726 36.0625C54.1726 35.75 54.0488 35.5625 53.6774 35.4375C53.4298 35.4375 53.244 35.4375 52.9964 35.4375Z" fill="#FCFCFD"/>
<path d="M64.8199 37.9375C64.8199 38.0625 64.8199 38.125 64.8199 38.1875C64.758 38.25 63.8294 38.25 63.1484 38.1875C63.1484 37.6875 63.1484 37.25 63.1484 36.75C63.1484 36.25 63.1484 35.75 63.1484 35.3125C63.2103 35.1875 63.3342 35.1875 63.3961 35.1875C63.7675 35.1875 64.2008 35.1875 64.5722 35.1875C64.6961 35.25 64.758 35.375 64.6961 35.5625C64.3246 35.5625 63.8913 35.5625 63.458 35.5625C63.458 35.875 63.458 36.1875 63.458 36.5625C63.8294 36.625 64.2008 36.5625 64.5722 36.625C64.6342 36.6875 64.6342 36.8125 64.5722 36.9375C64.2008 36.9375 63.8294 36.9375 63.3961 36.9375C63.3961 37.3125 63.3961 37.625 63.3961 38C63.8913 37.9375 64.3865 37.875 64.8199 37.9375Z" fill="#FCFCFD"/>
<path d="M68.8415 37.5625C68.9653 37.5625 69.0272 37.625 69.0272 37.75L68.9653 37.8125C68.2844 38.5 67.232 38.4375 66.6748 37.625C66.1796 36.9375 66.3653 35.9375 67.1082 35.375C67.6653 35 68.532 35.0625 68.9653 35.625C68.9653 35.6875 68.9034 35.75 68.7796 35.8125C68.4082 35.625 68.0367 35.375 67.6034 35.5625C67.2939 35.6875 67.1082 35.8125 66.9844 36.125C66.6748 36.625 66.6748 37.3125 67.232 37.75C67.5415 38 68.0367 38.1875 68.8415 37.5625Z" fill="#FCFCFD"/>
<path d="M61.5312 14.1875C61.5312 14 61.5312 13.875 61.5312 13.8125C61.8408 12.8125 62.3979 12 63.4503 11.75C63.5741 12.125 63.4503 12.4375 63.2646 12.6875C63.0789 13 62.8312 13.25 62.5217 13.5C62.2741 13.8125 61.9646 14 61.5312 14.1875Z" fill="#FCFCFD"/>
<path d="M51.014 36.0629C50.8902 36.9379 50.2711 37.0629 49.6521 37.0004C49.5902 37.1879 49.5902 37.3129 49.5902 37.5004C49.5902 37.6879 49.5902 37.8129 49.5902 38.0004C49.5902 38.1879 49.5283 38.2504 49.3426 38.2504C49.2807 38.1879 49.2188 38.1254 49.2188 38.0629C49.2188 37.1879 49.2188 36.3129 49.2188 35.4379C49.2188 35.3754 49.2807 35.3129 49.2807 35.2504C49.5902 35.2504 49.8997 35.1879 50.2092 35.2504C50.6426 35.3129 50.8902 35.5629 50.9521 35.9379C50.9521 35.9379 51.014 36.0004 51.014 36.0629ZM49.5283 36.6879C49.714 36.6879 49.8997 36.6879 50.0854 36.6879C50.4568 36.6879 50.6426 36.5004 50.7045 36.0629C50.7045 36.0004 50.7045 35.8754 50.6426 35.8129C50.333 35.5004 50.0235 35.3754 49.5283 35.5629C49.5283 35.8754 49.5283 36.2504 49.5283 36.6879Z" fill="#FCFCFD"/>
<path d="M72.0625 35.5C71.8768 35.5 71.6911 35.5 71.4435 35.5C71.4435 36.375 71.4435 37.25 71.4435 38.125C71.3196 38.25 71.1958 38.1875 71.072 38.125C71.072 37.25 71.072 36.375 71.072 35.5C70.8244 35.5 70.6387 35.5 70.5149 35.5C70.3911 35.375 70.453 35.3125 70.453 35.1875C70.7006 35.0625 71.753 35.0625 72.0625 35.1875C72.1244 35.25 72.1244 35.375 72.0625 35.5Z" fill="#FCFCFD"/>
<path d="M59.6816 12.5C60.6721 12.625 61.1674 13.25 61.415 14.1875C60.8578 14.0625 60.3626 13.8125 59.9912 13.375C59.8674 13.125 59.6197 12.875 59.6816 12.5Z" fill="#FCFCFD"/>
<path d="M61.1624 35.125C61.2862 35.1875 61.2862 35.25 61.2862 35.375C61.2862 36.0625 61.2862 36.8125 61.2862 37.5C61.2862 38 60.8528 38.3125 60.3576 38.25C60.2957 38.25 60.2338 38.1875 60.1719 38.125C60.2338 38 60.2957 38 60.4195 37.9375C60.7909 37.875 60.9766 37.6875 60.9766 37.25C60.9766 36.625 60.9766 36.0625 60.9766 35.4375C60.9766 35.3125 60.9147 35.1875 61.1624 35.125Z" fill="#FCFCFD"/>
</svg>
