<svg width="78" height="50" viewBox="0 0 78 50" fill="none" xmlns="http://www.w3.org/2000/svg">
<g clip-path="url(#clip0_14912_30980)">
<path d="M22.0592 30.4758C22.0524 30.469 22.0469 27.9527 22.0469 24.8841V19.3047H32.8612H43.6755V24.8964V30.4881H32.8735C26.9324 30.4881 22.0659 30.4825 22.0592 30.4758ZM27.0443 29.1557C27.0733 29.1267 27.0761 27.9201 27.0474 27.8663C27.0288 27.8317 26.9978 27.8306 26.0047 27.8306H24.9811V23.9455V20.0604L24.9338 20.0424C24.8683 20.0175 23.6241 20.0185 23.5774 20.0435C23.5422 20.0623 23.5417 20.1329 23.5417 24.6024V29.1421L23.5832 29.1588C23.6504 29.1858 27.0172 29.1828 27.0443 29.1557ZM29.0757 29.1663L29.1334 29.1547V24.601V20.0472L29.0919 20.036C29.0215 20.0172 27.7924 20.023 27.7413 20.0424L27.6939 20.0604V24.6013V29.1421L27.7355 29.1588C27.7821 29.1775 28.9859 29.1843 29.0757 29.1663ZM33.0092 29.1409C33.0188 29.1257 33.0268 29.08 33.0269 29.0394C33.0271 28.9636 33.063 28.6643 33.1111 28.3381C33.126 28.2366 33.1381 28.1287 33.1378 28.0982C33.1376 28.0678 33.1496 27.964 33.1645 27.8676C33.1898 27.7041 33.2394 27.307 33.2556 27.1386C33.2642 27.0488 33.2977 26.7822 33.3239 26.5942C33.3345 26.5181 33.3513 26.3852 33.3612 26.2989C33.371 26.2126 33.3912 26.0424 33.4059 25.9206C33.4206 25.7988 33.4413 25.6161 33.4518 25.5146C33.4624 25.4131 33.4791 25.2902 33.489 25.2415C33.499 25.1928 33.5071 25.1233 33.5071 25.0871C33.5071 25.051 33.5193 24.9372 33.5341 24.8343C33.549 24.7314 33.5737 24.5476 33.5889 24.4258C33.6042 24.304 33.6261 24.1338 33.6375 24.0475C33.6489 23.9612 33.6651 23.8242 33.6734 23.743C33.6912 23.5686 33.7197 23.3372 33.7563 23.0694C33.7709 22.9628 33.7874 22.8341 33.793 22.7833C33.8098 22.6307 33.8553 22.2444 33.8853 21.999C33.9008 21.8722 33.9215 21.6936 33.9311 21.6023C33.9408 21.5109 33.9569 21.3863 33.9669 21.3254C33.9908 21.1804 34.0208 20.9289 34.0426 20.6921C34.0522 20.5874 34.0641 20.4953 34.069 20.4873C34.0739 20.4794 34.0864 20.3831 34.0968 20.2734C34.1105 20.1289 34.11 20.0671 34.0952 20.0491C34.0787 20.0293 33.943 20.0245 33.4079 20.0247C33.0412 20.0249 32.7321 20.0311 32.721 20.0385C32.6918 20.0581 32.6764 20.1325 32.6459 20.4027C32.6185 20.6454 32.5903 20.8887 32.5391 21.3254C32.5237 21.4574 32.503 21.6442 32.4931 21.7407C32.4832 21.8371 32.4668 21.9783 32.4566 22.0544C32.4215 22.3177 32.3967 22.5256 32.382 22.6819C32.3738 22.7681 32.3582 22.901 32.3473 22.9771C32.3364 23.0532 32.3144 23.2318 32.2984 23.3739C32.2824 23.516 32.2572 23.7164 32.2423 23.8193C32.2274 23.9222 32.2151 24.0468 32.2148 24.0961C32.2146 24.1455 32.2057 24.2233 32.1952 24.2689C32.1846 24.3146 32.1683 24.435 32.1589 24.5365C32.1496 24.638 32.13 24.8207 32.1155 24.9425C32.0685 25.3365 32.0303 25.6765 32.0117 25.8652C32.0017 25.9667 31.9853 26.0846 31.9752 26.1272C31.9651 26.1697 31.9566 26.2486 31.9563 26.3025C31.9559 26.3563 31.9436 26.4669 31.929 26.5481C31.9143 26.6293 31.9021 26.734 31.9019 26.7808C31.9017 26.8277 31.8929 26.9107 31.8823 26.9654C31.8717 27.0201 31.8558 27.1465 31.8469 27.2463C31.838 27.3461 31.8258 27.4327 31.8197 27.4388C31.7903 27.4683 31.7697 27.3934 31.7523 27.1937C31.7419 27.0733 31.7292 26.9681 31.7241 26.9599C31.7191 26.9517 31.7076 26.8598 31.6986 26.7557C31.6819 26.5615 31.6614 26.3931 31.6146 26.0657C31.5999 25.9628 31.5876 25.8383 31.5874 25.7889C31.5871 25.7395 31.5786 25.6628 31.5683 25.6185C31.5581 25.5741 31.5416 25.4537 31.5316 25.3509C31.5217 25.2481 31.5017 25.0643 31.4872 24.9425C31.4523 24.6486 31.4089 24.2638 31.3863 24.0475C31.3762 23.9511 31.3596 23.8099 31.3494 23.7338C31.3029 23.3861 31.2868 23.2523 31.2743 23.1063C31.2669 23.02 31.251 22.8747 31.2388 22.7833C31.2012 22.4996 31.1636 22.1961 31.1567 22.119C31.1459 21.9998 31.1081 21.6872 31.0863 21.5377C31.0752 21.4616 31.0592 21.3245 31.0507 21.2332C31.0422 21.1418 31.0233 20.9674 31.0087 20.8456C30.9942 20.7238 30.9693 20.5038 30.9534 20.3566C30.9375 20.2094 30.9243 20.0875 30.924 20.0857C30.9237 20.0839 30.9104 20.0694 30.8945 20.0534C30.8692 20.0281 30.7799 20.0244 30.1955 20.0244C29.6817 20.0244 29.5211 20.0298 29.5068 20.0475C29.4884 20.0702 29.5059 20.388 29.5289 20.4489C29.5346 20.4641 29.5474 20.5596 29.5574 20.6611C29.5674 20.7626 29.5886 20.9494 29.6045 21.0763C29.6657 21.5652 29.7389 22.1794 29.7605 22.3859C29.7695 22.4719 29.7853 22.5923 29.7956 22.6535C29.8161 22.7756 29.8515 23.0609 29.8712 23.2632C29.8782 23.3342 29.894 23.4671 29.9064 23.5584C29.9187 23.6498 29.9411 23.8242 29.9561 23.946C29.9711 24.0678 29.9923 24.2297 30.0033 24.3058C30.0142 24.382 30.0302 24.5107 30.0387 24.5919C30.0539 24.7357 30.0874 25.0192 30.1403 25.45C30.1546 25.5667 30.1747 25.7411 30.1848 25.8376C30.195 25.934 30.2115 26.0627 30.2214 26.1236C30.2421 26.2504 30.2787 26.5455 30.2889 26.668C30.2964 26.7579 30.3406 27.1097 30.3724 27.3324C30.3833 27.4085 30.3989 27.5372 30.4071 27.6184C30.4262 27.8076 30.4574 28.0513 30.491 28.2744C30.5055 28.3712 30.5175 28.4875 30.5175 28.5328C30.5175 28.5781 30.5258 28.6442 30.536 28.6797C30.5463 28.7151 30.5601 28.8264 30.5667 28.927C30.5761 29.0698 30.5863 29.1175 30.6131 29.1443C30.646 29.1771 30.6976 29.1784 31.8196 29.1736C32.8377 29.1692 32.994 29.165 33.0092 29.1409ZM37.8716 28.5042V27.8399L36.8381 27.8306L35.8047 27.8214L35.7999 26.5527L35.7952 25.2839H36.6362C37.1806 25.2839 37.4898 25.2772 37.5129 25.2648C37.5472 25.2465 37.5486 25.2195 37.5486 24.6005C37.5486 24.2456 37.5465 23.9533 37.544 23.9511C37.5415 23.9488 37.1491 23.9425 36.672 23.9372L35.8047 23.9275V22.6542V21.3808L36.843 21.376L37.8813 21.3713L37.8764 20.7025L37.8716 20.0336L36.183 20.0284C35.2543 20.0255 34.4674 20.028 34.4344 20.0338L34.3744 20.0445V24.6006C34.3744 28.9242 34.3761 29.1571 34.4067 29.1651C34.4245 29.1698 35.2114 29.1725 36.1553 29.1711L37.8716 29.1686V28.5042ZM41.0457 29.1603C41.2085 29.141 41.3982 29.1075 41.4702 29.0852C41.7139 29.0099 41.8525 28.9512 42.0053 28.8587C42.1528 28.7694 42.3268 28.6003 42.4385 28.4377C42.5004 28.3475 42.5293 28.2916 42.6046 28.1167C42.6307 28.0559 42.6751 27.904 42.7097 27.7568C42.7375 27.6385 42.7422 27.5234 42.7426 26.9633C42.7429 26.3849 42.7389 26.2908 42.7081 26.1605C42.6368 25.8582 42.5272 25.5704 42.4198 25.4039C42.4001 25.3734 42.3785 25.3361 42.3716 25.3208C42.3366 25.2429 42.1165 24.9764 41.9518 24.8124C41.7779 24.6393 41.4112 24.3428 41.3711 24.3428C41.3613 24.3428 41.3505 24.3365 41.3472 24.3289C41.3438 24.3213 41.2676 24.2661 41.1779 24.2062C40.8494 23.9868 40.4369 23.6071 40.2855 23.3848C40.2469 23.328 40.2091 23.2789 40.2014 23.2755C40.1938 23.2721 40.1876 23.2581 40.1876 23.2445C40.1876 23.2308 40.1772 23.2086 40.1645 23.195C40.1425 23.1715 40.1005 23.0881 40.0499 22.9679C39.9881 22.821 39.9782 22.7361 39.9713 22.2987C39.9646 21.8703 39.9661 21.846 40.0061 21.7359C40.0481 21.6205 40.1929 21.4455 40.2467 21.4453C40.2599 21.4452 40.2956 21.4311 40.326 21.4138C40.3706 21.3885 40.4318 21.3823 40.6415 21.3816C40.8058 21.3811 40.9112 21.3884 40.9276 21.4013C40.9418 21.4126 40.9742 21.4269 40.9996 21.433C41.0621 21.4481 41.1774 21.5462 41.2287 21.6277C41.2892 21.7241 41.3318 21.9384 41.3318 22.147C41.3318 22.2944 41.3371 22.3293 41.361 22.3385C41.4076 22.3564 42.7039 22.3508 42.7327 22.3326C42.7544 22.3189 42.7567 22.2535 42.7464 21.9407C42.7331 21.5352 42.6923 21.2895 42.6046 21.0855C42.502 20.8472 42.4195 20.7202 42.2585 20.553C42.1713 20.4625 41.8614 20.2459 41.8191 20.2459C41.8064 20.2459 41.7685 20.232 41.7347 20.2151C41.5976 20.1464 41.6323 20.1568 41.3041 20.0861C41.0747 20.0367 40.6839 20.0163 40.3896 20.0383C40.1171 20.0587 39.9275 20.0851 39.8282 20.1165C39.5107 20.2168 39.438 20.2484 39.255 20.3654C39.1577 20.4277 38.9723 20.5993 38.886 20.7072C38.8425 20.7615 38.7297 20.9429 38.7297 20.9585C38.7297 20.9644 38.7184 20.9954 38.7045 21.0274C38.5629 21.3546 38.537 21.5393 38.5364 22.2297C38.5359 22.7804 38.5467 22.9491 38.5936 23.1248C38.6345 23.2776 38.6801 23.4259 38.6959 23.4569C38.7204 23.5052 38.7851 23.6575 38.7851 23.667C38.7851 23.684 38.96 23.967 39.0098 24.0305C39.0369 24.0652 39.0916 24.1351 39.1313 24.1859C39.2198 24.2991 39.4421 24.5163 39.5786 24.6229C39.6344 24.6665 39.6898 24.7105 39.7016 24.7208C39.7135 24.7311 39.7784 24.7769 39.846 24.8226C40.0183 24.9391 40.337 25.166 40.3831 25.2051C40.4044 25.2231 40.4602 25.2696 40.5071 25.3084C40.6867 25.4571 40.9267 25.7164 41.0481 25.8929C41.1214 25.9995 41.2395 26.2286 41.2395 26.2641C41.2395 26.2792 41.247 26.2994 41.2562 26.3091C41.2905 26.345 41.3206 26.5946 41.3273 26.8987C41.3397 27.4534 41.2638 27.6477 40.9828 27.7812C40.9076 27.8169 40.868 27.8213 40.6305 27.8208C40.3645 27.8202 40.3623 27.8199 40.2573 27.7613C40.1519 27.7026 40.0769 27.6408 40.0769 27.6129C40.0769 27.6048 40.0674 27.5886 40.0557 27.577C39.9994 27.5206 39.9661 27.3605 39.9661 27.1454C39.9661 27.0266 39.9611 26.9163 39.9549 26.9002C39.945 26.8743 39.8661 26.871 39.2559 26.871C38.6728 26.871 38.5647 26.8751 38.5456 26.8982C38.5288 26.9184 38.5257 27.0073 38.5333 27.2442C38.5502 27.7719 38.5858 27.9339 38.7631 28.291C38.8329 28.4315 38.8801 28.4963 39.0065 28.6253C39.0928 28.7134 39.2007 28.8097 39.2464 28.8394C39.3525 28.9084 39.5641 29.0117 39.5994 29.0117C39.6144 29.0117 39.6345 29.0196 39.6441 29.0291C39.6747 29.0594 39.9901 29.1302 40.2153 29.1573C40.3856 29.1777 40.8827 29.1795 41.0457 29.1603Z" fill="black"/>
<path d="M22.1062 11.5859L22.1109 7.04122L23.3381 7.03613C24.1326 7.03283 24.6206 7.03801 24.7222 7.05082C24.8084 7.06171 24.9247 7.07476 24.9805 7.07984C25.1395 7.09429 25.5011 7.19547 25.6818 7.27607C25.916 7.38054 26.1789 7.60011 26.3148 7.80479C26.4417 7.99592 26.4894 8.10947 26.5872 8.45299C26.6046 8.51426 26.6127 8.79305 26.6178 9.51629C26.6244 10.4417 26.6228 10.5042 26.5888 10.6328C26.5486 10.7852 26.4774 10.9354 26.3932 11.0456C26.3328 11.1246 26.179 11.2757 26.1583 11.2762C26.1514 11.2764 26.1346 11.2877 26.121 11.3013C26.0732 11.3491 25.864 11.4622 25.7556 11.4988C25.6222 11.5438 25.5626 11.5695 25.5578 11.584C25.552 11.6013 25.5882 11.6214 25.8197 11.7298C26.2263 11.92 26.4854 12.2015 26.5929 12.57C26.636 12.7177 26.6382 14.5052 26.5955 14.6461C26.5804 14.696 26.5677 14.7575 26.5674 14.7829C26.5671 14.8082 26.5456 14.8871 26.5197 14.9582C26.4937 15.0292 26.4675 15.104 26.4615 15.1243C26.4475 15.1712 26.3559 15.3238 26.2842 15.4195C26.2119 15.5161 25.9813 15.7411 25.9324 15.7629C25.9113 15.7723 25.8691 15.7963 25.8387 15.8163C25.8082 15.8363 25.7667 15.8603 25.7464 15.8696C25.4661 15.9984 25.2517 16.0639 24.999 16.098C24.9204 16.1086 24.2641 16.1196 23.4811 16.1236L22.1016 16.1305L22.1062 11.5859ZM24.5745 14.8308C24.8806 14.7752 25.0227 14.6586 25.1017 14.398C25.1398 14.2726 25.1399 12.8368 25.1019 12.6907C25.0492 12.4883 24.9305 12.3613 24.7181 12.2799C24.6175 12.2413 23.6999 12.219 23.6355 12.2535L23.5965 12.2744V13.5434C23.5965 14.5058 23.6018 14.8177 23.6186 14.8345C23.6508 14.8668 24.3926 14.8639 24.5745 14.8308ZM24.7129 10.9001C24.8855 10.8282 24.9947 10.7433 25.0476 10.64C25.1217 10.4951 25.1282 10.4146 25.1282 9.63407C25.1282 8.80994 25.1204 8.73284 25.024 8.60289C24.9662 8.52491 24.8503 8.41699 24.8237 8.41632C24.8135 8.41606 24.7803 8.40184 24.7499 8.38472C24.7027 8.35821 24.6198 8.35249 24.1906 8.34617C23.9135 8.34209 23.6665 8.34385 23.6416 8.35008L23.5964 8.36142V9.63351C23.5964 10.8251 23.5985 10.9069 23.6287 10.9257C23.6507 10.9393 23.8175 10.9434 24.1501 10.9383C24.5527 10.9322 24.6522 10.9255 24.7129 10.9001Z" fill="black"/>
<path d="M27.3875 11.5864L27.3921 7.04201H28.1303L28.9146 7.04199V14.8394H31.166V16.1243H29.2744H27.3828L27.3875 11.5864Z" fill="black"/>
<path d="M32.7181 7.0484C32.7181 7.0484 33.3484 7.03498 34.0437 7.0374L35.3078 7.04181L35.3712 7.51246C35.3875 7.65698 35.4001 7.75628 35.4761 8.33362C35.4908 8.44527 35.5106 8.60305 35.5201 8.68425C35.5296 8.76545 35.5456 8.88171 35.5556 8.94261C35.5729 9.04755 35.596 9.22503 35.6303 9.5147C35.6387 9.58575 35.6545 9.70201 35.6654 9.77306C35.6762 9.84411 35.6979 9.99981 35.7135 10.1191C35.7291 10.2383 35.7546 10.4335 35.7702 10.5527C35.7858 10.672 35.8106 10.8409 35.8254 10.9281C35.8401 11.0152 35.8524 11.119 35.8527 11.1587C35.8529 11.1985 35.861 11.2653 35.8707 11.3072C35.8804 11.3491 35.8968 11.4612 35.9073 11.5563C35.9177 11.6514 35.9385 11.8206 35.9534 11.9322C35.9684 12.0439 35.9886 12.2017 35.9984 12.2829C36.0193 12.4569 36.0494 12.675 36.0775 12.855C36.0886 12.926 36.1007 13.0174 36.1044 13.058C36.1081 13.0986 36.1232 13.219 36.1379 13.3255C36.1527 13.4321 36.1778 13.619 36.1937 13.7408C36.2097 13.8626 36.2315 14.0204 36.2423 14.0914C36.2531 14.1625 36.2684 14.2787 36.2765 14.3498C36.2986 14.5463 36.3319 14.7985 36.352 14.9219C36.3691 15.0267 36.3832 15.1392 36.4247 15.5032C36.4345 15.5894 36.4502 15.6933 36.4596 15.7339C36.469 15.7745 36.4825 15.8803 36.4896 15.9691L36.5025 16.1241H35.7529H35.0033L34.6857 14.1849H33.3558C33.3068 14.2543 33.3162 14.3347 33.3058 14.4051C33.2941 14.4863 33.2756 14.5984 33.2646 14.6543C33.2536 14.7101 33.2385 14.8097 33.231 14.8757C33.2181 14.9888 33.2025 15.0854 33.1546 15.3463C33.1435 15.4072 33.1276 15.5152 33.1193 15.5862C33.0991 15.7593 33.0536 16.0604 33.0384 16.1081L31.5078 16.1241L32.7181 7.0484ZM34.5201 12.8851C34.5463 12.8685 34.5375 12.6306 34.5038 12.449C34.4944 12.3982 34.4783 12.2695 34.468 12.1629C34.4578 12.0563 34.4366 11.8612 34.4209 11.7292C34.3161 10.8494 34.2911 10.6329 34.2666 10.3913C34.2558 10.2847 34.239 10.1477 34.2293 10.0868C34.2073 9.94861 34.1713 9.65106 34.1544 9.46857C34.1219 9.11598 34.0492 8.61058 34.0244 8.56456C34.013 8.54327 34.0073 8.54739 33.999 8.58301C33.9864 8.63702 33.9562 8.89282 33.9347 9.12716C33.9263 9.21851 33.9103 9.35553 33.8991 9.43166C33.8709 9.62366 33.8407 9.87174 33.8216 10.0683C33.8128 10.1597 33.7968 10.2792 33.7862 10.3338C33.7756 10.3885 33.7669 10.4698 33.7669 10.5146C33.7669 10.5593 33.7549 10.6765 33.7402 10.7751C33.7142 10.9502 33.667 11.3332 33.6466 11.5355C33.6369 11.6312 33.6269 11.7168 33.554 12.329C33.5377 12.466 33.518 12.6321 33.5103 12.6981C33.5025 12.7641 33.5029 12.8367 33.5111 12.8596L33.5261 12.9011L34.0109 12.9008C34.2776 12.9007 34.5067 12.8936 34.5201 12.8851Z" fill="black"/>
<path d="M38.759 16.2405C38.3861 16.1967 37.9764 16.1116 37.7775 15.9155C37.7488 15.8872 37.7131 15.8716 37.7061 15.8716C37.6991 15.8716 37.6314 15.8114 37.5555 15.7378C37.1808 15.4679 37.1233 15.1052 37.0621 14.7174C37.0371 14.5556 37.0335 14.1571 37.0335 11.5812C37.0335 8.97973 37.0227 8.5173 37.0484 8.3618C37.0696 8.20507 37.1313 8.11352 37.1619 8.03772C37.2079 7.92392 37.3044 7.73483 37.3541 7.6611C37.4771 7.47871 37.7239 7.26973 37.9285 7.17481C37.9691 7.15597 38.0258 7.12857 38.0546 7.11393C38.0833 7.09929 38.1183 7.08731 38.1324 7.08731C38.1464 7.08731 38.1852 7.07554 38.2185 7.06115C38.4916 6.94329 39.079 6.88384 39.6188 6.91943C39.7854 6.9304 39.9569 6.94776 40 6.95799C40.0432 6.96822 40.1138 6.98536 40.1569 6.99608C40.2 7.0068 40.2644 7.02275 40.2999 7.03153C40.5658 7.09726 40.9301 7.30326 41.0996 7.4838C41.2591 7.6537 41.401 7.90635 41.4678 8.13922C41.5435 8.40337 41.5564 8.5121 41.551 8.84049L41.5456 9.16345H40.0754C40.0672 9.15064 40.0675 9.08541 40.0674 8.97449C40.0668 8.5608 39.9337 8.32821 39.5823 8.23083C39.3518 8.16696 39.0656 8.18961 38.8509 8.28871C38.7645 8.32856 38.6425 8.45259 38.5985 8.54521C38.5308 8.68767 38.5283 8.79881 38.5283 11.5947C38.5283 14.743 38.5201 14.5769 38.6851 14.7618C38.7623 14.8481 38.8651 14.9101 38.9871 14.9439C39.1198 14.9806 39.4682 14.9849 39.5808 14.9512C39.9367 14.8449 40.0597 14.6664 40.0603 14.2556C40.0604 14.1446 40.0672 14.0434 40.0754 14.0306C40.0869 14.0123 40.2479 14.0083 40.8179 14.0121L41.5456 14.0169L41.5456 14.3676C41.5456 14.7138 41.5344 14.8112 41.4683 15.0412C41.3344 15.5069 40.9967 15.8763 40.5306 16.0666C40.5001 16.079 40.4545 16.0982 40.4291 16.1093C40.339 16.1485 40.0293 16.2152 39.8201 16.2405C39.6605 16.2597 38.923 16.2598 38.759 16.2405Z" fill="black"/>
<path d="M42.3172 11.5864L42.3218 7.04199H43.7982L43.8029 8.94741C43.8055 9.9954 43.8124 10.8528 43.8184 10.8528C43.8408 10.8528 43.8983 10.7678 43.9097 10.7178C43.9163 10.6892 43.9332 10.6435 43.9474 10.6163C43.9616 10.5891 43.9733 10.5527 43.9734 10.5356C43.9734 10.5184 43.9818 10.4992 43.992 10.493C44.0021 10.4867 44.0105 10.4675 44.0105 10.4504C44.0106 10.4332 44.0223 10.3969 44.0365 10.3696C44.0507 10.3424 44.0679 10.2948 44.0747 10.2637C44.0815 10.2327 44.0947 10.2026 44.1041 10.1968C44.1135 10.191 44.1212 10.1723 44.1212 10.1551C44.1213 10.1379 44.1338 10.1001 44.1489 10.071C44.1641 10.042 44.1765 10.0044 44.1765 9.98747C44.1765 9.97059 44.1877 9.9404 44.2015 9.92038C44.2152 9.90036 44.231 9.86322 44.2366 9.83784C44.2421 9.81247 44.2648 9.74603 44.2869 9.69021C44.3091 9.63438 44.3314 9.5721 44.3366 9.5518C44.3417 9.5315 44.3572 9.48997 44.3711 9.45953C44.3849 9.42908 44.4223 9.32942 44.4541 9.23807C44.4859 9.14672 44.5184 9.05925 44.5264 9.04369C44.5344 9.02814 44.5467 8.98878 44.5539 8.95625C44.561 8.92371 44.5745 8.89235 44.5839 8.88656C44.5933 8.88077 44.601 8.86324 44.601 8.84761C44.601 8.83199 44.6141 8.78888 44.6302 8.75182C44.6462 8.71476 44.6712 8.65717 44.6855 8.62384C44.6999 8.5905 44.7117 8.54875 44.7117 8.53106C44.7117 8.51336 44.7224 8.4825 44.7354 8.46248C44.7484 8.44246 44.774 8.3804 44.7922 8.32458C44.8232 8.22948 44.8375 8.1902 44.9042 8.01546C44.9187 7.9774 44.957 7.87152 44.9892 7.78017C45.0213 7.68882 45.0541 7.59747 45.062 7.57717C45.1077 7.45946 45.1431 7.3665 45.1638 7.30958C45.1767 7.27406 45.2 7.21177 45.2155 7.17117C45.231 7.13057 45.2484 7.08273 45.254 7.06486L46.8293 7.05419C46.8074 7.11001 46.7105 7.40601 46.6747 7.51258C46.6389 7.61916 46.5978 7.73252 46.5834 7.7645C46.5689 7.79649 46.5571 7.83544 46.5571 7.85107C46.5571 7.8667 46.5488 7.88462 46.5387 7.8909C46.5285 7.89717 46.5202 7.91373 46.5202 7.92769C46.5202 7.94166 46.5107 7.97646 46.499 8.00504C46.4749 8.06387 46.3938 8.28909 46.3273 8.48144C46.3028 8.55249 46.2649 8.6563 46.243 8.71212C46.2212 8.76794 46.1991 8.83023 46.1939 8.85053C46.1886 8.87083 46.1727 8.91361 46.1585 8.94559C46.1443 8.97757 46.1327 9.01037 46.1327 9.01848C46.1327 9.03823 46.0195 9.35119 45.9665 9.47798C45.9538 9.50843 45.9368 9.55826 45.9289 9.58871C45.9209 9.61916 45.8962 9.68974 45.8741 9.74557C45.8519 9.80139 45.8292 9.86783 45.8236 9.8932C45.8181 9.91858 45.8023 9.95572 45.7886 9.97574C45.7748 9.99576 45.7636 10.0266 45.7636 10.0443C45.7636 10.062 45.7516 10.1038 45.7369 10.1371C45.7223 10.1704 45.6842 10.2724 45.6523 10.3638C45.6204 10.4551 45.5867 10.5443 45.5774 10.5619C45.5682 10.5796 45.5606 10.6018 45.5606 10.6115C45.5606 10.6211 45.551 10.6524 45.5393 10.6809C45.5153 10.7398 45.4342 10.965 45.3677 11.1573C45.3432 11.2284 45.3047 11.3322 45.2823 11.388C45.2282 11.523 45.2325 11.557 45.2667 11.6337C45.2819 11.6676 45.2844 11.7829 45.2896 11.8032C45.2948 11.8235 45.3171 11.8858 45.3392 11.9416C45.3612 11.9975 45.3861 12.0681 45.3945 12.0985C45.4029 12.129 45.4279 12.1995 45.4501 12.2554C45.4723 12.3112 45.4949 12.3776 45.5003 12.403C45.5057 12.4284 45.5163 12.4575 45.5237 12.4676C45.5311 12.4778 45.5552 12.54 45.5771 12.606C45.5991 12.672 45.6244 12.7426 45.6334 12.7629C45.9549 13.8002 46.4123 14.7778 46.723 15.8079C46.7531 15.9109 46.7995 16.0292 46.8168 16.0468C46.8262 16.0565 46.8339 16.0894 46.8339 16.1077C46.8339 16.1392 46.7922 16.1409 46.0404 16.1409C45.3555 16.1409 45.2468 16.1372 45.2468 16.1139C45.2468 16.099 45.2352 16.0494 45.221 16.0161L43.8183 12.3292C43.8123 12.3292 43.8074 13.1846 43.8074 14.23L43.8074 16.1409H43.0599H42.3125L42.3172 11.5864Z" fill="black"/>
<path d="M22.0984 38.2524L22.1031 33.708H24.373L25.6439 39.8573L27.012 33.708L29.2818 33.708L29.2865 38.2524L29.2911 42.7969L27.7593 42.7969L27.7591 39.8488C27.7589 38.0698 27.752 36.8899 27.7417 36.8736C27.728 36.8519 27.7207 36.8568 27.705 36.8979L26.4065 42.7969H24.8757L23.5949 36.7242L23.5886 42.7969H22.8412H22.0938L22.0984 38.2524Z" fill="black"/>
<path d="M29.8299 41.5788C29.8299 41.5788 29.8551 41.3721 29.8651 41.3112C29.8901 41.1593 29.9222 40.9161 29.9406 40.7392C29.9491 40.658 29.9648 40.5542 29.9756 40.5085C29.9863 40.4628 29.9953 40.3929 29.9956 40.3532C29.9959 40.3135 30.0081 40.2097 30.0229 40.1225C30.0531 39.9441 30.088 39.6909 30.1071 39.5119C30.1142 39.446 30.1297 39.3256 30.1416 39.2444C30.1838 38.9579 30.2019 38.8262 30.2185 38.6854C30.2278 38.6071 30.2479 38.4476 30.2633 38.3309C30.2786 38.2141 30.2995 38.0439 30.3097 37.9525C30.3199 37.8612 30.3366 37.7516 30.3467 37.7091C30.3568 37.6665 30.3651 37.6006 30.3651 37.5625C30.3651 37.5244 30.3772 37.4181 30.3919 37.3262C30.4066 37.2342 30.4319 37.0593 30.448 36.9375C30.4641 36.8157 30.4861 36.658 30.497 36.5869C30.5078 36.5159 30.5232 36.3954 30.5312 36.3193C30.5392 36.2432 30.5547 36.1228 30.5657 36.0517C30.5766 35.9807 30.598 35.827 30.6132 35.7103C30.6283 35.5936 30.6499 35.4317 30.661 35.3505C30.6722 35.2693 30.6888 35.1405 30.6979 35.0644C30.7071 34.9883 30.7274 34.8305 30.7431 34.7138C30.7589 34.5971 30.7798 34.431 30.7896 34.3447C30.7994 34.2584 30.8157 34.1339 30.8259 34.0679C30.8448 33.9505 30.848 33.8214 30.8897 33.7132C31.8055 33.6835 32.3885 33.6989 33.4359 33.7028C33.4599 33.8572 33.4848 34.0154 33.5012 34.1694C33.5097 34.2506 33.5259 34.3772 33.5372 34.4508C33.5485 34.5244 33.5669 34.6448 33.5782 34.7184C33.5894 34.792 33.6053 34.9145 33.6135 34.9906C33.6322 35.1638 33.6649 35.4086 33.6887 35.5535C33.6987 35.6144 33.7146 35.7348 33.7239 35.821C33.7399 35.9681 33.758 36.1067 33.8265 36.6054C33.8419 36.717 33.8626 36.8873 33.8726 36.9837C33.8826 37.0801 33.8989 37.1831 33.9088 37.2125C33.9187 37.2419 33.9268 37.2997 33.9268 37.3409C33.9268 37.3821 33.9387 37.495 33.9532 37.5919C33.978 37.7579 34.0038 37.9445 34.0663 38.4093C34.0809 38.5184 34.1053 38.6969 34.1204 38.8061C34.1356 38.9152 34.1519 39.0418 34.1567 39.0875C34.1615 39.1332 34.1774 39.2577 34.1921 39.3643C34.2068 39.4709 34.2325 39.6619 34.2493 39.7888C34.2661 39.9156 34.2923 40.1108 34.3076 40.2224C34.3228 40.3341 34.339 40.4587 34.3435 40.4993C34.3562 40.6124 34.4025 40.9628 34.4252 41.1175C34.4364 41.1936 34.4532 41.3292 34.4625 41.4188C34.4719 41.5084 34.488 41.6122 34.4984 41.6495C34.5087 41.6867 34.5172 41.7488 34.5173 41.7873C34.5173 41.8258 34.5295 41.9379 34.5442 42.0364L34.6431 42.7969H33.1239L32.8297 40.8967C32.8297 40.8967 32.1128 40.8784 31.5031 40.8788L31.1697 42.7969L29.6641 42.7937L29.8299 41.5788ZM32.6594 39.3551C32.6576 39.2434 32.6476 39.1106 32.6373 39.0598C32.6177 38.9634 32.5891 38.7124 32.5611 38.3906C32.552 38.2864 32.5398 38.1933 32.5338 38.1837C32.5279 38.174 32.5152 38.0766 32.5056 37.9671C32.496 37.8576 32.48 37.7099 32.4701 37.6388C32.432 37.3659 32.4083 37.1717 32.3946 37.0206C32.3815 36.8748 32.3685 36.7692 32.32 36.4116C32.3097 36.3355 32.293 36.1943 32.2828 36.0979C32.2128 35.4301 32.1807 35.2251 32.1479 35.2359C32.1367 35.2396 32.1228 35.3043 32.1171 35.3796C32.107 35.5111 32.0936 35.6186 32.0343 36.0425C32.0194 36.1491 32.0071 36.2736 32.0069 36.3193C32.0068 36.365 31.9989 36.4362 31.9893 36.4775C31.9798 36.5189 31.9628 36.6393 31.9515 36.7451C31.9194 37.0472 31.8539 37.6204 31.7934 38.1279C31.7782 38.2547 31.759 38.4291 31.7507 38.5154C31.7423 38.6017 31.7263 38.7345 31.715 38.8107C31.6629 39.1635 31.6305 39.5014 31.6451 39.5394C31.6546 39.5643 31.7195 39.5673 32.1594 39.563L32.6627 39.5581L32.6594 39.3551Z" fill="black"/>
<path d="M36.4906 38.9257C36.4906 35.9389 36.4856 35.0489 36.4685 35.0318C36.4521 35.0154 36.2749 35.0096 35.7857 35.0096H35.125V34.3544V33.6992L37.2334 33.7039L39.3419 33.7086V35.0189H37.9947L37.99 38.9081L37.9853 42.7974H36.4906L36.4906 38.9257Z" fill="black"/>
<path d="M41.4984 38.9257C41.4984 35.9389 41.4934 35.0489 41.4763 35.0318C41.4599 35.0154 41.2827 35.0096 40.7935 35.0096H40.1328V34.3544V33.6992L42.2412 33.7039L44.3497 33.7086L44.3545 34.3499C44.3572 34.7026 44.3572 34.993 44.3545 34.9952C44.3518 34.9974 44.0465 35.0037 43.6761 35.0091L43.0185 35.0189L42.9932 42.7974H41.4984L41.4984 38.9257Z" fill="black"/>
<path d="M45.1375 38.2524L45.1421 33.708H47.0245H48.9068L48.912 34.317C48.9148 34.652 48.9126 34.9447 48.907 34.9675L48.8969 35.009H47.7844C46.9438 35.009 46.6666 35.0145 46.6498 35.0312C46.633 35.048 46.6277 35.3579 46.6277 36.3131C46.6277 37.5398 46.6286 37.5734 46.6634 37.592C46.6866 37.6045 47.0185 37.6111 47.6138 37.6111H48.5285V38.257V38.9029H47.6254C47.0833 38.9029 46.7034 38.9101 46.675 38.9209L46.6277 38.9389V40.2007C46.6277 41.3973 46.6294 41.4639 46.6613 41.4928C46.6915 41.5202 46.804 41.5236 47.8008 41.5279L48.9068 41.5327L48.9117 42.1648L48.9165 42.7968H45.1328L45.1375 38.2524Z" fill="black"/>
<path d="M49.6765 38.2527L49.6812 33.7083L50.9176 33.7032C51.7405 33.6998 52.2066 33.7049 52.311 33.7184C52.3972 33.7296 52.5259 33.7463 52.597 33.7555C52.7433 33.7745 52.9043 33.8114 52.9811 33.8434C53.0097 33.8554 53.0437 33.8651 53.0567 33.8651C53.1019 33.8651 53.3806 34.0042 53.5177 34.0953C53.6267 34.1676 53.8264 34.3712 53.9073 34.4926C54.0262 34.6709 54.1045 34.8733 54.1645 35.1569C54.2089 35.3669 54.2078 37.4755 54.1632 37.6282C54.1339 37.7286 54.0934 37.8321 54.0614 37.8882C54.0527 37.9034 54.038 37.9334 54.0286 37.9548C53.9993 38.0221 53.8077 38.2158 53.6931 38.294C53.5619 38.3836 53.3894 38.4787 53.3578 38.4789C53.3454 38.4789 53.3139 38.4901 53.2878 38.5037C53.2618 38.5173 53.2182 38.534 53.1909 38.5408C53.1637 38.5477 53.1414 38.5608 53.1414 38.5701C53.1414 38.5905 53.2406 38.6633 53.2684 38.6633C53.3034 38.6633 53.5981 38.8248 53.6989 38.8992C53.807 38.9791 54.002 39.1819 54.029 39.2426C54.0385 39.264 54.0669 39.3181 54.0921 39.3628C54.1173 39.4076 54.1379 39.4585 54.1379 39.4759C54.1379 39.4934 54.1504 39.5375 54.1656 39.5739C54.1895 39.6311 54.1933 39.8573 54.1933 41.2186L54.1933 42.7971H52.7169L52.7159 41.3346C52.7153 40.5302 52.7074 39.8347 52.6984 39.789C52.6654 39.6218 52.6551 39.5934 52.5931 39.4992C52.5229 39.3925 52.4151 39.3181 52.2556 39.2665C52.1667 39.2378 52.0934 39.2344 51.665 39.2391L51.176 39.2446L51.1713 41.0208L51.1666 42.7971H49.6719L49.6765 38.2527ZM52.3523 37.8635C52.4761 37.8032 52.5863 37.7025 52.6285 37.6114C52.7057 37.4445 52.7077 37.4146 52.7077 36.4672C52.7077 35.537 52.7073 35.5303 52.6379 35.3323C52.6179 35.2751 52.4314 35.0832 52.3957 35.083C52.3846 35.083 52.3506 35.0687 52.3202 35.0514C52.2725 35.0243 52.1925 35.019 51.7426 35.0131C51.3539 35.008 51.2135 35.012 51.1936 35.0285C51.1706 35.0476 51.1668 35.2517 51.1668 36.4658C51.1668 37.5729 51.1718 37.8859 51.1898 37.9044C51.2078 37.9227 51.3281 37.9265 51.7296 37.9215L52.2464 37.9151L52.3523 37.8635Z" fill="black"/>
<path d="M40.32 29.1663C40.1331 29.1493 39.8588 29.096 39.7069 29.0472C39.1236 28.8597 38.7403 28.4403 38.5948 27.8305C38.5622 27.6937 38.517 27.0156 38.5356 26.9423C38.5429 26.9135 38.565 26.8892 38.5897 26.8825C38.6126 26.8764 38.9184 26.8712 39.2691 26.8711C39.7516 26.8709 39.9141 26.8765 39.9365 26.8939C39.9605 26.9126 39.9674 26.9648 39.9727 27.1666C39.9788 27.3945 39.9838 27.4252 40.0304 27.5206C40.0859 27.634 40.1664 27.7148 40.2882 27.7793C40.3586 27.8166 40.3917 27.8205 40.6337 27.8201C40.8635 27.8197 40.913 27.8143 40.9843 27.7819C41.1529 27.7051 41.2543 27.5843 41.2998 27.406C41.3507 27.2066 41.3251 26.4277 41.2635 26.3027C41.2549 26.2853 41.2168 26.2046 41.1788 26.1234C41.0824 25.9177 40.9727 25.7696 40.7361 25.5261C40.5454 25.33 40.2331 25.0778 39.9324 24.8774C39.2186 24.4015 38.8189 23.8893 38.6171 23.1918L38.5576 22.9862V22.2572C38.5576 21.44 38.5627 21.396 38.6967 21.0646C38.8025 20.8029 38.9417 20.6193 39.185 20.4206C39.3789 20.2622 39.7492 20.1194 40.0997 20.0678C40.3892 20.0252 40.9656 20.0257 41.2058 20.0687C41.5733 20.1347 41.7959 20.2133 42.0042 20.351C42.2692 20.526 42.4404 20.7245 42.5688 21.0053C42.7002 21.2928 42.7397 21.514 42.7438 21.9847L42.7467 22.3208L42.6729 22.3341C42.5539 22.3555 41.4115 22.3523 41.3706 22.3304C41.3394 22.3137 41.3349 22.2903 41.3346 22.1413C41.3339 21.7447 41.2308 21.5318 40.9862 21.4219C40.9135 21.3892 40.8641 21.3836 40.6429 21.3834C40.397 21.3831 40.3794 21.3855 40.2782 21.4349C40.162 21.4915 40.0843 21.576 40.0197 21.716C39.9807 21.8005 39.9786 21.8286 39.9786 22.2572C39.9786 22.7758 39.9869 22.8276 40.1128 23.0877C40.221 23.3112 40.3592 23.4922 40.5994 23.725C40.8488 23.9667 41.0102 24.0934 41.4315 24.3787C41.51 24.4319 41.6637 24.5528 41.773 24.6474C42.2898 25.0947 42.5573 25.5253 42.7128 26.1604C42.7602 26.3536 42.7603 27.553 42.7129 27.7567C42.6242 28.1387 42.5002 28.3932 42.2984 28.6078C42.1404 28.7757 42.0573 28.8375 41.8553 28.9371C41.6747 29.0263 41.4633 29.0944 41.2519 29.1315C41.0905 29.1599 40.4939 29.1822 40.32 29.1663Z" fill="#FCFCFD"/>
<path d="M34.5208 29.1645L34.3989 29.1581L34.3871 28.9789C34.3805 28.8804 34.3752 26.83 34.3751 24.4226L34.375 20.0454L34.4534 20.0343C34.4966 20.0282 35.2834 20.0256 36.202 20.0286L37.8818 20.0339C37.885 20.4798 37.8786 20.9257 37.8818 21.3716L36.8435 21.3763L35.8052 21.3811V23.937H37.5492V25.2818L35.796 25.2868L35.7963 26.5358C35.7965 27.2227 35.8031 27.7951 35.8111 27.8077C35.8224 27.8254 36.0585 27.8317 36.8489 27.8354L37.8721 27.8401V28.5045V29.1689L36.2574 29.1699C35.3693 29.1705 34.5878 29.1681 34.5208 29.1645Z" fill="#FCFCFD"/>
<path d="M30.6778 29.1658C30.6032 29.1525 30.5855 29.1177 30.5691 28.9515C30.5609 28.8678 30.5456 28.737 30.5352 28.6609C30.5104 28.4788 30.3257 26.9785 30.2649 26.4648C30.2499 26.338 30.2297 26.1802 30.22 26.1142C30.2103 26.0482 30.1852 25.8448 30.1642 25.6621C30.1432 25.4794 30.1184 25.2718 30.1091 25.2007C30.0998 25.1297 30.0788 24.9553 30.0624 24.8132C30.0459 24.6711 30.0119 24.3929 29.9866 24.1949C29.9614 23.997 29.9333 23.7728 29.9242 23.6967C29.8674 23.2203 29.8495 23.0735 29.8244 22.8755C29.7672 22.4246 29.722 22.0547 29.6848 21.7313C29.6637 21.5486 29.6389 21.3451 29.6295 21.2791C29.6202 21.2132 29.5992 21.0388 29.5829 20.8916C29.5665 20.7444 29.5412 20.5441 29.5266 20.4465C29.512 20.3489 29.5 20.2187 29.5 20.1572V20.0454L29.5969 20.0336C29.6502 20.0272 29.9572 20.0245 30.2791 20.0277C30.7835 20.0327 30.8684 20.0375 30.8936 20.0627C30.9139 20.083 30.9307 20.1648 30.9486 20.3303C31.0087 20.887 31.0698 21.4265 31.0862 21.5467C31.0959 21.6178 31.1172 21.7922 31.1335 21.9343C31.1497 22.0764 31.1744 22.284 31.1883 22.3956C31.2021 22.5073 31.2265 22.7107 31.2424 22.8478C31.2583 22.9848 31.2967 23.3128 31.3277 23.5767C31.4064 24.2458 31.4308 24.4574 31.4839 24.9331C31.5093 25.1615 31.5392 25.4148 31.5503 25.496C31.5613 25.5772 31.577 25.7142 31.5852 25.8005C31.5997 25.9532 31.6688 26.5353 31.7232 26.9631C31.7381 27.0798 31.7554 27.2244 31.7617 27.2843C31.7681 27.3443 31.7776 27.4045 31.7828 27.4181C31.8011 27.4659 31.8231 27.4422 31.8324 27.3645C31.8657 27.0875 31.9509 26.3512 31.9622 26.2434C31.9669 26.1977 31.9838 26.0565 31.9996 25.9297C32.0154 25.8028 32.0538 25.4748 32.0849 25.2007C32.116 24.9267 32.1536 24.6028 32.1684 24.481C32.1833 24.3592 32.2036 24.1765 32.2135 24.075C32.2233 23.9735 32.2395 23.8323 32.2494 23.7613C32.2593 23.6902 32.2801 23.5262 32.2955 23.3968C32.3109 23.2674 32.3358 23.0598 32.3508 22.9354C32.3658 22.8111 32.391 22.5973 32.4068 22.4602C32.4225 22.3232 32.4476 22.1114 32.4626 21.9896C32.4775 21.8678 32.5271 21.436 32.5729 21.03C32.6788 20.0899 32.6833 20.0638 32.7451 20.0403C32.7743 20.0292 33.0437 20.0243 33.4355 20.0278C33.9824 20.0326 34.0807 20.0376 34.0956 20.0612C34.1138 20.09 34.1111 20.1293 34.0658 20.4948C34.0507 20.6166 34.0218 20.8533 34.0015 21.0208C33.9811 21.1883 33.9529 21.4208 33.9386 21.5375C33.9152 21.7295 33.8228 22.5 33.7815 22.8478C33.762 23.012 33.6796 23.677 33.6512 23.8995C33.6402 23.9857 33.624 24.1186 33.6152 24.1948C33.6064 24.271 33.5814 24.4662 33.5596 24.6286C33.5379 24.791 33.5131 24.9903 33.5045 25.0715C33.4738 25.3616 33.2962 26.8185 33.1986 27.5813C33.1726 27.7843 33.144 28.021 33.1351 28.1073C33.1261 28.1936 33.0977 28.4249 33.0718 28.6213C33.046 28.8177 33.0248 29.0097 33.0248 29.0481C33.0248 29.0882 33.0128 29.1277 32.9965 29.1413C32.9743 29.1597 32.7225 29.1659 31.8477 29.1698C31.2314 29.1725 30.705 29.1707 30.6778 29.1658Z" fill="#FCFCFD"/>
<path d="M27.8117 29.161L27.701 29.1503L27.6963 24.6114C27.6931 21.4559 27.6976 20.0667 27.7111 20.0532C27.7333 20.031 28.9171 20.0131 29.0497 20.033L29.1312 20.0453V24.6V29.1547L29.062 29.1661C28.9775 29.1801 27.9657 29.1759 27.8117 29.161Z" fill="#FCFCFD"/>
<path d="M23.6945 29.161L23.5469 29.1497V24.6154C23.5469 20.9201 23.5513 20.0767 23.5709 20.0572C23.5896 20.0384 23.7377 20.0332 24.2537 20.0332C24.616 20.0332 24.927 20.0392 24.9448 20.0465C24.9754 20.059 24.9771 20.2621 24.9771 23.9444V27.829L25.9998 27.8342C26.5623 27.8371 27.0294 27.8464 27.0379 27.8548C27.0579 27.8749 27.0579 29.1327 27.0378 29.1528C27.0202 29.1705 23.9172 29.1781 23.6945 29.161Z" fill="#FCFCFD"/>
<path d="M23.6563 14.8453C23.6219 14.8375 23.6161 14.819 23.6056 14.6852C23.5992 14.602 23.5938 14.0257 23.5938 13.4046C23.5937 12.5214 23.5987 12.2721 23.6167 12.2604C23.6533 12.2367 24.1498 12.2316 24.4395 12.2519C24.6687 12.2679 24.7173 12.2771 24.8026 12.3203C24.9737 12.4068 25.071 12.5411 25.1081 12.7418C25.1208 12.8104 25.1258 13.1243 25.122 13.6175L25.1161 14.3862L25.0678 14.4893C24.9845 14.6669 24.8647 14.7594 24.6455 14.8156C24.5457 14.8412 23.7445 14.8652 23.6563 14.8453Z" fill="#FCFCFD"/>
<path d="M23.647 10.9335C23.6267 10.9272 23.6134 10.8933 23.6056 10.8281C23.5993 10.7753 23.594 10.1987 23.5939 9.54679L23.5938 8.36144L23.641 8.34958C23.667 8.34306 23.9099 8.34182 24.1808 8.34682C24.7718 8.35774 24.795 8.36349 24.9607 8.54055C25.0292 8.61366 25.0773 8.68448 25.0924 8.73432C25.126 8.84501 25.1267 10.4211 25.0932 10.531C25.044 10.6927 24.9155 10.8175 24.7248 10.8889C24.6281 10.925 24.5745 10.9294 24.1475 10.9358C23.8886 10.9397 23.6634 10.9387 23.647 10.9335Z" fill="#FCFCFD"/>
<path d="M33.513 12.8723C33.5006 12.8398 33.5093 12.7244 33.5514 12.3655C33.5662 12.2386 33.6039 11.9147 33.6351 11.6458C33.6904 11.1686 33.7359 10.7845 33.7927 10.317C33.8609 9.75594 33.931 9.16128 33.9581 8.9145C33.9926 8.59989 34.0016 8.55281 34.0224 8.57504C34.0409 8.59468 34.0841 8.86482 34.124 9.20977C34.2011 9.87684 34.229 10.1079 34.2364 10.1417C34.2408 10.162 34.2528 10.2617 34.2631 10.3632C34.2832 10.5617 34.3172 10.8607 34.3648 11.2582C34.5257 12.5992 34.5497 12.8431 34.5232 12.8696C34.5078 12.885 34.3581 12.893 34.013 12.8969C33.5756 12.9018 33.5234 12.8992 33.513 12.8723Z" fill="#FCFCFD"/>
<path d="M31.6617 39.5553C31.6276 39.5413 31.6326 39.4446 31.6936 38.9415C31.7529 38.4521 31.7591 38.3987 31.8421 37.6758C31.9277 36.9292 31.9507 36.7331 31.9803 36.4947C32.0595 35.8556 32.1016 35.5045 32.1119 35.3967C32.1415 35.0868 32.1755 35.2062 32.2563 35.9042C32.2716 36.0361 32.3085 36.3476 32.3384 36.5962C32.3683 36.8449 32.4182 37.2684 32.4493 37.5374C32.4804 37.8064 32.5139 38.0804 32.5238 38.1464C32.5337 38.2124 32.5466 38.3162 32.5524 38.3771C32.5731 38.5922 32.5994 38.8224 32.6274 39.0322C32.643 39.1489 32.6532 39.315 32.65 39.4013L32.6444 39.5582L32.1646 39.5615C31.9007 39.5633 31.6744 39.5605 31.6617 39.5553Z" fill="#FCFCFD"/>
<path d="M51.2042 37.9066C51.1739 37.888 51.1719 37.7993 51.1719 36.4673V35.0479L51.2117 35.0265C51.2402 35.0113 51.3945 35.0075 51.7515 35.0133C52.2505 35.0214 52.2517 35.0215 52.3567 35.0718C52.4898 35.1356 52.6185 35.2758 52.6612 35.4036C52.6891 35.4872 52.6937 35.607 52.6993 36.3938C52.7036 36.9992 52.699 37.3276 52.685 37.4088C52.6469 37.6297 52.5515 37.7589 52.349 37.8641L52.2515 37.9148L51.744 37.9206C51.404 37.9245 51.2258 37.9199 51.2042 37.9066Z" fill="#FCFCFD"/>
<path d="M22.0321 30.4825C22.0076 30.458 22.0116 19.3395 22.0361 19.3009C22.0524 19.2753 24.2372 19.2701 32.8755 19.2752L43.6945 19.2817L43.701 24.8906L43.7074 30.4996H32.8783C26.9223 30.4996 22.0415 30.4919 22.0321 30.4825ZM27.0294 29.1348C27.051 29.1132 27.0544 27.8895 27.0329 27.868C27.025 27.8601 26.5591 27.8461 25.9976 27.8369L24.9765 27.8201L24.9637 23.9355L24.9509 20.0509H24.2714H23.5919L23.5752 20.1919C23.566 20.2695 23.5574 22.3138 23.556 24.7349C23.5536 28.9068 23.5558 29.1375 23.5983 29.1489C23.6725 29.1687 27.0092 29.155 27.0294 29.1348ZM29.1176 24.6022V20.0381H28.453C28.0875 20.0381 27.7702 20.0451 27.7479 20.0536C27.7111 20.0678 27.7073 20.4924 27.7073 24.6028C27.7073 28.2057 27.7139 29.139 27.7394 29.1493C27.757 29.1564 28.0743 29.1632 28.4445 29.1643L29.1176 29.1663V24.6022ZM32.8935 29.1503L33.0099 29.1344L33.0253 29.0029C33.0515 28.7799 33.4428 25.5818 33.6046 24.2688C33.9723 21.2846 34.0935 20.2495 34.0865 20.1535L34.0791 20.0509L33.4056 20.0441L32.732 20.0372L32.7095 20.0963C32.6972 20.1288 32.6447 20.5184 32.5929 20.9621C32.5411 21.4058 32.4364 22.2938 32.3602 22.9355C32.2396 23.9508 32.0379 25.6762 31.9615 26.3458C31.8833 27.0323 31.8321 27.4347 31.8217 27.4451C31.779 27.4878 31.7837 27.5234 31.4628 24.756C31.3426 23.7195 31.1987 22.4906 31.143 22.0253C31.0873 21.5599 31.0134 20.9322 30.9788 20.6304C30.9366 20.263 30.9047 20.0746 30.8821 20.0603C30.8635 20.0485 30.5509 20.0387 30.1873 20.0385C29.6346 20.0382 29.5239 20.0441 29.512 20.0751C29.4991 20.1088 29.6256 21.1778 30.1039 25.0765C30.5501 28.7126 30.6039 29.1243 30.6361 29.1447C30.6742 29.1689 32.7209 29.174 32.8935 29.1503ZM37.8612 28.5156V27.865L37.781 27.849C37.737 27.8402 37.2808 27.833 36.7674 27.833C35.9023 27.833 35.8326 27.8297 35.8158 27.7881C35.8059 27.7634 35.7976 27.1894 35.7974 26.5124L35.797 25.2817H37.5508V23.9369L36.4737 23.9357L35.8172 23.9355L35.8177 21.3714H36.8522H37.8868V20.0509H34.3868L34.3873 24.5637C34.3875 27.0458 34.3958 29.0967 34.4057 29.1214C34.4225 29.1635 34.5294 29.1663 36.1424 29.1663H37.8612L37.8612 28.5156ZM41.1047 29.1402C41.9183 29.0496 42.4379 28.6472 42.6601 27.9355C42.7177 27.7511 42.7201 27.7105 42.7198 26.9483L42.7196 26.1535L42.6463 25.9355C42.449 25.3482 42.079 24.8607 41.5261 24.4595C40.7565 23.9009 40.5807 23.7514 40.3451 23.455C40.1534 23.2137 40.0193 22.9407 39.9887 22.7295C39.9584 22.5197 39.9577 21.9282 39.9877 21.7992C40.0241 21.6422 40.134 21.5079 40.2875 21.4328C40.4141 21.3709 40.4453 21.3663 40.6752 21.3764C40.9708 21.3893 41.1071 21.4461 41.2079 21.5984C41.2931 21.7272 41.3181 21.8214 41.3384 22.0914C41.3535 22.2909 41.3614 22.3176 41.4096 22.3305C41.4849 22.3507 42.554 22.3495 42.656 22.3291L42.7393 22.3125L42.726 21.8868C42.7113 21.4171 42.6803 21.262 42.5436 20.974C42.2672 20.3915 41.701 20.0839 40.8355 20.0461C40.2443 20.0203 39.8119 20.0953 39.41 20.2933C39.0376 20.4768 38.742 20.8543 38.6158 21.3073C38.5821 21.4283 38.5703 21.6178 38.5602 22.1943L38.5475 22.9274L38.6161 23.1686C38.757 23.6644 39.0386 24.1245 39.4072 24.4612C39.5088 24.5541 39.7419 24.7363 39.9252 24.8661C40.6419 25.3738 40.9784 25.713 41.1896 26.1406L41.3099 26.3842V26.9099C41.3099 27.423 41.3084 27.4382 41.2458 27.5499C41.2048 27.623 41.1362 27.6923 41.0555 27.7422C40.9339 27.8173 40.9184 27.8201 40.6324 27.8201C40.3466 27.8201 40.3314 27.8173 40.2251 27.7452C40.051 27.6272 39.9816 27.4839 39.9705 27.2199C39.9654 27.0988 39.9558 26.9737 39.9492 26.9419L39.9371 26.8842H39.259C38.6082 26.8842 38.5798 26.8863 38.5536 26.9353C38.5179 27.002 38.5649 27.6905 38.6194 27.9001C38.7623 28.4491 39.1943 28.893 39.7385 29.0502C40.1215 29.1608 40.6229 29.1938 41.1047 29.1402Z" fill="black"/>
<path d="M19.3516 25.0124V5.00586H39.3856H59.4196L59.4058 24.9986L59.3919 44.9913L39.3717 45.0051L19.3516 45.0189V25.0124ZM23.5975 36.6899L24.8753 42.7971H26.4064L27.7503 36.6899C27.7503 36.6899 27.7548 38.0851 27.7571 39.921L27.7609 42.7971H29.2998V38.2583V33.6964H28.1516C27.0065 33.6964 27.0126 33.7082 27.0126 33.7082L25.6445 39.8575C25.6445 39.8575 25.3501 38.4033 25.0088 36.7331L24.3884 33.6964H23.2441H22.0997V38.2583L22.0944 42.7971H23.5893L23.5975 36.6899ZM31.5001 40.879L32.8216 40.9103C32.8239 40.9178 32.8921 41.3445 32.9733 41.8584L33.1208 42.7971H34.6715C34.4896 41.5063 34.3554 40.4858 34.2174 39.44C33.9903 37.717 33.7307 35.7523 33.6407 35.0741C33.5507 34.3959 33.477 33.756 33.477 33.7163L30.8388 33.7001C30.8388 33.731 30.6288 35.3849 30.3722 37.3114C30.1156 39.2379 29.8475 41.2661 29.7764 41.8186L29.6473 42.7971H31.1667C31.1667 42.7971 31.3969 41.506 31.5001 40.879ZM37.9839 38.9179V35.0155H38.671H39.358V34.356L39.358 33.7082H37.242H35.1259L35.1259 34.356V35.0155H35.7854H36.4663V38.9179V42.7971H37.9839V38.9179ZM43.004 40.1408C43.0295 38.4324 43.0404 36.7241 43.0405 35.0155H43.7001H44.3596V34.356L44.3596 33.7082H42.2436H40.1275L40.1275 34.356V35.0155H40.787H41.4848L41.4942 42.7971H42.9968C42.9968 42.7971 42.9918 41.0339 43.004 40.1408ZM48.9215 42.1607V41.5118H47.7948H46.6414V40.2095V38.9179H47.6024H48.5368V38.2583V37.5988H47.6024H46.6467V36.3072V35.0155H47.7948H48.9215V34.356L48.9216 33.7082H47.0253H45.1291L45.1291 38.2583V42.7971H48.9215V42.1607ZM51.175 41.034V39.2477H51.6751C52.219 39.2477 52.4657 39.3245 52.6025 39.5362C52.6662 39.6349 52.6868 39.9796 52.7042 41.2401L52.7261 42.7971H54.198V41.1887C54.198 39.6363 54.1923 39.5455 54.0809 39.3153C53.9623 39.0704 53.5692 38.7287 53.3323 38.6646C53.1582 38.6175 53.1786 38.5516 53.3887 38.4822C53.6549 38.3944 53.9784 38.1044 54.0939 37.85C54.1831 37.6537 54.1957 37.4733 54.1967 36.3779C54.1978 35.2607 54.1864 35.0986 54.0876 34.8346C53.8679 34.2475 53.4014 33.8876 52.6901 33.7565C52.5105 33.7234 51.7514 33.7082 51 33.7082H49.6669V42.7971H51.175V41.034ZM43.7001 24.9024V19.2962H32.881H22.0619L22.0258 20.1294C21.9793 21.204 21.9787 29.7268 22.0251 30.1707L22.0604 30.5086H32.8802H43.7001V24.9024ZM40.4616 16.1168C40.8619 15.9611 41.1957 15.67 41.3767 15.319C41.497 15.0856 41.5264 14.9436 41.5458 14.5007L41.548 14.0173L40.0804 14.0073L40.0563 14.373C40.0413 14.5996 40.0398 14.7102 39.7126 14.8763C39.3454 15.0628 38.8221 14.9508 38.6351 14.6702C38.4867 14.4474 38.5427 12.1785 38.5427 12.1785C38.5427 12.1785 38.4719 8.65764 38.6398 8.46299C38.8827 8.18141 39.6381 8.06107 39.9224 8.43308C40.0481 8.5976 40.0524 8.69132 40.0633 8.8828L40.0804 9.16381H41.5565V8.77954C41.5565 7.61878 40.9341 7.01545 39.6158 6.89848C39.1409 6.85634 38.4927 6.93966 38.0726 7.09682C37.449 7.42561 37.2697 7.76736 37.0221 8.33111V11.5464C37.0221 15.1934 37.0182 15.1554 37.4399 15.6345C37.8751 16.1289 38.3552 16.2797 39.413 16.2541C40.014 16.2396 40.2132 16.2135 40.4616 16.1168ZM25.4249 16.026C25.9947 15.8175 26.3578 15.4843 26.53 15.0122C26.6486 14.6871 26.7049 13.0357 26.6116 12.6191C26.5322 12.2639 26.2969 11.9744 25.9106 11.7564L25.6128 11.5884L25.8761 11.4661C26.2511 11.292 26.5259 10.9667 26.608 10.5999C26.6881 10.2422 26.6517 8.54547 26.5575 8.24244C26.4092 7.76574 26.0585 7.46848 25.5245 7.22742C25.303 7.12741 25.1041 7.06858 23.6524 7.05083L22.0997 7.03183V11.6027V16.1239H23.6249C24.927 16.1239 25.1904 16.1119 25.4249 16.026ZM31.1686 15.5037V14.8442H30.0418H28.9151V10.9418V7.03948H28.1456H27.3761V11.6014L27.3761 16.1239H29.2724H31.1686L31.1686 15.5037ZM33.1672 15.3389C33.2275 14.9527 33.356 14.1847 33.356 14.1847H34.6752C34.6989 14.2225 34.7734 14.7301 34.8501 15.2289L34.9896 16.1358L35.7448 16.1511L36.4999 16.1664V16.0226C36.4999 15.9435 36.2763 14.1929 36.0029 12.1324C35.7296 10.0719 35.4661 8.08309 35.4175 7.71278L35.329 7.03948H34.0183C33.2974 7.03948 32.7183 7.04813 32.7183 7.04813C32.7183 7.04813 31.5615 15.7722 31.5242 15.9862L31.4928 16.1315L33.0434 16.1239L33.1672 15.3389ZM43.8132 14.5282C43.8149 13.6288 43.8511 12.7286 43.8402 12.6112L43.8215 12.3153L44.0797 12.9844C44.1879 13.2647 44.4883 14.0974 44.7587 14.8305L45.2505 16.1633H46.0417C46.5293 16.1633 46.8329 16.1423 46.8329 16.1087C46.8329 16.0786 46.4736 15.0472 46.0345 13.8166C45.3739 11.9654 45.1926 11.6203 45.2349 11.5045C45.6767 10.2957 46.8329 7.10634 46.8329 7.07056L45.2277 7.05318L44.5601 8.89214C44.031 10.3493 43.8712 10.914 43.8435 10.7953C43.8244 10.7135 43.8201 9.65914 43.8165 8.72959L43.81 7.0257H42.341L42.3002 11.5423C42.2779 14.0188 42.2759 16.0717 42.296 16.1042C42.3191 16.1416 42.6036 16.1633 43.0712 16.1633H43.81L43.8132 14.5282Z" fill="#FCFCFD"/>
</g>
<defs>
<clipPath id="clip0_14912_30980">
<rect width="40" height="40" fill="white" transform="translate(19.375 5)"/>
</clipPath>
</defs>
</svg>
