<svg width="78" height="50" viewBox="0 0 78 50" fill="none" xmlns="http://www.w3.org/2000/svg">
<path d="M12.8618 36.3848L14.1076 32.3438H15.7407L16.9761 36.3848L18.3684 32.3438H20.0644L17.6147 39.3684H16.4526L14.9137 34.4794L13.3852 39.3684H12.2232L9.77344 32.3438H11.4694L12.8618 36.3848Z" fill="#FCFCFD"/>
<path d="M20.9141 32.3438H22.4844V39.3684H20.9141V32.3438Z" fill="#FCFCFD"/>
<path d="M24.2109 32.3438H25.7813V35.2332L28.4299 32.3438H30.3667L27.5715 35.453C27.8122 35.788 28.2624 36.4162 28.9115 37.327C29.5606 38.2378 30.0421 38.9182 30.3667 39.3684H28.5346L26.4827 36.5941L25.7813 37.3793V39.3684H24.2109V32.3438Z" fill="#FCFCFD"/>
<path d="M31.3359 32.3438H32.9063V39.3684H31.3359V32.3438Z" fill="#FCFCFD"/>
<path d="M40.9324 34.9505L39.0376 38.7926H38.0954L36.211 34.9505V39.3684H34.6406V32.3438H36.7658L38.5769 36.2068L40.3985 32.3438H42.5133V39.3684H40.9429V34.9505H40.9324Z" fill="#FCFCFD"/>
<path d="M49.2935 32.3435V33.7358H45.7969V35.1806H48.9376V36.5206H45.7969V37.9758H49.3982V39.3577H44.2266V32.333H49.2935V32.3435Z" fill="#FCFCFD"/>
<path d="M56.1596 33.265C56.8296 33.8827 57.1646 34.7307 57.1646 35.8194C57.1646 36.9082 56.8401 37.7771 56.1806 38.4157C55.5315 39.0543 54.5265 39.3684 53.1864 39.3684H50.7891V32.3438H53.2702C54.5369 32.3438 55.4896 32.6578 56.1596 33.265ZM55.008 37.4421C55.3954 37.0757 55.5838 36.5523 55.5838 35.8613C55.5838 35.1704 55.3954 34.6364 55.008 34.27C54.6207 33.8931 54.0344 33.7152 53.2388 33.7152H52.3594V37.9865H53.3539C54.0763 37.9865 54.6312 37.8085 55.008 37.4421Z" fill="#FCFCFD"/>
<path d="M58.5234 32.3438H60.0938V39.3684H58.5234V32.3438Z" fill="#FCFCFD"/>
<path d="M66.8263 39.3684L66.1773 37.8504H63.2355L62.5864 39.3684H60.9219L63.9579 32.3438H65.4759L68.5118 39.3684H66.8263ZM64.7012 34.4375L63.8218 36.479H65.5805L64.7012 34.4375Z" fill="#FCFCFD"/>
<path d="M16.6639 43.6081V44.4142H17.9621V44.8748H16.6639V46.0788H16.1719V43.1475H18.1191V43.6081H16.6639Z" fill="#FCFCFD"/>
<path d="M23.0288 45.6708C22.7357 45.9639 22.3693 46.1 21.9296 46.1C21.4899 46.1 21.1234 45.9534 20.8303 45.6708C20.5372 45.3777 20.3906 45.0217 20.3906 44.5925C20.3906 44.1633 20.5372 43.7968 20.8303 43.5142C21.1234 43.2211 21.4899 43.085 21.9296 43.085C22.3693 43.085 22.7357 43.2315 23.0288 43.5142C23.3219 43.8073 23.4685 44.1633 23.4685 44.5925C23.4685 45.0217 23.3324 45.3777 23.0288 45.6708ZM22.6728 43.8387C22.4739 43.6293 22.2332 43.5247 21.94 43.5247C21.6469 43.5247 21.4061 43.6293 21.2072 43.8387C21.0083 44.0481 20.9036 44.2994 20.9036 44.5925C20.9036 44.8856 21.0083 45.1369 21.2072 45.3462C21.4061 45.5556 21.6469 45.6603 21.94 45.6603C22.2332 45.6603 22.4739 45.5556 22.6728 45.3462C22.8718 45.1369 22.9764 44.8856 22.9764 44.5925C22.9764 44.2994 22.8718 44.0376 22.6728 43.8387Z" fill="#FCFCFD"/>
<path d="M26.6363 45.398C26.7724 45.555 26.9503 45.6283 27.1806 45.6283C27.411 45.6283 27.5889 45.555 27.725 45.398C27.8611 45.241 27.9239 45.0316 27.9239 44.7594V43.1367H28.416V44.7803C28.416 45.1991 28.3008 45.5236 28.0705 45.7539C27.8402 45.9843 27.5366 46.0994 27.1806 46.0994C26.8142 46.0994 26.5211 45.9843 26.2908 45.7539C26.0605 45.5236 25.9453 45.1991 25.9453 44.7803V43.1367H26.4374V44.7594C26.4374 45.0316 26.5002 45.241 26.6363 45.398Z" fill="#FCFCFD"/>
<path d="M33.2739 43.1475H33.766V46.0788H33.2321L31.578 43.9431V46.0788H31.0859V43.1475H31.578L33.2739 45.3355V43.1475Z" fill="#FCFCFD"/>
<path d="M38.6803 43.5241C38.963 43.7753 39.0991 44.1313 39.0991 44.5919C39.0991 45.0421 38.963 45.4085 38.6908 45.6702C38.4186 45.9319 37.9999 46.068 37.4345 46.068H36.4609V43.1367H37.466C37.9999 43.1472 38.4082 43.2728 38.6803 43.5241ZM38.6071 44.6024C38.6071 43.9324 38.2197 43.5974 37.4555 43.5974H36.9634V45.6074H37.5078C37.8638 45.6074 38.136 45.5236 38.3244 45.3561C38.5128 45.1886 38.6071 44.9374 38.6071 44.6024Z" fill="#FCFCFD"/>
<path d="M42.0353 45.4087L41.7422 46.0788H41.2188L42.5064 43.1475H43.0299L44.3176 46.0788H43.7941L43.501 45.4087H42.0353ZM43.3021 44.9481L42.7682 43.7442L42.2342 44.9481H43.3021Z" fill="#FCFCFD"/>
<path d="M47.4913 43.5976V46.0683H46.9992V43.5976H46.1094V43.1475H48.3811V43.5976H47.4913Z" fill="#FCFCFD"/>
<path d="M50.8047 43.1475H51.2967V46.0788H50.8047V43.1475Z" fill="#FCFCFD"/>
<path d="M56.4429 45.6708C56.1497 45.9639 55.7833 46.1 55.3436 46.1C54.9039 46.1 54.5375 45.9534 54.2444 45.6708C53.9513 45.3777 53.8047 45.0217 53.8047 44.5925C53.8047 44.1633 53.9513 43.7968 54.2444 43.5142C54.5375 43.2315 54.9039 43.085 55.3436 43.085C55.7833 43.085 56.1497 43.2315 56.4429 43.5142C56.736 43.8073 56.8825 44.1633 56.8825 44.5925C56.8825 45.0217 56.736 45.3777 56.4429 45.6708ZM56.0764 43.8387C55.8775 43.6293 55.6367 43.5247 55.3436 43.5247C55.0505 43.5247 54.8097 43.6293 54.6108 43.8387C54.4119 44.0481 54.3072 44.2994 54.3072 44.5925C54.3072 44.8856 54.4119 45.1369 54.6108 45.3462C54.8097 45.5556 55.0505 45.6603 55.3436 45.6603C55.6367 45.6603 55.8775 45.5556 56.0764 45.3462C56.2754 45.1369 56.38 44.8856 56.38 44.5925C56.38 44.2994 56.2754 44.0376 56.0764 43.8387Z" fill="#FCFCFD"/>
<path d="M61.5864 43.1475H62.0785V46.0788H61.5446L59.8905 43.9431V46.0788H59.3984V43.1475H59.8905L61.5864 45.3355V43.1475Z" fill="#FCFCFD"/>
<path d="M40.2136 23.6131C43.9719 23.0792 46.8614 19.8547 46.8614 15.9394C46.8614 13.5629 45.7935 11.4377 44.108 10.0244L40.2031 13.9293V23.6131H40.2136Z" fill="#FCFCFD"/>
<path d="M38.0254 23.6131V13.9293L34.1205 10.0244C32.435 11.4482 31.3672 13.5734 31.3672 15.9394C31.3777 19.8443 34.2671 23.0792 38.0254 23.6131Z" fill="#FCFCFD"/>
<path d="M45.8595 9.20805C47.6602 11.0087 48.6443 13.3956 48.6443 15.9396C48.6443 18.4835 47.6497 20.8704 45.8595 22.6711C44.0589 24.4717 41.672 25.4558 39.128 25.4558C36.5841 25.4558 34.1972 24.4613 32.3965 22.6711C30.5958 20.8809 29.6118 18.4835 29.6118 15.9396C29.6118 13.3956 30.6063 11.0087 32.3965 9.20805C32.5535 9.05102 32.7106 8.90445 32.8676 8.76836L30.6901 6.59082C30.533 6.73739 30.376 6.88395 30.219 7.04098C29.0674 8.19257 28.1566 9.54306 27.518 11.0401C26.8584 12.5895 26.5234 14.2436 26.5234 15.9396C26.5234 17.6355 26.8584 19.2896 27.518 20.839C28.1566 22.3361 29.0569 23.6866 30.219 24.8381C31.3705 25.9897 32.721 26.9005 34.2181 27.5391C35.7675 28.1987 37.4216 28.5337 39.1175 28.5337C40.8135 28.5337 42.4676 28.1987 44.017 27.5391C45.5141 26.9005 46.8645 26.0002 48.0161 24.8381C49.1677 23.6866 50.0785 22.3361 50.7171 20.839C51.3767 19.2896 51.7117 17.6355 51.7117 15.9396C51.7117 14.2436 51.3767 12.5895 50.7171 11.0401C50.0785 9.54306 49.1782 8.19257 48.0161 7.04098C47.8591 6.88395 47.7021 6.73739 47.545 6.59082L45.3675 8.76836C45.5455 8.90445 45.7025 9.05102 45.8595 9.20805Z" fill="#FCFCFD"/>
<path d="M39.129 11.1339C41.2972 11.1339 43.0548 9.37626 43.0548 7.20807C43.0548 5.03989 41.2972 3.28223 39.129 3.28223C36.9608 3.28223 35.2031 5.03989 35.2031 7.20807C35.2031 9.37626 36.9608 11.1339 39.129 11.1339Z" fill="#FCFCFD"/>
</svg>
