<svg width="78" height="50" viewBox="0 0 78 50" fill="none" xmlns="http://www.w3.org/2000/svg">
<mask id="mask0_14912_31040" style="mask-type:luminance" maskUnits="userSpaceOnUse" x="1" y="12" width="77" height="26">
<path d="M1.14062 12.3125V37.7363H77.0068V12.3125H1.14062Z" fill="white"/>
</mask>
<g mask="url(#mask0_14912_31040)">
<path d="M10.6052 23.1548C10.5507 22.4062 11.1137 21.7545 11.8629 21.7C12.6124 21.6458 13.2638 22.2091 13.3183 22.9586C13.3728 23.7078 12.8092 24.3589 12.06 24.4134C11.3111 24.4673 10.6597 23.9049 10.6052 23.1548Z" fill="#FCFCFD"/>
<path d="M26.5683 23.1548C26.6228 22.4062 26.0592 21.7545 25.3103 21.7C24.5605 21.6458 23.9094 22.2091 23.8552 22.9586C23.8007 23.7078 24.3643 24.3589 25.1129 24.4134C25.8621 24.4673 26.5141 23.9049 26.5683 23.1548Z" fill="#FCFCFD"/>
<path d="M31.0542 25.2878C30.8945 24.6977 30.0802 24.608 29.3622 24.7949C28.7954 24.9428 26.8234 25.4899 25.0728 25.3628C23.8149 25.2719 22.5852 24.2253 21.8201 23.5092C22.5802 22.6329 23.5608 21.6928 23.7856 21.4294C24.1107 21.0505 24.1645 20.4551 23.8939 20.1845C23.6237 19.9142 23.1363 20.0774 22.649 20.4018C22.163 20.7263 20.3227 22.579 18.5674 22.579C16.8127 22.579 14.9124 20.7263 14.4251 20.4018C13.938 20.0774 13.234 20.1313 12.9634 20.4018C12.6931 20.6724 12.964 21.0505 13.2891 21.4294C13.5192 21.6985 14.5365 22.6734 15.3025 23.5652C14.534 24.2786 13.3352 25.2744 12.1099 25.3628C10.3593 25.4899 8.38699 24.9428 7.82058 24.7949C7.10253 24.608 6.28826 24.6977 6.12821 25.2878C6.02794 25.6565 6.34088 26.0625 6.76125 26.3368C7.17944 26.6096 9.34824 27.0312 9.95824 27.9641C10.5679 28.8964 10.661 36.1107 11.2293 36.3524C11.6435 36.5294 12.3659 36.5294 12.7582 36.3296C13.3087 36.0504 14.2373 28.1796 14.7059 27.1685C14.9653 26.6105 15.618 25.776 16.2003 25.0726C16.7019 27.4236 17.2506 36.1806 17.7793 36.3637C18.1791 36.5017 18.975 36.5017 19.2948 36.3637C19.8164 36.138 20.3871 27.1502 20.8969 24.9695C21.4994 25.6929 22.2047 26.5828 22.4768 27.1685C22.9455 28.1796 23.8737 36.0504 24.4239 36.3296C24.8169 36.5294 25.5387 36.5294 25.9534 36.3524C26.5208 36.1107 26.6139 28.8964 27.2242 27.9641C27.8345 27.0312 30.003 26.6096 30.4212 26.3368C30.8416 26.0625 31.1542 25.6565 31.0542 25.2878Z" fill="#FCFCFD"/>
<mask id="mask1_14912_31040" style="mask-type:luminance" maskUnits="userSpaceOnUse" x="1" y="12" width="77" height="26">
<path d="M1.14062 12.3127V37.7363H77.0064V12.3127" fill="white"/>
</mask>
<g mask="url(#mask1_14912_31040)">
<path d="M17.2266 20.2678C17.2266 19.5161 17.8356 18.908 18.5873 18.908C19.3374 18.908 19.9471 19.5161 19.9471 20.2678C19.9471 21.0189 19.3374 21.6279 18.5873 21.6279C17.8356 21.6279 17.2266 21.0189 17.2266 20.2678Z" fill="#FCFCFD"/>
<path d="M31.3247 20.3641C31.9858 21.4131 30.6013 21.8067 29.5442 21.5651C28.6586 21.3633 19.9741 16.7196 18.6719 16.6001C17.374 16.4817 9.56202 21.2845 8.70104 21.7454C7.4362 22.4217 6.31895 22.3573 5.15095 21.7516C4.76545 21.5505 1.78971 19.9798 1.14062 19.5414C1.78971 18.9351 10.8216 13.5124 11.8731 12.9855C13.0825 12.3786 13.8034 12.0604 15.133 12.5571C16.055 12.9024 31.0507 19.9303 31.3247 20.3641Z" fill="#808191"/>
</g>
<path d="M4.56918 27.1004C4.90734 27.1505 6.50412 27.8387 7.13654 28.1644C8.65672 28.9472 8.7355 29.7257 8.90894 30.9927C9.09422 32.3425 9.25365 34.8576 9.28011 35.8105C8.64395 35.5378 6.15319 33.4532 5.55876 32.9395C5.09791 32.54 4.58257 32.255 4.5835 31.6363C4.58443 31.4 4.47576 27.6814 4.56918 27.1004Z" fill="#808191"/>
<path d="M75.614 31.9539H75.9253C76.134 31.9539 76.2025 31.8798 76.2025 31.7294C76.2025 31.5977 76.1028 31.5242 75.9689 31.5242H75.614V31.9539ZM75.614 32.6938H75.4209V31.3641H75.9284C76.2398 31.3641 76.3924 31.4896 76.3924 31.7419C76.3924 31.9816 76.2367 32.0825 76.0468 32.1074L76.4298 32.6938H76.218L75.8568 32.1133H75.614V32.6938ZM75.8599 33.0036C76.3893 33.0036 76.7972 32.586 76.7972 32.0336C76.7972 31.4896 76.3893 31.0693 75.8599 31.0693C75.3244 31.0693 74.9196 31.4896 74.9196 32.0336C74.9196 32.586 75.3244 33.0036 75.8599 33.0036ZM75.8599 30.8977C76.4858 30.8977 77.0058 31.3884 77.0058 32.0336C77.0058 32.6847 76.4858 33.1758 75.8599 33.1758C75.2372 33.1758 74.7109 32.6847 74.7109 32.0336C74.7109 31.3884 75.2372 30.8977 75.8599 30.8977Z" fill="#FCFCFD"/>
<path d="M37.3595 19.7159C37.3035 20.3841 37.291 21.1614 37.291 21.9934V23.5621C37.5899 23.5761 37.8889 23.5895 38.3279 23.5895C38.7639 23.5895 39.0628 23.5761 39.3617 23.5621V21.9934C39.3617 21.1614 39.3493 20.3841 39.2963 19.7159H41.8746C41.7376 21.1206 41.7376 22.2668 41.7376 24.5853C41.7376 26.9039 41.7376 28.0504 41.8746 29.4551H39.2963C39.3493 28.7875 39.3617 28.0087 39.3617 27.1773V25.186C39.0628 25.172 38.7639 25.1586 38.3279 25.1586C37.8889 25.1586 37.5899 25.172 37.291 25.186V27.1773C37.291 28.0087 37.3035 28.7875 37.3595 29.4551H34.7812C34.9151 28.0504 34.9151 26.9039 34.9151 24.5853C34.9151 22.2668 34.9151 21.1206 34.7812 19.7159H37.3595Z" fill="#FCFCFD"/>
<path d="M46.0215 25.9088C45.1652 26.1271 44.6296 26.6592 44.6296 27.3412C44.6296 27.8188 44.9316 28.1869 45.3676 28.1869C45.654 28.1869 45.9405 28.0091 46.0215 27.8867V25.9088ZM43.0633 22.5259C43.2533 22.4988 43.9912 22.4172 44.4957 22.4172C47.3168 22.4172 48.1763 23.5217 48.1763 25.3496V27.0547C48.1763 27.7092 48.1763 28.4466 48.5312 29.4555H46.364C46.199 29.2372 46.146 29.0874 46.1305 29.0329C45.763 29.3057 45.2586 29.5645 44.6047 29.5645C43.2813 29.5645 42.4219 28.6505 42.4219 27.505C42.4219 26.2501 43.4152 25.404 44.7137 24.9815L45.844 24.6128C45.8315 24.1355 45.517 23.7263 44.8756 23.7263C44.4396 23.7263 43.7577 23.9309 43.0633 24.4353V22.5259Z" fill="#FCFCFD"/>
<path d="M51.5666 27.5453C51.5666 27.941 51.7161 28.2543 52.152 28.2543C52.7125 28.2543 53.1079 27.6817 53.1079 26.0584C53.1079 24.8988 52.8059 23.903 52.124 23.903C51.7565 23.903 51.5666 24.1347 51.5666 24.4623V27.5453ZM51.5666 19.7155V22.7979C51.906 22.5936 52.398 22.4165 52.89 22.4165C54.1853 22.4165 55.3997 23.3709 55.3997 25.8535C55.3997 27.7773 54.3504 29.6182 52.4136 29.6182C51.8935 29.6182 51.2926 29.4413 50.6511 28.9365L49.8882 29.5911L49.2343 29.1953C49.3558 28.3228 49.3558 27.3952 49.3558 26.4125V22.498C49.3558 21.993 49.3558 21.4337 49.2188 19.7155H51.5666Z" fill="#FCFCFD"/>
<path d="M58.4775 22.5806C58.4495 23.289 58.4495 24.3263 58.4495 25.7991C58.4495 27.6547 58.4495 28.5826 58.574 29.4551H56.1172C56.2386 28.5826 56.2386 27.6547 56.2386 26.6722V25.3629C56.2386 24.3804 56.2386 23.4535 56.1172 22.5806H58.4775ZM57.344 19.6197C58.026 19.6197 58.574 20.1659 58.574 20.8478C58.574 21.5297 58.026 22.0753 57.344 22.0753C56.6621 22.0753 56.1172 21.5297 56.1172 20.8478C56.1172 20.1659 56.6621 19.6197 57.344 19.6197Z" fill="#FCFCFD"/>
<path d="M62.2375 20.4927C62.2095 20.9153 62.1939 21.7205 62.1939 22.5802H63.2184V23.889H62.1939V27.327C62.1939 27.8859 62.3995 28.1998 62.9475 28.1998C63.0285 28.1998 63.1094 28.1998 63.234 28.1861V29.4139C62.7825 29.5637 62.3185 29.6182 61.8545 29.6182C61.2411 29.6182 60.7491 29.4005 60.3817 28.9636C60.0952 28.6224 59.9862 28.05 59.9862 27.3538V23.889H59.1953V22.5802H59.9862C59.9862 21.7205 59.9738 20.9153 59.9458 20.4927H62.2375Z" fill="#FCFCFD"/>
<path d="M67.5215 25.9088C66.6621 26.1271 66.1327 26.6592 66.1327 27.3412C66.1327 27.8188 66.4316 28.1869 66.8676 28.1869C67.154 28.1869 67.4405 28.0091 67.5215 27.8867V25.9088ZM64.5633 22.5259C64.7533 22.4988 65.4913 22.4172 65.9957 22.4172C68.82 22.4172 69.6794 23.5217 69.6794 25.3496V27.0547C69.6794 27.7092 69.6794 28.4466 70.0312 29.4555H67.864C67.699 29.2372 67.646 29.0874 67.6336 29.0329C67.263 29.3057 66.7586 29.5645 66.1047 29.5645C64.7813 29.5645 63.9219 28.6505 63.9219 27.505C63.9219 26.2501 64.9183 25.404 66.2137 24.9815L67.3471 24.6128C67.3315 24.1355 67.017 23.7263 66.3756 23.7263C65.9396 23.7263 65.2577 23.9309 64.5633 24.4353V22.5259Z" fill="#FCFCFD"/>
<path d="M73.3704 20.4927C73.3454 20.9153 73.3299 21.7205 73.3299 22.5802H74.3543V23.889H73.3299V27.327C73.3299 27.8859 73.5354 28.1998 74.0803 28.1998C74.1644 28.1998 74.2453 28.1998 74.3668 28.1861V29.4139C73.9184 29.5637 73.4544 29.6182 72.9905 29.6182C72.377 29.6182 71.885 29.4005 71.5176 28.9636C71.2311 28.6224 71.1222 28.05 71.1222 27.3538V23.889H70.3281V22.5802H71.1222C71.1222 21.7205 71.1066 20.9153 71.0786 20.4927H73.3704Z" fill="#FCFCFD"/>
<path d="M37.0043 31.825C36.9732 31.8022 36.8766 31.7505 36.7147 31.7505C36.4065 31.7505 36.257 31.9869 36.257 32.2388C36.257 32.3858 36.3006 32.5343 36.3317 32.6084H36.886V33.3174H36.3224V34.825C36.3224 35.3568 36.3224 35.8592 36.3909 36.332H35.0582C35.1267 35.8592 35.1267 35.3568 35.1267 34.825V33.3174H34.7188V32.6084H35.1267V32.3197C35.1267 31.8835 35.2014 31.5886 35.547 31.3C35.8428 31.0636 36.2134 30.9824 36.5372 30.9824C36.7147 30.9824 36.9078 31.0119 37.0043 31.049V31.825Z" fill="#FCFCFD"/>
<path d="M38.2672 34.4703C38.2672 35.3642 38.4602 35.6823 38.6813 35.6823C38.9055 35.6823 39.0954 35.3642 39.0954 34.4703C39.0954 33.5763 38.9055 33.2584 38.6813 33.2584C38.4602 33.2584 38.2672 33.5763 38.2672 34.4703ZM40.4095 34.4703C40.4095 35.7264 39.5843 36.4209 38.6813 36.4209C37.7814 36.4209 36.9531 35.7264 36.9531 34.4703C36.9531 33.2144 37.7814 32.5191 38.6813 32.5191C39.5843 32.5191 40.4095 33.2144 40.4095 34.4703Z" fill="#FCFCFD"/>
<path d="M41.9707 32.6084C42.0174 32.7411 42.0673 32.9849 42.0766 33.1029C42.3351 32.7563 42.6433 32.519 43.0139 32.519C43.0948 32.519 43.1384 32.5271 43.1758 32.5415V33.5245C43.0948 33.5018 42.9921 33.4946 42.9547 33.4946C42.3911 33.4946 42.1482 34.0121 42.1482 34.825C42.1482 35.3568 42.1482 35.8592 42.2167 36.332H40.8404C40.9089 35.8592 40.9089 35.3568 40.9089 34.825V34.1155C40.9089 33.5833 40.9089 33.0811 40.7812 32.6084H41.9707Z" fill="#FCFCFD"/>
<path d="M47.1138 31.0565C47.0826 31.4186 47.0764 31.8393 47.0764 32.2905V33.1399C47.2383 33.1474 47.4002 33.1546 47.6369 33.1546C47.8735 33.1546 48.0386 33.1474 48.2005 33.1399V32.2905C48.2005 31.8393 48.1943 31.4186 48.1631 31.0565H49.5581C49.4865 31.8175 49.4865 32.4375 49.4865 33.6942C49.4865 34.95 49.4865 35.5715 49.5581 36.332H48.1631C48.1943 35.9699 48.2005 35.549 48.2005 35.0983V34.0196C48.0386 34.0121 47.8735 34.0043 47.6369 34.0043C47.4002 34.0043 47.2383 34.0121 47.0764 34.0196V35.0983C47.0764 35.549 47.0826 35.9699 47.1138 36.332H45.7188C45.7904 35.5715 45.7904 34.95 45.7904 33.6942C45.7904 32.4375 45.7904 31.8175 45.7188 31.0565H47.1138Z" fill="#FCFCFD"/>
<path d="M52.2516 36.3321C52.2018 36.2214 52.1645 36.0964 52.1427 35.9998C51.8686 36.2661 51.5884 36.4209 51.2054 36.4209C50.5764 36.4209 50.1623 35.9626 50.1623 35.2532V34.1156C50.1623 33.5834 50.1623 33.0812 50.0938 32.6085H51.358V35.0838C51.358 35.3788 51.4763 35.5491 51.6912 35.5491C51.8749 35.5491 52.0679 35.4159 52.0679 35.1574V34.1156C52.0679 33.5834 52.0679 33.0812 52.0025 32.6085H53.3321C53.2636 33.0812 53.2636 33.5834 53.2636 34.1156V34.8251C53.2636 35.3569 53.2636 35.8593 53.3321 36.3321H52.2516Z" fill="#FCFCFD"/>
<path d="M55.0617 32.6084C55.1146 32.7193 55.152 32.8444 55.1738 32.94C55.4478 32.6894 55.7779 32.519 56.1484 32.519C56.547 32.519 56.7992 32.7479 56.9767 32.9923C57.2414 32.7563 57.5372 32.519 58.0167 32.519C58.7423 32.519 59.0163 33.0294 59.0163 33.7605V34.825C59.0163 35.3568 59.0163 35.8592 59.0817 36.332H57.7521C57.8175 35.8592 57.8175 35.3568 57.8175 34.825V33.7979C57.8175 33.5388 57.7458 33.347 57.5154 33.347C57.2663 33.347 57.1231 33.5388 57.1231 33.7979V34.825C57.1231 35.3568 57.1231 35.8592 57.1916 36.332H55.8589C55.9274 35.8592 55.9274 35.3568 55.9274 34.825V33.7833C55.9274 33.5388 55.8526 33.347 55.6253 33.347C55.4167 33.347 55.233 33.517 55.233 33.7387V34.825C55.233 35.3568 55.233 35.8592 55.2984 36.332H53.9688C54.0341 35.8592 54.0341 35.3568 54.0341 34.825V34.1155C54.0341 33.5833 54.0341 33.0811 53.9688 32.6084H55.0617Z" fill="#FCFCFD"/>
<path d="M61.4055 34.4107C60.9384 34.5293 60.652 34.818 60.652 35.1874C60.652 35.4459 60.8139 35.6454 61.0505 35.6454C61.2031 35.6454 61.3619 35.5493 61.4055 35.4824V34.4107ZM59.8019 32.5785C59.9046 32.5645 60.3032 32.5193 60.5772 32.5193C62.1061 32.5193 62.5732 33.1184 62.5732 34.1086V35.0317C62.5732 35.3866 62.5732 35.7862 62.7631 36.3323H61.5892C61.502 36.2146 61.4709 36.1331 61.4647 36.1033C61.2654 36.2514 60.9914 36.3916 60.6364 36.3916C59.9202 36.3916 59.4531 35.8959 59.4531 35.2759C59.4531 34.5963 59.9918 34.1382 60.6955 33.9087L61.309 33.7091C61.3027 33.4504 61.1315 33.2287 60.7827 33.2287C60.5492 33.2287 60.1786 33.3401 59.8019 33.6135V32.5785Z" fill="#FCFCFD"/>
<path d="M64.1821 32.6084C64.2319 32.7193 64.2693 32.8444 64.291 32.94C64.5651 32.6747 64.8453 32.519 65.2283 32.519C65.8573 32.519 66.2715 32.9771 66.2715 33.6867V34.825C66.2715 35.3568 66.2715 35.8592 66.3368 36.332H65.0072C65.0757 35.8592 65.0757 35.3568 65.0757 34.825V33.8051C65.0757 33.5762 64.9792 33.3915 64.755 33.3915C64.5713 33.3915 64.3658 33.5245 64.3658 33.7462V34.825C64.3658 35.3568 64.3658 35.8592 64.4312 36.332H63.1016C63.167 35.8592 63.167 35.3568 63.167 34.825V34.1155C63.167 33.5833 63.167 33.0811 63.1016 32.6084H64.1821Z" fill="#FCFCFD"/>
<path d="M68.0579 32.6084C68.0424 32.9923 68.0424 33.5541 68.0424 34.3518C68.0424 35.3568 68.0424 35.8592 68.1109 36.332H66.7812C66.8466 35.8592 66.8466 35.3568 66.8466 34.825V34.1155C66.8466 33.5833 66.8466 33.0811 66.7812 32.6084H68.0579ZM67.4445 31.0041C67.815 31.0041 68.1109 31.3 68.1109 31.6696C68.1109 32.0392 67.815 32.3344 67.4445 32.3344C67.0771 32.3344 66.7812 32.0392 66.7812 31.6696C66.7812 31.3 67.0771 31.0041 67.4445 31.0041Z" fill="#FCFCFD"/>
<path d="M70.1628 31.4772C70.1473 31.7067 70.1411 32.1427 70.1411 32.6085H70.6953V33.3175H70.1411V35.1793C70.1411 35.4822 70.2532 35.6525 70.5459 35.6525C70.5926 35.6525 70.6362 35.6525 70.7015 35.6452V36.3102C70.4587 36.3914 70.2064 36.4209 69.9573 36.4209C69.6242 36.4209 69.3595 36.3029 69.1602 36.0666C69.0045 35.8811 68.9453 35.5716 68.9453 35.1945V33.3175H68.5156V32.6085H68.9453C68.9453 32.1427 68.936 31.7067 68.9235 31.4772H70.1628Z" fill="#FCFCFD"/>
<path d="M72.3267 32.6084C72.4201 33.1845 72.7034 34.2336 72.8498 34.714H72.8654C73.0709 33.9599 73.2266 33.111 73.2951 32.6084H74.3507C74.1047 33.6204 73.5504 35.6749 73.0802 36.6425C72.8342 37.1376 72.4668 37.7363 71.4517 37.7363C71.3489 37.7363 71.1963 37.7287 71.0998 37.6992V36.7535C71.1652 36.7906 71.3271 36.8642 71.514 36.8642C71.897 36.8642 72.1554 36.5464 72.1554 36.2731C72.1554 36.1329 72.1274 36.0441 71.8316 35.2611C71.4299 34.2118 71.1278 33.1029 71.0469 32.6084H72.3267Z" fill="#FCFCFD"/>
</g>
</svg>
