<svg width="78" height="50" viewBox="0 0 78 50" fill="none" xmlns="http://www.w3.org/2000/svg">
<mask id="mask0_14912_31080" style="mask-type:luminance" maskUnits="userSpaceOnUse" x="0" y="13" width="78" height="23">
<path d="M78 13H0V35.88H78V13Z" fill="white"/>
</mask>
<g mask="url(#mask0_14912_31080)">
<path fill-rule="evenodd" clip-rule="evenodd" d="M56.5 23.9717H64.9498V26.8836H56.5V23.9717ZM56.5 29.6916H64.9498V32.6037H56.5V29.6916Z" fill="#808191"/>
<path fill-rule="evenodd" clip-rule="evenodd" d="M0 16.302C0 14.456 1.352 13 3.406 13C4.888 13 5.72 13.728 6.084 14.17L4.94 15.314C4.706 15.028 4.29 14.638 3.51 14.638C2.548 14.638 1.898 15.34 1.898 16.276C1.898 17.212 2.574 17.94 3.588 17.94C4.29 17.94 4.68 17.758 4.81 17.628V17.264H3.77V15.782H6.44798V18.59C5.772 19.058 4.966 19.578 3.406 19.578C1.352 19.604 0 18.148 0 16.302ZM7.12402 13.13H8.94398V17.914H10.764V19.5H7.12402V13.13ZM14.534 13C12.428 13 11.076 14.456 11.076 16.302C11.076 18.174 12.428 19.604 14.508 19.63C16.614 19.63 17.966 18.174 17.966 16.302C17.966 14.456 16.64 13 14.534 13ZM14.534 17.966C13.598 17.966 12.974 17.264 12.974 16.302C12.974 15.366 13.598 14.664 14.534 14.664C15.47 14.664 16.094 15.366 16.094 16.302C16.094 17.264 15.47 17.966 14.534 17.966ZM18.616 13.13H21.086C22.438 13.13 23.244 13.754 23.244 14.872C23.244 15.444 23.01 15.886 22.568 16.172C23.166 16.458 23.452 16.952 23.452 17.576C23.452 18.928 22.412 19.5 21.138 19.5H18.616V13.13ZM20.956 15.522C21.242 15.522 21.398 15.314 21.398 15.054C21.398 14.794 21.242 14.612 20.93 14.612H20.41V15.522H20.956ZM21.06 17.966C21.398 17.966 21.58 17.68 21.58 17.446C21.58 17.186 21.398 16.926 21.086 16.926H20.41V17.966H21.06ZM25.428 19.5L25.792 18.278H27.742L28.132 19.5H29.952L27.742 13.13H25.818L23.608 19.5H25.428ZM26.234 16.822L26.754 15.002L27.3 16.822H26.234ZM30.472 13.13H32.292V17.914H34.112V19.5H30.472V13.13ZM40.3 13.13H36.764H36.738V19.5H38.558V17.186H40.066V15.6H38.558V14.716H40.3V13.13ZM40.976 17.004V13.13H42.796V17.03C42.796 17.628 43.16 17.992 43.758 17.992C44.356 17.992 44.72 17.628 44.72 17.03V13.13H46.54V17.004C46.54 18.538 45.552 19.63 43.758 19.63C41.964 19.604 40.976 18.538 40.976 17.004ZM49.088 13.13H47.268V19.5H49.036V15.938L51.142 19.5H52.936V13.13H51.142V16.744L49.088 13.13ZM53.664 13.13H55.744C57.798 13.13 59.15 14.326 59.15 16.328C59.15 18.304 57.798 19.526 55.744 19.526H53.664V13.13ZM55.718 17.966C56.654 17.966 57.278 17.42 57.278 16.302C57.278 15.184 56.654 14.638 55.718 14.638H55.484V17.966H55.718ZM64.896 13.13H61.3598V19.5H63.18V17.186H64.6882V15.6H63.18V14.716H64.896V13.13ZM65.3378 16.302C65.3378 14.456 66.69 13 68.7698 13C70.8758 13 72.2018 14.456 72.2018 16.302C72.2018 18.174 70.8502 19.63 68.7698 19.63C66.69 19.604 65.3378 18.174 65.3378 16.302ZM67.236 16.302C67.236 17.264 67.86 17.966 68.796 17.966C69.732 17.966 70.356 17.264 70.356 16.302C70.356 15.366 69.732 14.664 68.796 14.664C67.86 14.664 67.236 15.366 67.236 16.302ZM75.036 13.13H72.774V19.5H74.5942V17.238H74.9318L75.9982 19.5H78L76.5442 16.822C77.0902 16.484 77.376 15.808 77.376 15.132C77.376 13.884 76.6222 13.13 75.036 13.13ZM75.5302 15.21C75.5302 15.548 75.3218 15.782 74.9062 15.782H74.5942V14.664H74.9062C75.3218 14.664 75.5302 14.846 75.5302 15.21ZM10.322 26.442L7.98196 35.516H4.00397L0.233974 21.06H4.00397L6.18796 31.226L8.736 21.06H11.908L14.456 31.226L16.64 21.06H20.41L16.666 35.49H12.662L10.322 26.442ZM27.456 20.8C22.906 20.8 19.89 24.076 19.89 28.262C19.89 32.5 22.906 35.776 27.456 35.776C32.006 35.776 35.022 32.5 35.022 28.262C35.022 24.076 32.006 20.8 27.456 20.8ZM27.456 32.474C25.168 32.474 23.556 30.706 23.556 28.262C23.556 25.896 25.142 24.102 27.456 24.102C29.77 24.102 31.356 25.896 31.356 28.262C31.356 30.706 29.744 32.474 27.456 32.474ZM68.9782 26.65V35.49H65.52V21.06H69.108L74.3602 30.03V21.06H77.8178V35.49H74.3078L68.9782 26.65ZM44.148 30.212L47.762 21.06H52.338V35.516H48.958V26.052L46.384 32.76L45.344 35.516H43.004L41.626 31.954L39.364 26.052V35.516H35.984V21.06H40.56L44.148 30.212Z" fill="#FCFCFD"/>
</g>
</svg>
