<svg width="78" height="50" viewBox="0 0 78 50" fill="none" xmlns="http://www.w3.org/2000/svg">
<g clip-path="url(#clip0_14912_30827)">
<path d="M58.7109 12.7984C59.7985 12.1641 60.8837 11.5259 61.9713 10.8916C61.9921 10.9377 62.014 10.9833 62.0359 11.0294C62.14 11.7103 62.3216 12.3778 62.415 13.0616C62.8305 15.7219 62.8103 18.4498 62.3525 21.1034C62.194 22.0829 61.9336 23.0411 61.6839 23.9999L61.6822 23.9425C61.5535 20.0771 60.539 16.2415 58.7205 12.8266L58.7109 12.7984Z" fill="#353945"/>
<path d="M62.0293 11.0293C62.7665 12.3749 63.3648 13.7954 63.8692 15.2439C65.3745 19.6086 65.8188 24.3288 65.1901 28.9005C64.7183 32.3571 63.6201 35.7254 61.9685 38.7973H61.9573C60.8709 38.167 59.7878 37.5287 58.7031 36.8944C60.8 32.9542 61.833 28.4596 61.6772 23.9998C61.9269 23.0411 62.1873 22.0829 62.3459 21.1033C62.8036 18.4497 62.8238 15.7219 62.4083 13.0615C62.3149 12.3777 62.1333 11.7103 62.0293 11.0293Z" fill="#1F2128"/>
<path d="M58.7206 12.8262C60.5391 16.2412 61.5536 20.0768 61.6823 23.9422C60.4666 28.0336 58.1436 31.7866 55.0391 34.7134C56.4342 31.9957 57.2563 28.9839 57.4008 25.9311C57.4205 25.6634 57.4323 25.3958 57.4312 25.1275C58.5238 22.5588 59.1047 19.772 59.1058 16.98C59.1165 15.5866 58.9607 14.1971 58.7206 12.8262Z" fill="#242731"/>
<path d="M51.7602 16.8848C52.8348 19.0047 53.4685 21.3457 53.6147 23.7175C53.6226 23.8474 53.6277 23.9773 53.6316 24.1078C52.417 26.7333 50.4669 29.0129 48.0781 30.6425C48.9666 28.7559 49.4271 26.6675 49.3771 24.5807L49.3765 24.5605C50.9223 22.319 51.7585 19.6064 51.7602 16.8848Z" fill="#242731"/>
<path d="M51.7578 16.8665C52.8459 16.2311 53.9323 15.594 55.0198 14.958C55.0339 14.9878 55.0615 15.0474 55.0755 15.0772C55.075 15.6007 55.1593 16.1192 55.1689 16.6422C55.2526 19.1782 54.7578 21.7447 53.6686 24.0401C53.6495 23.9327 53.6281 23.8264 53.6157 23.7184C53.4695 21.3466 52.8358 19.0056 51.7612 16.8856L51.7578 16.8665Z" fill="#808191"/>
<path d="M56.1699 27.5881C56.6259 26.8431 56.9959 26.0513 57.3794 25.2686C57.3918 25.489 57.4013 25.7105 57.3952 25.9321C57.2506 28.9849 56.4285 31.9967 55.0334 34.7144L55.0148 34.7369C53.9273 34.0993 52.8381 33.4633 51.75 32.8262L51.7708 32.7952C53.5191 31.327 54.998 29.545 56.1699 27.5881Z" fill="#808191"/>
<path d="M55.0748 15.0771C56.6746 18.1654 57.4636 21.6546 57.4282 25.1281C57.4293 25.3963 57.4175 25.664 57.3978 25.9317C57.404 25.7101 57.3944 25.4885 57.382 25.2681C56.9985 26.0509 56.6285 26.8426 56.1725 27.5877C55.0006 29.5446 53.5217 31.3266 51.7734 32.7948C53.114 30.1187 53.7719 27.1002 53.6319 24.1086C53.628 23.9781 53.6229 23.8483 53.615 23.7184C53.6274 23.8263 53.6488 23.9326 53.6679 24.04C54.7571 21.7446 55.252 19.1782 55.1682 16.6421C55.1586 16.1191 55.0743 15.6007 55.0748 15.0771Z" fill="#E6E8EC"/>
<path d="M47.761 26.4862C48.3571 25.9014 48.8631 25.2373 49.376 24.5811C49.426 26.6678 48.9655 28.7563 48.077 30.6429C48.0714 30.6479 48.0602 30.6575 48.0545 30.6626C46.9642 30.0221 45.8727 29.385 44.7812 28.7462L44.8015 28.7096C45.8952 28.1276 46.877 27.3505 47.761 26.4862Z" fill="#E6E8EC"/>
<path d="M44.7812 20.9465C45.8733 20.3083 46.9642 19.6695 48.0557 19.0312C48.8851 20.752 49.3355 22.6515 49.3737 24.5611L49.3743 24.5814C48.8615 25.2376 48.3554 25.9017 47.7593 26.4865C46.8753 27.3508 45.8935 28.1279 44.7998 28.7099C45.8738 26.2683 45.8693 23.3825 44.7812 20.9465Z" fill="#FCFCFD"/>
<path d="M38.8555 20.9434C39.4274 20.9434 39.9987 20.9434 40.5706 20.9434C40.5706 23.5441 40.5706 26.1448 40.5706 28.7456C39.9987 28.7456 39.4274 28.7456 38.8555 28.7456C38.8549 28.5645 38.8544 28.384 38.8583 28.2035C38.6525 28.5038 38.3427 28.7259 37.9918 28.8226C37.2518 29.0363 36.4111 28.8474 35.8325 28.3396C35.2229 27.8172 34.9069 26.9973 34.949 26.2022C34.9772 25.3767 35.4 24.554 36.1102 24.1143C36.9442 23.5863 38.1683 23.6329 38.8583 24.3803C38.8516 23.2348 38.8578 22.0894 38.8555 20.9434ZM37.5447 25.2817C37.3687 25.3199 37.2006 25.3992 37.0668 25.5201C36.5832 25.948 36.6 26.8247 37.1269 27.2104C37.529 27.4939 38.1189 27.4905 38.5164 27.2003C39.0349 26.8039 39.0411 25.9261 38.5479 25.5072C38.2763 25.2727 37.8889 25.2103 37.5447 25.2817Z" fill="#FCFCFD"/>
<path d="M19.7271 20.9434C20.2984 20.9434 20.8698 20.9434 21.4411 20.9434C21.4416 23.5441 21.4411 26.1448 21.4416 28.7456C20.8698 28.7456 20.2984 28.7456 19.7266 28.7456C19.7266 26.1448 19.7266 23.5441 19.7271 20.9434Z" fill="#FCFCFD"/>
<path d="M13.8432 24.4568C14.3206 23.9676 15.0196 23.7224 15.6983 23.7669C16.2038 23.7826 16.6959 24.0255 16.9911 24.4399C16.9894 24.2679 16.9888 24.0958 16.9894 23.9243C17.5613 23.9237 18.1326 23.9237 18.7045 23.9237C18.7039 25.4145 18.7056 26.9052 18.7034 28.3959C18.6899 29.1039 18.5476 29.8647 18.0539 30.4034C17.6237 30.8802 16.9748 31.086 16.3512 31.1361C15.5009 31.2182 14.6007 31.0394 13.9023 30.5299C13.5047 30.242 13.2207 29.7989 13.1583 29.3085C13.7977 29.308 14.437 29.3057 15.0764 29.3097C15.1787 29.574 15.4374 29.7325 15.7107 29.7691C16.0874 29.8236 16.5424 29.7455 16.7695 29.4081C17.0046 29.0499 16.9838 28.6017 16.9922 28.1912C16.7004 28.4785 16.3456 28.717 15.9384 28.7968C15.1248 28.9621 14.2144 28.7018 13.6711 28.0585C12.8069 27.0497 12.907 25.3869 13.8432 24.4568ZM15.5527 25.2789C14.8846 25.4836 14.6563 26.38 15.0331 26.9338C15.3632 27.4309 16.1083 27.5069 16.5935 27.2026C17.1598 26.8366 17.1935 25.9228 16.697 25.4836C16.3928 25.2086 15.9345 25.1558 15.5527 25.2789Z" fill="#FCFCFD"/>
<path d="M23.2748 24.1496C24.1098 23.5856 25.3711 23.6154 26.0757 24.3791C26.0734 24.2272 26.0734 24.0754 26.074 23.9236C26.6453 23.9236 27.2172 23.9236 27.7885 23.9236C27.7885 25.5307 27.7885 27.1384 27.7885 28.7455C27.2172 28.7455 26.6453 28.7455 26.074 28.7455C26.0729 28.5661 26.0734 28.3867 26.0762 28.2079C25.8733 28.4947 25.5803 28.714 25.2423 28.813C24.5119 29.0368 23.6763 28.8625 23.0914 28.3727C22.5167 27.9009 22.1878 27.1648 22.1664 26.4265C22.1293 25.5493 22.5314 24.6394 23.2748 24.1496ZM24.7852 25.2776C24.4854 25.3322 24.2122 25.5223 24.0716 25.7939C23.8253 26.255 23.9181 26.9101 24.36 27.2205C24.7565 27.4881 25.3261 27.4881 25.7186 27.2132C26.25 26.8268 26.2658 25.944 25.7777 25.5161C25.5117 25.2793 25.1282 25.2119 24.7852 25.2776Z" fill="#FCFCFD"/>
<path d="M29.6604 24.1323C30.4949 23.5852 31.7376 23.6245 32.4355 24.3797C32.4332 24.2279 32.4332 24.0755 32.4338 23.9237C33.0057 23.9237 33.577 23.9237 34.1489 23.9237C34.1489 25.5314 34.1489 27.1385 34.1489 28.7456C33.577 28.7456 33.0057 28.7456 32.4343 28.7456C32.4332 28.5646 32.4332 28.3835 32.4355 28.203C32.2336 28.4988 31.9311 28.7186 31.5864 28.8176C30.8323 29.0431 29.9691 28.8457 29.386 28.3183C28.8062 27.8065 28.4981 27.0227 28.5251 26.2545C28.5386 25.4223 28.9508 24.5856 29.6604 24.1323ZM31.0836 25.2907C30.4122 25.4307 30.1097 26.2675 30.4072 26.8506C30.7013 27.4821 31.6263 27.5917 32.1363 27.1666C32.6109 26.7567 32.6058 25.925 32.1346 25.5145C31.8518 25.266 31.4413 25.2047 31.0836 25.2907Z" fill="#FCFCFD"/>
</g>
<defs>
<clipPath id="clip0_14912_30827">
<rect width="54.2079" height="28.1723" fill="white" transform="translate(12.5 10.625)"/>
</clipPath>
</defs>
</svg>
