<svg width="78" height="50" viewBox="0 0 78 50" fill="none" xmlns="http://www.w3.org/2000/svg">
<g clip-path="url(#clip0_14912_30849)">
<path d="M59.5769 17.7045V20.7902C59.5769 20.8119 59.5682 20.8328 59.5529 20.8481C59.5375 20.8635 59.5167 20.8721 59.495 20.8721H51.8147C51.7694 20.8721 51.7327 20.8355 51.7327 20.8448V5.91953C51.7327 5.81969 51.7694 5.78301 51.8147 5.78301H54.8643C54.886 5.78301 54.9068 5.79163 54.9222 5.80698C54.9375 5.82234 54.9462 5.84316 54.9462 5.86488L54.9521 17.5362C54.9522 17.5579 54.9608 17.5787 54.9761 17.5941C54.9915 17.6094 55.0123 17.6181 55.034 17.6181L59.495 17.6226C59.5168 17.6226 59.5376 17.6312 59.5529 17.6466C59.5683 17.6619 59.5769 17.6828 59.5769 17.7045ZM43.0778 8.64425C43.0716 8.64425 43.0653 8.64426 43.0591 8.64428C40.5926 8.65191 38.3767 10.4565 38.3767 13.2823C38.3767 16.1459 40.5401 17.8901 42.9807 17.9216C43.0062 17.9219 43.0521 17.9216 43.0778 17.9216C43.1033 17.9216 43.1287 17.9214 43.1541 17.9211C45.5949 17.8904 47.7315 16.1472 47.7315 13.2835C47.7315 10.4603 45.5668 8.65545 43.1033 8.6443L43.0778 8.64425ZM43.0773 21.1254C43.0616 21.1254 42.9985 21.1254 42.9828 21.1253C38.6091 21.1049 34.9036 18.3089 34.9036 13.2819C34.9036 8.37859 38.6697 5.4502 43.0542 5.44045C43.0619 5.44044 43.0696 5.44043 43.0773 5.44043L43.1038 5.44047C47.4867 5.45276 51.2045 8.38182 51.2045 13.2839C51.2045 18.3078 47.5023 21.1025 43.1322 21.1252C43.1139 21.1253 43.0956 21.1254 43.0773 21.1254ZM22.3143 21.1467C23.5331 21.1467 24.4577 20.7553 25.0626 19.9836C25.6615 19.2192 25.9653 18.0566 25.9653 16.5279V14.0419C25.9653 14.0202 25.9566 13.9993 25.9413 13.984C25.9259 13.9686 25.9051 13.96 25.8833 13.96H23.0469C23.0252 13.96 23.0044 13.9686 22.989 13.984C22.9736 13.9993 22.965 14.0201 22.965 14.0419V17.2466C22.965 18.2039 22.7583 18.5407 22.3143 18.5407C21.8521 18.5407 21.6636 18.2433 21.6636 17.2466L21.6636 9.43866C21.6636 8.4419 21.8522 8.08988 22.3143 8.08988C22.7583 8.08988 22.965 8.48122 22.965 9.43866V12.1229C22.965 12.1337 22.9671 12.1443 22.9712 12.1543C22.9754 12.1642 22.9814 12.1732 22.989 12.1809C22.9966 12.1885 23.0056 12.1945 23.0156 12.1986C23.0255 12.2027 23.0362 12.2048 23.0469 12.2048H25.8833C25.9051 12.2048 25.9259 12.1962 25.9413 12.1809C25.9566 12.1655 25.9653 12.1447 25.9653 12.1229V10.1027C25.9653 8.574 25.6615 7.41145 25.0626 6.64718C24.4578 5.87528 23.5331 5.48399 22.3143 5.48399C19.8507 5.48399 18.6016 7.038 18.6016 10.1027V16.5279C18.6016 19.5927 19.8507 21.1467 22.3143 21.1467ZM30.475 21.1467C29.239 21.1467 28.2784 20.7557 27.62 19.9845C26.9491 19.1987 26.609 18.0358 26.609 16.5279V10.1027C26.609 8.59479 26.9492 7.43189 27.62 6.6462C28.2784 5.87504 29.239 5.484 30.475 5.484C31.711 5.484 32.6716 5.87505 33.33 6.6462C34.0008 7.43189 34.341 8.59479 34.341 10.1027V16.5279C34.341 18.0358 34.0008 19.1987 33.33 19.9845C32.6716 20.7557 31.711 21.1467 30.475 21.1467ZM31.1257 9.43867C31.1257 8.48123 30.9189 8.08989 30.475 8.08989C30.0129 8.08989 29.8243 8.44191 29.8243 9.43867V17.2466C29.8243 18.2433 30.0129 18.5407 30.475 18.5407C30.9189 18.5407 31.1257 18.204 31.1257 17.2466V9.43867ZM32.2358 21.6852H28.7142C28.7024 21.6852 28.691 21.6896 28.6822 21.6974C28.6734 21.7052 28.6678 21.716 28.6664 21.7277L25.9402 44.5027C25.9394 44.5095 25.94 44.5163 25.942 44.5228C25.9441 44.5293 25.9474 44.5353 25.9519 44.5404C25.9565 44.5455 25.962 44.5495 25.9682 44.5523C25.9744 44.5551 25.9811 44.5565 25.9879 44.5565H29.1571C29.1693 44.5565 29.181 44.5519 29.1899 44.5436C29.1988 44.5353 29.2042 44.524 29.2051 44.5118L29.5438 39.0482C29.5446 39.036 29.5501 39.0247 29.559 39.0164C29.5679 39.0081 29.5796 39.0034 29.5917 39.0034H31.1735C31.1857 39.0034 31.1974 39.0081 31.2063 39.0164C31.2152 39.0247 31.2206 39.036 31.2214 39.0482L31.5607 44.5118C31.5615 44.524 31.5669 44.5353 31.5758 44.5436C31.5847 44.5519 31.5964 44.5565 31.6086 44.5565H34.9621C34.9689 44.5565 34.9756 44.5551 34.9818 44.5523C34.988 44.5495 34.9935 44.5455 34.9981 44.5404C35.0026 44.5353 35.0059 44.5293 35.008 44.5228C35.01 44.5163 35.0106 44.5095 35.0098 44.5027L32.2836 21.7277C32.2822 21.716 32.2766 21.7052 32.2678 21.6974C32.259 21.6896 32.2476 21.6852 32.2358 21.6852ZM29.7877 35.6958L30.0986 31.0711L30.3193 27.0704C30.3198 27.058 30.3251 27.0463 30.3341 27.0377C30.343 27.0292 30.3549 27.0244 30.3673 27.0244C30.3797 27.0244 30.3917 27.0292 30.4006 27.0377C30.4095 27.0463 30.4148 27.058 30.4154 27.0704L30.6361 31.0711L30.9777 35.6955C30.9782 35.7021 30.9773 35.7087 30.9751 35.715C30.9729 35.7212 30.9695 35.7269 30.965 35.7318C30.9605 35.7366 30.955 35.7405 30.949 35.7431C30.9429 35.7457 30.9364 35.7471 30.9298 35.7471H29.8356C29.829 35.7471 29.8225 35.7458 29.8165 35.7431C29.8105 35.7405 29.805 35.7367 29.8005 35.7319C29.796 35.7271 29.7926 35.7214 29.7904 35.7152C29.7881 35.709 29.7872 35.7024 29.7877 35.6958ZM48.921 24.8232H50.9681C50.9898 24.8232 51.0106 24.8146 51.026 24.7992C51.0414 24.7838 51.05 24.763 51.05 24.7413V21.7683C51.05 21.7576 51.0479 21.7469 51.0438 21.737C51.0396 21.727 51.0336 21.718 51.026 21.7104C51.0184 21.7028 51.0094 21.6968 50.9994 21.6926C50.9895 21.6885 50.9788 21.6864 50.9681 21.6864L43.6058 21.6878C43.5841 21.6878 43.5632 21.6965 43.5479 21.7118C43.5325 21.7272 43.5239 21.748 43.5239 21.7697V24.7413C43.5239 24.763 43.5325 24.7838 43.5479 24.7992C43.5633 24.8145 43.5841 24.8232 43.6058 24.8232H45.5979C45.6197 24.8232 45.6405 24.8318 45.6559 24.8472C45.6712 24.8625 45.6799 24.8834 45.6799 24.9051L45.6339 39.5337C45.6328 39.6024 45.6456 39.6707 45.6717 39.7343C45.6979 39.7979 45.7367 39.8555 45.7858 39.9036C46.2097 40.1542 46.6795 40.3172 47.1674 40.3832C47.6554 40.4491 48.1516 40.4166 48.6268 40.2875C48.6956 40.2764 48.7586 40.2423 48.8055 40.1908C48.8524 40.1392 48.8804 40.0733 48.885 40.0037L48.8391 24.9051C48.8391 24.8834 48.8477 24.8625 48.8631 24.8472C48.8784 24.8318 48.8992 24.8232 48.921 24.8232ZM56.3869 35.794V44.4774C56.3869 44.4991 56.3956 44.5199 56.4109 44.5353C56.4263 44.5506 56.4471 44.5593 56.4688 44.5593L59.495 44.5593C59.5167 44.5593 59.5375 44.5506 59.5529 44.5353C59.5682 44.5199 59.5769 44.4991 59.5769 44.4773V21.7683C59.5769 21.7466 59.5682 21.7258 59.5529 21.7104C59.5375 21.695 59.5167 21.6864 59.495 21.6864L56.4688 21.6864C56.4471 21.6864 56.4263 21.6951 56.4109 21.7104C56.3956 21.7258 56.3869 21.7466 56.3869 21.7683V32.2321C56.3869 32.2538 56.3783 32.2747 56.3629 32.29C56.3476 32.3054 56.3267 32.314 56.305 32.314H55.0303C55.0196 32.314 55.0089 32.3119 54.999 32.3078C54.9891 32.3037 54.98 32.2976 54.9724 32.29C54.9648 32.2824 54.9588 32.2734 54.9547 32.2634C54.9505 32.2535 54.9484 32.2429 54.9484 32.2321V21.7683C54.9484 21.7466 54.9398 21.7258 54.9244 21.7104C54.9091 21.6951 54.8882 21.6864 54.8665 21.6864L51.8147 21.6864C51.7929 21.6864 51.7721 21.6951 51.7567 21.7104C51.7414 21.7258 51.7328 21.7466 51.7328 21.7684V44.4774C51.7328 44.4991 51.7414 44.5199 51.7568 44.5353C51.7721 44.5507 51.7929 44.5593 51.8147 44.5593L54.8665 44.5593C54.8882 44.5593 54.9091 44.5507 54.9244 44.5353C54.9398 44.5199 54.9484 44.4991 54.9484 44.4774V35.794C54.9484 35.7722 54.9571 35.7514 54.9724 35.736C54.9878 35.7207 55.0086 35.712 55.0303 35.712H56.305C56.3267 35.7121 56.3476 35.7207 56.3629 35.736C56.3783 35.7514 56.3869 35.7722 56.3869 35.794ZM25.4888 21.6852H18.9874C18.9657 21.6852 18.9449 21.6938 18.9295 21.7092C18.9142 21.7246 18.9055 21.7454 18.9055 21.7671V44.4774C18.9055 44.4991 18.9142 44.5199 18.9295 44.5353C18.9449 44.5507 18.9657 44.5593 18.9874 44.5593H25.4888C25.5105 44.5593 25.5313 44.5507 25.5467 44.5353C25.5621 44.5199 25.5707 44.4991 25.5707 44.4774V41.442C25.5707 41.4203 25.5621 41.3994 25.5467 41.3841C25.5313 41.3687 25.5105 41.3601 25.4888 41.3601H22.1583C22.1365 41.3601 22.1157 41.3514 22.1003 41.3361C22.085 41.3207 22.0764 41.2999 22.0764 41.2782V35.8204C22.0764 35.7987 22.085 35.7778 22.1003 35.7625C22.1157 35.7471 22.1365 35.7385 22.1583 35.7385H25.1599C25.1816 35.7385 25.2024 35.7298 25.2178 35.7145C25.2332 35.6991 25.2418 35.6783 25.2418 35.6565V32.4311C25.2418 32.4094 25.2332 32.3885 25.2178 32.3732C25.2024 32.3578 25.1816 32.3492 25.1599 32.3492H22.1583C22.1366 32.3492 22.1157 32.3406 22.1004 32.3252C22.085 32.3098 22.0764 32.289 22.0764 32.2673V24.9662C22.0764 24.9445 22.085 24.9237 22.1004 24.9083C22.1157 24.893 22.1366 24.8843 22.1583 24.8843H25.4888C25.5105 24.8843 25.5313 24.8757 25.5467 24.8603C25.5621 24.845 25.5707 24.8241 25.5707 24.8024V21.7671C25.5707 21.7454 25.5621 21.7245 25.5467 21.7092C25.5313 21.6938 25.5105 21.6852 25.4888 21.6852ZM38.8812 32.3385H38.8169C38.7735 32.3384 38.7319 32.3211 38.7012 32.2904C38.6706 32.2597 38.6533 32.2181 38.6531 32.1747V24.6159C38.6531 24.5507 38.6857 24.5181 38.7183 24.5181H39.0767C39.8262 24.5181 39.8262 24.9417 39.8262 26.1799V30.7744C39.8262 31.4261 39.8588 32.3385 38.8812 32.3385ZM35.3946 21.8705V44.502C35.3946 44.5168 35.4005 44.531 35.411 44.5415C35.4215 44.552 35.4357 44.5579 35.4506 44.5579H38.5804C38.6062 44.5579 38.631 44.5479 38.6495 44.5299C38.668 44.5119 38.6788 44.4874 38.6795 44.4616C38.6822 44.3679 38.6857 44.2339 38.6857 44.1929V35.83C38.6857 35.8054 38.6948 35.7817 38.7114 35.7635C38.7279 35.7453 38.7507 35.734 38.7752 35.7318C38.9221 35.7032 39.0743 35.7303 39.2023 35.8078C39.3303 35.8853 39.4249 36.0076 39.4678 36.151C40.1842 38.3655 41.6555 46.6283 50.3104 44.0675C50.32 44.0647 50.3291 44.0606 50.3376 44.0552C50.3676 44.0391 50.3938 44.0169 50.4146 43.99C50.4354 43.963 50.4503 43.932 50.4583 43.899C50.4663 43.8659 50.4673 43.8315 50.4611 43.7981C50.4549 43.7646 50.4418 43.7328 50.4225 43.7048L49.4789 41.3622C49.478 41.3598 49.4769 41.3574 49.4758 41.3552C49.4118 41.2266 49.3785 41.1342 49.1517 41.1957C45.1632 42.2785 44.0297 40.1263 42.9218 35.9555C42.9218 35.9555 42.3352 33.3812 41.2925 34.0981C41.9116 33.9678 43.1173 33.0554 43.1173 30.6115V25.2676C43.1173 23.5731 41.6835 21.6864 38.979 21.6864H35.4932C35.4671 21.6864 35.442 21.6968 35.4235 21.7153C35.405 21.7338 35.3946 21.7589 35.3946 21.785L35.3946 21.8705Z" fill="#FCFCFD"/>
</g>
<defs>
<clipPath id="clip0_14912_30849">
<rect width="41.92" height="40" fill="white" transform="translate(18.125 5)"/>
</clipPath>
</defs>
</svg>
