<svg width="78" height="50" viewBox="0 0 78 50" fill="none" xmlns="http://www.w3.org/2000/svg">
<path fill-rule="evenodd" clip-rule="evenodd" d="M58.0206 20.8876C56.9711 20.8876 55.707 20.4665 54.898 19.9307L55.4917 17.9653C56.2381 18.5137 57.2112 18.8712 58.0831 18.8712C58.8415 18.8712 59.1325 18.5137 59.1325 18.0545C59.1325 17.5697 58.8925 17.2373 57.4766 16.6634C55.8458 15.9995 55.2774 15.0426 55.2774 13.9195C55.2774 12.5535 56.377 11.2266 58.5388 11.2266C59.5497 11.2266 60.5866 11.5841 61.1298 11.9541L60.5866 13.8939C60.0555 13.5234 59.196 13.1279 58.5388 13.1279C57.7548 13.1279 57.4388 13.4983 57.4388 13.8809C57.4388 14.4938 57.9065 14.6981 59.0695 15.1954C60.8014 15.9359 61.3197 16.7781 61.3197 17.9778C61.3197 19.471 60.245 20.8876 58.0206 20.8876ZM24.2949 20.7348V13.3707H27.0753V11.3793H19.3651V13.3707H22.146V20.7348H24.2949ZM18.3655 11.3796H16.2166V20.7347H18.3655V11.3796ZM39.9676 20.7346V11.3796H45.8333V13.3705H42.1166V15.0424H45.504V16.9312H42.1166V18.7563H45.8333V20.7346H39.9676ZM51.6833 20.7348V13.3707H54.4642V11.3793H46.7535V13.3707H49.5344V20.7348H51.6833ZM24.2356 22.7672V32.1222H30.1013V30.1439H26.3841V28.3187H29.772V26.43H26.3841V24.7585H30.1013V22.7672H24.2356ZM35.6975 24.7583V32.122H33.5485V24.7583H30.7676V22.7669H38.4783V24.7583H35.6975ZM43.8017 32.122V24.7583H46.5825V22.7669H38.8718V24.7583H41.6527V32.122H43.8017ZM47.3173 32.1222V22.7672H53.183V24.7585H49.4663V26.43H52.8533V28.3187H49.4663V30.1439H53.183V32.1222H47.3173ZM18.3023 28.115H19.1108C20.2481 28.115 20.8054 28.5231 20.8054 29.2377C20.8054 29.9392 20.2862 30.3604 19.1991 30.3604H18.3023V28.115ZM18.3023 24.5673H19.2754C20.1855 24.5673 20.6523 25.0265 20.6523 25.5874C20.6523 26.2639 20.134 26.6469 19.0984 26.6469H18.3023V24.5673ZM16.2163 32.1223H19.2501C22.0309 32.1223 23.1305 30.9226 23.1305 29.4675C23.1305 28.3954 22.5364 27.6545 21.2722 27.2728C22.322 26.8387 22.8652 26.1743 22.8652 25.1918C22.8652 23.8908 21.766 22.7673 19.073 22.7673H16.2163V32.1223ZM57.6065 24.6436H56.7732V27.3235H57.4557C58.4793 27.3235 59.1361 26.8258 59.1361 25.8814C59.1361 25.1024 58.5299 24.6436 57.6065 24.6436ZM59.5155 32.1225L57.9353 29.0721L56.7732 29.0592V32.1225H54.6238V22.7675H57.3541C60.2361 22.7675 61.3738 24.0949 61.3738 25.8049C61.3738 26.9159 60.7801 27.9109 59.7808 28.5103L61.9551 32.1225L59.5155 32.1225ZM17.2066 37.8377H17.6202V37.8385C18.8901 37.8385 19.5646 37.1173 19.5646 36.1187C19.5646 35.1412 18.8187 34.3944 17.4298 34.3944H16.0938V39.2735H17.2066V37.8377ZM17.2066 35.4356C17.2066 35.4356 17.4755 35.4449 17.6202 35.4449C18.17 35.4449 18.4247 35.7486 18.4247 36.1393C18.4247 36.6088 18.1309 36.8664 17.5408 36.8664C17.4365 36.8664 17.2066 36.8338 17.2066 36.8338V35.4356ZM31.871 39.3516C30.3845 39.3516 29.4345 38.2742 29.4345 36.8526C29.4345 35.4244 30.4306 34.3466 31.9167 34.3466C33.3961 34.3466 34.3528 35.4244 34.3528 36.8526C34.3528 38.2742 33.3508 39.3516 31.871 39.3516ZM31.8896 35.3523C31.1308 35.3523 30.6201 35.9795 30.6201 36.8526C30.6201 37.7187 31.1308 38.3534 31.8896 38.3534C32.6511 38.3534 33.1618 37.7187 33.1618 36.8526C33.1618 35.9795 32.6511 35.3523 31.8896 35.3523ZM38.4141 39.3513C39.6836 39.3513 40.1358 38.6641 40.1358 37.5997V34.4265H39.0225V37.5002C39.0225 38.0432 38.8325 38.3272 38.3813 38.3272C38.0671 38.3272 37.713 38.2336 37.4517 38.0692L37.1038 39.0077C37.516 39.246 37.9034 39.3513 38.4141 39.3513ZM43.7038 34.4263V39.2719H46.7411V38.2473H44.8166V37.302H46.5707V36.324H44.8166V35.4576H46.7411V34.4263H43.7038ZM49.9788 36.8526C49.9788 38.2871 51.0388 39.3516 52.6034 39.3516C53.1536 39.3516 53.7305 39.1796 54.1489 38.9023L53.8144 37.9502C53.4549 38.1751 53.0099 38.3068 52.6172 38.3068C51.7199 38.3068 51.1622 37.7513 51.1622 36.8526C51.1622 35.9535 51.7199 35.3984 52.6172 35.3984C53.0099 35.3984 53.4092 35.523 53.7638 35.7224L54.1028 34.7695C53.671 34.5119 53.1603 34.3466 52.6034 34.3466C51.0388 34.3466 49.9788 35.4115 49.9788 36.8526ZM57.1297 34.4263V35.4576H58.57V39.2719H59.6833V35.4576H61.1237V34.4263H57.1297ZM23.8869 35.3719H24.3218C24.8032 35.3719 25.1196 35.6116 25.1196 36.0174C25.1196 36.5102 24.7766 36.7697 24.2428 36.7697H23.8869V35.3719ZM24.4926 37.6817L25.3175 39.2726L26.5901 39.2725L25.4555 37.3887C25.9769 37.076 26.2866 36.5568 26.2866 35.9775C26.2866 35.0856 25.6924 34.3933 24.19 34.3933H22.7661V39.2725H23.8869V37.675L24.4926 37.6817Z" fill="#FCFCFD"/>
<path d="M38.3343 15.4762V19.9432C37.3102 20.5431 36.223 20.8876 34.8199 20.8876C32.1021 20.8876 29.9531 18.9227 29.9531 16.0636C29.9531 13.1919 32.127 11.2266 34.9335 11.2266C36.1467 11.2266 37.1202 11.5455 38.0432 12.0307L37.1455 13.7788C36.4884 13.4343 35.7806 13.2555 35.0729 13.2555C33.2274 13.2555 32.2414 14.4172 32.2414 16.0636C32.2414 17.8502 33.4293 18.9608 34.9464 18.9608C35.6289 18.9608 35.9701 18.8837 36.3113 18.7049V17.3269H34.4534V15.4762L38.3343 15.4762Z" fill="#808191"/>
</svg>
