<svg width="78" height="50" viewBox="0 0 78 50" fill="none" xmlns="http://www.w3.org/2000/svg">
<g clip-path="url(#clip0_14912_30874)">
<path d="M63.457 17.2528H60.3482L58.4245 22.0459C57.5866 19.7084 55.0762 16.8411 50.8352 16.8411C48.3653 16.8411 46.3802 17.8134 44.9909 19.2646C45.5247 20.1926 45.7871 21.2641 45.7864 22.3415C45.7753 24.0714 45.1077 25.8392 43.9455 26.8526L43.9436 26.8533L43.9429 26.8552C43.7002 27.0647 43.4502 27.2513 43.1827 27.417C44.2235 30.469 47.0674 32.8613 50.877 32.8613C52.1384 32.8613 53.3332 32.5794 54.4002 32.0737L54.1535 32.6897H58.386L59.2017 30.456H64.5624L65.3129 32.6897H69.5891L63.457 17.2528ZM54.5489 26.7926C54.2984 27.3355 53.2973 29.3995 50.8352 29.3995C48.27 29.3995 46.6843 27.1462 46.6843 24.8114C46.6843 22.6188 48.1656 20.3035 50.8144 20.3035C52.9437 20.3035 54.1104 21.8468 54.5489 22.9947H58.044L56.5197 26.7926H54.5489ZM60.2856 27.327L61.8719 22.0511H61.9124H61.9339L63.5216 27.327H60.2856ZM28.3005 20.1384C29.509 20.1384 29.633 21.1192 29.7185 21.6386H32.946V19.0852C32.8442 18.9234 32.7333 18.7596 32.5976 18.5938C31.5952 17.4055 29.9482 16.8411 28.4245 16.8411C25.8377 16.8411 23.0226 18.4901 23.0226 21.3881C23.0226 24.288 25.7124 25.3745 26.7983 25.8124C29.1755 26.8134 29.8216 27.064 29.8216 28.0866C29.8216 28.7946 29.2591 29.5672 28.3214 29.5672C27.8208 29.5672 26.7161 29.254 26.7161 27.4608H22.7916V27.4869L18.6785 17.134H15.5691L9.375 32.5709H13.6094L14.4225 30.3405H19.7839L20.535 32.5709H24.8119L24.4608 31.6874C25.3157 32.383 26.5634 32.8613 28.3625 32.8613C30.7345 32.8613 32.1623 32.0241 32.946 30.8841V25.6388C32.3966 24.9543 31.5137 24.3252 30.1348 23.706C27.3608 22.4531 26.9445 22.2632 26.9445 21.3476C26.9445 20.6181 27.6127 20.1384 28.3005 20.1384ZM15.5084 27.2102L17.0928 21.931H17.1359H17.1561L18.7418 27.2102H15.5084Z" fill="#FCFCFD"/>
<path d="M67.2744 17.2755C67.7984 17.2755 68.216 17.7016 68.216 18.2341C68.216 18.7744 67.7984 19.1953 67.2704 19.1953C66.7464 19.1953 66.3203 18.7744 66.3203 18.2341C66.3203 17.7016 66.7464 17.2755 67.2704 17.2755H67.2744ZM67.2704 17.4243C66.8482 17.4243 66.5037 17.7864 66.5037 18.2341C66.5037 18.6896 66.8482 19.0472 67.2744 19.0472C67.7005 19.0511 68.0411 18.6896 68.0411 18.238C68.0411 17.7865 67.7005 17.4243 67.2744 17.4243H67.2704ZM67.0916 18.7914H66.9213V17.7218C67.0101 17.7094 67.0962 17.697 67.2235 17.697C67.3859 17.697 67.4917 17.731 67.5556 17.7773C67.6196 17.8243 67.6535 17.8967 67.6535 17.9998C67.6535 18.1401 67.5602 18.225 67.4447 18.2589V18.2674C67.5386 18.2843 67.6033 18.3698 67.6241 18.5277C67.6489 18.6935 67.6744 18.7568 67.692 18.7914H67.5125C67.4871 18.7568 67.4623 18.6589 67.4408 18.5186C67.4153 18.3822 67.3468 18.3313 67.211 18.3313H67.0916V18.7914ZM67.0916 18.1995H67.215C67.3553 18.1995 67.4747 18.148 67.4747 18.0161C67.4747 17.9228 67.4075 17.8289 67.215 17.8289C67.1589 17.8289 67.1217 17.8328 67.0916 17.8373V18.1995Z" fill="#FCFCFD"/>
<path d="M33.5391 17.1121H38.6023C41.4663 17.1121 42.5339 17.5507 43.3725 18.2417C44.5849 19.2447 45.1937 20.7717 45.1937 22.3411C45.1937 23.9098 44.5425 25.5634 43.5597 26.4013C42.4928 27.3005 41.4468 27.7391 39.0401 27.7391H37.3252V32.5947H33.5391V17.1121ZM37.3252 24.2661H38.937C39.6888 24.2661 41.405 24.2662 41.405 22.4044C41.405 20.5844 39.6477 20.5844 38.7889 20.5844H37.3252V24.2661Z" fill="#808191"/>
</g>
<defs>
<clipPath id="clip0_14912_30874">
<rect width="60.2141" height="16.0203" fill="white" transform="translate(9.375 16.8408)"/>
</clipPath>
</defs>
</svg>
