<svg width="78" height="50" viewBox="0 0 78 50" fill="none" xmlns="http://www.w3.org/2000/svg">
<g clip-path="url(#clip0_14912_30880)">
<path fill-rule="evenodd" clip-rule="evenodd" d="M75.4579 33.1851C75.3909 33.1139 75.2882 33.0665 75.1459 33.0665C74.9958 33.0665 74.8733 33.1298 74.8024 33.2244C74.7313 33.3156 74.6998 33.4102 74.6956 33.5444H75.5843C75.5803 33.3904 75.5368 33.2724 75.4579 33.1851ZM76.0739 33.9041H74.6998C74.6956 34.0617 74.7508 34.2118 74.8496 34.307C74.9208 34.3739 75.0195 34.4331 75.1537 34.4331C75.296 34.4331 75.3831 34.4055 75.454 34.3343C75.4975 34.2908 75.5329 34.2353 75.5527 34.1608H76.0268C76.015 34.2832 75.9319 34.4448 75.8527 34.5397C75.6791 34.745 75.4224 34.8279 75.1618 34.8279C74.8811 34.8279 74.6761 34.7294 74.514 34.5751C74.3086 34.3778 74.1981 34.0896 74.1981 33.7537C74.1981 33.4259 74.2969 33.1335 74.4942 32.9323C74.6482 32.7744 74.8694 32.6717 75.1498 32.6717C75.454 32.6717 75.7307 32.7942 75.9004 33.0509C76.0505 33.276 76.0859 33.509 76.0781 33.7657C76.0781 33.7657 76.0739 33.8605 76.0739 33.9041ZM73.7587 32.2847C73.581 32.2847 73.4903 32.3874 73.4903 32.5336V32.7228H74.0394V33.1298H73.4903V34.7768H72.9967V33.1298H72.6491V32.7228H72.9967V32.5255C72.9967 32.1463 73.2534 31.8776 73.6957 31.8776C73.8377 31.8776 73.9287 31.8896 74.0827 31.9212V32.3162C73.9761 32.2946 73.8675 32.284 73.7587 32.2847ZM71.853 34.7768H72.3544V32.7228H71.853V34.7768ZM71.8371 32.4384H72.3661V31.9292H71.8371V32.4384ZM71.3041 34.8003C70.9685 34.8003 70.7431 34.6384 70.7431 34.2475V31.9212H71.2408V34.1644C71.2408 34.283 71.2684 34.3619 71.4384 34.3619C71.4819 34.3619 71.4936 34.3583 71.5212 34.3583V34.7726C71.4225 34.7925 71.4026 34.8003 71.3041 34.8003ZM68.9306 34.7768V33.509C68.9306 33.2718 68.8514 33.1259 68.5908 33.1259C68.2945 33.1259 68.1681 33.4418 68.1681 33.6945V34.7768H67.6745V31.9253H68.1681V32.9401C68.2866 32.7665 68.5157 32.6717 68.7289 32.6717C69.1672 32.6717 69.4242 32.9836 69.4242 33.4063V34.7768H68.9306ZM67.1033 34.5913C66.9375 34.757 66.6811 34.8279 66.4004 34.8279C66.1396 34.8279 65.9066 34.7531 65.7367 34.5913C65.6181 34.4766 65.5196 34.307 65.5196 34.1131H65.9816C65.9816 34.204 66.0291 34.3028 66.0924 34.3541C66.1713 34.4172 66.2623 34.4448 66.4043 34.4448C66.5701 34.4448 66.8231 34.4094 66.8231 34.1842C66.8231 34.0659 66.7442 33.9867 66.6178 33.9674C66.4359 33.9395 66.2302 33.9275 66.0489 33.8882C65.7685 33.8287 65.5787 33.5999 65.5787 33.3391C65.5787 33.1298 65.6658 32.9836 65.7883 32.877C65.9381 32.7467 66.1557 32.6717 66.4121 32.6717C66.6571 32.6717 66.9057 32.7506 67.0558 32.9125C67.1663 33.031 67.2375 33.1851 67.2375 33.3352H66.7676C66.7676 33.2562 66.7322 33.1929 66.6845 33.1415C66.6256 33.0824 66.519 33.0467 66.4161 33.0467C66.3449 33.0467 66.2779 33.0467 66.2026 33.0782C66.1158 33.1139 66.045 33.189 66.045 33.2956C66.045 33.4418 66.1713 33.4853 66.2818 33.5009C66.4677 33.5246 66.519 33.5288 66.7202 33.5601C67.0441 33.6117 67.281 33.8168 67.281 34.141C67.281 34.3382 67.2098 34.4844 67.1033 34.5913ZM64.6463 34.7768H65.1477V32.7228H64.6463V34.7768ZM64.6307 32.4384H65.1597V31.9292H64.6307V32.4384ZM63.8265 34.7768H63.3686L62.9024 33.3904L62.4442 34.7768H61.9861L61.4649 32.7228H61.9426L62.2704 34.0695L62.7012 32.7426H63.1077L63.5421 34.0659L63.8583 32.7228H64.3281L63.8265 34.7768ZM60.7011 33.1851C60.6338 33.1139 60.5312 33.0665 60.3889 33.0665C60.2388 33.0665 60.1163 33.1298 60.0454 33.2244C59.9743 33.3156 59.9427 33.4102 59.9386 33.5444H60.8275C60.8233 33.3904 60.7798 33.2724 60.7011 33.1851ZM61.3171 33.9041H59.9427C59.9386 34.0617 59.9941 34.2118 60.0928 34.307C60.1637 34.3739 60.2625 34.4331 60.3967 34.4331C60.539 34.4331 60.626 34.4055 60.6969 34.3343C60.745 34.2865 60.7792 34.2265 60.7957 34.1608H61.2697C61.2577 34.2832 61.1749 34.4448 61.0959 34.5397C60.9221 34.745 60.6654 34.8279 60.4048 34.8279C60.1244 34.8279 59.919 34.7294 59.7569 34.5751C59.5516 34.3778 59.4411 34.0896 59.4411 33.7537C59.4411 33.4259 59.5401 33.1335 59.7374 32.9323C59.8911 32.7744 60.1126 32.6717 60.3928 32.6717C60.6969 32.6717 60.9734 32.7942 61.1433 33.0509C61.2934 33.276 61.3289 33.509 61.321 33.7657C61.321 33.7657 61.3171 33.8605 61.3171 33.9041ZM58.1772 34.8321C57.9124 34.8321 57.719 34.745 57.5809 34.6027C57.4149 34.4333 57.3359 34.204 57.3359 33.8999H57.8295C57.8295 34.0383 57.8454 34.1806 57.9325 34.2752C57.9877 34.3343 58.0745 34.3778 58.1774 34.3778C58.4065 34.3778 58.517 34.2277 58.517 33.9987V31.9764H59.0262V33.959C59.0262 34.4881 58.7143 34.8321 58.1772 34.8321ZM75.3591 30.2194V28.9594C75.3591 28.7186 75.2801 28.5724 75.0195 28.5724C74.8457 28.5724 74.7313 28.6829 74.6641 28.833C74.5929 28.9951 74.5968 29.2083 74.5968 29.3821V30.2194H74.1033V28.1659H74.5176L74.5533 28.4301C74.6758 28.2131 74.9208 28.1143 75.1579 28.1143C75.5962 28.1143 75.8529 28.4223 75.8529 28.8489V30.2197L75.3591 30.2194ZM73.0887 30.2194H73.5901V28.1659H73.0887V30.2194ZM73.0728 27.8813H73.6019V27.3718H73.0728V27.8813ZM71.122 30.5707C71.019 30.8391 70.8494 31.0844 70.49 31.0844C70.3282 31.0844 70.2174 31.0606 70.1106 31.033V30.6223C70.2412 30.646 70.2766 30.6578 70.3874 30.6578C70.4783 30.6578 70.5729 30.6265 70.6245 30.504L70.7425 30.2155L69.9331 28.1656H70.4744L71.0112 29.6505L71.5246 28.1656H72.0265L71.122 30.5707ZM69.3601 30.2471C68.9457 30.2471 68.7398 30.0099 68.7398 29.6151V28.5727H68.3646V28.1656H68.7398V27.6444L69.2339 27.5219V28.1656H69.751V28.5724H69.2339V29.5716C69.2339 29.7298 69.3048 29.7967 69.463 29.7967C69.5652 29.7967 69.6483 29.7928 69.7828 29.7769V30.1921C69.6446 30.2275 69.5065 30.2471 69.3601 30.2471ZM67.5744 30.2194H68.0761V28.1659H67.5744V30.2194ZM67.5585 27.8813H68.0875V27.3718H67.5585V27.8813ZM67.0256 30.2431C66.6899 30.2431 66.4648 30.081 66.4648 29.6901V27.3638H66.9625V29.6073C66.9625 29.7259 66.9899 29.8046 67.1598 29.8046C67.2033 29.8046 67.2151 29.8006 67.2429 29.8006V30.2155C67.1439 30.2353 67.1241 30.2431 67.0256 30.2431ZM65.4766 29.3071L64.9551 29.3467C64.805 29.3584 64.6588 29.4491 64.6588 29.6151C64.6588 29.7733 64.7972 29.8718 64.951 29.8718C65.2592 29.8718 65.4766 29.706 65.4766 29.4019V29.3071ZM65.8912 30.251C65.678 30.251 65.5595 30.1168 65.5436 29.9627C65.449 30.1287 65.2121 30.2708 64.9197 30.2708C64.43 30.2708 64.1772 29.9627 64.1772 29.6271C64.1772 29.2359 64.4814 29.011 64.8723 28.9831L65.4766 28.9396V28.8132C65.4766 28.6199 65.4094 28.4896 65.1289 28.4896C64.8999 28.4896 64.7657 28.5922 64.7537 28.7817H64.276C64.3036 28.3196 64.6708 28.1143 65.1289 28.1143C65.4805 28.1143 65.781 28.2248 65.899 28.5331C65.9506 28.6634 65.9584 28.8096 65.9584 28.9477V29.7102C65.9584 29.8046 65.99 29.8403 66.0731 29.8403C66.1044 29.8403 66.1364 29.8324 66.1364 29.8324V30.1957C66.053 30.2314 66.0095 30.251 65.8912 30.251ZM63.3874 30.2197L63.3519 29.951C63.2529 30.1522 63.0238 30.2708 62.7635 30.2708C62.3249 30.2708 62.0523 29.9745 62.0523 29.5361V28.1656H62.5461V29.4256C62.5461 29.6667 62.6407 29.8165 62.9013 29.8165C63.016 29.8165 63.095 29.7733 63.1541 29.7139C63.2729 29.6034 63.3045 29.4176 63.3045 29.2518V28.1656H63.7981V30.2194L63.3874 30.2197ZM60.6208 28.5331C60.4665 28.5331 60.3602 28.604 60.2891 28.6949C60.1861 28.8291 60.1588 29.0188 60.1588 29.1963C60.1588 29.3743 60.1861 29.5598 60.2891 29.6941C60.3599 29.7847 60.4665 29.8562 60.6208 29.8562C61.0078 29.8562 61.087 29.4926 61.087 29.1963C61.087 28.9003 61.0078 28.5331 60.6208 28.5331ZM61.0631 31.0051V30.0732C60.9685 30.1879 60.7712 30.2708 60.526 30.2708C60.3167 30.2708 60.1507 30.2077 60.0246 30.105C59.7796 29.9033 59.6571 29.5914 59.6571 29.1885C59.6571 28.8015 59.7796 28.4935 60.0246 28.292C60.165 28.1776 60.3412 28.1161 60.5223 28.1182C60.7472 28.1182 60.9763 28.2011 61.0985 28.3908L61.1303 28.1656H61.5569V31.0051H61.0631ZM58.7619 28.6277C58.6947 28.5565 58.592 28.5094 58.4497 28.5094C58.2996 28.5094 58.1772 28.5724 58.1063 28.6673C58.0351 28.7582 58.0033 28.8528 57.9994 28.987H58.8881C58.8839 28.8333 58.8406 28.7147 58.7619 28.6277ZM59.378 29.3467H58.0033C57.9994 29.5046 58.0547 29.6544 58.1534 29.7496C58.2243 29.8168 58.3234 29.876 58.4576 29.876C58.5996 29.876 58.6869 29.8481 58.7578 29.7769C58.8013 29.7337 58.8367 29.6782 58.8563 29.6034H59.3306C59.3186 29.7259 59.2357 29.8877 59.1568 29.9825C58.9827 30.1879 58.7262 30.2708 58.4654 30.2708C58.1852 30.2708 57.9799 30.1723 57.8178 30.018C57.6124 29.8204 57.5017 29.5322 57.5017 29.1963C57.5017 28.8687 57.6007 28.5763 57.798 28.3749C57.952 28.217 58.1732 28.1143 58.4537 28.1143C58.7578 28.1143 59.0343 28.2368 59.2042 28.4935C59.3543 28.7186 59.3897 28.9516 59.3819 29.2083C59.3819 29.2083 59.378 29.3034 59.378 29.3467ZM75.2908 23.4584C75.1801 23.3401 75.0104 23.2729 74.8483 23.2729C74.6867 23.2729 74.5168 23.3401 74.4061 23.4584C74.2125 23.6598 74.2046 24.0075 74.2046 24.2642C74.2046 24.5209 74.2125 24.8643 74.4061 25.066C74.5168 25.1846 74.6865 25.2516 74.8483 25.2516C74.9077 25.2516 74.9708 25.2438 75.0302 25.224L74.73 24.8487L75.038 24.6077L75.3463 24.9986C75.4842 24.7935 75.4923 24.493 75.4923 24.2642C75.4923 24.0075 75.4842 23.6598 75.2908 23.4584ZM75.6583 25.3936L75.9027 25.7019L75.5988 25.9388L75.3382 25.6149C75.1842 25.6821 75.0182 25.7139 74.8483 25.7139C74.5484 25.7139 74.256 25.611 74.0428 25.3978C73.7384 25.0937 73.6873 24.7223 73.6873 24.2642C73.6873 23.806 73.7384 23.4308 74.0428 23.1267C74.256 22.9135 74.5484 22.8105 74.8483 22.8105C75.1485 22.8105 75.4407 22.9135 75.6541 23.1267C75.9585 23.4308 76.0095 23.806 76.0095 24.2642C76.0095 24.7223 75.9585 25.0895 75.658 25.3936H75.6583ZM72.7348 23.3359V25.6623H72.2254V23.3359H71.3956V22.8621H73.5641V23.3359H72.7348ZM70.2505 24.4302H69.6068V25.2081H70.2346C70.4718 25.2081 70.7285 25.1213 70.7285 24.837C70.7285 24.5368 70.5192 24.4302 70.2505 24.4302ZM70.2346 23.3005H69.6066V24.0036H70.2466C70.4757 24.0036 70.6693 23.9204 70.6693 23.6559C70.6693 23.3875 70.464 23.3005 70.2346 23.3005ZM70.9617 25.4765C70.7444 25.6425 70.4838 25.6662 70.2151 25.6662H69.1013V22.8619H70.2151C70.44 22.8619 70.673 22.8932 70.8627 23.0156C70.9628 23.0823 71.0449 23.1728 71.1015 23.279C71.158 23.3852 71.1874 23.5038 71.1869 23.6241C71.1869 23.8532 71.08 24.1099 70.8429 24.2165C71.1076 24.339 71.2458 24.5878 71.2458 24.8484C71.2458 25.0973 71.1626 25.3225 70.9617 25.4765ZM68.2879 25.6623L68.2288 25.3543C68.1459 25.5161 67.8772 25.7097 67.526 25.7139C67.2018 25.7175 66.9138 25.6347 66.6926 25.4017C66.4002 25.0976 66.329 24.7223 66.329 24.2642C66.329 23.806 66.3884 23.4425 66.6926 23.1384C66.9057 22.9252 67.2257 22.8105 67.526 22.8105C67.8694 22.8105 68.1657 22.9369 68.3552 23.1308C68.4936 23.2729 68.5962 23.4506 68.6119 23.6953H68.0907C68.0829 23.5848 68.0276 23.5097 67.9682 23.4386C67.8692 23.3239 67.7154 23.2689 67.5218 23.2689C67.3602 23.2689 67.1741 23.3401 67.0639 23.4584C66.8703 23.6598 66.8463 24.0075 66.8463 24.2642C66.8463 24.5209 66.8745 24.8802 67.0678 25.0817C67.1783 25.2003 67.3602 25.2594 67.5218 25.2594C67.7037 25.2594 67.846 25.1963 67.9406 25.0976C68.0907 24.9394 68.1222 24.7656 68.1222 24.5524H67.4548V24.1297H68.6158V25.662H68.2882L68.2879 25.6623ZM64.3894 25.6623V22.8619H64.8988V25.1802H66.1982V25.662L64.3894 25.6623ZM63.09 24.0468C62.7424 24.0468 62.5605 24.2957 62.5605 24.6275V25.662H62.063V23.6085H62.4815L62.525 23.9165C62.6199 23.6797 62.8648 23.5809 63.1056 23.5809C63.1572 23.5809 63.2086 23.5848 63.2597 23.5929V24.0666C63.2039 24.0542 63.1471 24.0475 63.09 24.0468ZM61.0164 24.118C60.9759 24.0764 60.9273 24.0434 60.8737 24.021C60.8201 23.9986 60.7626 23.9873 60.7045 23.9877C60.5703 23.9877 60.4595 24.0468 60.3925 24.118C60.2742 24.2483 60.2466 24.4419 60.2466 24.6353C60.2466 24.8289 60.2742 25.0225 60.3925 25.1528C60.4595 25.224 60.5703 25.2831 60.7045 25.2831C60.8387 25.2831 60.9494 25.224 61.0164 25.1528C61.135 25.0225 61.1623 24.8289 61.1623 24.6353C61.1623 24.4419 61.135 24.2483 61.0164 24.118ZM61.4235 25.3936C61.2812 25.5674 61.0164 25.7136 60.7042 25.7136C60.3925 25.7136 60.1278 25.5677 59.9857 25.3936C59.8317 25.2003 59.7447 24.9829 59.7447 24.6353C59.7447 24.2879 59.8317 24.0706 59.9857 23.8769C60.1278 23.7034 60.3923 23.5572 60.7045 23.5572C61.0164 23.5572 61.2812 23.7031 61.4235 23.8772C61.5772 24.0706 61.6643 24.2879 61.6643 24.6355C61.6643 24.9829 61.5775 25.2 61.4235 25.3936ZM58.1732 23.3239V24.0745H59.445V24.5368H58.1732V25.6623H57.6638V22.8619H59.599V23.3237H58.1735L58.1732 23.3239Z" fill="#808191"/>
<path fill-rule="evenodd" clip-rule="evenodd" d="M53.5637 35.3856H53.6481V11.875H53.5637V35.3856ZM38.6917 26.6518V30.2385C38.6917 32.3478 37.6871 33.5036 36.0544 33.5036C35.2067 33.5036 34.5299 33.1888 34.0739 32.5933C34.3634 32.5307 34.9727 32.3577 35.6224 31.9144C36.0505 31.6226 36.4915 31.1556 36.683 30.6411C37.0382 29.63 36.9509 26.6518 36.9509 26.6518H35.1731C35.1731 26.6518 35.1702 29.3311 35.0769 29.9258C34.9511 30.731 34.2884 31.2165 33.5081 31.246C33.4464 30.9137 33.4161 30.5764 33.4174 30.2385V26.6518H31.6219L31.6086 30.0548C31.6086 33.6156 33.3046 35.0362 36.0604 35.0362C38.816 35.0362 40.5123 33.6156 40.5123 30.0548L40.5256 26.6518H38.6917ZM21.325 18.5047C21.325 17.9697 21.8264 17.652 22.5785 17.652C23.303 17.652 23.8565 18.0705 23.9753 18.6527H26.0753C25.9337 17.1803 24.4838 16.0639 22.5788 16.0639C20.7233 16.0639 19.3022 17.0333 19.3022 18.5883C19.3022 21.9983 24.1669 20.4941 24.1669 22.2659C24.1669 22.8846 23.6652 23.1853 22.8295 23.1853C22.0122 23.1853 21.3751 22.8142 21.2614 22.0744H19.1649C19.2989 23.7787 20.8335 24.757 22.8295 24.757C24.7853 24.757 26.2397 23.7706 26.2397 22.1823C26.2397 18.7387 21.325 20.1095 21.325 18.5047ZM6.57319 17.8878L5.25533 19.6743L8.18292 24.5366H10.5539L6.57319 17.8878ZM2.5 24.5366H4.59784V12.5489H2.5V24.5366ZM30.2688 29.0105C30.1907 27.7573 29.3724 26.6555 27.4413 26.6555H21.6695V28.3815H23.1732C23.1732 28.3815 23.1703 30.3821 23.1703 31.4873C23.1703 32.1909 23.1167 32.6754 22.8863 32.9232C22.7208 33.1017 22.5796 33.1525 22.1358 33.1525C21.858 33.1525 21.5246 33.0996 21.2518 33.0035V34.792C21.3553 34.8264 21.8731 34.9343 21.8731 34.9343C22.0972 34.9692 22.3403 34.9929 22.5723 34.9929C23.2563 34.9929 23.618 34.8793 24.0824 34.5895C24.3811 34.4032 24.5716 34.14 24.7251 33.827C24.9203 33.4303 24.9992 32.9044 25.0313 32.2339C25.0435 31.9689 25.0313 28.3815 25.0313 28.3815H26.8633C28.0678 28.3815 28.4587 28.7447 28.4587 29.9594V34.8032H30.2759C30.2759 34.8032 30.273 29.0775 30.2688 29.0105ZM41.8669 37.9067H43.5947V29.416H41.8669V37.9067ZM41.8661 28.3192H49.5596V26.6518H41.8664V28.3194L41.8661 28.3192ZM48.6402 22.9107C48.9242 22.9107 49.2755 22.8604 49.5596 22.76V24.5485C49.2586 24.6489 48.7236 24.7492 48.2391 24.7492C46.584 24.7492 45.3803 24.0972 45.3803 21.8573V17.9788H44.0429V16.2236H45.3803V13.7159H47.3864V16.2236H49.5596V17.9788H47.3861V21.7236C47.3861 22.5427 47.7708 22.9107 48.6402 22.9107ZM37.4893 19.6505H41.8023C41.5852 18.4804 40.8164 17.8115 39.6458 17.8115C38.4757 17.8115 37.7069 18.4802 37.4893 19.6505ZM43.7583 21.0713H37.4726C37.6902 22.2917 38.4926 22.9938 39.7294 22.9938C40.6155 22.9938 41.1338 22.6597 41.4012 22.0744H43.5746C43.0732 23.8131 41.6185 24.7492 39.6458 24.7492C37.2556 24.7492 35.5004 22.9607 35.5004 20.4029C35.5004 17.8448 37.2556 16.0561 39.6458 16.0561C42.0368 16.0561 43.7917 17.8448 43.7917 20.4029C43.7917 20.6372 43.775 20.854 43.7583 21.0713ZM29.1154 24.5366H27.0137V12.5432H29.1154V17.3818C29.6338 16.4957 30.4862 16.011 31.5229 16.011C33.2947 16.011 34.6318 17.1811 34.6318 19.5382V24.5366H32.6262V19.9393C32.6262 18.5352 31.9575 17.7659 30.8708 17.7659C29.7841 17.7659 29.1154 18.5352 29.1154 19.9393V24.5366ZM12.1216 19.6508H16.4346C16.217 18.4804 15.448 17.8115 14.2779 17.8115C13.1078 17.8115 12.339 18.4804 12.1214 19.6508H12.1216ZM18.3901 21.0713H12.105C12.3223 22.2917 13.1247 22.9938 14.3618 22.9938C15.2478 22.9938 15.7659 22.6597 16.0335 22.0744H18.2067C17.705 23.8131 16.2506 24.7492 14.2781 24.7492C11.8876 24.7492 10.1325 22.9607 10.1325 20.4029C10.1325 17.8448 11.8876 16.0561 14.2781 16.0561C16.6686 16.0561 18.4238 17.8448 18.4238 20.4029C18.4238 20.6372 18.4071 20.854 18.3904 21.0713H18.3901Z" fill="#FCFCFD"/>
<path fill-rule="evenodd" clip-rule="evenodd" d="M8.01283 12.5488L4.59375 17.2675V20.6235L10.5508 12.5488H8.01309H8.01283ZM44.2843 34.7796L47.5952 28.3188H49.5563L46.2451 34.7796H44.2843Z" fill="#808191"/>
</g>
<defs>
<clipPath id="clip0_14912_30880">
<rect width="73.75" height="26.0601" fill="white" transform="translate(2.5 11.875)"/>
</clipPath>
</defs>
</svg>
