<svg width="78" height="50" viewBox="0 0 78 50" fill="none" xmlns="http://www.w3.org/2000/svg">
<g clip-path="url(#clip0_14912_30886)">
<path d="M59.1318 5H19.375V44.7958H59.1318V5Z" fill="#808191"/>
<path d="M29.1562 9.16992H30.9498V10.4263C30.9498 10.5258 30.9467 10.6328 30.9405 10.747C30.9344 10.8615 30.9275 10.9672 30.92 11.0643C30.9101 11.1785 30.9002 11.2906 30.8903 11.3997H30.9573C31.0342 11.2557 31.1159 11.1426 31.2017 11.0605C31.2875 10.9785 31.3788 10.9169 31.4759 10.8759C31.5727 10.8349 31.6752 10.8086 31.7833 10.7976C31.8916 10.7863 32.0051 10.7809 32.1244 10.7809C32.3207 10.7809 32.4974 10.8096 32.654 10.8667C32.8106 10.9238 32.9429 11.012 33.0513 11.1313C33.1593 11.2506 33.2421 11.4027 33.2991 11.588C33.3562 11.7733 33.385 11.9952 33.385 12.2537V14.0253C33.385 14.1443 33.3956 14.2393 33.4168 14.3101C33.4376 14.3812 33.4694 14.4352 33.5118 14.4728C33.5538 14.5097 33.6072 14.5347 33.6721 14.547C33.7368 14.5597 33.8127 14.5658 33.8995 14.5658H33.9221V14.972H32.2253V12.4588C32.2253 12.2947 32.2147 12.1487 32.1935 12.0209C32.1723 11.8927 32.1374 11.7853 32.0892 11.6981C32.0407 11.6113 31.9771 11.5446 31.8992 11.4988C31.8205 11.4523 31.7255 11.4297 31.6137 11.4297C31.4868 11.4297 31.3812 11.4622 31.2968 11.5265C31.212 11.5911 31.1443 11.6776 31.0933 11.7856C31.0424 11.894 31.0058 12.0195 30.9836 12.1624C30.961 12.3053 30.9498 12.455 30.9498 12.6116V14.0697C30.9498 14.1767 30.9627 14.2626 30.9891 14.3268C31.015 14.3918 31.0516 14.442 31.0992 14.4783C31.1463 14.5142 31.2041 14.5378 31.2725 14.5491C31.3409 14.56 31.4171 14.5658 31.5019 14.5658H31.5241V14.972H29.1785V14.5658H29.1935C29.2807 14.5658 29.36 14.56 29.4321 14.5491C29.5043 14.5378 29.5668 14.5135 29.6205 14.4762C29.6739 14.439 29.7156 14.3856 29.7457 14.3159C29.7754 14.2465 29.7901 14.1542 29.7901 14.04V10.0386C29.7901 9.93676 29.7723 9.85539 29.7361 9.79419C29.7002 9.73368 29.6544 9.68616 29.6 9.65266C29.5453 9.61915 29.4862 9.59761 29.4229 9.58736C29.3597 9.57778 29.3002 9.57231 29.2458 9.57231H29.1562V9.16992Z" fill="white"/>
<path d="M29.1518 22.4421C29.173 22.5033 29.2014 22.5491 29.2376 22.5802C29.2738 22.6113 29.3145 22.6318 29.3607 22.6417C29.4065 22.6517 29.4557 22.6564 29.508 22.6564H29.8287V23.0633H27.1921V22.6564H27.5203C27.575 22.6564 27.626 22.651 27.6732 22.6397C27.7203 22.6288 27.762 22.6058 27.7983 22.571C27.8342 22.5361 27.8622 22.4865 27.882 22.4216C27.9019 22.357 27.9118 22.2701 27.9118 22.1607V20.453H25.9169V22.1607C25.9169 22.2701 25.9275 22.357 25.9487 22.4216C25.9696 22.4865 25.9976 22.5361 26.0325 22.571C26.0673 22.6058 26.1084 22.6288 26.1556 22.6397C26.2027 22.651 26.2537 22.6564 26.3084 22.6564H26.6366V23.0633H24V22.6564H24.321C24.3757 22.6564 24.4267 22.651 24.4738 22.6397C24.521 22.6288 24.5627 22.6058 24.5986 22.571C24.6349 22.5361 24.6626 22.4865 24.6827 22.4216C24.7026 22.357 24.7125 22.2701 24.7125 22.1607V18.4838C24.7125 18.3819 24.7019 18.3006 24.6807 18.2394C24.6595 18.1788 24.6311 18.132 24.5949 18.0999C24.559 18.0674 24.5173 18.0455 24.4701 18.0342C24.4229 18.0233 24.3733 18.0178 24.321 18.0178H24V17.6113H26.6366V18.0178H26.3084C26.2537 18.0178 26.2027 18.0233 26.1556 18.0342C26.1084 18.0455 26.0673 18.0688 26.0325 18.1033C25.9976 18.1385 25.9696 18.1881 25.9487 18.2527C25.9275 18.3173 25.9169 18.4041 25.9169 18.5139V19.9864H27.9118V18.5139C27.9118 18.4041 27.9019 18.3173 27.882 18.2527C27.8622 18.1881 27.8342 18.1385 27.7983 18.1033C27.762 18.0688 27.7203 18.0455 27.6732 18.0342C27.626 18.0233 27.575 18.0178 27.5203 18.0178H27.1921V17.6113H29.8287V18.0178H29.508C29.4557 18.0178 29.4058 18.0233 29.359 18.0342C29.3114 18.0455 29.2701 18.0688 29.2338 18.1033C29.1979 18.1385 29.1699 18.1881 29.1501 18.2527C29.1299 18.3173 29.1203 18.4041 29.1203 18.5139V22.2014C29.1203 22.3009 29.1306 22.3812 29.1518 22.4421Z" fill="white"/>
<path d="M23.9082 9.52051H28.6665L28.7038 11.0008H28.193L28.1369 10.5273C28.127 10.4429 28.1103 10.367 28.0863 10.3C28.0631 10.2326 28.0268 10.1762 27.9783 10.1304C27.9297 10.0843 27.8672 10.0487 27.7903 10.0241C27.713 9.99914 27.6173 9.98649 27.5031 9.98649H26.8915V14.0699C26.8915 14.1793 26.9014 14.2665 26.9212 14.3308C26.941 14.3957 26.9691 14.4453 27.0053 14.4802C27.0412 14.515 27.0829 14.5379 27.1301 14.5492C27.1773 14.5602 27.2282 14.566 27.2829 14.566H27.6036V14.9721H24.9674V14.566H25.288C25.3451 14.566 25.3974 14.5602 25.4446 14.5492C25.4918 14.5379 25.5328 14.515 25.5677 14.4802C25.6022 14.4453 25.6299 14.3957 25.6497 14.3308C25.6696 14.2665 25.6795 14.1793 25.6795 14.0699V9.98649H25.0679C24.9537 9.98649 24.858 9.99914 24.7807 10.0241C24.7038 10.0487 24.6409 10.0843 24.5923 10.1304C24.5438 10.1762 24.5079 10.2326 24.4843 10.3C24.4607 10.367 24.4439 10.4429 24.434 10.5273L24.3817 11.0008H23.8672L23.9082 9.52051Z" fill="white"/>
<path d="M32.4405 28.1341C32.2713 28.2637 32.0327 28.328 31.7246 28.328C31.7246 28.2237 31.7188 28.1317 31.7079 28.0521C31.6966 27.9724 31.6768 27.9068 31.6481 27.8545C31.6197 27.8022 31.5811 27.7625 31.5325 27.7351C31.484 27.7078 31.4238 27.6938 31.3517 27.6938C31.2621 27.6938 31.1852 27.7163 31.1205 27.7611C31.0556 27.8059 31.0012 27.8637 30.9564 27.9345C30.9117 28.0052 30.8751 28.0856 30.8464 28.1751C30.8176 28.2647 30.7954 28.355 30.7793 28.4456C30.7629 28.5362 30.7523 28.6227 30.7475 28.7047C30.7424 28.7868 30.74 28.8575 30.74 28.917V30.2374C30.74 30.3492 30.7537 30.4391 30.7811 30.5078C30.8084 30.5762 30.8457 30.6274 30.8928 30.6623C30.94 30.6975 30.9968 30.7201 31.0624 30.7314C31.1284 30.7427 31.1988 30.7481 31.2734 30.7481H31.5195V31.1546H28.9688V30.7481H28.9913C29.0782 30.7481 29.1578 30.742 29.2299 30.7293C29.3017 30.717 29.364 30.6917 29.4163 30.6531C29.4686 30.6145 29.5089 30.5591 29.5373 30.4869C29.566 30.4151 29.5804 30.3194 29.5804 30.2001V27.9851C29.5804 27.8729 29.5674 27.783 29.5414 27.7146C29.5151 27.6463 29.4778 27.5933 29.4293 27.556C29.3811 27.5187 29.3229 27.4945 29.2559 27.4835C29.1889 27.4722 29.113 27.4668 29.0286 27.4668H29.006V27.0603H30.5499L30.7028 27.6569H30.74C30.7899 27.5423 30.8446 27.4425 30.9041 27.3567C30.964 27.2709 31.0351 27.1994 31.1185 27.1423C31.2019 27.0849 31.3 27.0422 31.4132 27.0134C31.5264 26.9851 31.6611 26.9707 31.818 26.9707C32.1188 26.9707 32.34 27.0237 32.4816 27.1293C32.6231 27.235 32.6942 27.3885 32.6942 27.5898C32.6942 27.8234 32.6098 28.0049 32.4405 28.1341Z" fill="white"/>
<path d="M33.0107 22.5222C32.9338 22.6542 32.8504 22.7605 32.7608 22.8412C32.6716 22.9222 32.5759 22.9841 32.474 23.0275C32.3718 23.071 32.2644 23.1004 32.1512 23.1154C32.0381 23.1305 31.9218 23.1376 31.8025 23.1376C31.4049 23.1376 31.0996 23.0146 30.8873 22.7684C30.6747 22.5222 30.5683 22.1421 30.5683 21.6275V19.9158C30.5683 19.804 30.5584 19.7134 30.5383 19.6436C30.5188 19.5739 30.4873 19.5195 30.4453 19.4795C30.4029 19.4399 30.3489 19.4125 30.2832 19.3975C30.2172 19.3824 30.1383 19.3749 30.0463 19.3749H30.0312V18.9688H31.728V21.4149C31.728 21.579 31.7372 21.727 31.756 21.8587C31.7748 21.9903 31.8063 22.1028 31.8511 22.1961C31.8959 22.2894 31.9553 22.3616 32.0302 22.4125C32.1048 22.4634 32.1977 22.4887 32.3099 22.4887C32.4316 22.4887 32.5365 22.4621 32.6247 22.4087C32.7133 22.3551 32.7851 22.2781 32.8412 22.1773C32.8969 22.0768 32.9383 21.9547 32.9642 21.8118C32.9906 21.6693 33.0032 21.5082 33.0032 21.3291V19.8634C33.0032 19.752 32.9885 19.6634 32.9584 19.5988C32.9287 19.5342 32.8887 19.4853 32.8391 19.4515C32.7895 19.418 32.7311 19.3968 32.6641 19.3882C32.5967 19.3793 32.5259 19.3749 32.4514 19.3749H32.4292V18.9688H34.1629V22.1756C34.1629 22.2877 34.1762 22.3749 34.2022 22.4385C34.2285 22.5017 34.2637 22.5499 34.3085 22.5821C34.3533 22.6142 34.4066 22.6351 34.4688 22.6436C34.5311 22.6522 34.5994 22.6566 34.674 22.6566H34.7372V23.0631H33.2159L33.048 22.5222H33.0107Z" fill="white"/>
<path d="M39.2569 31.2137C39.2569 31.557 39.2091 31.8418 39.1134 32.0695C39.0176 32.2968 38.8846 32.4784 38.7144 32.6137C38.5441 32.7495 38.3414 32.8459 38.1065 32.903C37.8717 32.9601 37.6139 32.9888 37.3328 32.9888H37.1797V32.5153H37.232C37.3715 32.5153 37.4949 32.4927 37.6033 32.4479C37.7113 32.4031 37.8019 32.3286 37.8751 32.2243C37.9486 32.1201 38.004 31.9806 38.0412 31.8066C38.0785 31.6326 38.0973 31.4151 38.0973 31.1543V27.9697C38.0973 27.8599 38.0809 27.7724 38.0487 27.7067C38.0163 27.6408 37.9722 27.5898 37.9164 27.5536C37.8604 27.5177 37.7951 27.4941 37.7205 27.4828C37.646 27.4715 37.5677 27.4661 37.4857 27.4661H37.4634V27.0596H39.2569V31.2137Z" fill="white"/>
<path d="M39.2431 26.0676C39.2072 26.1374 39.1594 26.1945 39.0995 26.2392C39.04 26.284 38.9703 26.3175 38.8906 26.3401C38.8113 26.3623 38.7279 26.3736 38.6407 26.3736C38.5491 26.3736 38.464 26.3623 38.3857 26.3401C38.3071 26.3175 38.2387 26.284 38.1802 26.2392C38.1218 26.1945 38.0759 26.1374 38.0424 26.0676C38.0089 25.9982 37.9922 25.9162 37.9922 25.8218C37.9922 25.7244 38.0089 25.6413 38.0424 25.5719C38.0759 25.5022 38.1218 25.4457 38.1802 25.402C38.2387 25.3586 38.3071 25.3261 38.3857 25.3052C38.464 25.284 38.5491 25.2734 38.6407 25.2734C38.7279 25.2734 38.8113 25.284 38.8906 25.3052C38.9703 25.3261 39.04 25.3586 39.0995 25.402C39.1594 25.4457 39.2072 25.5022 39.2431 25.5719C39.279 25.6413 39.2971 25.7244 39.2971 25.8218C39.2971 25.9162 39.279 25.9982 39.2431 26.0676Z" fill="white"/>
<path d="M39.9932 23.0635H38.2965V20.55C38.2965 20.3863 38.2859 20.2399 38.2647 20.1117C38.2438 19.9839 38.209 19.8762 38.1604 19.7893C38.1119 19.7022 38.0486 19.6358 37.9703 19.5897C37.892 19.5439 37.797 19.521 37.6849 19.521C37.558 19.521 37.4524 19.5531 37.3679 19.6177C37.2835 19.6823 37.2155 19.7688 37.1645 19.8772C37.1139 19.9852 37.077 20.1107 37.0548 20.2536C37.0326 20.3965 37.0213 20.5463 37.0213 20.7028V22.161C37.0213 22.268 37.0343 22.3534 37.0603 22.4184C37.0866 22.483 37.1232 22.5333 37.1703 22.5692C37.2175 22.6054 37.2753 22.629 37.3437 22.6399C37.412 22.6512 37.4886 22.6567 37.5731 22.6567H37.5956V23.0635H35.25V22.6567H35.265C35.3519 22.6567 35.4315 22.6512 35.5033 22.6399C35.5758 22.629 35.6384 22.6047 35.6917 22.5674C35.7454 22.5302 35.7868 22.4765 35.8168 22.4071C35.8466 22.3374 35.8616 22.2457 35.8616 22.1309V19.8714C35.8616 19.7647 35.8483 19.6786 35.8223 19.6143C35.7963 19.5493 35.7591 19.4991 35.7105 19.4628C35.662 19.4273 35.6042 19.4034 35.5372 19.3921C35.4698 19.3808 35.3939 19.3753 35.3095 19.3753H35.2873V18.9692H36.8907L36.9912 19.5134H37.0288C37.1057 19.3692 37.1871 19.2546 37.2729 19.1705C37.3587 19.0857 37.45 19.0211 37.5471 18.9763C37.6442 18.9316 37.7467 18.9028 37.8548 18.8905C37.9628 18.8782 38.0763 18.8721 38.196 18.8721C38.3922 18.8721 38.5686 18.9004 38.7255 18.9579C38.8821 19.015 39.0144 19.1032 39.1225 19.2225C39.2305 19.3418 39.3132 19.4943 39.3703 19.6796C39.4278 19.8645 39.4561 20.0864 39.4561 20.3449V22.1162C39.4561 22.2355 39.4667 22.3305 39.4879 22.4016C39.5091 22.4724 39.5406 22.5264 39.583 22.5637C39.6254 22.601 39.6787 22.6259 39.7433 22.6382C39.8079 22.6509 39.8838 22.6567 39.971 22.6567H39.9932V23.0635Z" fill="white"/>
<path d="M45.9064 30.274C46.0479 30.5304 46.2794 30.6583 46.6001 30.6583C46.7317 30.6583 46.8554 30.6429 46.971 30.6114C47.0866 30.5803 47.1919 30.5369 47.2862 30.4812C47.3806 30.4254 47.4633 30.3591 47.5341 30.2832C47.6052 30.2077 47.6626 30.1263 47.7074 30.0395C47.7696 30.0764 47.8158 30.1266 47.8455 30.1902C47.8753 30.2535 47.8903 30.3201 47.8903 30.3899C47.8903 30.4866 47.8616 30.5848 47.8045 30.6846C47.7474 30.7837 47.6585 30.8737 47.5378 30.9547C47.4172 31.0354 47.2637 31.1013 47.0773 31.1523C46.891 31.2032 46.6684 31.2289 46.4096 31.2289C46.129 31.2289 45.8722 31.1926 45.6397 31.1205C45.4072 31.0487 45.2079 30.9294 45.0411 30.7625C44.8749 30.596 44.7454 30.3786 44.6534 30.1102C44.5614 29.8419 44.5156 29.5123 44.5156 29.1219C44.5156 28.7092 44.5635 28.3649 44.6592 28.089C44.7546 27.8128 44.8866 27.5916 45.0544 27.4251C45.2223 27.2586 45.4202 27.14 45.6493 27.0692C45.8777 26.9981 46.1238 26.9629 46.3874 26.9629C46.6336 26.9629 46.851 26.9831 47.0401 27.0244C47.2291 27.0655 47.3867 27.1219 47.5136 27.194C47.6404 27.2661 47.7368 27.3513 47.8028 27.4494C47.8684 27.5475 47.9016 27.6528 47.9016 27.7646C47.9016 27.8466 47.8872 27.9266 47.8585 28.0049C47.8298 28.0832 47.7789 28.1523 47.7057 28.2118C47.6322 28.2716 47.5317 28.3202 47.4038 28.3574C47.2756 28.3947 47.1122 28.4135 46.9132 28.4135C46.9132 28.2815 46.905 28.1561 46.889 28.0367C46.8729 27.9174 46.8462 27.8128 46.8086 27.7236C46.7717 27.634 46.7211 27.5625 46.6578 27.5092C46.5943 27.4555 46.5143 27.4289 46.4175 27.4289C46.3054 27.4289 46.2052 27.4555 46.117 27.5092C46.0288 27.5625 45.9529 27.6538 45.8896 27.7831C45.8264 27.9123 45.7778 28.0849 45.7443 28.3013C45.7105 28.5178 45.6937 28.7889 45.6937 29.1143C45.6937 29.6316 45.7649 30.0183 45.9064 30.274Z" fill="white"/>
<path d="M51.2312 31.0384C51.1916 31.0583 51.1372 31.0795 51.0692 31.102C51.0005 31.1243 50.9212 31.1448 50.8302 31.1632C50.7396 31.182 50.6371 31.1978 50.5225 31.2101C50.4083 31.2224 50.2839 31.2289 50.1499 31.2289C49.9783 31.2289 49.8227 31.2084 49.6839 31.1673C49.5444 31.126 49.4265 31.0579 49.3294 30.9622C49.2323 30.8665 49.1577 30.742 49.1058 30.5892C49.0535 30.4364 49.0275 30.248 49.0275 30.0241V27.5817H48.4531V27.1903C48.6172 27.1903 48.7639 27.1578 48.8931 27.0932C49.0224 27.0285 49.1256 26.954 49.2025 26.8696C49.3591 26.7051 49.476 26.4532 49.5533 26.1123H50.1871V27.0597H51.1639V27.5817H50.1871V29.9458C50.1871 30.1773 50.2265 30.3461 50.3044 30.4532C50.3827 30.5598 50.5116 30.6132 50.6907 30.6132C50.7899 30.6132 50.8849 30.6067 50.9759 30.593C51.0665 30.5793 51.1516 30.5622 51.2312 30.5424V31.0384Z" fill="white"/>
<path d="M51.5747 19.9603C51.5638 19.8806 51.5436 19.815 51.5152 19.7627C51.4865 19.7104 51.4482 19.6707 51.3997 19.6433C51.3511 19.616 51.291 19.602 51.2185 19.602C51.1293 19.602 51.0523 19.6245 50.9874 19.6693C50.9228 19.7141 50.8681 19.7719 50.8233 19.8427C50.7788 19.9134 50.7419 19.9938 50.7135 20.0833C50.6848 20.1726 50.6626 20.2628 50.6465 20.3538C50.6301 20.4444 50.6195 20.5309 50.6147 20.6129C50.6096 20.6946 50.6072 20.7657 50.6072 20.8252V22.1456C50.6072 22.2574 50.6209 22.3473 50.6482 22.416C50.6756 22.4844 50.7129 22.5357 50.76 22.5705C50.8072 22.6054 50.8636 22.6283 50.9296 22.6396C50.9956 22.6505 51.0657 22.656 51.1405 22.656H51.3867V23.0628H48.8359V22.656H48.8582C48.9453 22.656 49.025 22.6502 49.0968 22.6375C49.1689 22.6252 49.2312 22.5996 49.2835 22.5613C49.3358 22.5227 49.3758 22.4673 49.4045 22.3951C49.4332 22.3233 49.4476 22.2276 49.4476 22.108V19.8933C49.4476 19.7811 49.4346 19.6912 49.4082 19.6228C49.3823 19.5545 49.345 19.5015 49.2964 19.4642C49.2479 19.4269 49.1901 19.4027 49.1231 19.3914C49.0558 19.3804 48.9799 19.3746 48.8954 19.3746H48.8732V18.9685H50.4171L50.57 19.5651H50.6072C50.6571 19.4505 50.7115 19.3507 50.7713 19.2649C50.8308 19.1791 50.9023 19.1076 50.9857 19.0505C51.0688 18.9931 51.1672 18.9504 51.2804 18.9216C51.3935 18.8929 51.5282 18.8789 51.6848 18.8789C51.9857 18.8789 52.2069 18.9319 52.3488 19.0375C52.4903 19.1428 52.5611 19.2967 52.5611 19.4981C52.5611 19.7316 52.4766 19.9131 52.3077 20.0423C52.1385 20.1716 51.8999 20.2362 51.5918 20.2362C51.5918 20.1319 51.586 20.0399 51.5747 19.9603Z" fill="white"/>
<path d="M53.1165 30.8929C53.0829 30.9699 53.0375 31.0321 52.9804 31.0796C52.9233 31.1268 52.8566 31.1606 52.7811 31.1818C52.7052 31.203 52.6248 31.2136 52.5404 31.2136C52.4532 31.2136 52.3712 31.203 52.2942 31.1818C52.2173 31.1606 52.1506 31.1268 52.0949 31.0796C52.0388 31.0321 51.9947 30.9699 51.9623 30.8929C51.9301 30.8157 51.9141 30.72 51.9141 30.6058C51.9141 30.4888 51.9301 30.3914 51.9623 30.3131C51.9947 30.2348 52.0388 30.1719 52.0949 30.1247C52.1506 30.0776 52.2173 30.0437 52.2942 30.0239C52.3712 30.0041 52.4532 29.9941 52.5404 29.9941C52.6248 29.9941 52.7052 30.0041 52.7811 30.0239C52.8566 30.0437 52.9233 30.0776 52.9804 30.1247C53.0375 30.1719 53.0829 30.2348 53.1165 30.3131C53.15 30.3914 53.1671 30.4888 53.1671 30.6058C53.1671 30.72 53.15 30.8157 53.1165 30.8929Z" fill="white"/>
<path d="M43.8522 28.8015C43.8522 28.4979 43.8112 28.2323 43.7291 28.0032C43.6471 27.7745 43.5291 27.5834 43.3749 27.4289C43.2208 27.2747 43.0331 27.1588 42.8119 27.0805C42.5907 27.0022 42.3421 26.9629 42.0662 26.9629C41.7654 26.9629 41.4973 27.0084 41.2625 27.099C41.0276 27.1896 40.8293 27.326 40.6676 27.5075C40.5062 27.689 40.3832 27.915 40.2987 28.1861C40.2139 28.4572 40.1719 28.7714 40.1719 29.1297C40.1719 29.4627 40.2139 29.7591 40.2987 30.019C40.3832 30.2788 40.5086 30.4983 40.6751 30.6771C40.8416 30.8562 41.0488 30.993 41.296 31.0873C41.5435 31.1817 41.8286 31.2289 42.152 31.2289C42.4105 31.2289 42.6334 31.2066 42.8211 31.1619C43.0088 31.1171 43.1647 31.0572 43.2891 30.9827C43.4136 30.9082 43.5055 30.8217 43.565 30.7236C43.6249 30.6254 43.6546 30.5219 43.6546 30.4121C43.6546 30.2381 43.5862 30.114 43.4495 30.0395C43.4047 30.1266 43.3483 30.208 43.2799 30.2836C43.2115 30.3595 43.1319 30.4254 43.0413 30.4812C42.9507 30.5372 42.8491 30.5807 42.7373 30.6118C42.6252 30.6429 42.5035 30.6586 42.3719 30.6586C42.2129 30.6586 42.0717 30.6299 41.9486 30.5728C41.8255 30.5154 41.7209 30.4272 41.6355 30.3078C41.5497 30.1885 41.4823 30.0367 41.4341 29.8531C41.3855 29.6689 41.3575 29.449 41.35 29.193H43.8522V28.8015ZM41.365 28.7044C41.3773 28.2966 41.4464 27.9872 41.5719 27.7759C41.6973 27.5646 41.8673 27.459 42.0809 27.459C42.1903 27.459 42.283 27.4877 42.3589 27.5448C42.4344 27.6019 42.4967 27.6839 42.5452 27.7909C42.5938 27.8976 42.629 28.0282 42.6515 28.1824C42.6738 28.3366 42.685 28.5106 42.685 28.7044H41.365Z" fill="white"/>
<path d="M36.9761 28.1543C36.8855 27.887 36.7549 27.6651 36.5847 27.4887C36.4144 27.3123 36.2079 27.1803 35.9655 27.0931C35.7231 27.0063 35.4493 26.9629 35.1433 26.9629C34.4872 26.9629 33.9905 27.1383 33.6537 27.4887C33.3166 27.8391 33.1484 28.3738 33.1484 29.0921C33.1484 29.4501 33.1936 29.7632 33.2845 30.0316C33.3751 30.3003 33.5057 30.5225 33.676 30.6993C33.8462 30.8757 34.0531 31.008 34.2972 31.0966C34.5406 31.1844 34.8151 31.2289 35.1211 31.2289C35.7748 31.2289 36.2701 31.0525 36.6072 30.6993C36.944 30.3465 37.1122 29.8104 37.1122 29.0921C37.1122 28.7342 37.0667 28.4213 36.9761 28.1543ZM35.8893 29.808C35.8619 30.0145 35.8165 30.1872 35.7529 30.3263C35.6896 30.4658 35.6076 30.5707 35.5071 30.6415C35.4062 30.7123 35.2824 30.7475 35.1358 30.7475C34.9891 30.7475 34.865 30.7123 34.7631 30.6415C34.6609 30.5707 34.5785 30.4658 34.5149 30.3263C34.4517 30.1872 34.4055 30.0145 34.3772 29.808C34.3484 29.6019 34.3344 29.3632 34.3344 29.0921C34.3344 28.8186 34.3478 28.5793 34.3751 28.3742C34.4025 28.1694 34.4472 27.9984 34.5095 27.8614C34.5717 27.7249 34.6534 27.622 34.7556 27.5537C34.8575 27.4856 34.9816 27.4514 35.1286 27.4514C35.2753 27.4514 35.3994 27.4856 35.5013 27.5537C35.6031 27.622 35.6859 27.7249 35.7495 27.8614C35.8127 27.9984 35.8585 28.1694 35.8872 28.3742C35.916 28.5793 35.9303 28.8186 35.9303 29.0921C35.9303 29.3632 35.9166 29.6019 35.8893 29.808Z" fill="white"/>
<path d="M48.3994 20.7097C48.3994 20.4061 48.3584 20.1405 48.2763 19.9114C48.1943 19.6831 48.076 19.4916 47.9218 19.3374C47.768 19.1832 47.5803 19.067 47.3591 18.9887C47.1375 18.9104 46.889 18.8711 46.6131 18.8711C46.3123 18.8711 46.0446 18.9166 45.8097 19.0072C45.5748 19.0981 45.3765 19.2342 45.2148 19.4157C45.0531 19.5972 44.9304 19.8236 44.8456 20.0943C44.7611 20.3654 44.7188 20.68 44.7188 21.0379C44.7188 21.3713 44.7611 21.6673 44.8456 21.9272C44.9304 22.187 45.0555 22.4065 45.2223 22.5853C45.3888 22.7641 45.5957 22.9012 45.8432 22.9955C46.0904 23.0902 46.3758 23.1371 46.6989 23.1371C46.9574 23.1371 47.1806 23.1148 47.3683 23.0701C47.556 23.0253 47.7122 22.9658 47.8364 22.8913C47.9608 22.8164 48.0524 22.7299 48.1122 22.6318C48.1717 22.5337 48.2018 22.4301 48.2018 22.3207C48.2018 22.1466 48.1334 22.0222 47.9967 21.9477C47.9519 22.0348 47.8955 22.1162 47.8268 22.1918C47.7584 22.2677 47.6791 22.3337 47.5881 22.3894C47.4975 22.4454 47.3964 22.4889 47.2846 22.52C47.1724 22.5511 47.0507 22.5665 46.9191 22.5665C46.7598 22.5665 46.6189 22.5381 46.4958 22.481C46.3728 22.4239 46.2681 22.3357 46.1823 22.216C46.0969 22.0967 46.0295 21.9449 45.9813 21.7613C45.9328 21.5771 45.9047 21.3572 45.8972 21.1012H48.3994V20.7097ZM45.9123 20.6126C45.9246 20.2051 45.9936 19.8954 46.1191 19.6844C46.2446 19.4728 46.4141 19.3672 46.6281 19.3672C46.7375 19.3672 46.8302 19.3959 46.9058 19.453C46.9817 19.5101 47.0439 19.5921 47.0924 19.6991C47.141 19.8061 47.1762 19.9364 47.1987 20.0906C47.221 20.2448 47.2322 20.4188 47.2322 20.6126H45.9123Z" fill="white"/>
<path d="M28.3032 26.6454C28.2188 26.4468 28.0899 26.2768 27.9173 26.1363C27.7446 25.9958 27.5275 25.8885 27.2667 25.8139C27.0058 25.7391 26.6985 25.7021 26.3456 25.7021H24V26.1045H24.3207C24.3754 26.1045 24.4263 26.1104 24.4735 26.1213C24.5207 26.1326 24.5624 26.1545 24.5986 26.1866C24.6345 26.2191 24.6626 26.2659 24.6824 26.3264C24.7022 26.3876 24.7121 26.469 24.7121 26.5709V30.2512C24.7121 30.3606 24.7022 30.4478 24.6824 30.5124C24.6626 30.5774 24.6352 30.6269 24.6003 30.6615C24.5655 30.6967 24.5244 30.7192 24.4773 30.7305C24.4301 30.7418 24.3778 30.7473 24.3207 30.7473H24V31.1538H26.7894V30.7473H26.3231C26.2711 30.7473 26.2198 30.7425 26.1703 30.7322C26.1203 30.7227 26.0769 30.7021 26.0397 30.6707C26.0024 30.6399 25.9726 30.5938 25.9504 30.5329C25.9279 30.4721 25.9166 30.3917 25.9166 30.2922V29.0693H26.1778C26.5904 29.0693 26.9395 29.0215 27.2256 28.9257C27.5114 28.83 27.7439 28.7015 27.9227 28.5397C28.1019 28.378 28.2311 28.1917 28.3108 27.9804C28.3901 27.7692 28.4301 27.549 28.4301 27.3203C28.4301 27.0693 28.3877 26.8444 28.3032 26.6454ZM27.0896 27.9356C27.0509 28.097 26.9901 28.229 26.9067 28.3309C26.8236 28.4331 26.7159 28.5076 26.5843 28.5548C26.4523 28.602 26.292 28.6256 26.1032 28.6256H25.9166V26.1534H26.215C26.3867 26.1534 26.5313 26.1774 26.6496 26.2259C26.7675 26.2745 26.8632 26.3476 26.9367 26.4457C27.0099 26.5442 27.0632 26.6683 27.0967 26.8187C27.1302 26.9692 27.1473 27.1462 27.1473 27.35C27.1473 27.5787 27.1279 27.7739 27.0896 27.9356Z" fill="white"/>
<path d="M38.001 12.6195C38.001 12.3163 37.96 12.0503 37.8779 11.8216C37.7959 11.5929 37.6776 11.4014 37.5237 11.2472C37.3695 11.0934 37.1818 10.9768 36.9606 10.8985C36.7391 10.8202 36.4906 10.7812 36.2147 10.7812C35.9138 10.7812 35.6461 10.8267 35.4113 10.9173C35.1764 11.0079 34.9781 11.144 34.8164 11.3255C34.6547 11.5071 34.5319 11.7334 34.4471 12.0045C34.3627 12.2753 34.3203 12.5898 34.3203 12.9477C34.3203 13.2807 34.3627 13.5775 34.4471 13.8373C34.5319 14.0968 34.6571 14.3163 34.8239 14.4954C34.9904 14.6742 35.1976 14.811 35.4448 14.9053C35.6919 15 35.9774 15.0469 36.3005 15.0469C36.5589 15.0469 36.7822 15.0247 36.9699 14.9799C37.1576 14.9354 37.3138 14.8756 37.4379 14.8011C37.562 14.7262 37.654 14.64 37.7138 14.5419C37.7736 14.4438 37.8034 14.3399 37.8034 14.2305C37.8034 14.0565 37.735 13.932 37.5983 13.8575C37.5535 13.9447 37.4971 14.026 37.4283 14.1019C37.3603 14.1778 37.2806 14.2435 37.1897 14.2995C37.0991 14.3556 36.9979 14.399 36.8861 14.4301C36.774 14.4612 36.6523 14.4766 36.5206 14.4766C36.3613 14.4766 36.2205 14.4483 36.0974 14.3908C35.9743 14.3337 35.8697 14.2455 35.7839 14.1262C35.6981 14.0065 35.6311 13.8551 35.5829 13.6712C35.5343 13.4872 35.5063 13.2671 35.4988 13.011H38.001V12.6195ZM35.5138 12.5228C35.5261 12.1149 35.5952 11.8055 35.7207 11.5939C35.8461 11.383 36.0157 11.277 36.2297 11.277C36.3391 11.277 36.4318 11.3057 36.5077 11.3631C36.5832 11.4202 36.6454 11.5023 36.694 11.6089C36.7425 11.7156 36.7777 11.8462 36.8003 12.0004C36.8225 12.1549 36.8338 12.3289 36.8338 12.5228H35.5138Z" fill="white"/>
<path d="M44.4003 18.9461C44.3767 18.8941 44.3419 18.848 44.2957 18.808C44.2499 18.7683 44.1928 18.7369 44.1244 18.7133C44.0561 18.6897 43.9757 18.6777 43.8838 18.6777C43.787 18.6777 43.6988 18.6914 43.6191 18.7188C43.5395 18.7461 43.4673 18.781 43.4027 18.823C43.3381 18.8654 43.2803 18.9123 43.2294 18.9632C43.1785 19.0141 43.132 19.062 43.0896 19.1068C42.975 19.0418 42.8403 18.9868 42.6851 18.9406C42.5296 18.8945 42.361 18.8716 42.1795 18.8716C41.6352 18.8716 41.2332 18.995 40.9733 19.2429C40.7135 19.49 40.5836 19.8374 40.5836 20.2849C40.5836 20.4391 40.6034 20.5793 40.6434 20.7061C40.6831 20.8329 40.7371 20.9464 40.8055 21.0456C40.8738 21.1454 40.9559 21.2302 41.0516 21.3013C41.1473 21.3721 41.2513 21.4271 41.3631 21.4671C41.2636 21.5242 41.1723 21.582 41.0892 21.6405C41.0055 21.6989 40.9344 21.7611 40.8745 21.8268C40.815 21.8928 40.7682 21.9618 40.7347 22.034C40.7012 22.1061 40.6844 22.1844 40.6844 22.2688C40.6844 22.3584 40.7005 22.4391 40.733 22.5112C40.7651 22.5834 40.8075 22.6473 40.8595 22.703C40.9118 22.7591 40.9716 22.8073 41.0386 22.8466C41.1056 22.8866 41.174 22.9201 41.2438 22.9475C40.908 22.9748 40.652 23.0613 40.4756 23.2066C40.2988 23.3519 40.2109 23.5615 40.2109 23.835C40.2109 24.183 40.3579 24.447 40.6526 24.6275C40.9473 24.8076 41.3952 24.8976 41.9969 24.8976C42.3747 24.8976 42.7026 24.8634 42.9795 24.795C43.2567 24.727 43.4865 24.6285 43.6694 24.5006C43.8523 24.3724 43.988 24.2162 44.0776 24.0309C44.1672 23.8452 44.212 23.635 44.212 23.3988C44.212 23.2172 44.1832 23.0538 44.1261 22.9082C44.069 22.7629 43.9802 22.6405 43.8595 22.541C43.7391 22.4415 43.5867 22.3652 43.4027 22.3116C43.2188 22.2582 43 22.2316 42.7467 22.2316H41.8219C41.7149 22.2316 41.6284 22.2117 41.5624 22.1717C41.4967 22.1321 41.4636 22.0699 41.4636 21.9854C41.4636 21.9406 41.4718 21.8982 41.4879 21.8586C41.5043 21.8186 41.5251 21.7827 41.5514 21.7505C41.5774 21.7181 41.6072 21.689 41.641 21.6627C41.6745 21.6367 41.7073 21.6148 41.7398 21.5974C41.7597 21.6001 41.7887 21.6032 41.8273 21.607C41.8656 21.6104 41.9063 21.6131 41.9484 21.6141C41.9908 21.6155 42.0328 21.6169 42.0752 21.6179C42.1173 21.6193 42.1521 21.6203 42.1795 21.6203C42.4458 21.6203 42.6755 21.5864 42.8694 21.5191C43.0632 21.4521 43.2239 21.3588 43.3504 21.2398C43.4773 21.1205 43.5709 20.9793 43.6321 20.8162C43.693 20.6535 43.7234 20.4764 43.7234 20.2849C43.7234 20.1906 43.7135 20.0979 43.6937 20.0073C43.6738 19.9167 43.6472 19.8285 43.6133 19.7444C43.5798 19.6596 43.5408 19.581 43.4961 19.5075C43.4513 19.4343 43.4027 19.369 43.3504 19.3119C43.3781 19.2918 43.4157 19.2733 43.4643 19.2555C43.5128 19.2384 43.5579 19.2299 43.6003 19.2299C43.6379 19.2299 43.6738 19.2367 43.7087 19.25C43.7432 19.2641 43.7743 19.2842 43.802 19.3119C43.829 19.3389 43.8509 19.3728 43.867 19.4124C43.8831 19.4524 43.8913 19.4982 43.8913 19.5502C43.9955 19.5502 44.0834 19.5382 44.1542 19.515C44.2253 19.4914 44.281 19.4596 44.322 19.42C44.3631 19.38 44.3921 19.3335 44.4096 19.2798C44.427 19.2265 44.4355 19.1714 44.4355 19.114C44.4355 19.0545 44.4239 18.9984 44.4003 18.9461ZM41.5569 23.2589C41.6366 23.2452 41.7149 23.2384 41.7918 23.2384H42.6793C42.8858 23.2384 43.04 23.2705 43.1419 23.3355C43.2438 23.4001 43.2947 23.5129 43.2947 23.6746C43.2947 23.9259 43.1928 24.116 42.9891 24.2452C42.7849 24.3745 42.4595 24.4391 42.012 24.4391C41.7186 24.4391 41.4954 24.3885 41.3426 24.288C41.1897 24.1875 41.1132 24.0316 41.1132 23.8199C41.1132 23.6958 41.1344 23.596 41.1767 23.5198C41.2188 23.4439 41.2728 23.3851 41.3388 23.3427C41.4044 23.3006 41.4773 23.2726 41.5569 23.2589ZM42.6554 20.6446C42.639 20.7557 42.6109 20.85 42.5713 20.9283C42.5313 21.0066 42.4779 21.0661 42.4109 21.1071C42.3439 21.1482 42.2595 21.1687 42.1576 21.1687C42.0578 21.1687 41.9747 21.1475 41.9073 21.1054C41.8403 21.063 41.7856 21.0032 41.7436 20.9263C41.7012 20.8494 41.6708 20.7567 41.652 20.6487C41.6335 20.5403 41.6239 20.4193 41.6239 20.2849C41.6239 20.1458 41.6328 20.0179 41.6503 19.9006C41.6673 19.7841 41.6967 19.6832 41.7378 19.5988C41.7788 19.5143 41.8328 19.4483 41.9002 19.4012C41.9672 19.354 42.0502 19.3304 42.1497 19.3304C42.252 19.3304 42.3364 19.3533 42.4034 19.3991C42.4704 19.4453 42.5248 19.5092 42.5655 19.5912C42.6068 19.6733 42.6359 19.7721 42.6533 19.888C42.6708 20.0035 42.6793 20.1321 42.6793 20.2736C42.6793 20.4104 42.6714 20.5341 42.6554 20.6446Z" fill="white"/>
</g>
<defs>
<clipPath id="clip0_14912_30886">
<rect width="40" height="40" fill="white" transform="translate(19.375 5)"/>
</clipPath>
</defs>
</svg>
