<svg width="78" height="50" viewBox="0 0 78 50" fill="none" xmlns="http://www.w3.org/2000/svg">
<g clip-path="url(#clip0_14912_30946)">
<path d="M34.0059 40.3328V42.1223H35.2586V37.6484H34.0059V39.3456H32.9871V37.6484H31.7344V42.1223H32.9871V40.3328H34.0059Z" fill="#FCFCFD"/>
<path d="M29.4437 41.1989C29.0252 41.1989 28.8231 40.9103 28.8231 40.333V39.4498C28.8231 38.8552 29.0367 38.5839 29.4004 38.5839C29.7266 38.5839 29.8824 38.7599 29.9142 39.19H31.2015C31.138 38.0355 30.4366 37.5996 29.4177 37.5996C28.3296 37.5996 27.5156 38.2894 27.5156 39.4757V40.3272C27.5156 41.5106 28.1795 42.212 29.461 42.212C30.4944 42.212 31.1928 41.6867 31.239 40.5899H30.0008C29.9748 41.0286 29.7554 41.1989 29.4437 41.1989Z" fill="#FCFCFD"/>
<path d="M27.009 39.1578V38.9615C27.009 38.0956 26.478 37.6338 25.3581 37.6338H23.7734V42.1365H25.0175V40.4711H25.231L25.9007 42.1365H27.2024L26.3885 40.2286C26.5934 40.1407 26.7644 39.9889 26.8762 39.796C26.988 39.6031 27.0346 39.3793 27.009 39.1578ZM25.7939 39.1895C25.7939 39.5215 25.6323 39.66 25.2945 39.66H25.0059V38.5949H25.2945C25.6323 38.5949 25.7939 38.7191 25.7939 39.0279V39.1895Z" fill="#FCFCFD"/>
<path d="M20.5693 37.6484L19.4609 42.1367H20.6155L20.7858 41.3285H21.8768L22.0471 42.1367H23.3546L22.252 37.6629L20.5693 37.6484ZM20.9561 40.4598L21.3255 38.6962L21.695 40.4598H20.9561Z" fill="#FCFCFD"/>
<path d="M16.3353 41.317H17.2272L17.8131 39.4149V42.1223H19.0513V37.6484H17.4667L16.8606 39.819L16.2487 37.6484H14.6641V42.1223H15.758V39.4149L16.3353 41.317Z" fill="#FCFCFD"/>
<path d="M62.136 39.3082C61.6857 39.184 61.5587 39.083 61.5587 38.8261C61.5543 38.7799 61.5604 38.7333 61.5767 38.6898C61.5929 38.6463 61.6188 38.6071 61.6525 38.5751C61.6861 38.5431 61.7266 38.5192 61.7709 38.5052C61.8152 38.4912 61.862 38.4874 61.908 38.4942C62.1446 38.4942 62.2947 38.6125 62.3092 38.9387H63.4781C63.4406 38.0064 62.8836 37.5879 61.9137 37.5879C60.9439 37.5879 60.3551 38.1132 60.3551 38.9214C60.3551 39.7729 60.7678 40.1279 61.7203 40.405C62.1648 40.5291 62.3582 40.6041 62.3582 40.913C62.3582 41.1641 62.2255 41.294 61.957 41.294C61.6136 41.294 61.4866 41.1323 61.475 40.7542H60.2656C60.2829 41.7616 60.8862 42.1974 61.9426 42.1974C62.999 42.1974 63.5561 41.6201 63.5561 40.7773C63.5705 39.8075 62.9701 39.5391 62.136 39.3082Z" fill="#FCFCFD"/>
<path d="M53.6839 41.317H54.5787L55.1618 39.4149V42.1223H56.4029V37.6484H54.8183L54.2121 39.819L53.5973 37.6484H52.0156V42.1223H53.1096V39.4149L53.6839 41.317Z" fill="#FCFCFD"/>
<path d="M57.1172 37.6484V42.1223H59.917V41.1525H58.3641V40.2721H59.5273V39.3831H58.3641V38.6125H59.8275V37.6484H57.1172Z" fill="#FCFCFD"/>
<path d="M51.2486 37.6484H49.9844V42.1223H51.2486V37.6484Z" fill="#FCFCFD"/>
<path d="M38.95 37.585C37.8359 37.585 36.9844 38.2748 36.9844 39.4553V40.3212C36.9844 41.4902 37.7291 42.1974 38.9298 42.1974C40.1305 42.1974 40.9069 41.4844 40.9069 40.2895V39.438C40.9098 38.2171 40.0814 37.585 38.95 37.585ZM39.6138 40.3126C39.6138 40.9072 39.3685 41.2016 38.95 41.2016C38.5315 41.2016 38.2804 40.9129 38.2804 40.3126V39.4467C38.2804 38.8521 38.5315 38.5634 38.95 38.5634C39.3685 38.5634 39.6138 38.8521 39.6138 39.4467V40.3126Z" fill="#FCFCFD"/>
<path d="M47.3657 37.6484H45.8359V42.1367H47.3744C48.6819 42.1367 49.3948 41.5046 49.3948 40.2606V39.4813C49.3746 38.2315 48.6848 37.6484 47.3657 37.6484ZM48.0729 40.2462C48.0729 40.8985 47.865 41.1525 47.3282 41.1525H47.0771V38.6067H47.3138C47.8593 38.6067 48.07 38.8318 48.07 39.5015L48.0729 40.2462Z" fill="#FCFCFD"/>
<path d="M41.4844 37.6484V42.1223H42.7342V40.5146H43.8887V39.5881H42.7342V38.6125H44.1514V37.6484H41.4844Z" fill="#FCFCFD"/>
<path d="M22.5057 34.4848L25.5306 21.7877L29.5224 30.9721H34.259L38.2537 21.7877L41.2757 34.4848H48.3155L41.7058 8.55664H36.646L31.8921 20.105L27.1354 8.55664H22.0785L15.4688 34.4848H22.5057Z" fill="#FCFCFD"/>
<path d="M51.4842 34.4852L47.5703 19.1875H55.2971C60.126 19.1875 63.5579 22.0739 63.5579 26.8364C63.5579 31.5989 60.126 34.4852 55.2971 34.4852H51.4842Z" fill="#FCFCFD"/>
<path d="M50.6895 7.78906C48.0514 7.78906 46.0078 9.64211 46.0078 12.4072C46.0078 15.1724 48.0514 17.0254 50.6895 17.0254C53.3276 17.0254 55.3654 15.1984 55.3654 12.4072C55.3654 9.61613 53.3276 7.78906 50.6895 7.78906Z" fill="#FCFCFD"/>
</g>
<defs>
<clipPath id="clip0_14912_30946">
<rect width="49.4725" height="35" fill="white" transform="translate(14.375 7.5)"/>
</clipPath>
</defs>
</svg>
