<svg width="78" height="50" viewBox="0 0 78 50" fill="none" xmlns="http://www.w3.org/2000/svg">
<path d="M12.4141 22.5479H18.7633V24.0586H14.2485V25.6662H18.227V27.1769H14.2485V30.101H12.4141V22.5479ZM20.841 22.5479H27.1306V24.0264H22.6634V25.5585H26.5944V27.0367H22.6634V28.6228H27.1902V30.101H20.841V22.5479ZM29.4309 22.5479H35.7204V24.0264H31.2533V25.5585H35.1842V27.0367H31.2533V28.6228H35.7801V30.101H29.4309V22.5479ZM41.0694 28.6011C41.4426 28.6011 41.7841 28.5472 42.0939 28.4393C42.4036 28.3314 42.6676 28.1767 42.886 27.9753C43.1044 27.7739 43.2751 27.5366 43.3982 27.2632C43.5213 26.9899 43.5829 26.6842 43.5829 26.3462V26.3244C43.5829 25.9936 43.5213 25.6879 43.3982 25.4074C43.2751 25.1268 43.1044 24.8859 42.886 24.6844C42.6676 24.483 42.4036 24.3266 42.0939 24.215C41.7841 24.1035 41.4426 24.0477 41.0694 24.0477H39.652V28.6011H41.0694ZM37.8175 22.5479H41.0694C41.7206 22.5479 42.3182 22.6432 42.8622 22.8338C43.4062 23.0245 43.8747 23.2889 44.2678 23.6269C44.6609 23.965 44.9647 24.3624 45.1792 24.8193C45.3937 25.2761 45.5009 25.7707 45.5009 26.303V26.3244C45.5009 26.8568 45.3937 27.3531 45.1792 27.8135C44.9647 28.2738 44.6609 28.6731 44.2678 29.0112C43.8747 29.3494 43.4062 29.6156 42.8622 29.8098C42.3182 30.004 41.7206 30.101 41.0694 30.101H37.8175V22.5479ZM47.2074 22.5479H49.0418V32.4372H47.2074V22.5479ZM51.3291 22.5479H53.0207L56.3182 27.1984V22.5479H58.0274V30.101H56.3655L53.1395 25.2994V30.101H51.3291V22.5479Z" fill="#FCFCFD"/>
<path d="M63.8267 30.2304C63.2268 30.2304 62.6801 30.1311 62.1864 29.9325C61.6927 29.7339 61.2685 29.4579 60.9137 29.1047C60.5588 28.7515 60.2827 28.3321 60.0852 27.8464C59.8878 27.3608 59.7891 26.831 59.7891 26.2571V26.2348C59.7891 25.6831 59.8896 25.1662 60.0908 24.6842C60.2919 24.2022 60.5717 23.779 60.9301 23.4148C61.2885 23.0506 61.7127 22.7636 62.2028 22.5539C62.6929 22.3441 63.2306 22.2393 63.816 22.2393C64.1597 22.2393 64.4724 22.2632 64.754 22.311C65.0356 22.3588 65.2971 22.4269 65.5384 22.5153C65.7797 22.6037 66.0065 22.714 66.2187 22.8464C66.4308 22.9788 66.6357 23.1296 66.8333 23.2989L65.7688 24.5904C65.6226 24.4653 65.4763 24.3549 65.33 24.2593C65.1836 24.1636 65.0318 24.0827 64.8746 24.0164C64.7173 23.9502 64.5473 23.8986 64.3644 23.8618C64.1816 23.825 63.9805 23.8066 63.761 23.8066C63.4536 23.8066 63.1665 23.871 62.8995 23.9997C62.6325 24.1285 62.3984 24.3014 62.1973 24.5185C61.9962 24.7355 61.8389 24.9894 61.7255 25.2801C61.6121 25.5708 61.5554 25.8817 61.5554 26.213V26.2348C61.5554 26.588 61.6121 26.9136 61.7255 27.2116C61.8389 27.5096 61.9998 27.769 62.2083 27.9898C62.4168 28.2105 62.6619 28.3816 62.9435 28.5031C63.2251 28.6246 63.5378 28.6853 63.8816 28.6853C64.5106 28.6853 65.041 28.5307 65.4728 28.2215V27.118H63.7718V25.6498H67.1075V29.0053C66.7124 29.3437 66.2424 29.6325 65.6975 29.8717C65.1525 30.1108 64.529 30.2304 63.8267 30.2304Z" fill="#FCFCFD"/>
<path d="M15.7323 36.8627L14.7044 34.4025L13.6761 36.8627H15.7323ZM13.9416 32.3974H15.5113L18.8276 40.0385H17.048L16.3402 38.3366H13.0682L12.3607 40.0385H10.625L13.9416 32.3974ZM20.2182 32.4513H22.0531L24.0871 35.6597L26.1214 32.4513H27.9563V40.0385H26.2651V35.0852L24.0871 38.3261H24.0429L21.8872 35.1176V40.0385H20.2182V32.4513ZM30.4252 32.4513H36.2619V33.9364H32.1164V35.4755H35.7643V36.9603H32.1164V38.5536H36.3172V40.0385H30.4252V32.4513ZM41.8406 36.1367C42.2605 36.1367 42.5828 36.0391 42.8076 35.844C43.0324 35.6488 43.1448 35.3886 43.1448 35.0634V35.0419C43.1448 34.6807 43.0269 34.4097 42.7911 34.229C42.5553 34.0483 42.2273 33.958 41.8072 33.9579H40.3607V36.1367H41.8406ZM38.6584 32.4513H42.1956C43.1757 32.4513 43.9275 32.7079 44.4509 33.221C44.893 33.6545 45.1141 34.2326 45.1141 34.9552V34.9767C45.1141 35.5911 44.9612 36.0915 44.6553 36.4781C44.3494 36.8646 43.7542 37.1482 43.2605 37.3288L45.3462 40.0385H43.161L41.5029 37.6106H41.4806H40.3607V40.0385H38.6584V32.4513ZM47.201 32.4305H49.0354V40.0385H47.201V32.4305ZM55.0711 40.1685C54.5037 40.1685 53.9768 40.0673 53.4904 39.865C53.004 39.6627 52.584 39.3863 52.2302 39.0359C51.8764 38.6855 51.6001 38.2718 51.4011 37.7948C51.2022 37.3179 51.1028 36.8085 51.1028 36.2667V36.2449C51.1028 35.7031 51.2022 35.1955 51.4011 34.7222C51.6001 34.2489 51.8764 33.8333 52.2302 33.4757C52.584 33.118 53.0078 32.8362 53.5015 32.6302C53.9953 32.4243 54.5407 32.3213 55.1376 32.3213C55.4988 32.3213 55.8286 32.3502 56.1271 32.408C56.4255 32.4657 56.6963 32.5452 56.9396 32.6464C57.1828 32.7476 57.4076 32.8705 57.614 33.0151C57.8203 33.1596 58.1291 33.4719 58.3059 33.6452L57.2227 34.87C56.9204 34.6025 56.4954 34.2396 56.1822 34.0879C55.869 33.9362 55.5171 33.8604 55.1264 33.8604C54.8021 33.8604 54.5018 33.9218 54.2255 34.0446C53.9492 34.1674 53.7116 34.3372 53.5125 34.554C53.3135 34.7707 53.1587 35.0218 53.0481 35.3073C52.9376 35.5927 52.8823 35.8981 52.8823 36.2233V36.2449C53.0071 37.5755 53.8708 38.3092 55.1264 38.5144C56.139 38.5417 56.637 38.0709 57.278 37.3957L58.3613 38.4687C57.6761 39.1974 57.0448 39.7907 56.0884 40.0763C55.7863 40.1377 55.4472 40.1685 55.0711 40.1685ZM64.9888 36.8627L63.8045 34.1679L62.6199 36.8627H64.9888ZM62.8854 32.3974H64.7288L68.2795 40.0385H66.4218L65.5576 38.3366H62.012L61.3045 40.0385H59.5688L62.8854 32.3974Z" fill="#808191"/>
<path fill-rule="evenodd" clip-rule="evenodd" d="M48.3255 21.7788C49.564 21.8091 50.4594 21.167 50.4856 19.5808C49.2616 19.5315 47.8873 19.7111 48.3255 21.7788Z" fill="#FCFCFD"/>
<path fill-rule="evenodd" clip-rule="evenodd" d="M48.2239 19.5835C49.4625 19.6138 50.3578 18.9716 50.384 17.3855C49.16 17.3362 47.7858 17.5158 48.2239 19.5835Z" fill="#FCFCFD"/>
<path fill-rule="evenodd" clip-rule="evenodd" d="M48.1902 17.2627C49.428 17.211 50.2789 16.5112 50.2003 14.9268C48.9757 14.9585 47.6163 15.2284 48.1902 17.2627Z" fill="#FCFCFD"/>
<path fill-rule="evenodd" clip-rule="evenodd" d="M48.2851 14.9623C49.5184 14.8453 50.3312 14.1015 50.169 12.5234C48.9477 12.6198 47.6045 12.9612 48.2851 14.9623Z" fill="#FCFCFD"/>
<path fill-rule="evenodd" clip-rule="evenodd" d="M47.746 21.7788C46.5075 21.8091 45.6122 21.167 45.5859 19.5808C46.81 19.5315 48.1842 19.7111 47.746 21.7788Z" fill="#FCFCFD"/>
<path fill-rule="evenodd" clip-rule="evenodd" d="M47.8476 19.5835C46.6091 19.6138 45.7137 18.9716 45.6875 17.3855C46.9116 17.3362 48.2858 17.5158 47.8476 19.5835Z" fill="#FCFCFD"/>
<path fill-rule="evenodd" clip-rule="evenodd" d="M47.8902 17.2627C46.6524 17.211 45.8014 16.5112 45.88 14.9268C47.1047 14.9585 48.464 15.2284 47.8902 17.2627Z" fill="#FCFCFD"/>
<path fill-rule="evenodd" clip-rule="evenodd" d="M47.7873 14.9623C46.5539 14.8453 45.7412 14.1015 45.9034 12.5234C47.1246 12.6198 48.4678 12.9612 47.7873 14.9623Z" fill="#FCFCFD"/>
<path fill-rule="evenodd" clip-rule="evenodd" d="M48.1116 13.0803C49.2163 12.5087 49.143 11.1145 48.0141 10C46.9436 10.8511 46.8064 12.2342 48.1116 13.0803Z" fill="#FCFCFD"/>
</svg>
