<svg width="238" height="225" viewBox="0 0 238 225" fill="none" xmlns="http://www.w3.org/2000/svg">
<path fill-rule="evenodd" clip-rule="evenodd" d="M142.094 11.3145C142.094 11.3145 157.28 4.64074 165.987 25.5947C167.721 29.5041 175.71 53.8469 199.672 62.2424C203.23 62.8349 220.654 62.076 213.696 82.8102C212.877 85.8332 206.659 102.814 213.696 120.886C215.267 123.675 219.598 134.554 215.479 152.384C214.528 156.412 211.214 164.827 211.214 175.261C210.758 179.691 209.45 197.78 188.525 197.78C179.396 198.064 147.558 195.88 147.558 195.88C147.558 195.88 132.838 195.73 126.986 199.34C123.39 201.181 106.049 207.957 91.685 199.34C86.4479 195.849 85.1953 194.517 85.1953 194.517C85.1953 194.517 72.4599 182.729 60.243 182.729C56.7968 182.135 33.0395 178.639 31.4627 165.248C30.7747 152.384 39.0135 140.536 26.4219 131.579C24.5766 130.132 17.9178 122.344 27.9569 111.403C29.0233 110.453 47.2149 95.6717 44.9716 82.8102C44.9803 81.0433 39.6409 60.9062 61.0836 45.884C62.481 45.0713 76.4038 37.2417 81.9793 22.228C82.9883 19.0004 83.8741 1.99795 103.819 9.912C123.559 20.8224 142.094 11.3145 142.094 11.3145Z" fill="#242731" stroke="#FFA2C0" stroke-width="1.11874"/>
<path fill-rule="evenodd" clip-rule="evenodd" d="M107.276 9.4533C107.276 9.4533 121.046 -8.72442 140.625 8.05174C145.562 13.3372 157.294 28.7069 173.238 28.7069C176.292 28.9408 197.359 29.8713 195.864 48.2866C196.064 50.8911 193.647 69.2412 212.623 73.8854C214.922 74.6917 225.901 79.7645 213.996 102.627C210.704 110.542 204.628 119.058 207.666 141.718C208.01 146.479 210.692 168.6 183.007 174.485C180.694 175.148 163.504 175.868 160.263 198.715C159.046 201.479 152.517 213.49 134.014 202.867C131.788 200.672 121.09 190.562 99.3613 205.353C96.7908 206.592 70.6379 223.598 52.1234 194.678C49.6904 191.495 38.1611 184.804 38.1611 151.144C38.1611 131.216 51.5674 119.308 29.3801 107.315C25.7841 105.383 9.56724 92.1523 23.8642 67.2848C25.1099 64.4441 38.5594 42.3317 62.791 42.3317C89.8078 42.3317 107.276 9.4533 107.276 9.4533Z" fill="#242731" stroke="#6C5DD3" stroke-width="1.11874"/>
<g opacity="0.5">
<circle opacity="0.408092" cx="228.297" cy="219.272" r="5.5937" fill="#FCFCFD"/>
<circle opacity="0.408092" cx="4.54527" cy="185.711" r="4.47496" fill="#FCFCFD"/>
<circle opacity="0.408092" cx="47.6187" cy="11.7486" r="3.91559" fill="#FCFCFD"/>
<path fill-rule="evenodd" clip-rule="evenodd" d="M222.701 10.628C215.088 12.2784 213.746 13.6206 212.073 21.2561C210.423 13.6426 209.081 12.3004 201.445 10.628C209.059 8.97772 210.401 7.63546 212.073 0C213.724 7.63546 215.066 8.97772 222.701 10.628Z" fill="#FCFCFD"/>
<path fill-rule="evenodd" clip-rule="evenodd" d="M32.5139 125.858C24.9004 127.508 23.5582 128.85 21.8858 136.486C20.2355 128.872 18.8933 127.53 11.2578 125.858C18.8713 124.207 20.2135 122.865 21.8858 115.229C23.5362 122.865 24.8784 124.207 32.5139 125.858Z" fill="#FCFCFD"/>
<path fill-rule="evenodd" clip-rule="evenodd" d="M202.561 183.712C196.946 184.949 195.941 185.891 194.7 191.543C193.459 185.95 192.513 184.949 186.898 183.712C192.513 182.476 193.518 181.533 194.7 175.881C195.941 181.533 196.887 182.534 202.561 183.712Z" fill="#FCFCFD"/>
<path opacity="0.44026" fill-rule="evenodd" clip-rule="evenodd" d="M237.147 106.28C231.532 107.517 230.527 108.459 229.286 114.112C228.045 108.518 227.099 107.517 221.484 106.28C227.099 105.044 228.104 104.102 229.286 98.4492C230.527 104.102 231.473 105.103 237.147 106.28Z" fill="#FCFCFD"/>
<path opacity="0.44026" fill-rule="evenodd" clip-rule="evenodd" d="M133.201 40.2745C127.587 41.511 126.582 42.4531 125.341 48.1057C124.1 42.512 123.154 41.511 117.539 40.2745C123.154 39.038 124.159 38.0959 125.341 32.4434C126.582 38.0959 127.528 39.0969 133.201 40.2745Z" fill="#FCFCFD"/>
<path opacity="0.408092" fill-rule="evenodd" clip-rule="evenodd" d="M66.0749 214.799C62.8665 215.506 62.2923 216.044 61.5831 219.274C60.8738 216.078 60.3335 215.506 57.125 214.799C60.3335 214.093 60.9076 213.554 61.5831 210.324C62.2923 213.554 62.8327 214.126 66.0749 214.799Z" fill="#FCFCFD"/>
</g>
<g clip-path="url(#clip0_15134_15429)">
<path d="M71.7484 93.3994H88.0984L95.8391 130.804H85.3695L84.1396 124.231H75.3305L74.1006 130.804H64L71.7484 93.3994ZM76.8755 115.999H82.5946L79.9733 102.109H79.4429L76.8755 115.999ZM121.06 93.3994H131.691V120.596H145.427V130.804H121.06V93.3994Z" fill="#3F8CFF"/>
<path d="M93.3906 105.906C93.3906 97.4123 97.5569 92.7617 106.689 92.7617H108.349C117.481 92.7617 121.302 97.4123 121.302 105.906V108.52H111.562V105.906C111.562 103.608 110.709 102.486 108.357 102.486H107.181C104.829 102.486 103.975 103.6 103.975 105.906V118.298C103.975 120.596 104.821 121.718 107.181 121.718H108.349C110.701 121.718 111.555 120.604 111.555 118.298V115.684H121.302V118.29C121.302 126.784 117.135 131.434 108.003 131.434H106.689C97.5569 131.434 93.3906 126.784 93.3906 118.29V105.906ZM144.309 93.3997H155.016V118.459C155.016 120.596 155.739 121.718 158.091 121.718H159.321C161.627 121.718 162.396 120.596 162.396 118.459V93.3997H172.996V118.036C172.996 126.83 168.345 131.434 159.375 131.434H157.93C148.959 131.434 144.309 126.83 144.309 118.036V93.3997Z" fill="#3F8CFF"/>
</g>
<defs>
<clipPath id="clip0_15134_15429">
<rect width="109" height="38.4344" fill="white" transform="translate(64 93)"/>
</clipPath>
</defs>
</svg>
