<svg width="238" height="225" viewBox="0 0 238 225" fill="none" xmlns="http://www.w3.org/2000/svg">
<path fill-rule="evenodd" clip-rule="evenodd" d="M142.164 11.3145C142.164 11.3145 157.35 4.64074 166.057 25.5947C167.791 29.5041 175.78 53.8469 199.742 62.2424C203.301 62.8349 220.724 62.076 213.767 82.8102C212.947 85.8332 206.729 102.814 213.767 120.886C215.337 123.675 219.668 134.554 215.549 152.384C214.598 156.412 211.284 164.827 211.284 175.261C210.828 179.691 209.52 197.78 188.596 197.78C179.467 198.064 147.628 195.88 147.628 195.88C147.628 195.88 132.908 195.73 127.056 199.34C123.46 201.181 106.119 207.957 91.7553 199.34C86.5182 195.849 85.2656 194.517 85.2656 194.517C85.2656 194.517 72.5302 182.729 60.3133 182.729C56.8671 182.135 33.1098 178.639 31.533 165.248C30.845 152.384 39.0838 140.536 26.4923 131.579C24.6469 130.132 17.9881 122.344 28.0272 111.403C29.0936 110.453 47.2852 95.6717 45.042 82.8102C45.0506 81.0433 39.7112 60.9062 61.1539 45.884C62.5513 45.0713 76.4741 37.2417 82.0497 22.228C83.0586 19.0004 83.9444 1.99795 103.89 9.912C123.63 20.8224 142.164 11.3145 142.164 11.3145Z" fill="#242731" stroke="#FFA2C0" stroke-width="1.11874"/>
<path fill-rule="evenodd" clip-rule="evenodd" d="M107.347 9.4533C107.347 9.4533 121.117 -8.72442 140.695 8.05174C145.632 13.3372 157.364 28.7069 173.308 28.7069C176.362 28.9408 197.429 29.8713 195.934 48.2866C196.135 50.8911 193.718 69.2412 212.693 73.8854C214.992 74.6917 225.972 79.7645 214.066 102.627C210.775 110.542 204.698 119.058 207.736 141.718C208.08 146.479 210.762 168.6 183.077 174.485C180.765 175.148 163.574 175.868 160.334 198.715C159.117 201.479 152.587 213.49 134.084 202.867C131.858 200.672 121.161 190.562 99.4316 205.353C96.8611 206.592 70.7082 223.598 52.1937 194.678C49.7607 191.495 38.2314 184.804 38.2314 151.144C38.2314 131.216 51.6378 119.308 29.4505 107.315C25.8544 105.383 9.63755 92.1523 23.9345 67.2848C25.1802 64.4441 38.6297 42.3317 62.8613 42.3317C89.8781 42.3317 107.347 9.4533 107.347 9.4533Z" fill="#242731" stroke="#6C5DD3" stroke-width="1.11874"/>
<g opacity="0.5">
<circle opacity="0.408092" cx="228.367" cy="219.272" r="5.5937" fill="#FCFCFD"/>
<circle opacity="0.408092" cx="4.61559" cy="185.711" r="4.47496" fill="#FCFCFD"/>
<circle opacity="0.408092" cx="47.689" cy="11.7486" r="3.91559" fill="#FCFCFD"/>
<path fill-rule="evenodd" clip-rule="evenodd" d="M222.772 10.628C215.158 12.2784 213.816 13.6206 212.144 21.2561C210.493 13.6426 209.151 12.3004 201.516 10.628C209.129 8.97772 210.471 7.63546 212.144 0C213.794 7.63546 215.136 8.97772 222.772 10.628Z" fill="#FCFCFD"/>
<path fill-rule="evenodd" clip-rule="evenodd" d="M32.5842 125.858C24.9707 127.508 23.6285 128.85 21.9562 136.486C20.3058 128.872 18.9636 127.53 11.3281 125.858C18.9416 124.207 20.2838 122.865 21.9562 115.229C23.6065 122.865 24.9487 124.207 32.5842 125.858Z" fill="#FCFCFD"/>
<path fill-rule="evenodd" clip-rule="evenodd" d="M202.631 183.712C197.016 184.949 196.012 185.891 194.77 191.543C193.529 185.95 192.584 184.949 186.969 183.712C192.584 182.476 193.588 181.533 194.77 175.881C196.012 181.533 196.957 182.534 202.631 183.712Z" fill="#FCFCFD"/>
<path opacity="0.44026" fill-rule="evenodd" clip-rule="evenodd" d="M237.209 106.28C231.594 107.517 230.59 108.459 229.349 114.112C228.107 108.518 227.162 107.517 221.547 106.28C227.162 105.044 228.166 104.102 229.349 98.4492C230.59 104.102 231.535 105.103 237.209 106.28Z" fill="#FCFCFD"/>
<path opacity="0.44026" fill-rule="evenodd" clip-rule="evenodd" d="M133.272 40.2745C127.657 41.511 126.652 42.4531 125.411 48.1057C124.17 42.512 123.224 41.511 117.609 40.2745C123.224 39.038 124.229 38.0959 125.411 32.4434C126.652 38.0959 127.598 39.0969 133.272 40.2745Z" fill="#FCFCFD"/>
<path opacity="0.408092" fill-rule="evenodd" clip-rule="evenodd" d="M66.1452 214.799C62.9368 215.506 62.3626 216.044 61.6534 219.274C60.9441 216.078 60.4038 215.506 57.1953 214.799C60.4038 214.093 60.9779 213.554 61.6534 210.324C62.3626 213.554 62.903 214.126 66.1452 214.799Z" fill="#FCFCFD"/>
</g>
<g clip-path="url(#clip0_15134_15449)">
<path d="M167.9 98.7453H162.272L158.79 107.422C157.273 103.19 152.729 98 145.052 98C140.581 98 136.987 99.76 134.472 102.387C135.439 104.067 135.913 106.007 135.912 107.957C135.892 111.088 134.684 114.288 132.58 116.123L132.576 116.124L132.575 116.128C132.136 116.507 131.683 116.845 131.199 117.145C133.083 122.669 138.231 127 145.127 127C147.411 127 149.574 126.49 151.505 125.574L151.058 126.689H158.72L160.197 122.646H169.901L171.259 126.689H179L167.9 98.7453ZM151.774 116.014C151.321 116.997 149.509 120.733 145.052 120.733C140.408 120.733 137.538 116.654 137.538 112.428C137.538 108.459 140.219 104.268 145.014 104.268C148.868 104.268 150.98 107.061 151.774 109.139H158.101L155.342 116.014H151.774ZM162.159 116.982L165.03 107.431H165.104H165.143L168.017 116.982H162.159ZM104.259 103.969C106.447 103.969 106.671 105.744 106.826 106.685H112.668V102.062C112.484 101.769 112.283 101.473 112.038 101.173C110.223 99.0217 107.242 98 104.483 98C99.8009 98 94.705 100.985 94.705 106.231C94.705 111.481 99.5741 113.447 101.54 114.24C105.843 116.052 107.013 116.506 107.013 118.357C107.013 119.638 105.994 121.037 104.297 121.037C103.391 121.037 101.391 120.47 101.391 117.224H94.2868V117.271L86.8413 98.5303H81.2126L70 126.474H77.6652L79.1371 122.437H88.8424L90.202 126.474H97.944L97.3085 124.875C98.8559 126.134 101.115 127 104.371 127C108.665 127 111.25 125.484 112.668 123.421V113.926C111.674 112.687 110.076 111.548 107.58 110.427C102.558 108.159 101.804 107.815 101.804 106.158C101.804 104.837 103.014 103.969 104.259 103.969ZM81.1027 116.77L83.9708 107.214H84.0488H84.0854L86.9559 116.77H81.1027Z" fill="#3F8CFF"/>
<path d="M174.805 98.7874C175.754 98.7874 176.51 99.5588 176.51 100.523C176.51 101.501 175.754 102.263 174.798 102.263C173.849 102.263 173.078 101.501 173.078 100.523C173.078 99.5588 173.849 98.7874 174.798 98.7874H174.805ZM174.798 99.0568C174.034 99.0568 173.41 99.7123 173.41 100.523C173.41 101.347 174.034 101.995 174.805 101.995C175.577 102.002 176.193 101.347 176.193 100.53C176.193 99.7124 175.577 99.0568 174.805 99.0568H174.798ZM174.474 101.531H174.166V99.5954C174.327 99.573 174.483 99.5505 174.713 99.5505C175.007 99.5505 175.199 99.612 175.314 99.6958C175.43 99.7809 175.491 99.9119 175.491 100.099C175.491 100.353 175.323 100.506 175.113 100.568V100.583C175.284 100.614 175.401 100.768 175.438 101.054C175.483 101.354 175.529 101.469 175.561 101.531H175.236C175.19 101.469 175.145 101.292 175.106 101.038C175.06 100.791 174.936 100.699 174.691 100.699H174.474V101.531ZM174.474 100.46H174.698C174.952 100.46 175.168 100.367 175.168 100.128C175.168 99.9592 175.046 99.7891 174.698 99.7891C174.596 99.7891 174.529 99.7962 174.474 99.8045V100.46Z" fill="#3F8CFF"/>
<path d="M113.742 98.4909H122.908C128.092 98.4909 130.025 99.2847 131.543 100.536C133.737 102.351 134.84 105.115 134.84 107.956C134.84 110.796 133.661 113.789 131.882 115.306C129.95 116.934 128.057 117.728 123.7 117.728H120.596V126.518H113.742V98.4909ZM120.596 111.441H123.514C124.874 111.441 127.981 111.441 127.981 108.071C127.981 104.776 124.8 104.776 123.245 104.776H120.596V111.441Z" fill="#FCFCFD"/>
</g>
<defs>
<clipPath id="clip0_15134_15449">
<rect width="109" height="29" fill="white" transform="translate(70 98)"/>
</clipPath>
</defs>
</svg>
