<svg width="238" height="225" viewBox="0 0 238 225" fill="none" xmlns="http://www.w3.org/2000/svg">
<path fill-rule="evenodd" clip-rule="evenodd" d="M142.235 11.3145C142.235 11.3145 157.42 4.64074 166.128 25.5947C167.861 29.5041 175.851 53.8469 199.813 62.2424C203.371 62.8349 220.794 62.076 213.837 82.8102C213.017 85.8332 206.8 102.814 213.837 120.886C215.407 123.675 219.739 134.554 215.62 152.384C214.669 156.412 211.354 164.827 211.354 175.261C210.898 179.691 209.59 197.78 188.666 197.78C179.537 198.064 147.698 195.88 147.698 195.88C147.698 195.88 132.979 195.73 127.127 199.34C123.531 201.181 106.19 207.957 91.8257 199.34C86.5885 195.849 85.336 194.517 85.336 194.517C85.336 194.517 72.6005 182.729 60.3836 182.729C56.9375 182.135 33.1801 178.639 31.6033 165.248C30.9153 152.384 39.1541 140.536 26.5626 131.579C24.7173 130.132 18.0585 122.344 28.0976 111.403C29.1639 110.453 47.3555 95.6717 45.1123 82.8102C45.1209 81.0433 39.7815 60.9062 61.2243 45.884C62.6216 45.0713 76.5444 37.2417 82.12 22.228C83.1289 19.0004 84.0148 1.99795 103.96 9.912C123.7 20.8224 142.235 11.3145 142.235 11.3145Z" fill="#242731" stroke="#FFA2C0" stroke-width="1.11874"/>
<path fill-rule="evenodd" clip-rule="evenodd" d="M107.417 9.4533C107.417 9.4533 121.187 -8.72442 140.766 8.05174C145.703 13.3372 157.435 28.7069 173.378 28.7069C176.432 28.9408 197.499 29.8713 196.004 48.2866C196.205 50.8911 193.788 69.2412 212.763 73.8854C215.062 74.6917 226.042 79.7645 214.137 102.627C210.845 110.542 204.768 119.058 207.807 141.718C208.15 146.479 210.832 168.6 183.147 174.485C180.835 175.148 163.644 175.868 160.404 198.715C159.187 201.479 152.658 213.49 134.155 202.867C131.928 200.672 121.231 190.562 99.5019 205.353C96.9314 206.592 70.7785 223.598 52.2641 194.678C49.831 191.495 38.3018 184.804 38.3018 151.144C38.3018 131.216 51.7081 119.308 29.5208 107.315C25.9247 105.383 9.70786 92.1523 24.0048 67.2848C25.2505 64.4441 38.7 42.3317 62.9316 42.3317C89.9484 42.3317 107.417 9.4533 107.417 9.4533Z" fill="#242731" stroke="#6C5DD3" stroke-width="1.11874"/>
<g opacity="0.5">
<circle opacity="0.408092" cx="228.437" cy="219.272" r="5.5937" fill="#FCFCFD"/>
<circle opacity="0.408092" cx="4.6859" cy="185.711" r="4.47496" fill="#FCFCFD"/>
<circle opacity="0.408092" cx="47.7593" cy="11.7486" r="3.91559" fill="#FCFCFD"/>
<path fill-rule="evenodd" clip-rule="evenodd" d="M222.842 10.628C215.229 12.2784 213.886 13.6206 212.214 21.2561C210.564 13.6426 209.221 12.3004 201.586 10.628C209.199 8.97772 210.542 7.63546 212.214 0C213.864 7.63546 215.207 8.97772 222.842 10.628Z" fill="#FCFCFD"/>
<path fill-rule="evenodd" clip-rule="evenodd" d="M32.6545 125.858C25.041 127.508 23.6988 128.85 22.0265 136.486C20.3762 128.872 19.0339 127.53 11.3984 125.858C19.0119 124.207 20.3542 122.865 22.0265 115.229C23.6768 122.865 25.019 124.207 32.6545 125.858Z" fill="#FCFCFD"/>
<path fill-rule="evenodd" clip-rule="evenodd" d="M202.701 183.712C197.087 184.949 196.082 185.891 194.841 191.543C193.6 185.95 192.654 184.949 187.039 183.712C192.654 182.476 193.659 181.533 194.841 175.881C196.082 181.533 197.028 182.534 202.701 183.712Z" fill="#FCFCFD"/>
<path opacity="0.44026" fill-rule="evenodd" clip-rule="evenodd" d="M237.287 106.28C231.673 107.517 230.668 108.459 229.427 114.112C228.185 108.518 227.24 107.517 221.625 106.28C227.24 105.044 228.245 104.102 229.427 98.4492C230.668 104.102 231.613 105.103 237.287 106.28Z" fill="#FCFCFD"/>
<path opacity="0.44026" fill-rule="evenodd" clip-rule="evenodd" d="M133.342 40.2745C127.727 41.511 126.722 42.4531 125.481 48.1057C124.24 42.512 123.294 41.511 117.68 40.2745C123.294 39.038 124.299 38.0959 125.481 32.4434C126.722 38.0959 127.668 39.0969 133.342 40.2745Z" fill="#FCFCFD"/>
<path opacity="0.408092" fill-rule="evenodd" clip-rule="evenodd" d="M66.2155 214.799C63.0071 215.506 62.4329 216.044 61.7237 219.274C61.0145 216.078 60.4741 215.506 57.2656 214.799C60.4741 214.093 61.0482 213.554 61.7237 210.324C62.4329 213.554 62.9733 214.126 66.2155 214.799Z" fill="#FCFCFD"/>
</g>
<path d="M171.778 93.0344V101.058C171.778 101.114 171.755 101.169 171.716 101.208C171.676 101.248 171.621 101.271 171.565 101.271H151.595C151.477 101.271 151.382 101.175 151.382 101.2V62.3913C151.382 62.1317 151.477 62.0363 151.595 62.0363H159.524C159.581 62.0363 159.635 62.0587 159.675 62.0986C159.715 62.1385 159.737 62.1927 159.737 62.2492L159.753 92.5968C159.753 92.6533 159.775 92.7074 159.815 92.7473C159.855 92.7872 159.909 92.8096 159.966 92.8097L171.565 92.8214C171.622 92.8214 171.676 92.8439 171.716 92.8838C171.756 92.9238 171.778 92.9779 171.778 93.0344ZM128.877 69.476C128.861 69.476 128.845 69.4761 128.829 69.4761C122.415 69.496 116.653 74.1883 116.653 81.536C116.653 88.9819 122.279 93.517 128.625 93.5989C128.691 93.5997 128.81 93.5989 128.877 93.5989C128.943 93.5989 129.01 93.5985 129.076 93.5977C135.422 93.5177 140.978 88.9853 140.978 81.539C140.978 74.1981 135.349 69.5052 128.944 69.4762L128.877 69.476ZM128.876 101.929C128.835 101.929 128.671 101.929 128.63 101.929C117.258 101.876 107.623 94.6059 107.623 81.5348C107.623 68.7853 117.415 61.1709 128.816 61.1456C128.836 61.1455 128.856 61.1455 128.876 61.1455L128.945 61.1456C140.341 61.1776 150.008 68.7937 150.008 81.54C150.008 94.6031 140.382 101.87 129.019 101.929C128.971 101.929 128.924 101.929 128.876 101.929ZM74.8882 101.985C78.0573 101.985 80.4616 100.967 82.0343 98.9604C83.5916 96.9729 84.3814 93.95 84.3814 89.9751V83.5109C84.3814 83.4544 84.3589 83.4002 84.319 83.3603C84.279 83.3203 84.2249 83.2979 84.1684 83.2979H76.7931C76.7367 83.2979 76.6825 83.3203 76.6425 83.3603C76.6026 83.4002 76.5801 83.4544 76.5801 83.5109V91.8437C76.5801 94.3331 76.0426 95.2088 74.8882 95.2088C73.6865 95.2088 73.1962 94.4354 73.1962 91.8437L73.1964 71.5417C73.1964 68.9499 73.6866 68.0346 74.8882 68.0346C76.0426 68.0346 76.5801 69.0521 76.5801 71.5417V78.5213C76.5801 78.5492 76.5857 78.5769 76.5964 78.6028C76.6071 78.6286 76.6228 78.6521 76.6425 78.6719C76.6623 78.6917 76.6858 78.7074 76.7116 78.7181C76.7375 78.7288 76.7652 78.7343 76.7932 78.7343H84.1684C84.2249 78.7343 84.279 78.7118 84.319 78.6719C84.3589 78.6319 84.3814 78.5778 84.3814 78.5213V73.2683C84.3814 69.2934 83.5916 66.2705 82.0343 64.2833C80.4616 62.2762 78.0573 61.2588 74.8882 61.2588C68.4825 61.2588 65.2344 65.2995 65.2344 73.2683V89.9751C65.2344 97.9442 68.4825 101.985 74.8882 101.985ZM96.1076 101.985C92.8937 101.985 90.396 100.968 88.684 98.9629C86.9397 96.9197 86.0552 93.8958 86.0552 89.9751V73.2683C86.0552 69.3474 86.9397 66.3237 88.684 64.2807C90.396 62.2756 92.8937 61.2588 96.1076 61.2588C99.3214 61.2588 101.819 62.2756 103.531 64.2807C105.275 66.3237 106.16 69.3474 106.16 73.2683V89.9751C106.16 93.8958 105.275 96.9197 103.531 98.963C101.819 100.968 99.3214 101.985 96.1076 101.985ZM97.7994 71.5417C97.7994 69.0522 97.2619 68.0346 96.1076 68.0346C94.9059 68.0346 94.4157 68.9499 94.4157 71.5417V91.8437C94.4157 94.4355 94.9059 95.2088 96.1076 95.2088C97.2619 95.2088 97.7994 94.3331 97.7994 91.8437V71.5417ZM100.686 103.385H91.529C91.4984 103.385 91.4689 103.396 91.446 103.417C91.4231 103.437 91.4085 103.465 91.405 103.496L84.3162 162.715C84.3141 162.732 84.3157 162.75 84.321 162.767C84.3262 162.784 84.335 162.8 84.3468 162.813C84.3585 162.826 84.3729 162.837 84.389 162.844C84.4051 162.851 84.4226 162.855 84.4403 162.855H92.6808C92.7125 162.855 92.7429 162.843 92.7661 162.821C92.7892 162.8 92.8033 162.77 92.8055 162.738L93.6862 148.532C93.6884 148.5 93.7025 148.471 93.7257 148.449C93.7488 148.428 93.7793 148.416 93.8109 148.416H97.9238C97.9554 148.416 97.9859 148.428 98.009 148.449C98.0322 148.471 98.0463 148.5 98.0485 148.532L98.9305 162.739C98.9327 162.77 98.9468 162.8 98.9699 162.821C98.993 162.843 99.0235 162.855 99.0551 162.855H107.775C107.793 162.855 107.81 162.851 107.826 162.844C107.842 162.837 107.857 162.826 107.868 162.813C107.88 162.8 107.889 162.784 107.894 162.767C107.899 162.75 107.901 162.732 107.899 162.715L100.81 103.496C100.807 103.465 100.792 103.437 100.769 103.417C100.746 103.396 100.717 103.385 100.686 103.385ZM94.3204 139.815L95.1289 127.79L95.7028 117.388C95.7041 117.355 95.7179 117.325 95.7411 117.303C95.7644 117.28 95.7954 117.268 95.8276 117.268C95.8599 117.268 95.8908 117.28 95.9141 117.303C95.9374 117.325 95.9511 117.355 95.9525 117.388L96.5263 127.79L97.4147 139.814C97.4159 139.832 97.4136 139.849 97.4079 139.865C97.4023 139.881 97.3933 139.896 97.3816 139.909C97.3699 139.921 97.3557 139.931 97.34 139.938C97.3242 139.945 97.3072 139.949 97.29 139.949H94.4451C94.428 139.949 94.411 139.945 94.3953 139.938C94.3796 139.931 94.3655 139.921 94.3538 139.909C94.3421 139.896 94.3331 139.882 94.3273 139.866C94.3216 139.849 94.3192 139.832 94.3204 139.815ZM144.071 111.544H149.393C149.45 111.544 149.504 111.522 149.544 111.482C149.584 111.442 149.606 111.388 149.606 111.331V103.601C149.606 103.573 149.601 103.545 149.59 103.52C149.58 103.494 149.564 103.47 149.544 103.451C149.524 103.431 149.501 103.415 149.475 103.404C149.449 103.394 149.421 103.388 149.393 103.388L130.25 103.392C130.194 103.392 130.139 103.414 130.1 103.454C130.06 103.494 130.037 103.548 130.037 103.605V111.331C130.037 111.388 130.06 111.442 130.1 111.482C130.14 111.522 130.194 111.544 130.25 111.544H135.43C135.487 111.544 135.541 111.567 135.581 111.607C135.621 111.647 135.643 111.701 135.643 111.757L135.524 149.794C135.521 149.973 135.554 150.151 135.622 150.316C135.69 150.481 135.791 150.631 135.919 150.756C137.021 151.408 138.242 151.832 139.511 152.003C140.78 152.175 142.07 152.09 143.306 151.755C143.485 151.726 143.648 151.637 143.77 151.503C143.892 151.369 143.965 151.197 143.977 151.017L143.858 111.757C143.858 111.701 143.88 111.647 143.92 111.607C143.96 111.567 144.014 111.544 144.071 111.544ZM163.483 140.07V162.649C163.483 162.705 163.506 162.76 163.546 162.8C163.586 162.839 163.64 162.862 163.696 162.862L171.565 162.862C171.621 162.862 171.676 162.839 171.716 162.799C171.755 162.76 171.778 162.705 171.778 162.649V103.601C171.778 103.545 171.755 103.49 171.716 103.451C171.676 103.411 171.621 103.388 171.565 103.388L163.696 103.388C163.64 103.388 163.586 103.411 163.546 103.451C163.506 103.49 163.483 103.545 163.483 103.601V130.809C163.483 130.865 163.461 130.92 163.421 130.959C163.381 130.999 163.327 131.022 163.27 131.022H159.956C159.928 131.022 159.9 131.016 159.875 131.006C159.849 130.995 159.825 130.979 159.805 130.96C159.786 130.94 159.77 130.916 159.759 130.89C159.749 130.865 159.743 130.837 159.743 130.809V103.601C159.743 103.545 159.721 103.491 159.681 103.451C159.641 103.411 159.587 103.388 159.53 103.388L151.595 103.388C151.538 103.388 151.484 103.411 151.444 103.451C151.404 103.491 151.382 103.545 151.382 103.601V162.649C151.382 162.705 151.404 162.76 151.444 162.8C151.484 162.84 151.538 162.862 151.595 162.862L159.53 162.862C159.587 162.862 159.641 162.839 159.681 162.8C159.721 162.76 159.743 162.705 159.743 162.649V140.07C159.743 140.014 159.766 139.96 159.805 139.92C159.845 139.88 159.9 139.857 159.956 139.857H163.27C163.327 139.857 163.381 139.88 163.421 139.92C163.461 139.96 163.483 140.014 163.483 140.07ZM83.1424 103.385H66.2377C66.1812 103.385 66.1271 103.407 66.0871 103.447C66.0472 103.487 66.0247 103.542 66.0247 103.598V162.649C66.0247 162.705 66.0472 162.76 66.0871 162.8C66.1271 162.84 66.1812 162.862 66.2377 162.862H83.1424C83.1989 162.862 83.2531 162.84 83.2931 162.8C83.333 162.76 83.3554 162.705 83.3554 162.649V154.756C83.3554 154.7 83.333 154.646 83.2931 154.606C83.2531 154.566 83.1989 154.543 83.1424 154.543H74.4825C74.426 154.543 74.3718 154.521 74.3319 154.481C74.2919 154.441 74.2695 154.387 74.2695 154.33V140.139C74.2695 140.083 74.2919 140.028 74.3319 139.989C74.3718 139.949 74.426 139.926 74.4825 139.926H82.2872C82.3437 139.926 82.3979 139.904 82.4378 139.864C82.4778 139.824 82.5002 139.77 82.5002 139.713V131.326C82.5002 131.27 82.4778 131.216 82.4378 131.176C82.3979 131.136 82.3437 131.113 82.2872 131.113H74.4825C74.426 131.113 74.3718 131.091 74.3319 131.051C74.292 131.011 74.2695 130.957 74.2695 130.9V111.916C74.2695 111.86 74.292 111.806 74.3319 111.766C74.3718 111.726 74.426 111.703 74.4825 111.703H83.1425C83.1989 111.703 83.2531 111.681 83.2931 111.641C83.333 111.601 83.3554 111.547 83.3554 111.49V103.598C83.3554 103.541 83.333 103.487 83.293 103.447C83.2531 103.407 83.1989 103.385 83.1424 103.385ZM117.965 131.086H117.798C117.685 131.085 117.577 131.04 117.497 130.961C117.418 130.881 117.373 130.773 117.372 130.66V111.005C117.372 110.836 117.457 110.751 117.542 110.751H118.474C120.422 110.751 120.422 111.853 120.422 115.072V127.019C120.422 128.713 120.507 131.086 117.965 131.086ZM108.9 103.867V162.713C108.9 162.751 108.915 162.788 108.942 162.816C108.969 162.843 109.006 162.858 109.045 162.858H117.183C117.25 162.858 117.315 162.832 117.363 162.785C117.411 162.739 117.439 162.675 117.441 162.608C117.448 162.364 117.457 162.016 117.457 161.909V140.164C117.457 140.1 117.481 140.039 117.524 139.991C117.567 139.944 117.626 139.915 117.69 139.909C118.072 139.834 118.467 139.905 118.8 140.106C119.133 140.308 119.379 140.626 119.49 140.999C121.353 146.757 125.179 168.242 147.683 161.583C147.708 161.576 147.732 161.565 147.754 161.551C147.832 161.509 147.9 161.452 147.954 161.382C148.008 161.312 148.047 161.231 148.068 161.145C148.089 161.059 148.091 160.97 148.075 160.883C148.059 160.796 148.025 160.713 147.975 160.64L145.521 154.549C145.519 154.543 145.516 154.537 145.513 154.531C145.347 154.196 145.26 153.956 144.67 154.116C134.3 156.931 131.352 151.335 128.472 140.49C128.472 140.49 126.946 133.797 124.235 135.661C125.845 135.322 128.98 132.95 128.98 126.595V112.7C128.98 108.294 125.252 103.388 118.22 103.388H109.156C109.088 103.388 109.023 103.415 108.975 103.463C108.927 103.511 108.9 103.577 108.9 103.645L108.9 103.867Z" fill="#3F8CFF"/>
</svg>
