<svg width="238" height="225" viewBox="0 0 238 225" fill="none" xmlns="http://www.w3.org/2000/svg">
<path fill-rule="evenodd" clip-rule="evenodd" d="M142.305 11.3145C142.305 11.3145 157.491 4.64074 166.198 25.5947C167.932 29.5041 175.921 53.8469 199.883 62.2424C203.441 62.8349 220.865 62.076 213.907 82.8102C213.088 85.8332 206.87 102.814 213.907 120.886C215.477 123.675 219.809 134.554 215.69 152.384C214.739 156.412 211.425 164.827 211.425 175.261C210.969 179.691 209.661 197.78 188.736 197.78C179.607 198.064 147.769 195.88 147.769 195.88C147.769 195.88 133.049 195.73 127.197 199.34C123.601 201.181 106.26 207.957 91.896 199.34C86.6589 195.849 85.4063 194.517 85.4063 194.517C85.4063 194.517 72.6708 182.729 60.4539 182.729C57.0078 182.135 33.2504 178.639 31.6736 165.248C30.9856 152.384 39.2245 140.536 26.6329 131.579C24.7876 130.132 18.1288 122.344 28.1679 111.403C29.2343 110.453 47.4258 95.6717 45.1826 82.8102C45.1912 81.0433 39.8518 60.9062 61.2946 45.884C62.6919 45.0713 76.6147 37.2417 82.1903 22.228C83.1992 19.0004 84.0851 1.99795 104.03 9.912C123.77 20.8224 142.305 11.3145 142.305 11.3145Z" fill="#242731" stroke="#FFA2C0" stroke-width="1.11874"/>
<path fill-rule="evenodd" clip-rule="evenodd" d="M107.487 9.4533C107.487 9.4533 121.257 -8.72442 140.836 8.05174C145.773 13.3372 157.505 28.7069 173.449 28.7069C176.503 28.9408 197.57 29.8713 196.075 48.2866C196.275 50.8911 193.858 69.2412 212.834 73.8854C215.133 74.6917 226.112 79.7645 214.207 102.627C210.915 110.542 204.838 119.058 207.877 141.718C208.221 146.479 210.903 168.6 183.217 174.485C180.905 175.148 163.715 175.868 160.474 198.715C159.257 201.479 152.728 213.49 134.225 202.867C131.999 200.672 121.301 190.562 99.5722 205.353C97.0017 206.592 70.8488 223.598 52.3344 194.678C49.9013 191.495 38.3721 184.804 38.3721 151.144C38.3721 131.216 51.7784 119.308 29.5911 107.315C25.995 105.383 9.77817 92.1523 24.0751 67.2848C25.3208 64.4441 38.7703 42.3317 63.002 42.3317C90.0187 42.3317 107.487 9.4533 107.487 9.4533Z" fill="#242731" stroke="#6C5DD3" stroke-width="1.11874"/>
<g opacity="0.5">
<circle opacity="0.408092" cx="228.508" cy="219.272" r="5.5937" fill="#FCFCFD"/>
<circle opacity="0.408092" cx="4.75621" cy="185.711" r="4.47496" fill="#FCFCFD"/>
<circle opacity="0.408092" cx="47.8297" cy="11.7486" r="3.91559" fill="#FCFCFD"/>
<path fill-rule="evenodd" clip-rule="evenodd" d="M222.912 10.628C215.299 12.2784 213.957 13.6206 212.284 21.2561C210.634 13.6426 209.292 12.3004 201.656 10.628C209.27 8.97772 210.612 7.63546 212.284 0C213.935 7.63546 215.277 8.97772 222.912 10.628Z" fill="#FCFCFD"/>
<path fill-rule="evenodd" clip-rule="evenodd" d="M32.7248 125.858C25.1114 127.508 23.7691 128.85 22.0968 136.486C20.4465 128.872 19.1042 127.53 11.4688 125.858C19.0822 124.207 20.4245 122.865 22.0968 115.229C23.7471 122.865 25.0894 124.207 32.7248 125.858Z" fill="#FCFCFD"/>
<path fill-rule="evenodd" clip-rule="evenodd" d="M202.772 183.712C197.157 184.949 196.152 185.891 194.911 191.543C193.67 185.95 192.724 184.949 187.109 183.712C192.724 182.476 193.729 181.533 194.911 175.881C196.152 181.533 197.098 182.534 202.772 183.712Z" fill="#FCFCFD"/>
<path opacity="0.44026" fill-rule="evenodd" clip-rule="evenodd" d="M237.35 106.28C231.735 107.517 230.73 108.459 229.489 114.112C228.248 108.518 227.302 107.517 221.688 106.28C227.302 105.044 228.307 104.102 229.489 98.4492C230.73 104.102 231.676 105.103 237.35 106.28Z" fill="#FCFCFD"/>
<path opacity="0.44026" fill-rule="evenodd" clip-rule="evenodd" d="M133.412 40.2745C127.798 41.511 126.793 42.4531 125.552 48.1057C124.31 42.512 123.365 41.511 117.75 40.2745C123.365 39.038 124.37 38.0959 125.552 32.4434C126.793 38.0959 127.738 39.0969 133.412 40.2745Z" fill="#FCFCFD"/>
<path opacity="0.408092" fill-rule="evenodd" clip-rule="evenodd" d="M66.2859 214.799C63.0774 215.506 62.5033 216.044 61.794 219.274C61.0848 216.078 60.5444 215.506 57.3359 214.799C60.5444 214.093 61.1185 213.554 61.794 210.324C62.5033 213.554 63.0436 214.126 66.2859 214.799Z" fill="#FCFCFD"/>
</g>
<path d="M68.3828 102.724H80.3864V105.58H71.8509V108.619H79.3727V111.475H71.8509V117.003H68.3828V102.724ZM84.3146 102.724H96.2055V105.519H87.76V108.416H95.1917V111.21H87.76V114.209H96.3182V117.003H84.3146V102.724ZM100.554 102.724H112.445V105.519H104V108.416H111.431V111.21H104V114.209H112.558V117.003H100.554V102.724ZM122.558 114.168C123.263 114.168 123.909 114.066 124.495 113.862C125.08 113.658 125.579 113.365 125.992 112.985C126.405 112.604 126.728 112.155 126.961 111.638C127.193 111.122 127.31 110.544 127.31 109.905V109.864C127.31 109.238 127.193 108.66 126.961 108.13C126.728 107.599 126.405 107.144 125.992 106.763C125.579 106.382 125.08 106.086 124.495 105.876C123.909 105.665 123.263 105.559 122.558 105.559H119.878V114.168H122.558ZM116.41 102.724H122.558C123.789 102.724 124.919 102.904 125.947 103.264C126.976 103.625 127.861 104.125 128.605 104.764C129.348 105.403 129.922 106.154 130.328 107.018C130.733 107.882 130.936 108.817 130.936 109.823V109.864C130.936 110.87 130.733 111.808 130.328 112.679C129.922 113.549 129.348 114.304 128.605 114.943C127.861 115.582 126.976 116.086 125.947 116.453C124.919 116.82 123.789 117.003 122.558 117.003H116.41V102.724ZM134.162 102.724H137.63V121.42H134.162V102.724ZM141.955 102.724H145.152L151.387 111.516V102.724H154.618V117.003H151.476L145.377 107.926V117.003H141.955V102.724Z" fill="#3F8CFF"/>
<path d="M165.579 117.247C164.445 117.247 163.411 117.06 162.478 116.684C161.544 116.309 160.742 115.787 160.071 115.119C159.401 114.451 158.879 113.659 158.505 112.74C158.132 111.822 157.945 110.821 157.945 109.736V109.694C157.945 108.65 158.135 107.673 158.516 106.762C158.896 105.851 159.425 105.051 160.102 104.362C160.78 103.673 161.582 103.131 162.509 102.734C163.435 102.338 164.452 102.14 165.558 102.14C166.208 102.14 166.8 102.185 167.332 102.275C167.864 102.366 168.359 102.494 168.815 102.662C169.271 102.829 169.7 103.037 170.101 103.288C170.502 103.538 170.889 103.823 171.263 104.143L169.25 106.585C168.974 106.348 168.697 106.139 168.421 105.959C168.144 105.778 167.857 105.625 167.56 105.499C167.262 105.374 166.941 105.277 166.595 105.207C166.25 105.138 165.869 105.103 165.455 105.103C164.873 105.103 164.331 105.225 163.826 105.468C163.321 105.711 162.879 106.038 162.498 106.449C162.118 106.859 161.821 107.339 161.606 107.889C161.392 108.438 161.285 109.026 161.285 109.652V109.694C161.285 110.361 161.392 110.977 161.606 111.54C161.821 112.104 162.125 112.594 162.519 113.011C162.913 113.429 163.377 113.752 163.909 113.982C164.441 114.212 165.033 114.326 165.683 114.326C166.872 114.326 167.875 114.034 168.691 113.45V111.363H165.475V108.587H171.781V114.931C171.034 115.571 170.146 116.117 169.116 116.569C168.085 117.021 166.906 117.247 165.579 117.247Z" fill="#3F8CFF"/>
<path d="M74.6557 129.787L72.7123 125.136L70.7683 129.787H74.6557ZM71.2703 121.345H74.2379L80.5076 135.791H77.1431L75.805 132.574H69.619L68.2815 135.791H65L71.2703 121.345ZM83.1367 121.447H86.6057L90.451 127.513L94.297 121.447H97.766V135.791H94.5687V126.427L90.451 132.554H90.3675L86.2919 126.488V135.791H83.1367V121.447ZM102.434 121.447H113.468V124.255H105.631V127.164H112.528V129.972H105.631V132.984H113.573V135.791H102.434V121.447ZM124.015 128.415C124.809 128.415 125.419 128.23 125.844 127.861C126.268 127.492 126.481 127 126.481 126.385V126.345C126.481 125.662 126.258 125.149 125.812 124.808C125.366 124.466 124.746 124.295 123.952 124.295H121.217V128.415H124.015ZM117.999 121.447H124.686C126.539 121.447 127.961 121.932 128.95 122.902C129.786 123.722 130.204 124.815 130.204 126.181V126.221C130.204 127.383 129.915 128.329 129.337 129.06C128.758 129.791 127.633 130.327 126.7 130.668L130.643 135.791H126.512L123.377 131.201H123.335H121.217V135.791H117.999V121.447ZM134.15 121.408H137.618V135.791H134.15V121.408ZM149.029 136.037C147.956 136.037 146.96 135.846 146.04 135.463C145.121 135.081 144.326 134.558 143.658 133.896C142.989 133.233 142.466 132.451 142.09 131.549C141.714 130.648 141.526 129.685 141.526 128.66V128.619C141.526 127.595 141.714 126.635 142.09 125.74C142.466 124.845 142.989 124.06 143.658 123.384C144.326 122.707 145.128 122.175 146.061 121.785C146.995 121.396 148.026 121.201 149.154 121.201C149.837 121.201 150.461 121.256 151.025 121.365C151.589 121.474 152.101 121.625 152.561 121.816C153.021 122.007 153.446 122.24 153.836 122.513C154.226 122.786 154.81 123.376 155.144 123.704L153.096 126.02C152.525 125.514 151.721 124.828 151.129 124.541C150.537 124.254 149.872 124.111 149.133 124.111C148.52 124.111 147.952 124.227 147.43 124.459C146.908 124.691 146.458 125.012 146.082 125.422C145.706 125.832 145.413 126.307 145.204 126.846C144.995 127.386 144.89 127.963 144.89 128.578V128.619C145.126 131.135 146.759 132.522 149.133 132.91C151.047 132.961 151.989 132.071 153.201 130.795L155.249 132.823C153.953 134.201 152.76 135.323 150.952 135.863C150.381 135.979 149.739 136.037 149.029 136.037ZM167.779 129.787L165.54 124.692L163.3 129.787H167.779ZM163.802 121.345H167.287L174 135.791H170.488L168.854 132.574H162.151L160.813 135.791H157.532L163.802 121.345Z" fill="#FCFCFD"/>
<path fill-rule="evenodd" clip-rule="evenodd" d="M136.283 101.269C138.624 101.326 140.317 100.112 140.366 97.113C138.052 97.0199 135.454 97.3594 136.283 101.269Z" fill="#3F8CFF"/>
<path fill-rule="evenodd" clip-rule="evenodd" d="M136.079 97.1192C138.421 97.1763 140.114 95.9623 140.163 92.9636C137.849 92.8705 135.251 93.21 136.079 97.1192Z" fill="#3F8CFF"/>
<path fill-rule="evenodd" clip-rule="evenodd" d="M136.022 92.7306C138.362 92.633 139.971 91.3099 139.822 88.3145C137.507 88.3744 134.937 88.8847 136.022 92.7306Z" fill="#3F8CFF"/>
<path fill-rule="evenodd" clip-rule="evenodd" d="M136.199 88.3814C138.53 88.1602 140.067 86.7539 139.76 83.7705C137.451 83.9528 134.912 84.5982 136.199 88.3814Z" fill="#3F8CFF"/>
<path fill-rule="evenodd" clip-rule="evenodd" d="M135.185 101.269C132.844 101.326 131.151 100.112 131.102 97.113C133.416 97.0199 136.014 97.3594 135.185 101.269Z" fill="#3F8CFF"/>
<path fill-rule="evenodd" clip-rule="evenodd" d="M135.373 97.1192C133.031 97.1763 131.339 95.9623 131.289 92.9636C133.603 92.8705 136.201 93.21 135.373 97.1192Z" fill="#3F8CFF"/>
<path fill-rule="evenodd" clip-rule="evenodd" d="M135.451 92.7306C133.11 92.633 131.502 91.3099 131.65 88.3145C133.965 88.3744 136.535 88.8847 135.451 92.7306Z" fill="#3F8CFF"/>
<path fill-rule="evenodd" clip-rule="evenodd" d="M135.257 88.3814C132.925 88.1602 131.388 86.7539 131.695 83.7705C134.004 83.9528 136.543 84.5982 135.257 88.3814Z" fill="#3F8CFF"/>
<path fill-rule="evenodd" clip-rule="evenodd" d="M135.87 84.8234C137.959 83.7429 137.82 81.1071 135.686 79C133.662 80.6091 133.403 83.2239 135.87 84.8234Z" fill="#3F8CFF"/>
</svg>
