<svg width="238" height="226" viewBox="0 0 238 226" fill="none" xmlns="http://www.w3.org/2000/svg">
<path fill-rule="evenodd" clip-rule="evenodd" d="M142.203 12.1807C142.203 12.1807 157.389 5.50695 166.097 26.461C167.83 30.3703 175.82 54.7131 199.782 63.1086C203.34 63.7012 220.763 62.9422 213.806 83.6765C212.986 86.6994 206.769 103.68 213.806 121.752C215.376 124.542 219.708 135.42 215.588 153.25C214.637 157.278 211.323 165.693 211.323 176.127C210.867 180.558 209.559 198.646 188.635 198.646C179.506 198.93 147.667 196.746 147.667 196.746C147.667 196.746 132.947 196.597 127.095 200.207C123.499 202.047 106.158 208.823 91.7944 200.207C86.5573 196.715 85.3047 195.383 85.3047 195.383C85.3047 195.383 72.5692 183.595 60.3524 183.595C56.9062 183.001 33.1489 179.506 31.5721 166.114C30.8841 153.25 39.1229 141.402 26.5313 132.445C24.686 130.999 18.0272 123.211 28.0663 112.269C29.1327 111.319 47.3242 96.5379 45.081 83.6765C45.0897 81.9095 39.7503 61.7724 61.193 46.7502C62.5904 45.9376 76.5132 38.1079 82.0887 23.0942C83.0977 19.8666 83.9835 2.86417 103.929 10.7782C123.669 21.6886 142.203 12.1807 142.203 12.1807Z" fill="#242731" stroke="#FFA2C0" stroke-width="1.11874"/>
<path fill-rule="evenodd" clip-rule="evenodd" d="M107.386 10.3195C107.386 10.3195 121.156 -7.85821 140.735 8.91795C145.671 14.2034 157.403 29.5731 173.347 29.5731C176.401 29.807 197.468 30.7375 195.973 49.1528C196.174 51.7573 193.757 70.1074 212.732 74.7516C215.031 75.5579 226.011 80.6307 214.105 103.493C210.814 111.408 204.737 119.924 207.775 142.584C208.119 147.345 210.801 169.467 183.116 175.351C180.804 176.014 163.613 176.734 160.373 199.581C159.156 202.345 152.626 214.356 134.123 203.733C131.897 201.538 121.2 191.429 99.4707 206.219C96.9002 207.458 70.7473 224.464 52.2328 195.545C49.7998 192.361 38.2705 185.67 38.2705 152.01C38.2705 132.082 51.6768 120.174 29.4895 108.181C25.8935 106.249 9.67661 93.0185 23.9736 68.151C25.2193 65.3103 38.6687 43.1979 62.9004 43.1979C89.9171 43.1979 107.386 10.3195 107.386 10.3195Z" fill="#242731" stroke="#6C5DD3" stroke-width="1.11874"/>
<g opacity="0.5">
<circle opacity="0.408092" cx="228.508" cy="220.139" r="5.5937" fill="#FCFCFD"/>
<circle opacity="0.408092" cx="4.75621" cy="186.577" r="4.47496" fill="#FCFCFD"/>
<circle opacity="0.408092" cx="47.8297" cy="12.6148" r="3.91559" fill="#FCFCFD"/>
<path fill-rule="evenodd" clip-rule="evenodd" d="M222.912 11.4942C215.299 13.1446 213.957 14.4868 212.284 22.1223C210.634 14.5088 209.292 13.1666 201.656 11.4942C209.27 9.84393 210.612 8.50167 212.284 0.866211C213.935 8.50167 215.277 9.84393 222.912 11.4942Z" fill="#FCFCFD"/>
<path fill-rule="evenodd" clip-rule="evenodd" d="M32.7248 126.724C25.1114 128.374 23.7691 129.716 22.0968 137.352C20.4465 129.738 19.1042 128.396 11.4688 126.724C19.0822 125.073 20.4245 123.731 22.0968 116.096C23.7471 123.731 25.0894 125.073 32.7248 126.724Z" fill="#FCFCFD"/>
<path fill-rule="evenodd" clip-rule="evenodd" d="M202.772 184.578C197.157 185.815 196.152 186.757 194.911 192.409C193.67 186.816 192.724 185.815 187.109 184.578C192.724 183.342 193.729 182.4 194.911 176.747C196.152 182.4 197.098 183.401 202.772 184.578Z" fill="#FCFCFD"/>
<path opacity="0.44026" fill-rule="evenodd" clip-rule="evenodd" d="M237.35 107.147C231.735 108.383 230.73 109.325 229.489 114.978C228.248 109.384 227.302 108.383 221.688 107.147C227.302 105.91 228.307 104.968 229.489 99.3154C230.73 104.968 231.676 105.969 237.35 107.147Z" fill="#FCFCFD"/>
<path opacity="0.44026" fill-rule="evenodd" clip-rule="evenodd" d="M133.412 41.1408C127.798 42.3773 126.793 43.3194 125.552 48.9719C124.31 43.3782 123.365 42.3773 117.75 41.1408C123.365 39.9043 124.37 38.9622 125.552 33.3096C126.793 38.9622 127.738 39.9631 133.412 41.1408Z" fill="#FCFCFD"/>
<path opacity="0.408092" fill-rule="evenodd" clip-rule="evenodd" d="M66.2859 215.665C63.0774 216.372 62.5033 216.91 61.794 220.14C61.0848 216.944 60.5444 216.372 57.3359 215.665C60.5444 214.959 61.1185 214.42 61.794 211.19C62.5033 214.42 63.0436 214.992 66.2859 215.665Z" fill="#FCFCFD"/>
</g>
<path d="M105.524 81.7654C105.394 79.9773 106.739 78.4206 108.528 78.2904C110.319 78.161 111.875 79.5065 112.005 81.2968C112.135 83.0863 110.789 84.6416 108.999 84.7717C107.21 84.9004 105.654 83.5572 105.524 81.7654Z" fill="#3F8CFF"/>
<path d="M143.653 81.7654C143.783 79.9773 142.437 78.4206 140.648 78.2904C138.857 78.161 137.302 79.5065 137.173 81.2968C137.043 83.0863 138.389 84.6416 140.177 84.7717C141.966 84.9004 143.524 83.5572 143.653 81.7654Z" fill="#3F8CFF"/>
<path d="M154.36 86.8605C153.979 85.4509 152.034 85.2367 150.318 85.683C148.965 86.0363 144.254 87.3432 140.072 87.0397C137.067 86.8225 134.13 84.3226 132.302 82.6118C134.118 80.5187 136.46 78.2731 136.997 77.6438C137.774 76.7386 137.903 75.3164 137.256 74.6701C136.611 74.0244 135.446 74.4142 134.282 75.1892C133.121 75.9643 128.725 80.39 124.532 80.39C120.341 80.39 115.802 75.9643 114.637 75.1892C113.474 74.4142 111.792 74.5429 111.146 75.1892C110.5 75.8356 111.147 76.7386 111.924 77.6438C112.474 78.2865 114.904 80.6154 116.734 82.7457C114.898 84.4498 112.034 86.8285 109.107 87.0397C104.925 87.3432 100.214 86.0363 98.8611 85.683C97.1458 85.2367 95.2007 85.4509 94.8184 86.8605C94.5789 87.7411 95.3265 88.7111 96.3306 89.3664C97.3296 90.018 102.51 91.0251 103.967 93.2536C105.424 95.4806 105.646 112.714 107.004 113.291C107.993 113.714 109.719 113.714 110.656 113.237C111.971 112.57 114.189 93.7683 115.308 91.3531C115.928 90.0202 117.487 88.0268 118.878 86.3465C120.076 91.9623 121.387 112.881 122.65 113.318C123.605 113.648 125.506 113.648 126.27 113.318C127.516 112.779 128.879 91.3092 130.097 86.1003C131.536 87.8282 133.221 89.954 133.871 91.3531C134.99 93.7683 137.208 112.57 138.522 113.237C139.461 113.714 141.185 113.714 142.176 113.291C143.531 112.714 143.753 95.4806 145.211 93.2536C146.669 91.0251 151.849 90.018 152.848 89.3664C153.852 88.7111 154.599 87.7411 154.36 86.8605Z" fill="#3F8CFF"/>
<mask id="mask0_15134_15666" style="mask-type:luminance" maskUnits="userSpaceOnUse" x="82" y="55" width="75" height="62">
<path d="M82.9609 55.8662V116.597H156.956V55.8662" fill="white"/>
</mask>
<g mask="url(#mask0_15134_15666)">
<path d="M121.375 74.8713C121.375 73.0758 122.83 71.6232 124.625 71.6232C126.417 71.6232 127.873 73.0758 127.873 74.8713C127.873 76.6653 126.417 78.1201 124.625 78.1201C122.83 78.1201 121.375 76.6653 121.375 74.8713Z" fill="#3F8CFF"/>
<path d="M155.063 75.0997C156.642 77.6056 153.335 78.5458 150.81 77.9686C148.694 77.4866 127.949 66.3941 124.839 66.1084C121.738 65.8258 103.077 77.2984 101.021 78.3993C97.9994 80.0148 95.3306 79.8609 92.5406 78.4142C91.6197 77.9336 84.5114 74.1818 82.9609 73.1345C84.5114 71.6863 106.086 58.7328 108.598 57.4742C111.487 56.0245 113.209 55.2643 116.385 56.4507C118.588 57.2756 154.408 74.0636 155.063 75.0997Z" fill="#FCFCFD"/>
<path d="M91.1062 91.1897C91.914 91.3095 95.7283 92.9533 97.239 93.7314C100.87 95.6013 101.058 97.4609 101.473 100.487C101.915 103.712 102.296 109.72 102.359 111.996C100.84 111.345 94.89 106.365 93.4701 105.138C92.3692 104.183 91.1382 103.503 91.1404 102.025C91.1427 101.46 90.8831 92.5777 91.1062 91.1897Z" fill="#FCFCFD"/>
</g>
<path fill-rule="evenodd" clip-rule="evenodd" d="M125.968 134.771C125.968 131.253 125.968 128.775 126.035 127.083H120.397C120.687 129.168 120.687 131.382 120.687 133.729V136.856C120.687 139.203 120.687 141.42 120.397 143.504H126.265C125.968 141.42 125.968 139.203 125.968 134.771ZM126.265 122.943C126.265 121.314 124.956 120.01 123.327 120.01C121.698 120.01 120.397 121.314 120.397 122.943C120.397 124.572 121.698 125.875 123.327 125.875C124.956 125.875 126.265 124.572 126.265 122.943ZM109.514 138.943C109.514 139.888 109.871 140.636 110.913 140.636C112.252 140.636 113.196 139.268 113.196 135.391C113.196 132.621 112.475 130.242 110.846 130.242C109.968 130.242 109.514 130.796 109.514 131.578V138.943ZM109.514 120.239V127.602C110.325 127.114 111.5 126.691 112.675 126.691C115.77 126.691 118.671 128.971 118.671 134.901C118.671 139.497 116.164 143.894 111.537 143.894C110.295 143.894 108.86 143.472 107.327 142.266L105.505 143.829L103.943 142.884C104.233 140.8 104.233 138.584 104.233 136.237V126.886C104.233 125.68 104.233 124.344 103.906 120.239H109.514ZM75.5921 120.24C75.4582 121.836 75.4284 123.692 75.4284 125.68V129.427C76.1425 129.461 76.8566 129.493 77.9053 129.493C78.9467 129.493 79.6608 129.461 80.3748 129.427V125.68C80.3748 123.692 80.3451 121.836 80.2186 120.24H86.3774C86.0501 123.595 86.0501 126.333 86.0501 131.871C86.0501 137.41 86.0501 140.149 86.3774 143.504H80.2186C80.3451 141.909 80.3748 140.049 80.3748 138.063V133.306C79.6608 133.273 78.9467 133.241 77.9053 133.241C76.8566 133.241 76.1425 133.273 75.4284 133.306V138.063C75.4284 140.049 75.4582 141.909 75.5921 143.504H69.4333C69.7531 140.149 69.7531 137.41 69.7531 131.871C69.7531 126.333 69.7531 123.595 69.4333 120.24H75.5921ZM166.958 149.474H167.702C168.2 149.474 168.364 149.297 168.364 148.938C168.364 148.623 168.126 148.447 167.806 148.447H166.958V149.474ZM166.958 151.241H166.497V148.065H167.709C168.453 148.065 168.818 148.365 168.818 148.967C168.818 149.54 168.446 149.781 167.992 149.84L168.907 151.241H168.401L167.538 149.855H166.958V151.241ZM167.546 151.981C168.81 151.981 169.785 150.984 169.785 149.664C169.785 148.365 168.81 147.361 167.546 147.361C166.266 147.361 165.3 148.365 165.3 149.664C165.3 150.984 166.266 151.981 167.546 151.981ZM167.546 146.951C169.041 146.951 170.283 148.123 170.283 149.664C170.283 151.219 169.041 152.392 167.546 152.392C166.058 152.392 164.801 151.219 164.801 149.664C164.801 148.123 166.058 146.951 167.546 146.951ZM92.9347 138.454C92.9347 136.825 94.214 135.554 96.2594 135.033V139.757C96.066 140.049 95.3818 140.474 94.6975 140.474C93.6562 140.474 92.9347 139.595 92.9347 138.454ZM92.6149 126.693C91.41 126.693 89.6472 126.887 89.1935 126.952V131.513C90.8521 130.308 92.481 129.819 93.5223 129.819C95.0545 129.819 95.8057 130.797 95.8355 131.937L93.1355 132.818C90.034 133.827 87.6613 135.848 87.6613 138.845C87.6613 141.582 89.7142 143.765 92.8752 143.765C94.4372 143.765 95.6421 143.146 96.5197 142.495C96.5569 142.625 96.6834 142.983 97.0776 143.504H102.254C101.406 141.094 101.406 139.333 101.406 137.77V133.697C101.406 129.331 99.3535 126.693 92.6149 126.693ZM134.997 122.096C134.93 123.105 134.893 125.029 134.893 127.082H137.34V130.209H134.893V138.421C134.893 139.756 135.384 140.506 136.693 140.506C136.886 140.506 137.08 140.506 137.377 140.473V143.406C136.299 143.764 135.19 143.894 134.082 143.894C132.617 143.894 131.441 143.374 130.564 142.331C129.879 141.515 129.619 140.148 129.619 138.485V130.209H127.73V127.082H129.619C129.619 125.029 129.589 123.105 129.522 122.096H134.997ZM144.304 138.454C144.304 136.825 145.568 135.554 147.621 135.033V139.757C147.427 140.049 146.743 140.474 146.059 140.474C145.018 140.474 144.304 139.595 144.304 138.454ZM143.976 126.693C142.771 126.693 141.009 126.887 140.555 126.952V131.513C142.214 130.308 143.842 129.819 144.884 129.819C146.416 129.819 147.167 130.797 147.204 131.937L144.497 132.818C141.403 133.827 139.023 135.848 139.023 138.845C139.023 141.582 141.076 143.765 144.237 143.765C145.799 143.765 147.004 143.146 147.889 142.495C147.918 142.625 148.045 142.983 148.439 143.504H153.616C152.775 141.094 152.775 139.333 152.775 137.77V133.697C152.775 129.331 150.722 126.693 143.976 126.693ZM161.608 122.096C161.548 123.105 161.511 125.029 161.511 127.082H163.958V130.209H161.511V138.421C161.511 139.756 162.002 140.506 163.304 140.506C163.505 140.506 163.698 140.506 163.988 140.473V143.406C162.917 143.764 161.809 143.894 160.7 143.894C159.235 143.894 158.06 143.374 157.182 142.331C156.498 141.515 156.237 140.148 156.237 138.485V130.209H154.341V127.082H156.237C156.237 125.029 156.2 123.105 156.133 122.096H161.608ZM74.0489 148.988C74.4356 148.988 74.6662 149.111 74.7406 149.166V147.312C74.51 147.224 74.0489 147.153 73.6249 147.153C72.8514 147.153 71.9663 147.347 71.2597 147.912C70.4341 148.601 70.2556 149.305 70.2556 150.347V151.037H69.2812V152.73H70.2556V156.331C70.2556 157.602 70.2556 158.802 70.092 159.931H73.2753C73.1117 158.802 73.1117 157.602 73.1117 156.332V156.331V152.73H74.458V151.037H73.134C73.0597 150.86 72.9555 150.505 72.9555 150.154C72.9555 149.552 73.3125 148.988 74.0489 148.988ZM77.7407 155.485C77.7407 157.62 78.2019 158.38 78.73 158.38C79.2655 158.38 79.7192 157.62 79.7192 155.485C79.7192 153.349 79.2655 152.59 78.73 152.59C78.2019 152.59 77.7407 153.349 77.7407 155.485ZM82.858 155.485C82.858 158.485 80.8869 160.144 78.73 160.144C76.5804 160.144 74.602 158.485 74.602 155.485C74.602 152.485 76.5804 150.824 78.73 150.824C80.8869 150.824 82.858 152.485 82.858 155.485ZM86.8463 152.218C86.824 151.936 86.705 151.354 86.5934 151.037H83.7522C84.0572 152.166 84.0572 153.366 84.0572 154.637V154.637V156.331C84.0572 157.602 84.0572 158.802 83.8935 159.931H87.181C87.0174 158.802 87.0174 157.602 87.0174 156.331C87.0174 154.39 87.5976 153.154 88.9438 153.154C89.033 153.154 89.2785 153.171 89.4719 153.225V150.877C89.3826 150.843 89.2785 150.823 89.0851 150.823C88.2 150.823 87.4637 151.39 86.8463 152.218ZM98.8913 147.33C98.8169 148.195 98.8021 149.2 98.8021 150.277V152.307C99.1888 152.324 99.5756 152.341 100.141 152.341C100.706 152.341 101.1 152.324 101.487 152.307V150.277C101.487 149.2 101.472 148.195 101.398 147.33H104.73C104.559 149.148 104.559 150.629 104.559 153.63C104.559 156.63 104.559 158.115 104.73 159.931H101.398C101.472 159.066 101.487 158.061 101.487 156.984V154.408L101.47 154.407C101.088 154.389 100.698 154.371 100.141 154.371C99.591 154.371 99.2101 154.389 98.8338 154.406L98.8335 154.406L98.8021 154.408V156.984C98.8021 158.061 98.8169 159.066 98.8913 159.931H95.5592C95.7303 158.115 95.7303 156.63 95.7303 153.631V153.63V153.63C95.7303 150.628 95.7303 149.148 95.5592 147.33H98.8913ZM110.899 159.138C110.951 159.369 111.041 159.667 111.16 159.932H113.741C113.577 158.802 113.577 157.602 113.577 156.332V154.637C113.577 153.366 113.577 152.167 113.741 151.037H110.565C110.721 152.166 110.721 153.366 110.721 154.637V154.637V157.126C110.721 157.743 110.26 158.061 109.821 158.061C109.308 158.061 109.025 157.655 109.025 156.95V151.037H106.005C106.169 152.167 106.169 153.366 106.169 154.637V157.355C106.169 159.049 107.158 160.144 108.66 160.144C109.575 160.144 110.245 159.774 110.899 159.138ZM117.867 151.037C117.994 151.302 118.083 151.601 118.135 151.829C118.79 151.23 119.578 150.823 120.463 150.823C121.415 150.823 122.018 151.37 122.442 151.954C123.074 151.39 123.781 150.823 124.926 150.823C126.659 150.823 127.313 152.042 127.313 153.789V156.331C127.313 157.602 127.313 158.802 127.47 159.931H124.294C124.45 158.802 124.45 157.602 124.45 156.331V153.878C124.45 153.259 124.279 152.801 123.728 152.801C123.133 152.801 122.791 153.259 122.791 153.878V156.331C122.791 157.602 122.791 158.802 122.955 159.931H119.772C119.935 158.802 119.935 157.602 119.935 156.331V153.843C119.935 153.259 119.757 152.801 119.214 152.801C118.715 152.801 118.277 153.207 118.277 153.737V156.331V156.332C118.277 157.602 118.277 158.802 118.433 159.931H115.257C115.413 158.802 115.413 157.602 115.413 156.332V156.331V154.637V154.637C115.413 153.366 115.413 152.166 115.257 151.037H117.867ZM131.223 157.197C131.223 156.315 131.907 155.625 133.023 155.342V157.902C132.919 158.062 132.54 158.291 132.175 158.291C131.61 158.291 131.223 157.815 131.223 157.197ZM131.045 150.824C130.39 150.824 129.438 150.932 129.193 150.965V153.438C130.093 152.785 130.978 152.518 131.535 152.518C132.369 152.518 132.778 153.048 132.792 153.666L131.327 154.143C129.646 154.691 128.36 155.785 128.36 157.409C128.36 158.89 129.475 160.074 131.186 160.074C132.034 160.074 132.688 159.739 133.164 159.385C133.179 159.456 133.254 159.651 133.462 159.932H136.266C135.812 158.627 135.812 157.673 135.812 156.825V154.62C135.812 152.255 134.697 150.824 131.045 150.824ZM139.642 151.037C139.761 151.302 139.85 151.601 139.902 151.829C140.557 151.195 141.226 150.823 142.141 150.823C143.643 150.823 144.633 151.918 144.633 153.613V156.331C144.633 157.602 144.633 158.802 144.789 159.931H141.613C141.777 158.802 141.777 157.602 141.777 156.331V153.895C141.777 153.349 141.546 152.907 141.01 152.907C140.572 152.907 140.081 153.225 140.081 153.755V156.331V156.332C140.081 157.602 140.081 158.802 140.237 159.931H137.061C137.217 158.802 137.217 157.602 137.217 156.332V156.331V154.637V154.637C137.217 153.366 137.217 152.166 137.061 151.037H139.642ZM148.876 155.201C148.876 153.296 148.876 151.954 148.913 151.037H145.864C146.02 152.166 146.02 153.366 146.02 154.637V156.331C146.02 157.602 146.02 158.802 145.864 159.931H149.04C148.876 158.802 148.876 157.602 148.876 155.201ZM149.04 148.794C149.04 147.912 148.333 147.205 147.448 147.205C146.57 147.205 145.864 147.912 145.864 148.794C145.864 149.677 146.57 150.382 147.448 150.382C148.333 150.382 149.04 149.677 149.04 148.794ZM153.946 148.335C153.909 148.883 153.894 149.925 153.894 151.037H155.218V152.731H153.894V157.178C153.894 157.902 154.162 158.308 154.861 158.308C154.973 158.308 155.077 158.308 155.233 158.291V159.879C154.653 160.073 154.05 160.144 153.455 160.144C152.66 160.144 152.027 159.862 151.551 159.298C151.179 158.855 151.038 158.115 151.038 157.215V152.731H150.012V151.037H151.038C151.038 149.925 151.016 148.883 150.986 148.335H153.946ZM160.37 156.067C160.02 154.919 159.344 152.413 159.121 151.037H156.064C156.257 152.218 156.978 154.867 157.938 157.373C158.645 159.244 158.711 159.456 158.711 159.79C158.711 160.443 158.094 161.202 157.179 161.202C156.733 161.202 156.346 161.027 156.19 160.938V163.197C156.421 163.268 156.785 163.286 157.031 163.286C159.455 163.286 160.333 161.856 160.92 160.673C162.044 158.362 163.368 153.454 163.955 151.037H161.434C161.27 152.238 160.898 154.265 160.407 156.067H160.37Z" fill="#3F8CFF"/>
</svg>
