<svg width="238" height="226" viewBox="0 0 238 226" fill="none" xmlns="http://www.w3.org/2000/svg">
<path fill-rule="evenodd" clip-rule="evenodd" d="M141.922 12.1807C141.922 12.1807 157.108 5.50695 165.815 26.461C167.549 30.3703 175.538 54.7131 199.5 63.1086C203.058 63.7012 220.482 62.9422 213.525 83.6765C212.705 86.6994 206.487 103.68 213.525 121.752C215.095 124.542 219.426 135.42 215.307 153.25C214.356 157.278 211.042 165.693 211.042 176.127C210.586 180.558 209.278 198.646 188.354 198.646C179.225 198.93 147.386 196.746 147.386 196.746C147.386 196.746 132.666 196.597 126.814 200.207C123.218 202.047 105.877 208.823 91.5132 200.207C86.276 196.715 85.0235 195.383 85.0235 195.383C85.0235 195.383 72.288 183.595 60.0711 183.595C56.625 183.001 32.8676 179.506 31.2908 166.114C30.6028 153.25 38.8416 141.402 26.2501 132.445C24.4048 130.999 17.746 123.211 27.7851 112.269C28.8514 111.319 47.043 96.5379 44.7998 83.6765C44.8084 81.9095 39.469 61.7724 60.9118 46.7502C62.3091 45.9376 76.2319 38.1079 81.8075 23.0942C82.8164 19.8666 83.7023 2.86417 103.647 10.7782C123.388 21.6886 141.922 12.1807 141.922 12.1807Z" fill="#242731" stroke="#FFA2C0" stroke-width="1.11874"/>
<path fill-rule="evenodd" clip-rule="evenodd" d="M107.104 10.3195C107.104 10.3195 120.874 -7.85821 140.453 8.91795C145.39 14.2034 157.122 29.5731 173.066 29.5731C176.12 29.807 197.187 30.7375 195.692 49.1528C195.893 51.7573 193.475 70.1074 212.451 74.7516C214.75 75.5579 225.73 80.6307 213.824 103.493C210.533 111.408 204.456 119.924 207.494 142.584C207.838 147.345 210.52 169.467 182.835 175.351C180.523 176.014 163.332 176.734 160.091 199.581C158.875 202.345 152.345 214.356 133.842 203.733C131.616 201.538 120.918 191.429 99.1894 206.219C96.6189 207.458 70.466 224.464 51.9516 195.545C49.5185 192.361 37.9893 185.67 37.9893 152.01C37.9893 132.082 51.3956 120.174 29.2083 108.181C25.6122 106.249 9.39536 93.0185 23.6923 68.151C24.938 65.3103 38.3875 43.1979 62.6191 43.1979C89.6359 43.1979 107.104 10.3195 107.104 10.3195Z" fill="#242731" stroke="#6C5DD3" stroke-width="1.11874"/>
<g opacity="0.5">
<circle opacity="0.408092" cx="228.227" cy="220.139" r="5.5937" fill="#FCFCFD"/>
<circle opacity="0.408092" cx="4.47496" cy="186.577" r="4.47496" fill="#FCFCFD"/>
<circle opacity="0.408092" cx="47.5484" cy="12.6148" r="3.91559" fill="#FCFCFD"/>
<path fill-rule="evenodd" clip-rule="evenodd" d="M222.631 11.4942C215.018 13.1446 213.675 14.4868 212.003 22.1223C210.353 14.5088 209.01 13.1666 201.375 11.4942C208.988 9.84393 210.331 8.50167 212.003 0.866211C213.653 8.50167 214.996 9.84393 222.631 11.4942Z" fill="#FCFCFD"/>
<path fill-rule="evenodd" clip-rule="evenodd" d="M32.4436 126.724C24.8301 128.374 23.4879 129.716 21.8155 137.352C20.1652 129.738 18.823 128.396 11.1875 126.724C18.801 125.073 20.1432 123.731 21.8155 116.096C23.4659 123.731 24.8081 125.073 32.4436 126.724Z" fill="#FCFCFD"/>
<path fill-rule="evenodd" clip-rule="evenodd" d="M202.49 184.578C196.876 185.815 195.871 186.757 194.63 192.409C193.389 186.816 192.443 185.815 186.828 184.578C192.443 183.342 193.448 182.4 194.63 176.747C195.871 182.4 196.817 183.401 202.49 184.578Z" fill="#FCFCFD"/>
<path opacity="0.44026" fill-rule="evenodd" clip-rule="evenodd" d="M237.069 107.147C231.454 108.383 230.449 109.325 229.208 114.978C227.967 109.384 227.021 108.383 221.406 107.147C227.021 105.91 228.026 104.968 229.208 99.3154C230.449 104.968 231.395 105.969 237.069 107.147Z" fill="#FCFCFD"/>
<path opacity="0.44026" fill-rule="evenodd" clip-rule="evenodd" d="M133.131 41.1408C127.516 42.3773 126.512 43.3194 125.27 48.9719C124.029 43.3782 123.084 42.3773 117.469 41.1408C123.084 39.9043 124.088 38.9622 125.27 33.3096C126.512 38.9622 127.457 39.9631 133.131 41.1408Z" fill="#FCFCFD"/>
<path opacity="0.408092" fill-rule="evenodd" clip-rule="evenodd" d="M66.0046 215.665C62.7961 216.372 62.222 216.91 61.5128 220.14C60.8035 216.944 60.2632 216.372 57.0547 215.665C60.2632 214.959 60.8373 214.42 61.5128 211.19C62.222 214.42 62.7624 214.992 66.0046 215.665Z" fill="#FCFCFD"/>
</g>
<path d="M145.961 84.3906C148.454 84.3906 150.809 84.3906 153.163 84.3906C153.163 84.6703 153.302 85.0898 153.302 85.3695C153.44 86.2086 153.579 87.1874 153.717 88.0265C153.856 88.8655 153.994 89.7046 154.133 90.6834C154.271 91.5225 154.41 92.2217 154.548 93.0607C154.687 93.6201 154.687 94.0396 154.825 94.599C154.825 95.0185 154.964 95.438 154.964 95.8575C155.103 96.5568 155.241 97.1161 155.241 97.8153C155.38 98.6544 155.518 99.4934 155.657 100.472C155.795 101.171 155.795 101.731 155.934 102.43C156.072 103.269 156.211 104.108 156.349 104.947C156.488 105.367 156.488 105.926 156.488 106.346C156.626 107.045 156.765 107.604 156.765 108.303C156.903 109.003 156.903 109.702 157.042 110.401C157.042 110.82 157.18 111.24 157.18 111.66C157.319 112.079 157.319 112.638 157.457 113.058C157.596 113.757 157.596 114.316 157.734 115.016C157.873 115.435 157.873 115.995 158.011 116.414C158.15 116.973 158.15 117.533 158.288 117.952C158.427 118.791 158.565 119.491 158.704 120.33C158.704 120.469 158.842 120.609 158.842 120.749C160.781 108.723 162.72 96.5568 164.66 84.5305C167.153 84.5305 169.507 84.5305 172.001 84.5305C171.862 85.6492 171.585 86.6281 171.447 87.607C171.308 88.446 171.17 89.1452 171.031 89.9842C170.892 90.5436 170.754 91.2428 170.615 91.8022C170.477 92.5014 170.338 93.0607 170.2 93.7599C170.061 94.4591 169.923 95.1583 169.784 95.9974C169.646 96.5568 169.646 97.256 169.507 97.8153C169.369 98.6544 169.23 99.4934 169.092 100.472C168.953 101.171 168.815 102.011 168.676 102.71C168.538 103.828 168.261 104.947 168.122 105.926C167.984 106.625 167.845 107.464 167.707 108.164C167.568 108.863 167.43 109.562 167.291 110.261C167.153 110.82 167.153 111.52 167.014 112.079C166.876 112.778 166.737 113.477 166.599 114.316C166.46 115.016 166.322 115.855 166.183 116.554C166.045 117.253 165.906 118.092 165.768 118.791C165.629 119.491 165.491 120.19 165.352 120.889C165.214 122.008 164.937 123.126 164.798 124.385C164.521 125.644 164.383 126.902 164.106 128.161C163.967 129 163.829 129.839 163.552 130.678C163.552 130.818 163.552 130.958 163.552 131.237C163.136 131.377 155.241 131.377 153.994 131.237C153.994 130.958 153.856 130.678 153.856 130.398C153.717 129.559 153.579 128.72 153.44 127.881C153.302 127.322 153.302 126.762 153.163 126.063C153.025 125.084 152.886 124.245 152.609 123.406C152.471 122.567 152.332 121.868 152.194 121.029C152.055 120.33 151.917 119.63 151.778 119.071C151.64 118.372 151.501 117.813 151.501 117.113C151.363 116.414 151.224 115.715 151.086 114.876C150.947 114.177 150.809 113.617 150.809 112.918C150.947 112.359 150.947 111.799 150.809 111.24C150.67 110.541 150.532 109.842 150.393 109.003C150.255 107.884 149.978 106.765 149.839 105.507C149.701 104.528 149.562 103.689 149.424 102.71C149.147 101.451 149.008 100.332 148.731 99.0739C148.593 98.3747 148.593 97.8153 148.454 97.1161C148.316 96.4169 148.177 95.7177 148.039 95.0185C147.9 94.4591 147.762 93.7599 147.762 93.2006C147.623 92.6412 147.623 92.0819 147.485 91.3827C147.346 90.6834 147.208 89.8444 147.069 89.1452C146.93 88.3062 146.792 87.4671 146.653 86.6281C146.238 85.9289 146.099 85.2297 145.961 84.3906Z" fill="#3F8CFF"/>
<path d="M144.296 100.332C141.942 100.332 139.587 100.332 137.094 100.332C137.094 100.193 137.094 100.053 137.094 99.9129C137.094 98.2348 137.094 96.6966 137.094 95.0185C137.094 94.1794 136.817 93.3404 136.401 92.6412C135.847 91.8022 135.016 91.103 133.908 90.9631C132.246 90.6834 130.861 91.103 129.891 92.5014C129.337 93.2006 129.06 93.8998 129.06 94.8786C129.06 95.0185 129.06 95.1583 129.06 95.2982C129.06 103.689 129.06 111.939 129.06 120.33C129.06 120.889 129.06 121.448 129.199 121.868C129.753 123.266 130.722 124.245 132.246 124.525C133.077 124.665 133.908 124.665 134.601 124.245C135.293 123.965 135.847 123.406 136.263 122.847C136.817 122.148 136.955 121.309 136.955 120.469C136.955 118.512 136.955 116.554 136.955 114.596C136.955 114.456 136.955 114.316 136.955 114.177C139.31 114.177 141.803 114.177 144.158 114.177C144.158 114.316 144.158 114.456 144.158 114.456C144.158 116.694 144.158 118.791 144.158 121.029C144.158 122.148 143.881 123.406 143.604 124.385C143.188 125.644 142.496 126.622 141.803 127.601C140.972 128.58 140.141 129.419 139.033 129.979C138.063 130.678 136.817 131.097 135.709 131.377C134.601 131.657 133.354 131.657 132.246 131.657C130.307 131.517 128.506 130.958 126.983 129.839C125.875 129 124.905 128.021 124.074 126.902C123.382 126.063 122.966 125.084 122.689 123.965C122.55 123.266 122.273 122.567 122.273 121.868C122.273 121.448 122.273 120.889 122.273 120.469C122.273 111.939 122.273 103.409 122.273 94.8786C122.273 94.0396 122.412 93.2006 122.55 92.3615C122.689 91.5225 122.966 90.8233 123.382 89.9842C123.797 89.1452 124.351 88.446 124.905 87.7468C125.598 86.9077 126.429 86.2085 127.26 85.6492C128.368 84.95 129.614 84.3906 130.861 84.1109C131.276 83.9711 131.692 83.9711 132.108 83.9711C132.662 83.8313 133.077 83.8313 133.631 83.9711C135.432 83.9711 137.232 84.5305 138.756 85.5093C139.587 86.0687 140.418 86.6281 141.111 87.4671C142.496 88.8655 143.465 90.6834 143.881 92.6412C144.019 93.2006 144.019 93.7599 144.158 94.3193C144.435 96.1372 144.296 98.095 144.296 100.332Z" fill="#3F8CFF"/>
<path d="M100.805 84.3906C103.159 84.3906 105.375 84.3906 107.73 84.3906C107.73 97.6755 107.73 110.82 107.73 124.105C107.73 124.105 107.73 124.105 107.869 124.105C111.885 124.105 115.764 124.105 119.78 124.105C119.919 124.385 119.919 129.979 119.78 130.958C119.503 131.097 101.636 131.097 100.805 130.958C100.805 115.575 100.805 99.9129 100.805 84.3906Z" fill="#3F8CFF"/>
<path d="M82.5226 117.533C80.5835 122.008 78.7829 126.483 76.8438 131.098L82.5226 117.533Z" fill="#3F8CFF"/>
<path d="M109.539 142.424C109.262 141.585 108.985 140.886 108.708 140.047C108.985 140.047 109.124 140.047 109.401 140.047C109.539 140.606 109.816 141.165 110.093 141.725C110.37 141.165 110.509 140.606 110.786 140.047C111.063 140.047 111.201 140.047 111.478 140.047C111.478 140.326 111.34 140.606 111.201 140.886C111.063 141.305 110.924 141.725 110.786 142.144C110.786 142.284 110.786 142.424 110.786 142.424C110.924 142.983 111.201 143.543 111.478 144.102C111.478 144.102 111.478 144.102 111.617 144.242C112.171 142.844 112.725 141.305 113.279 139.907C113.556 139.907 113.833 139.907 114.11 139.907C113.418 141.725 112.725 143.403 111.894 145.221C111.617 145.221 111.478 145.221 111.201 145.221C110.786 144.522 110.647 143.683 110.232 142.983C109.955 143.403 109.816 143.822 109.678 144.102C109.539 144.522 109.401 144.801 109.262 145.221C108.985 145.221 108.847 145.221 108.57 145.221C107.877 143.543 107.185 141.725 106.492 139.907C106.769 139.767 107.046 139.907 107.323 139.907C107.462 140.326 107.739 140.886 107.877 141.305C108.154 142.144 108.57 143.123 108.847 143.962C108.847 144.102 108.985 144.102 108.985 144.242C108.985 143.683 109.262 143.123 109.539 142.424Z" fill="#3F8CFF"/>
<path d="M154.281 146.201C154.42 146.061 154.558 145.921 154.697 145.781C154.974 145.921 155.112 146.061 155.389 146.201C155.666 146.341 156.082 146.341 156.497 146.341C157.051 146.201 157.328 145.921 157.328 145.362C157.328 145.082 157.328 144.942 157.328 144.662C157.19 144.802 157.051 144.802 157.051 144.942C156.497 145.501 155.528 145.501 154.974 144.942C154.281 144.383 154.143 143.684 154.42 142.844C154.558 142.285 154.835 141.866 155.389 141.586C155.943 141.306 156.774 141.446 157.19 141.866C157.328 142.005 157.328 142.005 157.467 142.145C157.467 142.145 157.467 142.145 157.605 142.145C157.744 142.005 157.605 141.726 157.744 141.586C157.882 141.446 158.159 141.586 158.437 141.586C158.437 141.726 158.437 141.866 158.437 142.005C158.437 142.984 158.437 143.963 158.437 144.942C158.437 145.222 158.437 145.501 158.298 145.781C158.159 146.48 157.744 146.9 157.051 147.04C156.359 147.319 155.666 147.18 155.112 146.9C154.697 146.62 154.42 146.48 154.281 146.201ZM157.328 143.404C157.467 143.124 157.328 142.705 157.051 142.425C156.636 142.005 156.082 141.866 155.666 142.145C154.974 142.565 154.835 143.684 155.389 144.243C155.943 144.802 156.359 144.802 156.913 144.383C157.328 144.243 157.328 143.823 157.328 143.404Z" fill="#3F8CFF"/>
<path d="M136.131 146.201C136.269 146.061 136.408 145.921 136.546 145.781C136.823 146.061 136.962 146.201 137.377 146.341C137.793 146.481 138.208 146.481 138.485 146.201C138.762 146.061 138.901 145.921 139.039 145.642C139.178 145.362 139.178 145.082 139.039 144.802C138.901 144.942 138.901 144.942 138.762 144.942C138.624 145.082 138.347 145.222 138.208 145.222C136.962 145.642 135.992 144.523 135.992 143.544C135.992 143.124 135.992 142.565 136.269 142.145C136.408 141.866 136.685 141.586 136.962 141.446C137.516 141.167 138.347 141.306 138.901 141.726C139.039 141.866 139.039 141.866 139.178 142.006C139.178 141.726 139.178 141.586 139.178 141.306C139.316 141.306 139.593 141.306 139.732 141.306C139.732 141.446 139.732 141.586 139.732 141.586C139.732 142.705 139.732 143.824 139.732 145.082C139.732 145.921 139.316 146.481 138.624 146.76C137.931 147.04 137.1 147.04 136.546 146.62C136.546 146.62 136.408 146.481 136.131 146.201ZM137.654 142.145L137.516 142.285C136.962 142.565 136.685 143.684 137.1 144.243C137.654 145.082 138.624 145.082 139.178 144.243C139.316 143.963 139.316 143.684 139.316 143.404C139.316 143.124 139.178 142.845 139.039 142.565C138.624 142.145 138.208 142.006 137.654 142.145Z" fill="#3F8CFF"/>
<path d="M66.7332 140.047C67.5643 140.047 68.2568 140.466 68.6724 141.305C68.9494 141.725 69.0879 142.144 69.0879 142.704C69.0879 143.263 68.9494 143.823 68.6724 144.242C68.3953 144.662 67.9798 145.081 67.5643 145.221C66.7332 145.64 65.7637 145.501 65.0711 144.941C64.3786 144.382 64.1016 143.543 64.1016 142.704C64.1016 141.445 64.9326 140.327 66.3177 140.047C66.3177 140.047 66.4562 140.047 66.7332 140.047ZM68.2568 142.704C68.2568 142.005 68.1183 141.585 67.5643 141.166C67.1488 140.746 66.5947 140.606 66.0407 140.886C65.6252 141.026 65.3481 141.305 65.2096 141.585C64.9326 142.005 64.7941 142.424 64.9326 142.844C64.9326 143.263 65.0711 143.683 65.3481 144.102C65.7637 144.662 66.7332 145.081 67.5643 144.522C67.9798 143.962 68.2568 143.403 68.2568 142.704Z" fill="#3F8CFF"/>
<path d="M79.0625 145.221C79.0625 143.543 79.0625 141.725 79.0625 140.047C79.3395 139.907 82.1097 139.907 82.5252 140.047C82.5252 140.187 82.5252 140.187 82.5252 140.327C82.5252 140.467 82.5252 140.467 82.5252 140.607C82.3867 140.607 82.2482 140.607 82.1097 140.607C81.4171 140.607 80.8631 140.607 80.1706 140.607C80.0321 140.607 79.8936 140.607 79.755 140.607C79.755 141.166 79.755 141.586 79.755 142.145C80.1706 142.285 80.4476 142.145 80.8631 142.145C81.2786 142.145 81.6942 142.145 81.9712 142.145C81.9712 142.285 81.9712 142.564 81.9712 142.844C81.1401 142.844 80.4476 142.844 79.6165 142.844C79.6165 143.403 79.6165 143.963 79.6165 144.522C80.0321 144.522 80.5861 144.522 81.0016 144.522C81.4171 144.522 81.8327 144.522 82.3867 144.522C82.3867 144.802 82.3867 144.942 82.3867 145.221C82.2482 145.361 79.6165 145.361 79.0625 145.221Z" fill="#3F8CFF"/>
<path d="M93.8857 145.36C93.6087 145.36 93.3317 145.36 93.0547 145.36C93.0547 143.543 93.0547 141.864 93.0547 140.047C93.3317 139.907 93.4702 140.047 93.8857 140.047C93.8857 140.466 93.8857 140.746 93.8857 141.165C93.8857 141.585 93.8857 141.864 93.8857 142.284C94.1628 142.004 94.3013 141.725 94.7168 141.725C95.1323 141.585 95.4093 141.585 95.8249 141.725C96.2404 141.864 96.3789 142.144 96.5174 142.424C96.5174 142.703 96.6559 142.983 96.6559 143.263C96.6559 143.822 96.6559 144.521 96.6559 145.081C96.6559 145.221 96.6559 145.36 96.6559 145.5C96.3789 145.5 96.1019 145.5 95.9634 145.5C95.9634 145.36 95.9634 145.221 95.9634 145.221C95.9634 144.661 95.9634 144.102 95.9634 143.403C95.9634 143.263 95.9634 142.983 95.8249 142.843C95.6864 142.284 95.1323 142.004 94.5783 142.424C94.1628 142.703 93.8857 142.983 93.8857 143.543C93.8857 143.962 93.8857 144.661 93.8857 145.36Z" fill="#3F8CFF"/>
<path d="M161.896 142.285C162.588 142.285 163.281 142.285 163.973 142.285C163.973 142.564 163.973 142.704 164.112 142.984C163.835 143.124 163.696 142.984 163.419 143.124C163.142 143.124 162.865 143.124 162.727 143.124C162.45 143.124 162.311 143.124 162.034 143.124C162.034 143.963 162.034 144.662 162.034 145.361C161.757 145.361 161.48 145.361 161.203 145.361C161.203 143.683 161.203 141.865 161.203 140.187C161.48 140.047 164.25 140.047 164.666 140.187C164.666 140.327 164.666 140.606 164.666 140.886C163.835 140.886 163.004 140.886 162.034 140.886C161.896 141.166 162.034 141.445 162.034 141.725C161.896 141.725 161.896 142.005 161.896 142.285Z" fill="#3F8CFF"/>
<path d="M127.392 145.36C127.115 145.36 126.838 145.36 126.7 145.36C126.7 145.221 126.7 145.081 126.7 144.941C126.7 144.242 126.7 143.682 126.7 142.983C126.7 142.843 126.7 142.704 126.7 142.564C126.561 142.004 126.146 141.864 125.73 142.004C125.038 142.284 124.622 142.843 124.622 143.403C124.622 143.962 124.622 144.382 124.622 144.941C124.622 145.081 124.622 145.221 124.622 145.36C124.484 145.36 124.345 145.36 124.345 145.36C124.207 145.36 124.068 145.36 123.93 145.36C123.93 143.543 123.93 141.725 123.93 140.047C124.207 139.907 124.345 140.047 124.622 140.047C124.622 140.466 124.622 140.746 124.622 141.165C124.622 141.445 124.622 141.864 124.622 142.284C124.761 142.144 124.899 142.144 124.899 142.004C125.315 141.445 126.007 141.445 126.561 141.585C126.977 141.585 127.254 142.144 127.254 142.703C127.254 143.403 127.254 143.962 127.254 144.661C127.392 144.801 127.392 145.081 127.392 145.36Z" fill="#3F8CFF"/>
<path d="M141.804 145.361C141.527 145.361 141.389 145.361 141.112 145.361C140.973 145.081 140.973 140.886 141.112 140.047C141.25 140.047 141.389 140.047 141.389 140.047C141.527 140.047 141.527 140.047 141.804 140.047C141.804 140.466 141.804 140.746 141.804 141.166C141.804 141.585 141.804 141.865 141.804 142.284C141.943 142.144 142.081 142.144 142.081 142.005C142.358 141.725 142.774 141.445 143.189 141.585H143.328C144.159 141.445 144.436 142.144 144.436 142.704C144.436 142.844 144.436 142.984 144.436 143.263C144.436 143.962 144.436 144.801 144.436 145.501C144.159 145.64 144.02 145.501 143.743 145.501C143.743 145.361 143.743 145.221 143.743 145.081C143.743 144.522 143.743 143.962 143.743 143.403C143.743 143.123 143.743 142.984 143.605 142.704C143.466 142.144 143.051 142.005 142.497 142.284C141.943 142.564 141.666 142.984 141.666 143.543C141.804 144.102 141.804 144.662 141.804 145.361Z" fill="#3F8CFF"/>
<path d="M133.36 142.424C133.36 142.704 133.36 142.844 133.36 143.123C132.667 143.123 131.975 143.123 131.144 143.123C131.144 143.543 131.144 143.962 131.144 144.242C131.144 144.662 131.144 144.941 131.144 145.361C130.867 145.361 130.59 145.361 130.312 145.361C130.312 143.683 130.312 141.865 130.312 140.187L130.451 140.047C131.559 140.047 132.667 140.047 133.775 140.047C133.775 140.327 133.775 140.466 133.775 140.746C132.944 140.746 132.113 140.746 131.282 140.746C131.282 140.746 131.282 140.746 131.144 140.886C131.144 141.305 131.144 141.865 131.144 142.424C131.559 142.564 131.836 142.424 132.252 142.424C132.667 142.424 132.944 142.424 133.36 142.424Z" fill="#3F8CFF"/>
<path d="M115.627 141.445C116.735 141.305 117.566 142.284 117.566 143.403C117.566 144.521 116.596 145.361 115.627 145.361C114.38 145.361 113.688 144.382 113.688 143.403C113.688 142.284 114.519 141.305 115.627 141.445ZM114.519 143.403C114.519 143.822 114.657 144.242 114.934 144.521C115.211 144.801 115.488 144.941 115.904 144.801C116.319 144.661 116.735 144.382 116.873 143.822C117.012 143.263 117.012 142.843 116.596 142.424C116.181 142.004 115.627 142.004 115.211 142.284C114.657 142.564 114.38 142.843 114.519 143.403Z" fill="#3F8CFF"/>
<path d="M168.683 143.403C168.821 144.522 167.713 145.501 166.744 145.501C165.497 145.501 164.805 144.522 164.805 143.403C164.805 142.284 165.636 141.445 166.744 141.445C167.852 141.445 168.821 142.284 168.683 143.403ZM167.852 143.403C167.852 143.123 167.852 142.844 167.713 142.564C167.436 142.145 166.744 141.865 166.328 142.145C165.359 142.704 165.359 143.962 166.051 144.522C166.467 144.801 166.882 144.801 167.298 144.522C167.713 144.242 167.99 143.962 167.852 143.403Z" fill="#3F8CFF"/>
<path d="M72.5478 141.446C72.8249 141.446 73.1019 141.446 73.3789 141.446C73.3789 142.425 73.3789 143.404 73.3789 144.383C73.5174 144.522 73.5174 144.662 73.6559 144.662C73.6559 144.802 73.6559 145.082 73.6559 145.222C73.3789 145.361 73.1019 145.361 72.8249 145.082C72.8249 144.942 72.8249 144.802 72.8249 144.522C72.6864 144.662 72.6864 144.662 72.5478 144.802C72.1323 145.222 71.5783 145.361 71.0242 145.361C70.6087 145.361 70.1932 144.942 70.1932 144.522C70.1932 144.243 70.0547 143.963 70.0547 143.544C70.0547 142.844 70.0547 142.145 70.0547 141.446C70.3317 141.306 70.6087 141.446 70.8857 141.446C70.8857 141.586 70.8857 141.726 70.8857 141.865C70.8857 142.425 70.8857 143.124 70.8857 143.683C70.8857 143.823 70.8857 143.963 70.8857 144.103C71.0242 144.802 71.4398 145.082 72.1323 144.802C72.5478 144.522 72.8249 144.243 72.8249 143.683C72.5478 142.844 72.5478 142.145 72.5478 141.446Z" fill="#3F8CFF"/>
<path d="M86.5487 144.522C86.5487 144.662 86.6872 144.662 86.6872 144.801C86.6872 144.941 86.6872 145.221 86.6872 145.361C86.4101 145.501 86.2716 145.361 85.9946 145.361C85.9946 145.221 85.8561 145.081 85.8561 144.941C84.8866 145.92 83.7785 145.641 83.2244 144.801C83.2244 144.662 83.0859 144.382 83.0859 144.102C83.0859 143.683 83.363 143.403 83.7785 143.123C84.3325 142.844 84.8865 142.984 85.5791 143.123H85.7176C85.8561 142.564 85.7176 142.284 85.3021 142.005C84.6095 141.725 84.0555 142.005 83.64 142.284H83.5015C83.5015 142.145 83.363 142.005 83.363 141.865C83.7785 141.585 84.0555 141.445 84.6095 141.445C84.8865 141.445 85.1636 141.445 85.3021 141.445C85.8561 141.445 86.4101 142.005 86.4101 142.564C86.5487 142.984 86.4101 143.403 86.4101 143.823C86.5487 143.962 86.5487 144.242 86.5487 144.522ZM83.7785 144.242C84.194 145.221 85.0251 145.221 85.7176 144.242C85.7176 143.962 85.7176 143.823 85.7176 143.683C85.3021 143.403 85.1636 143.403 84.748 143.403C84.194 143.403 83.917 143.683 83.7785 144.242Z" fill="#3F8CFF"/>
<path d="M150.671 142.145C150.81 142.145 150.81 142.145 150.948 142.005C151.364 141.446 152.057 141.446 152.749 141.446C153.026 141.446 153.303 141.726 153.303 142.005C153.303 142.145 153.442 142.425 153.442 142.565C153.442 143.404 153.442 144.383 153.442 145.222C153.165 145.361 153.026 145.222 152.749 145.222C152.749 145.082 152.749 144.942 152.749 144.802C152.749 144.243 152.749 143.543 152.749 142.984C152.749 142.704 152.749 142.565 152.611 142.285C152.472 141.865 152.057 141.726 151.641 141.865C151.225 142.005 150.671 142.565 150.671 143.124C150.671 143.683 150.671 144.383 150.671 144.942C150.394 145.082 150.256 144.942 149.979 144.942C149.84 144.662 149.84 142.005 149.979 141.026C150.117 141.026 150.394 141.026 150.533 141.026C150.671 141.726 150.671 141.865 150.671 142.145Z" fill="#3F8CFF"/>
<path d="M101.927 142.565C102.065 142.845 102.342 142.845 102.619 142.984C102.896 143.124 103.173 143.124 103.451 143.264C103.728 143.404 104.005 143.544 104.282 143.823C104.282 143.963 104.282 144.103 104.42 144.243C104.42 144.243 104.42 144.243 104.42 144.383C104.282 145.222 103.728 145.362 103.173 145.501C102.619 145.501 102.065 145.501 101.511 145.082C101.373 145.082 101.373 144.942 101.234 144.942C101.373 144.802 101.373 144.662 101.511 144.523C101.927 144.662 102.204 144.802 102.619 144.942C103.035 145.082 103.451 144.942 103.728 144.523C103.728 144.243 103.589 144.103 103.451 143.963C103.035 143.823 102.758 143.684 102.342 143.544C102.204 143.544 102.065 143.404 101.927 143.404C101.65 143.264 101.511 143.124 101.511 142.844C101.511 142.145 101.927 141.586 102.619 141.586C103.173 141.586 103.728 141.586 104.143 141.866C104.282 141.866 104.282 142.005 104.42 142.005C104.005 142.005 103.866 142.145 103.866 142.285C103.035 141.866 102.758 141.726 102.204 142.005C102.065 142.145 102.065 142.145 101.927 142.285C101.927 142.425 101.927 142.565 101.927 142.565Z" fill="#3F8CFF"/>
<path d="M145.695 142.145C145.556 142.145 145.418 142.145 145.141 142.145C145.141 142.005 145.141 141.726 145.141 141.586C145.141 141.586 145.279 141.586 145.418 141.586C145.556 141.586 145.556 141.586 145.695 141.586C145.695 141.166 145.695 140.747 145.695 140.327C145.972 140.327 146.11 140.327 146.387 140.327C146.387 140.747 146.387 141.166 146.387 141.586C146.664 141.586 146.941 141.586 147.218 141.586C147.218 141.865 147.218 142.005 147.218 142.145C146.941 142.145 146.664 142.145 146.387 142.145C146.387 142.984 146.387 143.683 146.387 144.522C146.664 144.942 146.941 144.802 147.357 144.662C147.357 144.802 147.495 144.942 147.495 145.222C147.08 145.501 146.664 145.641 146.11 145.501C145.695 145.361 145.556 145.082 145.418 144.662C145.418 143.963 145.418 143.404 145.418 142.704C145.695 142.425 145.695 142.285 145.695 142.145Z" fill="#3F8CFF"/>
<path d="M122.555 144.662C122.832 144.662 122.97 144.522 123.247 144.522C123.247 144.662 123.386 144.941 123.386 145.081C122.832 145.361 122.278 145.501 121.724 145.081C121.585 144.801 121.447 144.522 121.447 144.242C121.447 143.543 121.447 142.704 121.447 142.005C121.308 142.005 121.17 142.005 121.031 141.865C121.031 141.725 121.031 141.445 121.031 141.305C121.17 141.305 121.308 141.305 121.447 141.305C121.447 140.886 121.447 140.466 121.447 140.047C121.724 140.047 121.862 140.047 122.139 140.047C122.139 140.466 122.139 140.886 122.139 141.305C122.416 141.305 122.693 141.305 122.97 141.305C122.97 141.585 122.97 141.725 122.97 141.865C122.693 141.865 122.416 141.865 122.139 141.865C122.139 142.284 122.139 142.564 122.139 142.984C122.139 143.403 122.139 143.683 122.139 144.102C122.278 144.522 122.416 144.522 122.555 144.662Z" fill="#3F8CFF"/>
<path d="M90.0078 141.445C90.1463 141.445 90.2848 141.445 90.4233 141.445C90.5618 141.026 90.4233 140.606 90.5618 140.187C90.8389 140.187 90.9774 140.187 91.2544 140.187C91.2544 140.606 91.1159 141.026 91.2544 141.445C91.5314 141.445 91.8084 141.445 92.0854 141.445C92.224 141.725 92.0854 141.865 92.2239 142.144C91.9469 142.144 91.6699 142.144 91.3929 142.144C91.3929 142.284 91.3929 142.424 91.3929 142.564C91.3929 143.123 91.3929 143.683 91.3929 144.242C91.3929 144.522 91.3929 144.661 91.6699 144.801C91.9469 144.941 92.0854 144.801 92.3625 144.661C92.3625 144.941 92.501 145.081 92.501 145.221C91.9469 145.5 91.5314 145.64 90.9774 145.361C90.8389 145.221 90.8389 145.221 90.7004 145.081C90.7004 144.102 90.7004 143.263 90.7004 142.284C90.5618 142.284 90.4233 142.284 90.1463 142.284C90.0078 141.865 90.0078 141.725 90.0078 141.445Z" fill="#3F8CFF"/>
<path d="M99.4297 140.047C99.7067 140.047 99.8452 140.047 100.122 140.047C100.122 141.865 100.122 143.543 100.122 145.361C99.9837 145.361 99.9837 145.361 99.9837 145.361C99.8452 145.361 99.5682 145.361 99.4297 145.361C99.4297 144.941 99.4297 140.466 99.4297 140.047Z" fill="#3F8CFF"/>
<path d="M75.187 145.362C74.91 145.362 74.633 145.362 74.4945 145.362C74.356 145.082 74.356 142.705 74.4945 141.586C74.633 141.586 74.91 141.586 75.187 141.586C75.187 141.866 75.187 142.005 75.187 142.425C75.6026 142.005 75.8796 141.586 76.5721 141.586C76.5721 141.866 76.5721 142.005 76.5721 142.285C76.2951 142.285 76.1566 142.425 75.8796 142.425C75.4641 142.565 75.187 142.984 75.187 143.404C75.187 143.963 75.187 144.662 75.187 145.362Z" fill="#3F8CFF"/>
<path d="M87.5105 141.445C87.7875 141.445 87.926 141.445 88.203 141.445C88.3415 141.725 88.0645 142.005 88.3415 142.284C88.6186 141.725 89.0341 141.445 89.5881 141.445C89.5881 141.725 89.5881 141.865 89.5881 142.145C89.3111 142.145 88.8956 142.284 88.7571 142.424C88.4801 142.704 88.3415 142.844 88.3415 143.263C88.3415 143.823 88.3415 144.382 88.3415 144.941C88.3415 145.081 88.3415 145.221 88.3415 145.361C88.0645 145.361 87.7875 145.361 87.649 145.361C87.5105 144.941 87.372 142.564 87.5105 141.445Z" fill="#3F8CFF"/>
<path d="M119.226 142.844C119.226 143.683 119.226 144.382 119.226 145.221C118.949 145.221 118.672 145.221 118.534 145.221C118.395 144.941 118.395 142.424 118.534 141.445C118.811 141.445 118.949 141.445 119.226 141.445C119.365 141.725 119.226 141.865 119.365 142.145C120.057 141.445 120.196 141.445 120.75 141.445C120.75 141.725 120.75 141.865 120.75 142.145C120.057 142.145 119.503 142.424 119.226 142.844Z" fill="#3F8CFF"/>
<path d="M171.593 142.145C171.039 142.145 170.762 142.285 170.347 142.704C170.208 142.844 170.07 143.124 170.07 143.264C170.07 143.823 170.07 144.242 170.07 144.802C170.07 144.942 170.07 145.081 170.07 145.221C169.793 145.361 169.654 145.221 169.377 145.221C169.239 144.942 169.239 142.145 169.377 141.306C169.654 141.306 169.793 141.306 170.07 141.306C170.208 141.585 170.07 141.725 170.208 142.005C170.624 141.585 170.901 141.166 171.593 141.306C171.593 141.446 171.593 141.585 171.593 141.585C171.593 141.865 171.593 142.005 171.593 142.145Z" fill="#3F8CFF"/>
<path d="M134.62 141.445C134.897 141.445 135.174 141.445 135.312 141.445C135.312 142.704 135.312 143.962 135.312 145.221C135.035 145.221 134.897 145.221 134.62 145.221C134.481 144.941 134.481 142.284 134.62 141.445Z" fill="#3F8CFF"/>
<path d="M148.18 141.445C148.457 141.445 148.595 141.445 148.872 141.445C149.011 141.725 149.011 144.522 148.872 145.221C148.734 145.221 148.595 145.221 148.595 145.221C148.457 145.221 148.457 145.221 148.318 145.221C148.18 144.941 148.18 142.284 148.18 141.445Z" fill="#3F8CFF"/>
<path d="M135.302 140.746C135.025 140.746 134.748 140.746 134.609 140.746C134.609 140.467 134.609 140.187 134.609 139.907C134.748 139.907 134.886 139.907 135.025 139.907C135.163 139.907 135.302 139.907 135.44 139.907C135.302 140.187 135.302 140.467 135.302 140.746Z" fill="#3F8CFF"/>
<path d="M148.872 140.746C148.595 140.746 148.457 140.746 148.18 140.746C148.18 140.467 148.18 140.187 148.18 139.907C148.457 139.907 148.595 139.907 148.872 139.907C148.872 140.187 148.872 140.467 148.872 140.746Z" fill="#3F8CFF"/>
<path d="M81.4243 103.969C81.4243 104.248 81.2845 104.248 81.2845 104.388C81.1446 104.248 81.2845 104.109 81.4243 103.969Z" fill="#3F8CFF"/>
<path d="M74.5 112.918L82.8105 117.113L96.2459 84.3906L74.5 112.918Z" fill="#3F8CFF"/>
<path d="M74.0807 113.338C73.9422 113.338 73.8037 113.198 73.6652 113.198C70.895 111.799 68.1248 110.401 65.3546 109.003C65.0776 108.863 64.9391 108.723 64.6621 108.583C64.2466 108.303 63.8311 108.163 63.277 107.884C63.277 107.884 63.1385 107.884 63 107.884C67.7093 115.575 72.2801 123.266 76.9894 131.097L82.5297 117.673L74.0807 113.338Z" fill="#3F8CFF"/>
</svg>
