<svg width="238" height="226" viewBox="0 0 238 226" fill="none" xmlns="http://www.w3.org/2000/svg">
<path fill-rule="evenodd" clip-rule="evenodd" d="M141.992 12.1807C141.992 12.1807 157.178 5.50695 165.886 26.461C167.619 30.3703 175.609 54.7131 199.571 63.1086C203.129 63.7012 220.552 62.9422 213.595 83.6765C212.775 86.6994 206.558 103.68 213.595 121.752C215.165 124.542 219.497 135.42 215.377 153.25C214.426 157.278 211.112 165.693 211.112 176.127C210.656 180.558 209.348 198.646 188.424 198.646C179.295 198.93 147.456 196.746 147.456 196.746C147.456 196.746 132.736 196.597 126.884 200.207C123.288 202.047 105.947 208.823 91.5835 200.207C86.3464 196.715 85.0938 195.383 85.0938 195.383C85.0938 195.383 72.3583 183.595 60.1414 183.595C56.6953 183.001 32.9379 179.506 31.3611 166.114C30.6731 153.25 38.912 141.402 26.3204 132.445C24.4751 130.999 17.8163 123.211 27.8554 112.269C28.9218 111.319 47.1133 96.5379 44.8701 83.6765C44.8787 81.9095 39.5393 61.7724 60.9821 46.7502C62.3794 45.9376 76.3022 38.1079 81.8778 23.0942C82.8867 19.8666 83.7726 2.86417 103.718 10.7782C123.458 21.6886 141.992 12.1807 141.992 12.1807Z" fill="#242731" stroke="#FFA2C0" stroke-width="1.11874"/>
<path fill-rule="evenodd" clip-rule="evenodd" d="M107.175 10.3195C107.175 10.3195 120.945 -7.85821 140.524 8.91795C145.46 14.2034 157.193 29.5731 173.136 29.5731C176.19 29.807 197.257 30.7375 195.762 49.1528C195.963 51.7573 193.546 70.1074 212.521 74.7516C214.82 75.5579 225.8 80.6307 213.895 103.493C210.603 111.408 204.526 119.924 207.564 142.584C207.908 147.345 210.59 169.467 182.905 175.351C180.593 176.014 163.402 176.734 160.162 199.581C158.945 202.345 152.415 214.356 133.912 203.733C131.686 201.538 120.989 191.429 99.2597 206.219C96.6892 207.458 70.5363 224.464 52.0219 195.545C49.5888 192.361 38.0596 185.67 38.0596 152.01C38.0596 132.082 51.4659 120.174 29.2786 108.181C25.6825 106.249 9.46567 93.0185 23.7626 68.151C25.0083 65.3103 38.4578 43.1979 62.6895 43.1979C89.7062 43.1979 107.175 10.3195 107.175 10.3195Z" fill="#242731" stroke="#6C5DD3" stroke-width="1.11874"/>
<g opacity="0.5">
<circle opacity="0.408092" cx="228.297" cy="220.139" r="5.5937" fill="#FCFCFD"/>
<circle opacity="0.408092" cx="4.54527" cy="186.577" r="4.47496" fill="#FCFCFD"/>
<circle opacity="0.408092" cx="47.6187" cy="12.6148" r="3.91559" fill="#FCFCFD"/>
<path fill-rule="evenodd" clip-rule="evenodd" d="M222.701 11.4942C215.088 13.1446 213.746 14.4868 212.073 22.1223C210.423 14.5088 209.081 13.1666 201.445 11.4942C209.059 9.84393 210.401 8.50167 212.073 0.866211C213.724 8.50167 215.066 9.84393 222.701 11.4942Z" fill="#FCFCFD"/>
<path fill-rule="evenodd" clip-rule="evenodd" d="M32.5139 126.724C24.9004 128.374 23.5582 129.716 21.8858 137.352C20.2355 129.738 18.8933 128.396 11.2578 126.724C18.8713 125.073 20.2135 123.731 21.8858 116.096C23.5362 123.731 24.8784 125.073 32.5139 126.724Z" fill="#FCFCFD"/>
<path fill-rule="evenodd" clip-rule="evenodd" d="M202.561 184.578C196.946 185.815 195.941 186.757 194.7 192.409C193.459 186.816 192.513 185.815 186.898 184.578C192.513 183.342 193.518 182.4 194.7 176.747C195.941 182.4 196.887 183.401 202.561 184.578Z" fill="#FCFCFD"/>
<path opacity="0.44026" fill-rule="evenodd" clip-rule="evenodd" d="M237.147 107.147C231.532 108.383 230.527 109.325 229.286 114.978C228.045 109.384 227.099 108.383 221.484 107.147C227.099 105.91 228.104 104.968 229.286 99.3154C230.527 104.968 231.473 105.969 237.147 107.147Z" fill="#FCFCFD"/>
<path opacity="0.44026" fill-rule="evenodd" clip-rule="evenodd" d="M133.201 41.1408C127.587 42.3773 126.582 43.3194 125.341 48.9719C124.1 43.3782 123.154 42.3773 117.539 41.1408C123.154 39.9043 124.159 38.9622 125.341 33.3096C126.582 38.9622 127.528 39.9631 133.201 41.1408Z" fill="#FCFCFD"/>
<path opacity="0.408092" fill-rule="evenodd" clip-rule="evenodd" d="M66.0749 215.665C62.8665 216.372 62.2923 216.91 61.5831 220.14C60.8738 216.944 60.3335 216.372 57.125 215.665C60.3335 214.959 60.9076 214.42 61.5831 211.19C62.2923 214.42 62.8327 214.992 66.0749 215.665Z" fill="#FCFCFD"/>
</g>
<path fill-rule="evenodd" clip-rule="evenodd" d="M82.6921 142.543C81.3281 142.543 80.8734 142.39 80.7219 142.084L80.5703 144.838H89.9668C91.7855 144.838 93.6042 143.92 94.362 141.625C94.5733 140.665 94.711 139.928 94.8263 139.31C94.8764 139.042 94.9223 138.796 94.9682 138.565C94.9682 137.8 94.9682 135.658 91.7855 135.658H88.1482C87.3904 135.658 87.0873 135.351 87.0873 134.892C87.0873 134.766 87.1133 134.665 87.1437 134.547C87.1868 134.381 87.2388 134.18 87.2388 133.821C87.3904 133.362 87.845 133.056 88.6028 133.056H94.0589C94.9682 133.056 95.4229 133.362 95.726 133.668L95.8775 130.914H86.6326C84.2077 130.914 82.8437 131.985 82.0859 134.28C81.9701 134.806 81.8764 135.243 81.7964 135.616C81.667 136.22 81.5733 136.656 81.4797 137.035C81.1765 139.177 82.2374 140.095 84.8139 140.095H88.2997C89.0575 140.095 89.3606 140.554 89.209 141.013C89.209 141.319 89.209 141.472 89.0575 141.778C88.9059 142.237 88.4513 142.39 87.3904 142.543C86.481 142.696 84.0561 142.696 82.6921 142.543ZM145.576 131.067L144.97 133.668H140.12L140.726 131.067H145.576ZM139.211 137.035C139.514 135.657 139.362 135.198 139.211 134.739H144.818L142.848 142.39C142.545 143.767 142.697 144.226 142.848 144.685H136.786C137.241 144.226 137.544 143.767 137.847 142.39L139.211 137.035ZM102.701 142.849C103.459 142.849 103.762 142.543 104.065 141.778C104.52 140.86 104.974 138.871 105.126 137.8C105.126 137.188 104.974 136.729 104.217 136.729H103.459H103.156H102.701C102.246 136.729 101.943 136.882 101.792 137.494L100.731 142.084C100.579 142.543 100.731 142.849 101.186 142.849H102.701ZM101.943 134.74V135.811C102.55 135.046 102.853 134.74 103.459 134.74H107.702C109.976 134.74 110.582 135.964 110.127 137.8L109.218 141.625C108.763 143.462 107.551 144.686 105.278 144.686H101.337C100.428 144.686 100.276 144.074 100.276 143.768L99.5184 146.675C99.2153 147.746 99.3669 148.205 99.5184 148.511H94.0624L96.942 136.576C97.2451 135.505 97.0935 135.046 96.942 134.74H101.943ZM129.979 141.778C129.979 142.39 130.13 142.849 130.888 142.849H133.313C134.98 142.849 135.435 142.696 136.041 142.39L135.132 144.838H127.402C125.129 144.838 124.674 143.614 124.977 141.778C125.28 140.248 125.432 139.636 125.887 137.952C126.493 135.963 127.554 134.892 129.827 134.892H137.556L137.405 137.34C137.102 137.034 136.344 136.881 135.132 136.881H132.252C131.494 136.881 131.191 137.187 130.888 137.952C130.585 138.718 130.13 140.707 129.979 141.778ZM119.667 138.871L119.97 137.494C120.122 136.882 119.97 136.729 119.516 136.576H117.849C117.091 136.576 116.788 136.882 116.485 137.647C116.333 137.953 116.182 138.412 116.03 138.871H119.667ZM115.272 134.74H122.698C124.972 134.74 125.275 135.658 124.669 137.8L123.911 140.86H115.424C115.424 141.013 115.386 141.166 115.348 141.319C115.31 141.472 115.272 141.625 115.272 141.778C115.121 142.237 115.272 142.543 115.727 142.696H116.182H118.606H121.031C122.092 142.696 122.547 142.543 123.456 142.237L122.547 144.686H120.577H112.847H112.696C110.574 144.686 110.119 143.462 110.422 141.625C110.725 140.095 110.877 139.483 111.332 137.8C111.938 135.964 112.999 134.74 115.121 134.74H115.272ZM151.361 139.942H153.483L153.18 141.319C152.877 142.543 152.573 142.696 151.816 142.696H150.603C149.845 142.696 149.694 142.39 149.694 141.778C149.845 141.166 149.997 140.707 149.997 140.707C150.3 139.942 150.603 139.942 151.361 139.942ZM158.939 138.565C159.545 135.658 158.636 134.74 156.514 134.74H147.42L146.511 137.188C147.269 136.882 147.724 136.729 148.633 136.729H153.634C154.089 136.729 154.544 136.882 154.392 137.341C154.241 137.8 154.089 137.953 153.331 137.953H148.784C146.663 137.953 145.753 139.024 145.147 141.166L144.996 141.778C144.541 143.921 144.844 144.839 147.117 144.839H150.603C151.967 144.839 152.422 144.686 152.877 143.768V144.839H157.878C157.726 144.533 157.575 144.074 157.878 143.002L158.939 138.565ZM162.402 133.362C162.705 131.985 162.553 131.526 162.402 131.067H168.009L165.13 142.543C164.827 143.92 164.978 144.379 165.13 144.838H159.067C159.522 144.379 159.825 143.92 160.128 142.543L162.402 133.362Z" fill="#3F8CFF"/>
<path fill-rule="evenodd" clip-rule="evenodd" d="M80.8637 155.09C81.4699 155.09 81.773 155.702 81.6214 156.161C81.6214 156.773 80.2574 162.129 79.8028 163.353C79.6512 163.812 79.045 164.271 78.5903 164.271H76.317C75.7107 164.271 75.4076 163.659 75.5592 163.2C75.8623 161.67 77.0747 156.926 77.3779 156.008C77.681 155.243 78.1356 155.09 78.5903 155.09H80.8637ZM76.0138 152.948C73.4374 152.948 72.6796 153.713 71.6187 156.926C71.0125 158.915 70.8609 159.527 70.2547 162.588C69.6485 165.342 70.5578 166.566 72.6796 166.566H81.3183C83.8948 166.566 84.8041 165.648 85.7135 162.588C86.3398 160.311 86.4484 159.812 86.8095 158.152C86.8853 157.804 86.9723 157.404 87.0775 156.926C87.6837 154.172 86.7744 153.101 84.6526 152.948C82.3792 152.795 78.5903 152.795 76.0138 152.948ZM89.3683 152.948V152.948V152.948H94.9759L92.2479 164.271C91.9448 165.648 92.0963 166.107 92.2479 166.566H86.1856C86.6403 166.107 86.9434 165.648 87.2465 164.271L89.3683 155.243C89.6714 153.866 89.5199 153.407 89.3683 152.948ZM144.35 162.878C144.673 161.673 144.826 161.04 145.052 159.923L145.11 159.681C145.284 158.98 145.303 158.369 145.134 157.881C144.91 156.996 144.202 156.467 142.707 156.467L142.669 156.62H138.442C137.835 156.62 137.532 156.926 136.926 157.691V156.62H131.925C132.076 156.926 132.228 157.385 131.925 158.456L129.045 170.392H134.501C134.35 170.085 134.198 169.626 134.501 168.555L135.259 165.648C135.259 165.954 135.41 166.566 136.32 166.566H140.26C142.534 166.566 143.746 165.342 144.201 163.506L144.35 162.878ZM157.707 163.658C157.707 164.27 157.859 164.729 158.617 164.729H161.042C162.709 164.729 163.164 164.576 163.77 164.27L162.86 166.719H155.131C152.858 166.719 152.403 165.495 152.706 163.658C153.009 162.128 153.161 161.516 153.615 159.833C154.222 157.844 155.283 156.773 157.556 156.773H165.437L165.285 159.221C164.982 158.915 164.224 158.762 163.012 158.762H160.132C159.375 158.762 159.071 159.068 158.768 159.833C158.314 160.445 157.859 162.434 157.707 163.658ZM137.684 164.577H136.168C135.562 164.577 135.411 164.424 135.714 163.812L136.775 159.221C136.926 158.609 137.229 158.456 137.684 158.456H138.139H138.442H139.199C139.957 158.456 140.109 158.915 140.109 159.528C139.957 160.599 139.503 162.588 139.048 163.506C138.745 164.271 138.442 164.577 137.684 164.577ZM94.6516 162.894C94.1969 165.189 94.6516 166.566 97.0765 166.566V166.719H100.259C101.168 166.719 101.623 166.413 102.078 165.801L101.623 167.637C101.472 168.096 101.168 168.555 100.259 168.555H95.4093C94.3484 168.555 93.8938 168.402 93.4391 168.096L93.2875 170.545H103.139C104.957 170.545 106.17 169.473 106.625 167.637L109.353 156.62H103.897C104.2 157.079 104.2 157.232 103.897 158.456L102.533 163.812C102.381 164.424 102.229 164.73 101.775 164.73H100.108C99.5014 164.73 99.3498 164.271 99.5014 163.812L101.32 156.62H95.7125C95.864 157.079 96.0156 157.538 95.7125 158.915L94.6516 162.894ZM115.566 156.62L115.415 157.691L115.46 157.622C115.763 157.159 116.217 156.467 117.082 156.467H121.477C122.689 156.467 122.841 156.926 122.993 157.538C123.144 157.079 123.599 156.467 124.357 156.467H127.842C129.51 156.467 130.722 156.926 129.964 160.445L129.055 164.271C128.752 165.648 128.903 166.107 129.055 166.566H123.447C123.902 166.107 124.205 165.648 124.508 164.271L125.721 159.221C125.872 158.609 125.569 158.456 125.266 158.456H123.599C123.144 158.456 122.993 158.609 122.841 159.221L121.477 164.271C121.174 165.648 121.325 166.107 121.477 166.566H115.869C116.324 166.107 116.627 165.648 116.93 164.271L118.143 159.221C118.294 158.915 117.991 158.456 117.688 158.456H116.021C115.566 158.456 115.415 158.609 115.263 159.221L114.051 164.271C113.748 165.648 113.899 166.107 114.051 166.566H108.443C108.898 166.107 109.201 165.648 109.504 164.271L110.868 158.915C111.171 157.538 111.02 157.079 110.868 156.62H115.566ZM153.009 155.549L153.615 152.948H148.765L148.159 155.549H153.009ZM147.249 156.62C147.401 157.079 147.553 157.538 147.249 158.915L145.885 164.271C145.582 165.648 145.279 166.107 144.825 166.566H150.887C150.735 166.107 150.584 165.648 150.887 164.271L152.857 156.62H147.249ZM175.739 159.681C178.012 159.681 178.618 161.058 178.315 162.282L177.861 163.812C177.557 165.036 176.497 166.413 174.223 166.413H164.827L164.978 163.965C165.736 164.424 166.191 164.577 168.009 164.577H172.253C172.708 164.577 173.011 164.424 173.011 163.965V163.812C173.162 163.353 173.011 163.047 172.405 163.047H168.464C166.191 163.047 165.584 161.67 165.888 160.446L166.342 158.763C166.797 157.232 168.312 156.161 170.131 156.161H178.77L179.073 159.069C178.77 158.61 177.406 158.457 176.193 158.457H172.253C171.798 158.457 171.495 158.61 171.495 158.763L171.344 159.222C171.344 159.528 171.344 159.834 171.798 159.834H175.739V159.681Z" fill="#3F8CFF"/>
<path fill-rule="evenodd" clip-rule="evenodd" d="M109.306 59.4566C110.519 59.4566 111.58 58.3855 111.58 57.1614C111.58 55.9373 110.519 54.8662 109.306 54.8662C108.094 54.8662 107.033 55.9373 107.033 57.1614C107.033 58.3855 108.094 59.4566 109.306 59.4566ZM94.6015 79.8078C95.814 80.4199 97.4811 79.1958 98.3905 77.3596C99.1482 75.5234 98.8451 73.5343 97.6327 72.9222C96.4202 72.3102 94.7531 73.5343 93.8438 75.3704C93.2375 76.7476 93.2375 78.1247 93.8438 79.0428C93.8438 79.3488 94.1469 79.6548 94.6015 79.8078ZM109.622 78.2776C109.016 74.1463 109.319 68.0257 109.622 64.9654C109.686 64.3275 109.729 63.8027 109.765 63.3673C109.902 61.7138 109.932 61.3504 110.532 60.987C110.532 60.987 114.472 57.6207 119.777 55.4785C119.777 55.4785 120.686 56.0906 120.838 56.2436C120.638 56.3387 120.436 56.4338 120.235 56.5293L120.232 56.5306L120.231 56.5308C117.834 57.6645 115.308 58.8591 112.654 60.834C113.26 60.681 119.019 59.3039 123.263 59.4569V60.987C118.867 60.987 114.321 61.9051 112.957 62.2112C113.006 62.261 113.65 62.5379 114.564 62.9311L114.564 62.9311L114.564 62.9311C116.457 63.7454 119.509 65.058 120.838 65.8835C120.535 66.3425 120.08 66.9546 119.625 67.4136L119.625 67.4136L119.625 67.4136C117.806 66.4955 115.382 65.2714 111.744 64.0473C111.29 68.0257 111.29 72.9221 111.593 77.6656L109.622 78.2776ZM97.0348 70.3209C101.127 66.4956 105.37 64.8124 105.37 64.8124C102.036 67.8727 100.066 70.4739 98.8535 72.4631C99.0851 72.6969 99.2282 73.02 99.3504 73.2959C99.3882 73.3812 99.424 73.462 99.4597 73.5342C99.8076 73.0846 100.125 72.6737 100.416 72.2963C103.298 68.5635 103.651 68.1069 106.128 65.8835C106.128 65.8835 105.219 71.239 105.977 79.5018C105.977 79.5018 107.644 78.8897 107.795 78.8897C107.768 78.076 107.724 77.2367 107.68 76.3725V76.3725C107.483 72.5238 107.26 68.1836 108.25 63.4353C108.553 61.7521 107.947 61.5991 102.339 60.681C102.125 61.0056 101.911 61.1772 101.482 61.5203L101.482 61.5204C101.304 61.6625 101.09 61.8341 100.824 62.0581L105.674 62.9762C100.066 65.2714 96.5802 69.2498 96.5802 69.2498L97.0348 70.3209ZM141.881 57.1614C141.881 58.3855 140.821 59.4566 139.608 59.4566C138.244 59.4566 137.183 58.3855 137.335 57.1614C137.335 55.9373 138.396 54.8662 139.608 54.8662C140.821 54.8662 141.881 55.9373 141.881 57.1614ZM125.515 60.9868C130.062 61.1399 134.609 61.9049 135.821 62.211C135.821 62.211 130.062 64.5062 127.94 65.8833C128.168 66.1128 128.357 66.3806 128.546 66.6484C128.736 66.9161 128.925 67.1839 129.153 67.4134C131.123 66.4954 133.548 65.4243 137.034 64.0471C137.488 68.0255 137.488 72.922 137.185 77.6654L139.155 78.2774C139.61 73.9931 139.459 67.8725 139.155 64.9652L139.118 64.5909C138.851 61.8782 138.82 61.5665 138.095 60.8338C138.095 60.8338 134.154 57.4675 128.85 55.3253C128.85 55.3253 128.092 56.0904 127.789 56.0904C128.26 56.3283 128.748 56.5661 129.25 56.8107L129.251 56.8108L129.251 56.8108C131.333 57.825 133.653 58.9549 135.973 60.6808C135.367 60.5278 129.607 59.1507 125.364 59.3037C125.667 59.4567 125.515 60.9868 125.515 60.9868ZM141.251 76.2499V76.2498C141.448 72.3364 141.664 68.0375 140.678 63.4352C140.375 61.7521 140.982 61.599 146.589 60.834L146.589 60.834C147.044 61.293 147.195 61.4461 148.105 62.2111L143.255 63.1292C148.863 65.5774 152.348 69.4028 152.348 69.4028L151.894 70.3208C147.802 66.4955 143.558 64.8123 143.558 64.8123C146.741 68.0256 148.711 70.4739 150.075 72.463C149.923 72.9221 149.772 73.2281 149.469 73.5341C145.68 68.6377 145.528 68.4847 142.8 65.8834C142.8 65.8834 143.71 71.2389 142.952 79.5017L141.133 78.8896C141.161 78.0309 141.206 77.1507 141.251 76.25L141.251 76.2499ZM92.6378 81.0318C92.1066 78.9939 92.5435 76.5049 92.8523 75.2512L92.9813 74.8218L93.0924 74.4522C93.0924 74.4064 92.984 74.7164 92.8523 75.2512C91.4262 80.0065 90.1656 84.6914 92.0315 95.4151C91.5769 92.8139 91.88 86.9994 92.1831 85.0102C92.2348 84.5398 92.3397 84.0873 92.4432 83.6404C92.6427 82.779 92.8373 81.9386 92.6378 81.0318ZM94.3096 83.3268C96.8861 83.1737 100.22 82.4087 102.797 81.7966C102.797 81.7966 102.948 83.6328 103.403 84.3979C101.736 85.0099 95.0674 85.928 95.0674 85.928C97.3221 89.9452 101.666 92.5562 102.817 93.2482C102.982 93.3469 103.081 93.4066 103.1 93.4257L102.797 96.486C100.84 95.5744 95.7464 91.7966 94.9326 89.1967C95.9958 92.7055 97.8073 96.9643 100.069 100.617C99.9172 100.77 99.1594 102.301 99.1594 102.301C95.522 97.098 94.0065 91.1305 94.0065 91.1305C94.6127 100.005 95.8252 104.749 100.22 110.716L100.069 110.869C93.5518 103.984 90.9753 92.8136 93.2487 84.5509C93.2775 84.4927 93.3063 84.4124 93.3393 84.3205C93.4798 83.929 93.6959 83.3268 94.3096 83.3268ZM155.235 83.3268C152.659 83.1737 149.021 82.4087 146.445 81.7966C146.445 81.7966 146.293 83.6328 146.142 84.3979C147.657 85.0099 154.326 85.928 154.477 85.928C152.223 89.9452 147.878 92.5562 146.727 93.2482C146.563 93.3469 146.464 93.4066 146.445 93.4257L146.748 96.486C148.704 95.5744 153.798 91.7969 154.612 89.1971C153.549 92.7043 151.737 96.8122 149.476 100.617C149.628 100.77 150.385 102.147 150.385 102.301C153.349 98.0611 154.804 93.4152 155.323 91.7577L155.323 91.7576L155.323 91.7568L155.323 91.7565L155.323 91.7556L155.323 91.7551L155.324 91.7543C155.441 91.3798 155.51 91.1587 155.538 91.1305C154.932 100.005 153.568 104.749 149.324 110.716L149.476 110.869C155.841 103.984 158.418 92.8136 156.296 84.5509C156.095 84.4157 155.954 84.1613 155.819 83.9192C155.648 83.613 155.489 83.3268 155.235 83.3268ZM154.168 79.6544C152.804 80.1134 151.288 78.8893 150.682 76.9001C150.076 74.911 150.682 72.6157 151.895 72.3097C153.259 71.8507 154.774 72.9218 155.381 75.37C155.835 76.9001 155.684 78.2773 155.077 79.0423C154.774 79.3484 154.471 79.5014 154.168 79.6544ZM155.995 74.299C155.995 74.299 157.056 78.1244 156.45 80.8787C156.245 81.809 156.455 82.6695 156.66 83.5073C156.758 83.9097 156.855 84.3069 156.904 84.704C157.51 88.8354 157.359 92.5077 157.056 95.109C158.977 84.2142 157.583 79.5788 156.107 74.6716L155.995 74.299ZM124.455 81.9496C127.183 81.9496 129.456 84.2448 129.456 86.999C129.456 89.7533 127.183 92.0485 124.455 92.0485C121.727 92.0485 119.453 89.7533 119.453 86.999C119.453 84.2448 121.727 81.9496 124.455 81.9496ZM131.157 98.2951L131.157 98.2951L130.972 98.3218C136.428 94.0374 138.853 90.9771 140.975 87.9168C140.52 87.6108 140.368 87.4578 139.004 85.9277C138.895 86.0654 138.771 86.2254 138.631 86.4061L138.631 86.4064C137.217 88.2342 134.16 92.183 128.092 96.6386L127.91 96.7761C126.833 97.5899 126.409 97.9101 126.122 98.7808C125.97 99.0869 125.97 99.8519 125.97 100.464C125.97 102.422 125.68 115.142 125.563 120.239L125.563 120.243L125.563 120.246L125.563 120.256L125.563 120.266C125.534 121.527 125.516 122.315 125.516 122.345C126.122 122.345 128.244 122.192 128.244 122.192C129.002 113.623 129.153 110.257 129.153 106.432V103.83C133.548 106.126 136.579 107.35 140.217 108.574C140.368 108.268 141.884 106.126 141.884 106.126C140.44 105.428 138.971 104.81 137.507 104.194L137.507 104.194C135.437 103.323 133.38 102.458 131.426 101.382L131.656 101.334C136.692 100.288 140.438 99.5094 145.067 97.0977C145.37 97.2507 144.915 94.1904 144.915 94.1904C138.821 97.1917 134.33 97.8383 131.157 98.2951ZM123.106 100.618V100.618C123.106 101.558 123.165 104.679 123.234 108.287L123.234 108.288L123.234 108.288L123.234 108.289C123.355 114.661 123.506 122.554 123.409 122.652C122.651 122.652 120.681 122.499 120.681 122.499C119.923 113.93 119.771 110.564 119.771 106.738V104.137C115.81 106.206 112.957 107.28 109.769 108.48L109.769 108.48L109.769 108.48C109.42 108.612 109.067 108.745 108.708 108.88C108.556 108.574 107.041 106.432 107.041 106.432C108.784 105.591 110.527 104.826 112.269 104.061C114.012 103.295 115.755 102.53 117.498 101.689C112.345 100.771 108.405 99.8526 103.858 97.4044C103.858 97.4044 104.293 94.4743 104.17 94.3483C109.685 96.9273 113.886 97.6983 116.986 98.2671C117.376 98.3387 117.749 98.4071 118.104 98.4755C112.8 94.1911 110.375 91.1308 108.102 88.0705C108.556 87.7645 108.708 87.6115 110.072 86.0814C110.181 86.2191 110.305 86.3792 110.445 86.5601C111.86 88.3879 114.916 92.3367 120.984 96.7924L121.166 96.9297C122.243 97.7436 122.667 98.0638 122.954 98.9346C123.106 99.2406 123.106 100.006 123.106 100.618ZM104.161 94.3441L104.17 94.3483C104.167 94.3455 104.164 94.3441 104.161 94.3441ZM115.972 119.897H115.518V118.979H116.275C116.578 118.979 116.881 118.979 116.881 119.438C116.881 119.945 116.569 119.927 116.204 119.906C116.128 119.901 116.05 119.897 115.972 119.897ZM117.335 119.438C117.335 118.979 117.032 118.673 116.426 118.673H115.215V121.273H115.518V120.05H116.124L116.881 121.273H117.335L116.578 120.05C116.881 120.203 117.335 120.05 117.335 119.438ZM114.166 120.203C114.166 121.274 114.924 122.193 116.136 122.193C117.197 122.193 118.106 121.274 118.106 120.203C118.106 119.132 117.349 118.214 116.136 118.214C115.075 118.214 114.166 118.979 114.166 120.203ZM113.711 120.05C113.711 118.826 114.772 117.755 116.136 117.755C117.349 117.755 118.409 118.826 118.409 120.05C118.409 121.427 117.5 122.499 116.136 122.499C114.772 122.499 113.711 121.427 113.711 120.05Z" fill="#3F8CFF"/>
</svg>
