<svg width="238" height="226" viewBox="0 0 238 226" fill="none" xmlns="http://www.w3.org/2000/svg">
<path fill-rule="evenodd" clip-rule="evenodd" d="M142.063 12.1807C142.063 12.1807 157.249 5.50695 165.956 26.461C167.689 30.3703 175.679 54.7131 199.641 63.1086C203.199 63.7012 220.623 62.9422 213.665 83.6765C212.845 86.6994 206.628 103.68 213.665 121.752C215.235 124.542 219.567 135.42 215.448 153.25C214.497 157.278 211.183 165.693 211.183 176.127C210.726 180.558 209.418 198.646 188.494 198.646C179.365 198.93 147.526 196.746 147.526 196.746C147.526 196.746 132.807 196.597 126.955 200.207C123.359 202.047 106.018 208.823 91.6538 200.207C86.4167 196.715 85.1641 195.383 85.1641 195.383C85.1641 195.383 72.4286 183.595 60.2117 183.595C56.7656 183.001 33.0082 179.506 31.4314 166.114C30.7435 153.25 38.9823 141.402 26.3907 132.445C24.5454 130.999 17.8866 123.211 27.9257 112.269C28.9921 111.319 47.1836 96.5379 44.9404 83.6765C44.949 81.9095 39.6097 61.7724 61.0524 46.7502C62.4498 45.9376 76.3725 38.1079 81.9481 23.0942C82.957 19.8666 83.8429 2.86417 103.788 10.7782C123.528 21.6886 142.063 12.1807 142.063 12.1807Z" fill="#242731" stroke="#FFA2C0" stroke-width="1.11874"/>
<path fill-rule="evenodd" clip-rule="evenodd" d="M107.245 10.3195C107.245 10.3195 121.015 -7.85821 140.594 8.91795C145.531 14.2034 157.263 29.5731 173.207 29.5731C176.26 29.807 197.328 30.7375 195.832 49.1528C196.033 51.7573 193.616 70.1074 212.591 74.7516C214.89 75.5579 225.87 80.6307 213.965 103.493C210.673 111.408 204.596 119.924 207.635 142.584C207.978 147.345 210.661 169.467 182.975 175.351C180.663 176.014 163.473 176.734 160.232 199.581C159.015 202.345 152.486 214.356 133.983 203.733C131.757 201.538 121.059 191.429 99.3301 206.219C96.7596 207.458 70.6066 224.464 52.0922 195.545C49.6591 192.361 38.1299 185.67 38.1299 152.01C38.1299 132.082 51.5362 120.174 29.3489 108.181C25.7528 106.249 9.53599 93.0185 23.8329 68.151C25.0787 65.3103 38.5281 43.1979 62.7598 43.1979C89.7765 43.1979 107.245 10.3195 107.245 10.3195Z" fill="#242731" stroke="#6C5DD3" stroke-width="1.11874"/>
<g opacity="0.5">
<circle opacity="0.408092" cx="228.367" cy="220.139" r="5.5937" fill="#FCFCFD"/>
<circle opacity="0.408092" cx="4.61559" cy="186.577" r="4.47496" fill="#FCFCFD"/>
<circle opacity="0.408092" cx="47.689" cy="12.6148" r="3.91559" fill="#FCFCFD"/>
<path fill-rule="evenodd" clip-rule="evenodd" d="M222.772 11.4942C215.158 13.1446 213.816 14.4868 212.144 22.1223C210.493 14.5088 209.151 13.1666 201.516 11.4942C209.129 9.84393 210.471 8.50167 212.144 0.866211C213.794 8.50167 215.136 9.84393 222.772 11.4942Z" fill="#FCFCFD"/>
<path fill-rule="evenodd" clip-rule="evenodd" d="M32.5842 126.724C24.9707 128.374 23.6285 129.716 21.9562 137.352C20.3058 129.738 18.9636 128.396 11.3281 126.724C18.9416 125.073 20.2838 123.731 21.9562 116.096C23.6065 123.731 24.9487 125.073 32.5842 126.724Z" fill="#FCFCFD"/>
<path fill-rule="evenodd" clip-rule="evenodd" d="M202.631 184.578C197.016 185.815 196.012 186.757 194.77 192.409C193.529 186.816 192.584 185.815 186.969 184.578C192.584 183.342 193.588 182.4 194.77 176.747C196.012 182.4 196.957 183.401 202.631 184.578Z" fill="#FCFCFD"/>
<path opacity="0.44026" fill-rule="evenodd" clip-rule="evenodd" d="M237.209 107.147C231.594 108.383 230.59 109.325 229.349 114.978C228.107 109.384 227.162 108.383 221.547 107.147C227.162 105.91 228.166 104.968 229.349 99.3154C230.59 104.968 231.535 105.969 237.209 107.147Z" fill="#FCFCFD"/>
<path opacity="0.44026" fill-rule="evenodd" clip-rule="evenodd" d="M133.272 41.1408C127.657 42.3773 126.652 43.3194 125.411 48.9719C124.17 43.3782 123.224 42.3773 117.609 41.1408C123.224 39.9043 124.229 38.9622 125.411 33.3096C126.652 38.9622 127.598 39.9631 133.272 41.1408Z" fill="#FCFCFD"/>
<path opacity="0.408092" fill-rule="evenodd" clip-rule="evenodd" d="M66.1452 215.665C62.9368 216.372 62.3626 216.91 61.6534 220.14C60.9441 216.944 60.4038 216.372 57.1953 215.665C60.4038 214.959 60.9779 214.42 61.6534 211.19C62.3626 214.42 62.903 214.992 66.1452 215.665Z" fill="#FCFCFD"/>
</g>
<path d="M70.9695 109.664V108.238H70.2188V111.938H70.9695V110.512H74.9799V109.664H70.9695Z" fill="#3F8CFF"/>
<path d="M74.9799 103.939V103.092H70.2188V103.939H72.1943V106.293H70.2188V107.141H74.891V106.293H72.9747V103.939H74.9799Z" fill="#3F8CFF"/>
<path d="M74.2588 98.2051V100.818H72.8858V98.5442H72.2239V100.818H70.9695V98.2948H70.2188V101.666H74.891V98.2051H74.2588Z" fill="#3F8CFF"/>
<path d="M88.9958 97.8662V104.019H81.9826V97.8662H79.5625V112.107H81.9826V106.293H88.9958V112.107H91.4159V97.8662H88.9958Z" fill="#3F8CFF"/>
<path d="M105.023 97.8662V105.844C105.083 106.969 104.731 108.076 104.036 108.956C103.719 109.335 103.322 109.639 102.874 109.844C102.426 110.049 101.939 110.151 101.448 110.143C100.955 110.161 100.464 110.063 100.015 109.857C99.5658 109.651 99.1702 109.343 98.8595 108.956C98.1547 108.081 97.8021 106.97 97.8718 105.844V97.8662H95.4319V105.844C95.3841 106.703 95.5072 107.563 95.7939 108.374C96.0806 109.184 96.5252 109.928 97.1013 110.562C97.676 111.121 98.3558 111.558 99.1006 111.847C99.8453 112.137 100.64 112.273 101.438 112.247C102.223 112.273 103.006 112.137 103.738 111.847C104.47 111.557 105.136 111.12 105.695 110.562C106.271 109.928 106.716 109.184 107.002 108.374C107.289 107.563 107.412 106.703 107.364 105.844V97.8662H105.023Z" fill="#3F8CFF"/>
<path d="M123.892 97.8662L119.635 106.842L115.378 97.8662H111.703V112.107H114.123V101.028L119.062 110.891H120.228L125.167 101.028V112.107H127.606V97.8662H123.892Z" fill="#3F8CFF"/>
<path d="M130.156 112.107H132.655L134.078 108.906H139.58L138.671 106.722H135.075L137.663 100.818L141.17 108.906L142.592 112.107H145.092L138.829 97.8662H136.33L130.156 112.107Z" fill="#3F8CFF"/>
<path d="M158.029 97.8662V108.487L149.85 97.8662H147.43V112.107H149.85V101.746L157.861 112.107H160.449V97.8662H158.029Z" fill="#3F8CFF"/>
<path d="M166.707 109.834V106.014H173.463V103.94H166.707V100.14H174.214V97.8662H164.336V112.107H174.51V109.834H166.707Z" fill="#3F8CFF"/>
<path d="M71.889 117.752H70.1406V131.993H77.9836V130.308H71.889V117.752Z" fill="#3F8CFF"/>
<path d="M83.4828 125.68H90.496V123.905H83.4828V119.527H91.3356V117.752H81.7344V131.993H91.6715V130.308H83.4828V125.68Z" fill="#3F8CFF"/>
<path d="M102.183 117.752H100.434L94.1719 131.993H96.0882L97.5896 128.463H103.605L102.854 126.767H98.3403L101.353 119.866L106.608 131.993H106.687H108.524L102.262 117.842L102.183 117.752Z" fill="#3F8CFF"/>
<path d="M117.378 119.437C118.912 119.46 120.388 120.029 121.547 121.043L121.636 121.123L122.624 119.776L122.545 119.696C121.112 118.432 119.271 117.74 117.369 117.752C116.415 117.71 115.463 117.863 114.569 118.202C113.675 118.54 112.858 119.057 112.166 119.722C111.475 120.386 110.923 121.185 110.544 122.07C110.165 122.954 109.967 123.907 109.961 124.871C109.955 125.834 110.142 126.79 110.51 127.679C110.877 128.568 111.419 129.374 112.102 130.047C112.786 130.72 113.596 131.247 114.486 131.597C115.375 131.947 116.326 132.112 117.28 132.083C119.188 132.058 121.036 131.407 122.545 130.228V124.962H117.043V126.568H120.994V129.26C119.945 130.011 118.694 130.422 117.408 130.437C116.671 130.469 115.934 130.349 115.244 130.086C114.553 129.823 113.922 129.422 113.389 128.906C112.856 128.39 112.432 127.771 112.142 127.086C111.853 126.4 111.703 125.663 111.703 124.917C111.703 124.172 111.853 123.434 112.142 122.749C112.432 122.063 112.856 121.444 113.389 120.928C113.922 120.413 114.553 120.011 115.244 119.748C115.934 119.485 116.671 119.366 117.408 119.397L117.378 119.437Z" fill="#3F8CFF"/>
<path d="M136.322 126.099C136.27 127.181 135.807 128.202 135.03 128.949C134.253 129.696 133.221 130.113 132.148 130.113C131.075 130.113 130.043 129.696 129.267 128.949C128.49 128.202 128.027 127.181 127.975 126.099V117.752H126.227V126.099C126.227 129.809 128.479 132.083 132.153 132.083C135.828 132.083 138.08 129.889 138.08 126.099V117.752H136.322V126.099Z" fill="#3F8CFF"/>
<path d="M143.756 130.308V125.68H150.769V123.905H143.756V119.527H151.599V117.752H142.008V131.993H151.856V130.308H143.756Z" fill="#3F8CFF"/>
<path d="M168.033 116.406L165.277 118.979L162.61 116.366H159.202L156.367 119.149V125.212L165.257 134.068L174.266 125.302V119.278L171.302 116.496L168.033 116.406ZM168.369 117.842H170.947L168.863 122.649L166.196 120.036L168.369 117.842ZM164.773 131.804L162.798 129.81L164.635 125.511L166.729 127.506L164.773 131.804ZM163.687 124.554L161.77 128.852L159.518 126.578L162.61 123.457L163.687 124.554ZM167.282 126.239L163.44 122.36L164.427 119.917L165.682 121.183L168.359 123.796L167.282 126.239ZM159.686 117.812H162.274L163.519 119.079L162.442 121.522L159.202 118.431L159.686 117.812ZM157.76 119.777L158.185 119.358L161.602 122.649L158.639 125.641L157.799 124.793L157.76 119.777ZM172.873 124.833L166.443 131.066L169.198 124.833L169.445 124.165H172.873V124.833ZM172.873 122.729H170.117L171.865 118.68L172.853 119.677L172.873 122.729Z" fill="#3F8CFF"/>
<path d="M178.471 118.43C178.678 118.569 178.848 118.758 178.965 118.979C179.101 119.206 179.16 119.472 179.133 119.736C179.114 119.996 179.057 120.251 178.965 120.494C178.84 120.702 178.667 120.876 178.461 121.003C178.233 121.132 177.971 121.187 177.711 121.163C177.463 121.135 177.22 121.072 176.99 120.973C176.782 120.849 176.608 120.674 176.486 120.464C176.352 120.236 176.293 119.971 176.318 119.707C176.335 119.447 176.392 119.191 176.486 118.949C176.605 118.736 176.78 118.561 176.99 118.44C177.216 118.304 177.479 118.245 177.74 118.27C177.993 118.269 178.242 118.323 178.471 118.43ZM178.382 120.873C178.563 120.781 178.712 120.635 178.807 120.455C178.91 120.243 178.968 120.012 178.975 119.776C178.957 119.546 178.9 119.32 178.807 119.108C178.708 118.928 178.561 118.78 178.382 118.679C178.177 118.575 177.951 118.517 177.721 118.51C177.489 118.53 177.262 118.587 177.049 118.679C176.87 118.776 176.726 118.926 176.634 119.108C176.532 119.316 176.475 119.544 176.466 119.776C176.484 120.01 176.541 120.239 176.634 120.455C176.727 120.633 176.872 120.779 177.049 120.873C177.257 120.981 177.487 121.039 177.721 121.043C177.951 121.04 178.178 120.982 178.382 120.873ZM178.382 119.876C178.303 119.956 178.224 120.046 178.136 120.046L178.471 120.634H178.136L177.8 120.125H177.474V120.634H177.138V118.979H177.8C177.891 118.971 177.982 118.982 178.069 119.011C178.155 119.04 178.235 119.087 178.303 119.148C178.407 119.263 178.467 119.412 178.471 119.567C178.474 119.674 178.443 119.779 178.382 119.866V119.876ZM177.8 119.786C177.846 119.792 177.892 119.787 177.936 119.774C177.981 119.76 178.021 119.737 178.057 119.707C178.136 119.617 178.136 119.617 178.136 119.447C178.141 119.402 178.136 119.357 178.123 119.314C178.109 119.271 178.086 119.232 178.057 119.198C178.021 119.168 177.981 119.145 177.936 119.131C177.892 119.117 177.846 119.113 177.8 119.118H177.474V119.786H177.8Z" fill="#3F8CFF"/>
</svg>
