<svg width="238" height="226" viewBox="0 0 238 226" fill="none" xmlns="http://www.w3.org/2000/svg">
<path fill-rule="evenodd" clip-rule="evenodd" d="M142.133 12.1807C142.133 12.1807 157.319 5.50695 166.026 26.461C167.76 30.3703 175.749 54.7131 199.711 63.1086C203.269 63.7012 220.693 62.9422 213.736 83.6765C212.916 86.6994 206.698 103.68 213.736 121.752C215.306 124.542 219.637 135.42 215.518 153.25C214.567 157.278 211.253 165.693 211.253 176.127C210.797 180.558 209.489 198.646 188.565 198.646C179.436 198.93 147.597 196.746 147.597 196.746C147.597 196.746 132.877 196.597 127.025 200.207C123.429 202.047 106.088 208.823 91.7241 200.207C86.487 196.715 85.2344 195.383 85.2344 195.383C85.2344 195.383 72.4989 183.595 60.2821 183.595C56.8359 183.001 33.0786 179.506 31.5017 166.114C30.8138 153.25 39.0526 141.402 26.461 132.445C24.6157 130.999 17.9569 123.211 27.996 112.269C29.0624 111.319 47.2539 96.5379 45.0107 83.6765C45.0193 81.9095 39.68 61.7724 61.1227 46.7502C62.5201 45.9376 76.4428 38.1079 82.0184 23.0942C83.0274 19.8666 83.9132 2.86417 103.858 10.7782C123.598 21.6886 142.133 12.1807 142.133 12.1807Z" fill="#242731" stroke="#FFA2C0" stroke-width="1.11874"/>
<path fill-rule="evenodd" clip-rule="evenodd" d="M107.315 10.3195C107.315 10.3195 121.085 -7.85821 140.664 8.91795C145.601 14.2034 157.333 29.5731 173.277 29.5731C176.331 29.807 197.398 30.7375 195.903 49.1528C196.104 51.7573 193.686 70.1074 212.662 74.7516C214.961 75.5579 225.94 80.6307 214.035 103.493C210.743 111.408 204.667 119.924 207.705 142.584C208.049 147.345 210.731 169.467 183.046 175.351C180.733 176.014 163.543 176.734 160.302 199.581C159.086 202.345 152.556 214.356 134.053 203.733C131.827 201.538 121.129 191.429 99.4004 206.219C96.8299 207.458 70.6769 224.464 52.1625 195.545C49.7294 192.361 38.2002 185.67 38.2002 152.01C38.2002 132.082 51.6065 120.174 29.4192 108.181C25.8232 106.249 9.6063 93.0185 23.9032 68.151C25.149 65.3103 38.5984 43.1979 62.8301 43.1979C89.8468 43.1979 107.315 10.3195 107.315 10.3195Z" fill="#242731" stroke="#6C5DD3" stroke-width="1.11874"/>
<g opacity="0.5">
<circle opacity="0.408092" cx="228.437" cy="220.139" r="5.5937" fill="#FCFCFD"/>
<circle opacity="0.408092" cx="4.6859" cy="186.577" r="4.47496" fill="#FCFCFD"/>
<circle opacity="0.408092" cx="47.7593" cy="12.6148" r="3.91559" fill="#FCFCFD"/>
<path fill-rule="evenodd" clip-rule="evenodd" d="M222.842 11.4942C215.229 13.1446 213.886 14.4868 212.214 22.1223C210.564 14.5088 209.221 13.1666 201.586 11.4942C209.199 9.84393 210.542 8.50167 212.214 0.866211C213.864 8.50167 215.207 9.84393 222.842 11.4942Z" fill="#FCFCFD"/>
<path fill-rule="evenodd" clip-rule="evenodd" d="M32.6545 126.724C25.041 128.374 23.6988 129.716 22.0265 137.352C20.3762 129.738 19.0339 128.396 11.3984 126.724C19.0119 125.073 20.3542 123.731 22.0265 116.096C23.6768 123.731 25.019 125.073 32.6545 126.724Z" fill="#FCFCFD"/>
<path fill-rule="evenodd" clip-rule="evenodd" d="M202.701 184.578C197.087 185.815 196.082 186.757 194.841 192.409C193.6 186.816 192.654 185.815 187.039 184.578C192.654 183.342 193.659 182.4 194.841 176.747C196.082 182.4 197.028 183.401 202.701 184.578Z" fill="#FCFCFD"/>
<path opacity="0.44026" fill-rule="evenodd" clip-rule="evenodd" d="M237.287 107.147C231.673 108.383 230.668 109.325 229.427 114.978C228.185 109.384 227.24 108.383 221.625 107.147C227.24 105.91 228.245 104.968 229.427 99.3154C230.668 104.968 231.613 105.969 237.287 107.147Z" fill="#FCFCFD"/>
<path opacity="0.44026" fill-rule="evenodd" clip-rule="evenodd" d="M133.342 41.1408C127.727 42.3773 126.722 43.3194 125.481 48.9719C124.24 43.3782 123.294 42.3773 117.68 41.1408C123.294 39.9043 124.299 38.9622 125.481 33.3096C126.722 38.9622 127.668 39.9631 133.342 41.1408Z" fill="#FCFCFD"/>
<path opacity="0.408092" fill-rule="evenodd" clip-rule="evenodd" d="M66.2155 215.665C63.0071 216.372 62.4329 216.91 61.7237 220.14C61.0145 216.944 60.4741 216.372 57.2656 215.665C60.4741 214.959 61.0482 214.42 61.7237 211.19C62.4329 214.42 62.9733 214.992 66.2155 215.665Z" fill="#FCFCFD"/>
</g>
<g clip-path="url(#clip0_15134_15649)">
<path d="M174.597 65.8662H74.2109V166.351H174.597V65.8662Z" fill="#3F8CFF"/>
<path d="M98.9141 76.3955H103.443V79.5679C103.443 79.8191 103.435 80.0893 103.419 80.3777C103.404 80.6668 103.387 80.9336 103.368 81.1788C103.343 81.4671 103.317 81.7502 103.292 82.0256H103.462C103.656 81.6622 103.862 81.3764 104.079 81.1693C104.296 80.9621 104.526 80.8067 104.771 80.7031C105.015 80.5995 105.274 80.533 105.547 80.5054C105.821 80.4769 106.107 80.4631 106.409 80.4631C106.904 80.4631 107.351 80.5356 107.746 80.6798C108.141 80.824 108.475 81.0467 108.749 81.3479C109.022 81.6492 109.231 82.0334 109.375 82.5012C109.519 82.9691 109.592 83.5294 109.592 84.182V88.6553C109.592 88.9557 109.618 89.1957 109.672 89.3744C109.724 89.554 109.805 89.6904 109.912 89.7853C110.018 89.8785 110.153 89.9416 110.317 89.9726C110.48 90.0046 110.671 90.0201 110.891 90.0201H110.948V91.0457H106.663V84.6999C106.663 84.2856 106.637 83.917 106.583 83.5941C106.53 83.2704 106.442 82.9993 106.32 82.7792C106.197 82.5599 106.037 82.3916 105.84 82.2759C105.641 82.1585 105.401 82.1016 105.119 82.1016C104.799 82.1016 104.532 82.1836 104.319 82.3459C104.105 82.509 103.934 82.7274 103.805 83.0002C103.677 83.2739 103.584 83.5907 103.528 83.9515C103.471 84.3123 103.443 84.6904 103.443 85.0858V88.7675C103.443 89.0377 103.475 89.2544 103.542 89.4167C103.608 89.5807 103.7 89.7076 103.82 89.7991C103.939 89.8898 104.085 89.9493 104.258 89.9778C104.43 90.0054 104.623 90.0201 104.837 90.0201H104.893V91.0457H98.9702V90.0201H99.0082C99.2283 90.0201 99.4286 90.0054 99.6107 89.9778C99.7928 89.9493 99.9508 89.888 100.086 89.7939C100.221 89.6999 100.326 89.5652 100.402 89.3891C100.477 89.2138 100.515 88.9808 100.515 88.6924V78.589C100.515 78.3318 100.47 78.1263 100.378 77.9718C100.287 77.819 100.172 77.699 100.035 77.6144C99.8964 77.5298 99.7471 77.4754 99.5874 77.4495C99.4277 77.4254 99.2775 77.4115 99.1402 77.4115H98.9141V76.3955Z" fill="white"/>
<path d="M98.8989 109.907C98.9524 110.061 99.024 110.177 99.1156 110.255C99.2071 110.334 99.3098 110.386 99.4263 110.411C99.542 110.436 99.6663 110.448 99.7984 110.448H100.608V111.475H93.9508V110.448H94.7795C94.9176 110.448 95.0462 110.434 95.1653 110.406C95.2845 110.378 95.3898 110.32 95.4813 110.232C95.5719 110.144 95.6427 110.019 95.6928 109.855C95.7429 109.692 95.7679 109.472 95.7679 109.196V104.884H90.7308V109.196C90.7308 109.472 90.7576 109.692 90.8111 109.855C90.8638 110.019 90.9346 110.144 91.0226 110.232C91.1107 110.32 91.2143 110.378 91.3334 110.406C91.4525 110.434 91.5811 110.448 91.7193 110.448H92.548V111.475H85.8906V110.448H86.7012C86.8393 110.448 86.968 110.434 87.0871 110.406C87.2062 110.378 87.3115 110.32 87.4022 110.232C87.4937 110.144 87.5636 110.019 87.6145 109.855C87.6646 109.692 87.6896 109.472 87.6896 109.196V99.912C87.6896 99.6547 87.6629 99.4493 87.6093 99.2948C87.5558 99.142 87.4842 99.0237 87.3927 98.9426C87.302 98.8606 87.1967 98.8053 87.0776 98.7768C86.9585 98.7492 86.8333 98.7354 86.7012 98.7354H85.8906V97.709H92.548V98.7354H91.7193C91.5811 98.7354 91.4525 98.7492 91.3334 98.7768C91.2143 98.8053 91.1107 98.864 91.0226 98.9512C90.9346 99.0401 90.8638 99.1653 90.8111 99.3284C90.7576 99.4916 90.7308 99.7109 90.7308 99.988V103.706H95.7679V99.988C95.7679 99.7109 95.7429 99.4916 95.6928 99.3284C95.6427 99.1653 95.5719 99.0401 95.4813 98.9512C95.3898 98.864 95.2845 98.8053 95.1653 98.7768C95.0462 98.7492 94.9176 98.7354 94.7795 98.7354H93.9508V97.709H100.608V98.7354H99.7984C99.6663 98.7354 99.5403 98.7492 99.422 98.7768C99.302 98.8053 99.1976 98.864 99.1061 98.9512C99.0154 99.0401 98.9446 99.1653 98.8946 99.3284C98.8436 99.4916 98.8195 99.7109 98.8195 99.988V109.299C98.8195 109.55 98.8454 109.753 98.8989 109.907Z" fill="white"/>
<path d="M85.6583 77.2803H97.6729L97.767 81.0181H96.4773L96.3358 79.8225C96.3107 79.6093 96.2684 79.4177 96.208 79.2485C96.1493 79.0784 96.0578 78.936 95.9352 78.8203C95.8126 78.7038 95.6547 78.614 95.4604 78.5518C95.2653 78.4888 95.0236 78.4569 94.7353 78.4569H93.191V88.7675C93.191 89.0437 93.216 89.2638 93.2661 89.4261C93.3161 89.5902 93.3869 89.7153 93.4784 89.8034C93.5691 89.8914 93.6744 89.9493 93.7935 89.9778C93.9126 90.0054 94.0413 90.0201 94.1794 90.0201H94.9891V91.0456H88.3326V90.0201H89.1423C89.2865 90.0201 89.4186 90.0054 89.5377 89.9778C89.6568 89.9493 89.7604 89.8914 89.8485 89.8034C89.9357 89.7153 90.0056 89.5902 90.0557 89.4261C90.1057 89.2638 90.1308 89.0437 90.1308 88.7675V78.4569H88.5864C88.2981 78.4569 88.0564 78.4888 87.8613 78.5518C87.667 78.614 87.5082 78.7038 87.3856 78.8203C87.2631 78.936 87.1724 79.0784 87.1128 79.2485C87.0533 79.4177 87.011 79.6093 86.9859 79.8225L86.8539 81.0181H85.5547L85.6583 77.2803Z" fill="white"/>
<path d="M107.196 124.278C106.769 124.606 106.166 124.768 105.388 124.768C105.388 124.505 105.374 124.272 105.346 124.071C105.318 123.87 105.267 123.704 105.195 123.572C105.123 123.44 105.026 123.34 104.903 123.271C104.781 123.202 104.629 123.167 104.447 123.167C104.22 123.167 104.026 123.224 103.863 123.337C103.699 123.45 103.562 123.596 103.449 123.774C103.336 123.953 103.243 124.156 103.171 124.382C103.098 124.608 103.042 124.836 103.001 125.065C102.96 125.294 102.933 125.512 102.921 125.719C102.908 125.926 102.902 126.105 102.902 126.255V129.589C102.902 129.871 102.937 130.098 103.006 130.272C103.075 130.445 103.169 130.574 103.288 130.662C103.407 130.751 103.55 130.808 103.716 130.837C103.883 130.865 104.061 130.879 104.249 130.879H104.87V131.905H98.4297V130.879H98.4867C98.7059 130.879 98.9071 130.863 99.0892 130.831C99.2705 130.8 99.4276 130.736 99.5597 130.639C99.6918 130.541 99.7936 130.401 99.8653 130.219C99.9378 130.038 99.974 129.796 99.974 129.495V123.902C99.974 123.619 99.9412 123.392 99.8756 123.219C99.8092 123.047 99.7151 122.913 99.5925 122.819C99.4708 122.725 99.324 122.663 99.1548 122.636C98.9856 122.607 98.794 122.593 98.5808 122.593H98.5238V121.567H102.422L102.808 123.073H102.902C103.028 122.784 103.166 122.532 103.317 122.315C103.468 122.099 103.647 121.918 103.858 121.774C104.068 121.629 104.316 121.521 104.602 121.449C104.888 121.377 105.228 121.341 105.624 121.341C106.384 121.341 106.942 121.475 107.3 121.741C107.657 122.008 107.836 122.396 107.836 122.904C107.836 123.494 107.623 123.952 107.196 124.278Z" fill="white"/>
<path d="M108.648 110.109C108.454 110.443 108.243 110.711 108.017 110.915C107.792 111.119 107.55 111.276 107.293 111.385C107.035 111.495 106.764 111.569 106.478 111.607C106.192 111.645 105.899 111.663 105.597 111.663C104.594 111.663 103.823 111.352 103.287 110.731C102.75 110.109 102.481 109.149 102.481 107.85V103.528C102.481 103.246 102.456 103.017 102.405 102.841C102.356 102.665 102.277 102.527 102.17 102.426C102.063 102.326 101.927 102.257 101.761 102.219C101.595 102.181 101.395 102.162 101.163 102.162H101.125V101.137H105.409V107.313C105.409 107.728 105.433 108.101 105.48 108.434C105.528 108.766 105.607 109.05 105.72 109.286C105.833 109.521 105.983 109.704 106.172 109.832C106.361 109.961 106.595 110.025 106.879 110.025C107.186 110.025 107.451 109.957 107.674 109.823C107.897 109.687 108.078 109.493 108.22 109.238C108.361 108.984 108.465 108.676 108.531 108.315C108.597 107.955 108.629 107.549 108.629 107.097V103.396C108.629 103.114 108.592 102.891 108.516 102.728C108.441 102.565 108.34 102.441 108.215 102.356C108.09 102.271 107.942 102.218 107.773 102.196C107.603 102.173 107.424 102.162 107.236 102.162H107.18V101.137H111.557V109.234C111.557 109.517 111.591 109.737 111.657 109.898C111.723 110.058 111.812 110.179 111.925 110.26C112.038 110.342 112.173 110.394 112.33 110.416C112.487 110.437 112.66 110.449 112.848 110.449H113.008V111.475H109.166L108.742 110.109H108.648Z" fill="white"/>
<path d="M124.425 132.056C124.425 132.922 124.304 133.641 124.062 134.216C123.82 134.79 123.485 135.249 123.055 135.591C122.625 135.933 122.113 136.177 121.52 136.321C120.927 136.465 120.276 136.538 119.566 136.538H119.18V135.342H119.312C119.664 135.342 119.976 135.285 120.249 135.172C120.522 135.059 120.751 134.871 120.936 134.607C121.121 134.344 121.261 133.992 121.355 133.553C121.449 133.113 121.497 132.564 121.497 131.905V123.864C121.497 123.587 121.455 123.366 121.374 123.201C121.292 123.034 121.181 122.905 121.04 122.814C120.898 122.723 120.734 122.664 120.545 122.635C120.357 122.607 120.159 122.593 119.952 122.593H119.896V121.566H124.425V132.056Z" fill="white"/>
<path d="M124.377 119.062C124.287 119.238 124.166 119.382 124.015 119.495C123.865 119.608 123.688 119.693 123.487 119.75C123.287 119.806 123.076 119.835 122.856 119.835C122.625 119.835 122.41 119.806 122.212 119.75C122.014 119.693 121.841 119.608 121.694 119.495C121.546 119.382 121.43 119.238 121.346 119.062C121.261 118.887 121.219 118.68 121.219 118.441C121.219 118.195 121.261 117.985 121.346 117.81C121.43 117.634 121.546 117.492 121.694 117.381C121.841 117.272 122.014 117.19 122.212 117.137C122.41 117.083 122.625 117.057 122.856 117.057C123.076 117.057 123.287 117.083 123.487 117.137C123.688 117.19 123.865 117.272 124.015 117.381C124.166 117.492 124.287 117.634 124.377 117.81C124.468 117.985 124.514 118.195 124.514 118.441C124.514 118.68 124.468 118.887 124.377 119.062Z" fill="white"/>
<path d="M126.274 111.475H121.989V105.128C121.989 104.715 121.962 104.345 121.909 104.022C121.856 103.699 121.768 103.427 121.646 103.208C121.523 102.988 121.363 102.82 121.166 102.704C120.968 102.588 120.728 102.53 120.445 102.53C120.125 102.53 119.858 102.611 119.645 102.774C119.431 102.937 119.26 103.156 119.131 103.43C119.003 103.702 118.91 104.019 118.854 104.38C118.798 104.741 118.769 105.119 118.769 105.514V109.196C118.769 109.466 118.802 109.682 118.868 109.846C118.934 110.009 119.027 110.136 119.146 110.227C119.265 110.318 119.411 110.378 119.583 110.405C119.756 110.434 119.949 110.448 120.163 110.448H120.22V111.475H114.297V110.448H114.335C114.554 110.448 114.755 110.434 114.937 110.405C115.12 110.378 115.278 110.317 115.412 110.222C115.548 110.128 115.652 109.993 115.728 109.818C115.803 109.641 115.841 109.41 115.841 109.12V103.415C115.841 103.146 115.808 102.928 115.742 102.766C115.676 102.602 115.582 102.475 115.46 102.383C115.337 102.294 115.191 102.233 115.022 102.205C114.852 102.176 114.66 102.162 114.447 102.162H114.391V101.137H118.44L118.693 102.511H118.788C118.983 102.147 119.188 101.858 119.405 101.645C119.621 101.431 119.852 101.268 120.097 101.155C120.342 101.042 120.601 100.969 120.874 100.938C121.147 100.907 121.433 100.892 121.735 100.892C122.231 100.892 122.676 100.963 123.073 101.108C123.468 101.252 123.802 101.475 124.075 101.776C124.348 102.078 124.557 102.463 124.701 102.931C124.846 103.398 124.917 103.958 124.917 104.61V109.083C124.917 109.384 124.944 109.624 124.998 109.804C125.051 109.982 125.131 110.119 125.238 110.213C125.345 110.307 125.479 110.37 125.643 110.401C125.806 110.433 125.997 110.448 126.217 110.448H126.274V111.475Z" fill="white"/>
<path d="M141.184 129.683C141.541 130.33 142.125 130.653 142.935 130.653C143.267 130.653 143.58 130.614 143.872 130.535C144.163 130.456 144.429 130.347 144.668 130.206C144.906 130.065 145.115 129.898 145.293 129.706C145.473 129.515 145.618 129.31 145.731 129.091C145.888 129.184 146.005 129.311 146.08 129.471C146.155 129.631 146.193 129.799 146.193 129.975C146.193 130.22 146.12 130.467 145.976 130.72C145.832 130.97 145.608 131.197 145.303 131.402C144.998 131.605 144.611 131.772 144.14 131.9C143.67 132.029 143.108 132.094 142.454 132.094C141.746 132.094 141.097 132.002 140.51 131.82C139.923 131.639 139.42 131.338 138.999 130.916C138.579 130.496 138.252 129.947 138.02 129.269C137.788 128.592 137.672 127.759 137.672 126.774C137.672 125.732 137.793 124.862 138.034 124.166C138.275 123.468 138.608 122.91 139.032 122.489C139.456 122.069 139.956 121.769 140.534 121.591C141.111 121.411 141.733 121.322 142.398 121.322C143.02 121.322 143.569 121.373 144.046 121.478C144.523 121.581 144.921 121.724 145.242 121.906C145.562 122.088 145.805 122.303 145.972 122.551C146.138 122.798 146.221 123.064 146.221 123.347C146.221 123.554 146.185 123.756 146.113 123.953C146.04 124.151 145.912 124.325 145.727 124.476C145.541 124.627 145.287 124.749 144.965 124.843C144.641 124.938 144.228 124.985 143.726 124.985C143.726 124.652 143.705 124.335 143.665 124.034C143.624 123.732 143.557 123.468 143.462 123.243C143.368 123.017 143.241 122.836 143.081 122.702C142.92 122.566 142.718 122.499 142.474 122.499C142.191 122.499 141.938 122.566 141.715 122.702C141.493 122.836 141.301 123.067 141.141 123.393C140.982 123.719 140.859 124.155 140.774 124.702C140.689 125.248 140.647 125.933 140.647 126.755C140.647 128.061 140.826 129.037 141.184 129.683Z" fill="white"/>
<path d="M154.648 131.613C154.547 131.663 154.41 131.717 154.238 131.774C154.065 131.83 153.865 131.882 153.635 131.928C153.406 131.976 153.147 132.016 152.858 132.047C152.57 132.078 152.255 132.094 151.917 132.094C151.484 132.094 151.091 132.042 150.74 131.939C150.388 131.834 150.09 131.663 149.845 131.421C149.6 131.179 149.412 130.865 149.281 130.479C149.149 130.093 149.083 129.617 149.083 129.052V122.885H147.633V121.897C148.047 121.897 148.418 121.815 148.744 121.651C149.07 121.488 149.331 121.3 149.525 121.087C149.92 120.672 150.216 120.035 150.411 119.175H152.011V121.567H154.477V122.885H152.011V128.854C152.011 129.439 152.11 129.865 152.307 130.135C152.505 130.405 152.83 130.539 153.283 130.539C153.533 130.539 153.773 130.523 154.003 130.489C154.231 130.454 154.446 130.411 154.648 130.361V131.613Z" fill="white"/>
<path d="M155.509 103.642C155.482 103.44 155.431 103.275 155.359 103.143C155.286 103.011 155.19 102.91 155.067 102.841C154.945 102.772 154.793 102.737 154.61 102.737C154.384 102.737 154.19 102.794 154.026 102.907C153.863 103.02 153.725 103.166 153.612 103.345C153.5 103.523 153.406 103.726 153.335 103.952C153.262 104.178 153.206 104.406 153.165 104.635C153.124 104.864 153.097 105.082 153.085 105.29C153.072 105.496 153.066 105.675 153.066 105.826V109.159C153.066 109.442 153.101 109.669 153.17 109.842C153.239 110.015 153.333 110.144 153.452 110.232C153.571 110.321 153.714 110.378 153.88 110.407C154.047 110.434 154.224 110.448 154.413 110.448H155.034V111.476H148.594V110.448H148.65C148.87 110.448 149.071 110.434 149.252 110.402C149.435 110.371 149.592 110.306 149.724 110.209C149.856 110.112 149.957 109.972 150.029 109.79C150.102 109.608 150.138 109.367 150.138 109.064V103.472C150.138 103.189 150.105 102.962 150.039 102.79C149.973 102.617 149.879 102.483 149.757 102.389C149.634 102.295 149.488 102.234 149.319 102.205C149.149 102.178 148.957 102.163 148.744 102.163H148.688V101.137H152.586L152.972 102.644H153.066C153.192 102.354 153.33 102.102 153.481 101.886C153.631 101.669 153.811 101.489 154.022 101.344C154.232 101.199 154.48 101.092 154.766 101.019C155.052 100.947 155.392 100.911 155.787 100.911C156.547 100.911 157.105 101.045 157.464 101.312C157.821 101.578 158 101.966 158 102.474C158 103.064 157.786 103.522 157.36 103.849C156.933 104.175 156.33 104.338 155.552 104.338C155.552 104.075 155.538 103.843 155.509 103.642Z" fill="white"/>
<path d="M159.403 131.246C159.319 131.44 159.204 131.597 159.06 131.717C158.915 131.836 158.747 131.922 158.556 131.975C158.365 132.029 158.162 132.056 157.949 132.056C157.729 132.056 157.521 132.029 157.327 131.975C157.133 131.922 156.965 131.836 156.824 131.717C156.682 131.597 156.571 131.44 156.489 131.246C156.408 131.051 156.367 130.809 156.367 130.521C156.367 130.226 156.408 129.98 156.489 129.782C156.571 129.584 156.682 129.425 156.824 129.306C156.965 129.187 157.133 129.102 157.327 129.052C157.521 129.002 157.729 128.977 157.949 128.977C158.162 128.977 158.365 129.002 158.556 129.052C158.747 129.102 158.915 129.187 159.06 129.306C159.204 129.425 159.319 129.584 159.403 129.782C159.488 129.98 159.531 130.226 159.531 130.521C159.531 130.809 159.488 131.051 159.403 131.246Z" fill="white"/>
<path d="M136.035 125.965C136.035 125.198 135.931 124.527 135.724 123.949C135.517 123.372 135.219 122.889 134.83 122.499C134.441 122.11 133.967 121.817 133.408 121.619C132.85 121.422 132.222 121.322 131.525 121.322C130.766 121.322 130.089 121.437 129.496 121.666C128.903 121.895 128.402 122.239 127.994 122.697C127.586 123.156 127.276 123.726 127.062 124.411C126.848 125.096 126.742 125.889 126.742 126.794C126.742 127.634 126.848 128.383 127.062 129.039C127.276 129.695 127.592 130.249 128.013 130.701C128.433 131.153 128.956 131.498 129.581 131.736C130.206 131.975 130.925 132.094 131.742 132.094C132.395 132.094 132.958 132.038 133.431 131.925C133.905 131.812 134.299 131.66 134.613 131.472C134.927 131.284 135.16 131.066 135.31 130.818C135.461 130.57 135.536 130.309 135.536 130.032C135.536 129.592 135.363 129.279 135.018 129.091C134.905 129.311 134.763 129.516 134.59 129.707C134.417 129.899 134.216 130.065 133.987 130.206C133.759 130.347 133.502 130.457 133.22 130.536C132.937 130.614 132.63 130.654 132.297 130.654C131.896 130.654 131.539 130.581 131.228 130.437C130.918 130.292 130.654 130.07 130.438 129.768C130.221 129.467 130.051 129.084 129.929 128.62C129.807 128.155 129.736 127.6 129.717 126.953H136.035V125.965ZM129.755 125.72C129.786 124.69 129.96 123.909 130.277 123.375C130.594 122.842 131.023 122.575 131.563 122.575C131.839 122.575 132.073 122.647 132.264 122.792C132.455 122.936 132.612 123.143 132.735 123.413C132.857 123.682 132.946 124.012 133.003 124.401C133.059 124.791 133.088 125.23 133.088 125.72H129.755Z" fill="white"/>
<path d="M118.634 124.331C118.405 123.656 118.075 123.095 117.645 122.65C117.215 122.205 116.694 121.871 116.082 121.651C115.47 121.432 114.778 121.322 114.006 121.322C112.349 121.322 111.095 121.765 110.245 122.65C109.393 123.535 108.969 124.885 108.969 126.699C108.969 127.602 109.083 128.393 109.312 129.071C109.541 129.749 109.871 130.31 110.301 130.757C110.731 131.202 111.253 131.536 111.869 131.76C112.484 131.982 113.177 132.094 113.95 132.094C115.6 132.094 116.851 131.648 117.702 130.757C118.553 129.866 118.977 128.512 118.977 126.699C118.977 125.795 118.862 125.005 118.634 124.331ZM115.889 128.506C115.82 129.028 115.706 129.464 115.545 129.815C115.385 130.167 115.178 130.432 114.924 130.611C114.67 130.789 114.357 130.878 113.987 130.878C113.616 130.878 113.303 130.789 113.046 130.611C112.788 130.432 112.58 130.167 112.419 129.815C112.259 129.464 112.143 129.028 112.071 128.506C111.999 127.986 111.963 127.383 111.963 126.699C111.963 126.008 111.997 125.404 112.066 124.886C112.135 124.369 112.248 123.937 112.405 123.591C112.562 123.246 112.769 122.987 113.027 122.814C113.284 122.642 113.597 122.556 113.969 122.556C114.339 122.556 114.652 122.642 114.91 122.814C115.167 122.987 115.376 123.246 115.536 123.591C115.696 123.937 115.812 124.369 115.884 124.886C115.957 125.404 115.993 126.008 115.993 126.699C115.993 127.383 115.958 127.986 115.889 128.506Z" fill="white"/>
<path d="M147.505 105.534C147.505 104.768 147.401 104.097 147.194 103.518C146.987 102.942 146.688 102.458 146.299 102.069C145.91 101.68 145.436 101.386 144.878 101.189C144.318 100.991 143.691 100.892 142.994 100.892C142.235 100.892 141.559 101.006 140.966 101.235C140.373 101.465 139.872 101.808 139.464 102.267C139.055 102.725 138.745 103.297 138.531 103.98C138.318 104.665 138.211 105.459 138.211 106.363C138.211 107.205 138.318 107.952 138.531 108.608C138.745 109.264 139.061 109.818 139.482 110.27C139.903 110.721 140.425 111.068 141.05 111.306C141.674 111.545 142.395 111.663 143.211 111.663C143.863 111.663 144.427 111.607 144.901 111.494C145.375 111.381 145.77 111.231 146.083 111.043C146.397 110.853 146.628 110.635 146.78 110.387C146.93 110.14 147.006 109.878 147.006 109.602C147.006 109.162 146.833 108.848 146.488 108.66C146.375 108.88 146.232 109.086 146.059 109.276C145.886 109.468 145.686 109.635 145.456 109.775C145.227 109.917 144.972 110.026 144.69 110.105C144.406 110.184 144.099 110.222 143.767 110.222C143.365 110.222 143.009 110.151 142.698 110.007C142.387 109.862 142.123 109.64 141.906 109.338C141.691 109.036 141.521 108.653 141.399 108.189C141.276 107.724 141.206 107.169 141.187 106.523H147.505V105.534ZM141.225 105.289C141.256 104.26 141.43 103.478 141.747 102.945C142.064 102.411 142.492 102.144 143.032 102.144C143.308 102.144 143.542 102.217 143.733 102.361C143.925 102.505 144.082 102.712 144.204 102.982C144.327 103.253 144.416 103.581 144.473 103.971C144.529 104.36 144.558 104.8 144.558 105.289H141.225Z" fill="white"/>
<path d="M96.7563 120.521C96.5431 120.02 96.2176 119.591 95.7817 119.236C95.3458 118.881 94.7976 118.61 94.1389 118.422C93.4803 118.233 92.7042 118.14 91.8134 118.14H85.8906V119.156H86.7003C86.8385 119.156 86.9671 119.17 87.0862 119.198C87.2053 119.226 87.3107 119.282 87.4022 119.363C87.4928 119.445 87.5636 119.563 87.6137 119.716C87.6637 119.87 87.6888 120.076 87.6888 120.333V129.626C87.6888 129.902 87.6637 130.122 87.6137 130.286C87.5636 130.45 87.4945 130.575 87.4065 130.662C87.3184 130.751 87.2148 130.808 87.0957 130.836C86.9766 130.865 86.8445 130.879 86.7003 130.879H85.8906V131.905H92.9338V130.879H91.7564C91.6252 130.879 91.4957 130.866 91.3705 130.841C91.2445 130.816 91.1348 130.765 91.0407 130.685C90.9467 130.608 90.8716 130.491 90.8154 130.337C90.7585 130.184 90.73 129.981 90.73 129.73V126.642H91.3895C92.4314 126.642 93.3128 126.521 94.0353 126.279C94.757 126.037 95.344 125.713 95.7955 125.305C96.2478 124.896 96.5742 124.426 96.7753 123.892C96.9756 123.359 97.0766 122.803 97.0766 122.225C97.0766 121.592 96.9695 121.024 96.7563 120.521ZM93.6918 123.779C93.5942 124.187 93.4406 124.52 93.2299 124.777C93.0202 125.035 92.7482 125.223 92.4159 125.343C92.0827 125.462 91.6778 125.521 91.2013 125.521H90.73V119.279H91.4836C91.9169 119.279 92.2821 119.34 92.5808 119.462C92.8786 119.585 93.1203 119.769 93.3059 120.017C93.4906 120.266 93.6253 120.579 93.7099 120.959C93.7945 121.339 93.8377 121.786 93.8377 122.3C93.8377 122.878 93.7885 123.371 93.6918 123.779Z" fill="white"/>
<path d="M121.223 85.1046C121.223 84.3389 121.12 83.6673 120.913 83.0897C120.705 82.5122 120.407 82.0288 120.018 81.6395C119.629 81.251 119.155 80.9567 118.597 80.759C118.037 80.5613 117.41 80.4629 116.713 80.4629C115.953 80.4629 115.277 80.5777 114.684 80.8065C114.091 81.0352 113.591 81.3788 113.182 81.8372C112.774 82.2956 112.464 82.867 112.25 83.5516C112.037 84.2353 111.93 85.0295 111.93 85.9333C111.93 86.7741 112.037 87.5234 112.25 88.1794C112.464 88.8346 112.78 89.3889 113.201 89.8412C113.622 90.2927 114.145 90.638 114.769 90.8762C115.393 91.1153 116.114 91.2336 116.93 91.2336C117.582 91.2336 118.146 91.1775 118.62 91.0644C119.094 90.9522 119.488 90.8011 119.802 90.6129C120.115 90.4239 120.347 90.2063 120.498 89.9586C120.649 89.7108 120.724 89.4484 120.724 89.1722C120.724 88.7328 120.552 88.4186 120.206 88.2304C120.093 88.4505 119.951 88.656 119.777 88.8476C119.606 89.0392 119.405 89.205 119.175 89.3466C118.946 89.4881 118.691 89.5978 118.408 89.6763C118.125 89.7549 117.818 89.7937 117.486 89.7937C117.083 89.7937 116.728 89.7221 116.417 89.577C116.106 89.4329 115.842 89.2102 115.625 88.9089C115.409 88.6068 115.239 88.2243 115.118 87.7599C114.995 87.2955 114.924 86.7396 114.905 86.093H121.223V85.1046ZM114.943 84.8603C114.974 83.8304 115.149 83.0492 115.466 82.5148C115.782 81.9822 116.211 81.7146 116.751 81.7146C117.027 81.7146 117.261 81.7871 117.453 81.9321C117.644 82.0763 117.801 82.2835 117.923 82.5528C118.046 82.8221 118.135 83.1519 118.192 83.5412C118.248 83.9314 118.276 84.3708 118.276 84.8603H114.943Z" fill="white"/>
<path d="M137.414 101.081C137.355 100.95 137.267 100.833 137.15 100.732C137.034 100.632 136.89 100.553 136.718 100.493C136.545 100.434 136.342 100.403 136.11 100.403C135.865 100.403 135.643 100.438 135.442 100.507C135.24 100.576 135.058 100.664 134.895 100.77C134.732 100.877 134.586 100.996 134.458 101.124C134.329 101.253 134.212 101.374 134.104 101.487C133.815 101.323 133.475 101.184 133.083 101.067C132.69 100.951 132.265 100.893 131.807 100.893C130.432 100.893 129.417 101.204 128.761 101.83C128.105 102.454 127.777 103.331 127.777 104.461C127.777 104.851 127.827 105.205 127.928 105.525C128.028 105.845 128.164 106.132 128.337 106.382C128.51 106.634 128.717 106.848 128.959 107.028C129.2 107.207 129.463 107.346 129.745 107.447C129.494 107.591 129.263 107.737 129.054 107.884C128.842 108.032 128.663 108.189 128.511 108.355C128.361 108.521 128.243 108.696 128.158 108.878C128.074 109.06 128.032 109.258 128.032 109.471C128.032 109.697 128.072 109.901 128.154 110.083C128.235 110.265 128.342 110.426 128.474 110.567C128.606 110.709 128.757 110.83 128.926 110.93C129.095 111.031 129.268 111.115 129.444 111.184C128.596 111.253 127.95 111.472 127.504 111.839C127.058 112.206 126.836 112.735 126.836 113.425C126.836 114.304 127.207 114.971 127.951 115.426C128.695 115.881 129.826 116.108 131.346 116.108C132.299 116.108 133.127 116.022 133.826 115.849C134.527 115.678 135.107 115.429 135.569 115.106C136.03 114.782 136.373 114.388 136.599 113.92C136.825 113.451 136.939 112.92 136.939 112.324C136.939 111.865 136.866 111.453 136.722 111.085C136.578 110.718 136.353 110.409 136.048 110.158C135.745 109.907 135.36 109.714 134.895 109.579C134.431 109.444 133.878 109.377 133.239 109.377H130.904C130.633 109.377 130.415 109.327 130.248 109.226C130.083 109.126 129.999 108.968 129.999 108.755C129.999 108.642 130.02 108.535 130.06 108.435C130.102 108.334 130.154 108.243 130.221 108.162C130.286 108.08 130.361 108.007 130.447 107.94C130.531 107.875 130.614 107.819 130.696 107.775C130.746 107.782 130.82 107.79 130.917 107.8C131.014 107.808 131.117 107.815 131.223 107.818C131.33 107.821 131.436 107.825 131.543 107.827C131.649 107.831 131.737 107.833 131.807 107.833C132.479 107.833 133.059 107.748 133.549 107.578C134.038 107.409 134.444 107.173 134.763 106.872C135.083 106.571 135.32 106.215 135.474 105.803C135.628 105.392 135.705 104.945 135.705 104.461C135.705 104.223 135.68 103.989 135.63 103.76C135.58 103.532 135.512 103.309 135.427 103.097C135.342 102.883 135.244 102.684 135.131 102.498C135.018 102.314 134.895 102.149 134.763 102.005C134.833 101.954 134.928 101.907 135.051 101.862C135.173 101.819 135.287 101.797 135.394 101.797C135.489 101.797 135.58 101.815 135.668 101.848C135.755 101.884 135.834 101.935 135.903 102.005C135.972 102.073 136.027 102.158 136.067 102.258C136.108 102.359 136.129 102.475 136.129 102.606C136.392 102.606 136.614 102.576 136.793 102.517C136.972 102.458 137.113 102.378 137.216 102.277C137.32 102.176 137.393 102.059 137.437 101.923C137.481 101.789 137.503 101.65 137.503 101.505C137.503 101.355 137.474 101.213 137.414 101.081ZM130.235 111.971C130.436 111.936 130.633 111.919 130.828 111.919H133.069C133.59 111.919 133.979 112 134.237 112.164C134.494 112.327 134.622 112.612 134.622 113.021C134.622 113.655 134.365 114.135 133.851 114.461C133.335 114.788 132.514 114.951 131.384 114.951C130.643 114.951 130.079 114.823 129.693 114.569C129.307 114.315 129.114 113.922 129.114 113.387C129.114 113.074 129.168 112.822 129.275 112.629C129.381 112.438 129.517 112.289 129.684 112.182C129.85 112.076 130.033 112.005 130.235 111.971ZM133.008 105.37C132.967 105.65 132.896 105.888 132.796 106.086C132.695 106.284 132.56 106.434 132.391 106.538C132.222 106.641 132.009 106.693 131.751 106.693C131.499 106.693 131.289 106.639 131.119 106.533C130.95 106.426 130.812 106.275 130.706 106.081C130.599 105.887 130.522 105.653 130.475 105.38C130.428 105.106 130.404 104.801 130.404 104.461C130.404 104.11 130.426 103.787 130.47 103.491C130.513 103.197 130.588 102.942 130.691 102.729C130.795 102.516 130.931 102.349 131.101 102.23C131.27 102.111 131.48 102.051 131.731 102.051C131.99 102.051 132.203 102.109 132.372 102.225C132.541 102.341 132.678 102.503 132.781 102.71C132.886 102.917 132.959 103.167 133.003 103.459C133.047 103.751 133.069 104.076 133.069 104.433C133.069 104.778 133.049 105.091 133.008 105.37Z" fill="white"/>
</g>
<defs>
<clipPath id="clip0_15134_15649">
<rect width="101" height="101" fill="white" transform="translate(74.2109 65.8662)"/>
</clipPath>
</defs>
</svg>
