<svg width="36" height="36" viewBox="0 0 36 36" fill="none" xmlns="http://www.w3.org/2000/svg">
<g clip-path="url(#clip0_16236_22548)">
<path d="M18 36C27.9411 36 36 27.9411 36 18C36 8.05887 27.9411 0 18 0C8.05887 0 0 8.05887 0 18C0 27.9411 8.05887 36 18 36Z" fill="#808191"/>
<path d="M18.1512 12.7206C20.2704 12.7206 21.9516 14.0277 22.59 15.9715H26.8594C26.0859 11.8157 22.6571 9 18.1853 9C13.107 9 9.14062 12.8549 9.14062 18.0172C9.14062 23.1796 13.0078 27 18.1853 27C22.557 27 26.0539 24.1843 26.8281 19.9941H22.5896C21.9843 21.9382 20.3045 23.2794 18.1839 23.2794C15.2578 23.2794 13.2071 21.0333 13.2071 18.0172C13.2086 14.9667 15.2262 12.7206 18.1512 12.7206Z" fill="white"/>
</g>
<defs>
<clipPath id="clip0_16236_22548">
<rect width="36" height="36" fill="white"/>
</clipPath>
</defs>
</svg>
