<?xml version="1.0" encoding="utf-8"?>
<svg viewBox="0 0 44 44" xmlns="http://www.w3.org/2000/svg">
  <defs>
    <radialGradient cx="92.99686%" cy="99.98691%" r="127.08657%" gradientUnits="objectBoundingBox" id="1">
      <stop offset="0" stop-color="#5D9DF6" stop-opacity="1"/>
      <stop offset="1" stop-color="#006FFF" stop-opacity="1"/>
    </radialGradient>
    <mask id="264">
      <path transform="matrix(512 0 -0 -512 -6643 312330)" d="M14.2793 609.416C 14.2793 609.68115 14.173871 609.93567 13.986406 610.1231C 13.798942 610.31055 13.5444145 610.416 13.2793 610.416C 13.014185 610.416 12.759658 610.31055 12.572193 610.1231C 12.384728 609.93567 12.2793 609.68115 12.2793 609.416C 12.2793 609.1509 12.384728 608.89636 12.572193 608.7089C 12.759658 608.5215 13.014185 608.416 13.2793 608.416C 13.5444145 608.416 13.798942 608.5215 13.986406 608.7089C 14.173871 608.89636 14.2793 609.1509 14.2793 609.416z" fill="white"/>
    </mask>
  </defs>
  <g transform="matrix(0.999994, 0, 0, 0.999994, 0, 0)" style="">
    <g transform="matrix(0.085938 0 0 0.085938 -13.40633 -4.554715)">
      <path d="M412 53C 553.4 53 668 167.6 668 309C 668 450.4 553.4 565 412 565C 270.59998 565 156 450.4 156 309C 156 167.6 270.6 53 412 53z" stroke="none" mask="url(#264)" fill="url(#1)"/>
      <path d="M318.7 250.7C 370.2 200.4 453.80002 200.4 505.30002 250.7L505.30002 250.7L511.50003 256.8C 514.10004 259.3 514.10004 263.4 511.50003 265.9L511.50003 265.9L490.30002 286.6C 489.00003 287.9 486.90002 287.9 485.6 286.6L485.6 286.6L477.1 278.30002C 441.1 243.20001 382.90002 243.20001 346.90002 278.30002L346.90002 278.30002L337.80002 287.2C 336.50003 288.5 334.40002 288.5 333.1 287.2L333.1 287.2L311.9 266.5C 309.3 264 309.3 259.9 311.9 257.4L311.9 257.4L318.7 250.7zM549.2 293.5L568.10004 311.9C 570.7 314.4 570.7 318.5 568.10004 321L568.10004 321L483.00003 404.1C 480.40002 406.6 476.20004 406.6 473.70004 404.1C 473.70004 404.1 473.70004 404.1 473.70004 404.1L473.70004 404.1L413.30005 345.1C 412.70004 344.5 411.60004 344.5 411.00006 345.1C 411.00006 345.1 411.00006 345.1 411.00006 345.1L411.00006 345.1L350.60007 404.1C 348.00006 406.6 343.80008 406.6 341.30008 404.1C 341.30008 404.1 341.30008 404.1 341.30008 404.1L341.30008 404.1L255.9 321C 253.29999 318.5 253.29999 314.4 255.9 311.9L255.9 311.9L274.8 293.5C 277.4 291 281.59998 291 284.09998 293.5L284.09998 293.5L344.49997 352.5C 345.09998 353.1 346.19998 353.1 346.79996 352.5C 346.79996 352.5 346.79996 352.5 346.79996 352.5L346.79996 352.5L407.19995 293.5C 409.79996 291 413.99994 291 416.49994 293.5C 416.49994 293.5 416.49994 293.5 416.49994 293.5L416.49994 293.5L476.89993 352.5C 477.49994 353.1 478.59995 353.1 479.19992 352.5L479.19992 352.5L539.5999 293.5C 542.4 291 546.6 291 549.2 293.5z" stroke="none" fill="#FFFFFF" fill-rule="nonzero"/>
    </g>
  </g>
</svg>