<svg width="128" height="128" viewBox="0 0 128 128" fill="none" xmlns="http://www.w3.org/2000/svg">
<rect width="128" height="128" rx="64" fill="#FCFCFD"/>
<path fill-rule="evenodd" clip-rule="evenodd" d="M45.2933 36.4664C50.4934 35.7796 56.972 35.2 64 35.2C71.028 35.2 77.5066 35.7796 82.7067 36.4664C87.3866 37.0845 90.9155 40.6134 91.5336 45.2933C92.2204 50.4934 92.8 56.972 92.8 64C92.8 67.1313 92.6849 70.1535 92.4966 73.0022L86.0407 66.5463C81.823 62.3286 74.9849 62.3286 70.7672 66.5462L62.9495 74.3639C61.5436 75.7698 59.2642 75.7698 57.8584 74.3639L57.2407 73.7463C53.023 69.5286 46.1849 69.5286 41.9672 73.7462L36.0947 79.6187C36.2139 80.6906 36.3402 81.7216 36.4703 82.7066C36.7088 84.513 37.3811 86.1479 38.3857 87.5101L47.0584 78.8374C48.4643 77.4315 50.7436 77.4315 52.1495 78.8374L52.7672 79.4551C56.9848 83.6727 63.823 83.6727 68.0407 79.4551L75.8584 71.6374C77.2643 70.2315 79.5436 70.2315 80.9495 71.6374L91.5897 82.2775C91.5711 82.4215 91.5524 82.5646 91.5336 82.7067C90.9155 87.3866 87.3866 90.9155 82.7067 91.5336C77.5066 92.2204 71.028 92.8 64 92.8C56.972 92.8 50.4934 92.2204 45.2933 91.5336C40.6134 90.9155 37.0845 87.3866 36.4664 82.7067C35.7796 77.5066 35.2 71.028 35.2 64C35.2 56.972 35.7796 50.4934 36.4664 45.2933C37.0845 40.6134 40.6134 37.0845 45.2933 36.4664ZM29.3284 44.3506C30.3728 36.4422 36.4422 30.3728 44.3506 29.3284C49.7875 28.6103 56.5886 28 64 28C71.4114 28 78.2125 28.6103 83.6494 29.3284C91.5578 30.3728 97.6272 36.4422 98.6716 44.3506C99.3897 49.7875 100 56.5886 100 64C100 71.4114 99.3897 78.2125 98.6716 83.6494C97.6272 91.5578 91.5578 97.6272 83.6494 98.6716C78.2125 99.3897 71.4114 100 64 100C56.5886 100 49.7875 99.3897 44.3506 98.6716C36.4422 97.6272 30.3728 91.5578 29.3284 83.6494C28.6103 78.2125 28 71.4114 28 64C28 56.5886 28.6103 49.7875 29.3284 44.3506ZM60.404 53.2C60.404 57.1764 57.1804 60.4 53.204 60.4C49.2275 60.4 46.004 57.1764 46.004 53.2C46.004 49.2235 49.2275 46 53.204 46C57.1804 46 60.404 49.2235 60.404 53.2Z" fill="#B1B5C4"/>
</svg>
