<svg width="128" height="128" viewBox="0 0 128 128" fill="none" xmlns="http://www.w3.org/2000/svg">
<rect x="1.5" y="1.5" width="125" height="125" rx="62.5" fill="#FCFCFD"/>
<path fill-rule="evenodd" clip-rule="evenodd" d="M27.0251 94.0754C25.6583 95.4422 25.6583 97.6583 27.0251 99.0251C28.392 100.392 30.608 100.392 31.9749 99.0251L35.7655 95.2345C38.4019 97.8709 41.8964 99.6494 45.8506 100.172C51.2875 100.89 58.0886 101.5 65.5 101.5C72.9114 101.5 79.7125 100.89 85.1494 100.172C93.0578 99.1272 99.1272 93.0578 100.172 85.1494C100.89 79.7125 101.5 72.9114 101.5 65.5C101.5 58.0886 100.89 51.2875 100.172 45.8506C99.6494 41.8964 97.8709 38.4019 95.2345 35.7655L99.0251 31.9749C100.392 30.608 100.392 28.392 99.0251 27.0251C97.6583 25.6583 95.4422 25.6583 94.0754 27.0251L89.2339 31.8666C87.9448 31.3693 86.5771 31.0169 85.1494 30.8284C79.7125 30.1103 72.9114 29.5 65.5 29.5C58.0886 29.5 51.2875 30.1103 45.8506 30.8284C37.9422 31.8728 31.8728 37.9422 30.8284 45.8506C30.1103 51.2875 29.5 58.0886 29.5 65.5C29.5 72.9114 30.1103 79.7125 30.8284 85.1494C31.0169 86.5771 31.3692 87.9448 31.8666 89.2339L27.0251 94.0754ZM40.8567 90.1433L49.8469 81.1531C51.1261 80.1026 52.6214 79.3093 53.6495 80.3374L54.2672 80.9551C58.4848 85.1727 65.323 85.1727 69.5407 80.9551L77.3584 73.1374C78.7643 71.7315 81.0436 71.7315 82.4495 73.1374L93.0897 83.7775C93.0711 83.9215 93.0524 84.0646 93.0336 84.2067C92.4155 88.8866 88.8866 92.4155 84.2067 93.0336C79.0066 93.7204 72.528 94.3 65.5 94.3C58.472 94.3 51.9934 93.7204 46.7933 93.0336C44.4534 92.7246 42.4012 91.6878 40.8567 90.1433ZM57.0498 73.9502L90.1433 40.8567C91.6878 42.4012 92.7246 44.4534 93.0336 46.7933C93.7204 51.9934 94.3 58.472 94.3 65.5C94.3 68.6313 94.1849 71.6535 93.9966 74.5022L87.5407 68.0462C83.323 63.8286 76.4849 63.8286 72.2672 68.0462L64.4495 75.8639C63.0436 77.2698 60.7642 77.2698 59.3584 75.8639L58.7407 75.2463C58.2145 74.72 57.6475 74.2906 57.0498 73.9502ZM83.2565 37.844L45.7374 75.3631C44.9254 75.9189 44.1608 76.5526 43.4672 77.2462L37.8011 82.9123C37.1891 77.9487 36.7 71.9562 36.7 65.5C36.7 58.472 37.2796 51.9934 37.9664 46.7933C38.5845 42.1134 42.1134 38.5845 46.7933 37.9664C51.9934 37.2796 58.472 36.7 65.5 36.7C72.1062 36.7 78.2268 37.2121 83.2565 37.844ZM54.704 61.9C58.6804 61.9 61.904 58.6764 61.904 54.7C61.904 50.7236 58.6804 47.5 54.704 47.5C50.7275 47.5 47.504 50.7236 47.504 54.7C47.504 58.6764 50.7275 61.9 54.704 61.9Z" fill="#B1B5C3"/>
</svg>
