<svg width="21" height="21" viewBox="0 0 21 21" fill="none" xmlns="http://www.w3.org/2000/svg">
<path d="M4.66667 9.0332C3.75 9.0332 3 9.7832 3 10.6999C3 11.6165 3.75 12.3665 4.66667 12.3665C5.58333 12.3665 6.33333 11.6165 6.33333 10.6999C6.33333 9.7832 5.58333 9.0332 4.66667 9.0332ZM16.3333 9.0332C15.4167 9.0332 14.6667 9.7832 14.6667 10.6999C14.6667 11.6165 15.4167 12.3665 16.3333 12.3665C17.25 12.3665 18 11.6165 18 10.6999C18 9.7832 17.25 9.0332 16.3333 9.0332ZM10.5 9.0332C9.58333 9.0332 8.83333 9.7832 8.83333 10.6999C8.83333 11.6165 9.58333 12.3665 10.5 12.3665C11.4167 12.3665 12.1667 11.6165 12.1667 10.6999C12.1667 9.7832 11.4167 9.0332 10.5 9.0332Z" fill="#777E91"/>
</svg>
