<svg width="21" height="21" viewBox="0 0 21 21" fill="none" xmlns="http://www.w3.org/2000/svg">
<path fill-rule="evenodd" clip-rule="evenodd" d="M7.99882 9.06634C8.02332 9.52592 7.67061 9.91835 7.21103 9.94285C6.58379 9.97629 6.087 10.0172 5.69878 10.0581C5.17743 10.1131 4.86065 10.4334 4.80799 10.894C4.73238 11.5554 4.66667 12.5562 4.66667 14.0331C4.66667 15.51 4.73238 16.5109 4.80799 17.1722C4.86074 17.6337 5.17672 17.953 5.69729 18.0079C6.60898 18.1042 8.11604 18.1998 10.5 18.1998C12.884 18.1998 14.391 18.1042 15.3027 18.0079C15.8233 17.953 16.1393 17.6337 16.192 17.1722C16.2676 16.5109 16.3333 15.51 16.3333 14.0331C16.3333 12.5562 16.2676 11.5554 16.192 10.894C16.1394 10.4334 15.8226 10.1131 15.3012 10.0581C14.913 10.0172 14.4162 9.97629 13.789 9.94285C13.3294 9.91835 12.9767 9.52592 13.0012 9.06634C13.0257 8.60675 13.4181 8.25405 13.8777 8.27855C14.5301 8.31332 15.0558 8.35634 15.476 8.40066C16.713 8.53112 17.6997 9.4087 17.8479 10.7047C17.9323 11.4434 18 12.5094 18 14.0331C18 15.5569 17.9323 16.6229 17.8479 17.3615C17.6998 18.6568 16.7154 19.5348 15.4776 19.6654C14.4933 19.7693 12.9257 19.8665 10.5 19.8665C8.07435 19.8665 6.50672 19.7693 5.52236 19.6654C4.28459 19.5348 3.30017 18.6568 3.15211 17.3615C3.06767 16.6229 3 15.5569 3 14.0331C3 12.5094 3.06767 11.4434 3.15211 10.7047C3.30026 9.4087 4.28697 8.53112 5.52397 8.40066C5.94422 8.35634 6.46994 8.31332 7.1223 8.27855C7.58189 8.25405 7.97432 8.60675 7.99882 9.06634Z" fill="#777E91"/>
<path fill-rule="evenodd" clip-rule="evenodd" d="M8.17259 5.87246C7.84715 6.1979 7.31951 6.1979 6.99408 5.87246C6.66864 5.54702 6.66864 5.01938 6.99408 4.69395L9.91074 1.77728C10.2362 1.45184 10.7638 1.45184 11.0893 1.77728L14.0059 4.69395C14.3314 5.01938 14.3314 5.54702 14.0059 5.87246C13.6805 6.1979 13.1528 6.1979 12.8274 5.87246L11.3333 4.37838V12.3665C11.3333 12.8268 10.9602 13.1999 10.5 13.1999C10.0398 13.1999 9.66667 12.8268 9.66667 12.3665V4.37838L8.17259 5.87246Z" fill="#777E91"/>
</svg>
